<svg id="Layer_1" enable-background="new 0 0 64 64" height="512" viewBox="0 0 64 64" width="512" xmlns="http://www.w3.org/2000/svg"><g><path d="m58.371 38.071-10-4c-.274-.11-.586-.093-.848.049-.261.142-.445.392-.504.683l-.162.809-2.248-.501-1.777-2.666c-.155-.233-.401-.391-.679-.434-.276-.043-.56.032-.778.208l-.033.027-.523-2.094c1.483-1.747 2.602-3.882 3.005-6.263 2.204-.573 3.176-3.377 3.176-4.889 0-1.299-.508-1.957-1-2.291v-2.709c0-8.636-5.364-14-14-14-3.91 0-5.493 1.106-8.424 4.011-5.576.301-5.576 6.579-5.576 9.989v2.709c-.492.334-1 .992-1 2.291 0 1.51.97 4.31 3.17 4.888.398 2.443 1.534 4.555 3.011 6.265l-.524 2.092-.032-.025c-.219-.175-.503-.25-.778-.208-.277.043-.523.2-.679.434l-1.777 2.666-2.248.501-.162-.809c-.059-.291-.243-.542-.504-.683-.262-.142-.573-.158-.848-.049l-10 4c-.448.179-.704.652-.609 1.125l1 5c.059.291.243.542.504.683.148.079.312.12.476.12.047 0 .091-.02.138-.026-.089.563-.138 1.133-.138 1.709v16.317c0 .552.447 1 1 1s1-.448 1-1v-16.317c0-.871.132-1.728.377-2.556l7.994-3.198c.448-.179.704-.652.609-1.125l-.446-2.229 2.065-.46 6.611 8.5c.164.211.406.348.672.379.04.004.079.006.118.006.226 0 .446-.077.625-.219l1.534-1.227.813 1.626-1.965 16.703c-.064.548.328 1.045.876 1.11.04.005.079.007.118.007.5 0 .933-.375.992-.883l1.896-16.117h.222l1.896 16.117c.059.508.492.883.992.883.039 0 .078-.002.118-.007.548-.064.94-.562.876-1.11l-1.965-16.703.813-1.626 1.534 1.227c.179.142.399.219.625.219.039 0 .078-.002.117-.007.266-.031.508-.168.672-.379l6.611-8.5 2.065.46-.446 2.229c-.095.473.161.946.609 1.125l7.994 3.198c.246.829.378 1.685.378 2.557v16.317c0 .552.447 1 1 1s1-.448 1-1v-16.317c0-.576-.049-1.146-.138-1.709.047.006.091.026.138.026.164 0 .328-.041.477-.121.261-.142.445-.392.504-.683l1-5c.094-.472-.162-.946-.61-1.125zm-46.264-.437.601 3.006-1.259.504-.601-3.006zm-3.148 1.259.601 3.006-1.815.726-.601-3.005zm5.637.991-.601-3.006 1.26-.504.602 3.005zm29.404-18.386v-2.921c.487-.242.8-.256.872-.218.02.011.128.175.128.641 0 .708-.374 1.846-1 2.498zm-20-15.498c.266 0 .52-.105.707-.293 3.005-3.004 4.038-3.707 7.293-3.707 7.514 0 12 4.486 12 12v2.452c-.15.038-.3.075-.455.134-.414-1.047-1.097-2.553-1.838-3.293-1.351-1.351-4.688-1.583-8.553-1.853-2.979-.208-6.356-.443-7.6-1.272-.307-.205-.702-.224-1.026-.05-.325.174-.528.513-.528.882 0 2.653-2.12 4.885-3.107 5.781-.307-.154-.603-.254-.893-.327v-2.454c0-4.216.306-8 4-8zm-4.872 12.359c.07-.037.383-.024.872.218v2.92c-.626-.651-1-1.79-1-2.498 0-.465.108-.629.128-.64zm2.872.115c.94-.806 3.233-3.031 3.847-5.999 1.826.588 4.439.77 7.169.96 2.876.201 6.455.45 7.277 1.272.58.58 1.329 2.368 1.707 3.462v3.831c0 6.058-6.081 11-10 11-3.423 0-10-4.645-10-11zm2.832 13.319c2.407 2.052 5.21 3.207 7.168 3.207 2.17 0 4.876-1.19 7.172-3.187l.452 1.807-7.624 6.099-7.624-6.1zm2.335 11.793-5.936-7.631.995-1.493 8.173 6.538zm5.215 1.414h-.764l-.862-1.724 1.244-.995 1.244.995zm4.451-1.414-3.232-2.586 8.173-6.538.995 1.493zm17.607-1.687.601-3.006 1.816.726-.602 3.005zm-1.889-.756-1.259-.504.601-3.006 1.259.504zm-3.806-4.768 1.26.504-.601 3.006-1.26-.504z"/><path d="m18 56c-.553 0-1 .448-1 1v6c0 .552.447 1 1 1s1-.448 1-1v-6c0-.552-.447-1-1-1z"/><path d="m46 56c-.553 0-1 .448-1 1v6c0 .552.447 1 1 1s1-.448 1-1v-6c0-.552-.447-1-1-1z"/><path d="m42 56h-3c-.553 0-1 .448-1 1s.447 1 1 1h3c.553 0 1-.448 1-1s-.447-1-1-1z"/></g></svg>