<svg id="Layer_1" enable-background="new 0 0 512 512" height="512" viewBox="0 0 512 512" width="512" xmlns="http://www.w3.org/2000/svg"><g><path d="m125.613 482.444h44.385c25.73 0 25.768-40.088 0-40.088h-44.385c-25.729 0-25.767 40.088 0 40.088zm0-25.088h44.385c6.52 0 6.52 10.088 0 10.088h-44.385c-6.519 0-6.519-10.088 0-10.088z"/><path d="m180.696 257.79-48.859 48.86-16.921-16.922c-6.859-6.854-17.464 3.749-10.607 10.607l22.225 22.225c3.536 2.928 7.072 2.928 10.607 0l54.163-54.163c6.856-6.858-3.749-17.461-10.608-10.607z"/><path d="m506.429 331.796c-3.028-5.78-5.222-12.112-6.712-18.467-7.314-30.594-18.426-60.234-33.023-88.098l-24.407-46.586c-13.816-26.374-54.591-21.989-62.289 6.938-18.259-6.569-38.871 4.228-43.864 22.98-15.095-5.432-32.526.966-40.529 14.849v-164.689-29.42c-.001-16.157-13.146-29.303-29.305-29.303h-174.72c-9.697 0-9.697 15 0 15h174.72c7.887 0 14.304 6.416 14.304 14.303v21.92h-265.597v-21.92c0-7.887 6.416-14.303 14.303-14.303h20.271c9.697 0 9.697-15 0-15h-20.271c-16.157 0-29.303 13.146-29.303 29.303v29.42 361.485 62.489c0 16.157 13.146 29.303 29.303 29.303h236.99c16.158 0 29.304-13.146 29.304-29.303v-62.489-30.041l26.801 13.256c6.623 3.276 12.066 8.73 15.328 15.36 11.906 24.195 42.422 34.226 66.392 21.667l44.685-23.41c8.59-4.5 1.629-17.786-6.961-13.287l-44.685 23.41c-16.598 8.7-37.698 1.81-45.972-15.003-4.711-9.573-12.572-17.451-22.137-22.183l-113.733-56.256c-21.361-10.375-5.913-43.886 15.781-33.768l41.296 21.739c6.371 3.354 13.478-3.738 10.137-10.116l-71.739-136.932c-11.78-22.146 19.767-42.588 31.8-19.616l50.708 96.788 13.245 25.282c4.372 8.349 17.775 1.607 13.287-6.961l-12.895-24.613c-5.222-17.401 16.261-31.431 30.088-19.3l14.349 27.388c4.372 8.349 17.775 1.607 13.287-6.961l-14.59-27.848c-1.365-15.999 18.227-26.295 30.612-15.742l14.442 27.568c4.372 8.349 17.775 1.607 13.287-6.961l-14.445-27.572c-1.965-19.635 25.67-28.352 35.026-10.491l24.407 46.586c14.022 26.765 24.695 55.237 31.722 84.622 1.705 7.623 4.388 15.021 8.014 21.942 8.642 16.494 2.252 36.943-14.241 45.585-8.589 4.502-1.627 17.788 6.961 13.287 23.821-12.479 33.048-42.011 20.568-65.831zm-225.825 150.901c0 7.887-6.417 14.303-14.304 14.303h-236.99c-7.887 0-14.303-6.416-14.303-14.303v-54.989h265.597zm-87.755-180.301c-5.091 10.702-4.102 23.52 2.532 33.335-12.403 12.979-29.419 20.334-47.576 20.334-36.332 0-65.89-29.558-65.89-65.89s29.558-65.89 65.89-65.89c34.473 0 62.829 26.616 65.641 60.375-8.883 2.71-16.604 9.34-20.597 17.736zm54.456-164.832c-3.27-2.655-7.043-4.697-11.185-5.991-24.024-7.507-48.219 14.523-42.931 39.125h-142.384c-1.379 0-2.5-1.121-2.5-2.5v-53.598c0-1.379 1.121-2.5 2.5-2.5h194c1.379 0 2.5 1.121 2.5 2.5zm33.299 57.688-18.299-34.927v-45.725c0-9.649-7.851-17.5-17.5-17.5h-194c-9.649 0-17.5 7.851-17.5 17.5v53.599c0 9.649 7.851 17.5 17.5 17.5h148.848l58.417 111.501-20.126-10.595c-.089-.047-.18-.093-.271-.136-2.98-1.418-6.097-2.374-9.268-2.872-3.362-41.535-38.214-74.312-80.599-74.312-44.603 0-80.89 36.287-80.89 80.89s36.287 80.89 80.89 80.89c22.37 0 43.346-9.071 58.584-25.11 23.794 13.712 49.595 24.615 74.214 36.792v29.96h-265.597v-346.484h265.597z"/></g></svg>