<?xml version="1.0"?>
<svg xmlns="http://www.w3.org/2000/svg" viewBox="0 0 64 64" width="512" height="512"><g id="Rating"><path d="M29,48a1,1,0,0,1-1-1V43a1,1,0,0,1,2,0v4A1,1,0,0,1,29,48Z"/><circle cx="14" cy="7" r="1"/><circle cx="19" cy="7" r="1"/><circle cx="24" cy="7" r="1"/><path d="M34.47,27.5a.93.93,0,0,1-.46-.12l-2-1.05-2,1.05a1,1,0,0,1-1-.07,1,1,0,0,1-.4-1l.39-2.24L27.3,22.51a1,1,0,0,1,.56-1.71l2.24-.32,1-2a1,1,0,0,1,1.8,0l1,2,2.24.32a1,1,0,0,1,.56,1.71l-1.63,1.58.39,2.24a1,1,0,0,1-.4,1A1.06,1.06,0,0,1,34.47,27.5ZM32,24.2a1,1,0,0,1,.47.11l.67.36L33,23.91A1,1,0,0,1,33.3,23l.55-.54-.76-.11a1,1,0,0,1-.75-.55L32,21.15l-.34.68a1,1,0,0,1-.75.55l-.76.11.55.54a1,1,0,0,1,.29.88l-.13.76.67-.36A1,1,0,0,1,32,24.2Z"/><path d="M21.47,27.5a.93.93,0,0,1-.46-.12l-2-1.05-2,1.05a1,1,0,0,1-1-.07,1,1,0,0,1-.4-1l.39-2.24L14.3,22.51a1,1,0,0,1,.56-1.71l2.24-.32,1-2a1,1,0,0,1,1.8,0l1,2,2.24.32a1,1,0,0,1,.56,1.71l-1.63,1.58.39,2.24a1,1,0,0,1-.4,1A1,1,0,0,1,21.47,27.5ZM19,24.2a1,1,0,0,1,.47.11l.67.36L20,23.91A1,1,0,0,1,20.3,23l.55-.54-.76-.11a1,1,0,0,1-.75-.55L19,21.15l-.34.68a1,1,0,0,1-.75.55l-.76.11.55.54a1,1,0,0,1,.29.88l-.13.76.67-.36A1,1,0,0,1,19,24.2Z"/><path d="M47.47,27.5a.93.93,0,0,1-.46-.12l-2-1.05-2,1.05a1,1,0,0,1-1.05-.07,1,1,0,0,1-.4-1l.39-2.24L40.3,22.51a1,1,0,0,1,.56-1.71l2.24-.32,1-2a1,1,0,0,1,1.8,0l1,2,2.24.32a1,1,0,0,1,.56,1.71l-1.63,1.58.39,2.24a1,1,0,0,1-.4,1A1.06,1.06,0,0,1,47.47,27.5ZM45,24.2a1,1,0,0,1,.47.11l.67.36L46,23.91A1,1,0,0,1,46.3,23l.55-.54-.76-.11a1,1,0,0,1-.75-.55L45,21.15l-.34.68a1,1,0,0,1-.75.55l-.76.11.55.54a1,1,0,0,1,.29.88l-.13.76.67-.36A1,1,0,0,1,45,24.2Z"/><path d="M55,12H9a1,1,0,0,1,0-2H55a1,1,0,0,1,0,2Z"/><path d="M29,62a.94.94,0,0,1-.55-.17,14.43,14.43,0,0,1-6.45-12V41a3,3,0,0,1,2.83-3A5,5,0,0,1,28,39V32.64A3.61,3.61,0,0,1,31.14,29,3.5,3.5,0,0,1,35,32.5v5.84a3.41,3.41,0,0,1,4.44,1.33,3.45,3.45,0,0,1,5.36,1.77A3.5,3.5,0,0,1,46.86,41,3.61,3.61,0,0,1,50,44.64V49a1,1,0,0,1-2,0V44.64A1.62,1.62,0,0,0,46.66,43,1.5,1.5,0,0,0,45,44.5a1,1,0,0,1-2,0V42.64A1.62,1.62,0,0,0,41.66,41a1.55,1.55,0,0,0-1.17.38A1.53,1.53,0,0,0,40,42.5a1,1,0,0,1-2,0v-.86A1.62,1.62,0,0,0,36.66,40,1.5,1.5,0,0,0,35,41.5a1,1,0,0,1-2,0v-9a1.53,1.53,0,0,0-.49-1.12A1.55,1.55,0,0,0,31.34,31,1.62,1.62,0,0,0,30,32.64V43a1,1,0,0,1-2,0,3,3,0,0,0-3.1-3,1,1,0,0,0-.9,1v8.79a12.47,12.47,0,0,0,5.55,10.38A1,1,0,0,1,29,62Z"/><path d="M43,62a1,1,0,0,1-.55-1.83,12.49,12.49,0,0,0,5.2-7.45,1,1,0,0,1,1.94.48,14.46,14.46,0,0,1-6,8.63A.94.94,0,0,1,43,62Z"/><path d="M29,40H12a4,4,0,0,1-4-4V33a1,1,0,0,1,2,0v3a2,2,0,0,0,2,2H29a1,1,0,0,1,0,2Z"/><path d="M52,40H34a1,1,0,0,1,0-2H52a2,2,0,0,0,2-2V6a2,2,0,0,0-2-2H12a2,2,0,0,0-2,2V24a1,1,0,0,1-2,0V6a4,4,0,0,1,4-4H52a4,4,0,0,1,4,4V36A4,4,0,0,1,52,40Z"/><path d="M9,30a1,1,0,0,1-1-1V28a1,1,0,0,1,2,0v1A1,1,0,0,1,9,30Z"/></g></svg>
