<?xml version="1.0" encoding="UTF-8"?>
<!-- Generator: Adobe Illustrator 24.1.3, SVG Export Plug-In . SVG Version: 6.00 Build 0)  -->
<svg xmlns="http://www.w3.org/2000/svg" xmlns:xlink="http://www.w3.org/1999/xlink" version="1.1" id="Layer_1" x="0px" y="0px" viewBox="0 0 512 512" style="enable-background:new 0 0 512 512;" xml:space="preserve" width="512" height="512">
<path d="M468.6,70.6c4.2-3.6,4.6-9.9,1-14.1c-1.9-2.2-4.7-3.5-7.6-3.5h-45.8C373.6,19.8,314.1,0,256,0C195.6,0,134.4,21.5,90.2,57.8  L75.7,45.6c-4.2-3.6-10.5-3-14.1,1.2c-1.4,1.7-2.2,3.8-2.3,6l-1.6,37.4C21.5,134,0,195.6,0,256c0,53,16.7,108,45.1,149.2l-10.3,8.5  c-4.3,3.5-4.8,9.8-1.3,14.1c1.5,1.8,3.7,3.1,6,3.5l31.7,5.4C117.7,484,187.2,512,256,512c67.1,0,133.6-26.1,179.6-70.2l17.4,12.4  c4.5,3.2,10.7,2.2,13.9-2.3c1.4-1.9,2-4.3,1.8-6.7l-3.1-38.2c29.1-41,46.4-97.2,46.4-151c0-62.4-22.8-125-61.3-169.9L468.6,70.6z   M83.8,78.6c3.8,3.2,9.4,3.1,13.1-0.2C137.9,41.8,197.3,20,256,20c43.7,0,88.3,12,124.5,33h-23.2c-5.5,0-10,4.5-10,10  c0,0.7,0.1,1.5,0.2,2.2l4,17.6C323.4,68.3,289.2,60,256,60c-48.1,0-95.4,17.6-125.4,42.3c-4.3,3.6-4.9,10-1.3,14.3  c0.6,0.7,1.2,1.3,1.9,1.8l6.7,5.1l-62,12.1L78.4,74L83.8,78.6z M407.3,350.2l-51.5,19.1c-5.2,1.9-7.8,7.7-5.9,12.8  c0.7,2,2.1,3.7,3.8,4.9l13,8.7C337,418.3,295.8,432,256,432c-41.6,0-85.3-15.1-114.9-39.6l-2.8-46.1c-0.3-5.5-5.1-9.7-10.6-9.4  c-2.5,0.2-4.8,1.2-6.5,3L107.3,354c-17-27.2-27.3-63.7-27.3-98c0-38.4,12.8-79.1,33.7-107.4l49.9-9.8c5.4-1,9-6.3,7.9-11.7  c-0.5-2.4-1.8-4.6-3.8-6.1l-14.1-10.7c0.4-0.3,0.7-0.6,1-0.8C182.9,91,220.7,80,256,80c35.9,0,74.4,11.2,101.5,29.5l10.9,48.3  c1.2,5.4,6.6,8.8,12,7.5c1.8-0.4,3.5-1.3,4.8-2.6l13.6-13.4c20.7,29,33.2,68.8,33.2,106.7C432,288.9,422.6,324.6,407.3,350.2z   M66.7,400.9C37.5,362.4,20,308.2,20,256c0-45.6,13.2-92,36.3-129.4l-0.9,20.8c-0.2,5.5,4.1,10.2,9.6,10.4c0.8,0,1.6,0,2.3-0.2  l19.2-3.8C69.7,183.6,60,220.2,60,256c0,43.3,14.2,88.1,37.9,119.7c3.3,4.4,9.6,5.3,14,2c0.4-0.3,0.8-0.6,1.1-1l6.6-6.8l3.4,55.4  l-58.7-10.1l0.7-0.6C69.2,411.2,69.9,405.2,66.7,400.9z M441.6,421.5c-4-3.8-10.3-3.7-14.1,0.3C385,465.7,320.9,492,256,492  c-52.6,0-106.3-18.2-147-48.8l23.1,4c5.4,0.9,10.6-2.7,11.5-8.2c0.1-0.8,0.2-1.5,0.1-2.3l-1.1-18.4c31.9,21,73.5,33.6,113.3,33.6  c49.2,0,100.6-19.1,134.2-49.9c4.1-3.7,4.4-10.1,0.6-14.1c-0.5-0.6-1.2-1.1-1.8-1.6l-7.8-5.2l60.5-22.5l5.4,66.7L441.6,421.5z   M462.9,373.4l-2.4-29.5c-0.4-5.5-5.3-9.6-10.8-9.2c-0.9,0.1-1.8,0.3-2.7,0.6l-12.1,4.5c11.2-26.6,17-55.1,17.1-83.9  c0-46.3-17-95.4-44.5-128c-3.6-4.2-9.9-4.8-14.1-1.2c-0.2,0.2-0.4,0.3-0.6,0.5l-8.9,8.6L369.8,73h65.4l-5,4.3l-0.4,0.4l-0.2,0.2  c-4,3.8-4.2,10.1-0.4,14.1l0,0c39.3,41.7,62.8,103,62.8,164C492,296.7,481.4,338.8,462.9,373.4z"/>
<path d="M212,270.1h17c1.3,12.3,0.5,16.7-9.4,30l-10.4,13.1c-2.8,3.5-3.4,8.4-1.4,12.4c1.9,4.1,6,6.7,10.6,6.7l81.7,0.7h0.1  c6.5,0,11.8-5.2,11.8-11.7c0.1-6.5-5.2-11.9-11.7-11.9l-57.9-0.5c9.3-13.6,11.8-23.3,10.4-38.9h16.6c6.5,0,11.8-5.3,11.8-11.8  c0-6.5-5.3-11.8-11.8-11.8h-22.5c-3.8-5.9-10-17.5-10-26.9c0,0,0,0,0,0c0,0,0,0,0,0c0-5.9,2.6-10.3,8-13.3c8.4-4.8,22-4.9,29.6-0.2  c6.1,3.7,10.7,8.8,12,13.4c1.8,6.3,8.3,9.9,14.6,8.1c6.3-1.8,9.9-8.3,8.1-14.6c-2.9-10.3-11.1-20.2-22.4-27.1  c-15-9.1-37.6-9.2-53.6-0.2c-12.9,7.3-20,19.3-20,33.9v0v0v0.1v0c0,9.6,3.1,19.2,6.7,26.9H212c-6.5,0-11.8,5.3-11.8,11.8  C200.1,264.8,205.4,270.1,212,270.1L212,270.1z"/>
</svg>
