<?xml version="1.0" encoding="UTF-8"?>
<!-- Generator: Adobe Illustrator 24.1.3, SVG Export Plug-In . SVG Version: 6.00 Build 0)  -->
<svg xmlns="http://www.w3.org/2000/svg" xmlns:xlink="http://www.w3.org/1999/xlink" version="1.1" id="Icons" x="0px" y="0px" viewBox="0 0 512 512" style="enable-background:new 0 0 512 512;" xml:space="preserve" width="512" height="512">
<path d="M196.3,238.9h119.5c14.1,0.1,25.5-11.3,25.6-25.4c0-6.4-2.3-12.6-6.7-17.3c9.5-10.4,8.7-26.5-1.7-36  c-4.7-4.3-10.9-6.7-17.3-6.7H307c37.8-28.2,45.6-81.6,17.5-119.4C296.3-3.6,242.8-11.4,205,16.7s-45.6,81.6-17.5,119.4  c4.9,6.6,10.8,12.5,17.5,17.5h-8.8c-14.1-0.1-25.5,11.3-25.6,25.4c0,6.4,2.3,12.6,6.7,17.3c-9.5,10.4-8.7,26.5,1.7,36  C183.7,236.6,189.9,239,196.3,238.9z M315.7,221.9H196.3c-4.7,0-8.5-3.8-8.5-8.5s3.8-8.5,8.5-8.5h119.5c4.7,0,8.5,3.8,8.5,8.5  S320.4,221.9,315.7,221.9z M187.7,85.3c0-37.7,30.6-68.3,68.3-68.3s68.3,30.6,68.3,68.3s-30.6,68.3-68.3,68.3S187.8,123,187.7,85.3z   M196.3,170.7h119.5c4.7,0,8.5,3.8,8.5,8.5s-3.8,8.5-8.5,8.5H196.3c-4.7,0-8.5-3.8-8.5-8.5S191.6,170.7,196.3,170.7z"/>
<path d="M89.1,301.7l-34-87.1c-5.6-14.7-22.1-22-36.8-16.4C4.7,203.4-2.7,218,1,232l29,103.3c3.5,13.2,13.2,23.9,25.9,28.8  l87.5,33.6l-23,84.5c-0.6,2-0.9,4.2-0.9,6.3c0,13,10.6,23.5,23.6,23.5h72.4c13,0,23.5-10.6,23.6-23.6V315.7  c0-23.6-19.1-42.6-42.7-42.7H129c-12.7-0.2-23.8,8.8-26.2,21.3c-0.7,4.3-0.3,8.7,1.1,12.8H97C93.5,307.2,90.3,305,89.1,301.7z   M128,324.3h59.7c4.7,0,8.5-3.8,8.5-8.5s-3.8-8.5-8.5-8.5H128c-4.7,0-8.5-3.8-8.5-8.5c0-0.5,0-1,0.1-1.5c1-4.3,4.9-7.2,9.3-7h67.4  c14.1,0,25.6,11.5,25.6,25.6v172.7c0,3.6-2.9,6.5-6.5,6.5H143c-3.6,0-6.5-2.9-6.5-6.5l0,0c0-0.6,0.1-1.2,0.2-1.7l25.1-91.9  c1.2-4.2-1.1-8.7-5.2-10.2L62,348.2c-7.7-3-13.5-9.4-15.6-17.4l-29-103.2c-1.5-6.1,2.2-12.3,8.3-13.8c5.6-1.4,11.3,1.6,13.4,7  l34,87.1c3.8,9.9,13.3,16.4,23.9,16.4L128,324.3L128,324.3z"/>
<path d="M409.3,294.4c-2.4-12.5-13.4-21.5-26.2-21.3h-67.4c-23.6,0-42.6,19.1-42.7,42.7v172.7c0,13,10.6,23.5,23.6,23.6H369  c13,0,23.6-10.6,23.6-23.6c0-2.1-0.3-4.2-0.9-6.2l-23-84.5l87.5-33.6c12.7-4.9,22.3-15.6,25.9-28.7l29-103.4  c4-15.2-5.1-30.8-20.3-34.7c-14-3.7-28.6,3.8-33.8,17.3l-34.1,87.2c-1.3,3.3-4.4,5.5-8,5.5h-6.8C409.6,303.1,410,298.7,409.3,294.4z   M414.9,324.3c10.6,0,20-6.5,23.9-16.4l34.1-87.2c2.2-5.9,8.8-8.8,14.7-6.6c5.4,2,8.4,7.8,7,13.3l-29,103.4  c-2.1,7.9-7.9,14.4-15.6,17.3l-94.7,36.4c-4.1,1.6-6.3,6-5.2,10.2l25.1,91.9c0.9,3.5-1.1,7-4.6,8c-0.5,0.1-1.1,0.2-1.7,0.2h-72.4  c-3.6,0-6.5-2.9-6.5-6.5V315.7c0-14.1,11.5-25.6,25.6-25.6H383c4.4-0.2,8.3,2.8,9.3,7c0.8,4.6-2.3,9.1-6.9,9.9  c-0.5,0.1-1,0.1-1.5,0.1h-59.7c-4.7,0-8.5,3.8-8.5,8.5s3.8,8.5,8.5,8.5h90.7V324.3z"/>
<path d="M227.7,90.4h10.8c0.9,7.8,0.3,10.6-5.9,19l-6.6,8.3c-1.8,2.2-2.1,5.3-0.9,7.9c1.2,2.6,3.8,4.2,6.7,4.3l51.8,0.5h0.1  c4.1,0,7.5-3.3,7.5-7.4c0-4.1-3.3-7.5-7.4-7.6l-36.7-0.3c5.9-8.6,7.5-14.7,6.6-24.6H264c4.1,0,7.5-3.4,7.5-7.5  c0-4.1-3.4-7.5-7.5-7.5h-14.3c-2.4-3.8-6.4-11.1-6.3-17c0,0,0,0,0,0c0,0,0,0,0,0c0-3.8,1.6-6.5,5-8.5c5.3-3,13.9-3.1,18.8-0.1  c3.9,2.3,6.8,5.6,7.6,8.5c1.1,4,5.3,6.3,9.3,5.2c4-1.1,6.3-5.3,5.2-9.3c-1.9-6.6-7-12.8-14.2-17.2c-9.5-5.8-23.8-5.8-33.9-0.1  c-8.2,4.6-12.7,12.3-12.7,21.5v0v0v0v0c0,6.1,2,12.1,4.2,17h-5c-4.1,0-7.5,3.4-7.5,7.5C220.2,87,223.5,90.4,227.7,90.4L227.7,90.4z"/>
</svg>
