<?xml version="1.0" encoding="UTF-8"?>
<!-- Generator: Adobe Illustrator 24.1.3, SVG Export Plug-In . SVG Version: 6.00 Build 0)  -->
<svg xmlns="http://www.w3.org/2000/svg" xmlns:xlink="http://www.w3.org/1999/xlink" version="1.1" id="Layer_1" x="0px" y="0px" viewBox="0 0 512 512" style="enable-background:new 0 0 512 512;" xml:space="preserve" width="512" height="512">
<g id="_023---Investing-Money">
	<path id="Shape" d="M450.2,11.7C430.8-7.8,402.4-0.9,384,17.8L234.6,167L189,179.2c-7.6,2.3-12,10.3-9.8,17.9   c0.8,2.6,2.2,4.9,4.2,6.7l26.5,26.6c5.4,5.9,14.5,6.4,20.5,1c2-1.8,3.4-4.1,4.2-6.6l11.3-43.1l60.5-17.1c8.9-2.6,18.6-0.1,25.2,6.5   l64.2,64.3c10,10,26.2,10,36.2,0.1c0,0,0,0,0.1-0.1l72.4-72.4c10-10,10-26.2,0-36.2l-36.2-36.2C447.7,69.5,472,33.5,450.2,11.7z    M219.8,215.4l-21.2-21.2l28.8-7.6L219.8,215.4z M492.9,150.5l-72.5,72.4c-3.3,3.3-8.7,3.3-12,0l-64.7-64.2   c-8-8-18.9-12.5-30.2-12.5c-8.5,0-10.7,1.4-45.2,11.2L389.9,35.8l102.4,102.4c3.4,3.2,3.6,8.6,0.4,12.1c-0.1,0.1-0.1,0.2-0.2,0.2   H492.9z M402.4,24.3c11.9-8.5,25.6-10.8,35.7-0.5c7.8,7.8,3.9,23.5,4,40.2L402.4,24.3z"/>
	<path id="Shape-2" d="M162.1,264.5c4.6,0,4.9-1.3,23.1-19.5c3.3-3.3,3.3-8.8,0-12.1s-8.8-3.3-12.1,0l-17.1,17.1   c-3.3,3.3-3.4,8.7-0.1,12.1C157.6,263.6,159.8,264.5,162.1,264.5z"/>
	<path id="Shape-3" d="M196.3,256v8.5c0,4.7,3.8,8.5,8.5,8.5c4.7,0,8.5-3.8,8.5-8.5c0,0,0,0,0,0V256c0-4.7-3.8-8.5-8.5-8.5   C200.1,247.5,196.3,251.3,196.3,256z"/>
	<path id="Shape-4" d="M170.7,213.3c0-4.7-3.8-8.5-8.5-8.5c0,0,0,0,0,0h-8.5c-4.7,0.2-8.4,4.1-8.2,8.8c0.2,4.5,3.8,8.1,8.2,8.2h8.5   C166.8,221.9,170.7,218,170.7,213.3z"/>
	<path id="Shape-5" d="M512,420.2c-0.1-6-5.1-10.7-11.1-10.6c-1.8,0-3.6,0.5-5.2,1.5c-14,8.4-25.9,19.9-34.9,33.6v-46.9   c9.6-7.6,17.1-27,17.1-47.9v-8.5c0.8-8.6-5.6-16.3-14.2-17.1c0,0,0,0,0,0h-22.7c-8.6,0.8-15,8.4-14.3,17c0,0,0,0.1,0,0.1v8.5   c0,20.9,7.4,40.3,17.1,47.9v46.9c-9-13.7-20.9-25.2-34.9-33.6c-5.2-3-11.8-1.3-14.8,3.9c-0.9,1.6-1.4,3.4-1.5,5.2   c0.7,39.4,12.3,61.9,25.1,74.8H343c16-15.4,31.7-44.5,32.5-99.8c-0.1-6.2-5.1-11.1-11.3-11.1c-2,0-4,0.6-5.8,1.7   c-17.9,12-32.6,28.2-42.7,47.3v-76.8c16.6-10.7,26.4-29.3,25.6-49.1v-34.1c0-9.4-7.6-17.1-17-17.1c0,0,0,0-0.1,0h-34.1   c-9.4,0-17.1,7.6-17.1,17.1c0,0,0,0,0,0v34.1c-0.7,19.7,9,38.3,25.6,48.9v76.8c-10.1-19-24.8-35.3-42.7-47.3   c-5.2-3.3-12.1-1.6-15.4,3.6c-1.1,1.7-1.7,3.7-1.7,5.8c0.9,55.3,16.5,84.4,32.5,99.8h-128c27.7-21.2,59.7-68.3,61-174.9   c0.1-7-5.5-12.8-12.5-12.9c-2.6,0-5.2,0.7-7.3,2.2c-33.6,25-59.2,59.2-73.7,98.6V203c13.7-5,18.8-19.4,19.1-34.1   c7.1,7.6,16.8,12.2,27.2,13c13.8-0.1,24.9-11.3,24.9-25.1c0-1.6-0.2-3.2-0.5-4.7c-2-8.5-6.3-16.2-12.5-22.3   c8.7,0.2,17.2-2.2,24.6-6.7c19.4-13.5,14.9-47.5-24.6-48.5c26.9-28.3,6.7-55.9-17.1-51.2c-8.4,2-16.1,6.3-22.2,12.5   c0.1-8.7-2.3-17.2-6.8-24.6C109.7-8.5,75.7-3.8,74.8,35.7c-28.3-27-55.9-6.6-51.2,17.1c2,8.4,6.3,16.1,12.5,22.2   c-8.7-0.1-17.2,2.3-24.6,6.8C-7.7,95-3.8,129.2,36.1,130.1c-6.2,6.1-10.6,13.8-12.5,22.3c-4.3,23.3,23,44.2,51.6,17.1   c0,14.6,5.3,29,19.1,34.1v204.8c-14.6-39.6-40.4-74-74.4-99c-5.8-4-13.7-2.5-17.7,3.3c-1.5,2.2-2.3,4.7-2.2,7.4   c1.5,106.6,33.3,153.7,61,174.8H8.5c-4.7,0.2-8.4,4.1-8.2,8.8c0.2,4.5,3.8,8.1,8.2,8.2h494.9c4.7-0.2,8.4-4.1,8.2-8.8   c-0.2-4.5-3.8-8.1-8.2-8.2h-16.6C499.7,482,511.3,459.6,512,420.2z M494.3,432.7c-3.8,40.9-21.5,55-32.9,59.7   C463.9,469,475.8,447.4,494.3,432.7L494.3,432.7z M443.7,341.3h17.1v8.5c0.4,11.4-2.6,22.7-8.5,32.4c-6-9.7-8.9-21-8.5-32.4   L443.7,341.3z M410.3,432.7c18.5,14.7,30.3,36.2,32.9,59.7C431.9,487.6,414,473.5,410.3,432.7L410.3,432.7z M358,407.1   c-3.8,61.2-28.2,79.7-41.8,85.3c1.8-33,17.1-63.8,42.2-85.3L358,407.1z M290.1,307.2v-34.1h34.1v34.1c1,13.6-5.6,26.7-17.1,34.1   C295.7,333.9,289.2,320.8,290.1,307.2z M256.4,407.2c25,21.6,40.1,52.4,41.8,85.3C284.6,486.9,260.2,468.4,256.4,407.2z    M187.7,328.8c-4.3,129.2-55.3,157.6-76.8,164.4C114.6,396.9,165.9,346,187.7,328.8L187.7,328.8z M162.7,162.7   c-1.9,2-4.7,2.8-7.4,2.1c-10.2-3.5-18.6-10.9-23.4-20.6c4.7-3.5,8.9-7.6,12.4-12.4c9.7,4.8,17,13.2,20.6,23.4   C165.6,158,164.7,160.8,162.7,162.7L162.7,162.7z M184,95.7c3.7,2.3,4.9,7.2,2.6,10.9c-0.6,1-1.5,1.9-2.6,2.6   c-9.7,4.7-20.9,5.4-31.1,2c1-5.8,1-11.8,0-17.6C163.1,90.2,174.3,90.9,184,95.7z M155.3,39.9c4.3-1,8.5,1.6,9.6,5.9   c0.3,1.2,0.3,2.5,0,3.7c-3.5,10.2-10.9,18.6-20.6,23.4c-3.5-4.7-7.6-8.9-12.4-12.4C136.7,50.8,145.1,43.5,155.3,39.9z M95.6,20.8   c2.3-3.7,7.2-4.9,10.9-2.6c1,0.6,1.9,1.5,2.6,2.6c4.6,9.8,5.3,20.9,1.9,31.2c-5.8-1-11.8-1-17.6,0C90.1,41.7,90.9,30.5,95.6,20.8   L95.6,20.8z M42.1,42.1c1.9-2,4.7-2.8,7.4-2.1c10.2,3.5,18.6,10.9,23.4,20.6C68.1,64,64,68.1,60.5,72.9c-9.7-4.8-17-13.2-20.6-23.4   C39.2,46.8,40.1,44,42.1,42.1z M37.3,91.7c5,0.1,9.9,0.8,14.7,2.1c-1,5.8-1,11.8,0,17.6c-10.3,3.4-21.4,2.7-31.1-2   C13.5,104.1,15.4,91.7,37.3,91.7z M49.5,164.9c-4.3,1-8.5-1.6-9.5-5.9c-0.3-1.2-0.3-2.5,0-3.7c3.5-10.2,10.9-18.6,20.6-23.4   c3.5,4.7,7.6,8.9,12.4,12.4C68.1,154,59.7,161.3,49.5,164.9z M71.5,117c-0.3-0.5-0.6-0.9-1-1.4c0.1-0.6,0.1-1.1,0-1.7   c-2.6-7.4-2.6-15.6,0-23c0-0.5,0-1,0-1.4c3.5-7.7,9.5-14.1,17.1-18c0.5-0.3,0.9-0.6,1.3-0.9c8.1-2.7,16.8-2.7,24.8,0   c0.6,0.1,1.1,0.1,1.7,0c4,2.1,7.6,4.7,10.9,7.8c3.1,3.3,5.8,7.1,7.8,11.2c1.4,4.2,2.3,8.5,2.5,12.9c-0.2,4.5-1,8.9-2.2,13.2   c-2.1,4-4.7,7.6-7.8,10.9c-3.3,3-7,5.6-10.9,7.8c-0.6-0.1-1.1-0.1-1.7,0c-7.4,2.7-15.6,2.7-23,0c-0.6-0.1-1.1-0.1-1.7,0   c-0.4-0.4-0.9-0.7-1.4-1C80.7,129.9,74.9,124.1,71.5,117L71.5,117z M93.9,152.8c5.8,1,11.8,1,17.6,0c3.4,10.3,2.7,21.4-2,31.1   c-2.3,3.7-7.2,4.9-10.9,2.6c-1-0.6-1.9-1.5-2.6-2.6C91.2,174.3,90.5,163.1,93.9,152.8L93.9,152.8z M17.1,328.8   c21.6,17.1,73,68.3,76.8,164.3C72.5,486.4,21.3,457,17.1,328.8L17.1,328.8z"/>
</g>
<path d="M390.1,165.7l8.4-8.4c6.7,5.4,8.5,8,10.2,19.5l1.3,11.7c0.4,3.1,2.5,5.8,5.5,6.9c3,1.1,6.3,0.3,8.6-1.9l40.9-40.1l0.1-0.1  c3.2-3.2,3.2-8.4,0.1-11.7c-3.2-3.3-8.5-3.3-11.7-0.1l-28.9,28.4c-2.2-11.3-5.7-17.4-14.1-24.4l8.2-8.2c3.2-3.2,3.2-8.5,0-11.7  c-3.2-3.2-8.5-3.2-11.7,0l-11.2,11.2c-4.8-1-13.7-3.7-18.3-8.4c0,0,0,0,0,0c0,0,0,0,0,0c-3-2.9-3.8-6.4-2.7-10.6  c1.8-6.5,8.5-13.3,14.6-14.8c4.9-1.2,9.7-0.9,12.6,0.7c4,2.2,9,0.8,11.3-3.2c2.2-4,0.8-9-3.2-11.3c-6.6-3.7-15.5-4.5-24.6-2.3  c-12,2.9-23.2,14.1-26.6,26.5c-2.8,10-0.3,19.5,6.9,26.7l0,0l0,0l0,0l0,0c4.8,4.8,11,8,16.6,10l-3.9,3.9c-3.2,3.2-3.2,8.5,0,11.7  S386.8,168.9,390.1,165.7L390.1,165.7z"/>
</svg>
