<?xml version="1.0"?>
<svg xmlns="http://www.w3.org/2000/svg" id="Line_Expand" data-name="Line Expand" viewBox="0 0 64 64" width="512" height="512"><path d="M58,1H6V31H58ZM56,3V25H52V21H42v4H8V3ZM50,25H44V23h6ZM8,29V27H56v2Z"/><path d="M64,37H58a3.0033,3.0033,0,0,0-3-3H43a3.0033,3.0033,0,0,0-3,3H34v6h2V59h2V43h2.1843A2.995,2.995,0,0,0,43,45h1v5H40v6h2v7h2V56H54v7h2V56h2V50H54V45h1a2.995,2.995,0,0,0,2.8157-2H60V59h2V43h2ZM36,39h4v2H36ZM56,54H42V52H56Zm-4-4H46V45h6Zm4-8a1.0009,1.0009,0,0,1-1,1H43a1.0009,1.0009,0,0,1-1-1V37a1.0009,1.0009,0,0,1,1-1H55a1.0009,1.0009,0,0,1,1,1Zm6-1H58V39h4Z"/><path d="M21,34H9a3.0033,3.0033,0,0,0-3,3H0v6H2V59H4V43H6.1843A2.995,2.995,0,0,0,9,45h1v5H6v6H8v7h2V56H20v7h2V56h2V50H20V45h1a2.995,2.995,0,0,0,2.8157-2H26V59h2V43h2V37H24A3.0033,3.0033,0,0,0,21,34ZM2,39H6v2H2ZM22,54H8V52H22Zm-4-4H12V45h6Zm4-8a1.0009,1.0009,0,0,1-1,1H9a1.0009,1.0009,0,0,1-1-1V37a1.0009,1.0009,0,0,1,1-1H21a1.0009,1.0009,0,0,1,1,1Zm6-3v2H24V39Z"/></svg>
