<svg height="496pt" viewBox="0 0 496 496" width="496pt" xmlns="http://www.w3.org/2000/svg"><path d="m280 168h-24v-40h-16v56h40zm0 0"/><path d="m496 320h-104v-48h-56v-160h16v-48h-28.367188l-56-64h-39.257812l-56 64h-28.375v48h16v160h-56v48h-104v48h16v128h464v-128h16zm-120 0h-36.542969l-39.386719-32h75.929688zm-47.902344 32-80.097656-65.070312-80.097656 65.070312h-25.375l105.472656-85.695312 105.464844 85.695312zm-25.378906 0h-109.4375l54.71875-44.464844zm-54.71875-240c35.289062 0 64 28.710938 64 64s-28.710938 64-64 64-64-28.710938-64-64 28.710938-64 64-64zm32.375 160-20.839844-16.929688c26.703125-3.886718 49.121094-20.957031 60.457032-44.429687v61.359375zm39.625-130.640625c-5.625-11.632813-13.953125-21.679687-24.199219-29.359375h24.199219zm-84.367188-125.359375h24.742188l42 48h-108.742188zm-75.632812 64h176v16h-176zm40.199219 32c-10.246094 7.671875-18.582031 17.726562-24.199219 29.359375v-29.359375zm-24.199219 98.640625c11.335938 23.464844 33.753906 40.542969 60.457031 44.429687l-20.832031 16.929688h-39.625zm-56 77.359375h75.929688l-39.386719 32h-36.542969zm304 192h-32v-80h32zm-48 0h-16v-80h16zm-32 0h-32v-80h32zm-48 0h-16v-80h16zm-32 0h-32v-80h32zm-48 0h-16v-80h16zm-32 0h-32v-80h32zm-48 0h-16v-80h16zm-32 0h-32v-80h32zm376-128h-72v16h56v112h-24v-96h-384v96h-24v-112h56v-16h-72v-16h120.847656l-19.6875 16h-13.160156v16h288v-16h-13.160156l-19.6875-16h120.847656zm0 0"/></svg>