<?xml version="1.0" encoding="iso-8859-1"?>
<!-- Generator: Adobe Illustrator 19.0.0, SVG Export Plug-In . SVG Version: 6.00 Build 0)  -->
<svg version="1.1" id="Capa_1" xmlns="http://www.w3.org/2000/svg" xmlns:xlink="http://www.w3.org/1999/xlink" x="0px" y="0px"
	 viewBox="0 0 512 512" style="enable-background:new 0 0 512 512;" xml:space="preserve">
<g>
	<g>
		<g>
			<path d="M111.035,231.888l21.047,11.55l11.513,21.123c2.164,3.969,6.313,6.435,10.83,6.435c4.516,0,8.665-2.466,10.828-6.435
				l11.513-21.123l21.046-11.55c3.953-2.169,6.408-6.32,6.408-10.833s-2.456-8.665-6.408-10.833l-21.047-11.55l-11.513-21.122
				c-2.163-3.97-6.313-6.436-10.828-6.436c-4.516,0-8.666,2.466-10.829,6.435l-11.513,21.123l-21.046,11.55
				c-3.953,2.169-6.408,6.32-6.408,10.833S107.083,229.719,111.035,231.888z M139.981,211.447c2.073-1.138,3.768-2.837,4.9-4.916
				l9.542-17.507l9.544,17.51c1.133,2.078,2.827,3.776,4.898,4.913l17.508,9.608l-17.508,9.608c-2.072,1.137-3.766,2.835-4.9,4.916
				l-9.542,17.507l-9.542-17.507c-1.132-2.078-2.827-3.778-4.9-4.916l-17.508-9.608L139.981,211.447z"/>
			<path d="M433.617,310.734c-2.127-3.019-5.6-4.822-9.291-4.822c-3.691,0-7.164,1.803-9.291,4.821l-19.445,27.594
				c-2.766,3.924-2.767,9.199,0,13.125l19.446,27.594c2.127,3.019,5.6,4.821,9.29,4.821s7.163-1.802,9.291-4.821l19.445-27.595
				c2.766-3.925,2.766-9.199,0-13.124L433.617,310.734z M424.326,366.19l-15.01-21.3l15.01-21.3l15.01,21.3L424.326,366.19z"/>
			<path d="M298.279,61.537l-19.446-27.595c-2.127-3.019-5.601-4.821-9.291-4.821s-7.163,1.803-9.289,4.821l-19.446,27.595
				c-2.766,3.925-2.766,9.2,0,13.124l19.445,27.593c2.127,3.02,5.6,4.822,9.29,4.822h0.001c3.69,0,7.164-1.802,9.291-4.821
				l19.445-27.594C301.045,70.736,301.045,65.462,298.279,61.537z M269.543,89.397l-15.009-21.299l15.009-21.299l15.01,21.299
				L269.543,89.397z"/>
			<path d="M395.423,197.973l-36.438-51.707c-2.76-3.917-7.265-6.255-12.051-6.255s-9.292,2.338-12.051,6.255l-36.438,51.707
				c-3.591,5.096-3.591,11.945,0,17.042l36.438,51.707c2.76,3.917,7.265,6.255,12.051,6.255c4.786,0,9.291-2.338,12.051-6.255
				l36.437-51.706C399.015,209.918,399.015,203.07,395.423,197.973z M346.935,257.782l-36.143-51.288l36.143-51.288l36.143,51.288
				L346.935,257.782z"/>
			<path d="M459.152,0H234.716c-14.804,0-26.848,12.074-26.848,26.914v11.914h-11.848c-14.804,0-26.848,12.074-26.848,26.914v27.319
				c-4.841-0.558-9.762-0.845-14.75-0.845c-35.061,0-66.882,14.165-90.08,37.094c-0.25,0.193-0.491,0.404-0.721,0.632
				c-0.242,0.242-0.464,0.495-0.667,0.76C40.116,153.974,26,185.894,26,221.055s14.116,67.081,36.957,90.352
				c0.202,0.265,0.424,0.518,0.667,0.76c0.23,0.229,0.471,0.44,0.721,0.633c8.839,8.737,18.931,16.2,29.977,22.094h-0.674
				c-15.164,0-27.5,12.336-27.5,27.5V484.5c0,15.164,12.336,27.5,27.5,27.5h121.554c15.164,0,27.5-12.336,27.5-27.5v-32.684h177.755
				c14.804,0,26.848-12.074,26.848-26.914v-11.914h11.848c14.804,0,26.848-12.074,26.848-26.914V26.914
				C486,12.074,473.956,0,459.152,0z M184.174,65.742c0-6.569,5.315-11.914,11.848-11.914h11.848v50.082
				c-7.535-3.474-15.466-6.238-23.696-8.204V65.742z M161.924,107.463c25.65,1.688,48.999,11.973,67.208,28.003l-18.187,18.249
				c-13.488-11.411-30.439-18.826-49.021-20.411V107.463z M221.536,277.772c11.389-13.54,18.79-30.559,20.365-49.218h25.703
				c-1.677,25.745-11.917,49.182-27.886,67.461L221.536,277.772z M229.132,306.643c-18.209,16.031-41.558,26.315-67.208,28.003
				v-25.842c18.582-1.584,35.533-9,49.021-20.411L229.132,306.643z M241.901,213.554v0.001
				c-1.576-18.659-8.977-35.678-20.365-49.218l18.182-18.244c15.969,18.279,26.209,41.716,27.886,67.461H241.901z M227.216,221.055
				c0,40.29-32.655,73.068-72.793,73.068S81.63,261.345,81.63,221.055c0-40.29,32.655-73.068,72.793-73.068
				C194.561,147.987,227.216,180.765,227.216,221.055z M146.924,107.463v25.842c-18.582,1.584-35.533,9-49.021,20.41l-18.187-18.249
				C97.926,119.436,121.273,109.151,146.924,107.463z M69.13,146.093l18.181,18.244c-11.389,13.54-18.79,30.559-20.365,49.218
				H41.244C42.919,187.81,53.161,164.372,69.13,146.093z M41.244,228.555h25.702c1.576,18.659,8.976,35.678,20.365,49.218
				L69.13,296.016C53.161,277.737,42.919,254.3,41.244,228.555z M79.716,306.643l18.186-18.249
				c13.488,11.411,30.439,18.826,49.021,20.411v25.842C121.273,332.958,97.924,322.674,79.716,306.643z M227.701,484.5
				c0,6.893-5.607,12.5-12.5,12.5H93.647c-6.893,0-12.5-5.607-12.5-12.5V362.393c0-6.893,5.607-12.5,12.5-12.5h121.554
				c6.893,0,12.5,5.607,12.5,12.5V484.5z M471,386.074c0,6.569-5.315,11.914-11.848,11.914H308.481c-4.142,0-7.5,3.358-7.5,7.5
				c0,4.142,3.358,7.5,7.5,7.5h123.823v11.914c0,6.569-5.315,11.914-11.848,11.914H242.701v-23.828h36.275
				c4.142,0,7.5-3.358,7.5-7.5c0-4.142-3.358-7.5-7.5-7.5h-36.275v-35.596c0-15.164-12.336-27.5-27.5-27.5h-0.675
				c11.046-5.894,21.138-13.357,29.977-22.094c0.25-0.193,0.491-0.404,0.721-0.633c0.242-0.242,0.464-0.496,0.667-0.76
				c22.841-23.271,36.957-55.191,36.957-90.352c0-35.161-14.116-67.081-36.957-90.352c-0.203-0.264-0.425-0.518-0.667-0.76
				c-0.23-0.229-0.471-0.44-0.721-0.633c-6.563-6.487-13.812-12.269-21.634-17.23V26.914c0-6.569,5.315-11.914,11.848-11.914
				h224.435C465.685,15,471,20.345,471,26.914V386.074z"/>
			<path d="M193.12,361.587c-5.884,0-11.415,2.298-15.573,6.471c-8.567,8.596-8.567,22.583,0,31.18
				c4.158,4.172,9.688,6.47,15.573,6.47s11.415-2.298,15.573-6.471c8.567-8.596,8.567-22.583,0-31.18
				C204.534,363.885,199.004,361.587,193.12,361.587z M198.068,388.649c-1.323,1.328-3.081,2.059-4.949,2.059
				c-1.868,0-3.625-0.731-4.948-2.059c-2.749-2.758-2.749-7.245,0-10.003c1.323-1.328,3.081-2.059,4.949-2.059
				c1.868,0,3.625,0.731,4.948,2.059C200.815,381.404,200.815,385.891,198.068,388.649z"/>
			<path d="M193.12,443.508c-5.884,0-11.415,2.298-15.573,6.47c-8.567,8.597-8.567,22.584,0,31.181
				c4.158,4.172,9.688,6.47,15.573,6.47s11.415-2.298,15.573-6.47c8.567-8.596,8.567-22.583,0-31.181
				C204.534,445.806,199.004,443.508,193.12,443.508z M198.068,470.57c-1.323,1.328-3.081,2.059-4.949,2.059
				c-1.868,0-3.625-0.731-4.949-2.059c-2.749-2.758-2.748-7.245,0-10.003c1.323-1.328,3.081-2.059,4.949-2.059
				c1.868,0,3.625,0.731,4.948,2.059C200.815,463.325,200.817,467.812,198.068,470.57z"/>
			<path d="M115.728,443.508c-5.884,0-11.415,2.298-15.573,6.47c-8.567,8.597-8.567,22.584,0,31.18
				c4.158,4.172,9.688,6.471,15.573,6.471c5.884,0,11.415-2.298,15.573-6.471c8.566-8.596,8.566-22.583,0-31.18
				C127.143,445.806,121.612,443.508,115.728,443.508z M120.677,470.57c-1.324,1.328-3.081,2.059-4.949,2.059
				c-1.868,0-3.625-0.731-4.948-2.059c-2.748-2.758-2.748-7.245,0-10.003c1.323-1.328,3.08-2.059,4.948-2.059
				c1.868,0,3.625,0.731,4.949,2.059C123.424,463.325,123.424,467.812,120.677,470.57z"/>
			<path d="M169.997,407.856c-4.158-4.173-9.688-6.47-15.573-6.471c-5.884,0-11.415,2.298-15.574,6.471
				c-8.566,8.596-8.566,22.583,0,31.18c4.158,4.172,9.689,6.47,15.573,6.47c5.884,0,11.415-2.298,15.573-6.471
				C178.564,430.44,178.564,416.453,169.997,407.856z M159.372,428.448c-1.323,1.327-3.08,2.059-4.948,2.059
				s-3.625-0.731-4.949-2.059c-2.748-2.758-2.748-7.246,0-10.003c1.323-1.328,3.081-2.059,4.949-2.059
				c1.868,0,3.625,0.731,4.948,2.059C162.121,421.203,162.121,425.69,159.372,428.448z"/>
			<path d="M115.728,405.708c5.884,0,11.415-2.298,15.574-6.471c8.566-8.596,8.566-22.583,0-31.18
				c-4.158-4.172-9.689-6.47-15.573-6.47s-11.415,2.298-15.573,6.471c-8.567,8.596-8.567,22.583,0,31.18
				C104.313,403.41,109.844,405.708,115.728,405.708z M110.78,378.646c1.323-1.327,3.08-2.059,4.948-2.059
				c1.868,0,3.625,0.731,4.949,2.059c2.748,2.758,2.748,7.246,0,10.003c-1.324,1.328-3.081,2.059-4.949,2.059
				c-1.868,0-3.625-0.731-4.948-2.059C108.031,385.891,108.031,381.404,110.78,378.646z"/>
		</g>
	</g>
</g>
<g>
</g>
<g>
</g>
<g>
</g>
<g>
</g>
<g>
</g>
<g>
</g>
<g>
</g>
<g>
</g>
<g>
</g>
<g>
</g>
<g>
</g>
<g>
</g>
<g>
</g>
<g>
</g>
<g>
</g>
</svg>
