<?xml version="1.0" encoding="iso-8859-1"?>
<!-- Generator: Adobe Illustrator 17.1.0, SVG Export Plug-In . SVG Version: 6.00 Build 0)  -->
<!DOCTYPE svg PUBLIC "-//W3C//DTD SVG 1.1//EN" "http://www.w3.org/Graphics/SVG/1.1/DTD/svg11.dtd">
<svg version="1.1" id="Capa_1" xmlns="http://www.w3.org/2000/svg" xmlns:xlink="http://www.w3.org/1999/xlink" x="0px" y="0px"
	 viewBox="0 0 204.826 204.826" style="enable-background:new 0 0 204.826 204.826;" xml:space="preserve">
<path d="M70.133,120.088H34.168c-7.335,0-13.302-5.967-13.302-13.301V68.394V28.244v-0.071c0-6.373,4.506-11.707,10.498-12.999
	c-0.137,6.329,0.501,14.083,2.73,23.07h-3.228v20.149h10.211C48.492,76.099,60.622,101.042,70.133,120.088z M43.947,0
	l91.191,162.166c0.125,0.223,0.266,0.433,0.418,0.631c0.05,0.065,0.108,0.121,0.16,0.183c0.108,0.128,0.215,0.256,0.334,0.373
	c0.069,0.067,0.145,0.126,0.217,0.189c0.113,0.099,0.224,0.199,0.344,0.288c0.082,0.061,0.17,0.113,0.255,0.169
	c0.119,0.078,0.238,0.157,0.363,0.225c0.093,0.051,0.19,0.093,0.286,0.139c0.125,0.06,0.25,0.119,0.38,0.169
	c0.102,0.039,0.206,0.07,0.31,0.104c0.131,0.042,0.261,0.082,0.395,0.114c0.108,0.026,0.218,0.045,0.328,0.064
	c0.135,0.024,0.27,0.045,0.407,0.059c0.113,0.011,0.227,0.017,0.341,0.022c0.077,0.003,0.152,0.015,0.229,0.015
	c0.117,0,0.235-0.004,0.352-0.011c0.488-0.03,0.982-0.034,1.478-0.027c0.184,0.003,0.369,0.012,0.554,0.02
	c0.347,0.015,0.697,0.039,1.047,0.073c0.194,0.019,0.388,0.039,0.583,0.064c0.366,0.047,0.734,0.108,1.103,0.177
	c0.173,0.032,0.346,0.059,0.52,0.097c0.535,0.115,1.073,0.249,1.614,0.414c0.005,0.001,0.01,0.002,0.014,0.004
	c8.154,2.49,14.003,10.006,14.234,18.529l0,0c0.018,0.665-0.003,1.32-0.048,1.967c-0.005,0.075-0.007,0.15-0.013,0.225
	c-0.049,0.612-0.129,1.214-0.231,1.808c-0.017,0.101-0.034,0.202-0.052,0.302c-0.109,0.58-0.243,1.15-0.4,1.71
	c-0.028,0.1-0.058,0.199-0.088,0.299c-0.167,0.561-0.354,1.112-0.568,1.65c-0.031,0.079-0.066,0.156-0.098,0.234
	c-0.229,0.556-0.476,1.102-0.751,1.631c-0.014,0.027-0.03,0.053-0.044,0.079c-0.275,0.522-0.575,1.027-0.893,1.52
	c-0.035,0.055-0.068,0.112-0.104,0.166c-0.317,0.48-0.659,0.943-1.015,1.393c-0.061,0.077-0.121,0.155-0.183,0.231
	c-0.354,0.433-0.726,0.85-1.114,1.252c-0.074,0.076-0.148,0.152-0.223,0.227c-0.396,0.397-0.806,0.778-1.233,1.141
	c-0.07,0.06-0.143,0.117-0.214,0.176c-0.447,0.368-0.906,0.722-1.384,1.051c-0.041,0.028-0.083,0.053-0.124,0.081
	c-0.479,0.325-0.973,0.629-1.481,0.912c-0.044,0.024-0.086,0.051-0.13,0.075c-0.511,0.28-1.038,0.533-1.575,0.768
	c-0.084,0.037-0.167,0.075-0.251,0.111c-0.524,0.221-1.061,0.419-1.606,0.595c-0.099,0.032-0.197,0.063-0.296,0.094
	c-0.548,0.168-1.106,0.315-1.672,0.436c-0.093,0.02-0.188,0.037-0.281,0.056c-0.585,0.116-1.177,0.211-1.778,0.275
	c-0.059,0.006-0.119,0.009-0.179,0.015c-0.615,0.059-1.237,0.094-1.866,0.096c-0.03,0-0.059,0.002-0.088,0.002
	c-0.515,0-1.036-0.027-1.559-0.068c-0.127-0.01-0.255-0.022-0.382-0.034c-0.527-0.051-1.057-0.115-1.589-0.208
	c-0.003,0-0.005-0.001-0.008-0.001c-8.088-1.419-14.503-7.847-16.066-15.819c-0.104-0.531-0.187-1.07-0.247-1.614
	c-0.154-1.391-0.162-2.75-0.04-4.068c0.122-1.318,0.373-2.594,0.737-3.82c0.202-0.68,0.267-1.381,0.202-2.065
	c-0.108-1.14-0.577-2.235-1.372-3.11l-16.94-18.655v0L93.03,143.111c0,0-1.607-3.102-4.239-8.261l0,0
	c-1.987-3.896-4.561-8.968-7.468-14.761l0,0c-9.069-18.072-21.39-43.181-29.381-61.698c-0.773-1.792-1.505-3.521-2.191-5.177
	c-0.029-0.07-0.058-0.141-0.087-0.21c-0.316-0.764-0.62-1.51-0.914-2.241c-0.054-0.134-0.106-0.265-0.159-0.397
	c-0.285-0.711-0.562-1.409-0.825-2.085c-0.006-0.015-0.012-0.03-0.018-0.045c-0.347-0.892-0.674-1.773-0.987-2.644
	c-0.228-0.636-0.439-1.261-0.649-1.886c-0.071-0.209-0.147-0.422-0.216-0.63c-0.263-0.799-0.512-1.589-0.748-2.37
	c-0.006-0.021-0.013-0.042-0.02-0.063c-0.244-0.809-0.474-1.608-0.691-2.397l0,0c-2.567-9.35-3.205-17.237-3.024-23.374
	c0.159-5.366,0.938-9.396,1.591-11.898c0.001-0.006,0.003-0.012,0.005-0.018c0.07-0.267,0.138-0.516,0.204-0.748
	c0.004-0.012,0.007-0.025,0.01-0.037c0.064-0.225,0.126-0.432,0.185-0.623c0.004-0.012,0.008-0.024,0.011-0.036
	c0.057-0.185,0.111-0.353,0.161-0.504c0.004-0.013,0.009-0.027,0.013-0.04c0.049-0.147,0.094-0.277,0.134-0.391
	c0.003-0.009,0.007-0.021,0.01-0.03c0.04-0.111,0.074-0.204,0.103-0.282c0.002-0.006,0.006-0.015,0.008-0.021
	C43.912,0.083,43.947,0,43.947,0z M133.597,189.741c0.001,0.002,0.002,0.003,0.003,0.005c0.184,0.322,0.39,0.622,0.606,0.911
	c0.065,0.086,0.133,0.168,0.2,0.252c0.169,0.21,0.346,0.41,0.531,0.601c0.07,0.073,0.139,0.147,0.211,0.218
	c0.254,0.245,0.517,0.477,0.794,0.688c0.026,0.02,0.055,0.036,0.082,0.056c0.256,0.19,0.521,0.362,0.794,0.522
	c0.09,0.053,0.181,0.101,0.272,0.151c0.23,0.125,0.465,0.238,0.704,0.342c0.086,0.037,0.171,0.078,0.258,0.112
	c0.32,0.126,0.645,0.238,0.977,0.326c0.05,0.013,0.102,0.021,0.153,0.034c0.286,0.071,0.575,0.128,0.867,0.17
	c0.104,0.015,0.208,0.027,0.312,0.039c0.263,0.029,0.526,0.046,0.792,0.051c0.063,0.001,0.125,0.012,0.188,0.012
	c0.027,0,0.053-0.005,0.08-0.005c0.338-0.003,0.677-0.023,1.015-0.065c0.056-0.007,0.111-0.02,0.166-0.028
	c0.284-0.041,0.567-0.096,0.849-0.165c0.106-0.026,0.212-0.057,0.317-0.087c0.242-0.069,0.482-0.149,0.72-0.24
	c0.1-0.038,0.2-0.073,0.299-0.115c0.327-0.138,0.651-0.291,0.967-0.471c1.602-0.916,2.812-2.253,3.57-3.793
	c0.631-1.283,0.949-2.706,0.918-4.143c-0.025-1.149-0.273-2.307-0.762-3.407c-0.122-0.275-0.26-0.547-0.412-0.814
	c-0.185-0.324-0.392-0.626-0.61-0.917c-0.064-0.086-0.132-0.167-0.198-0.25c-0.169-0.21-0.346-0.411-0.532-0.603
	c-0.07-0.073-0.139-0.147-0.211-0.217c-0.254-0.245-0.517-0.478-0.795-0.688c-0.026-0.02-0.053-0.035-0.079-0.054
	c-0.256-0.19-0.522-0.363-0.795-0.523c-0.09-0.053-0.182-0.102-0.274-0.152c-0.229-0.124-0.463-0.237-0.701-0.34
	c-0.087-0.038-0.173-0.078-0.261-0.113c-0.319-0.126-0.644-0.237-0.975-0.326c-0.051-0.014-0.102-0.021-0.153-0.034
	c-0.286-0.071-0.575-0.127-0.867-0.17c-0.104-0.015-0.207-0.027-0.312-0.039c-0.263-0.029-0.526-0.046-0.792-0.051
	c-0.063-0.001-0.125-0.012-0.188-0.012c-0.027,0-0.053,0.005-0.08,0.005c-0.338,0.003-0.677,0.023-1.016,0.065
	c-0.055,0.007-0.11,0.02-0.165,0.028c-0.285,0.041-0.569,0.096-0.852,0.165c-0.106,0.026-0.21,0.057-0.316,0.087
	c-0.243,0.069-0.483,0.15-0.722,0.241c-0.099,0.038-0.199,0.073-0.297,0.115c-0.327,0.138-0.651,0.291-0.967,0.471
	c-2.403,1.374-3.924,3.697-4.36,6.227c-0.048,0.281-0.083,0.565-0.105,0.85C132.318,186.373,132.682,188.14,133.597,189.741z
	 M170.659,14.871h-3.296c-0.297-9.237-2.444-14.381-2.444-14.381l-8.183,14.381H63.782l13.143,23.373h97.034v20.149H88.256
	l36.865,65.558c0.637-1.248,1.292-2.535,1.967-3.863h43.571c7.334,0,13.301-5.967,13.301-13.301V68.394V28.244v-0.071
	C183.96,20.838,177.993,14.871,170.659,14.871z M87.641,173.366c-1.279,1.395-1.726,3.353-1.196,5.17
	c0.716,2.455,0.978,5.11,0.656,7.891c-1.007,8.701-7.767,15.88-16.402,17.35c-12.62,2.148-23.826-7.729-23.419-20.384
	c0.274-8.522,6.161-16.008,14.328-18.457c2.369-0.71,4.689-0.935,6.916-0.787c2.096,0.14,4.095-0.88,5.134-2.706l9.218-16.2
	c0.693,1.346,1.137,2.204,1.273,2.467c0.398,0.769,0.894,1.483,1.476,2.123l11.741,12.93L87.641,173.366z M71.723,176.852
	c-4.26-2.463-9.71-1.007-12.173,3.252c-2.464,4.26-1.008,9.709,3.252,12.173c4.259,2.463,9.709,1.008,12.173-3.252
	C77.439,184.766,75.983,179.316,71.723,176.852z"/>
<g>
</g>
<g>
</g>
<g>
</g>
<g>
</g>
<g>
</g>
<g>
</g>
<g>
</g>
<g>
</g>
<g>
</g>
<g>
</g>
<g>
</g>
<g>
</g>
<g>
</g>
<g>
</g>
<g>
</g>
</svg>
