<?xml version="1.0" encoding="iso-8859-1"?>
<!-- Generator: Adobe Illustrator 19.0.0, SVG Export Plug-In . SVG Version: 6.00 Build 0)  -->
<svg version="1.1" id="Capa_1" xmlns="http://www.w3.org/2000/svg" xmlns:xlink="http://www.w3.org/1999/xlink" x="0px" y="0px"
	 viewBox="0 0 512 512" style="enable-background:new 0 0 512 512;" xml:space="preserve">
<g>
	<g>
		<path d="M480,80H32C14.368,80,0,94.368,0,112v288c0,17.664,14.368,32,32,32h448c17.664,0,32-14.336,32-32V112
			C512,94.368,497.664,80,480,80z M176,368H80c-8.832,0-16-7.168-16-16c0-8.832,7.168-16,16-16h96c8.832,0,16,7.168,16,16
			C192,360.832,184.832,368,176,368z M384,272c-15.232,0-29.024-5.536-40-14.4c-10.976,8.864-24.768,14.4-40,14.4
			c-35.36,0-64-28.64-64-64s28.64-64,64-64c15.232,0,29.024,5.536,40,14.4c10.976-8.864,24.768-14.4,40-14.4c35.36,0,64,28.64,64,64
			S419.36,272,384,272z"/>
	</g>
</g>
<g>
</g>
<g>
</g>
<g>
</g>
<g>
</g>
<g>
</g>
<g>
</g>
<g>
</g>
<g>
</g>
<g>
</g>
<g>
</g>
<g>
</g>
<g>
</g>
<g>
</g>
<g>
</g>
<g>
</g>
</svg>
