<svg id="Layer_1" enable-background="new 0 0 512.169 512.169" height="512" viewBox="0 0 512.169 512.169" width="512" xmlns="http://www.w3.org/2000/svg"><g><path d="m239.422 269.854c6.519 16.59 13.68 22.772 16.663 22.772s10.145-6.183 16.662-22.772c6.029-15.349 9.963-35.725 11.214-57.466h-55.752c1.25 21.74 5.184 42.116 11.213 57.466z"/><path d="m211.928 281.75c-7.823-19.499-12.451-44.065-13.762-69.362h-36.135c4.792 30.157 23.789 55.641 49.897 69.362z"/><path d="m211.928 113.025c-26.108 13.721-45.106 39.205-49.898 69.363h36.135c1.312-25.298 5.941-49.864 13.763-69.363z"/><path d="m300.24 281.75c26.109-13.721 45.106-39.205 49.898-69.362h-36.135c-1.311 25.297-5.94 49.863-13.763 69.362z"/><path d="m272.747 124.921c-6.518-16.59-13.679-22.772-16.662-22.772s-10.145 6.183-16.663 22.773c-6.029 15.348-9.963 35.725-11.214 57.466h55.752c-1.25-21.741-5.184-42.118-11.213-57.467z"/><path d="m400.625 0h-341.823v512.169h341.823c29.082 0 52.742-23.66 52.742-52.742v-406.685c0-29.082-23.66-52.742-52.742-52.742zm-67.051 445.741h-154.979v-30h154.979zm28-59.394h-210.979v-30h210.979zm-105.489-63.721c-69.057 0-125.239-56.182-125.239-125.238s56.182-125.24 125.239-125.24 125.238 56.183 125.238 125.239-56.181 125.239-125.238 125.239z"/><path d="m350.138 182.388c-4.792-30.158-23.789-55.642-49.898-69.363 7.823 19.499 12.451 44.065 13.762 69.363z"/></g></svg>