<?xml version="1.0" encoding="UTF-8"?>
<svg xmlns="http://www.w3.org/2000/svg" id="Layer_1" data-name="Layer 1" viewBox="0 0 512 512" width="512" height="512"><path d="M503.91,202.68l-43.11-37V70.27A17.07,17.07,0,0,0,443.73,53.2h-51.2a17.06,17.06,0,0,0-17.06,17.07v22.2L280,10.56a37.92,37.92,0,0,0-48,0L8.09,202.68c-9.85,8.41-8.6,15.31-7,18.72,1.42,3.06,5.43,7.92,16.36,8.94a33.08,33.08,0,0,0,4.76.29h12V514H477.87V230.34l11.93.29a31,31,0,0,0,4.67-.29c10.94-1,14.95-5.88,16.45-8.94C512.5,218,513.76,211.09,503.91,202.68ZM170.67,462.8A85.34,85.34,0,1,1,256,377.47,85.07,85.07,0,0,1,170.67,462.8Zm25.6-77.53a6.54,6.54,0,0,1-1.52,1.8,7.48,7.48,0,0,1-2.16,1.26,7.31,7.31,0,0,1-2.63.47H163.14l-1.49,12.94a33.86,33.86,0,0,1-2.27,8.83,27,27,0,0,1-4.63,7.25c2.56-.58,5.11-1,7.65-1.38a58.42,58.42,0,0,1,7.56-.51h40.63l-1.26,9.42a10,10,0,0,1-1.17,3.45,12.92,12.92,0,0,1-2.4,3.13,12,12,0,0,1-3.4,2.32,9.9,9.9,0,0,1-4.17.9h-75L125.1,421a14.67,14.67,0,0,0,8.12-4.11q2.78-3,3.49-8.91l2.35-19.21H127.61l1.18-9.18a5.44,5.44,0,0,1,.74-2,6.92,6.92,0,0,1,1.53-1.77,8.59,8.59,0,0,1,2.16-1.29,6.55,6.55,0,0,1,2.62-.51h5L143,356.72a43.83,43.83,0,0,1,4.27-14.15,39.7,39.7,0,0,1,8.86-11.76,41.64,41.64,0,0,1,13.14-8.05,46.38,46.38,0,0,1,17-3,42,42,0,0,1,12.08,1.57,30.69,30.69,0,0,1,9,4.32,25.64,25.64,0,0,1,6.44,6.62,42.31,42.31,0,0,1,4.3,8.43l-10.19,6a12.9,12.9,0,0,1-6.23,1.42,7.28,7.28,0,0,1-5.22-2.83c-.94-1.15-1.82-2.14-2.63-3a11.86,11.86,0,0,0-2.58-2,10.34,10.34,0,0,0-3.14-1.13,21.34,21.34,0,0,0-4.2-.36,15.38,15.38,0,0,0-11.33,4.59Q168,348,167,356.56l-2.11,17.5h33.25l-1.1,9.17A5.83,5.83,0,0,1,196.27,385.27Z"/></svg>
