<?xml version="1.0" encoding="iso-8859-1"?>
<!-- Generator: Adobe Illustrator 19.0.0, SVG Export Plug-In . SVG Version: 6.00 Build 0)  -->
<svg version="1.1" id="Capa_1" xmlns="http://www.w3.org/2000/svg" xmlns:xlink="http://www.w3.org/1999/xlink" x="0px" y="0px"
	 viewBox="0 0 512 512" style="enable-background:new 0 0 512 512;" xml:space="preserve">
<g>
	<g>
		<g>
			
				<rect x="-51.709" y="217.59" transform="matrix(0.7071 -0.7071 0.7071 0.7071 -106.0314 255.997)" width="615.418" height="76.799"/>
			<path d="M391.516,271.063c-66.427,0-120.463,54.047-120.463,120.474S325.1,512,391.516,512
				c66.437,0,120.474-54.036,120.474-120.463C511.99,325.1,457.943,271.063,391.516,271.063z M391.516,435.21
				c-24.074,0-43.663-19.589-43.663-43.663c0-24.084,19.589-43.674,43.663-43.674c24.084,0,43.674,19.589,43.674,43.674
				C435.19,415.621,415.601,435.21,391.516,435.21z"/>
			<path d="M120.474,240.927c66.417,0,120.463-54.047,120.463-120.463C240.937,54.036,186.89,0,120.474,0
				C54.047,0,0.01,54.036,0.01,120.463S54.047,240.927,120.474,240.927z M120.474,76.8c24.074,0,43.663,19.589,43.663,43.663
				c0,24.074-19.589,43.663-43.663,43.663c-24.074,0-43.663-19.579-43.663-43.663C76.81,96.389,96.399,76.8,120.474,76.8z"/>
		</g>
	</g>
</g>
<g>
</g>
<g>
</g>
<g>
</g>
<g>
</g>
<g>
</g>
<g>
</g>
<g>
</g>
<g>
</g>
<g>
</g>
<g>
</g>
<g>
</g>
<g>
</g>
<g>
</g>
<g>
</g>
<g>
</g>
</svg>
