<?xml version="1.0" encoding="UTF-8"?>
<svg xmlns="http://www.w3.org/2000/svg" id="Layer_1" data-name="Layer 1" viewBox="0 0 512 512" width="512" height="512"><path d="M457.12,268.58H441.77c-10.16-30.48-29.95-57.36-56.43-78.31a14.48,14.48,0,0,0-.43-3c-5.52-19.05,1.29-36.51,9.29-49,5.63-8.68-1.62-20-12.1-18.73-23.46,2.86-39.57,11.32-50.7,20.74a47.84,47.84,0,0,0-15.46,24.87c-16.76,68-79.35,118.75-154.16,118.75a160.27,160.27,0,0,1-96.32-32A148.34,148.34,0,0,0,55.52,351a2,2,0,0,0,.1.53,148.42,148.42,0,0,0,13.09,34.07c7.45,15.88,18.48,34.4,33.4,49.53,21.73,21.91,25.4,49,25.94,60.65v5.82A11.32,11.32,0,0,0,139.3,512h69a11.23,11.23,0,0,0,11.35-11.11V484.16a241.91,241.91,0,0,0,30.59,2,226.55,226.55,0,0,0,24-1.27v15.87a11.23,11.23,0,0,0,11.35,11.11h69a11.23,11.23,0,0,0,11.35-11.11V484.06c.11-5.5,2.06-27.62,23.35-46.46.76-.64,1.51-1.27,2.27-2,.22-.21.43-.32.65-.53,23.68-20.64,41.3-46.46,50.38-75.25H457a20.66,20.66,0,0,0,20.86-20.43V288.9C478,277.79,468.69,268.58,457.12,268.58ZM371,272.18A16.72,16.72,0,1,1,388,255.46,16.94,16.94,0,0,1,371,272.18Z"/><path d="M153.6,238.94A119.47,119.47,0,1,0,34.12,119.47,119.1,119.1,0,0,0,153.6,238.94Zm27.63-111a7.11,7.11,0,0,1-1.65,2,8.13,8.13,0,0,1-2.33,1.35,7.73,7.73,0,0,1-2.83.51H145.48l-1.62,14a35.73,35.73,0,0,1-2.45,9.53,28.63,28.63,0,0,1-5,7.82c2.76-.62,5.51-1.1,8.25-1.48a62.41,62.41,0,0,1,8.17-.55h43.84l-1.36,10.16a10.6,10.6,0,0,1-1.27,3.73,13.73,13.73,0,0,1-2.58,3.38,13.07,13.07,0,0,1-3.68,2.5,10.57,10.57,0,0,1-4.49,1H102.39l2-15.23a16,16,0,0,0,8.76-4.45q3-3.25,3.76-9.61l2.54-20.73H107.13l1.27-9.9a6.21,6.21,0,0,1,.81-2.16,7.22,7.22,0,0,1,1.65-1.9,8.86,8.86,0,0,1,2.33-1.4,7.18,7.18,0,0,1,2.83-.55h5.42l2.28-18.7a47.69,47.69,0,0,1,4.61-15.28,42.94,42.94,0,0,1,9.57-12.69,45,45,0,0,1,14.17-8.68,50.08,50.08,0,0,1,18.37-3.22,45,45,0,0,1,13,1.7,33.32,33.32,0,0,1,9.74,4.65,27.74,27.74,0,0,1,6.94,7.15,45.59,45.59,0,0,1,4.65,9.1l-11,6.52a14.06,14.06,0,0,1-6.73,1.52,7.83,7.83,0,0,1-5.63-3c-1-1.24-2-2.31-2.84-3.21a12.28,12.28,0,0,0-2.78-2.2,11.1,11.1,0,0,0-3.39-1.23,23.73,23.73,0,0,0-4.53-.38,16.62,16.62,0,0,0-12.23,4.95q-4.95,5-6,14.17l-2.28,18.88h35.88l-1.19,9.9A6.06,6.06,0,0,1,181.23,127.89Z"/></svg>
