<?xml version="1.0" encoding="iso-8859-1"?>
<!-- Generator: Adobe Illustrator 16.0.0, SVG Export Plug-In . SVG Version: 6.00 Build 0)  -->
<!DOCTYPE svg PUBLIC "-//W3C//DTD SVG 1.1//EN" "http://www.w3.org/Graphics/SVG/1.1/DTD/svg11.dtd">
<svg version="1.1" id="Capa_1" xmlns="http://www.w3.org/2000/svg" xmlns:xlink="http://www.w3.org/1999/xlink" x="0px" y="0px"
	 width="30.986px" height="30.986px" viewBox="0 0 30.986 30.986" style="enable-background:new 0 0 30.986 30.986;"
	 xml:space="preserve">
<g>
	<path d="M26.453,4.533c-6.043-6.044-15.876-6.044-21.92,0c-6.044,6.043-6.044,15.877,0,21.92c6.043,6.044,15.876,6.044,21.92,0
		C32.497,20.41,32.497,10.576,26.453,4.533z M26.892,22.708l-3.869-3.868c0.937-2.113,0.941-4.537,0.02-6.654l3.872-3.87
		C29.67,12.7,29.665,18.329,26.892,22.708z M11.074,19.913c-2.438-2.438-2.438-6.402,0-8.839c2.437-2.438,6.4-2.438,8.839,0
		c2.438,2.437,2.438,6.4,0,8.838C17.474,22.348,13.51,22.347,11.074,19.913z M22.672,4.071l-3.873,3.872
		c-2.117-0.926-4.541-0.918-6.654,0.019L8.277,4.092C12.657,1.321,18.286,1.315,22.672,4.071z M4.049,8.349l3.875,3.875
		c-0.901,2.096-0.894,4.483,0.02,6.574l-3.872,3.871C1.33,18.308,1.324,12.719,4.049,8.349z M8.313,26.915l3.872-3.872
		c2.092,0.912,4.48,0.921,6.575,0.019l3.875,3.875C18.265,29.662,12.675,29.656,8.313,26.915z"/>
</g>
<g>
</g>
<g>
</g>
<g>
</g>
<g>
</g>
<g>
</g>
<g>
</g>
<g>
</g>
<g>
</g>
<g>
</g>
<g>
</g>
<g>
</g>
<g>
</g>
<g>
</g>
<g>
</g>
<g>
</g>
</svg>
