<?xml version="1.0" encoding="UTF-8"?>
<!-- Generator: Adobe Illustrator 24.1.3, SVG Export Plug-In . SVG Version: 6.00 Build 0)  -->
<svg xmlns:cc="http://creativecommons.org/ns#" xmlns:dc="http://purl.org/dc/elements/1.1/" xmlns:rdf="http://www.w3.org/1999/02/22-rdf-syntax-ns#" xmlns="http://www.w3.org/2000/svg" xmlns:xlink="http://www.w3.org/1999/xlink" version="1.1" id="SVGRoot" x="0px" y="0px" viewBox="0 0 512 512" style="enable-background:new 0 0 512 512;" xml:space="preserve" width="512" height="512">
<g id="Logo">
	<path d="M169.7,232.4L426,381.7H88v4.6h338L169.7,232.4z M169.7,373.1H88v4.6h338L169.7,373.1z M105.6,402.9h-6.5l-11.5,27.5h7.2   l2-5.4h10.6l2.1,5.4h7.4L105.6,402.9z M98.8,419.7l3.5-9.4l3.4,9.4H98.8z M182,430.4h-6.5l0.1-19.4l0,0l-7.1,19.4h-4.8l-7-19.4l0,0   l0.1,19.4h-6.3v-27.5h9.4l6.3,17.6h0.1l6-17.6h9.6V430.4z M208.9,408.5h-12.2v5.2h11.4v5.3h-11.4v5.7h12.8v5.7h-19.2v-27.5h18.6   V408.5z M280,408.5h-11.6v5.8H279v5.5h-10.6v10.7h-6.6v-27.5h18.1L280,408.5z M399.4,408.5h-12.1v5.2h11.4v5.3h-11.4v5.7h12.8v5.7   H381v-27.5h18.5L399.4,408.5z M200,505h-7.4l-16.3-41.2h9.9l10.4,28.6l10.3-28.6h9.7L200,505z M249.7,471.8h-19.1v8h18v7.8h-18v9.1   h20v8.2h-28.9v-41.2h28L249.7,471.8z M296.1,505h-10.4l-17.3-28v28h-9v-41.2h10.8l16.8,27.1v-27.1h9L296.1,505z M326.6,463.8h-7.4   L301.3,505h9.9l3.6-9h15.7l3.7,9h10.1L326.6,463.8z M318,488l4.7-12.3l4.6,12.3H318z M386.2,505h-10.4l-17.3-28v28h-9v-41.2h10.8   l16.8,27.1v-27.1h9L386.2,505z M425.7,471.8h-12V505h-9v-33.1h-12v-8.1h33L425.7,471.8z M132.5,402.9H122v27.5h6.5v-10.9h2.3   l6,10.9h7.8l-7.2-11.8c1.6-0.4,3.1-1.4,4.2-2.7c1-1.3,1.6-3,1.5-4.7c0.1-1.4-0.3-2.7-0.9-4c-0.6-1-1.5-1.9-2.5-2.5   c-1-0.7-2.2-1.1-3.4-1.4C135,403.2,133.7,403,132.5,402.9 M128.4,414.8v-6.4h3.6c0.5,0,1,0,1.5,0c0.5,0.1,1,0.2,1.5,0.4   c0.4,0.2,0.8,0.5,1.1,0.9c0.3,0.5,0.4,1,0.4,1.6c0.1,1.1-0.6,2.2-1.6,2.7c-0.5,0.2-1,0.4-1.6,0.5c-0.6,0.1-1.1,0.1-1.7,0.1   L128.4,414.8z M226.4,403h-9.9v27.5h10.2c1.9,0,3.8-0.3,5.6-0.8c1.8-0.5,3.5-1.3,4.9-2.5c1.5-1.2,2.8-2.7,3.6-4.4   c0.9-1.9,1.4-4.1,1.3-6.2c0.1-2.2-0.4-4.5-1.4-6.5c-0.8-1.7-2.1-3.1-3.6-4.2c-1.5-1.1-3.2-1.8-4.9-2.2c-1.9-0.4-3.8-0.7-5.7-0.7    M223.2,424.7v-16.1h3.3c1.1,0,2.2,0.1,3.3,0.4c1,0.2,2,0.7,2.9,1.3c0.9,0.6,1.6,1.5,2,2.5c1,2.5,1,5.2,0,7.7c-0.5,1-1.2,1.8-2,2.5   c-0.9,0.6-1.9,1.1-2.9,1.3c-1.1,0.3-2.3,0.4-3.4,0.4H223.2z M300.7,402.2c-2,0-4.1,0.3-6,1c-1.8,0.6-3.4,1.6-4.7,2.9   c-1.4,1.3-2.4,2.8-3.1,4.5c-0.8,1.9-1.2,3.9-1.1,6c0,2,0.4,4.1,1.1,6c0.7,1.7,1.8,3.3,3.1,4.6c1.4,1.3,3,2.3,4.7,3   c3.9,1.4,8.1,1.4,11.9,0c1.8-0.7,3.4-1.7,4.8-3c1.4-1.3,2.4-2.9,3.1-4.6c0.8-1.9,1.2-3.9,1.1-6c0-2-0.4-4.1-1.1-6   c-0.7-1.7-1.8-3.2-3.1-4.5c-1.4-1.3-3-2.2-4.8-2.9C304.7,402.5,302.7,402.2,300.7,402.2 M300.7,425.1c-1.1,0-2.2-0.2-3.2-0.6   c-0.9-0.4-1.8-1-2.5-1.8c-0.7-0.8-1.2-1.7-1.6-2.7c-0.8-2.2-0.8-4.6,0-6.8c0.3-1,0.9-1.9,1.6-2.7c1.5-1.6,3.5-2.5,5.7-2.5   c1.1,0,2.2,0.2,3.2,0.6c0.9,0.4,1.8,1,2.5,1.8c0.7,0.8,1.2,1.7,1.6,2.7c0.4,1.1,0.6,2.2,0.6,3.3c0,1.2-0.2,2.3-0.6,3.4   c-0.4,1-0.9,1.9-1.6,2.7c-0.7,0.8-1.5,1.4-2.5,1.8C302.9,424.8,301.8,425,300.7,425.1 M333.3,402.8h-10.6v27.5h6.5v-10.9h2.3   l6,10.9h7.8l-7.2-11.8c1.6-0.4,3.1-1.4,4.2-2.7c1-1.3,1.6-3,1.5-4.7c0.1-1.4-0.3-2.7-0.9-4c-0.6-1-1.5-1.9-2.5-2.5   c-1-0.7-2.2-1.1-3.4-1.4c-1.3-0.3-2.6-0.4-3.9-0.4 M329,414.7v-6.4h3.6c0.5,0,1,0,1.5,0c0.5,0.1,1,0.2,1.5,0.4   c0.4,0.2,0.8,0.5,1.1,0.9c0.3,0.5,0.4,1,0.4,1.6c0.1,1.1-0.6,2.2-1.6,2.7c-0.5,0.2-1,0.4-1.6,0.5c-0.6,0.1-1.1,0.1-1.7,0.1   L329,414.7z M364.6,402.1c2,0,3.9,0.4,5.7,1c1.8,0.6,3.3,1.6,4.6,3l-4.5,4.5c-0.6-0.9-1.5-1.5-2.5-1.9c-1-0.4-2-0.6-3.1-0.6   c-1.1,0-2.2,0.2-3.2,0.6c-0.9,0.4-1.8,1-2.5,1.8c-0.7,0.8-1.3,1.7-1.6,2.7c-0.4,1.1-0.6,2.3-0.6,3.5c0,1.2,0.2,2.3,0.6,3.4   c0.4,1,0.9,1.9,1.6,2.7c0.7,0.7,1.5,1.3,2.5,1.7c1,0.4,2.1,0.6,3.1,0.6c1.2,0,2.4-0.2,3.5-0.8c1-0.5,1.8-1.2,2.5-2l4.6,4.3   c-1.2,1.4-2.8,2.6-4.5,3.3c-1.9,0.8-4,1.3-6.2,1.2c-2,0-4-0.3-5.9-1c-3.5-1.3-6.4-4.1-7.8-7.6c-1.5-3.8-1.5-8.1,0-11.9   c0.7-1.7,1.8-3.3,3.2-4.6c1.4-1.3,3-2.3,4.7-2.9c1.9-0.7,3.9-1,5.9-1 M416.8,402.3c1.6,0,3.2,0.3,4.8,0.9c1.6,0.5,3,1.4,4.2,2.5   l-4.2,4.5c-0.6-0.7-1.4-1.3-2.2-1.7c-0.8-0.4-1.7-0.6-2.7-0.6c-0.4,0-0.9,0-1.3,0c-0.4,0.1-0.9,0.2-1.2,0.4   c-0.4,0.2-0.7,0.5-0.9,0.9c-0.3,0.4-0.4,0.9-0.4,1.3c0,0.4,0.1,0.8,0.3,1.2c0.2,0.3,0.5,0.6,0.9,0.8c0.4,0.3,0.9,0.5,1.3,0.6   l1.8,0.6l2.9,1c1,0.4,1.9,0.9,2.8,1.5c0.8,0.6,1.5,1.4,2,2.3c0.6,1,0.9,2.2,0.8,3.4c0,1.4-0.3,2.8-0.9,4.1   c-0.6,1.1-1.4,2.1-2.5,2.9c-1,0.8-2.2,1.3-3.4,1.7c-1.3,0.4-2.6,0.5-3.9,0.5c-1.9,0-3.9-0.4-5.7-1c-1.7-0.6-3.3-1.6-4.6-2.9   l4.3-4.4c0.7,0.9,1.6,1.6,2.7,2.1c1,0.5,2.1,0.8,3.3,0.8c0.5,0,1,0,1.4-0.1c0.4-0.1,0.9-0.3,1.2-0.5c0.4-0.2,0.7-0.4,1-0.8   c0.2-0.4,0.3-0.9,0.3-1.4c0-0.5-0.1-0.9-0.4-1.3c-0.3-0.4-0.7-0.7-1.1-1c-0.6-0.3-1.2-0.6-1.8-0.8l-2.5-0.8c-0.8-0.3-1.7-0.6-2.5-1   c-0.8-0.4-1.6-0.9-2.2-1.5c-0.7-0.6-1.2-1.4-1.6-2.2c-0.4-1-0.6-2.1-0.6-3.2c0-1.4,0.3-2.7,0.9-3.9c0.6-1.1,1.5-2,2.5-2.7   c1-0.7,2.2-1.2,3.4-1.5c1.3-0.3,2.6-0.5,3.8-0.5 M109.9,462.8c1.4,0,2.7,0.1,4.1,0.4c1.4,0.2,2.8,0.6,4.1,1.2   c1.3,0.5,2.6,1.2,3.7,1.9c1.2,0.8,2.3,1.8,3.2,2.9l0.6,0.8l-6.9,5.5l-0.6-0.8c-0.9-1.2-2.2-2.2-3.6-2.7c-3.1-1.2-6.6-1.2-9.7,0.1   c-1.5,0.7-2.9,1.6-4,2.8c-1.1,1.2-1.9,2.7-2.5,4.2c-0.6,1.7-0.9,3.5-0.9,5.3c0,1.9,0.3,3.8,0.9,5.6c0.5,1.6,1.4,3,2.5,4.2   c1.1,1.2,2.4,2.1,3.8,2.7c1.6,0.7,3.4,1,5.1,1c1.8,0,3.6-0.4,5.2-1.1c1.4-0.7,2.7-1.7,3.6-3l0.6-0.8l7.3,5.1l-0.6,0.8   c-1.8,2.3-4.1,4.1-6.7,5.4c-2.9,1.3-6,2-9.2,1.9c-3,0-6-0.5-8.8-1.6c-5.3-2-9.4-6.1-11.5-11.3c-1.1-2.8-1.7-5.8-1.6-8.8   c0-3.1,0.5-6.1,1.7-8.9c1-2.6,2.5-4.9,4.5-6.8c2-1.9,4.4-3.3,7.1-4.3C103.9,463.3,106.9,462.7,109.9,462.8 M151.4,462.8   c-3,0-5.9,0.5-8.7,1.5c-2.6,0.9-5,2.4-7,4.3c-2,1.9-3.6,4.2-4.6,6.8c-1.1,2.8-1.7,5.8-1.7,8.9c0,3,0.5,6,1.7,8.8   c1.1,2.6,2.6,4.9,4.6,6.9c2,1.9,4.4,3.5,7,4.5c2.8,1.1,5.8,1.6,8.8,1.6c3,0,6-0.5,8.8-1.6c2.6-1,5-2.5,7-4.5c2-1.9,3.6-4.3,4.6-6.8   c1.1-2.8,1.7-5.8,1.7-8.8c0-3-0.5-6.1-1.7-8.9c-1-2.6-2.6-4.9-4.6-6.8c-2-1.9-4.4-3.4-7-4.3C157.4,463.2,154.4,462.7,151.4,462.8    M151.4,497.7c-1.7,0-3.5-0.3-5.1-1c-1.5-0.6-2.8-1.6-3.9-2.8c-1.1-1.2-1.9-2.7-2.5-4.2c-0.6-1.7-0.9-3.6-0.9-5.5   c0-1.8,0.3-3.6,0.9-5.3c0.5-1.6,1.4-3,2.5-4.2c1.1-1.2,2.4-2.2,3.9-2.8c1.6-0.7,3.4-1,5.1-1c1.8,0,3.5,0.3,5.2,1   c1.5,0.7,2.8,1.6,3.9,2.8c1.1,1.2,1.9,2.7,2.5,4.2c0.6,1.7,0.9,3.5,0.9,5.3c0,1.9-0.3,3.7-0.9,5.5c-0.5,1.6-1.4,3-2.5,4.2   c-1.1,1.2-2.5,2.1-4,2.8C154.9,497.4,153.2,497.7,151.4,497.7 M275.1,73.6c-0.8,1.6-1.7,3.4-2.7,5.2l-9.2,18.7   c16.2-8.6,36.1-14.2,50.3-14.4C301.5,77.2,288.5,74,275.1,73.6 M303.4,15.7L303.4,15.7l-3.6,7.2c12.2,6.6,25.8,20.5,33.9,34.5   c3.8,1.8,7.4,3.8,10.9,5.7C334.8,43.7,319.2,25.3,303.4,15.7 M297.5,27.7c-2.7,5.6-5.9,11.9-8.8,17.7c0.3,0,26,3.8,37.2,8.5   C318.7,43,307,34.6,297.5,27.7 M388.1,131.4c6.6,10.5,15.1,19.7,25,27.1c2.7-6.4,5.4-12.9,8.1-19.5h-0.9   C409.2,138.7,398.2,136.1,388.1,131.4 M371.2,122.2c9.4,19.1,23.6,38.4,37,47.7c1-2.5,1.7-4.1,2.7-6.5   c-10.2-7.2-21.9-21.9-29.4-35.4c-3.5-1.8-7-3.8-10.3-6 M441.8,89.4c-13.8,5.8-28.5,9.4-43.5,10.4c7.6,4.5,23.3,8.5,33.9,8.5h1.4   C436.4,102,439.1,95.7,441.8,89.4 M321.9,16.9c12.8,10,25.8,31.2,32,44.7l11.8-25.1C352.8,27.4,339,19.8,321.9,16.9 M390.8,55.3   c-3.5,7.9-7.4,16.3-11.2,24.3c2.2,0.1,5.4,0.3,9.3,0.3c12.8,0.1,25.5-1.5,37.7-4.9C413.8,70.3,401.7,63.7,390.8,55.3 M435.9,77.6   c-16.7,6.5-34.8,7.6-46.7,7.8c-5.9,0-12.5,0.3-12.5,0.3l8.6,6.2h0.9c5.8,0,37.3-0.6,60.2-12.3l-0.9-0.1   C442.2,79,439,78.4,435.9,77.6 M360.5,120.9c-3.9,8.4-8.3,17.8-12.3,26.4c14.5,10.7,28.1,21,44.4,24.7   C380.1,156.1,369.3,139,360.5,120.9 M370.7,40.1c-5.4,11.6-16.8,36-16.8,36l-0.1,0.3c-19.5-15.3-43.3-24.1-68-25.2L280,63l-2,4.3   c24.2,2.4,47.2,11.7,66.2,27l0.9,0.7l-0.1,0.3c0,0-11.8,24.7-17.8,37.4c5.6,3.4,10.9,7.1,16,10.8c5.7-12.3,17.1-36.7,17.1-36.7l0,0   c25.7,19,40.3,25.6,63.3,26.2c2.3-5.7,5.3-13,7.6-18.6c-22.8-1.2-36.3-6.7-62.3-26.2V88c0,0,11.5-24.5,17-36.2   c-5.1-3.8-10.1-7.7-15.2-11.5 M334.7,102.8c-17.9,0.6-35.3,5.5-50.9,14.4c13.3,1.5,26.2,5.7,37.8,12.3   C325.5,121.5,331.5,109.8,334.7,102.8L334.7,102.8 M328.7,91.1c-19.5,0.6-50.8,5.9-75.8,27.5c5.5-1,11-1.5,16.5-1.8   c20.5-12.3,43.9-19.2,67.8-20.1C334.3,94.6,331.8,92.9,328.7,91.1z M174.7,43.9h-11.8c2.3,1.5,3,3.6,3,7.1c-3.4,0-4.8,0-6.5-2.6v9   c1.7-2.7,3.2-2.7,6.4-2.7c-0.1,4.2-2.6,7.9-6.5,9.5l0,0h19.1l0,0c-3.9-1.7-6.5-5.3-6.8-9.5c3.3,0,4.7,0,6.7,2.7v-9   c-2,2.6-3.4,2.7-6.8,2.7C171.1,48.2,172.4,45.5,174.7,43.9 M115.1,89.7c-1.4,0-2.5,1.1-2.5,2.5c0,1.4,1.2,2.6,2.6,2.6   c1.4,0,2.6-1.2,2.6-2.6c0-1.4-1.1-2.5-2.5-2.5 M113,82c-1.4,0.1-2.5,1.2-2.5,2.6c0,1.4,1.2,2.6,2.6,2.6s2.6-1.2,2.6-2.6   c0-1.4-1.1-2.5-2.5-2.6 M113.7,74.6c-1.4,0-2.5,1.1-2.5,2.5c0,1.4,1.1,2.5,2.5,2.5s2.5-1.1,2.5-2.5C116.1,75.7,115,74.6,113.7,74.6    M116.8,67.7c-1.4,0-2.5,1.1-2.5,2.5c0,1.4,1.1,2.5,2.5,2.5c1.4,0,2.5-1.1,2.5-2.5C119.3,68.8,118.2,67.7,116.8,67.7 M123.1,62.5   c-1.4,0-2.5,1.1-2.5,2.5c0,1.4,1.1,2.5,2.5,2.5c1.4,0,2.5-1.1,2.5-2.5C125.6,63.6,124.5,62.5,123.1,62.5 M130.7,59.6   c-1.4,0-2.5,1.1-2.5,2.5c0,1.4,1.1,2.6,2.6,2.6c1.4,0,2.6-1.1,2.6-2.6c0-1.4-1.1-2.5-2.5-2.5 M139.1,60.6c-1.4,0-2.5,1.1-2.5,2.5   c0,1.4,1.1,2.5,2.5,2.5c1.4,0,2.5-1.1,2.5-2.5C141.6,61.7,140.5,60.6,139.1,60.6 M146.5,62.6c-1.4,0-2.5,1.1-2.5,2.5   c0,1.4,1.1,2.5,2.5,2.5s2.5-1.1,2.5-2.5C149,63.7,147.9,62.6,146.5,62.6 M154.1,65.1c-1.4,0.1-2.5,1.2-2.5,2.6   c0,1.4,1.2,2.6,2.6,2.6c1.4,0,2.6-1.2,2.6-2.6C156.8,66.2,155.6,65.1,154.1,65.1C154.2,65.1,154.2,65.1,154.1,65.1 M206.4,59.5   c-1.4,0-2.5,1.1-2.5,2.5c0,1.4,1.2,2.6,2.6,2.6s2.6-1.2,2.6-2.6c0-1.4-1.1-2.5-2.5-2.5 M198.4,60.5c-1.4,0-2.5,1.1-2.5,2.5   c0,1.4,1.1,2.5,2.5,2.5s2.5-1.1,2.5-2.5C200.8,61.6,199.8,60.5,198.4,60.5 M190.9,62.5c-1.4,0-2.6,1.1-2.6,2.6   c0,1.4,1.1,2.6,2.6,2.6s2.6-1.1,2.6-2.6C193.5,63.6,192.3,62.5,190.9,62.5 M183.3,65c-1.4,0-2.5,1.1-2.5,2.5c0,0.1,0,0.1,0,0.2   c0,1.4,1.2,2.6,2.6,2.6c1.4,0,2.6-1.2,2.6-2.6c0.1-1.4-1-2.5-2.3-2.6c-0.1,0-0.1,0-0.2,0 M203.8,68.6c-9.1,0-20.3,4.9-26.2,7.9   c0-0.4,0-0.6,0-0.6c-0.1-2.1,0.1-4.2,0.8-6.2H159c0.6,2,0.9,4.1,0.8,6.2v0.7c-5.9-2.8-17.3-7.9-26.4-7.9c-4.1-0.3-8,1.2-10.9,4.1   c-5.7,6.3-2.5,16.1-1.1,20.3l3.5-1.2c-1.3-3.8-4-11.9,0.3-16.7c2.2-2.1,5.1-3.2,8.2-2.9c9,0,21.1,5.8,25.9,8.1l0.5,0.2v10.1   c2.3,2.4,3.6,5.5,3.6,8.8c-1.7-0.1-3.3-1-4.3-2.5v11.6c1-1.5,2.6-2.5,4.3-2.7c-0.2,4.6-2.5,9.7-7.5,10.3h-1.2   c-3.5,0.2-6.7-2.2-7.4-5.6c-0.7-2.2,0-4.5,1.6-6.1c1.7-1,3.9-0.4,4.9,1.3c0.2,0.3,0.3,0.6,0.4,0.9c1.4-3.4,1.5-6.3-0.5-8.5   c-0.8-1.1-2.1-1.7-3.4-1.7c-1.2,0-2.4,0.5-3.1,1.5c0.7-7.7-3.3-11.3-5.4-12.1c-1.9,1.2-4.8,5.8-2.1,13c-0.7-0.3-1.4-0.5-2.1-0.5   c-1.9-0.1-3.7,1.2-4.2,3c-0.8,2.7-0.2,5.7,1.6,7.9c0-2,1.6-3.7,3.6-3.7c0,0,0.1,0,0.1,0c0.4,0,0.8,0.1,1.2,0.3   c2,0.7,2.9,3.3,3.1,5.2c0.5,3.9-2.4,7.4-6.3,7.9c-0.2,0-0.4,0-0.6,0h-0.8c-4.1,0-7.2-4-9-8.8h0.9c1.5,0,3,0.5,4.1,1.5l-3.1-11.3   c-0.6,1.7-1.9,3.1-3.5,3.9c-0.6-4.2-0.4-8.1,1-9.9l-7.4,2.8l12.9,34.9h74.3l12.9-34.9l-7.4-2.8c1.4,1.8,1.7,5.7,1,9.9   c-1.7-0.8-3.1-2.2-3.7-4l-3.1,11.3c1.2-1,2.7-1.5,4.2-1.5h1c-1.8,4.9-4.9,8.8-9,8.8h-0.8c-3.9-0.3-6.9-3.6-6.7-7.6   c0-0.1,0-0.2,0-0.3c0.2-1.9,1.1-4.5,3.2-5.2c0.4-0.1,0.7-0.2,1.1-0.2c2,0,3.7,1.6,3.7,3.7c0,0,0,0,0,0c1.8-2.2,2.3-5.2,1.6-7.9   c-0.5-1.9-2.3-3.2-4.3-3.1c-0.7,0-1.5,0.2-2.2,0.5c2.7-7.3-0.2-11.8-2.1-13c-2.2,0.7-6.1,4.4-5.4,12.1c-0.7-1-1.9-1.5-3.1-1.5   c-1.3,0-2.6,0.6-3.4,1.7c-1.9,2.3-1.9,5.2-0.5,8.5c0.4-1.6,1.8-2.7,3.5-2.7c0.6,0,1.3,0.2,1.8,0.5c1.7,1.5,2.3,3.9,1.6,6.1   c-0.7,3.4-3.8,5.7-7.3,5.6H181c-4.9-0.6-7.4-5.6-7.5-10.1c1.7,0.2,3.2,1.1,4.3,2.5V96.8c-1,1.5-2.5,2.5-4.2,2.7   c0-3.3,1.4-6.5,3.7-8.9V80.4l0.3-0.2c4.9-2.3,16.9-8.1,25.9-8.1c3-0.2,6,0.8,8.2,2.9c4.3,4.8,1.6,12.8,0.3,16.7l3.4,1.2   c1.4-4.2,4.7-13.9-1.1-20.3c-2.9-2.9-6.8-4.3-10.8-4.1 M221.6,89.7c-1.4-0.1-2.5,1-2.6,2.3c0,0.1,0,0.1,0,0.2   c0,1.4,1.2,2.6,2.6,2.6c1.4,0,2.6-1.2,2.6-2.6C224.1,90.8,223,89.7,221.6,89.7 M224,82c-1.4,0.1-2.5,1.2-2.5,2.6   c0,1.4,1.1,2.6,2.6,2.6s2.6-1.1,2.6-2.6c0-1.4-1.1-2.5-2.5-2.6 M223.7,74.6c-1.4,0-2.6,1.1-2.6,2.6c0,1.4,1.1,2.6,2.6,2.6   s2.6-1.1,2.6-2.6C226.3,75.7,225.1,74.6,223.7,74.6 M220.4,67.6c-1.4,0-2.5,1.1-2.5,2.5c0,1.4,1.1,2.5,2.5,2.5   c1.4,0,2.5-1.1,2.5-2.5C222.8,68.7,221.7,67.6,220.4,67.6 M214,62.4c-1.4,0-2.6,1.1-2.6,2.6c0,1.4,1.1,2.6,2.6,2.6s2.6-1.1,2.6-2.6   C216.6,63.5,215.5,62.4,214,62.4 M342.8,252.6c-1.2,2.9-1,6.2,0.7,8.9c-2.7-2.9-9.9-14-2.3-22.2c2.3,0.9,2.3,2.9,4.4,4   c2.5,1.3,4.1-1.8,2.6-3.5s-5.8-4.9-11.9,0c-5.2,4.3-4.6,18.2-0.2,27.5c9.1,19.2,17,38.3,1.1,51.1c-8.2,6.6-20.5-2.1-20.5-2.1   s-5.7,14.4,3.8,16.2c6.6,1.2,13-3.4,14-3.8c2.1-0.8,4.5-0.3,6.1,1.3c2.8,2,3,3.7,3,3.7l5.1,2.8c0,0,0.5,24.3-1,33.8   c-0.2,2.1-1,4-2.2,5.6h-30.1c0,0-0.9-11.4,4.6-16.2c6.7,2.2,9.9,2.5,13.4,0.3c6.9-4.2,2.1-13.4,2.1-13.4   c-8.8,2.1-17.8,3.6-26.9,4.4c-8.2,0.8-16.5,0.5-24.7-0.8c0,0-8.5-13.8-9.9-27c-8.4,1.2-18.2,3.5-16.4,8.9   c1.2,3.6,12.7,8.7,12.7,8.7s-2.5,24.2-8.8,34.9h-41c0,0,0.8-14,11-17.8c3.2,4.3,15.2,10.1,22.4-6.1c-6.9-4-28-18.3-31.7-38.1   c10.5-16,29.9-20.6,39.5-22.4c-2.1-1.9-9.6-9.9-19.7-6.9c-3.5-2.9-6.2-6.8-7.8-11.1c-15.2-2.7-29.3-9.9-40.4-20.5   c-1.9-0.3-7.4-0.7-10-2.8l-60.2,125.6h-5.2l60.3-125.8c-16-0.3-10.7-14.5-8.7-17.7c1.4-2.8,9.5-14.5,22.2-10l5.2-10.8l0,0   c-2.5,0.5-5.3-2.7-2-6.8c-3.4-1.8-3.6-9.4,2.2-10.3c-1.2-3.1-1-8,5.4-9.9c2.3-0.5,4.7,0,6.7,1.2L295.3,7c0.1-0.4,0.4-0.7,0.7-1h4.4   c0.2,0.2,0.2,0.5,0.1,0.8l-87.1,181.1l4.5,3.5c1.7,1.3,2.5,1.2,2.9,7.1c0.2,3.8-0.9,7.6-3.1,10.7c3.2,3.9,7.8,6.5,12.8,7.4   c2.5-3.8,3.8-7.9,15-11.7c11.2-3.8,19-1.8,32.8-9.4c-2-0.3-4-0.7-5.9-1.2c0,0-14.3-1-23.1,3.9c-3.2-3.7-5.3-8.3-5.8-13.1h3.2   c0.2-0.9,0.7-1.7,1.4-2.3c0.2,1.1,1.2,1.9,2.3,1.9c3.3,0.1,6.6-0.3,9.9-1.1c5.5-1.1,4.1-5.2,4.1-5.2c-2.2,0.6-4.5,0.8-6.8,0.8   c-2.8-0.1-5.5-0.8-7.9-2.1c-1.7-0.7-2.5,2.2-2.5,2.2c-1.8-1.8-3.3-3.9-4.3-6.3c-0.6-2.4-0.9-4.9-0.8-7.4c-0.3-1.3-2.6-2-1-6.8   l18.4-4.5c0.4-1.9,1.7-3.5,3.6-4.1c3.2-1.3,6.5-2.4,9.9-3.1c2.6-0.6,4.1-0.9,5.2-1.1c2.8-0.6,2.2-0.7,2.3-1   c0.3-1.2,0.4-2.4,0.3-3.6c3.8,0.2,7.5,0.6,11.2,1.2c3.4,0.6,6.7,1.5,9.9,2.9c0,0,8.8-3.2,12.7,0.4c-0.1,0.7-0.3,1.4-0.6,2.1   c0,0,15.6-1.6,28.1,16.5c0.8,1.2,0.7,1.5,0.6,1.7c-2.9-3.3-6.5-5.9-10.5-7.7c0,0,9.3,5.5,12.3,13.6s1,9.6,1,9.6   c-1.6-4.9-4.2-9.4-7.8-13.2c5,7.8,8,16.8,8.6,26.1c1,14.5-3.7,21.7-3.7,21.7c0.9-5.6,0.9-11.2,0.1-16.8c-0.3,5.4-1.3,10.8-2.8,16   c-3.9-0.3-17.6-3.3-26.1,14.4c-0.3-3.8,0.5-7.6,2.3-10.9c0,0-13.6,14.3-3.1,42.7c-3.4-2-6.3-4.7-8.7-7.8   c-0.6,12.2,1.4,24.3,5.8,35.6c7.4,19.4,14.5,25.5,23,19.7s4.5-23.5,0.2-31.3s-26.5-36-8.4-50.1c7.4-6,18.2-5.7,25.3,0.7   c-5.6-3.1-12.4-3.1-18,0c9.9-1.3,18.8-1.5,23.8,8.2c3.5,6.8-3.4,13.7-4.8,15.9c-1.4,2.2-5.8,7.4,0.5,13.2   C344.6,264.6,342.8,252.6,342.8,252.6z M219.2,233.8c-7.4-8-14.3-23.7-14.3-23.7l-1.6-1.3l-7.7,16c1.2,2.5,4.2,9,5.2,10.9   c1.2,2.5,5.9,8.5,9.5,7.4C212.8,239.5,215.8,236.4,219.2,233.8z M326.6,364.6c-1.6,0-3.2-0.3-4.7-0.9c-2.1,2.9-3.2,6.3-3.2,9.9   c1.4-3,4.1-5.3,7.3-6.3c-1.9,1.8-2.1,4.8-0.7,6.9c0.2-2.9,5.8-6.5,10.1-8c-0.5-0.2-1.1-0.3-1.6-0.2c-1.9,0.1-3.7,0.3-5.5,0.8   c4.9-1.6,10.3-3.6,11.2-9.6C336.7,361.7,331.9,364.5,326.6,364.6 M236.7,365.7c-2.5,0-5-0.3-7.4-0.8c-2.2,2.2-3.4,5.1-3.4,8.2   c1.8-2.6,4.6-4.4,7.7-4.8c-2.7,2-1.6,4.2-0.7,5.9c0-1.1,1.4-2.3,3.3-3.3c-0.2,1.2,0.3,2.5,1.4,3.2c-1-2.3,3.4-4,7.9-4.4   c-1.2,0-2.5-0.2-3.9-0.2c-0.8,0-1.6,0-2.5,0.1c1.5-0.6,3.1-1,4.7-1.3c-1.2-0.4-2.4-0.5-3.7-0.5c-1.3,0-2.6,0.1-3.9,0.2   c4.4-0.8,7.9-1.6,9.9-5.4c-2.7,2-6,3-9.4,2.8 M201.1,206.7c-1.7,0.7-3.7-0.1-4.4-1.8c0,0,0,0,0-0.1c-0.9,3.2,2,3.9,3.5,3.1   C200.6,207.7,200.9,207.3,201.1,206.7 M292,169.5c0,0,3,1.6,4.1-0.5c-1.4-2.2-2-4.8-1.6-7.4c0,0,3.7,8,6.1,8.7   c-1.3-3.1-1.7-6.4-1.4-9.6c0,0,2.5,7.1,15.7,3.3c4.1-1.2,9.5-5.7,9.2-9.7s-11.7-4.5-13.6-3.4c1.7,0.4,3.3,1.2,4.5,2.5   c0,0-6.1-2.7-10.4-0.6c-6.1,3-6.6,6.4-7.1,11.6c-3-7.6,0.4-10.3,1.9-12.8c-2.5-3.8-10.6-3.8-13.2-3.8s-23.1,3-20.8,6.3   c2.3,3.3,11.5,4.2,16.3,2.7c-3.3,8.2-8.4,6.2-12.3,5.3c-3.9-0.9-6.9-3.7-14.1-2.5c-7.2,1.2-5.7,5.3-5.7,5.3s-3.2-0.4-3.6,1.7   c-0.2,1-0.3,5.5,7.4,7.6c4.8,1.2,9.8,1.2,14.6,0c0,0,2,9.4-2.8,11.2c-2.6,1-10.2,2.3-13.6,4c-1.5,0.5-2.3,2.1-1.7,3.6   c0.1,0.3,0.3,0.6,0.5,0.9c5.5-2.9,11.7-4.2,18-3.7c8.1,0.8,9.5-1,12.6-4c2.6-3.1,4.6-6.7,5.9-10.5c0,0,2.9,10.4,0,15.3   c5.6-4.1,9.3-10.2,10.3-17C294.9,173.2,293,171.6,292,169.5L292,169.5z M198.1,245.5l10.8,4.3l-10.5,0.9c7.7,5.3,16,9.7,24.7,13.1   c12.5,4.4,21.8,6,28,4.7c4.6-1.3,8.8-3.6,12.5-6.6c8.3,12.9,20.6,22.7,35,28.1c-9.6,0.5-19.5-5.5-19.5-5.5   c5.9,5.7,13.5,9.4,21.6,10.5c-12.9,0.7-19.4-4.9-25.5-8.4c5.9,9.9,19.1,11.6,19.1,11.6s-10.3-0.9-14.1,1.5   c-3.8,6.3-2.7,18.3-1.6,25.7s4.1,16.8,8.3,18.5c16.2,6.4,44.1-3.1,46.4-4.3c1.8-0.9,5.2-2,3.8-5.7s-4.2-0.6-9.4,0.9   c-4.6,1.4-9.5,0.7-13.5-1.9c-1.3-1.1-2.5-2.5-3.3-4c-3.1,3.8-7.1,6.9-11.7,8.7c0,0,12.8-11.4,11-28.5c-1.6-14.7-13-30.7-16.5-37.7   c-3.5-7-4.9-15.8-3.4-20.6c-4.1,1.9-8.7,2.5-13.1,1.6c0,0,12.3-3.8,14-7.5c-24.7,4-36.6-1-36.6-1s24.8-0.9,33.4-7.2   c-35.9,7.2-48.8-3-48.8-3s23,1.5,32.2-3.5c-15.4,3.3-26.6,0-35.8-1.8c-9,4.9-11.9,9.9-11.9,9.9c9.6,2.5,19.6,3.5,29.5,3   c-11.7,4.9-20.9,8.2-28.3,8.6c-19.2,1.2-25.4-10.3-28.2-14.1c-2.7-3.8-1.7-4.5-5.7-9.7c-7.9-2.5-9.9,0.5-9.9,0.5s2.9,0,3.4,2.6   c-3.2-2-7.4-1.1-9.4,2.1c-0.1,0.1-0.1,0.2-0.2,0.3c2-0.9,4.4-0.3,5.8,1.4c-8.5-1.1-9.1,2.9-9,5.5c3.5-3.1,6.1-1.8,6.1-1.8   c-1.9,0.2-3.6,1.2-4.8,2.7c-4.1,4.5,0.7,7.9,4.9,5.4c3-1.5,5.1-4.3,5.7-7.6c2.5,2.5-0.5,6.3-0.5,6.3c3.1,4.6,9.4,5.8,14.1,2.7   C197.7,245.8,197.9,245.6,198.1,245.5z M252.7,313c4.9-2.5,10.2-4.4,15.6-5.6c3.1-0.8,6.9-3.6,3-11c-29.2,4.4-42.3,17.3-42.3,17.3   C246.3,317.9,247.9,315.6,252.7,313L252.7,313z M329.8,167.6c-2.5-2-5.4-3.3-8.5-3.8l-0.7,0.5c1.9,2.8,3.3,5.9,4,9.2   c-2.1-3.1-5-5.5-8.4-6.9l-1.5,0.4c1.4,5.9,5.4,21.6-1.7,31.9c3-8.9-1.9-25.1-4.9-30.7c1,7.4,5.2,21.7-8.1,33.5   c6.7-9.4,5.8-25.9,4.4-31.3c-0.8,12.9,2.9,32.7-23.9,39.1c2.6-1.3,11.8-3.5,17-19.9c-1.5,2-14.7,12.7-29.1,16.8   c3.9-0.4,7.7-1.1,11.5-2.1c-5.7,3.7-12.4,5.7-19.1,5.7c-2.2,0-4.3-0.2-6.4-0.4c-1.6-0.2-3.3-0.4-4.9-0.4c-0.9,0-1.8,0.1-2.6,0.4   c-3.5,1-6.7,2.9-9.2,5.5c2.7-1,5.6-1.4,8.4-1.4c7,0,12.7,2.8,15.7,3.3h0.5c17.5,0,30.2-3.6,34.8-11.3   c-4.5,11.3-14.5,15.6-23.4,20.9c12.3-4.6,28.5-10.1,34.5-25.1c1.6,7.4-3.4,20.6-20.9,28.9c19.4-5.4,31.3-19.9,34.5-45.9   c1.5,8.6,1.3,17.5-0.6,26.1c6.2-9,5.8-26.3,1.7-35.8c6.1,9.4,8.7,20.7,7.4,31.9c3.2-14,4.8-30-4-39.8c8.5,6.6,10.8,19.7,12.2,35.2   c2.3-14.1-0.4-35-13.5-41.5l-0.3,0.4C326.5,162.8,328.3,165.1,329.8,167.6 M228.3,219.9c-1.7,0-10.6-4.9-14.5-12.1   c2.6-2.1,4.5-9.5,4-12.7c-3.2-3.5-7.1-6.4-11.4-8.5c-3.5,4.3,2.1,9.9,8,10c-6.3,4.1-10.6,9.4-6.4,11c0.2,0.1,0.5,0.2,0.8,0.3   c1,8.9,12.8,20.2,12.8,20.2L228.3,219.9z M205.1,197.7h0.1c-1.7-0.8-2.9-2.2-3.4-4c-0.4-1.8,0.1-3.6,1.2-5.1   c-3.4,2-3.8,4.9-2.8,6.8c1.1,1.6,3,2.5,4.9,2.5 M200.6,202.8h0.8c1-0.2,1.9-0.9,2.5-1.8c-0.5,0-0.9,0-1.4,0   c-1.3,0.1-2.6-0.4-3.6-1.2c-0.7-0.7-1.2-1.7-1.3-2.7C196.7,201.4,198.6,202.8,200.6,202.8 M337,368.1c-2.3-1-4.9-0.7-7,0.6   c-1.5,1-1.9,2.9-0.9,4.4c0.2,0.3,0.4,0.6,0.7,0.8l0.1,0.1C329.4,368.8,337.1,368.1,337,368.1L337,368.1z M268.7,219.8   c-12,3.6-19-0.9-24.1-1.3c-3.2-0.2-6.4,0.7-9.2,2.5C246,226.3,258.6,225.9,268.7,219.8L268.7,219.8z"/>
	<polygon points="87.9,448.3 426,448.3 426,445.9 87.9,445.9  "/>
</g>
</svg>
