<svg height="512" viewBox="0 0 152 152" width="512" xmlns="http://www.w3.org/2000/svg"><g id="Layer_2" data-name="Layer 2"><g id="Black_And_White" data-name="Black And White"><g id="_47.Pound_Sterling" data-name="47.Pound Sterling"><path d="m140 0h-128a12 12 0 0 0 -12 12v128a12 12 0 0 0 12 12h128a12 12 0 0 0 12-12v-128a12 12 0 0 0 -12-12zm-65.71 71.42h16.65v14.1h-16l.27 6.09q0 6.21-3.2 9.74h33v14.65h-58.01v-14.65h5.58q3.09-.81 3.26-5.6l.05-2.88-.27-7.35h-8.83v-14.1h8.36l-.33-11.77q0-11.11 6.64-17.39t18-6.26q12.15 0 19 6.24t6.81 16.92h-17.96q0-8.52-7.38-8.52a5.33 5.33 0 0 0 -4.44 2.2c-1.13 1.47-1.69 3.73-1.69 6.81z"/></g></g></g></svg>