<?xml version="1.0" encoding="UTF-8"?>
<!-- Generator: Adobe Illustrator 24.1.3, SVG Export Plug-In . SVG Version: 6.00 Build 0)  -->
<svg xmlns:cc="http://creativecommons.org/ns#" xmlns:dc="http://purl.org/dc/elements/1.1/" xmlns:rdf="http://www.w3.org/1999/02/22-rdf-syntax-ns#" xmlns="http://www.w3.org/2000/svg" xmlns:xlink="http://www.w3.org/1999/xlink" version="1.1" id="SVGRoot" x="0px" y="0px" viewBox="0 0 512 512" style="enable-background:new 0 0 512 512;" xml:space="preserve" width="512" height="512">
<g>
	<path d="M279.2,110.6"/>
	<path d="M320.3,157.6l7-34.5c-1.4-0.3-2.8-1-3.8-2.1c-3.1,3.5-9.8,9.4-15.7,9.4h-0.7c-1.7,0-3.5-0.7-4.5-1.7c1.4-1.7,1.4-4.2,0-5.6   l-0.3-0.3v0.3c0,0.7-0.3,1.7-1,2.1h-0.7c-0.7,0-1.4-0.3-1.7-1c-0.3-0.7-0.7-1.4-0.7-2.1v-1.4l1.4,0.3h0.3c0.7,0,1-0.7,1.4-1.4   c0-1-0.3-1.7-1-2.1l-1.4-0.3c0-0.3,0.3-1,0.7-1.7c0.7-1,1.4-2.1,2.8-2.1h0.3c0.7,0,1.4,0.3,1.7,1c0.3,0.7,0.7,1.4,0.7,2.4   c0,0.3,0,0.7-0.3,1c0,0.3,0.3,0.3,0.7,0.3c0.7,0,1.4-0.3,2.1-0.7c1-0.7,1.7-1.7,2.1-2.8c0-0.3,0.3-0.7,0.3-1   c0.7-2.8-0.3-5.9-2.1-7.7c-1-1-2.1-1.4-3.5-1.4s-2.4,0.7-3.5,1.4c-1.7,1.4-2.4,3.5-3.5,5.6v0.3c-0.3,1-0.7,2.1-1,3.1   c0,0.7-0.3,1-0.3,1.7h-0.7c0-0.7,0.3-1,0.3-1.7c0.3-1,0.7-2.1,1-3.1c1-2.4,2.1-4.5,3.1-7c0.7-1.4,1.4-3.1,1.4-4.9   c0-1.4,0-3.1-0.7-4.5c-0.7-2.1-3.5-10.5-3.5-10.5s-4.9,6.6-5.9,8c-0.7,1-1.4,2.4-1.4,3.8c-0.3,1.7,0,3.5,0.3,5.2   c0.3,2.8,1,5.2,1.4,8v3.5v1.7h-0.7v-1.7v-3.5v-0.3c-0.3-2.4-0.7-4.9-2.1-6.6c-0.7-1.4-1.7-2.4-3.1-3.1c-0.7-0.3-1.4-0.3-2.1-0.3   c-0.7,0-1,0-1.7,0.3c-2.1,0.7-3.8,3.1-3.8,6.3v1c0,1.4,0.7,2.8,1.4,3.5c0.7,1,2.1,1.7,2.8,1.7h0.3v-1c0-0.7,0.3-1.4,1-2.1   c0.3-0.3,0.7-0.3,1-0.3s0.7,0,1,0.3c1.4,0.7,2.1,2.1,2.4,3.5c0.3,0.7,0.3,1.4,0.3,1.7l-1.4-0.3h-0.3c-0.7,0-1,0.7-1.4,1.4   c0,1,0.3,1.7,1,2.1l1.4,0.3c0,0.3-0.3,0.7-0.3,1.4c-0.3,0.7-0.7,1.4-1,1.7c-0.3,0.3-0.7,0.3-1,0.3c-0.7,0-1-0.3-1.4-0.7   c-0.7-0.7-0.7-1.4-0.3-2.4v-0.3H283c-1.7,0.7-2.4,2.8-1,5.2c-1.4,0.3-2.8,0.3-4.2,0.3h-2.4c-8.7-1-14-9.1-15.7-13.6   c-0.3,0.3-1,0.3-1.4,0.3h-1.4c-1,0-2.1-0.3-2.8-0.7c-1.7,4.2-6.6,12.6-15.7,13.6h-2.4c-1.7,0-3.1-0.3-4.2-0.3   c1.4-2.4,0.7-4.5-1-5.2h-0.3v0.3c0,0.7,0,1.7-0.3,2.4c-0.3,0.3-1,0.7-1.4,0.7c-0.3,0-0.7,0-1-0.3c-0.3-0.3-0.7-1-1-1.7   c-0.3-0.7-0.3-1-0.3-1.4l1-0.3c0.7-0.3,1.4-1,1-2.1c0-0.7-0.7-1.4-1.4-1.4h-0.3l-1.4,0.3c0-0.3,0-1,0.3-1.7c0.3-1.4,1-2.8,2.4-3.5   c0.3,0,0.7-0.3,0.7-0.3c0.3,0,0.7,0,1,0.3c0.7,0.3,1,1,1,2.1v1c0.7,0,2.4-1.4,2.8-1.7c0.3-0.7,1-2.4,1.4-3.5v-1   c0-2.8-1.4-5.6-3.8-6.3c-0.7-0.3-1-0.3-1.7-0.3c-0.7,0-1.4,0-2.1,0.3c-1.4,0.7-2.1,1.7-3.1,3.1c-1,2.1-1.7,4.5-2.1,6.6v0.3   c0,1-0.3,2.4-0.3,3.5v1.7h-0.7c0-0.7,0-1-0.3-1.7v-3.5c0.3-2.8,1-5.2,1.4-8c0.3-1.7,0.3-3.5,0.3-5.2c-0.3-1.4-0.7-2.8-1.4-3.8   c-1-1.7-5.9-8-5.9-8s-3.1,8.4-3.5,10.5c-0.3,1.4-0.7,3.1-0.7,4.5c0.3,1.7,0.7,3.1,1.4,4.9c1,2.1,2.4,4.5,3.1,7c0.3,1,0.7,2.1,1,3.1   c0,0.7,0.3,1,0.3,1.7h-0.7c0-0.3-0.3-1-0.3-1.7c-0.3-1-0.7-2.1-1-3.1v-0.3c-1-2.1-1.7-4.2-3.5-5.6c-1-1-2.1-1.4-3.5-1.4   c-1.4,0-2.4,0.7-3.5,1.4c-1.7,1.7-2.8,4.9-2.1,7.7c0,0.3,0.3,0.7,0.3,1c0.3,1,1.4,2.1,2.1,2.8c0.7,0.3,1.4,0.7,2.1,0.7   c0.3,0,0.7,0,0.7-0.3c0-0.3-0.3-0.7-0.3-1c0-1,0-1.7,0.7-2.4c0.3-0.7,1-1,1.7-1h0.3c1.4,0,2.4,1,2.8,2.1c0.3,0.7,0.7,1.4,0.7,1.7   l-1.4,0.3c-0.7,0.3-1.4,1-1,2.1c0,0.7,0.7,1.4,1.4,1.4h0.3l1.4-0.3v1.4c0,0.7-0.3,1.7-0.7,2.1c-0.3,0.7-1,1-1.7,1h-0.7   c-0.7-0.3-0.7-1-1-2.1v-0.3c-0.3,0-0.3,0-0.3,0.3c-1.4,1.4-1.4,3.8,0,5.6c-1.4,0.7-2.8,1.4-4.5,1.4h-0.7c-5.6,0-12.6-5.9-15.7-9.4   c-1,1-2.4,2.1-3.8,2.1l7,34.5c20.6-8,41.9-12.2,64.2-12.2C278.5,145.4,300.1,149.6,320.3,157.6"/>
	<path d="M256.2,150c-22,0-42.9,4.2-63.1,12.2c-0.3,0-0.7,0.3-1,0.3c-0.3,0-0.7,0.3-1,0.3c-2.8,1.7-4.2,5.2-2.8,8.7   c1,2.8,3.8,4.2,6.3,4.2c1,0,1.7,0,2.8-0.3c18.8-7.7,38.7-11.5,58.9-11.5c20.6,0,40.5,3.8,58.9,11.5c0.7,0.3,1.7,0.3,2.8,0.3   c2.8,0,5.2-1.7,6.6-4.2c1.4-3.1,0-7-2.8-8.7c-0.3-0.3-0.7-0.3-1-0.3s-0.7-0.3-1-0.3C299.4,153.8,278.1,150,256.2,150"/>
	<path d="M256.2,172.6c80.9,0,146.8,65.6,146.8,146.8c0,80.9-65.6,146.8-146.8,146.8c-80.9,0-146.8-65.6-146.8-146.8   c0-10.8,1-21.6,3.5-31.7c0-0.3,0.3-0.7,0.3-1v-0.3c0-0.3,0.3-1,0.3-1.4C128.9,220.4,187.1,172.6,256.2,172.6 M117,260.9   c-8,18.5-11.9,38.4-11.9,58.9c0,20.2,3.8,40.1,11.9,58.9c7.7,18.1,18.5,34.2,32.4,48.1c14,14,30,24.8,48.1,32.4   c18.5,8,38.4,11.9,58.9,11.9c20.6,0,40.1-3.8,58.9-11.9c18.1-7.7,34.2-18.5,48.1-32.4c14-14,24.8-30,32.4-48.1   c8-18.5,11.9-38.4,11.9-58.9c0-20.2-3.8-40.1-11.9-58.9c-7.7-18.1-18.5-34.2-32.4-48.1c-13.9-14-30-24.8-48.1-32.4   c-18.5-8-38.4-11.9-58.9-11.9c-20.6,0-40.5,3.8-59.3,11.9c-18.1,7.7-34.2,18.5-48.1,32.4C135.5,226.7,124.3,242.7,117,260.9"/>
	<path d="M248.8,493.9c0,9.8,7.7,18.1,7.7,18.1s7.7-8,7.7-18.1c0-9.8-7.7-18.1-7.7-18.1S248.8,483.7,248.8,493.9"/>
	<path d="M231,477.8c-8.7,4.9-12.2,15.3-12.2,15.3s10.8,2.8,19.5-2.1c8.7-4.9,12.2-15.3,12.2-15.3S239.8,472.9,231,477.8"/>
	<path d="M227.9,473.3c0,0-10.1-4.2-19.5-0.7c-9.4,3.5-14.3,13.3-14.3,13.3s10.1,4.2,19.5,0.7C222.7,483.1,227.9,473.3,227.9,473.3"/>
	<path d="M205.9,467.4c0,0-9.4-5.6-19.2-3.5c-9.8,2.1-16,11.2-16,11.2s9.4,5.6,19.2,3.5C199.3,476.4,205.9,467.4,205.9,467.4"/>
	<path d="M185,458.6c0,0-8.4-7-18.5-6.3c-9.8,0.7-17.4,8.7-17.4,8.7s8.4,7,18.5,6.3C177.3,466.7,185,458.6,185,458.6"/>
	<path d="M148.1,437.7c-9.8-0.7-18.5,5.9-18.5,5.9s7.3,8,17.4,9.1c9.8,0.7,18.5-5.9,18.5-5.9S158.2,438.8,148.1,437.7"/>
	<path d="M148.1,432.1c0,0-6.3-9.1-15.7-11.5c-9.8-2.1-19.2,3.1-19.2,3.1s6.3,9.1,15.7,11.5C138.3,437.7,148.1,432.1,148.1,432.1"/>
	<path d="M132.7,415.4c0,0-4.9-9.8-14-13.6c-9.1-3.5-19.5,0.3-19.5,0.3s4.9,9.8,14,13.6C122.6,419.6,132.7,415.4,132.7,415.4"/>
	<path d="M120.2,396.6c0,0-3.1-10.5-11.9-15.3c-8.7-4.9-19.2-2.4-19.2-2.4s3.1,10.5,11.9,15.3C109.3,399,120.2,396.6,120.2,396.6"/>
	<path d="M91.5,370.8c7.7,6.3,18.8,5.2,18.8,5.2s-1.7-10.8-9.4-17.1c-7.7-6.3-18.8-5.2-18.8-5.2S83.9,364.8,91.5,370.8"/>
	<path d="M103.8,354.4c0,0,0-11.2-7-18.1c-7-7.3-17.8-8-17.8-8s0,11.2,7,18.1C93,353.7,103.8,354.4,103.8,354.4"/>
	<path d="M100.3,331.7c0,0,1.4-10.8-4.2-19.2c-5.6-8-16.4-10.5-16.4-10.5s-1.4,10.8,4.2,19.2C89.5,329.6,100.3,331.7,100.3,331.7"/>
	<path d="M100.3,309c0,0,3.1-10.5-1.4-19.5c-4.5-8.7-15-12.6-15-12.6s-3.1,10.5,1.4,19.5C89.8,305.2,100.3,309,100.3,309"/>
	<path d="M103.4,286.7c0,0,4.5-10.1,1.4-19.5c-3.1-9.4-12.9-14.6-12.9-14.6s-4.5,10.1-1.4,19.5C93.6,281.5,103.4,286.7,103.4,286.7"/>
	<path d="M109.7,264.7c0,0,5.9-9.4,4.2-19.2s-10.5-16.4-10.5-16.4s-5.9,9.1-4.2,19.2C101,258.1,109.7,264.7,109.7,264.7"/>
	<path d="M119.4,244.1c0,0,7.3-8.4,7-18.1c-0.3-9.8-8-17.8-8-17.8s-7.3,8.4-7,18.1C111.4,236.5,119.4,244.1,119.4,244.1"/>
	<path d="M141.1,208.2c1-9.8-5.6-18.8-5.6-18.8s-8.4,7.3-9.4,17.1c-1,9.8,5.2,18.8,5.2,18.8S140,218,141.1,208.2"/>
	<path d="M158.5,192.5c2.4-9.8-2.8-19.2-2.8-19.2s-9.4,5.9-11.9,15.3c-2.4,9.8,2.8,19.2,2.8,19.2S156.1,202.3,158.5,192.5"/>
	<path d="M178,180c3.8-9.1,0-19.5,0-19.5s-10.1,4.5-14,13.6c-3.8,9.1-0.3,19.5-0.3,19.5S174.2,189,178,180"/>
	<path d="M281.3,477.8c-8.7-4.9-19.5-2.1-19.5-2.1s3.5,10.5,12.2,15.3c8.7,4.9,19.5,2.1,19.5,2.1S290,482.3,281.3,477.8"/>
	<path d="M304,472.2c-9.4-3.5-19.5,0.7-19.5,0.7s4.9,9.8,14.3,13.3c9.4,3.5,19.5-0.7,19.5-0.7S313,475.7,304,472.2"/>
	<path d="M325.6,463.9c-9.8-2.1-19.2,3.5-19.2,3.5s6.3,9.1,16,11.2s19.2-3.5,19.2-3.5S335.3,466,325.6,463.9"/>
	<path d="M345.8,452.4c-9.8-0.7-18.5,6.3-18.5,6.3s7.7,8,17.4,8.7c9.8,0.7,18.5-6.3,18.5-6.3S355.6,452.7,345.8,452.4"/>
	<path d="M363.9,437.7c-9.8,0.7-17.4,9.1-17.4,9.1s8.7,6.6,18.5,5.9c9.8-0.7,17.4-9.1,17.4-9.1S374,437,363.9,437.7"/>
	<path d="M380,421c-9.8,2.1-15.7,11.5-15.7,11.5s9.4,5.6,19.2,3.1c9.8-2.1,15.7-11.5,15.7-11.5S389.7,418.5,380,421"/>
	<path d="M393.2,401.8c-9.4,3.5-14,13.6-14,13.6s10.1,4.2,19.5,0.3c9.4-3.5,14-13.6,14-13.6S402.7,398.3,393.2,401.8"/>
	<path d="M404,381.2c-8.7,4.9-11.9,15.3-11.9,15.3s10.8,2.4,19.2-2.4c8.7-4.9,11.9-15.3,11.9-15.3S412.4,376,404,381.2"/>
	<path d="M411.4,358.9c-7.7,6.3-9.4,17.1-9.4,17.1s10.8,1,18.8-5.2c7.7-6.3,9.4-17.1,9.4-17.1S419,353,411.4,358.9"/>
	<path d="M415.2,336.2c-7,7.3-7,18.1-7,18.1s10.8-0.7,17.8-8c7-7.3,7-18.1,7-18.1S422.2,328.9,415.2,336.2"/>
	<path d="M415.9,312.9c-5.6,8-4.2,19.2-4.2,19.2s10.8-2.1,16.4-10.5c5.6-8,4.2-19.2,4.2-19.2S421.8,304.8,415.9,312.9"/>
	<path d="M413.5,289.5c-4.5,8.7-1.4,19.5-1.4,19.5s10.5-3.8,15-12.6s1.4-19.5,1.4-19.5S418,280.8,413.5,289.5"/>
	<path d="M408.6,286.7c0,0,9.8-5.2,12.9-14.6c3.1-9.4-1.4-19.5-1.4-19.5s-9.8,5.2-12.9,14.6C404.1,276.6,408.6,286.7,408.6,286.7"/>
	<path d="M402.3,264.7c0,0,8.7-6.6,10.5-16.4c1.7-9.8-4.2-19.2-4.2-19.2s-8.7,6.6-10.5,16.4C396.4,255.7,402.3,264.7,402.3,264.7"/>
	<path d="M392.9,244.1c0,0,7.7-7.7,8-17.8c0.3-9.8-7-18.1-7-18.1s-7.7,7.7-8,17.8C385.6,235.8,392.9,244.1,392.9,244.1"/>
	<path d="M380.3,225c0,0,6.6-8.7,5.2-18.8c-1-9.8-9.4-17.1-9.4-17.1s-6.6,8.7-5.6,18.8C372,218,380.3,225,380.3,225"/>
	<path d="M365.3,208.2c0,0,5.2-9.8,2.8-19.2c-2.4-9.8-11.9-15.3-11.9-15.3s-5.2,9.8-2.8,19.2C356.3,202.3,365.3,208.2,365.3,208.2"/>
	<path d="M334,160.4c0,0-3.8,10.5,0.3,19.5c3.8,9.1,14,13.6,14,13.6s3.8-10.5-0.3-19.5C344.1,164.6,334,160.4,334,160.4"/>
	<path d="M314.8,395.9C314.8,395.9,315.1,395.9,314.8,395.9 M314.1,395.5C314.4,395.5,314.4,395.5,314.1,395.5h0.3H314.1    M306.1,393.1C306.4,393.1,306.4,393.1,306.1,393.1 M197.2,395.9C197.6,395.9,197.6,395.9,197.2,395.9   C197.6,395.9,197.2,395.9,197.2,395.9 M324.5,371.5c-1.7-4.5-3.5-9.1-3.5-9.1s-7,4.5-10.5,6.6c-3.5,2.1-9.1,5.6-13.3,10.5   c-4.2,4.9-7.3,12.2-7.3,12.2h3.5c2.1,0,4.9,0,8.4,0.7h0.3c0.3,0,1,0.3,1.4,0.3h0.3h0.3c0,0-1,11.5-11.2,22.3   c-2.1,2.4-6.6,5.9-9.4,7.7c-1.7,1.4-3.5,2.1-5.6,3.1h-2.1c-8,0-14.6-5.9-14.6-13.3v-48.8c-2.1,0-4.2,0.3-6.3,0.3   c-2.1,0-4.2,0-6.3-0.3v48.8c0,7.3-6.6,13.3-14.6,13.3h-2.1c-1.7-1-3.8-1.7-5.6-3.1c-2.1-1.4-5.2-3.8-7.3-5.9l-2.1-2.1   c-9.8-11.2-11.2-22.3-11.2-22.3h0.3h0.3c0.3,0,1-0.3,1.4-0.3h0.3c3.5-0.7,6.3-0.7,8.4-0.7h3.5c0,0-3.1-7.3-7.3-12.2   c-4.2-4.9-9.8-8.4-13.3-10.5c-3.5-2.1-10.5-6.6-10.5-6.6s-1.7,4.5-3.5,9.1c-1.7,4.5-4.5,8.7-5.6,17.1c-1,8.4,0.7,15,0.7,15   s4.5-3.1,11.5-6.3c0,0,0.3,0,0.3-0.3c0,0,0.3,0,0.3-0.3h0.3h0.3h0.3h0.3h0.3c0.3,1.7,3.5,18.5,11.5,28.2l0.3,0.3   c0.7,0.7,1.4,1.7,2.4,2.4c2.8,2.4,7.3,6.3,12.9,10.1c6.3,4.5,14,9.1,19.5,13.3c8,5.9,12.2,10.5,12.2,10.5s4.2-4.5,12.2-10.5   c5.6-4.2,13.3-9.1,19.9-13.3c5.6-3.8,10.1-7.7,12.9-10.1c0.3-0.3,0.7-0.7,1-0.7l1.7-1.7c0.3-0.3,0.3-0.7,0.7-1   c0.7-0.7,1-1.7,1.7-2.8c0.3-0.7,0.7-1,1-1.7c1-1.7,2.1-3.8,2.8-5.9V413c1-2.4,1.7-4.9,2.4-7c0.7-2.1,1-3.8,1.4-5.6   c0.3-2.1,0.7-3.5,0.7-3.8h0.3h0.3h0.3h0.3c0,0,0.3,0,0.3,0.3h0.3c7,3.1,11.5,6.3,11.5,6.3s2.1-6.6,0.7-15   C329.1,380.2,326.3,376,324.5,371.5"/>
	<path d="M246.8,210.7c-2.4-2.4-3.8-5.6-3.8-9.1c0-3.5,1.4-6.6,3.8-9.1c2.4-2.4,5.6-3.8,9.1-3.8s6.6,1.4,9.1,3.8   c2.4,2.4,3.8,5.6,3.8,9.1c0,3.5-1.4,6.6-3.8,9.1c-0.7,0.7-1.7,1.7-2.8,2.1c0-3.5-2.8-6.3-6.3-6.3c-3.5,0-6.3,2.8-6.3,6.3v0.3   C248.9,212.4,247.8,211.7,246.8,210.7 M249.9,243.4V271c2.1,1,4.2,2.1,6.3,3.1c2.1-1,4.2-2.1,6.3-3.1v-27.6h17.4l46.4-7.3v-10.8   h-63.8v-3.5c8.7-2.8,15-10.8,15-20.6c0-11.9-9.8-21.3-21.3-21.3c-11.9,0-21.3,9.4-21.3,21.3c0,9.8,6.3,17.8,15,20.6v3.5h-63.8v10.8   l46.4,7.3H249.9z"/>
	<path d="M261.1,276.6c0.3,0.3,1,0.3,1.4,0.7c5.2,2.8,10.5,5.2,15.3,8c4.2-2.1,9.1-4.5,14.6-6.3c23.4-12.9,41.9-23,43.2-23.7   c4.5-2.4,10.8-6.6,15-10.1c2.1-1.7,4.5-4.2,6.6-6.3c2.1-2.1,3.8-4.2,3.8-4.2l2.4-2.8l-3.5,0.3c0,0-2.8,0.3-5.6,0.7   c-2.8,0.3-6.6,1.4-8.7,2.1c-4.9,1.7-12.2,4.5-16.7,7c-2.1,1-32.1,16.4-66.3,33.8C262.1,276.2,261.4,276.6,261.1,276.6"/>
	<path d="M187.8,356.1c1,0,2.4-0.3,3.5-0.7c1.7-1,2.8-2.4,3.5-4.2s0.3-3.8-0.3-5.6c-1.4-2.4-3.5-3.8-6.3-3.8c-0.7,0-1.4,0-1.7,0.3   l-1.4-2.8l-0.3-0.7c3.8-2.1,15-8.4,29.3-16c-4.9-0.7-9.4-1.4-14-3.1c-4.5-1.4-8.4-3.1-11.9-5.2l-11.5,5.9c-0.7,0.3-1,0.7-1.4,0.7   l-1.7-3.1c1-0.7,1.7-2.1,2.1-3.1c0.7-1.7,0.3-3.8-0.7-5.6c-1.4-2.4-3.8-3.8-6.3-3.8c-1,0-2.4,0.3-3.5,0.7c-1.7,1-2.8,2.4-3.5,4.2   c-0.7,1.7-0.3,3.8,0.3,5.6l5.6,10.1h-0.7c-0.7,0-1.4,0.3-2.1,0.7c-0.7,0.3-1,0.7-1.7,1.4c0,0-0.3,0.3-0.3,0.7H162   c-0.7,0-1.4,0.3-1.7,0.7c-0.7,0.3-1,0.7-1.7,1.4c0,0.3-0.3,0.3-0.3,0.7h-0.7c-0.7,0-1.4,0.3-2.1,0.7c-0.7,0.3-1,0.7-1.7,1.4   c0,0.3-0.3,0.3-0.3,0.7h-0.7c-0.7,0-1.4,0.3-1.7,0.7c-0.7,0.3-1.4,0.7-1.7,1.4l-0.3,0.3h-1c-0.7,0-1.4,0.3-1.7,0.7   c-0.7,0.3-1,0.7-1.7,1.4c0,0.3-0.3,0.3-0.3,0.3h-1c-0.7,0-1.4,0.3-1.7,0.7c-0.7,0.3-1,0.7-1.7,1.4c0,0.3-0.3,0.3-0.3,0.3h-1   c-0.7,0-1.4,0.3-1.7,0.7c-0.7,0.3-1,0.7-1.7,1.4l-0.3,0.3h-1c-0.7,0.3-1.4,0.3-1.7,0.7s-1,0.7-1.4,1h-0.7h-0.3   c-2.4,0-4.9,1.4-6.6,3.1c-1.7,1.7-2.4,4.2-2.4,7c0.3,5.2,4.5,9.1,9.4,9.1h0.7c3.1,0,5.9-1.7,7.7-4.5c0.7-0.3,1-0.7,1.4-1.4h0.3h0.7   c0.3,0,1-0.3,1.4-0.3s0.7-0.3,1-0.3c0.7-0.3,1-0.7,1.4-1.4h0.3h0.7c0.3,0,1-0.3,1.4-0.3s0.7-0.3,1-0.7c0.7-0.3,1-0.7,1.4-1.4h0.3   h0.7c0.3,0,1-0.3,1.4-0.3s0.7-0.3,1-0.7c0.7-0.3,1-0.7,1.4-1.4h0.3h0.7c0.3,0,1-0.3,1.4-0.3s0.7-0.3,1-0.3c0.7-0.3,1-0.7,1.4-1.4   h0.3h0.7c0.3,0,1-0.3,1.4-0.3s0.7-0.3,1-0.7c0.7-0.3,1-0.7,1.4-1.4h0.3h0.7c0.3,0,1-0.3,1.4-0.3s0.7-0.3,1-0.3c0.7-0.3,1-1,1.4-1.4   h0.3h0.7c0.3,0,1-0.3,1.4-0.3c0.3,0,0.7-0.3,1-0.3c0.7-0.3,1-0.7,1.4-1.4h0.3h0.7c0.3,0,1-0.3,1.4-0.3c0.3,0,0.3,0,0.3-0.3l2.4,4.5   l2.8,5.2C182.6,354.7,185,356.1,187.8,356.1"/>
	<path d="M154.7,238.9c2.1,2.1,4.9,4.5,6.6,6.3c4.2,3.1,10.5,7.7,15,10.1c1.4,0.7,16.4,9.1,36.6,20.2c9.8,1.7,18.5,4.5,25.5,8   c0.7,0.3,1.7,0.7,2.4,1.4c0.7,0.3,1.4,0.7,2.4,1.4c2.4,1.4,4.5,2.8,6.3,4.2c1.7,1.4,3.1,2.8,4.2,4.2c1-0.3,2.4-0.3,3.5-0.3   c1.7,0,3.5,0.3,4.5,0.7c2.1-1.4,5.9-3.8,10.8-6.3c-3.5-1.7-7-3.8-10.8-5.6c-2.1-1-4.2-2.1-6.3-3.1c-0.7-0.3-1.7-0.7-2.4-1.4   c-0.7-0.3-1.7-0.7-2.4-1.4c-0.3-0.3-1-0.7-1.4-0.7c-33.8-17.4-64.2-32.8-66.3-34.2c-4.5-2.4-11.5-5.2-16.7-7   c-2.4-0.7-5.9-1.7-8.7-2.1c-3.1-0.3-5.6-0.7-5.6-0.7l-3.5-0.3l2.1,2.8C151.2,234.7,152.6,236.8,154.7,238.9"/>
	<path d="M383.5,347.4h-0.3h-0.7c-0.3-0.3-1-0.7-1.4-1c-0.3-0.3-1-0.7-1.7-0.7h-1c0-0.3-0.3-0.3-0.3-0.3c-0.3-0.7-1-1-1.7-1.4   c-0.7-0.3-1.4-0.7-1.7-0.7h-1l-0.3-0.3c-0.3-0.7-1-1-1.7-1.4c-0.7-0.3-1.4-0.7-1.7-0.7h-1c0-0.3-0.3-0.3-0.3-0.3   c-0.3-0.7-1-1-1.7-1.4c-0.7-0.3-1.4-0.7-2.1-0.7h-0.7c0-0.3-0.3-0.3-0.3-0.3c-0.3-0.7-1-1-1.7-1.4c-0.7-0.3-1.4-0.7-2.1-0.7h-0.7   l-0.3-0.3c-0.3-0.7-1-1-1.7-1.4c-0.7-0.3-1.4-0.7-2.1-0.7h-0.7c0-0.3-0.3-0.3-0.3-0.7c-0.3-0.7-1-1-1.7-1.4   c-0.7-0.3-1.4-0.7-1.7-0.7h-0.7c0-0.3-0.3-0.3-0.3-0.7c-0.3-0.7-1-1-1.7-1.4c-0.7-0.3-1.4-0.7-2.1-0.7h-0.7l5.6-10.1   c1-1.7,1-3.5,0.3-5.6c-0.7-1.7-1.7-3.1-3.5-4.2c-1-0.7-2.1-0.7-3.5-0.7c-2.8,0-5.2,1.4-6.3,3.8c-1,1.7-1,3.5-0.3,5.6   c0.3,1.4,1,2.4,2.1,3.1l-1.7,3.1c-0.3-0.3-1-0.3-1.4-0.7l-15.3-8c-3.5,2.4-7.3,4.5-13.6,6.3c0,0.3,0.3,1,0.3,1.4   c0,1.7-0.3,3.8-2.1,5.9c11.2,6.3,19.9,10.8,23,12.6l-0.7,1l-1.4,2.1c-0.7,0-1-0.3-1.7-0.3c-2.8,0-5.2,1.4-6.3,3.8   c-1,1.7-1,3.5-0.7,5.6c0.7,1.7,1.7,3.1,3.5,4.2c1,0.7,2.1,0.7,3.5,0.7c2.8,0,5.2-1.4,6.3-3.8l2.4-4.9l2.4-4.5l0.3,0.3   c0.7,0.3,1,0.3,1.4,0.3h0.7h0.3c0.3,0.7,1,1,1.4,1.4c0.3,0.3,0.7,0.3,1,0.3c0.7,0.3,1,0.3,1.4,0.3h0.7h0.3c0.3,0.7,1,1,1.4,1.4   c0.3,0,0.7,0.3,1,0.3c0.3,0.3,1,0.3,1.4,0.3h0.7h0.3c0.3,0.7,1,1,1.4,1.4c0.3,0.3,0.7,0.3,1,0.3c0.3,0.3,1,0.3,1.4,0.3h0.7h0.3   c0.3,0.7,1,1,1.4,1.4c0.3,0.3,0.7,0.3,1,0.3c0.3,0.3,1,0.3,1.4,0.3h0.7h0.3c0.3,0.7,0.7,1,1.4,1.4c0.3,0.3,0.7,0.3,1,0.7   s1,0.3,1.4,0.3h0.7h0.3c0.3,0.7,0.7,1,1.4,1.4c0.3,0.3,0.7,0.3,1,0.7s1,0.3,1.4,0.3h0.7h0.3c0.3,0.7,0.7,1,1.4,1.4   c0.3,0.3,0.7,0.3,1,0.3c0.3,0.3,1,0.3,1.4,0.3h0.7h0.3c0.3,0.7,1,1,1.4,1.4c1.7,2.4,4.5,4.2,7.7,4.5h0.3c4.9,0,9.1-3.8,9.4-9.1   c0-2.4-0.7-4.9-2.4-7C388.4,348.4,385.9,347.4,383.5,347.4"/>
	<path d="M187.8,309.4c0.7,0.3,1.4,0.7,2.4,1.4c0.7,0.3,1.7,0.7,2.4,1.4c2.4,1.4,5.2,2.4,8.4,3.5c7,2.4,14,3.1,19.5,3.1h1.7h2.8   c2.1,0,3.8-0.3,5.2-0.3c1.7-0.3,2.8-0.3,2.8-0.3l2.1,9.8l-14.6,19.9c0,0,5.9,10.5,29.3,12.2c2.1,0,4.2,0.3,6.3,0.3   c2.1,0,4.5,0,6.3-0.3c23.4-1.7,28.2-12.2,28.2-12.2l-18.5-16.4l3.5-8.7c-0.7,0-1.4-0.3-2.1-0.3c-2.1,0-3.8,0.3-4.9,0.7h-1H267   l-1.4-0.3c0.3,0,0.7-0.3,1.4-0.7c0.7-0.3,1.4-0.7,2.4-1.4c2.1-1,4.9-2.1,6.6-1.7c0.3,0,0.7,0.3,1.4,0.3c1,0.3,2.1,0.7,3.1,1   c1.4,0.3,2.4,1,4.5,1.4h0.7c1.4,0.3,2.4,0.3,2.8,0.3c1,0,1.4-0.3,4.2-0.3h1.4c5.9,0.3,5.6,3.1,5.6,3.1c0.3-0.3,1-0.7,1.4-1   c1.7-1.7,2.1-3.1,1.7-4.5c-0.3-0.7-0.7-1.4-1.4-2.1c-0.7-0.7-1.4-1.4-2.1-1.7c-0.7-0.7-1.4-0.7-1.4-0.7c1.4-3.8-10.1-5.6-15-7   c-3.1-0.7-10.1-3.8-15.3-6.3c-1.7-0.7-3.1-1.4-4.2-2.1h-0.3c-0.7-0.3-1-0.3-1-0.7c-0.3,0-0.7-0.3-1-0.3c-1-0.3-2.1-0.7-3.5-0.7   c-1,0-1.7,0-2.8,0.3c-1.4,0.3-2.8,0.7-2.8,0.7s-0.7-1.4-2.4-3.1c-0.3-0.3-0.7-0.7-1-1c-2.1-2.1-5.2-4.2-10.1-6.6   c-0.7-0.3-1.7-0.7-2.4-1c-0.7-0.3-1.7-0.7-2.4-1c-1.4-0.7-3.1-1.4-4.9-1.7c-2.8-1-6.3-2.1-9.8-2.8c-2.4-0.7-4.9-1-7.7-1.7   c-5.6-1-12.2-2.1-19.5-2.4c-6.6-0.3-12.9-0.7-18.8-0.7c-38.4,0-57.5,9.8-57.5,9.8s18.8,2.8,39.1,8   C170.7,297.9,178.7,304.1,187.8,309.4"/>
	<path d="M323.8,276.2c-10.5,0.7-20.6,3.5-29.6,7c-4.2,1.4-8,3.1-11.5,4.9c-0.7,0.3-1.7,0.7-2.4,1c-0.7,0.3-1.7,0.7-2.4,1.4   c-6.3,3.5-11.2,6.3-13.3,7.7l1,0.3h0.3c1.7,0.7,14,4.5,18.5,5.6c0.7,0,1.4,0.3,2.1,0.3c7.3,1.4,13.3,3.1,15.3,6.6   c0.3,0.3,0.3,0.7,0.3,1.4c0.7,0.7,1.7,1.4,2.4,2.1c4.9-1,8.7-2.8,11.5-4.5c0.7-0.3,1.4-1,2.1-1.4c0.7-0.3,1.4-1,2.1-1.4   c4.2-3.1,8-7,15.7-9.8c22.7-9.1,60.3-13.6,60.3-13.6s-33.8-7.7-63.5-7.7C329.8,275.9,327,275.9,323.8,276.2"/>
	<path d="M263.5,14c0,1.4-0.3,2.4-1,3.5c2.8,1.4,5.6,3.1,7.7,4.9V5.2c-2.1,1.7-4.9,3.8-7.7,4.9C263.1,11.5,263.5,12.6,263.5,14"/>
	<path d="M256.2,7c1.4,0,2.4,0.3,3.5,1c1.4-3.1,3.5-5.9,5.2-8h-17.1c1.7,2.1,3.8,4.9,4.9,7.7C253.7,7.3,255.1,7,256.2,7"/>
	<path d="M249.2,14c0-1.4,0.3-2.4,1-3.5c-2.8-1-5.6-3.1-7.7-4.9v17.1c2.1-2.1,4.9-3.8,7.7-5.2C249.6,16.4,249.2,15.3,249.2,14"/>
	<path d="M264.9,27.9c-1.7-2.1-3.8-4.9-4.9-7.7c-1,0.7-2.4,1-3.5,1c-1.4,0-2.4-0.3-3.5-1c-1.4,2.8-3.1,5.6-4.9,7.7H264.9z"/>
	<path d="M253.4,18.5c0.7,0.7,1.7,1,3.1,1c1,0,2.1-0.3,3.1-1c0.7-0.3,1-1,1.4-1.4c0.3-1,0.7-2.1,0.7-3.1s-0.3-2.1-1-3.1   c-0.3-0.7-1-1-1.4-1.4c-0.7-0.7-1.7-1-3.1-1c-1,0-2.1,0.3-3.1,1c-0.7,0.3-1,1-1.4,1.4c-0.3,1-0.7,2.1-0.7,3.1s0.3,2.1,1,3.1   C252.3,17.4,252.7,18.1,253.4,18.5"/>
	<path d="M253.4,61.4c0.7,0.7,1.7,1,3.1,1c1,0,2.1-0.3,3.1-1c0.7-0.3,1-1,1.4-1.4c0.7-0.7,1-1.7,1-3.1c0-1-0.3-2.1-1-3.1   c-0.3-0.7-1-1-1.4-1.4c-0.7-0.7-1.7-1-3.1-1c-1,0-2.1,0.3-3.1,1c-0.7,0.3-1,1-1.4,1.4c-0.7,1-1,2.1-1,3.5c0,1,0.3,2.1,1,3.1   C252.3,60.7,252.7,61,253.4,61.4"/>
	<path d="M253.4,72.9c0.7,0.7,1.7,1,3.1,1c1,0,2.1-0.3,3.1-1c0.7-0.3,1-1,1.4-1.4c0.7-0.7,1-1.7,1-3.1c0-1-0.3-2.1-1-3.1   c-0.3-0.7-1-1-1.4-1.4c-0.7-0.7-1.7-1-3.1-1c-1,0-2.1,0.3-3.1,1c-0.7,0.3-1,1-1.4,1.4c-0.7,1-1,2.1-1,3.1c0,1,0.3,2.1,1,3.1   C252.3,71.8,252.7,72.5,253.4,72.9"/>
	<path d="M253.4,84.1c0.7,0.7,1.7,1,3.1,1c1,0,2.1-0.3,3.1-1c0.7-0.3,1-0.7,1.4-1.4c0.7-0.7,1-1.7,1-3.1c0-1-0.3-2.1-1-2.8   c-0.3-0.7-1-1-1.4-1.4c-0.7-0.7-1.7-1-3.1-1c-1,0-2.1,0.3-3.1,1c-0.7,0.3-1,0.7-1.4,1.4c-0.7,0.7-1,1.7-1,2.8c0,1,0.3,2.1,1,3.1   C252.3,83.4,252.7,83.7,253.4,84.1"/>
	<path d="M180.8,120c0.7,0.7,1.7,1,3.1,1c1,0,2.1-0.3,3.1-1c0.7-0.3,1-1,1.4-1.4c0.7-0.7,1-1.7,1-3.1c0-1-0.3-2.1-1-3.1   c-0.3-0.7-1-1-1.4-1.4c-0.7-0.7-1.7-1-3.1-1c-1,0-2.1,0.3-3.1,1c-0.7,0.3-1,1-1.4,1.4c-0.7,0.7-1,1.7-1,3.1c0,1,0.3,2.1,1,3.1   C179.8,119.3,180.1,119.6,180.8,120"/>
	<path d="M253.4,107.8c0.7,0.7,1.7,1,3.1,1c1,0,2.1-0.3,3.1-1c0.7-0.3,1-1,1.4-1.4c0.7-0.7,1-1.7,1-3.1c0-1-0.3-2.1-1-3.1   c-0.3-0.7-1-1-1.4-1.4c-1-0.7-1.7-1-3.1-1c-1,0-2.1,0.3-3.1,1c-0.7,0.3-1,1-1.4,1.4c-0.7,1-1,2.1-1,3.1c0,1,0.3,2.1,1,3.1   C252.3,106.7,252.7,107.1,253.4,107.8"/>
	<path d="M256.2,51.3c6.3,0,11.5-5.2,11.5-11.5s-5.2-11.5-11.5-11.5c-6.3,0-11.5,5.2-11.5,11.5S249.9,51.3,256.2,51.3"/>
	<path d="M180.8,95.9c-2.8-8.7-13.6-28.6,2.1-42.5c5.2-4.5,12.9-7.3,19.2-7.3c4.5,0,10.8,1.4,16.7,3.5c10.5,3.5,17.1,5.6,29.3,5.6   v5.6c-13.3,0-20.2-2.1-31-5.9c-4.9-1.7-10.5-3.1-14.3-3.1c-6.3,0-11.9,2.1-16,5.9c-10.1,8.7-6.6,20.6-2.1,32.4   c0.7,1.4,1,2.8,1.4,4.2L180.8,95.9z"/>
	<path d="M238.7,114c2.8-2.4,8-5.6,11.2-7c-0.3-0.7-0.7-1.4-1-2.1c-0.3-2.1,0-3.8,1-5.2c-3.1-1.4-8.4-4.9-11.2-7.3V114z"/>
	<path d="M274,114V92.4c-2.8,2.4-8,5.9-11.2,7.3c0.3,0.7,0.7,1.4,1,2.4c0.3,1.7,0,3.8-1,5.2C265.9,108.5,271.2,111.6,274,114"/>
	<path d="M252.3,97c0.7-0.3,1.4-0.7,2.4-1h1.4c1.4,0,2.8,0.3,3.8,1c1.4-3.1,4.5-8.4,7-11.2h-21.6C247.8,88.2,251.3,93.8,252.3,97"/>
	<path d="M182.2,108.5h1.4c1,0,1.7,0.3,2.8,0.3c1-3.8,4.2-11.2,5.9-14.6l-14,4.9L182.2,108.5z"/>
	<path d="M201.4,122.8l-4.5-21.3c-1,2.8-5.2,7.3-8,9.4c0.7,1,1.4,2.1,1.7,3.5c0.3,1.4,0.3,2.8-0.3,3.8   C193.7,118.6,199.3,121,201.4,122.8"/>
	<path d="M235.6,42.6c-0.7,0.7-1.4,1.4-2.1,2.4c-0.3,1-0.3,2.1-0.3,3.1c0,0.7,0.3,1.4,0.7,1.7c0.7,0.7,1.4,1.4,2.4,2.1   c1,0.3,2.1,0.3,3.1,0.3c0.7,0,1.4-0.3,2.1-0.7c0.7-0.7,1.4-1.4,2.1-2.4c0.3-1,0.3-2.1,0.3-3.1c0-0.7-0.3-1.4-0.7-1.7   c-0.7-0.7-1.4-1.4-2.4-2.1c-1-0.3-2.1-0.3-3.1-0.3C237,41.9,236.3,41.9,235.6,42.6"/>
	<path d="M225.1,38.7c-1,0.3-2.1,0.7-2.8,1.4c-0.7,0.7-1,1.7-1.4,2.8V45c0.3,1,0.7,2.1,1.4,2.8c0.7,0.7,1.7,1.4,2.8,1.4h2.1   c1-0.3,2.1-0.7,2.8-1.4c0.7-0.7,1.4-1.7,1.4-2.8v-2.1c-0.3-1-0.7-2.1-1.4-2.8c-0.7-0.7-1.7-1.4-2.8-1.4H225.1"/>
	<path d="M212.6,34.2c-1,0.3-1.7,1-2.4,2.1c-0.7,1-1,2.1-1,3.1c0,0.7,0,1.4,0.3,2.1c0.3,1,1,1.7,2.1,2.4c1,0.7,2.1,0.7,3.1,0.7   c0.7,0,1.4,0,2.1-0.3c1-0.3,1.7-1,2.4-2.1c0.7-1,1-2.1,0.7-3.1c0-0.7-0.3-1.4-0.3-2.1c-0.3-1-1-1.7-2.1-2.4c-1-0.7-2.1-0.7-3.1-0.7   C213.6,33.8,212.9,33.8,212.6,34.2"/>
	<path d="M197.9,33.8c-0.7,0.7-1.4,1.7-1.7,2.8c-0.3,1-0.3,2.1,0,3.1c0.3,0.7,0.7,1.4,1,1.7c0.7,0.7,1.7,1.4,2.8,1.7   c1,0.3,2.1,0.3,3.1,0c0.7-0.3,1.4-0.7,1.7-1c0.7-0.7,1.4-1.4,1.7-2.8c0.3-1,0.3-2.1,0-3.1c-0.3-0.7-0.7-1.4-1-1.7   c-0.7-0.7-1.4-1.4-2.8-1.7c-1-0.3-2.1-0.3-3.1,0C199.3,33.1,198.6,33.5,197.9,33.8"/>
	<path d="M184.7,38c-0.7,0.7-1,1.7-0.7,3.1c0,1,0.3,2.1,1,3.1c0.3,0.7,1,1,1.4,1.4c0.7,0.7,1.7,0.7,3.1,0.7c1,0,2.1-0.3,3.1-1   c0.7-0.3,1-1,1.4-1.4c0.7-0.7,0.7-1.7,0.7-3.1c0-1-0.3-2.1-1-2.8c-0.3-0.7-1-1-1.4-1.4c-0.7-0.7-1.7-1-3.1-1c-1,0-2.1,0.3-2.8,1   C185.7,36.6,185,37.3,184.7,38"/>
	<path d="M172.1,46.7c-0.3,1,0,2.1,0.3,3.1c0.3,1,1,1.7,2.1,2.4c0.7,0.3,1.4,0.7,2.1,0.7c1,0.3,2.1,0,3.1-0.3c1-0.3,1.7-1,2.4-2.1   c0.3-0.7,0.7-1.4,0.7-2.1c0.3-1,0-2.1-0.3-3.1s-1-1.7-2.1-2.4c-0.7-0.3-1.4-0.7-2.1-0.7c-1-0.3-2.1,0-3.1,0.3c-1,0.3-1.7,1-2.4,2.1   C172.5,45.3,172.1,46,172.1,46.7"/>
	<path d="M164.1,58.9c0,1,0.7,2.1,1.4,2.8c0.7,0.7,1.7,1.4,2.8,1.4h2.1c1-0.3,2.1-0.7,2.8-1.4c0.7-0.7,1.4-1.7,1.4-2.8v-2.1   c-0.3-1-0.7-2.1-1.4-2.8c-0.7-0.7-1.7-1.4-2.8-1.4h-2.1c-1,0-2.1,0.7-2.8,1.4c-0.7,0.7-1.4,1.7-1.4,2.8V58.9"/>
	<path d="M161.3,72.9c0.7,0.7,1.4,1.7,2.4,2.1c1,0.3,2.1,0.7,3.1,0.3c0.7,0,1.4-0.3,2.1-0.7c0.7-0.7,1.7-1.4,2.1-2.4   s0.7-2.1,0.3-3.1c0-0.7-0.3-1.4-0.7-2.1c-0.7-1-1.4-1.7-2.4-2.1c-1-0.3-2.1-0.7-3.1-0.3c-0.7,0-1.4,0.3-2.1,0.7   c-1,0.7-1.7,1.4-2.1,2.4c-0.3,1-0.7,2.1-0.3,3.1C160.9,71.8,160.9,72.5,161.3,72.9"/>
	<path d="M164.5,87.2c0.7,0.7,1.7,1,2.8,1c1,0,2.1-0.3,3.1-0.7c0.7-0.3,1-0.7,1.4-1.4c0.7-0.7,1-1.7,1-2.8s-0.3-2.1-0.7-3.1   c-0.3-0.7-0.7-1-1.4-1.4c-0.7-0.7-1.7-1-2.8-1c-1,0-2.1,0.3-3.1,0.7c-0.7,0.3-1,0.7-1.4,1.4c-0.7,0.7-1,1.7-1,2.8s0.3,2.1,0.7,3.1   C163.4,86.5,163.8,86.8,164.5,87.2"/>
	<path d="M168.6,99.4c0.7,0.7,1.7,1,3.1,1c1,0,2.1-0.3,3.1-1c0.7-0.3,1-1,1.4-1.4c0.7-0.7,1-1.7,1-3.1c0-1-0.3-2.1-1-3.1   c-0.3-0.7-1-1-1.4-1.4c-0.7-0.7-1.7-1-3.1-1c-1,0-2.1,0.3-3.1,1c-0.7,0.3-1,1-1.4,1.4c-0.7,0.7-1,1.7-1,3.1c0,1,0.3,2.1,1,3.1   C167.6,98.4,167.9,99.1,168.6,99.4"/>
	<path d="M331.9,120c-0.7,0.7-1.7,1-3.1,1c-1,0-2.1-0.3-3.1-1c-0.7-0.3-1-1-1.4-1.4c-0.7-0.7-1-1.7-1-3.1c0-1,0.3-2.1,1-3.1   c0.3-0.7,1-1,1.4-1.4c0.7-0.7,1.7-1,3.1-1c1,0,2.1,0.3,3.1,1c0.7,0.3,1,1,1.4,1.4c0.7,0.7,1,1.7,1,3.1c0,1-0.3,2.1-1,3.1   C332.9,119.3,332.5,119.6,331.9,120"/>
	<path d="M331.5,95.9c2.8-8.7,13.6-28.6-2.4-42.5c-5.2-4.5-12.9-7.3-19.2-7.3c-4.5,0-10.8,1.4-16.7,3.5c-10.5,3.5-17.1,5.6-29.3,5.6   v5.6c13.3,0,20.2-2.1,31-5.9c4.9-1.7,10.8-3.1,15-3.1c4.9,0,11.5,2.1,15.7,5.9c10.1,8.7,6.6,20.6,2.1,32.4c-0.7,1.4-1,2.8-1.4,4.2   L331.5,95.9z"/>
	<path d="M330.5,108.5h-1.4c-1,0-1.7,0.3-2.8,0.3c-1-3.8-4.2-11.2-5.9-14.6l14,4.9L330.5,108.5z"/>
	<path d="M310.9,122.8l4.5-21.3c1,2.8,5.2,7.3,8,9.4c-0.7,1-1.4,2.1-1.7,3.5c-0.3,1.4-0.3,2.8,0.3,3.8   C318.6,118.6,313.4,121,310.9,122.8"/>
	<path d="M277.1,42.6c0.7,0.7,1.4,1.4,2.1,2.4c0.3,1,0.3,2.1,0.3,3.1c0,0.7-0.3,1.4-0.7,1.7c-0.7,0.7-1.4,1.4-2.4,2.1   c-1,0.3-2.1,0.3-3.1,0.3c-0.7,0-1.4-0.3-1.7-0.7c-0.7-0.7-1.4-1.4-2.1-2.4c-0.3-1-0.3-2.1-0.3-3.1c0-0.7,0.3-1.4,0.7-1.7   c0.7-0.7,1.4-1.4,2.4-2.1c1-0.3,2.1-0.3,3.1-0.3C275.7,41.9,276.4,41.9,277.1,42.6"/>
	<path d="M287.2,38.7c1,0.3,2.1,0.7,2.8,1.4c0.7,0.7,1.4,1.7,1.4,2.8V45c-0.3,1-0.7,2.1-1.4,2.8c-0.7,0.7-1.7,1.4-2.8,1.4h-2.1   c-1-0.3-2.1-0.7-2.8-1.4c-0.7-0.7-1.4-1.7-1.4-2.8v-2.1c0.3-1,0.7-2.1,1.4-2.8c0.7-0.7,1.7-1.4,2.8-1.4H287.2"/>
	<path d="M300.1,34.2c1,0.3,1.7,1,2.4,2.1c0.7,1,0.7,2.1,0.7,3.1c0,0.7,0,1.4-0.3,2.1c-0.3,1-1,1.7-2.1,2.4c-1,0.7-2.1,0.7-3.1,0.7   c-0.7,0-1.4,0-2.1-0.3c-1-0.3-1.7-1-2.4-2.1c-0.3-1-0.3-2.1-0.3-3.1c0-0.7,0-1.4,0.3-2.1c0.3-1,1-1.7,2.1-2.4   c1-0.7,2.1-0.7,3.1-0.7C298.7,33.8,299.4,33.8,300.1,34.2"/>
	<path d="M314.4,33.8c0.7,0.7,1.4,1.7,1.7,2.8c0.3,1,0.3,2.1,0,3.1c-0.3,0.7-0.7,1.4-1,1.7c-0.7,0.7-1.4,1.4-2.8,1.7   c-1,0.3-2.1,0.3-3.1,0c-0.7-0.3-1.4-0.7-1.7-1c-0.7-0.7-1.4-1.4-1.7-2.8c-0.3-1-0.3-2.1,0-3.1c0.3-0.7,0.7-1.4,1-1.7   c0.7-0.7,1.7-1.4,2.8-1.7s2.1-0.3,3.1,0C313.4,33.1,314.1,33.5,314.4,33.8"/>
	<path d="M328,38c0.7,0.7,0.7,1.7,0.7,3.1c0,1-0.3,2.1-1,3.1c-0.3,0.7-1,1-1.4,1.4c-0.7,0.7-1.7,0.7-3.1,0.7c-1,0-2.1-0.3-2.8-1   c-0.7-0.3-1-1-1.4-1.4c-0.7-0.7-1-1.7-0.7-3.1c0-1,0.3-2.1,1-2.8c0.3-0.7,1-1,1.4-1.4c0.7-0.7,1.7-1,3.1-1c1,0,2.1,0.3,3.1,1   C327,36.6,327.7,37.3,328,38"/>
	<path d="M340.6,46.7c0.3,1,0,2.1-0.3,3.1c-0.3,1-1,1.7-2.1,2.4c-0.7,0.3-1,0.7-1.7,0.7c-1,0.3-2.1,0-3.1-0.3c-1-0.3-1.7-1-2.4-2.1   c-0.3-0.7-0.7-1.4-0.7-2.1c-0.3-1,0-2.1,0.3-3.1s1-1.7,2.1-2.4c0.7-0.3,1.4-0.7,1.7-0.7c1-0.3,2.1,0,3.1,0.3s1.7,1,2.4,2.1   C340.2,45.3,340.2,46,340.6,46.7"/>
	<path d="M348.6,58.9c-0.3,1-0.7,2.1-1.4,2.8c-0.7,0.7-1.7,1.4-2.8,1.4h-2.1c-1-0.3-2.1-0.7-2.8-1.4c-0.7-0.7-1.4-1.7-1.4-2.8   c0-0.7-0.3-1.4,0-2.1c0.3-1,0.7-2.1,1.4-2.8c0.7-0.7,1.7-1.4,2.8-1.4h2.1c1,0,2.1,0.7,2.8,1.4c0.7,0.7,1.4,1.7,1.4,2.8V58.9"/>
	<path d="M351,72.9c-0.7,0.7-1.4,1.7-2.4,2.1c-1,0.3-2.1,0.7-3.1,0.3c-0.7,0-1.4-0.3-2.1-0.7c-0.7-0.7-1.7-1.4-2.1-2.4   s-0.7-2.1-0.3-3.1c0-0.7,0.3-1.4,0.7-2.1c0.7-1,1.4-1.7,2.4-2.1c1-0.3,2.1-0.7,3.1-0.3c0.7,0,1.4,0.3,2.1,0.7   c0.7,0.7,1.7,1.4,2.1,2.4s0.7,2.1,0.3,3.1C351.7,71.8,351.4,72.5,351,72.9"/>
	<path d="M348.2,87.2c-0.7,0.7-1.7,1-2.8,1s-2.1-0.3-3.1-0.7c-0.7-0.3-1-0.7-1.4-1.4c-0.7-0.7-1-1.7-1-2.8s0.3-2.1,0.7-3.1   c0.3-0.7,0.7-1,1.4-1.4c0.7-0.7,1.7-1,2.8-1c1,0,2.1,0.3,3.1,0.7c0.7,0.3,1,0.7,1.4,1.4c0.7,0.7,1,1.7,1,2.8s-0.3,2.1-0.7,3.1   C349.3,86.5,348.9,86.8,348.2,87.2"/>
	<path d="M344.1,99.4c-0.7,0.7-1.7,1-3.1,1c-1,0-2.1-0.3-3.1-1c-0.7-0.3-1-1-1.4-1.4c-0.7-0.7-1-1.7-1-3.1c0-1,0.3-2.1,1-3.1   c0.3-0.7,1-1,1.4-1.4c0.7-0.7,1.7-1,3.1-1c1,0,2.1,0.3,3.1,1c0.7,0.3,1,1,1.4,1.4c0.7,0.7,1,1.7,1,3.1c0,1-0.3,2.1-1,3.1   C345.1,98.4,344.4,99.1,344.1,99.4"/>
</g>
</svg>
