<svg id="Capa_1" enable-background="new 0 0 512 512" height="512" viewBox="0 0 512 512" width="512" xmlns="http://www.w3.org/2000/svg"><g><path d="m482.811 337.041v-27.529c0-25.671-20.885-46.555-46.555-46.555h-178.298c-4.15 0-7.515 3.364-7.515 7.515s3.365 7.515 7.515 7.515h178.298c17.384 0 31.526 14.142 31.526 31.526v27.529c-16.647 3.477-29.19 18.264-29.19 35.927v27.909h-240.107v-27.909c0-17.664-12.543-32.45-29.189-35.927v-27.529c0-17.384 14.143-31.526 31.526-31.526h27.078c4.15 0 7.515-3.364 7.515-7.515s-3.365-7.515-7.515-7.515h-27.078c-25.671 0-46.555 20.885-46.555 46.555v27.529c-16.646 3.477-29.19 18.264-29.19 35.927v107.027c0 4.151 3.364 7.515 7.515 7.515h231.782c4.151 0 7.515-3.364 7.515-7.515s-3.364-7.515-7.515-7.515h-165.889v-56.574h240.107v56.574h-44.16c-4.151 0-7.515 3.364-7.515 7.515s3.364 7.515 7.515 7.515h110.054c4.151 0 7.515-3.364 7.515-7.515v-107.026c-.001-17.664-12.544-32.45-29.19-35.928zm-342.705 35.928c0-11.951 9.723-21.674 21.675-21.674s21.675 9.723 21.675 21.674v99.512h-43.35zm356.865 99.512h-43.35v-99.512c0-11.951 9.723-21.674 21.675-21.674 11.951 0 21.674 9.723 21.674 21.674v99.512z"/><path d="m191.48 209.331c.367 3.788 3.668 6.781 7.478 6.781h239.161c4.087 0 7.515-3.427 7.515-7.515v-176.593c0-4.088-3.427-7.515-7.515-7.515h-43.687c-4.151 0-7.515 3.364-7.515 7.515s3.364 7.515 7.515 7.515h25.545l-13.912 13.912h-175.054l-13.912-13.912h147.273c4.151 0 7.515-3.364 7.515-7.515s-3.364-7.515-7.515-7.515h-165.415c-4.091 0-7.515 3.432-7.515 7.515v176.593c.001.242.014.493.038.734zm25.619-8.248 13.912-13.913h175.053l13.912 13.913zm184.564-28.943h-68.276l-12.527-13.914 40.626-45.126c2.415-2.685 6.711-2.646 9.117.026l31.06 34.168zm-88.5 0h-77.749v-5.481l32.887-36.53c1.86-2.066 5.181-2.067 7.04 0zm117.441-121.993v140.307l-13.912-13.912v-112.483zm-28.941 74.804-19.914-21.907c-8.275-9.191-23.158-9.191-31.433 0l-39.568 43.95-24.237-26.921c-3.742-4.157-9.096-6.541-14.689-6.541-5.557 0-10.973 2.412-14.691 6.541l-21.717 24.123v-75.736h166.249zm-181.279-60.892v112.484l-13.912 13.912v-140.308z"/><path d="m84.693 445.403h-7.373v-260.079h19.302v85.027c0 4.151 3.365 7.515 7.515 7.515s7.515-3.364 7.515-7.515v-85.027h20.447c4.749 0 8.385-4.557 7.326-9.19l-26.352-115.267c-.781-3.417-3.821-5.84-7.326-5.84h-71.884c-3.505 0-6.545 2.423-7.326 5.84l-26.352 115.267c-1.059 4.633 2.577 9.19 7.326 9.19h54.78v260.078h-7.373c-18.453 0-33.465 15.012-33.465 33.464v1.129c0 4.151 3.365 7.515 7.515 7.515h81.675c4.15 0 7.515-3.364 7.515-7.515v-1.129c-.001-18.451-15.013-33.463-33.465-33.463zm-44.839-375.346h59.903l22.916 100.238h-105.736zm-2.232 402.424c2.603-7.027 9.373-12.049 17.295-12.049h29.775c7.922 0 14.692 5.021 17.295 12.049z"/><path d="m310.748 119.104c11.702 0 21.221-9.52 21.221-21.221 0-11.702-9.52-21.221-21.221-21.221-11.702 0-21.221 9.52-21.221 21.221s9.519 21.221 21.221 21.221zm0-27.413c3.414 0 6.192 2.778 6.192 6.192s-2.778 6.192-6.192 6.192-6.192-2.778-6.192-6.192c0-3.415 2.778-6.192 6.192-6.192z"/></g></svg>