<svg height="512" viewBox="0 0 48 48" width="512" xmlns="http://www.w3.org/2000/svg"><g id="accounting"><path d="m38 17a1 1 0 0 1 1 1 1 1 0 0 0 1 1c1.66 0 1.21-3-1-3.82a1 1 0 1 0 -2 0 3 3 0 0 0 1 5.82 1 1 0 1 1 -1 1 1 1 0 0 0 -1-1c-1.66 0-1.21 3 1 3.82a1 1 0 1 0 2 0 3 3 0 0 0 -1-5.82 1 1 0 0 1 0-2z"/><path d="m22 12h-8v-4.28c4.17 1.28 7.81-1.35 8.19-5.79a1 1 0 0 0 -.51-1c-3.43-1.89-7-.9-8.68 2-1.68-2.82-5.21-3.87-8.68-1.93a1 1 0 0 0 -.51 1c.38 4.37 4.02 7 8.19 5.72v4.28h-8a4 4 0 0 0 -4 4v28a4 4 0 0 0 4 4h18a4 4 0 0 0 4-4v-28a4 4 0 0 0 -4-4zm-1.89-9.57a4.15 4.15 0 0 1 -6 3.2 4.14 4.14 0 0 1 6-3.2zm-14.22 0a4.14 4.14 0 0 1 6 3.2 4.15 4.15 0 0 1 -6-3.2zm18.11 41.57a2 2 0 0 1 -2 2h-18a2 2 0 0 1 -2-2v-28a2 2 0 0 1 2-2h18a2 2 0 0 1 2 2z"/><path d="m21 16h-16a1 1 0 0 0 -1 1v6a1 1 0 0 0 1 1h16a1 1 0 0 0 1-1v-6a1 1 0 0 0 -1-1zm-1 6h-14v-4h14z"/><path d="m45 28h-1a10 10 0 1 0 -12 0h-1a3 3 0 0 0 -3 3c0 1.91-.19 2.93.78 4a3 3 0 0 0 -.78 2c0 1.91-.19 2.93.78 4-1 1.09-.78 2.13-.78 4a3 3 0 0 0 3 3h14a3 3 0 0 0 3-3c0-1.91.19-2.93-.78-4a3 3 0 0 0 .78-2c0-1.91.19-2.93-.78-4 1-1.09.78-2.13.78-4a3 3 0 0 0 -3-3zm-15-8a8 8 0 1 1 8 8 8 8 0 0 1 -8-8zm0 11a1 1 0 0 1 1-1h14a1 1 0 0 1 1 1v2a1 1 0 0 1 -1 1h-14a1 1 0 0 1 -1-1zm16 6v2a1 1 0 0 1 -1 1h-14a1 1 0 0 1 -1-1v-2a1 1 0 0 1 1-1h14a1 1 0 0 1 1 1zm0 8a1 1 0 0 1 -1 1h-14a1 1 0 0 1 -1-1v-2a1 1 0 0 1 1-1h14a1 1 0 0 1 1 1z"/><path d="m11 26h-6a1 1 0 0 0 -1 1v6a1 1 0 0 0 1 1h6a1 1 0 0 0 1-1v-6a1 1 0 0 0 -1-1zm-1 6h-4v-4h4z"/><path d="m11 36h-6a1 1 0 0 0 -1 1v6a1 1 0 0 0 1 1h6a1 1 0 0 0 1-1v-6a1 1 0 0 0 -1-1zm-1 6h-4v-4h4z"/><path d="m21 26h-6a1 1 0 0 0 -1 1v6a1 1 0 0 0 1 1h6a1 1 0 0 0 1-1v-6a1 1 0 0 0 -1-1zm-1 6h-4v-4h4z"/><path d="m21 36h-6a1 1 0 0 0 -1 1v6a1 1 0 0 0 1 1h6a1 1 0 0 0 1-1v-6a1 1 0 0 0 -1-1zm-1 6h-4v-4h4z"/></g></svg>