<svg id="Layer_1" enable-background="new 0 0 64 64" height="512" viewBox="0 0 64 64" width="512" xmlns="http://www.w3.org/2000/svg"><g><path d="m19 58c-.552 0-1 .447-1 1v4c0 .553.448 1 1 1s1-.447 1-1v-4c0-.553-.448-1-1-1z"/><path d="m47 58c-.552 0-1 .447-1 1v4c0 .553.448 1 1 1s1-.447 1-1v-4c0-.553-.448-1-1-1z"/><path d="m21.42 40.695c-1.821 1.297-3.075 2.545-3.127 2.598-.391.391-.39 1.023 0 1.414.195.195.451.293.707.293s.512-.098.707-.293c.012-.012 1.195-1.188 2.873-2.383.45-.32.555-.945.234-1.395-.32-.45-.945-.554-1.394-.234z"/><path d="m47 45c.256 0 .512-.098.707-.293.39-.391.391-1.023 0-1.414-.052-.053-1.306-1.301-3.127-2.598-.45-.32-1.075-.216-1.395.234-.32.449-.215 1.074.234 1.395 1.678 1.195 2.861 2.371 2.873 2.383.196.195.452.293.708.293z"/><path d="m49.834 39.055-6.955-1.855-.81-4.817c.39-.416.76-.852 1.102-1.307.457-.607.498-1.411.173-2.076.761-1.321 1.262-2.697 1.496-4.114 2.194-.584 3.16-3.378 3.16-4.886 0-1.299-.508-1.957-1-2.291v-2.709c0-3.71 0-15-14-15s-14 11.29-14 15v2.709c-.492.334-1 .992-1 2.291 0 1.509.967 4.303 3.161 4.885.235 1.412.738 2.783 1.501 4.099-.343.676-.303 1.497.168 2.113.347.454.718.878 1.1 1.281l-.809 4.82-6.955 1.855c-4.228 1.129-9.166 4.933-9.166 11.947v12c0 .553.448 1 1 1s1-.447 1-1v-12c0-5.88 4.138-9.068 7.681-10.014l7.178-1.914c.526.295 1.56.847 2.859 1.397-1.109 2.013-1.662 4.182-1.689 4.289-.134.535.192 1.078.728 1.212.082.02.163.03.244.03.448 0 .855-.303.969-.758.006-.024.565-2.221 1.643-4.061.452.149.915.286 1.386.404v21.415c0 .553.448 1 1 1s1-.447 1-1v-21.057c.337.033.672.057 1.001.057s.664-.024 1-.057v21.057c0 .553.448 1 1 1s1-.447 1-1v-21.415c.471-.118.934-.254 1.386-.404 1.075 1.836 1.638 4.038 1.644 4.062.114.454.522.757.97.757.08 0 .162-.01.244-.03.535-.134.861-.677.727-1.212-.027-.108-.58-2.277-1.689-4.289 1.3-.55 2.334-1.102 2.859-1.397l7.178 1.914c3.543.946 7.681 4.134 7.681 10.014v12c0 .553.448 1 1 1s1-.447 1-1v-12c0-7.014-4.938-10.818-9.166-11.945zm-15.834.876v-3.005c2.063-.271 4.328-1.335 6.314-2.921l.583 3.467c-1.232.665-4.204 2.136-6.897 2.459zm-8.897-2.459.588-3.501c2.122 1.674 4.435 2.675 6.309 2.945v3.015c-2.693-.323-5.666-1.794-6.897-2.459zm-.397-23.657c1.672-1.868 4.463-2.815 8.294-2.815 3.817 0 6.601.94 8.276 2.796 1.646 1.823 1.756 4.075 1.742 4.83l-3.421 4.277c-1.41-.268-4.924-.903-6.597-.903-2.404 0-5.346.598-6.613.883l-3.407-4.259c-.018-.752.082-2.972 1.726-4.809zm8.294 21.185c-2.294 0-6.131-1.914-8.582-5.117.077-.103.151-.21.225-.317.006-.008.011-.015.017-.023 1.135-1.651 1.842-3.704 2.142-4.703 1.177-.264 3.997-.84 6.198-.84 1.486 0 4.841.606 6.205.865.306 1.012 1.014 3.054 2.145 4.692.006.009.012.017.018.025.068.098.135.196.206.29-2.236 2.972-5.842 5.128-8.574 5.128zm8.102-10.776 1.898-2.373v1.149c0 1.348-.296 2.664-.856 3.935-.515-1.068-.867-2.126-1.042-2.711zm-18.102-1.224v-1.149l1.898 2.373c-.174.584-.523 1.637-1.038 2.703-.562-1.269-.86-2.582-.86-3.927zm22-.502v-2.92c.488-.241.802-.253.872-.218.02.01.128.173.128.64 0 .708-.374 1.847-1 2.498zm-12-20.498c10.636 0 12 6.947 12 13v2.448c-.014.004-.028.006-.042.01-.152-1.34-.651-3.274-2.173-4.975-2.069-2.311-5.361-3.483-9.785-3.483s-7.716 1.172-9.784 3.482c-1.523 1.702-2.022 3.636-2.173 4.976-.014-.004-.028-.006-.042-.01v-2.448c-.001-6.053 1.363-13 11.999-13zm-12.872 17.359c.07-.035.384-.023.872.218v2.92c-.626-.651-1-1.79-1-2.498 0-.466.108-.629.128-.64z"/><path d="m7 31c0 2.206 1.794 4 4 4s4-1.794 4-4v-18h1c.552 0 1-.447 1-1s-.448-1-1-1h-2-6-2c-.552 0-1 .447-1 1s.448 1 1 1h1zm6-18v2h-1c-.552 0-1 .447-1 1s.448 1 1 1h1v2h-1c-.552 0-1 .447-1 1s.448 1 1 1h1v2h-1c-.552 0-1 .447-1 1s.448 1 1 1h1v2h-1c-.552 0-1 .447-1 1s.448 1 1 1h1v2c0 1.103-.897 2-2 2s-2-.897-2-2v-18z"/></g></svg>