<?xml version="1.0"?>
<svg xmlns="http://www.w3.org/2000/svg" viewBox="0 0 48 48" width="512" height="512"><g id="THR_money_in_envelope_" data-name="THR (money in envelope)"><path d="M48,22.85c-.09-.59-.11-.47-4.13-3.1C47.44,6.34,47.36,7.12,47.07,6.61S47.3,6.37,36,3.34V1a1,1,0,0,0-1-1H13a1,1,0,0,0-1,1V3.34L1.54,6.14A1,1,0,0,0,.83,7.37L4.15,19.75c-3.94,2.57-4,2.49-4.12,3C0,23,0,21.89,0,44a4,4,0,0,0,4,4H44a4,4,0,0,0,4-4C48,21.24,48,23.05,48,22.85ZM34.05,32.64l12-7.79c0,20.91,0,19.26-.07,19.66ZM45.17,23l-2.66,1.73.79-2.95ZM45,7.82c-.52,1.94,1.87-7-5,18.55L36,29V9.55l2.31.62a3.07,3.07,0,0,0,1.29,2.24l-1.34,5a1,1,0,0,0,1.94.52l1.55-5.79A1,1,0,0,0,41,10.91a1,1,0,0,1-.7-1.23,1,1,0,0,0-.71-1.23L36,7.48V5.41ZM34,2V30.28L24,36.81,14,30.28V2ZM2.07,44.51C2,44.11,2,45.73,2,24.85l12,7.79ZM12,5.41V7.48l-3.63,1a1,1,0,0,0-.71,1.23A1,1,0,0,1,7,10.91a1,1,0,0,0-.71,1.22L7.8,17.92a1,1,0,0,0,1.94-.52l-1.34-5a3.07,3.07,0,0,0,1.29-2.24L12,9.55V29L8,26.37C7.24,23.55,3.78,10.64,3,7.82ZM5.49,24.73,2.83,23,4.7,21.78Zm-2,21.2L15.66,33.75c8.08,5.28,8.11,5.6,8.89,5.09l7.79-5.09L44.51,45.93C44,46.06,3.9,46,3.49,45.93Z"/><path d="M18,13V7.83A3,3,0,0,0,19.83,6h8.34A3,3,0,0,0,30,7.83V13a1,1,0,0,0,2,0V7a1,1,0,0,0-1-1,1,1,0,0,1-1-1,1,1,0,0,0-1-1H19a1,1,0,0,0-1,1,1,1,0,0,1-1,1,1,1,0,0,0-1,1v6A1,1,0,0,0,18,13Z"/><path d="M24,30a8,8,0,1,0-8-8A8,8,0,0,0,24,30Zm0-14a6,6,0,1,1-6,6A6,6,0,0,1,24,16Z"/><path d="M23.62,9.08A1,1,0,1,0,25,10,1,1,0,0,0,23.62,9.08Z"/></g></svg>
