<svg id="Layer_1" enable-background="new 0 0 64 64" height="512" viewBox="0 0 64 64" width="512" xmlns="http://www.w3.org/2000/svg"><g><path d="m48.794 36.044-4.185-.933-1.777-2.666c-.155-.233-.401-.391-.679-.434-.277-.043-.56.032-.778.208l-.033.027-.523-2.094c1.483-1.747 2.602-3.882 3.005-6.263 2.204-.573 3.176-3.377 3.176-4.889 0-1.299-.508-1.957-1-2.291v-2.709c0-8.636-5.364-14-14-14-3.91 0-5.493 1.106-8.424 4.011-5.576.301-5.576 6.579-5.576 9.989v2.709c-.492.334-1 .992-1 2.291 0 1.51.97 4.31 3.17 4.888.398 2.443 1.534 4.555 3.011 6.265l-.524 2.092-.032-.025c-.219-.175-.503-.25-.778-.208-.277.043-.523.2-.679.434l-1.777 2.666-4.225.943c-4.808 1.281-8.166 5.652-8.166 10.628v16.317c0 .552.447 1 1 1s1-.448 1-1v-16.317c0-3.506 2.041-6.641 5.095-8.108l-.989 1.978c-.169.339-.133.744.095 1.047l2.046 2.728-2.078 3.117c-.298.447-.189 1.051.246 1.365l17.585 12.701v1.489c0 .552.447 1 1 1s1-.448 1-1v-1.489l17.586-12.701c.436-.314.544-.918.246-1.365l-2.078-3.117 2.046-2.728c.228-.303.264-.708.095-1.047l-.985-1.969c3.062 1.48 5.09 4.605 5.09 8.099v16.317c0 .552.447 1 1 1s1-.448 1-1v-16.317c0-4.976-3.358-9.347-8.206-10.639zm-16.794 6.237 1.244.995-.862 1.724h-.764l-.862-1.724zm-.111 4.719h.222l1.328 11.289c-.463.523-.944.998-1.439 1.424-.496-.426-.976-.901-1.439-1.424zm-2.73-2.446.813 1.626-1.156 9.824c-3.168-4.711-5.398-11.239-6.649-15.589l4.044 5.199c.164.211.406.348.672.379.039.005.078.007.117.007.226 0 .446-.077.625-.219zm4.869 1.626.813-1.626 1.534 1.227c.179.142.399.219.625.219.039 0 .078-.002.117-.007.266-.031.508-.168.672-.379l4.045-5.201c-1.25 4.35-3.48 10.88-6.65 15.592zm8.741-10.225-5.936 7.631-3.232-2.586 8.173-6.538zm-2.538-18.955c-.633-.302-2.206-1-3.231-1-2.438 0-3.745.606-4.338 1h-1.324c-.593-.394-1.9-1-4.338-1-1.025 0-2.597.698-3.231 1h-.299c.955-1.11 1.993-2.672 2.376-4.525 1.826.588 4.439.77 7.169.96 2.876.201 6.455.45 7.277 1.272.398.398.876 1.369 1.26 2.293zm-1.464 1.538-.259.778c-.137.409-.519.684-.949.684h-2.838l-.516-1.548c.494-.207 1.37-.452 2.795-.452.361 0 1.104.259 1.767.538zm-8.97-.089-.518 1.551h-2.838c-.431 0-.812-.275-.949-.684l-.26-.779c.663-.278 1.405-.537 1.768-.537 1.429 0 2.308.247 2.797.449zm14.203 3.049v-2.921c.487-.242.8-.256.872-.218.02.011.128.175.128.641 0 .708-.374 1.846-1 2.498zm-20-15.498c.266 0 .52-.105.707-.293 3.005-3.004 4.038-3.707 7.293-3.707 7.514 0 12 4.486 12 12v2.452c-.15.038-.3.075-.455.134-.414-1.047-1.097-2.553-1.838-3.293-1.351-1.351-4.688-1.583-8.553-1.853-2.979-.208-6.356-.443-7.6-1.272-.306-.205-.701-.224-1.026-.05s-.528.513-.528.882c0 2.653-2.12 4.885-3.107 5.781-.307-.154-.603-.254-.893-.327v-2.454c0-4.216.306-8 4-8zm-4.872 12.359c.07-.037.383-.024.872.218v2.92c-.626-.651-1-1.79-1-2.498 0-.465.108-.629.128-.64zm2.872.641h1.279l.316.949c.41 1.227 1.553 2.051 2.846 2.051h2.838c.862 0 1.625-.55 1.896-1.367l.545-1.633h.559l.544 1.632c.273.818 1.035 1.368 1.898 1.368h2.838c1.293 0 2.437-.824 2.846-2.052l.316-.948h1.279v3c0 5.735-5.716 11-10 11-3.423 0-10-4.645-10-11zm2.832 12.793c2.407 2.052 5.21 3.207 7.168 3.207 2.17 0 4.876-1.19 7.172-3.187l.452 1.807-7.624 6.099-7.624-6.1zm-2.605 2.669 8.172 6.538-3.232 2.586-5.936-7.631zm-3.395 8.093c.307-.459.183-1.081-.277-1.387-.462-.308-1.081-.182-1.387.277l-.746 1.118-1.251-1.669 1.571-3.143 2.502-.558c.69 2.936 2.969 11.698 6.931 18.366l-10.809-7.806zm28.746.009-.746-1.118c-.307-.459-.927-.585-1.387-.277-.46.306-.584.927-.277 1.387l3.466 5.199-10.809 7.805c3.961-6.667 6.24-15.429 6.931-18.367l2.501.557 1.572 3.144z"/><path d="m46 56c-.553 0-1 .448-1 1v6c0 .552.447 1 1 1s1-.448 1-1v-6c0-.552-.447-1-1-1z"/><path d="m18 56c-.553 0-1 .448-1 1v6c0 .552.447 1 1 1s1-.448 1-1v-6c0-.552-.447-1-1-1z"/><path d="m42 60h-4c-.553 0-1 .448-1 1s.447 1 1 1h4c.553 0 1-.448 1-1s-.447-1-1-1z"/></g></svg>