<svg id="Layer_1" enable-background="new 0 0 64 64" height="512" viewBox="0 0 64 64" width="512" xmlns="http://www.w3.org/2000/svg"><g><path d="m48.794 36.045-4.184-.933-1.778-2.667c-.15-.226-.386-.38-.651-.429-.271-.05-.542.013-.762.169l-.077.055c-.124-.498-.293-1.174-.523-2.09 1.483-1.747 2.601-3.882 3.004-6.262 2.205-.572 3.177-3.376 3.177-4.888 0-1.299-.508-1.957-1-2.291v-2.709c0-7.72-6.28-14-14-14s-14 6.28-14 14v2.709c-.492.334-1 .992-1 2.291 0 1.51.97 4.31 3.17 4.888.398 2.443 1.533 4.554 3.01 6.264-.231.916-.399 1.591-.523 2.089l-.076-.054c-.221-.157-.491-.22-.762-.169-.266.049-.501.203-.651.429l-1.778 2.667-4.224.943c-4.808 1.279-8.166 5.649-8.166 10.626v16.317c0 .553.447 1 1 1s1-.447 1-1v-3.386c2.396-.635 3.65-1.85 3.707-1.907.389-.389.388-1.015.003-1.406-.385-.389-1.017-.396-1.411-.014-.009.009-.794.739-2.299 1.242v-5.117c.64.18 1.195.271 1.655.27 1.278 0 1.92-.596 2.239-1.234.074-.149.126-.187.125-.187.087-.032.401.026.59.061.816.149 2.519.46 3.339-2.005.135-.403.544-1.631-.181-2.562-.79-1.018-2.25-.912-3.659-.81-.38.027-.759.055-1.108.055-.327 0-.933-.22-1.467-.413-.465-.169-.938-.339-1.4-.441.591-3.409 3.113-6.244 6.508-7.15l3.777-.842 3.668 8.252c.146.328.456.553.813.589.034.003.068.005.101.005.321 0 .625-.154.813-.419l4.035-5.648 2.152 4.303v18.764c0 .553.447 1 1 1s1-.447 1-1v-10.378c.767-.04 1.504-.067 2.199-.067 3.969 0 4.439-2.091 4.489-2.731.133-1.716-1.519-3.497-3.534-3.812-.674-.107-1.221.299-1.748.688s-.958.661-1.406.743v-3.206l2.152-4.304 4.035 5.648c.188.265.492.419.813.419.033 0 .067-.002.101-.005.357-.036.668-.261.813-.589l3.668-8.253 3.737.833c3.799 1.013 6.483 4.384 6.664 8.28-.103.053-.199.108-.289.162-.44.262-.989.587-2.539.587-2.781 0-3.178 1.587-3.415 2.535-.083.333-.154.62-.292.758-.622.621-.447 1.205-.343 1.428.255.546.704.72 1.596.72.536 0 1.231-.062 2.141-.145.904-.081 1.981-.177 3.159-.237v4.807c-.852.262-1.27-.02-1.318-.058-.394-.365-1.007-.357-1.389.025-.391.391-.391 1.023 0 1.414.347.347 1.054.734 2.036.734.21 0 .437-.026.671-.066v4.07c0 .553.447 1 1 1s1-.447 1-1v-16.317c-.001-4.977-3.359-9.347-8.207-10.638zm-36.794 11.955c.394 0 .822-.03 1.253-.061.596-.045 1.707-.125 1.921.017 0 .001.06.182-.122.728-.274.818-.336.809-1.084.67-.674-.122-2.074-.377-2.862 1.199-.077.155-.712.269-2.105-.231v-3.145c.292.088.611.204.852.291.721.261 1.468.532 2.147.532zm32-26.502v-2.921c.486-.242.799-.256.872-.217.02.01.128.174.128.64 0 .708-.374 1.846-1 2.498zm-12-19.498c6.617 0 12 5.383 12 12v2.448c-.194.049-.391.111-.594.196-.477-.826-.939-1.471-1.331-2.016-1.136-1.582-1.706-2.376-1.095-5.432.065-.328-.037-.667-.273-.903l-1-1c-.268-.268-.664-.362-1.023-.242-.029.01-2.89.949-6.684.949-3.773 0-6.656-.939-6.685-.949-.362-.119-.756-.024-1.022.242l-1 1c-.236.236-.339.575-.273.903.611 3.056.041 3.85-1.095 5.432-.391.545-.854 1.19-1.331 2.016-.203-.086-.4-.147-.594-.197v-2.447c0-6.617 5.383-12 12-12zm-12.872 16.359c.07-.037.383-.024.872.218v2.92c-.626-.651-1-1.79-1-2.498 0-.465.108-.629.128-.64zm2.872-.108c.536-1.034 1.073-1.792 1.55-2.456 1.179-1.642 2.12-2.955 1.529-6.459l.208-.208c1.104.3 3.612.872 6.713.872s5.609-.572 6.713-.873l.208.208c-.591 3.505.351 4.818 1.529 6.459.477.664 1.013 1.422 1.55 2.456v3.75c0 5.92-5.938 11-10 11-3.423 0-10-4.645-10-11zm2.83 13.541c2.408 2.053 5.211 3.208 7.17 3.208 2.171 0 4.878-1.191 7.174-3.188.202.807.332 1.333.418 1.679l-5.173 3.695c-.012.009-.018.022-.029.031-.052.041-.092.094-.136.145s-.09.098-.122.156c-.007.013-.02.021-.027.034l-.223.448h-3.764l-.224-.447c-.007-.013-.019-.021-.027-.034-.032-.058-.079-.105-.122-.156-.044-.051-.083-.104-.135-.145-.012-.009-.017-.023-.029-.031l-5.173-3.695c.086-.35.218-.882.422-1.7zm7.17 9.972-.882-1.764h1.764zm-7.797 1.231-3.065-6.898 1.121-1.683 5.347 3.818zm11.392 5.314c.131-.097.3-.222.411-.29 1.045.236 1.729 1.123 1.688 1.651-.034.44-.819.886-2.495.886-.699 0-1.436.026-2.199.064v-1.146c1.131-.085 2.009-.732 2.595-1.165zm4.202-5.314-3.402-4.763 5.347-3.818 1.121 1.683zm11.865 7.323c-.359.032-.737.066-1.081.093.037-.13.069-.257.099-.376.196-.784.256-1.021 1.475-1.021 1.405 0 2.257-.234 2.846-.493v1.55c-1.255.063-2.392.162-3.339.247z"/><path d="m46 53c-.553 0-1 .447-1 1v9c0 .553.447 1 1 1s1-.447 1-1v-9c0-.553-.447-1-1-1z"/><path d="m27 55c-.563 0-.803-.217-1.293-.707-.546-.546-1.293-1.293-2.707-1.293-2.102 0-2.423 1.288-2.577 1.907-.036.145-.086.341-.13.386-.304.304-.817.482-1.293.584v-1.877c0-.553-.447-1-1-1s-1 .447-1 1v9c0 .553.447 1 1 1s1-.447 1-1v-1.679c.394.069.851.121 1.379.121.838 0 1.831-.125 2.938-.494.737-.245 1.125-.467 1.407-.628.372-.214.559-.32 2.276-.32.781 0 1.381-.163 1.831-.499.486-.362.753-.903.753-1.524 0-1.391-1.376-2.977-2.584-2.977zm0 3c-2.045 0-2.544.169-3.269.584-.245.14-.498.284-1.048.468-1.703.567-2.993.407-3.683.232v-1.371c.813-.126 1.936-.435 2.707-1.206.437-.437.563-.944.656-1.315.028-.114.071-.287.084-.314.001-.002.122-.078.553-.078.562 0 .803.217 1.293.707.535.535 1.265 1.265 2.629 1.292.256.13.628.656.661.925-.086.033-.27.076-.583.076z"/><path d="m37.553 59.105c-1.233.615-1.813.207-1.871.162-.394-.366-1.007-.357-1.389.025-.391.391-.391 1.023 0 1.414.347.347 1.054.734 2.036.734.607 0 1.32-.148 2.118-.547 1.925-.962 2.336-.697 2.846-.188.391.391 1.023.391 1.414 0s.391-1.023 0-1.414c-1.527-1.525-3.165-1.18-5.154-.186z"/></g></svg>