<?xml version="1.0"?>
<svg xmlns="http://www.w3.org/2000/svg" width="512" height="512" viewBox="0 0 64 64"><g id="Layer_2" data-name="Layer 2"><path d="M32,3a28.969,28.969,0,0,0-19.183,7.25,1,1,0,1,0,1.325,1.5,26.986,26.986,0,1,1-2.825,2.894,1,1,0,1,0-1.531-1.288A29,29,0,1,0,32,3Z"/><path d="M48.783,47.758a1,1,0,0,0,1.41-.106A24,24,0,1,0,32,56a23.745,23.745,0,0,0,14.941-5.218A1,1,0,1,0,45.7,49.218,21.757,21.757,0,0,1,32,54a22,22,0,1,1,16.678-7.652A1,1,0,0,0,48.783,47.758Z"/><path d="M26,21a2,2,0,0,1,2,2,1,1,0,0,0,2,0,4,4,0,0,0-8,0V41a4,4,0,0,0,8,0V27a1,1,0,0,0-2,0V41a2,2,0,0,1-4,0V23A2,2,0,0,1,26,21Z"/><path d="M38,43a2,2,0,0,1-2-2,1,1,0,0,0-2,0,4,4,0,0,0,8,0V23a4,4,0,0,0-8,0V37a1,1,0,0,0,2,0V23a2,2,0,0,1,4,0V41A2,2,0,0,1,38,43Z"/></g></svg>
