<svg height="512pt" viewBox="0 0 512 512.00065" width="512pt" xmlns="http://www.w3.org/2000/svg"><path d="m185.199219 189.222656h6.5625c4.140625 0 7.5-3.355468 7.5-7.5 0-4.140625-3.359375-7.5-7.5-7.5h-2.199219v-15.554687c0-4.144531-3.355469-7.5-7.5-7.5-4.140625 0-7.5 3.355469-7.5 7.5v19.921875c0 5.863281 4.769531 10.632812 10.636719 10.632812zm0 0"/><path d="m219.96875 214.492188c2.214844-3.5 1.171875-8.132813-2.328125-10.347657-3.503906-2.214843-8.132813-1.171875-10.347656 2.328125-4.222657 6.671875-13.429688 10.984375-23.457031 10.984375-10.023438 0-19.230469-4.3125-23.453126-10.984375-2.214843-3.5-6.847656-4.542968-10.347656-2.328125-3.5 2.214844-4.542968 6.847657-2.328125 10.347657 7.011719 11.082031 20.855469 17.964843 36.128907 17.964843 15.277343 0 29.121093-6.882812 36.132812-17.964843zm0 0"/><path d="m229.441406 156.710938c4.144532 0 7.5-3.355469 7.5-7.5v-9.074219c0-4.144531-3.355468-7.5-7.5-7.5-4.140625 0-7.5 3.355469-7.5 7.5v9.074219c0 4.144531 3.359375 7.5 7.5 7.5zm0 0"/><path d="m138.226562 132.636719c-4.144531 0-7.5 3.355469-7.5 7.5v9.074219c0 4.144531 3.355469 7.5 7.5 7.5 4.140626 0 7.5-3.355469 7.5-7.5v-9.074219c0-4.144531-3.359374-7.5-7.5-7.5zm0 0"/><path d="m371.609375 309.71875h4.980469c4.144531 0 7.503906-3.355469 7.503906-7.5 0-4.097656-3.285156-7.425781-7.363281-7.5v-10.003906c0-4.144532-3.359375-7.5-7.5-7.5-4.144531 0-7.503907 3.355468-7.503907 7.5v15.125c0 5.445312 4.433594 9.878906 9.882813 9.878906zm0 0"/><path d="m399.535156 328.066406c2.214844-3.5 1.171875-8.132812-2.328125-10.347656s-8.132812-1.175781-10.347656 2.324219c-2.882813 4.558593-9.273437 7.503906-16.285156 7.503906-7.007813 0-13.398438-2.945313-16.28125-7.503906-2.214844-3.5-6.847657-4.539063-10.347657-2.324219s-4.542968 6.847656-2.328124 10.347656c5.652343 8.933594 16.746093 14.480469 28.957031 14.480469 12.210937 0 23.308593-5.550781 28.960937-14.480469zm0 0"/><path d="m405.203125 285.035156c4.140625 0 7.5-3.355468 7.5-7.5v-4.417968c0-4.140626-3.359375-7.5-7.5-7.5-4.144531 0-7.5 3.359374-7.5 7.5v4.417968c0 4.144532 3.355469 7.5 7.5 7.5zm0 0"/><path d="m343.445312 277.535156v-4.417968c0-4.140626-3.359374-7.5-7.5-7.5-4.144531 0-7.5 3.359374-7.5 7.5v4.417968c0 4.144532 3.355469 7.5 7.5 7.5 4.140626 0 7.5-3.355468 7.5-7.5zm0 0"/><path d="m492.878906 411.726562c-2.855468-3-7.605468-3.117187-10.605468-.261718-3 2.855468-3.117188 7.605468-.261719 10.605468 8.800781 9.242188 14.941406 23.261719 14.941406 34.09375v40.835938h-24.851563v-25.496094c0-4.144531-3.359374-7.5-7.5-7.5-4.144531 0-7.5 3.355469-7.5 7.5v25.496094h-173.054687v-25.496094c0-4.144531-3.359375-7.5-7.5-7.5-4.144531 0-7.5 3.355469-7.5 7.5v25.496094h-24.855469v-40.835938c0-13.566406 9.4375-31.339843 20.6875-39.074218 11.511719-5.8125 23.5625-10.695313 35.894532-14.546875 12.515624 13.179687 38.523437 21.457031 68.617187 21.457031 30.160156 0 56.820313-8.671875 69.117187-22.023438.09375.027344 10.585938 3.410157 15.582032 5.316407 3.867187 1.472656 8.203125-.46875 9.679687-4.335938 1.476563-3.871093-.5-8.121093-4.335937-9.683593-10.199219-4.148438-36.34375-10.882813-43.542969-12.210938-5.222656-.964844-9.574219-4.648438-9.011719-13.851562 15.765625-4.15625 30.042969-12.996094 40.871094-25.445313 12.925781-14.867187 20.046875-33.914063 20.046875-53.640625v-52.289062c0-4.296876-.382813-8.625-1.140625-12.898438 1.25-5.167969.257812-10.628906-2.839844-15.09375-.898437-1.292969-1.933594-2.449219-3.082031-3.457031-13.121094-27.664063-42.027344-44.324219-72.648437-41.679688h-35.023438c-15.269531-1.316406-30.515625 2.222657-43.554688 9.886719v-78.300781c0-26.433594-11.195312-51.816407-30.714843-69.636719-19.523438-17.824219-45.8125-26.667969-72.136719-24.269531-7.609375.691406-15.230469 1.40625-22.875 1.507812-7.625.105469-15.1875-.816406-22.769531-1.507812-26.328125-2.398438-52.617188 6.445312-72.132813 24.269531-19.523437 17.820312-30.71875 43.203125-30.71875 69.636719v213.363281c-7.425781 3.101562-14.746094 6.484375-21.945312 10.136719-22.335938 11.339843-36.214844 33.945312-36.214844 58.996093v9.640626c0 4.140624 3.359375 7.5 7.5 7.5s7.5-3.359376 7.5-7.5v-9.640626c0-19.371093 10.730469-36.851562 28.003906-45.621093 15.972656-8.105469 32.578125-14.804688 49.644532-20.035157 15.523437 17.289063 50.410156 28.605469 89.628906 28.605469 39.964844 0 75.078125-11.605469 90.273437-29.34375.265625.078125.53125.15625.796875.238281v43.730469c0 8.570313 6.972656 15.542969 15.542969 15.542969h45.378906c0 5.277344-3.867187 9.847656-9.011719 11.152344-50.027343 12.6875-68.105468 23.148437-68.351562 23.3125-15.542969 10.359375-27.71875 33.109375-27.71875 51.792968v40.835938h-158.921875v-77.917969c0-4.140625-3.359375-7.5-7.5-7.5s-7.5 3.359375-7.5 7.5v77.917969h-40.265625v-75.652344c0-4.140625-3.359375-7.5-7.5-7.5s-7.5 3.359375-7.5 7.5v76.644532c0 7.722656 6.285156 14.007812 14.007812 14.007812h483.941407c7.722656 0 14.007812-6.285156 14.007812-14.007812v-41.828126c0-14.589843-7.667969-32.449218-19.078125-44.4375zm-159.238281-65.304687c-10.59375-8.089844-23.214844-22.296875-23.214844-44.058594l-.183593-48.109375c17.734374 2.128906 59.867187 3.703125 81.480468-24.800781l1.945313-.078125c.828125.695312 14.523437 7.328125 19.511719 8.207031 4.554687 6.039063 14.128906 16.085938 17.683593 18.003907l-.140625 46.804687c0 21.734375-12.625 35.941406-23.214844 44.03125-13.109374 10.019531-28.285156 14.8125-36.933593 15.050781-8.648438-.238281-23.824219-5.03125-36.933594-15.050781zm36.925781-136.519531 8.617188-20.472656c1.042968-2.480469 4.511718-3.058594 6.308594-1.0625l11.734374 13.03125-5.488281 13.042968s-17.523437.71875-17.523437.71875c-2.644532.105469-4.722656-2.710937-3.648438-5.257812zm60.132813 5.585937s17.523437-.71875 17.523437-.71875c2.738282-.152343 4.691406 2.777344 3.648438 5.257813l-8.613282 20.46875c-1.0625 2.519531-4.492187 3.085937-6.3125 1.066406l-11.734374-13.035156zm15.148437 45.835938c3.953125.765625 6.949219 4.257812 6.949219 8.4375v7.613281c0 4.203125-3.035156 7.714844-7.027344 8.449219zm-33.882812-39.992188-5.824219-2.449219 4.328125-10.285156 5.828125 2.449219zm30.152344 103.023438c2.25-6.503907 3.601562-15.292969 3.601562-23.4375h.007812c2.105469-.132813 4.136719-.546875 6.058594-1.199219-1.546875 8.773438-4.832031 17.152344-9.667968 24.636719zm-1.539063-124.285157-11.816406.484376c-.816407-.691407-1.75-1.269532-2.785157-1.707032l-13.550781-5.703125c-1.035156-.4375-2.101562-.699219-3.167969-.800781 0 0-13.171874-14.609375-13.460937-14.890625 17.695313.417969 34.105469 8.832031 44.78125 22.617187zm-88.53125-22.394531c.226563.019531 17.234375.03125 17.234375.03125-1.644531 1.671875-2.980469 3.664063-3.925781 5.90625l-8.617188 20.46875c-2.507812 5.960938-1.804687 12.691407 1.882813 18.003907 2.726562 3.925781 6.746094 6.597656 11.265625 7.613281-20.359375 13.859375-50.960938 10.765625-61.347657 9.1875-3.351562-.5-6.746093.472656-9.308593 2.6875-1.460938 1.261719-2.566407 2.851562-3.242188 4.613281-2.683593.105469-5.253906.664062-7.640625 1.597656v-11.949218c0-16.1875 6.785156-31.742188 18.625-42.757813.085938-.074219.167969-.152344.246094-.226563.050781-.046874.101562-.09375.152344-.140624 12.089844-11.042969 28.382812-16.519532 44.675781-15.035157zm-109.070313 110.203125c-7.941406-1.460937-13.707031-8.402344-13.707031-16.5v-8.546875c4.65625-2.640625 9.289063-5.664062 13.757813-9.082031 17.0625-13.035156 37.402344-33.257812 37.402344-76.054688h.015624c4.949219 0 9.992188-1.261718 14.058594-3.480468v10.0625c-13.488281 13.679687-21.15625 32.257812-21.15625 51.558594v59.164062c-10.015625-2.855469-20.195312-5.246094-30.371094-7.121094zm-109.230468-46.046875c-14.375-10.980469-31.507813-30.285156-31.507813-59.910156l-.261719-68.347656c15.332032-2.449219 51.382813-10.890625 81.855469-38.335938 30.476563 27.445313 66.523438 35.886719 81.859375 38.335938l-.261718 68.375c0 29.597656-17.132813 48.898437-31.507813 59.882812-17.71875 13.539063-38.335937 20.003907-50.089844 20.3125-11.75-.308593-32.371093-6.773437-50.085937-20.3125zm160.761718-92.832031c0 7.550781-6.457031 13.695312-14.003906 13.695312l.144532-37.417968c7.542968 0 13.859374 6.144531 13.859374 13.695312zm-6.160156 120.761719c0-4.167969 2.980469-7.652344 6.921875-8.429688l.089844 24.488281c-3.984375-.738281-7.011719-4.246093-7.011719-8.445312zm-189.355468-234.03125c16.414062-14.984375 38.527343-22.417969 60.660156-20.40625 8.046875.730469 16.09375 1.640625 24.179687 1.707031 8.082031.066406 16.148438-.976562 24.183594-1.707031 22.136719-2.011719 44.246094 5.421875 60.660156 20.40625 16.417969 14.988281 25.832031 36.332031 25.832031 58.5625v19.464843c-4.070312-2.21875-8.734374-3.480468-13.683593-3.480468h-.121094l.003906-.664063c.019531-5.246093-3.890625-9.691406-9.085937-10.339843-11.09375-1.390626-49.695313-8.226563-80.582032-37.8125-4.042968-3.871094-10.371093-3.871094-14.410156 0-30.886718 29.585937-69.488281 36.421874-80.582031 37.8125-5.199219.648437-9.105469 5.09375-9.085937 10.339843l.003906.664063c-4.953125 0-9.734375 1.261718-13.804688 3.480468v-19.464843c0-22.230469 9.414063-43.574219 25.832032-58.5625zm-25.832032 103.242187c0-7.550781 6.316406-13.695312 13.859375-13.695312l.144531 37.417968c-7.542968 0-14.003906-6.144531-14.003906-13.695312zm0 35.242188c4.070313 2.21875 9.109375 3.480468 14.0625 3.480468h.015625c0 41.800782 20.335938 63.019532 37.398438 76.058594 4.472656 3.414063 9.101562 6.4375 13.757812 9.078125v8.546875c0 8.097656-5.761719 15.039063-13.703125 16.503906-17.558594 3.234376-34.785156 7.898438-51.53125 13.941407zm109.117188 150.523437c-34.121094 0-59.261719-8.492187-72.542969-18.316406 5.847656-1.429687 11.742187-2.695313 17.675781-3.789063 15.058594-2.777343 25.984375-17.238281 25.984375-32.570312 11.511719 4.621094 22.300781 6.910156 30.277344 7.078125.054687.003906.109375.003906.160156.003906.054688 0 .109375 0 .164063-.003906 7.976562-.167969 18.765625-2.457031 30.277344-7.078125 0 15.332031 10.925781 29.792969 25.984374 32.570312 5.15625.949219 10.308594 2.035157 15.441407 3.253907-15.917969 12.410156-46.8125 18.851562-73.421875 18.851562zm106.070312 29.625v-55.015625c2.214844.871094 4.589844 1.414063 7.070313 1.570313h.007812c0 24.953125 12.695313 43.421875 24.882813 53.988281h-31.414063c-.300781 0-.546875-.242188-.546875-.542969zm39.632813 41.449219c11.804687-2.179688 20.511719-12.101562 21.238281-23.917969 8.050781 2.972657 15.527344 4.457031 21.195312 4.578125.050782 0 .105469.003906.160157.003906.050781 0 .105469-.003906.160156-.003906 5.667969-.121094 13.140625-1.605468 21.191406-4.578125.726563 11.816407 9.433594 21.738281 21.238281 23.917969 2.492188.457031 4.984376.964844 7.476563 1.507812-10.566406 6.53125-28.613281 11.679688-51.25 11.679688-22.054687 0-39.890625-4.96875-50.574219-11.300781 3.058594-.695313 6.117188-1.324219 9.164063-1.886719zm0 0"/></svg>