<svg id="Layer_1" enable-background="new 0 0 511.978 511.978" height="512" viewBox="0 0 511.978 511.978" width="512" xmlns="http://www.w3.org/2000/svg"><path d="m357.384 282.957c16.868-10.564 31.675-23.77 44.064-39.287h45.586c27.449 0 49.78-22.331 49.78-49.78v-144.11c0-27.449-22.331-49.78-49.78-49.78h-245.99c-27.449 0-49.78 22.331-49.78 49.78v144.11c0 27.449 22.331 49.78 49.78 49.78h17.101l11.443 27.645-31.058 19.45c-5.007-8.047-8.558-13.754-8.858-14.233-27.659-44.149-86.073-57.57-130.213-29.916-44.136 27.644-57.558 86.05-29.92 130.197 17.908 28.598 48.728 44.303 80.22 44.303 17.12 0 34.438-4.641 49.987-14.376l99.997-62.623 45.37 109.548c15.06 36.342 50.317 58.314 87.407 58.314 12.023 0 24.247-2.312 36.027-7.192 48.116-19.939 71.05-75.306 51.124-123.42-9.654-23.318-27.81-41.478-51.123-51.135-23.31-9.656-48.99-9.657-72.313 0-.521.216-6.724 2.806-15.47 6.458l-14.245-34.398zm-7.962-12.713-28.724 17.992-.976-2.356-17.485-42.21h79.401c-9.516 10.204-20.3 19.112-32.216 26.574zm97.612-41.574h-151.01l-46.13-111.36h231.921v76.58c-.001 19.178-15.603 34.78-34.781 34.78zm-245.99-213.67h245.99c19.178 0 34.78 15.602 34.78 34.78v6.6h-60.305c-4.142 0-7.5 3.358-7.5 7.5s3.358 7.5 7.5 7.5h60.3v30.93h-238.129l-6.197-14.96c-1.105-2.668-3.645-4.465-6.529-4.619-2.904-.157-5.601 1.362-6.984 3.897-2.8 5.132-5.312 10.369-7.569 15.682h-50.137v-30.93h225.285c4.142 0 7.5-3.358 7.5-7.5s-3.358-7.5-7.5-7.5h-225.285v-6.6c0-19.178 15.602-34.78 34.78-34.78zm-34.78 178.89v-76.58h44.547c-11.612 36.123-11.235 75.042 1.439 111.36h-11.206c-19.178 0-34.78-15.602-34.78-34.78zm-14.479 200.136c-37.143 23.253-86.279 11.96-109.533-25.174-23.25-37.137-11.959-86.27 25.169-109.525 13.082-8.195 27.648-12.102 42.054-12.102 26.485 0 52.414 13.212 67.482 37.266.349.558 41.964 67.483 41.964 67.483zm210.19-49.938c19.619-8.123 41.222-8.123 60.832.001 19.61 8.123 34.883 23.399 43.004 43.016 16.763 40.476-2.53 87.051-43.006 103.824-40.481 16.77-87.06-2.524-103.835-43.005l-30.312-73.192c0-.001 72.71-30.393 73.317-30.644zm-79.062 16.763-17.951-43.322c-1.586-3.826-5.972-5.645-9.8-4.058-3.827 1.585-5.643 5.973-4.058 9.8l2.815 6.793-22.264 13.944c-5.608-9.014-16.103-25.883-25.202-40.508l28.951-18.13 4.238 10.237c1.583 3.828 5.969 5.646 9.797 4.064 3.828-1.583 5.647-5.97 4.064-9.797l-23.762-57.405c-16.619-40.106-16.36-84.435.288-123.917l96.892 233.917c-15.887 6.635-34.21 14.289-44.008 18.382z"/><path d="m335.394 441.12c6.308 15.223 18.166 27.08 33.39 33.387 7.614 3.154 15.611 4.73 23.61 4.73 7.997 0 15.997-1.577 23.606-4.73 15.228-6.307 27.087-18.166 33.393-33.392 6.305-15.225 6.303-31.993-.004-47.214-6.302-15.225-18.157-27.083-33.382-33.39-15.226-6.307-31.998-6.307-47.227 0-31.43 13.025-46.407 49.185-33.386 80.609zm39.127-66.75c5.764-2.387 11.818-3.581 17.874-3.581 6.054 0 12.11 1.194 17.872 3.58 11.522 4.773 20.495 13.747 25.265 25.271 4.774 11.522 4.776 24.213.004 35.736s-13.748 20.499-25.275 25.273c-5.825 2.414-11.861 3.556-17.807 3.556-18.328-.001-35.758-10.865-43.201-28.827-9.857-23.783 1.48-51.151 25.268-61.008z"/><path d="m123.416 266.543c-16.061-3.691-32.596-.905-46.556 7.843-13.968 8.745-23.693 22.406-27.385 38.465-3.692 16.061-.907 32.599 7.841 46.567 8.744 13.966 22.406 23.69 38.468 27.381 4.631 1.064 9.3 1.59 13.937 1.59 11.445 0 22.688-3.205 32.627-9.428 28.83-18.05 37.598-56.195 19.542-85.033-8.748-13.969-22.412-23.695-38.474-27.385zm10.972 99.704c-10.571 6.619-23.087 8.726-35.245 5.933-12.157-2.793-22.496-10.153-29.114-20.723-6.622-10.573-8.73-23.09-5.936-35.245 2.794-12.154 10.155-22.493 20.729-29.113 7.521-4.713 16.028-7.139 24.69-7.139 3.507 0 7.041.398 10.544 1.203 12.157 2.793 22.499 10.155 29.121 20.727 13.666 21.825 7.031 50.696-14.789 64.357z"/><path d="m272.668 287.77c2.535 6.003 11.336 6.066 13.854.001 1.186-2.857.447-6.274-1.833-8.376-2.428-2.238-6.116-2.607-8.947-.921-3.172 1.887-4.431 5.894-3.074 9.296z"/><path d="m317.157 132.427h-35.186c-4.142 0-7.5 3.358-7.5 7.5s3.358 7.5 7.5 7.5h35.186c4.142 0 7.5-3.358 7.5-7.5s-3.358-7.5-7.5-7.5z"/><path d="m378.543 132.427h-35.186c-4.142 0-7.5 3.358-7.5 7.5s3.358 7.5 7.5 7.5h35.186c4.142 0 7.5-3.358 7.5-7.5s-3.357-7.5-7.5-7.5z"/><path d="m439.93 132.427h-35.186c-4.142 0-7.5 3.358-7.5 7.5s3.358 7.5 7.5 7.5h35.186c4.142 0 7.5-3.358 7.5-7.5s-3.358-7.5-7.5-7.5z"/></svg>