<?xml version="1.0" encoding="UTF-8"?> <svg xmlns="http://www.w3.org/2000/svg" id="bold" height="512" viewBox="0 0 24 24" width="512"><path d="m17.5 11c-3.584 0-6.5 2.916-6.5 6.5s2.916 6.5 6.5 6.5 6.5-2.916 6.5-6.5-2.916-6.5-6.5-6.5zm1 10c0 .552-.447 1-1 1s-1-.448-1-1v-3.5c0-.552.447-1 1-1s1 .448 1 1zm-1-6c-.552 0-1-.448-1-1s.448-1 1-1 1 .448 1 1-.448 1-1 1z"></path><path d="m17.98.11c-2.59-.38-4.88.24-6.98 1.89-2.1-1.65-4.39-2.27-6.98-1.89-.87.12-1.52.87-1.52 1.73v10.97c0 .49.21.96.58 1.29.37.34.88.5 1.38.44 1.59-.18 3.13.15 4.55.96.07.03.13.07.2.11.01-.04.02-.07.03-.11.11-.46.26-.91.45-1.34-1.37-.77-2.85-1.17-4.38-1.17-.34 0-.67.02-1.02.06-.11.01-.18-.04-.21-.07-.05-.04-.08-.1-.08-.17v-10.97c0-.12.1-.23.23-.25 2.26-.33 4.18.23 6.02 1.74.09.06.17.14.26.21.28.25.7.25.98 0 .09-.07.17-.15.26-.21 1.84-1.51 3.76-2.06 6.02-1.74.13.02.23.13.23.25v7.17c.51.03 1.01.11 1.5.23v-7.4c0-.86-.65-1.61-1.52-1.73z"></path><path d="m9.24 15.5c-.01.04-.02.07-.03.11-.1.45-.17.92-.2 1.39h-7.26c-.96 0-1.75-.79-1.75-1.75v-11.5c0-.96.78-1.74 1.74-1.75h1.26c.41 0 .75.33.75.75 0 .41-.33.75-.75.75h-1.25c-.14 0-.25.12-.25.25v11.5c0 .14.11.25.25.25z"></path><path d="m22 3.75v6.54c-.47-.29-.97-.54-1.5-.74v-5.8c0-.14-.11-.25-.25-.25h-1.25c-.41 0-.75-.34-.75-.75s.34-.75.75-.75h1.25c.96 0 1.75.79 1.75 1.75z"></path><path d="m11.75 3v8.25c-.58.53-1.09 1.14-1.5 1.82v-10.07c0-.41.34-.75.75-.75s.75.34.75.75z"></path></svg> 