<svg height="600pt" viewBox="0 0 600 600" width="600pt" xmlns="http://www.w3.org/2000/svg"><path d="m450 100h20v20h-20zm0 0"/><path d="m410 100h20v20h-20zm0 0"/><path d="m370 100h20v20h-20zm0 0"/><path d="m130 100h20v20h-20zm0 0"/><path d="m320 550h-40c-5.523438 0-10 4.476562-10 10s4.476562 10 10 10h40c5.523438 0 10-4.476562 10-10s-4.476562-10-10-10zm0 0"/><path d="m570 300h-10v-70c-.035156-27.601562-22.398438-49.964844-50-50v-130c-.035156-27.601562-22.398438-49.9648438-50-50h-320c-27.601562.0351562-49.964844 22.398438-50 50v170h20v-140h380v100h-20c-13.609375.003906-26.617188 5.585938-36 15.4375-55.421875-71.027344-156.636719-86.488281-230.734375-35.238281-74.09375 51.25-95.34375 151.410156-48.4375 228.332031 46.910156 76.917969 145.683594 103.882812 225.171875 61.46875v40c0 5.523438 4.476562 10 10 10h100v20h-380v-140h-20v170c.035156 27.601562 22.398438 49.964844 50 50h320c27.601562-.035156 49.964844-22.398438 50-50v-50h80c5.523438 0 10-4.476562 10-10v-160c0-16.566406-13.433594-30-30-30zm-460-240v-10c0-16.566406 13.433594-30 30-30h320c16.566406 0 30 13.433594 30 30v10zm350 520h-320c-16.566406 0-30-13.433594-30-30v-10h380v10c0 16.566406-13.433594 30-30 30zm10-380h40c16.566406 0 30 13.433594 30 30v70h-10v-70c0-11.046875-8.953125-20-20-20h-40c-11.046875 0-20 8.953125-20 20v70h-10v-70c0-16.566406 13.433594-30 30-30zm40 100h-40v-70h40zm-150.21875-10c-.449219-17.339844-2.625-34.589844-6.480469-51.5 9.039063-4.050781 17.578125-9.128906 25.449219-15.140625 17.5625 18.046875 28.402344 41.566406 30.707031 66.640625zm-99.570312 0c.484374-15 2.335937-29.925781 5.550781-44.589844 22.417969 6.117188 46.058593 6.117188 68.476562 0 3.214844 14.664063 5.066407 29.589844 5.550781 44.589844zm79.578124 20c-.484374 15-2.335937 29.925781-5.550781 44.589844-22.417969-6.117188-46.058593-6.117188-68.476562 0-3.214844-14.664063-5.066407-29.589844-5.550781-44.589844zm7.824219-90.8125c-2.75-7.902344-6.28125-15.515625-10.542969-22.71875 9.277344 3.3125 18.066407 7.863281 26.117188 13.53125-4.925781 3.496094-10.136719 6.566406-15.574219 9.1875zm-18.832031 7.003906c-18.84375 5.117188-38.71875 5.117188-57.5625 0 7.78125-22.460937 18.609375-36.191406 28.78125-36.191406s21 13.730469 28.78125 36.164062zm-76.394531-7.003906c-5.4375-2.621094-10.648438-5.691406-15.574219-9.1875 8.050781-5.671875 16.839844-10.226562 26.117188-13.53125-4.261719 7.203125-7.792969 14.816406-10.542969 22.71875zm-31.136719 4.171875c7.871094 6.011719 16.410156 11.089844 25.449219 15.140625-3.855469 16.910156-6.03125 34.160156-6.480469 51.5h-49.675781c2.304687-25.074219 13.144531-48.59375 30.707031-66.640625zm18.96875 86.640625c.449219 17.339844 2.625 34.589844 6.480469 51.5-9.039063 4.050781-17.578125 9.128906-25.449219 15.140625-17.5625-18.046875-28.402344-41.566406-30.707031-66.640625zm12.167969 70.8125c2.75 7.902344 6.28125 15.515625 10.542969 22.71875-9.277344-3.3125-18.066407-7.863281-26.117188-13.53125 4.925781-3.496094 10.136719-6.566406 15.574219-9.1875zm18.832031-7.003906c18.84375-5.117188 38.71875-5.117188 57.5625 0-7.78125 22.460937-18.609375 36.191406-28.78125 36.191406s-21-13.730469-28.78125-36.164062zm76.394531 7.003906c5.4375 2.621094 10.648438 5.691406 15.574219 9.1875-8.050781 5.671875-16.839844 10.226562-26.117188 13.53125 4.261719-7.203125 7.792969-14.816406 10.542969-22.71875zm32.386719-50.8125v45.289062c-.421875.445313-.867188.863282-1.296875 1.304688-7.867187-5.988281-16.390625-11.046875-25.402344-15.09375 3.855469-16.910156 6.03125-34.160156 6.480469-51.5h27.996094c-4.984375 5.46875-7.757813 12.597656-7.777344 20zm-80 120c-71.164062.015625-132.539062-49.976562-146.929688-119.664062-14.390624-69.691407 22.164063-139.902344 87.507813-168.074219 65.34375-28.179688 141.492187-6.5625 182.292969 51.738281-1.835938 5.136719-2.808594 10.546875-2.871094 16v20.410156c-21.304688-51.601562-73.171875-83.84375-128.871094-80.101562-55.703125 3.746094-102.800781 42.625-117.007812 96.613281-14.214844 53.984375 7.632812 111.023437 54.269531 141.703125 46.640625 30.679688 107.660156 28.15625 151.609375-6.265625v24.5c-23.945312 15.125-51.679688 23.144531-80 23.140625zm280 30h-180v-150c0-5.523438 4.476562-10 10-10h160c5.523438 0 10 4.476562 10 10zm0 0"/><path d="m520 370c.046875-14.875-10.8125-27.539062-25.515625-29.761719-14.710937-2.226562-28.824219 6.667969-33.175781 20.890625-4.347656 14.226563 2.382812 29.492188 15.820312 35.871094l-16.613281 49.851562c-1.007813 3.046876-.496094 6.390626 1.382813 9 1.875 2.601563 4.894531 4.144532 8.101562 4.148438h40c3.210938 0 6.230469-1.546875 8.105469-4.15625 1.878906-2.605469 2.386719-5.957031 1.378906-9.003906l-16.613281-49.839844c10.429687-4.953125 17.089844-15.453125 17.128906-27zm-30-10c5.523438 0 10 4.476562 10 10s-4.476562 10-10 10-10-4.476562-10-10 4.476562-10 10-10zm-6.117188 80 6.117188-18.378906 6.117188 18.378906zm0 0"/><path d="m0 250h20v20h-20zm0 0"/><path d="m30 250h90v20h-90zm0 0"/><path d="m0 290h20v20h-20zm0 0"/><path d="m30 290h90v20h-90zm0 0"/><path d="m0 330h20v20h-20zm0 0"/><path d="m30 330h90v20h-90zm0 0"/></svg>