<?xml version="1.0" encoding="UTF-8"?> <svg xmlns="http://www.w3.org/2000/svg" id="Capa_1" height="512" viewBox="0 0 480 480" width="512"><path d="m424 192h-8v-112c0-44.183-35.817-80-80-80s-80 35.817-80 80v120c0 4.418 3.582 8 8 8h160c22.081.025 39.975 17.919 40 40v192c-.013 10.166-6.419 19.224-16 22.624v-62.624c-.019-14.586-9.882-27.321-24-30.987v-105.013h-16v104h-40c-10.579.003-20.473 5.237-26.428 13.981l-18.82-103.406c-2.349-13.065-13.717-22.573-26.992-22.575h-119.76v16h119.76c5.539.007 10.277 3.98 11.249 9.433l27.404 150.567h-255.736l-27.362-150.528c-.8-4.358 2.084-8.54 6.442-9.34.476-.087.959-.132 1.443-.132h44.8v-16h-44.8c-13.268.004-24.021 10.763-24.017 24.031 0 1.435.129 2.867.386 4.28l28.431 156.411v31.278c0 4.418 3.582 8 8 8h368c22.081-.025 39.975-17.919 40-40v-192c-.035-30.914-25.086-55.965-56-56zm-88-176c32.233.044 59.417 24.024 63.482 56h-126.964c4.065-31.976 31.249-55.956 63.482-56zm63.987 74.876c-.194 8.827-5.685 16.669-13.913 19.871-5.033 1.881-10.614 1.634-15.461-.684-2.789-1.32-5.252-3.241-7.211-5.626zm-55.551 11.858c1.128 3.285 2.695 6.402 4.658 9.266h-26.188c1.963-2.864 3.53-5.981 4.658-9.266 1.411-4.107-.712-8.59-4.784-10.1l-12.491-4.634h51.422l-12.491 4.63c-4.074 1.51-6.198 5.996-4.784 10.104zm-35.838 1.7c-1.959 2.385-4.422 4.306-7.211 5.626-4.847 2.318-10.428 2.565-15.461.684-8.228-3.202-13.719-11.044-13.913-19.871zm91.402 87.566h-128v-64h20.47c.132 0 .263.009.395.009.105 0 .21-.008.316-.009h85.6c.117 0 .234.01.351.01.146 0 .292-.008.437-.01h20.431zm-64 272h-256v-16h256zm96 0h-80v-16h80zm0-32h-80v-32c.01-8.832 7.168-15.99 16-16h48c8.832.01 15.99 7.168 16 16z"></path><path d="m326.111 152h-14.111v16h14.111c13.004-.016 25.828-3.043 37.467-8.845l-7.156-14.31c-9.416 4.693-19.79 7.142-30.311 7.155z"></path><path d="m84.979 335.373h16.003v74.708h-16.003z" transform="matrix(.982 -.19 .19 .982 -69.11 24.449)"></path><path d="m73.454 303.87h16v16.262h-16z" transform="matrix(.984 -.179 .179 .984 -54.499 19.604)"></path><path d="m154.648 293.946c3.284 2.955 8.343 2.689 11.298-.595 1.926-2.14 2.553-5.15 1.643-7.881l-20.489-61.47h60.9c17.665-.02 31.98-14.335 32-32v-160c-.02-17.665-14.335-31.98-32-32h-176c-17.665.02-31.98 14.335-32 32v160c.02 17.665 14.335 31.98 32 32h44.93zm-74.648-277.946h16v108c0 19.882 16.118 36 36 36s36-16.118 36-36v-12c0-4.418-3.582-8-8-8h-7.643l31.643-40.684v60.684c0 28.719-23.281 52-52 52s-52-23.281-52-52zm-64 176v-160c.01-8.832 7.168-15.99 16-16h32v108c0 37.555 30.445 68 68 68s68-30.445 68-68v-84c0-4.418-3.582-8-8-8-2.469 0-4.799 1.14-6.315 3.089l-56 72c-2.712 3.488-2.084 8.514 1.404 11.226 1.404 1.092 3.132 1.685 4.911 1.685h16v4c0 11.046-8.954 20-20 20s-20-8.954-20-20v-108h96c8.832.01 15.99 7.168 16 16v160c-.01 8.832-7.168 15.99-16 16h-72c-4.418 0-8 3.582-8 8 0 .86.139 1.714.411 2.53l14.417 43.252-57.476-51.728c-1.469-1.322-3.376-2.054-5.352-2.054h-48c-8.832-.01-15.99-7.168-16-16z"></path></svg> 