<svg id="Layer_1" data-name="Layer 1" xmlns="http://www.w3.org/2000/svg" viewBox="0 0 512 512"><defs><style>.cls-1{fill:none;}</style></defs><rect class="cls-1" x="178.73" y="191.38" width="158.15" height="133.47"/><path d="M143.29,119.77a13.51,13.51,0,0,0,2.38,0,4.33,4.33,0,0,0,3.56-4,4.54,4.54,0,0,0-2.45-4.9,9.28,9.28,0,0,0-4.19-.84h-9.37v-.14a43.93,43.93,0,0,0,0,9.86Z"/><path d="M68.22,235.92a5.84,5.84,0,0,0-2.31-.33H55.08L55,247.47H67.17a4.87,4.87,0,0,0,4.54-4.12A5.8,5.8,0,0,0,68.22,235.92Z"/><path d="M225.39,94.22a5.36,5.36,0,0,0-3.19-.87h-11c-.07,3.91-.07,7.27,0,10.55h12.09a4.05,4.05,0,0,0,3.64-2.23A5.39,5.39,0,0,0,225.39,94.22Z"/><path d="M133.78,102.16h9.72a7.07,7.07,0,0,0,2.73-.77,3.65,3.65,0,0,0,2-3.85A3.27,3.27,0,0,0,146,94.26a9.61,9.61,0,0,0-3.08-.63h-9.79l.07,8.53Z"/><path d="M511.93,277.56a1.83,1.83,0,0,0-.16-.69l-.31-.72a18.21,18.21,0,0,0-.78-1.68l-1.55-2.93c-1.79-3.37-3.56-6.73-5.48-10.06a76.37,76.37,0,0,0-10.27-13.77,40.85,40.85,0,0,0-11.54-9,21.52,21.52,0,0,0-12.11-2.28,122.2,122.2,0,0,0-20.81,4.19,149.23,149.23,0,0,0-15.56,5.9V95.24a55.91,55.91,0,0,0-55.91-55.92H55.92A55.92,55.92,0,0,0,0,95.24V416.76a55.92,55.92,0,0,0,55.92,55.92H377.45a55.91,55.91,0,0,0,55.91-55.92V315.24A354.87,354.87,0,0,1,489,288.17a114.27,114.27,0,0,1,20.32-6h.91a1.74,1.74,0,0,0,1.75-1.79ZM384.66,174.22a4.39,4.39,0,0,0-1.34-1.68,26.22,26.22,0,0,0-4.62-2.23c-2.72-1.12-5.52-2.1-8.24-3.22A10.19,10.19,0,0,1,366.4,164a10.91,10.91,0,0,1,.77-14,11.41,11.41,0,0,1,4.61-3,16.72,16.72,0,0,1,14,1.19,11.34,11.34,0,0,1,4.9,5.66v.84a2.62,2.62,0,0,1,0,.56l-.91.49-4.34,1.46a1.25,1.25,0,0,1-1.67-.55,8,8,0,0,0-9.23-2.94,4.94,4.94,0,0,0-1.61,1,3.14,3.14,0,0,0-.47,4.42,3.48,3.48,0,0,0,.47.47,12.6,12.6,0,0,0,2.87,1.54c2.1.84,4.26,1.47,6.29,2.31a35,35,0,0,1,4.89,2.37,11.53,11.53,0,0,1,4.52,15.67,11.1,11.1,0,0,1-.74,1.18,11.27,11.27,0,0,1-4.69,3.7,18.6,18.6,0,0,1-15.58,0,14.55,14.55,0,0,1-7-7.76,3.77,3.77,0,0,1-.77-1.6l2.37-.91,3.64-1.33a1.19,1.19,0,0,1,1.54.56,19.43,19.43,0,0,0,2.72,3.28,8.8,8.8,0,0,0,9.51,1.4A4.34,4.34,0,0,0,384.66,174.22ZM332,166.74V148.43c0-1.68,0-1.75,1.82-1.75h4.89c1,0,1.19,0,1.26,1.19a7.76,7.76,0,0,1,0,1.4v28c0,2.23,0,2.23,2.24,2.23h16.21a.91.91,0,0,1,1.05.75.76.76,0,0,1,0,.3V186a.93.93,0,0,1-1.05,1H334.11c-2.1,0-2.1,0-2.1-2.17Zm-45.29,18.73,14-37.53a1.82,1.82,0,0,1,2-1.4h4.61c1.54,0,1.54,0,2.1,1.4l4.19,11,9.93,26a9.28,9.28,0,0,1,.83,2H318a1.6,1.6,0,0,1-1.81-1.26c-.63-1.88-1.4-3.77-2.1-5.66s-.63-1.54-2.17-1.54H299.16c-1.61,0-1.61,0-2.17,1.54s-1.39,3.78-2,5.66a1.54,1.54,0,0,1-1.68,1.19h-7A1.69,1.69,0,0,1,286.72,185.47Zm-15.8-10.13V148c0-.42,0-1.33,1.4-1.33h5c1.12,0,1.26,0,1.33,1.4s0,.7,0,1v35.71c0,2.38,0,2.38-2.31,2.38H272.6c-1.61,0-1.68,0-1.68-1.75ZM166.5,86.5c0-1.26,25.37-.35,27.19,0v6.36a.85.85,0,0,1-.67,1,.81.81,0,0,1-.31,0H174.25v8.39h11a23,23,0,0,1,0,7.4h-11a33.68,33.68,0,0,0,0,9.72h18.67a5.31,5.31,0,0,1,1.26,0s.69.35.69.56a58.22,58.22,0,0,1,0,7l-28.3-.21Zm-9.65,60.18h24.88a.83.83,0,0,1,.91.76.38.38,0,0,1,0,.15v5.59a.83.83,0,0,1-.91.84H164.26a.91.91,0,0,0-1,.74.81.81,0,0,0,0,.31v6.15c0,1,0,1.12,1.26,1.12h9c1.18,0,1.32,0,1.39,1.33s0,3.07,0,4.61,0,1.47-1.46,1.47h-9.16c-1.47,0-1.61,0-1.61,1.67v6.43c0,2.17,0,1.61,1.68,1.61h17.33c2.17,0,2.17,0,2.17,2.1v4c0,1.33,0,1.26-1.26,1.26h-25.3c-2.1,0-2.1,0-2.1-2.17V148.29C155.17,146.82,155.17,146.68,156.85,146.68ZM125.19,86.22h18.24a20.89,20.89,0,0,1,5.1.63,10.42,10.42,0,0,1,7.41,12.73,9.66,9.66,0,0,1-.42,1.25,8.57,8.57,0,0,1-2.79,3.77l-1.26,1.12,1,.63a9.15,9.15,0,0,1,4.82,7.41,14.52,14.52,0,0,1,0,3.84,11.18,11.18,0,0,1-10.56,9.09,26.43,26.43,0,0,1-3.56,0h-18C124.84,125.5,124.77,88,125.19,86.22Zm-42.92.35h6a2,2,0,0,1,2,1.12l8.32,14,1,1.53,1-1.39c2.8-4.55,5.52-9,8.25-13.56a2.37,2.37,0,0,1,2.38-1.4h7.06l-.91,1.68-13,21.45a5.37,5.37,0,0,0-.84,2.94v13.77H95.69V112.5a5.37,5.37,0,0,0-.84-2.94L81.78,88.18l-.84-1.61Zm-36,9.85a17.3,17.3,0,0,1,5.17-7.82A14.83,14.83,0,0,1,61.79,85a15.44,15.44,0,0,1,12.09,5.24A9.76,9.76,0,0,1,76,94.75l-7,3.14a21,21,0,0,1-1.26-1.68,7.69,7.69,0,0,0-12.58.7A16.52,16.52,0,0,0,53,103.34a24.11,24.11,0,0,0,.63,9,13.26,13.26,0,0,0,2.17,4.47A7,7,0,0,0,65.42,119a6.82,6.82,0,0,0,1.68-1.49,32.44,32.44,0,0,0,2.24-2.79l7,2.72a15.47,15.47,0,0,1-9,9.3,17.51,17.51,0,0,1-10,0,14.46,14.46,0,0,1-9.23-7A24.82,24.82,0,0,1,44.8,109,30.74,30.74,0,0,1,46.27,96.42ZM44.94,184.7q-.06-9.07-.07-17.82v-18c0-2.17,0-2.17,2.17-2.17H71.23c1.11,0,1.25,0,1.25,1.26v5c0,1.68,0,1.05-1.11,1.12h-17c-1.47,0-1.61,0-1.61,1.54v5.45c0,1.82,0,1.4,1.47,1.4H63.4a1,1,0,0,1,1.05.9v5.46c0,1.75,0,1-1.33,1H55.29c-2.66,0-2.59,0-2.59,2.58v4.9c0,2.3,0,2.3,2.38,2.3H71.44c2.23,0,2.23,0,2.23,2.17v4c0,1.33,0,1.12-1.19,1.19H47.18C44.94,187,44.94,187,44.94,184.7Zm33,65.71a14,14,0,0,1-11.68,5.45H55v16.5H46.55v-45H65.21a20.22,20.22,0,0,1,7,1,12.51,12.51,0,0,1,8.18,9.23A14.61,14.61,0,0,1,77.94,250.41Zm1.88-71.72a1.7,1.7,0,0,0-.49-1.39,5.07,5.07,0,0,1,.91-.56l5-1.82c1-.35,1,0,1.74.63a20,20,0,0,0,2.73,3.28A8.44,8.44,0,0,0,99,180.09a4.26,4.26,0,0,0,1.95-5.71,4.34,4.34,0,0,0-1-1.28,15.19,15.19,0,0,0-4.75-2.31c-2.8-1-5.59-1.95-8.25-3.21a9.64,9.64,0,0,1-6-8,10.69,10.69,0,0,1,7.76-12,17.09,17.09,0,0,1,11.25,0,12.07,12.07,0,0,1,7,7c.63-.35.77.07,1.33.91l-6,1.95a1.11,1.11,0,0,1-.84,0,4.75,4.75,0,0,1-.63-1,5.37,5.37,0,0,0-2.79-2.17,10.13,10.13,0,0,0-5.67,0,3.56,3.56,0,0,0-3,3.21,2.86,2.86,0,0,0,1.26,2.87,15.23,15.23,0,0,0,2.65,1.4l6.43,2.37a23.63,23.63,0,0,1,5.81,3.08,11.47,11.47,0,0,1,2.79,13.91,12.62,12.62,0,0,1-9.3,6.43,19.24,19.24,0,0,1-8.8,0A15.12,15.12,0,0,1,79.82,178.69Zm39.84,93.6-30.12.14v-45h8.6V264h21.52A32.54,32.54,0,0,1,119.66,272.29ZM116,178.06a1.48,1.48,0,0,1,0-.42,2.81,2.81,0,0,1,0-.41l.91-.49,4.68-1.75c1.19-.42,1.19-.42,2,.7a18.18,18.18,0,0,0,1.82,2.37,8.78,8.78,0,0,0,9.29,2.45A4.14,4.14,0,0,0,138,177a4.21,4.21,0,0,0-2.17-4.76,38.29,38.29,0,0,0-4.19-1.88c-2.73-1-5.46-2-8.11-3.15a10.16,10.16,0,0,1-3.92-3,10.83,10.83,0,0,1,.63-14,14,14,0,0,1,9.09-4.06,15.91,15.91,0,0,1,9.51,2.1,11.75,11.75,0,0,1,5.1,6,11.11,11.11,0,0,1,.63,1.12l-1.26.49-2.73.91c-.76,0-1.6.69-2.3.55s-.91-1.11-1.47-1.6a7.84,7.84,0,0,0-2-1.54,9.4,9.4,0,0,0-6.57,0,4.18,4.18,0,0,0-1.54,1,3.08,3.08,0,0,0-.58,4.31,3.18,3.18,0,0,0,.58.58,11.33,11.33,0,0,0,2.66,1.47l6.57,2.38a20.83,20.83,0,0,1,6.5,3.56,10.24,10.24,0,0,1,3.64,7.34,11.48,11.48,0,0,1-3.64,9.71,11,11,0,0,1-3.28,2.17,18.31,18.31,0,0,1-16.57-.77A14.51,14.51,0,0,1,116,178.06Zm46.9,51v25.65A23.63,23.63,0,0,1,162,262a15,15,0,0,1-11.11,10.49,24.46,24.46,0,0,1-11.6,0A15.47,15.47,0,0,1,126.72,258a40.64,40.64,0,0,1,0-4.13V227.41a32,32,0,0,1,8.74,0v26.77a25,25,0,0,0,0,4.41,7,7,0,0,0,5.87,5.87,17.5,17.5,0,0,0,7,0,6.52,6.52,0,0,0,5.25-5,19.25,19.25,0,0,0,.55-4.54V229.16a6.56,6.56,0,0,0,.14-1.75h8.6Zm34.39,42.22a19.63,19.63,0,0,1-19-1.12,17.18,17.18,0,0,1-7-9.3l7.83-2.93c.56.91,1,1.74,1.6,2.51a10.16,10.16,0,0,0,10.91,4.27,9.52,9.52,0,0,0,2.66-1.05,4.68,4.68,0,0,0,1.35-6.48,4.19,4.19,0,0,0-.8-.93,17.18,17.18,0,0,0-3.56-2.1c-1.82-.77-3.77-1.33-5.66-2s-3.43-1.26-5-2a13.88,13.88,0,0,1-5.32-4.06,11.82,11.82,0,0,1,2.64-16.49l.51-.35a15.89,15.89,0,0,1,7-2.45A18.91,18.91,0,0,1,195.85,228a14,14,0,0,1,7,7.55v.84a3.8,3.8,0,0,1,.7.63L196,239.57l-.63-1a7,7,0,0,0-6-3.64,15.78,15.78,0,0,0-4.12,0,4.51,4.51,0,0,0-2,1.19,3.35,3.35,0,0,0-.45,4.72,3.19,3.19,0,0,0,.45.45,16.66,16.66,0,0,0,3.5,1.89c1.88.77,3.91,1.33,5.8,2a50.86,50.86,0,0,1,5.38,2.3,12.46,12.46,0,0,1,7,8A12.86,12.86,0,0,1,197.25,271.24Zm27.19-122.18V185c0,2.31,0,2.31-2.31,2.31h-2.86a2.87,2.87,0,0,1-2.94-1.54c-1.88-2.86-3.84-5.73-5.8-8.52l-8.74-12.94-1.74-2.79-.14.14v23.48c0,2.17,0,2.17-2.17,2.17h-4.12c-1.12,0-1.26,0-1.33-1.4s0-.7,0-1V149.13c0-2.38,0-2.38,2.37-2.38h3.71a1.88,1.88,0,0,1,1.75,1l1.95,2.86,12.72,18.88,2,3.14V148.43c0-1.47,0-1.61,1.54-1.61h4.89c1,0,1.19,0,1.26,1.26S224.44,148.78,224.44,149.06Zm2.24-23.56c-2-4.19-4.2-8.25-6.15-12.44a2.39,2.39,0,0,0-2.66-1.61h-6.29v14.47a28.75,28.75,0,0,1-8,0,12,12,0,0,1,0-1.47V86.92c-.14.42-.07,0-.07-.63h18.73a20.12,20.12,0,0,1,4.83.56,10.82,10.82,0,0,1,8.45,9A13.14,13.14,0,0,1,233,107.19a11.06,11.06,0,0,1-3.29,2.72l-1.46.84c2.51,5.32,5.17,10.56,7.68,15.94h-7.34A1.74,1.74,0,0,1,226.68,125.5Zm24.82,29.41a.89.89,0,0,0,0,.23V184.7c0,2.31,0,2.31-2.31,2.31h-3.7l-1.54-.07V156.82c0-2.73,0-2.59-2.58-2.59h-7.69c-1.4,0-1.47,0-1.54-1.47s0-3.07,0-4.61,0-1.47,1.54-1.47h27.26c2.16,0,2.16,0,2.16,2.17v3.84c0,1.26,0,1.47-1.46,1.47h-9.09A.91.91,0,0,0,251.5,154.91Zm62.76,279.26v2.44c0,.84,0,1.4-.77,1.68a1.26,1.26,0,0,1-1.68-.7l-3.42-4.19a266.73,266.73,0,0,1-24.75-37.67,369.67,369.67,0,0,1-26.42-60.61c-.42-1.18-.77-2.37-1.12-3.56s-.07-1.19-.21-1.68a1,1,0,0,1,.63-.91,1.36,1.36,0,0,1,1.05,0,5.72,5.72,0,0,1,1.05.91,55.92,55.92,0,0,0,30.13,15.17,68.65,68.65,0,0,0,26.63-1.19A89.83,89.83,0,0,0,339,335.05h.63a1.35,1.35,0,0,1,1.54.42,1.11,1.11,0,0,1,0,1.47l-.35.63a148.1,148.1,0,0,0-19.43,44.32,210,210,0,0,0-6.15,34.38C314.68,422.22,314.4,428.16,314.26,434.17ZM487.75,284.91a358.55,358.55,0,0,0-57.12,27.85,1.79,1.79,0,0,0-.74.24A254.43,254.43,0,0,0,385.67,346a349.81,349.81,0,0,0-44.59,51.91A372.08,372.08,0,0,0,319,432.74a142.05,142.05,0,0,1,3.66-40.4,190.46,190.46,0,0,1,18.28-48.48,257,257,0,0,1,47.29-62.5,156.26,156.26,0,0,1,41.89-29.52l2-1A145.33,145.33,0,0,1,449.93,244a118.31,118.31,0,0,1,20.18-4.07c.63-.06,1.25-.09,1.88-.09a17.92,17.92,0,0,1,8.23,2,37.27,37.27,0,0,1,10.58,8.24,73.61,73.61,0,0,1,9.83,13.18c1.89,3.27,3.64,6.6,5.4,9.93l1.57,3a14.45,14.45,0,0,1,.65,1.39l.21,1.33A115.33,115.33,0,0,0,487.75,284.91Z"/><path d="M310.21,171.21a91.4,91.4,0,0,0-4.9-13.07l-5.1,13.07A36.4,36.4,0,0,0,310.21,171.21Z"/></svg>