<?xml version="1.0" encoding="UTF-8"?> <svg xmlns="http://www.w3.org/2000/svg" height="512pt" viewBox="0 -3 512 511" width="512pt"><path d="m391.457031 236.859375c-31.171875 21.199219-79.976562 46.46875-135.457031 46.46875s-104.285156-25.269531-135.457031-46.46875c-3.421875-2.332031-8.089844-1.441406-10.417969 1.984375s-1.441406 8.089844 1.984375 10.417969c32.910156 22.382812 84.589844 49.066406 143.890625 49.066406 59.296875 0 110.980469-26.683594 143.894531-49.066406 3.421875-2.332031 4.3125-6.996094 1.980469-10.417969-2.328125-3.425781-6.992188-4.3125-10.417969-1.984375zm0 0"></path><path d="m481.71875.5h-451.4375c-16.695312 0-30.28125 13.585938-30.28125 30.28125v351.085938c0 16.695312 13.585938 30.28125 30.28125 30.28125h181.445312l-11.738281 36.648437h-28.449219c-17.574218 0-31.871093 14.296875-31.871093 31.867187v9.808594c0 8.242188 6.707031 14.949219 14.949219 14.949219h202.769531c8.242187 0 14.949219-6.707031 14.949219-14.949219v-9.808594c0-17.570312-14.300782-31.867187-31.871094-31.867187h-28.453125l-11.734375-36.648437h181.441406c16.695312 0 30.28125-13.585938 30.28125-30.28125v-351.085938c0-16.695312-13.585938-30.28125-30.28125-30.28125zm-451.4375 15h451.4375c8.425781 0 15.28125 6.855469 15.28125 15.28125v311.222656h-482v-311.222656c0-8.425781 6.855469-15.28125 15.28125-15.28125zm327.050781 465.164062.054688 9.757813-202.71875.050781v-9.808594c0-9.300781 7.566406-16.867187 16.871093-16.867187h168.921876c9.304687 0 16.871093 7.566406 16.871093 16.867187zm-61.070312-31.867187h-80.523438l11.738281-36.648437h57.046876zm185.457031-51.648437h-451.4375c-8.425781 0-15.28125-6.855469-15.28125-15.28125v-24.863282h482v24.863282c0 8.425781-6.855469 15.28125-15.28125 15.28125zm0 0"></path><path d="m43.4375 326.519531c4.144531 0 7.5-3.359375 7.5-7.5v-269.25h410.125v269.195313c0 4.140625 3.355469 7.5 7.5 7.5 4.140625 0 7.5-3.359375 7.5-7.5v-272.660156c0-6.359376-5.175781-11.535157-11.539062-11.535157h-417.046876c-6.363281 0-11.539062 5.175781-11.539062 11.535157v272.714843c0 4.140625 3.359375 7.5 7.5 7.5zm0 0"></path><path d="m408.578125 180.824219c-22.238281-19.300781-81.621094-64.203125-152.578125-64.203125s-130.339844 44.902344-152.574219 64.207031c-3.546875 3.074219-5.578125 7.527344-5.578125 12.214844s2.03125 9.136719 5.574219 12.214843c22.238281 19.304688 81.617187 64.203126 152.578125 64.203126s130.339844-44.898438 152.574219-64.203126c3.546875-3.078124 5.578125-7.53125 5.578125-12.21875 0-4.683593-2.03125-9.136718-5.574219-12.214843zm-295.730469 12.214843c0-.242187.070313-.59375.410156-.886718 12.015626-10.429688 35.5-28.785156 65.761719-42.554688-7.414062 13.132813-11.441406 28.085938-11.441406 43.441406 0 15.359376 4.027344 30.3125 11.441406 43.445313-30.265625-13.769531-53.75-32.125-65.761719-42.554687-.339843-.292969-.410156-.644532-.410156-.890626zm93.09375 53.667969c-14.851562-13.867187-23.363281-33.335937-23.363281-53.667969 0-20.328124 8.511719-39.796874 23.363281-53.664062 15.660156-4.75 32.503906-7.753906 50.058594-7.753906s34.394531 3.003906 50.058594 7.753906c14.851562 13.867188 23.363281 33.335938 23.363281 53.664062 0 20.332032-8.511719 39.800782-23.367187 53.667969-15.660157 4.75-32.5 7.753907-50.054688 7.753907s-34.394531-3.003907-50.058594-7.753907zm192.800782-52.777343c-12.011719 10.429687-35.5 28.785156-65.761719 42.554687 7.414062-13.132813 11.441406-28.085937 11.441406-43.445313 0-15.355468-4.027344-30.304687-11.441406-43.441406 30.261719 13.769532 53.75 32.125 65.761719 42.554688.339843.292968.410156.644531.410156.886718 0 .246094-.070313.597657-.410156.890626zm0 0"></path><path d="m256 146.996094c-25.390625 0-46.042969 20.65625-46.042969 46.042968 0 25.390626 20.652344 46.046876 46.042969 46.046876s46.042969-20.65625 46.042969-46.046876c0-25.386718-20.652344-46.042968-46.042969-46.042968zm0 77.089844c-17.117188 0-31.042969-13.925782-31.042969-31.046876 0-17.113281 13.925781-31.042968 31.042969-31.042968s31.042969 13.929687 31.042969 31.042968c0 17.121094-13.925781 31.046876-31.042969 31.046876zm0 0"></path></svg> 