<?xml version="1.0" encoding="UTF-8"?> <svg xmlns="http://www.w3.org/2000/svg" height="512pt" viewBox="-26 0 512 512" width="512pt"><path d="m25.601562 512h409.597657c14.140625 0 25.601562-11.460938 25.601562-25.601562v-102.398438c0-14.136719-11.460937-25.601562-25.601562-25.601562h-147.328125l19.96875-14.921876c53.109375-37.867187 84.652344-99.054687 84.695312-164.277343v-136.53125c0-3.234375-1.828125-6.191407-4.722656-7.636719-49.414062-22.644531-103.058594-34.582031-157.414062-35.03125-54.351563.449219-107.996094 12.386719-157.414063 35.03125-2.890625 1.445312-4.71875 4.402344-4.71875 7.636719v136.53125c.039063 65.222656 31.578125 126.40625 84.675781 164.277343l19.976563 14.921876h-147.316407c-14.140624 0-25.601562 11.464843-25.601562 25.601562v102.398438c0 14.140624 11.460938 25.601562 25.601562 25.601562zm59.730469-332.800781v-131.078125c45.832031-19.828125 95.136719-30.382813 145.066407-31.054688 49.933593.671875 99.238281 11.226563 145.066406 31.054688v131.078125c-.097656 59.828125-29.089844 115.921875-77.839844 150.605469l-62.105469 46.394531c-3.042969 2.246093-7.195312 2.246093-10.238281 0l-62.097656-46.394531c-48.757813-34.675782-77.753906-90.773438-77.851563-150.605469zm-68.265625 204.800781c0-4.710938 3.820313-8.535156 8.535156-8.535156h170.160157l19.285156 14.40625c9.121094 6.769531 21.601563 6.769531 30.722656 0l19.257813-14.40625h170.171875c4.714843 0 8.535156 3.824218 8.535156 8.535156v102.398438c0 4.714843-3.820313 8.535156-8.535156 8.535156h-409.597657c-4.714843 0-8.535156-3.820313-8.535156-8.535156zm0 0"></path><path d="m40.59375 434.945312 21.664062 5.417969-17.882812 23.851563c-2.828125 3.769531-2.066406 9.117187 1.703125 11.945312 3.773437 2.828125 9.121094 2.0625 11.949219-1.707031l18.773437-25.027344 18.773438 25.027344c2.828125 3.769531 8.175781 4.535156 11.945312 1.707031s4.535157-8.175781 1.707031-11.945312l-17.917968-23.894532 21.664062-5.417968c2.976563-.722656 5.335938-2.988282 6.183594-5.929688.851562-2.945312.054688-6.117187-2.082031-8.3125-2.132813-2.195312-5.28125-3.078125-8.25-2.3125l-23.492188 5.921875v-23.203125c0-4.710937-3.820312-8.53125-8.53125-8.53125-4.714843 0-8.535156 3.820313-8.535156 8.53125v23.203125l-23.523437-5.878906c-2.96875-.765625-6.117188.117187-8.253907 2.3125-2.132812 2.195313-2.929687 5.367187-2.082031 8.3125.847656 2.941406 3.210938 5.207031 6.1875 5.929687zm0 0"></path><path d="m142.992188 434.945312 21.667968 5.417969-17.921875 23.894531c-2.828125 3.769532-2.0625 9.117188 1.707031 11.945313 3.769532 2.828125 9.121094 2.0625 11.945313-1.707031l18.808594-25.070313 18.773437 25.027344c2.828125 3.769531 8.175782 4.535156 11.949219 1.707031 3.769531-2.828125 4.53125-8.175781 1.703125-11.945312l-17.917969-23.894532 21.664063-5.417968c2.976562-.722656 5.339844-2.988282 6.1875-5.929688.847656-2.945312.054687-6.117187-2.082032-8.3125-2.136718-2.195312-5.285156-3.078125-8.25-2.3125l-23.492187 5.921875v-23.203125c0-4.710937-3.820313-8.53125-8.535156-8.53125-4.710938 0-8.53125 3.820313-8.53125 8.53125v23.203125l-23.527344-5.878906c-4.558594-1.109375-9.152344 1.667969-10.292969 6.21875-1.140625 4.546875 1.605469 9.164063 6.144532 10.335937zm0 0"></path><path d="m245.394531 434.945312 21.664063 5.417969-17.917969 23.894531c-1.832031 2.4375-2.21875 5.667969-1.023437 8.46875 1.199218 2.804688 3.800781 4.757813 6.828124 5.121094 3.027344.363282 6.019532-.914062 7.847657-3.351562l18.808593-25.070313 18.773438 25.027344c1.828125 2.4375 4.820312 3.71875 7.847656 3.351563 3.023438-.363282 5.628906-2.316407 6.824219-5.121094 1.199219-2.800782.808594-6.03125-1.019531-8.46875l-17.921875-23.894532 21.667969-5.417968c2.976562-.722656 5.335937-2.988282 6.183593-5.929688.847657-2.945312.054688-6.117187-2.082031-8.3125-2.132812-2.195312-5.285156-3.078125-8.25-2.3125l-23.492188 5.921875v-23.203125c0-4.710937-3.820312-8.53125-8.53125-8.53125-4.714843 0-8.535156 3.820313-8.535156 8.53125v23.203125l-23.527344-5.878906c-4.554687-1.109375-9.152343 1.667969-10.289062 6.21875-1.140625 4.546875 1.601562 9.164063 6.144531 10.335937zm0 0"></path><path d="m347.792969 434.945312 21.667969 5.417969-17.921876 23.894531c-1.828124 2.4375-2.21875 5.667969-1.019531 8.46875 1.195313 2.804688 3.800781 4.757813 6.824219 5.121094 3.027344.363282 6.019531-.914062 7.847656-3.351562l18.808594-25.070313 18.773438 25.027344c1.828124 2.4375 4.820312 3.71875 7.847656 3.351563 3.027344-.363282 5.628906-2.316407 6.828125-5.121094 1.195312-2.800782.808593-6.03125-1.023438-8.46875l-17.917969-23.894532 21.664063-5.417968c4.542969-1.171875 7.285156-5.789063 6.144531-10.335938-1.136718-4.550781-5.734375-7.328125-10.289062-6.21875l-23.492188 5.921875v-23.203125c0-4.710937-3.824218-8.53125-8.535156-8.53125s-8.535156 3.820313-8.535156 8.53125v23.203125l-23.523438-5.878906c-2.96875-.765625-6.117187.117187-8.25 2.3125-2.136718 2.195313-2.933594 5.367187-2.082031 8.3125.847656 2.941406 3.207031 5.207031 6.183594 5.929687zm0 0"></path><path d="m244.609375 342.117188 42.109375-28.089844c47.558594-35.535156 71.679688-80.898438 71.679688-134.828125v-110.933594c.007812-3.398437-2.003907-6.472656-5.117188-7.832031-78.183594-34.910156-167.527344-34.910156-245.710938 0-3.132812 1.34375-5.167968 4.421875-5.171874 7.832031v110.933594c0 53.929687 24.125 99.292969 71.679687 134.828125l.378906.265625 41.726563 27.816406c8.597656 5.757813 19.820312 5.757813 28.414062 0zm-60.484375-41.890626c-42.90625-32.125-64.660156-72.839843-64.660156-121.027343v-105.273438c70.855468-30.300781 151.015625-30.300781 221.867187 0v105.273438c0 48.257812-21.820312 89.019531-64.46875 120.902343l-41.71875 27.816407c-2.871093 1.921875-6.617187 1.921875-9.488281 0zm0 0"></path><path d="m290.132812 230.398438v-51.199219c-.042968-10.808594-6.875-20.425781-17.066406-24.027344v-10.105469c0-23.5625-19.101562-42.667968-42.667968-42.667968-23.5625 0-42.664063 19.105468-42.664063 42.667968v10.105469c-10.191406 3.601563-17.023437 13.21875-17.066406 24.027344v51.199219c0 14.140624 11.460937 25.601562 25.597656 25.601562h68.269531c14.136719 0 25.597656-11.460938 25.597656-25.601562zm-85.332031-85.332032c0-14.136718 11.460938-25.601562 25.597657-25.601562 14.140624 0 25.601562 11.464844 25.601562 25.601562v8.535156h-51.199219zm-17.066406 85.332032v-51.199219c0-4.710938 3.820313-8.53125 8.53125-8.53125h68.269531c4.710938 0 8.53125 3.820312 8.53125 8.53125v51.199219c0 4.714843-3.820312 8.535156-8.53125 8.535156h-68.269531c-4.710937 0-8.53125-3.820313-8.53125-8.535156zm0 0"></path><path d="m230.398438 187.734375c-4.710938 0-8.53125 3.820313-8.53125 8.53125v17.066406c0 4.714844 3.820312 8.535157 8.53125 8.535157 4.714843 0 8.535156-3.820313 8.535156-8.535157v-17.066406c0-4.710937-3.820313-8.53125-8.535156-8.53125zm0 0"></path></svg> 