<?xml version="1.0" encoding="utf-8"?>
<!-- Generator: Adobe Illustrator 25.2.1, SVG Export Plug-In . SVG Version: 6.00 Build 0)  -->
<svg version="1.1" id="Layer_1" xmlns="http://www.w3.org/2000/svg" xmlns:xlink="http://www.w3.org/1999/xlink" x="0px" y="0px"
	 viewBox="0 0 512 512" style="enable-background:new 0 0 512 512;" xml:space="preserve">
<g>
	<g id="Outline">
		<path d="M488,16H184c-4.4,0-8,3.6-8,8v144h16V32h176v72c0,4.4,3.6,8,8,8h72v272H272v16h216c4.4,0,8-3.6,8-8v-40h-16v32h-16
			c0,0,0-280.2,0-280.3c-0.1-2-0.9-3.9-2.3-5.4L395.3,32H480v304h16V24C496,19.6,492.4,16,488,16z M436.7,96H384V43.3L436.7,96z
			 M352,80h-48V64h48V80z M304,96h48v16h-48V96z M304,128h120v16H304V128z M304,160h120v16H304V160z M272,192h152v16h-56v16h56v16
			h-56v16h56v16h-56v16h56v16h-56v16h56v16H272v-16h80v-16h-80v-16h80v-16h-80v-16h80v-16h-80v-16h80v-16h-80V192z M272,352h152v16
			H272V352z M210.3,139.2l64-64l11.3,11.3l-64,64L210.3,139.2z M226.7,65.8c-10.3,0-18.7,8.4-18.7,18.7s8.4,18.7,18.7,18.7
			s18.7-8.4,18.7-18.7c0,0,0,0,0,0C245.3,74.1,237,65.8,226.7,65.8z M226.7,87.1c-1.5,0-2.7-1.2-2.7-2.7s1.2-2.7,2.7-2.7
			s2.7,1.2,2.7,2.7c0,0,0,0,0,0C229.3,85.9,228.1,87.1,226.7,87.1z M288,141.3c0-10.3-8.4-18.7-18.7-18.7
			c-10.3,0-18.7,8.4-18.7,18.7S259,160,269.3,160C279.6,160,288,151.6,288,141.3z M269.3,144c-1.5,0-2.7-1.2-2.7-2.7
			c0-1.5,1.2-2.7,2.7-2.7c1.5,0,2.7,1.2,2.7,2.7l0,0C272,142.8,270.8,144,269.3,144z M224,184h-64v-64c0-4.4-3.6-8-8-8
			c-1.2,0-2.5,0.3-3.6,0.8l-12.4,6.2l-12.4-6.2c-2.3-1.1-4.9-1.1-7.2,0l-12.4,6.2l-12.4-6.2c-2.3-1.1-4.9-1.1-7.2,0L72,119.1
			l-12.4-6.2c-4-2-8.8-0.4-10.7,3.6c-0.6,1.1-0.8,2.3-0.8,3.6v64c-17.7,0-32,14.3-32,32v24h16v-24c0-8.8,7.2-16,16-16v24
			c0,4.4,3.6,8,8,8h96c4.4,0,8-3.6,8-8v-24h64c8.8,0,16,7.2,16,16v248c0,8.8-7.2,16-16,16H48c-8.8,0-16-7.2-16-16V256H16v208
			c0,17.7,14.3,32,32,32h176c17.7,0,32-14.3,32-32V216C256,198.3,241.7,184,224,184z M144,216H64v-83.1l4.4,2.2
			c2.3,1.1,4.9,1.1,7.2,0l12.4-6.2l12.4,6.2c2.3,1.1,4.9,1.1,7.2,0l12.4-6.2l12.4,6.2c2.3,1.1,4.9,1.1,7.2,0l4.4-2.2V216z M224,256
			c0-4.4-3.6-8-8-8H56c-4.4,0-8,3.6-8,8v72c0,4.4,3.6,8,8,8h160c4.4,0,8-3.6,8-8V256z M208,320H64v-56h144V320z M48,392
			c0,4.4,3.6,8,8,8h32c4.4,0,8-3.6,8-8v-32c0-4.4-3.6-8-8-8H56c-4.4,0-8,3.6-8,8V392z M64,368h16v16H64V368z M160,360
			c0-4.4-3.6-8-8-8h-32c-4.4,0-8,3.6-8,8v32c0,4.4,3.6,8,8,8h32c4.4,0,8-3.6,8-8V360z M144,384h-16v-16h16V384z M224,360
			c0-4.4-3.6-8-8-8h-32c-4.4,0-8,3.6-8,8v32c0,4.4,3.6,8,8,8h32c4.4,0,8-3.6,8-8V360z M208,384h-16v-16h16V384z M48,456
			c0,4.4,3.6,8,8,8h32c4.4,0,8-3.6,8-8v-32c0-4.4-3.6-8-8-8H56c-4.4,0-8,3.6-8,8V456z M64,432h16v16H64V432z M152,416h-32
			c-4.4,0-8,3.6-8,8v32c0,4.4,3.6,8,8,8h32c4.4,0,8-3.6,8-8v-32C160,419.6,156.4,416,152,416z M144,448h-16v-16h16V448z M216,416
			h-32c-4.4,0-8,3.6-8,8v32c0,4.4,3.6,8,8,8h32c4.4,0,8-3.6,8-8v-32C224,419.6,220.4,416,216,416z M208,448h-16v-16h16V448z
			 M192,304h-16v-16h16V304z M160,304h-16v-16h16V304z M128,304h-16v-16h16V304z M80,184h48v16H80V184z M80,152h48v16H80V152z
			 M472,448h-8v-8c0-13.2-10.8-24-24-24h-56v16h56c4.4,0,8,3.6,8,8v8H312c-1.2,0-2.5,0.3-3.6,0.8l-32,16c-4,2-5.6,6.8-3.6,10.7
			c0.8,1.5,2,2.8,3.6,3.6l32,16c1.1,0.6,2.3,0.8,3.6,0.8h160c13.3,0,24-10.7,24-24S485.3,448,472,448z M304,475.1l-6.1-3.1l6.1-3.1
			V475.1z M448,480H320v-16h128V480z M472,480h-8v-16h8c4.4,0,8,3.6,8,8S476.4,480,472,480z M16,120c0-26.5,21.5-48,48-48v16
			c-17.7,0-32,14.3-32,32H16z"/>
	</g>
</g>
</svg>
