<?xml version="1.0" encoding="utf-8"?>
<!-- Generator: Adobe Illustrator 25.2.1, SVG Export Plug-In . SVG Version: 6.00 Build 0)  -->
<svg version="1.1" id="Capa_1" xmlns="http://www.w3.org/2000/svg" xmlns:xlink="http://www.w3.org/1999/xlink" x="0px" y="0px"
	 viewBox="0 0 512 512" style="enable-background:new 0 0 512 512;" xml:space="preserve">
<g>
	<path d="M407.5,100.3l-11.9-11.9c-7.7-7.7-11.9-17.9-11.9-28.7V45.8c9.3-3.1,16-12,16-22.3c0-13-10.6-23.5-23.5-23.5H135.8
		c-13,0-23.5,10.6-23.5,23.5c0,10.4,6.7,19.2,16,22.3v13.9c0,10.8-4.2,21-11.9,28.7l-11.9,11.9c-10.5,10.5-16.3,24.5-16.3,39.3
		v276.7c0,4.1,3.4,7.5,7.5,7.5s7.5-3.4,7.5-7.5V139.6c0-10.8,4.2-21,11.9-28.7L127,99c10.5-10.5,16.3-24.5,16.3-39.3V47.1h176.9
		c4.1,0,7.5-3.4,7.5-7.5s-3.4-7.5-7.5-7.5H135.8c-4.7,0-8.5-3.8-8.5-8.5c0-4.7,3.8-8.5,8.5-8.5h240.5c4.7,0,8.5,3.8,8.5,8.5
		s-3.8,8.5-8.5,8.5h-24c-4.1,0-7.5,3.4-7.5,7.5s3.4,7.5,7.5,7.5h16.5v12.7c0,14.9,5.8,28.8,16.3,39.3l11.9,11.9
		c7.7,7.7,11.9,17.9,11.9,28.7v332.8c0,13.5-11,24.6-24.6,24.6H127.7c-13.5,0-24.6-11-24.6-24.6v-24c0-4.1-3.4-7.5-7.5-7.5
		s-7.5,3.4-7.5,7.5v24c0,21.8,17.7,39.6,39.6,39.6h256.5c21.8,0,39.6-17.7,39.6-39.6V139.6C423.8,124.8,418,110.8,407.5,100.3
		L407.5,100.3z"/>
	<path d="M127.7,400.8c-4.1,0-7.5,3.4-7.5,7.5v32.1c0,4.1,3.4,7.5,7.5,7.5h8.5v24.6c0,4.1,3.4,7.5,7.5,7.5h192.4
		c4.1,0,7.5-3.4,7.5-7.5v-24.6h40.6c4.1,0,7.5-3.4,7.5-7.5v-32.1c0-4.1-3.4-7.5-7.5-7.5h-8.5v-24.6c0-4.1-3.4-7.5-7.5-7.5h-16.5
		v-24.6c0-4.1-3.4-7.5-7.5-7.5h-24.6v-24.6c0-4.1-3.4-7.5-7.5-7.5h-57.4c-3.5-18.2-19.6-32.1-38.8-32.1c-21.8,0-39.6,17.7-39.6,39.6
		c0,9.3,3.2,17.8,8.6,24.6h-33.1c-4.1,0-7.5,3.4-7.5,7.5v32.1c0,4.1,3.4,7.5,7.5,7.5h16.5v17.1H127.7z M135.2,415.8h49.1v17.1h-49.1
		V415.8z M223.4,351.7h49.1v17.1h-49.1V351.7z M247.5,383.7h49.1v17.1h-49.1L247.5,383.7z M263.5,432.9v-17.1h49.1v17.1H263.5z
		 M248.5,415.8v17.1h-49.1v-17.1H248.5z M151.3,447.9h49.1v17.1h-49.1V447.9z M215.4,447.9h49.1v17.1h-49.1L215.4,447.9z
		 M328.7,464.9h-49.1v-17.1h49.1V464.9z M376.8,432.9h-49.1v-17.1h49.1V432.9z M360.7,400.8h-49.1v-17.1h49.1V400.8z M336.7,368.7
		h-49.1v-17.1h49.1V368.7z M304.6,336.7h-49.1v-17.1h49.1V336.7z M191.4,312.1c0-13.5,11-24.6,24.6-24.6s24.6,11,24.6,24.6
		s-11,24.6-24.6,24.6S191.4,325.7,191.4,312.1z M159.3,351.7h49.1v17.1h-49.1V351.7z M183.3,383.7h49.1v17.1h-49.1V383.7z"/>
	<path d="M296.1,271.5c21.8,0,39.6-17.7,39.6-39.6s-17.7-39.6-39.6-39.6s-39.6,17.7-39.6,39.6S274.3,271.5,296.1,271.5z
		 M296.1,207.4c13.5,0,24.6,11,24.6,24.6s-11,24.6-24.6,24.6s-24.6-11-24.6-24.6S282.5,207.4,296.1,207.4z"/>
	<path d="M215,118.8c-15.7,15.7-19.3,36.7-8.2,47.8c4.4,4.4,10.2,6.4,16.7,6.4c10.1,0,21.6-5.1,31.1-14.6
		c15.7-15.7,19.3-36.7,8.2-47.8C251.7,99.5,230.7,103.1,215,118.8L215,118.8z M253.8,131.3c-1.2,5.6-4.8,11.6-9.8,16.6
		s-11,8.5-16.6,9.8c-4.4,1-8,0.4-10-1.6c-4.3-4.3-1.8-16.6,8.2-26.6c6.8-6.8,14.8-10.2,20.5-10.2c2.6,0,4.7,0.7,6.1,2
		C254.2,123.2,254.8,126.9,253.8,131.3L253.8,131.3z"/>
</g>
</svg>
