<?xml version="1.0" encoding="UTF-8"?>
<!-- Generator: Adobe Illustrator 24.1.3, SVG Export Plug-In . SVG Version: 6.00 Build 0)  -->
<svg xmlns="http://www.w3.org/2000/svg" xmlns:xlink="http://www.w3.org/1999/xlink" version="1.1" id="Logo" x="0px" y="0px" viewBox="0 0 351.5 360" style="enable-background:new 0 0 351.5 360;" xml:space="preserve" width="512" height="512">
<g>
	<path d="M237.3,314.4c-4,0-6,3.4-6.4,7h11.8c0-0.2,0-0.3,0-0.5C242.8,317.6,241,314.4,237.3,314.4z"/>
	<path d="M172.5,314.4c-4,0-6,3.4-6.4,7h11.8c0-0.2,0-0.3,0-0.5C178,317.6,176.1,314.4,172.5,314.4z"/>
	<path d="M129.3,314.3L129.3,314.3c-5.2,0-7.4,5-7.4,9.6s2,9.7,7.2,9.7s7.3-5.1,7.3-9.7S134.5,314.3,129.3,314.3z"/>
	<path d="M0,283.5V360h351.5v-76.5H0z M86.3,322.9c-1,0-2,0-3,0v13.4h-4.7v-35.2c2.3-0.4,4.5-0.7,6.8-0.7c5,0,9.7,0.8,12.1,5.7   c0.8,1.6,1.2,3.3,1.2,5.1C98.8,318.9,93.7,322.9,86.3,322.9z M115.7,315.1c-0.8-0.2-1.5-0.2-2.3-0.2c-2.3,0.1-4.3,1.3-5.5,3.3v18.1   h-4.4v-24.6h3.5l0.5,2.5c1.5-2,3.8-3.2,6.3-3.2c0.8,0,1.6,0.1,2.3,0.4L115.7,315.1z M129.2,337c-7.8,0-11.9-5.7-11.9-13.1   c0-7.2,4.5-13,12.1-13c7.6,0,11.9,5.8,11.9,13S136.9,337,129.2,337z M153.9,337c-3.2,0-5.2-1.3-6.3-3.7c-0.5-1.2-0.7-3.1-0.7-6.2   v-12.4h-3.6v-3h3.6v-4.7l4.4-1.7v6.4h6.9v2.9h-6.9v12.7c-0.1,1.4,0.1,2.8,0.5,4.1c0.4,1.3,1.7,2.1,3.1,2c1.6-0.1,3.2-0.8,4.5-1.8   l0.7,3.2C158.2,336.2,156.1,337,153.9,337z M182.4,324.9c-2.2,0.1-4.3,0-6.3,0h-10c0.2,4.5,2.7,8.6,7.6,8.6c2.9,0,5.7-1,7.9-2.9   l0.5,3.6c-2.6,1.9-5.8,2.9-9,2.9c-7.8,0-11.8-5.9-11.8-13.2c0-7,4-12.9,11.6-12.9c1.9,0,3.8,0.5,5.3,1.6c3.2,2.1,4.4,5.5,4.4,9.3   C182.6,322.8,182.5,323.9,182.4,324.9z M198,337c-7.3,0-12.2-5.5-12.2-12.7c0-7.7,5-13.4,12.8-13.4c2.7-0.1,5.3,0.8,7.5,2.3   l-0.9,3.4c-1.9-1.4-4.1-2.1-6.5-2.2c-5.2,0-8.3,4.4-8.3,9.3s2.6,9.8,8.1,9.8c2.5,0,4.9-0.8,7-2.2l0.8,3.3   C203.9,336.2,201,337,198,337z M218.8,337c-3.2,0-5.2-1.3-6.3-3.7c-0.5-1.2-0.7-3.1-0.7-6.2v-12.4h-3.6v-3h3.6v-4.7l4.4-1.7v6.4   h6.9v2.9h-6.9v12.7c-0.1,1.4,0.1,2.8,0.5,4.1c0.4,1.3,1.7,2.1,3.1,2c1.6-0.1,3.2-0.8,4.5-1.8l0.7,3.2   C223.1,336.2,221,337,218.8,337z M247.2,324.9c-2.2,0.1-4.3,0-6.3,0h-10c0.2,4.5,2.7,8.6,7.6,8.6c2.9,0,5.7-1,7.9-2.9l0.5,3.6   c-2.6,1.9-5.8,2.9-9,2.9c-7.8,0-11.8-5.9-11.8-13.2c0-7,4-12.9,11.6-12.9c1.9,0,3.8,0.5,5.4,1.6c3.2,2.1,4.4,5.5,4.4,9.3   C247.4,322.8,247.4,323.9,247.2,324.9z M272.3,336.3h-3.4l-0.5-2.2c-1.9,1.8-4.5,2.8-7.1,2.9c-6.6,0-10.7-5.5-10.7-12.8   c0-7.8,5.5-13.2,11.4-13.2c2.1,0,4.2,0.6,6,1.8v-13.2h4.4V336.3z"/>
	<path d="M86.5,304.4c-1,0-2,0-3.1,0.1v14.3c1,0,2,0.1,3,0.1c4.8,0,7.5-2.5,7.5-7.3S91.3,304.4,86.5,304.4z"/>
	<path d="M262.4,314.7c-3.3,0-7.2,2.9-7.2,9.3c0,6,2.7,9.4,6.7,9.4c2.3,0,4.4-1,6-2.6l0-14.3C266.3,315.3,264.4,314.7,262.4,314.7z"/>
</g>
<path d="M39.1,193.3c3.2,1.4,6.7,2,10.2,1.9c20.5,0,36.7-13.1,48.2-38.8l13.1-31.8h20.7l4.6-9h-22.1l0.8-2  c7.5-18,17.2-27.2,28.8-27.2c3.2,0.2,6.4,1,9.4,2.3l6.9-10.4c-3.8-1.6-7.8-2.4-11.9-2.5c-20.5,0-36.7,13.1-48.2,38.9l-0.4,0.9H61.3  l-4.6,9h38.8l-5,11.9H45.6l-4.6,8.9h46.2l-5,12.1c-7.5,18-17.1,27.2-28.5,27.2c-3.2-0.2-6.3-1-9.2-2.3L39.1,193.3z"/>
<path d="M270.7,128.1c-2.9-3-6.8-4.7-10.9-4.8c-2.5-0.1-4.9,0.6-7,2c-1.9,1.2-3.1,3.2-3.2,5.4c-0.1,1.5,0.4,3,1.4,4.2  c1.6,1.6,3.5,2.9,5.5,3.9l7.2,4c2.1,1.1,3.8,2.7,4.9,4.8c1,2,1.5,4.2,1.3,6.4c-0.1,5.7-2.9,11-7.4,14.4c-4.6,3.6-10.3,5.3-17.1,5.3  c-5.6,0.1-11.1-1.5-15.9-4.5l5.8-9.6c1.7,1.6,3.6,2.9,5.7,3.8c2,1,4.3,1.6,6.6,1.7c2.9,0.1,5.7-0.8,8-2.6c2.1-1.7,3.4-4.2,3.5-6.9  c0.1-1.5-0.4-2.9-1.4-4c-1.6-1.6-3.4-2.9-5.4-4l-7.3-4.1c-2.1-1.2-3.8-2.9-4.9-5c-1-2-1.5-4.2-1.4-6.4c0.2-5.1,2.7-9.8,6.9-12.7  c4.5-3.3,9.9-5,15.4-4.8c4.1,0,9.1,1.3,14.8,3.9L270.7,128.1z"/>
<path d="M226.1,126.3c-2.4-2-5.8-3-10.1-3c-6.3-0.1-12.4,2.8-16.3,7.8c-4.4,5.4-6.9,12.1-7.1,19c-0.3,4.6,0.8,8.3,3.3,11  c2.1,2.6,5.3,4.1,8.7,4.1c5.4-0.1,10.6-1.7,15.1-4.8l-1.7,10.4c-4.9,2.1-10.1,3.1-15.4,3.1c-7,0-12.3-2-15.8-6  c-3.5-4-5.1-9.3-4.7-16c0.6-10.8,4.1-19.7,10.4-26.6c5.9-6.7,14.4-10.5,23.3-10.4c5.5,0,9.7,1,12.7,2.8L226.1,126.3z"/>
<path d="M172,128.1c-2.9-3-6.8-4.8-11-4.8c-2.5-0.1-4.9,0.6-7,2c-1.9,1.2-3.1,3.2-3.2,5.4c-0.1,1.5,0.4,3,1.4,4.2  c1.6,1.6,3.4,2.9,5.5,3.9l7.2,4c2.1,1.1,3.8,2.7,4.9,4.8c1,2,1.5,4.2,1.3,6.4c-0.1,5.7-2.9,11-7.4,14.4c-4.6,3.6-10.3,5.3-17.1,5.3  c-5.6,0.1-11.1-1.5-15.9-4.5l5.8-9.6c1.7,1.6,3.6,2.9,5.7,3.8c2,1,4.3,1.6,6.6,1.7c2.9,0.1,5.7-0.8,8-2.6c2.1-1.7,3.4-4.2,3.5-6.9  c0.1-1.5-0.4-2.9-1.4-4c-1.6-1.6-3.4-2.9-5.4-4l-7.3-4.1c-2.1-1.2-3.8-2.9-4.9-5c-1-2-1.5-4.2-1.4-6.4c0.2-5.1,2.7-9.8,6.9-12.7  c4.5-3.3,9.9-5,15.4-4.8c4.1,0,9.1,1.3,14.8,3.9L172,128.1z"/>
<path d="M189.6,38.3c-3.8,0-7.6,0.1-11.5,0.3C167,39,155.9,40.2,145,42.3c-11.1,2-22,5.2-32.4,9.5c-5.4,2.2-10.5,4.9-15.3,8.1  c-2.5,1.7-4.8,3.5-7,5.5c-2.3,2.1-4.3,4.4-6.1,6.9c-1.9,2.6-3.3,5.6-4.2,8.7c-0.9,3.2-1.2,6.5-0.8,9.7c0.4,3.1,1.2,6.2,2.6,9  c0.1,0.3,0.3,0.6,0.4,0.9c0.2,0.3,0.6,0.5,1,0.5c0.7,0,1.3-0.6,1.3-1.3c0-0.2,0-0.3-0.1-0.5l0,0c-0.1-0.3-0.3-0.6-0.4-0.9  c-1-2.6-1.7-5.4-1.8-8.2c-0.2-2.8,0.2-5.5,1.1-8.1c0.9-2.6,2.3-5,4-7.2c3.4-4.3,7.6-7.9,12.4-10.7c4.7-2.8,9.6-5.2,14.7-7.2  c5.1-2,10.3-3.6,15.6-5c5.3-1.4,10.6-2.5,16-3.4c10.7-1.8,21.6-2.9,32.4-3.3c10.9-0.4,21.8-0.3,32.6,0.2c5.4,0.2,10.8,0.7,16.2,1.2  s10.7,1.3,16.1,2.3c10.7,1.8,21.2,4.9,31.1,9.3c5,2.3,9.7,5.1,14.1,8.4c2.2,1.7,4.3,3.5,6.2,5.5c2,2,3.8,4.2,5.4,6.5  c3.3,4.7,5.8,9.9,7.4,15.5c1.6,5.7,2.3,11.5,2.2,17.4c-0.3,11.8-3,23.5-7.9,34.2c-2.4,5.3-5.1,10.4-8.3,15.3  c-3.1,4.8-6.5,9.3-10.3,13.6c-3.6,4.2-7.6,8.2-11.8,11.9c-2.1,1.8-4.2,3.6-6.3,5.3s-4.4,3.3-6.6,4.8c-8.7,5.9-18.4,10.5-28.5,13.4  l-1.8,0.5c-0.5,0.1-1.4,0.4-1.9,0.5c-1.2,0.3-2.5,0.5-3.7,0.7c-2.5,0.4-5,0.7-7.5,0.9c-2.5,0.1-5,0.1-7.5,0s-5-0.4-7.6-0.8  c-10.3-1.9-20.3-5.3-29.6-10.2c-9.7-5-19-11-27.6-17.7l-0.1-0.1l0,0c-0.1,0-0.1-0.1-0.1-0.1l0,0c-0.2-0.1-0.4-0.2-0.6-0.2  c-0.6,0-1,0.4-1,1c0,0.2,0.1,0.4,0.2,0.6l0,0c7.3,9.4,17.4,18.8,29.6,27.2l-0.1-0.1c8.2,5.6,17.3,9.7,26.9,12.1  c2.9,0.7,5.8,1.2,8.7,1.5c3,0.3,5.9,0.5,8.9,0.4c3-0.1,6-0.3,8.9-0.8c1.5-0.3,3-0.5,4.4-0.9c0.9-0.2,1.3-0.3,2.1-0.5l2.2-0.6  c11.5-3.5,22.2-9.1,31.6-16.5c9.6-7.5,17.9-16.5,24.8-26.5c3.5-5,6.6-10.3,9.4-15.7c2.8-5.5,5.3-11.1,7.3-16.9  c3.8-10.8,5.9-22.2,6-33.7v-0.4c0-0.7,0-1.4,0-2.1c-0.1-6.1-1-12.2-2.7-18.1c-1.7-5.7-4.3-11.2-7.7-16.1c-3.3-4.8-7.3-9-11.8-12.7  c-4.4-3.6-9.2-6.7-14.2-9.3c-9.9-5.1-20.5-8.9-31.4-11.4c-5.4-1.3-10.9-2.3-16.3-3.2s-11-1.4-16.5-1.9s-11-0.7-16.6-0.8  c-1.5,0-3,0-4.5,0L189.6,38.3z"/>
</svg>
