<svg xmlns="http://www.w3.org/2000/svg" width="80" height="80" fill="#FFFFFF"><path d="M23.75 72.5c-.691 0-1.25.559-1.25 1.25v5c0 .691.559 1.25 1.25 1.25S25 79.441 25 78.75v-5c0-.691-.559-1.25-1.25-1.25zm0 0M58.75 72.5c-.691 0-1.25.559-1.25 1.25v5c0 .691.559 1.25 1.25 1.25S60 79.441 60 78.75v-5c0-.691-.559-1.25-1.25-1.25zm0 0M26.773 50.867c-2.273 1.621-3.843 3.184-3.906 3.25a1.247 1.247 0 000 1.766c.242.246.563.367.883.367.32 0 .64-.121.883-.367a31.706 31.706 0 013.594-2.977 1.251 1.251 0 00-1.454-2.039zm0 0M58.75 56.25c.32 0 .64-.121.883-.367a1.247 1.247 0 000-1.766c-.063-.066-1.633-1.629-3.906-3.25a1.255 1.255 0 00-1.747.293 1.255 1.255 0 00.293 1.746c2.098 1.492 3.579 2.961 3.59 2.977.246.246.567.367.887.367zm0 0"/><path d="M62.293 48.82l-8.695-2.32-1.012-6.02c.488-.523.95-1.066 1.379-1.636.57-.758.62-1.762.215-2.594.953-1.652 1.578-3.371 1.87-5.14C58.794 30.378 60 26.886 60 25c0-1.625-.637-2.445-1.25-2.863V18.75c0-4.637 0-18.75-17.5-18.75s-17.5 14.113-17.5 18.75v3.387c-.613.418-1.25 1.238-1.25 2.863 0 1.887 1.207 5.379 3.953 6.105.293 1.766.922 3.48 1.875 5.125-.43.844-.379 1.872.211 2.641.434.566.895 1.098 1.375 1.602l-1.012 6.023-8.695 2.32C14.922 50.226 8.75 54.984 8.75 63.75v15c0 .691.559 1.25 1.25 1.25s1.25-.559 1.25-1.25v-15c0-7.352 5.172-11.336 9.602-12.516l8.972-2.394c.656.367 1.95 1.058 3.574 1.746-1.386 2.516-2.078 5.227-2.113 5.363a1.246 1.246 0 00.91 1.512 1.246 1.246 0 001.516-.91c.008-.028.707-2.774 2.055-5.074.566.187 1.144.355 1.734.503v26.77a1.251 1.251 0 002.5 0V52.43c.422.039.84.07 1.25.07.41 0 .828-.031 1.25-.07v26.32c0 .691.559 1.25 1.25 1.25S45 79.441 45 78.75V51.98c.59-.148 1.168-.316 1.734-.503 1.344 2.293 2.047 5.046 2.055 5.078a1.25 1.25 0 002.426-.606c-.035-.136-.727-2.847-2.113-5.363a37.015 37.015 0 003.574-1.746l8.972 2.394c4.43 1.18 9.602 5.164 9.602 12.516v15c0 .691.559 1.25 1.25 1.25s1.25-.559 1.25-1.25v-15c0-8.766-6.172-13.523-11.457-14.93zM42.5 49.914v-3.758c2.578-.336 5.41-1.668 7.89-3.648l.731 4.332c-1.539.832-5.254 2.672-8.621 3.074zM31.379 46.84l.734-4.375c2.653 2.09 5.543 3.344 7.887 3.68v3.77c-3.367-.403-7.082-2.243-8.621-3.075zm-.496-29.57c2.09-2.336 5.578-3.52 10.367-3.52 4.77 0 8.25 1.176 10.344 3.496 2.058 2.277 2.195 5.094 2.18 6.035l-4.278 5.348c-1.762-.336-6.156-1.129-8.246-1.129-3.004 0-6.684.746-8.266 1.105l-4.257-5.324c-.024-.941.101-3.715 2.156-6.011zM41.25 43.75c-2.867 0-7.664-2.39-10.727-6.395.094-.128.188-.265.282-.398.008-.008.011-.02.02-.027 1.417-2.067 2.304-4.633 2.679-5.88C34.973 30.72 38.5 30 41.25 30c1.86 0 6.05.758 7.758 1.082.383 1.266 1.265 3.816 2.68 5.863a.217.217 0 00.023.032c.086.125.168.246.258.363-2.797 3.715-7.305 6.41-10.719 6.41zm10.129-13.469l2.371-2.968v1.437c0 1.684-.371 3.328-1.07 4.918a23.822 23.822 0 01-1.301-3.387zM28.75 28.75v-1.438l2.371 2.97c-.215.73-.652 2.046-1.297 3.378-.703-1.586-1.074-3.23-1.074-4.91zm27.5-.629v-3.648c.61-.301 1.004-.317 1.09-.274.023.012.16.219.16.801 0 .887-.469 2.309-1.25 3.121zM41.25 2.5c13.297 0 15 8.684 15 16.25v3.059c-.016.007-.035.007-.05.015-.192-1.676-.817-4.094-2.72-6.219-2.585-2.89-6.699-4.355-12.23-4.355-5.531 0-9.645 1.465-12.23 4.352-1.903 2.128-2.528 4.546-2.715 6.222-.02-.008-.035-.008-.055-.015V18.75c0-7.566 1.703-16.25 15-16.25zM25.16 24.2c.086-.044.48-.028 1.09.273v3.648C25.469 27.31 25 25.883 25 25c0-.582.137-.79.16-.8zm0 0"/><path d="M8.75 38.75c0 2.758 2.242 5 5 5s5-2.242 5-5v-22.5H20c.691 0 1.25-.559 1.25-1.25s-.559-1.25-1.25-1.25H7.5c-.691 0-1.25.559-1.25 1.25s.559 1.25 1.25 1.25h1.25zm7.5-22.5v2.5H15c-.691 0-1.25.559-1.25 1.25s.559 1.25 1.25 1.25h1.25v2.5H15c-.691 0-1.25.559-1.25 1.25s.559 1.25 1.25 1.25h1.25v2.5H15c-.691 0-1.25.559-1.25 1.25s.559 1.25 1.25 1.25h1.25v2.5H15c-.691 0-1.25.559-1.25 1.25s.559 1.25 1.25 1.25h1.25v2.5c0 1.379-1.121 2.5-2.5 2.5a2.502 2.502 0 01-2.5-2.5v-22.5zm0 0"/></svg>