<svg xmlns="http://www.w3.org/2000/svg" width="80" height="80" fill="#FFFFFF"><path d="M40.152 6.25a1.567 1.567 0 00-1.574 1.55 1.562 1.562 0 101.574-1.55zm0 0M40.082 15.625c-6.031-.043-10.973 4.824-11.02 10.855-.046 6.032 4.825 10.973 10.856 11.02H40c5.996 0 10.89-4.852 10.938-10.855.046-6.032-4.825-10.973-10.856-11.02zM40 34.375h-.059c-4.308-.031-7.785-3.563-7.754-7.871.032-4.29 3.532-7.754 7.813-7.754h.059c4.308.031 7.785 3.563 7.754 7.871-.032 4.29-3.532 7.754-7.813 7.754zm0 0M46.816 7.438a1.558 1.558 0 00-1.992.949c-.289.812.137 1.707.95 1.996 6.882 2.437 11.468 8.992 11.413 16.308a1.56 1.56 0 001.551 1.575h.012c.86 0 1.555-.692 1.563-1.551.066-8.649-5.36-16.395-13.497-19.277zm0 0"/><path d="M49.586 58.82c10.394-13.379 16.89-20.355 16.977-32.058C66.671 12.035 54.722 0 39.995 0c-14.55 0-26.45 11.785-26.559 26.363-.09 12.024 6.528 18.989 16.993 32.453-10.41 1.555-16.992 5.465-16.992 10.246 0 3.204 2.96 6.079 8.335 8.094C26.668 78.988 33.141 80 40 80c6.86 0 13.332-1.012 18.227-2.844 5.375-2.015 8.336-4.89 8.336-8.094 0-4.777-6.575-8.687-16.977-10.242zM16.563 26.387C16.66 13.523 27.155 3.125 39.995 3.125c12.996 0 23.54 10.625 23.441 23.613-.082 11.117-6.972 17.965-17.968 32.301a301.688 301.688 0 00-5.465 7.336 305.162 305.162 0 00-5.457-7.336c-11.453-14.937-18.07-21.27-17.984-32.652zM40 76.875c-13.414 0-23.438-4.125-23.438-7.813 0-2.734 5.993-6.19 16.067-7.386a277.986 277.986 0 016.094 8.289 1.565 1.565 0 002.55 0 285.047 285.047 0 016.114-8.285c10.062 1.195 16.05 4.648 16.05 7.383 0 3.687-10.023 7.812-23.437 7.812zm0 0"/></svg>