<svg xmlns="http://www.w3.org/2000/svg" width="80" height="80" fill="#FFFFFF"><path d="M30.672 37.328h18.672c2.203.016 3.984-1.766 4-3.969 0-1-.36-1.968-1.047-2.703a3.98 3.98 0 00-.266-5.625 4.012 4.012 0 00-2.703-1.047h-1.36c5.907-4.406 7.126-12.75 2.735-18.656-4.406-5.89-12.766-7.11-18.672-2.719C26.125 7 24.906 15.36 29.297 21.266A13.34 13.34 0 0032.03 24h-1.375c-2.203-.016-3.984 1.766-4 3.969 0 1 .36 1.968 1.047 2.703a3.98 3.98 0 00.266 5.625 3.924 3.924 0 002.703 1.031zm18.656-2.656H30.672a1.327 1.327 0 110-2.656h18.672c.734 0 1.328.593 1.328 1.328a1.34 1.34 0 01-1.344 1.328zm-20-21.344c0-5.89 4.781-10.672 10.672-10.672 5.89 0 10.672 4.781 10.672 10.672C50.672 19.218 45.89 24 40 24c-5.89 0-10.656-4.781-10.672-10.672zm1.344 13.344h18.672a1.327 1.327 0 110 2.656H30.672a1.327 1.327 0 110-2.656zm0 0M13.922 47.14L8.609 33.532c-.875-2.297-3.453-3.437-5.75-2.562A4.437 4.437 0 00.156 36.25l4.532 16.14a6.67 6.67 0 004.046 4.5l13.672 5.25-3.593 13.204c-.094.312-.141.656-.141.984A3.681 3.681 0 0022.359 80h11.313c2.031 0 3.672-1.656 3.687-3.688V49.328c0-3.687-2.984-6.656-6.672-6.672h-10.53a4.11 4.11 0 00-4.095 3.328c-.109.672-.046 1.36.172 2h-1.078a1.282 1.282 0 01-1.234-.843zM20 50.673h9.328a1.327 1.327 0 100-2.656H20a1.327 1.327 0 01-1.328-1.328c0-.079 0-.157.015-.235a1.416 1.416 0 011.454-1.094h10.53c2.204 0 4 1.797 4 4v26.985c0 .562-.452 1.015-1.015 1.015H22.344a1.014 1.014 0 01-1.016-1.015c0-.094.016-.188.031-.266l3.922-14.36a1.322 1.322 0 00-.812-1.593L9.687 54.406a4.009 4.009 0 01-2.437-2.718L2.719 35.561a1.78 1.78 0 013.39-1.063l5.313 13.61a3.995 3.995 0 003.734 2.563zm0 0M63.953 46a4.098 4.098 0 00-4.094-3.328H49.33c-3.688 0-6.657 2.984-6.673 6.672v26.984c0 2.031 1.657 3.672 3.688 3.688h11.312a3.694 3.694 0 003.688-3.688 3.38 3.38 0 00-.14-.969l-3.595-13.203 13.672-5.25a6.713 6.713 0 004.047-4.484l4.531-16.156c.625-2.375-.796-4.813-3.171-5.422a4.453 4.453 0 00-5.282 2.703l-5.328 13.625c-.203.516-.687.86-1.25.86h-1.062c.234-.673.297-1.36.187-2.032zm.875 4.672a4.01 4.01 0 003.734-2.563l5.329-13.625c.343-.922 1.375-1.375 2.296-1.03a1.762 1.762 0 011.094 2.077L72.75 51.688a3.985 3.985 0 01-2.438 2.703l-14.796 5.687c-.641.25-.985.938-.813 1.594l3.922 14.36a1.025 1.025 0 01-.719 1.25 1.376 1.376 0 01-.265.03H46.328a1.014 1.014 0 01-1.016-1.015V49.328c0-2.203 1.797-4 4-4h10.532a1.432 1.432 0 011.453 1.094 1.342 1.342 0 01-1.078 1.547c-.078.015-.157.015-.235.015h-9.328a1.327 1.327 0 100 2.657h14.172zm0 0"/><path d="M35.578 14.125h1.688c.14 1.219.047 1.656-.922 2.969l-1.032 1.297a1.177 1.177 0 00-.14 1.234 1.18 1.18 0 001.047.672l8.093.078h.016c.64 0 1.172-.516 1.172-1.156a1.19 1.19 0 00-1.156-1.188l-5.735-.047c.922-1.343 1.172-2.297 1.032-3.843h1.609a1.18 1.18 0 001.172-1.172 1.18 1.18 0 00-1.172-1.172h-2.234c-.375-.594-1-1.735-.985-2.656 0-.594.25-1.016.782-1.329.828-.468 2.171-.484 2.937-.015.61.36 1.063.875 1.188 1.328a1.18 1.18 0 001.453.813 1.18 1.18 0 00.812-1.454c-.297-1.03-1.094-2-2.219-2.687-1.484-.906-3.718-.906-5.297-.016-1.28.719-1.984 1.922-1.984 3.36 0 .953.313 1.89.656 2.656h-.78a1.18 1.18 0 00-1.173 1.172c0 .625.516 1.156 1.172 1.156zm0 0"/></svg>