<svg xmlns="http://www.w3.org/2000/svg" width="80" height="80" fill="#282D37"><path d="M77.262 52.844h-4.367c.105-1.887.074-5.293-1.168-7.668V22.09h.394a2.739 2.739 0 002.738-2.738v-4.754a2.742 2.742 0 00-2.738-2.743h-5.715c.188-2.902.211-9.445-3.199-11.414C61.355-.625 58.93.238 56 3.011 54.594 4.34 53.418 5.774 52.848 6.5h-5.149c-.566-.727-1.742-2.16-3.148-3.488C41.617.238 39.195-.625 37.344.442c-3.41 1.968-3.39 8.511-3.2 11.413h-5.277a2.742 2.742 0 00-2.738 2.743v4.754a2.739 2.739 0 002.738 2.738h.395v10.77h-4.52c-.57-.75-1.754-2.231-3.164-3.602-2.945-2.867-5.383-3.758-7.242-2.649-3.402 2.032-3.367 8.82-3.176 11.786H2.738A2.742 2.742 0 000 41.133v4.773c0 1.489 1.191 2.7 2.664 2.739v5.937a1.177 1.177 0 002.352 0v-5.934h17.957v29.004H6.188a1.174 1.174 0 01-1.172-1.175v-17.2c0-.648-.528-1.172-1.176-1.172-.649 0-1.176.524-1.176 1.172v17.2A3.53 3.53 0 006.187 80h67.708a3.527 3.527 0 003.523-3.523V62.262A2.74 2.74 0 0080 59.532v-3.95a2.744 2.744 0 00-2.738-2.738zm-54.29-6.547H2.739a.392.392 0 01-.39-.39v-4.774c0-.215.175-.39.39-.39h20.235zm.005-7.906l-9.457.004a31.724 31.724 0 01-.012-3.95c.199-3.09.922-5.156 2.031-5.82.152-.09.328-.133.524-.133 1.69 0 4.882 3.168 6.914 5.922zm47.57 14.453h-7.16v-3.985c1.222-1.472 3.414-3.562 4.863-3.699.309-.031.523.035.73.215 1.434 1.246 1.72 4.883 1.567 7.469zM54.602 8.066c2.261-2.976 5.96-6.437 7.433-5.59 1.938 1.118 2.266 5.97 2.02 9.38h-9.453zm0 6.141h17.52c.214 0 .39.176.39.39v4.755c0 .214-.176.39-.39.39h-17.52zm-6.309-5.36h3.96v3.008h-3.96zm0 5.36h3.96v5.535h-3.96zm3.57 26.535c.215 0 .39.176.39.39v2.333c-.644-.34-1.308-.578-1.96-.64-.945-.095-1.809.179-2.5.777-.781.68-1.316 1.636-1.684 2.699H31.63v-5.559zm-8.418-2.347c.188-2.965.223-9.754-3.18-11.786-1.859-1.109-4.296-.218-7.242 2.649-.507.496-.984 1-1.414 1.484V22.09h14.336v16.305zm-6.953-30.32c.2-2.973.918-4.962 2.024-5.598 1.472-.848 5.172 2.613 7.43 5.59v3.788h-9.442a29.814 29.814 0 01-.012-3.78zm-7.625 11.667a.392.392 0 01-.39-.39v-4.754c0-.215.175-.391.39-.391h17.078v5.535zm-3.543 15.465h3.957v3.184h-3.957zm3.957 42.445h-3.96V48.648h3.96zm0-31.355h-3.96v-5.555h3.96zm2.348-11.879c2.266-3.074 5.973-6.664 7.433-5.793 1.954 1.168 2.282 6.227 2.032 9.77h-9.465zm0 43.234V48.648H45.57c-.222 1.575-.207 3.13-.148 4.196h-4.367a2.744 2.744 0 00-2.739 2.738v3.945a2.74 2.74 0 002.582 2.735v14.215c0 .414.07.808.204 1.175zm23.3 0H44.423a1.177 1.177 0 01-1.176-1.175V62.27H54.93zm0-17.73H41.056a.393.393 0 01-.39-.395v-3.945c0-.215.175-.39.39-.39H54.93zm0-7.078h-7.16c-.152-2.586.133-6.223 1.567-7.469.207-.18.426-.246.73-.215 1.45.137 3.641 2.227 4.864 3.7zm-.327-7.696V32.023a1.174 1.174 0 10-2.348 0v6.372h-3.961V22.09h3.96v5.238a1.174 1.174 0 002.349 0V22.09h14.777v20.867a3.378 3.378 0 00-1.352-.133c-2.586.246-5.355 3.246-6.37 4.446H56.66a21.603 21.603 0 00-2.058-2.122zm2.675 7.696V49.62h3.762v3.223zm3.762 2.347v4.73h-3.762v-4.73zM75.07 76.477c0 .648-.527 1.175-1.175 1.175H63.387V72.31a1.174 1.174 0 10-2.348 0v5.343h-3.762V62.27h3.762v5.343c0 .649.523 1.172 1.176 1.172a1.17 1.17 0 001.172-1.172V62.27H75.07zm2.582-16.95a.393.393 0 01-.39.395H63.387v-4.73h13.875c.215 0 .39.175.39.39zm0 0"/></svg>