<svg xmlns="http://www.w3.org/2000/svg" width="80" height="80" fill="#282D37"><path d="M72.969 9.531H25.78a7.037 7.037 0 00-7.031 7.031v7.415a11.718 11.718 0 00-7.086 5.308L1.672 45.941A11.713 11.713 0 000 51.973v16.152a2.346 2.346 0 002.344 2.344H21.09a7.072 7.072 0 005.605-2.781l1.742-2.18c.887 2.87 3.563 4.96 6.72 4.96 3.238 0 5.968-2.198 6.784-5.183.801.32 1.676.496 2.59.496 3.239 0 5.969-2.199 6.785-5.183.801.32 1.676.496 2.59.496a7.037 7.037 0 007.032-7.032V51.72h12.03A7.037 7.037 0 0080 44.687V16.564a7.037 7.037 0 00-7.031-7.032zM37.5 63.438a2.346 2.346 0 01-2.344 2.343 2.346 2.346 0 01-2.343-2.344V60.04l4.687-5.86zm4.234-22.055L23.012 64.785c-.016.02-.028.04-.043.059a2.328 2.328 0 01-1.88.937H4.689V51.973a7.02 7.02 0 011.003-3.618l9.993-16.66a7.04 7.04 0 013.066-2.758v11.868c0 2.898 1.664 5.386 4.34 6.496 2.68 1.11 5.613.523 7.664-1.524l7.433-7.433a2.35 2.35 0 013.196-.114 2.349 2.349 0 01.351 3.153zm5.141 17.367a2.346 2.346 0 01-2.344 2.344 2.346 2.346 0 01-2.343-2.344v-7.031h4.687v7.031zm9.375-4.688a2.346 2.346 0 01-2.344 2.344 2.346 2.346 0 01-2.343-2.343v-2.344h4.687zm16.719-7.03h-29.75l2.203-2.755.047-.058c2.207-2.942 1.758-7.13-1.016-9.532-2.773-2.406-6.98-2.257-9.582.34l-7.434 7.434c-1.027 1.027-2.214.648-2.554.508-.34-.14-1.445-.711-1.445-2.164v-7.852h51.874v11.734a2.346 2.346 0 01-2.343 2.344zm2.344-18.75H23.437v-4.688h51.876zm0-9.376H23.437v-2.343a2.346 2.346 0 012.344-2.344H72.97a2.346 2.346 0 012.344 2.344zm0 0"/><path d="M68.281 37.656h-9.687A2.346 2.346 0 0056.25 40a2.346 2.346 0 002.344 2.344h9.687A2.346 2.346 0 0070.625 40a2.346 2.346 0 00-2.344-2.344zm0 0"/></svg>