<svg xmlns="http://www.w3.org/2000/svg" width="80" height="80" fill="#FFFFFF"><path d="M59.973 40.148c0-11.039-8.95-19.992-19.989-19.992-11.043 0-19.992 8.953-19.992 19.992 0 11.043 8.95 19.993 19.992 19.993 11.036-.012 19.977-8.957 19.989-19.993zm-29.32 14.579v-2.582a6.62 6.62 0 014.605-6.325l3.5 8.184a1.334 1.334 0 002.449 0l3.5-8.184a6.62 6.62 0 014.605 6.325v2.582a17.213 17.213 0 01-18.66 0zm7.359-9.247h3.941l-1.969 4.606zm13.965 7.141v-.476a9.347 9.347 0 00-9.329-9.329h-5.332c-5.144.012-9.312 4.18-9.328 9.329v.476a17.324 17.324 0 0111.996-29.828 17.324 17.324 0 0111.992 29.828zm0 0"/><path d="M46.648 36.152v-1.336c.735 0 1.332-.593 1.332-1.332v-1.332a6.67 6.67 0 00-6.664-6.664h-2.668a6.675 6.675 0 00-6.664 6.664v1.332c0 .739.598 1.332 1.336 1.332v1.336a6.665 6.665 0 0013.328 0zm-8-8h2.668a4 4 0 013.996 4h-5.015l-2.383-1.191a1.33 1.33 0 00-1.539.25l-.941.941h-.782a4 4 0 013.996-4zm1.336 11.996c-2.21 0-4-1.789-4-3.996v-1.336c.356 0 .692-.14.942-.39l.656-.653 1.805.907c.183.09.39.136.597.136h3.996v1.336a3.996 3.996 0 01-3.996 3.996zm0 0"/><path d="M79.965 40.148a5.324 5.324 0 00-4.395-5.234 35.636 35.636 0 00-6.726-16.21 5.303 5.303 0 00-.586-6.825 5.472 5.472 0 00-6.82-.582 35.66 35.66 0 00-16.22-6.735A5.31 5.31 0 0039.985.168a5.315 5.315 0 00-5.238 4.394 35.617 35.617 0 00-16.219 6.735 5.471 5.471 0 00-6.82.582 5.298 5.298 0 00-.586 6.824 35.588 35.588 0 00-6.723 16.211A5.314 5.314 0 000 40.148a5.318 5.318 0 004.398 5.239 35.622 35.622 0 006.727 16.207 5.318 5.318 0 007.414 7.414 35.622 35.622 0 0016.207 6.726 5.318 5.318 0 005.238 4.399 5.314 5.314 0 005.235-4.399 35.636 35.636 0 0016.21-6.726c2.114 1.5 5 1.254 6.833-.578a5.313 5.313 0 00.578-6.832 35.6 35.6 0 006.73-16.211 5.328 5.328 0 004.395-5.239zm-2.664 0a2.666 2.666 0 11-5.332.005 2.666 2.666 0 015.332-.005zM64.488 12.98a2.664 2.664 0 011.883 4.551 2.728 2.728 0 01-3.77 0 2.665 2.665 0 01-.574-2.906 2.66 2.66 0 012.461-1.645zM39.984 2.832a2.666 2.666 0 11-.003 5.333 2.666 2.666 0 01.003-5.333zm-26.39 10.93a2.656 2.656 0 012.594-.727c.93.242 1.66.969 1.902 1.902a2.67 2.67 0 01-.727 2.594 2.735 2.735 0 01-3.77 0 2.669 2.669 0 010-3.77zM2.664 40.148a2.666 2.666 0 115.331.004 2.666 2.666 0 01-5.33-.004zm10.93 26.391a2.669 2.669 0 010-3.77 2.662 2.662 0 013.77 0 2.662 2.662 0 010 3.77 2.728 2.728 0 01-3.77 0zm26.39 10.93a2.666 2.666 0 11-.005-5.333 2.666 2.666 0 01.005 5.333zm0-8a5.324 5.324 0 00-5.02 3.601 33.027 33.027 0 01-14.706-6.101 5.26 5.26 0 00-1.012-6.086 5.46 5.46 0 00-6.07-.992 32.997 32.997 0 01-6.114-14.723 5.3 5.3 0 003.606-5.02 5.3 5.3 0 00-3.605-5.02 32.968 32.968 0 016.101-14.702 5.297 5.297 0 007.094-7.094A32.938 32.938 0 0134.965 7.23a5.297 5.297 0 0010.039 0 32.924 32.924 0 0114.703 6.102 5.299 5.299 0 007.094 7.094 32.924 32.924 0 016.101 14.703 5.297 5.297 0 00-3.601 5.02 5.297 5.297 0 003.601 5.019 32.947 32.947 0 01-6.12 14.723 5.46 5.46 0 00-6.067.992 5.268 5.268 0 00-1.016 6.086 32.983 32.983 0 01-14.695 6.101 5.324 5.324 0 00-5.02-3.601zm26.387-2.93a2.728 2.728 0 01-3.77 0 2.669 2.669 0 010-3.77 2.662 2.662 0 013.77 0 2.662 2.662 0 010 3.77zm0 0"/></svg>