<svg xmlns="http://www.w3.org/2000/svg" width="80" height="80" fill="#282D37"><path d="M51.25 72.5c.691 0 1.25-.559 1.25-1.25S51.941 70 51.25 70h-10c-.691 0-1.25.559-1.25 1.25s.559 1.25 1.25 1.25zm0 0M3.75 72.5h10c.691 0 1.25-.559 1.25-1.25S14.441 70 13.75 70h-10c-.691 0-1.25.559-1.25 1.25s.559 1.25 1.25 1.25zm0 0M35 75c-.691 0-1.25.559-1.25 1.25s.559 1.25 1.25 1.25h5c.691 0 1.25-.559 1.25-1.25S40.691 75 40 75zm0 0M8.75 76.25c0 .691.559 1.25 1.25 1.25h17.5c.691 0 1.25-.559 1.25-1.25S28.191 75 27.5 75H10c-.691 0-1.25.559-1.25 1.25zm0 0"/><path d="M73.879 31.598C71.82 30.566 69.113 30 66.25 30c-.852 0-1.703.05-2.55.156l7.183-7.187a1.247 1.247 0 000-1.766c-1.297-1.297-3.375-1.558-5.848-.73-2.183.726-4.5 2.242-6.527 4.265-.352.352-.688.715-1.008 1.082v-9.57c0-.691-.559-1.25-1.25-1.25-1.832 0-3.488 1.285-4.652 3.621C50.566 20.68 50 23.387 50 26.25c-.004 1.402.137 2.8.426 4.176A20.281 20.281 0 0046.25 30c-2.863 0-5.57.566-7.629 1.598C36.285 32.762 35 34.418 35 36.25c0 .691.559 1.25 1.25 1.25h8.676c-2.664 3.8-3.227 7.633-1.223 9.633a1.247 1.247 0 001.766 0l6.37-6.367c.59.93 1.56 1.55 2.65 1.699a3.756 3.756 0 003.011-.922c.055.05.113.098.172.145 1.469 3.648 2.3 7.804 2.43 12.109-3.051.226-5.993 1.367-8.563 3.336-.156.12-.312.246-.465.37-7.02.048-13.344 2.895-16.722 7.497H3.75v2.5h52.5c5.008 0 8.75 1.98 8.75 3.75S61.258 75 56.25 75c-.691 0-1.25.559-1.25 1.25s.559 1.25 1.25 1.25c2.863 0 5.57-.566 7.629-1.598 2.336-1.164 3.621-2.82 3.621-4.652 0-1.402-.754-2.695-2.148-3.75H76.25c.418 0 .805-.207 1.04-.55.23-.348.276-.786.116-1.173-1.437-3.527-3.668-6.515-6.445-8.644A16.897 16.897 0 0067.313 55h.187c0-6.277-1.25-12.281-3.633-17.5H76.25c.691 0 1.25-.559 1.25-1.25 0-1.832-1.285-3.488-3.621-4.652zM55 18.082v11.406c-.367.715-.664 1.461-.89 2.227l-.231-.117a9.536 9.536 0 00-.637-.293 16.799 16.799 0 01-.742-5.055c0-3.836 1.16-6.93 2.5-8.168zm-3.586 19.574l-6.418 6.418c-.074-1.582.938-4.078 3.106-6.574h3.363c-.02.05-.035.102-.05.156zM38.082 35c1.238-1.34 4.332-2.5 8.168-2.5 3.836 0 6.93 1.16 8.168 2.5zM55 40c-.691 0-1.25-.559-1.25-1.25s.559-1.25 1.25-1.25 1.25.559 1.25 1.25S55.691 40 55 40zm1.328-6.777c.293-1.993 1.79-4.555 3.95-6.72 2.71-2.71 5.718-4.077 7.542-4.003l-9.004 9.004c-.066.031-.132.058-.195.094a8.238 8.238 0 00-2.293 1.625zM60 40c-.691 0-1.25-.559-1.25-1.25s.559-1.25 1.25-1.25 1.25.559 1.25 1.25S60.691 40 60 40zM45.43 65h-7.774c2.582-2.54 6.457-4.281 10.746-4.82-1.199 1.468-2.199 3.09-2.972 4.82zm24.011-5.879A17.584 17.584 0 0174.297 65H48.203a17.584 17.584 0 014.856-5.879c2.453-1.879 5.285-2.871 8.191-2.871 2.906 0 5.738.992 8.191 2.871zm-4.453-4.906a15.332 15.332 0 00-2.383-.403 38.906 38.906 0 00-1.984-11.363c.8-.136 1.54-.531 2.098-1.12a40.569 40.569 0 012.27 12.886zM58.082 35c1.238-1.34 4.332-2.5 8.168-2.5 3.836 0 6.93 1.16 8.168 2.5zm0 0"/><path d="M33.75 70h-12.5c-.691 0-1.25.559-1.25 1.25s.559 1.25 1.25 1.25h12.5c.691 0 1.25-.559 1.25-1.25S34.441 70 33.75 70zm0 0M22.5 10a6.248 6.248 0 00-6.25 6.25 6.248 6.248 0 006.25 6.25 6.248 6.248 0 006.25-6.25A6.258 6.258 0 0022.5 10zm0 10a3.751 3.751 0 010-7.5c2.07 0 3.75 1.68 3.75 3.75A3.756 3.756 0 0122.5 20zm0 0M23.75 6.25v-2.5c0-.691-.559-1.25-1.25-1.25s-1.25.559-1.25 1.25v2.5c0 .691.559 1.25 1.25 1.25s1.25-.559 1.25-1.25zm0 0M36.25 16.25c0-.691-.559-1.25-1.25-1.25h-2.5c-.691 0-1.25.559-1.25 1.25s.559 1.25 1.25 1.25H35c.691 0 1.25-.559 1.25-1.25zm0 0M23.75 28.75v-2.5c0-.691-.559-1.25-1.25-1.25s-1.25.559-1.25 1.25v2.5c0 .691.559 1.25 1.25 1.25s1.25-.559 1.25-1.25zm0 0M8.75 16.25c0 .691.559 1.25 1.25 1.25h2.5c.691 0 1.25-.559 1.25-1.25S13.191 15 12.5 15H10c-.691 0-1.25.559-1.25 1.25zm0 0M16.313 8.297l-1.766-1.77a1.248 1.248 0 00-1.758.012 1.248 1.248 0 00-.012 1.758l1.77 1.765c.312.325.777.458 1.215.34a1.24 1.24 0 00.89-.89 1.242 1.242 0 00-.34-1.215zm0 0M30.453 10.063l1.77-1.77a1.248 1.248 0 00-.012-1.758 1.248 1.248 0 00-1.758-.008l-1.765 1.77a1.246 1.246 0 00.015 1.75c.48.484 1.262.488 1.75.015zm0 0M30.453 25.973c.492.48 1.277.472 1.758-.012.484-.48.492-1.266.012-1.758l-1.77-1.765a1.242 1.242 0 00-1.215-.34 1.24 1.24 0 00-.89.89c-.118.438.015.903.34 1.215zm0 0M12.777 24.203c-.32.317-.449.781-.336 1.215.118.434.457.773.891.89.434.114.898-.015 1.215-.335l1.765-1.77c.325-.312.458-.777.34-1.215a1.24 1.24 0 00-.89-.89 1.242 1.242 0 00-1.215.34zm0 0M18.75 42.5c.691 0 1.25.559 1.25 1.25S20.559 45 21.25 45s1.25-.559 1.25-1.25.559-1.25 1.25-1.25 1.25.559 1.25 1.25.559 1.25 1.25 1.25 1.25-.559 1.25-1.25a3.75 3.75 0 00-2.219-3.426 3.75 3.75 0 00-4.031.633 3.75 3.75 0 00-4.031-.633A3.75 3.75 0 0015 43.75c0 .691.559 1.25 1.25 1.25s1.25-.559 1.25-1.25.559-1.25 1.25-1.25zm0 0M5 51.25c0 .691.559 1.25 1.25 1.25s1.25-.559 1.25-1.25S8.059 50 8.75 50s1.25.559 1.25 1.25.559 1.25 1.25 1.25 1.25-.559 1.25-1.25.559-1.25 1.25-1.25 1.25.559 1.25 1.25.559 1.25 1.25 1.25 1.25-.559 1.25-1.25a3.75 3.75 0 00-2.219-3.426 3.75 3.75 0 00-4.031.633 3.75 3.75 0 00-4.031-.633A3.75 3.75 0 005 51.25zm0 0"/></svg>