<svg xmlns="http://www.w3.org/2000/svg" width="80" height="80" fill="#282D37"><path d="M69.09 0H80v80H69.09zm0 0M47.273 25.453h10.91V80h-10.91zm0 0M25.453 50.91h10.91V80h-10.91zm0 0M3.637 65.453h10.91V80H3.637zm0 0M18.18 0C8.14 0 0 8.14 0 18.184c0 10.043 8.14 18.183 18.184 18.183 10.039-.004 18.18-8.144 18.18-18.187A18.122 18.122 0 0018.18 0zm4.656 19.602a1.179 1.179 0 01-.281.324 1.357 1.357 0 01-.39.23 1.365 1.365 0 01-.47.086h-4.883l-.269 2.352a6.114 6.114 0 01-.41 1.601c-.211.48-.492.926-.844 1.317.465-.102.93-.188 1.39-.25.458-.059.915-.09 1.376-.09h7.379l-.227 1.703c-.035.219-.105.43-.215.625-.113.21-.262.402-.433.57a2.348 2.348 0 01-.625.422 1.868 1.868 0 01-.758.156H9.563l.343-2.554c.645-.133 1.137-.383 1.473-.75.336-.364.55-.903.625-1.617l.43-3.489h-2.075l.215-1.668a.957.957 0 01.137-.363c.07-.121.164-.23.277-.32.117-.098.25-.176.39-.235a1.21 1.21 0 01.47-.093h.914l.383-3.149a8.004 8.004 0 01.78-2.57 7.326 7.326 0 011.614-2.137 7.66 7.66 0 012.387-1.46 8.43 8.43 0 013.09-.54 7.435 7.435 0 012.195.285c.586.168 1.14.434 1.64.782.458.324.856.734 1.169 1.203.316.48.578.992.78 1.53l-1.85 1.095c-.352.18-.743.265-1.134.257a1.323 1.323 0 01-.945-.511 8.061 8.061 0 00-.48-.54 1.965 1.965 0 00-.47-.37 1.724 1.724 0 00-.57-.207 3.797 3.797 0 00-.757-.067 2.8 2.8 0 00-2.063.836c-.554.555-.894 1.352-1.015 2.387l-.387 3.176h6.043l-.203 1.668c-.02.132-.067.257-.133.375zm0 0"/></svg>