<svg xmlns="http://www.w3.org/2000/svg" width="80" height="80" fill="#FFFFFF"><path d="M26.73 68.477c-10.753-.61-19.32-9.551-19.32-20.457 0-11.301 9.192-20.497 20.492-20.497 5.051 0 9.907 1.856 13.66 5.223a20.518 20.518 0 016.833 15.27 20.52 20.52 0 01-4.88 13.27 15.743 15.743 0 007.415 2.487c3.191-4.644 4.875-10.066 4.875-15.757 0-6.094-1.93-11.883-5.578-16.739a28.047 28.047 0 00-11.164-8.84 27.49 27.49 0 00-7.622-2.097c5.313-3.914 7.344-7.192 7.344-10.047 0-3.43-2.781-6.211-6.21-6.211-1.864 0-3.536.82-4.673 2.121a6.21 6.21 0 00-10.883 4.09c0 2.86 2.032 6.137 7.344 10.047C10.645 22.082 0 33.832 0 48.02c0 15.382 12.516 27.898 27.902 27.898 2.125 0 4.215-.234 6.246-.7a32.81 32.81 0 01-7.418-6.741zm0 0"/><path d="M52.098 20.117c-2.125 0-4.215.235-6.246.7a32.81 32.81 0 017.418 6.742c10.753.609 19.32 9.55 19.32 20.46 0 11.297-9.192 20.493-20.492 20.493-5.051 0-9.903-1.856-13.66-5.223a20.518 20.518 0 01-6.833-15.27 20.52 20.52 0 014.88-13.269 15.743 15.743 0 00-7.415-2.488c-3.191 4.644-4.875 10.066-4.875 15.754 0 6.097 1.93 11.886 5.582 16.742a28.008 28.008 0 0011.16 8.84 27.708 27.708 0 0011.16 2.32C67.485 75.918 80 63.402 80 48.016c0-15.383-12.516-27.899-27.902-27.899zm0 0"/></svg>