<svg xmlns="http://www.w3.org/2000/svg" width="80" height="80" fill="#FFFFFF"><path d="M78.066 7.293c-1.304-1.305-2.875-1.957-4.71-1.957H6.667c-1.832 0-3.402.652-4.711 1.957C.652 8.602 0 10.168 0 12.003v45.349c0 1.836.652 3.402 1.957 4.71 1.309 1.305 2.879 1.958 4.711 1.958h22.676c0 1.054-.223 2.14-.668 3.25a30.197 30.197 0 01-1.332 2.918c-.446.835-.668 1.445-.668 1.835 0 .72.262 1.348.793 1.875.527.528 1.152.793 1.875.793h21.34c.722 0 1.347-.265 1.875-.793.527-.527.793-1.156.793-1.875 0-.363-.223-.968-.668-1.812a29.865 29.865 0 01-1.332-2.961c-.446-1.125-.668-2.203-.668-3.23h22.671c1.836 0 3.407-.653 4.711-1.957 1.305-1.31 1.957-2.876 1.957-4.711V12.004c.004-1.836-.652-3.402-1.957-4.711zM74.691 46.68c0 .363-.132.675-.398.941a1.281 1.281 0 01-.938.395H6.668c-.36 0-.672-.133-.938-.395a1.297 1.297 0 01-.394-.941V12.004c0-.363.133-.676.394-.938.266-.265.579-.394.938-.394h66.687c.364 0 .676.129.938.394.266.266.398.579.398.938zm0 0"/></svg>