<svg xmlns="http://www.w3.org/2000/svg" width="80" height="80" fill="#FFFFFF"><path d="M79.848 43.695a31.64 31.64 0 00-9.09-19.18 31.366 31.366 0 00-15.438-8.472V12.07a5.32 5.32 0 004.032-5.152 5.321 5.321 0 00-5.313-5.316H42.79a5.321 5.321 0 00-5.312 5.316 5.32 5.32 0 004.03 5.152v3.98a31.372 31.372 0 00-15.386 8.466c-.96.96-1.844 1.964-2.652 3.011-.043-.004-.082-.007-.121-.007H12.215a1.562 1.562 0 100 3.125h9.125a31.39 31.39 0 00-2.774 6.007H1.563a1.562 1.562 0 100 3.125h16.12a31.827 31.827 0 00-.773 6.004H10a1.562 1.562 0 100 3.125h6.96c.13 2.024.458 4.035.974 6.008H7.812a1.562 1.562 0 100 3.125h11.122a31.308 31.308 0 007.187 11.113 31.621 31.621 0 0019.2 9.094c1.03.102 2.062.152 3.093.152 6.098 0 12.117-1.765 17.227-5.093a1.562 1.562 0 10-1.707-2.618c-11.18 7.282-26.153 5.708-35.606-3.742-11.086-11.09-11.086-29.129 0-40.218 11.09-11.09 29.129-11.09 40.219 0 9.437 9.437 11.02 24.398 3.762 35.574a1.563 1.563 0 002.62 1.703c3.88-5.973 5.626-13.184 4.919-20.309zM40.602 6.918c0-1.207.98-2.188 2.187-2.188h11.25c1.207 0 2.188.98 2.188 2.188 0 1.203-.98 2.187-2.188 2.187H42.79a2.191 2.191 0 01-2.187-2.187zm4.03 8.598V12.23h7.563v3.278a31.803 31.803 0 00-7.562.008zm0 0"/><path d="M69.652 66.484a1.58 1.58 0 00-1.105.457c-.29.293-.457.696-.457 1.106 0 .41.168.816.457 1.105a1.57 1.57 0 001.105.457c.41 0 .813-.164 1.106-.457.289-.289.457-.695.457-1.105 0-.41-.168-.813-.457-1.106a1.588 1.588 0 00-1.106-.457zm0 0M48.438 22.594c-13.364 0-24.239 10.875-24.239 24.242 0 13.363 10.875 24.238 24.238 24.238 13.368 0 24.239-10.875 24.239-24.238 0-13.367-10.871-24.242-24.239-24.242zm0 45.355c-11.641 0-21.114-9.472-21.114-21.113 0-11.645 9.473-21.117 21.113-21.117 11.645 0 21.114 9.472 21.114 21.117 0 11.64-9.469 21.113-21.114 21.113zm0 0"/><path d="M58.324 34.742l-7.742 7.738a4.812 4.812 0 00-2.145-.5c-.769 0-1.496.18-2.144.5l-3.465-3.464a1.56 1.56 0 10-2.207 2.21l3.461 3.465c-.32.645-.5 1.375-.5 2.145a4.863 4.863 0 004.855 4.855 4.86 4.86 0 004.856-4.855c0-.77-.18-1.5-.5-2.145l7.512-7.511.226-.23a1.56 1.56 0 00-2.207-2.208zm-9.886 13.824a1.731 1.731 0 111.73-1.73c0 .953-.777 1.73-1.73 1.73zm0 0M65.145 45.293h-1.45c-.86 0-1.562.7-1.562 1.562 0 .864.703 1.563 1.562 1.563h1.45a1.562 1.562 0 100-3.125zm0 0M33.18 45.254h-1.45c-.859 0-1.562.7-1.562 1.562 0 .864.703 1.563 1.562 1.563h1.45a1.562 1.562 0 100-3.125zm0 0M48.457 33.137c.863 0 1.563-.7 1.563-1.563V30.13a1.562 1.562 0 10-3.125 0v1.445c0 .863.699 1.563 1.562 1.563zm0 0M48.418 60.531c-.863 0-1.563.7-1.563 1.563v1.449c0 .86.7 1.562 1.563 1.562s1.562-.703 1.562-1.562v-1.45c0-.863-.699-1.562-1.562-1.562zm0 0M1.563 54.914c-.41 0-.813.168-1.106.457A1.58 1.58 0 000 56.477c0 .41.168.812.457 1.105.293.29.695.457 1.106.457.41 0 .812-.168 1.105-.457.289-.293.457-.695.457-1.105 0-.41-.168-.817-.457-1.106a1.588 1.588 0 00-1.106-.457zm0 0"/></svg>