<svg xmlns="http://www.w3.org/2000/svg" width="80" height="80" fill="#282D37"><path d="M76.305 36.336a38.505 38.505 0 00-7-2.828 1.173 1.173 0 00-.66 2.25 36.137 36.137 0 016.574 2.656c.234.121.453.262.656.418-1.277.012-2.535.066-3.512.254-2.183.426-2.64 1.531-2.64 2.39 0 2.407 3.246 4.52 6.941 4.52.336 0 .664-.016.992-.035v1.098h-6.062a7.835 7.835 0 00-6.461-3.407 7.822 7.822 0 00-6.457 3.407H25.027a7.833 7.833 0 00-6.457-3.407 7.835 7.835 0 00-6.46 3.407H2.343v-2.793h1.578a1.17 1.17 0 001.172-1.172v-.883H7.78a2.886 2.886 0 002.883-2.883V38.32a2.88 2.88 0 00-.52-1.656l-2.386-3.402h2.836c.398 0 .773-.207.988-.543 1.461-2.297 3.652-4.403 6.512-6.254a21.295 21.295 0 015.746-2.606c-.356.203-.707.418-1.055.641-2.234 1.45-4.125 3.066-5.617 4.809a2.446 2.446 0 00-.383 2.582 2.417 2.417 0 002.149 1.449l37.707 1.273h.035c.031 0 .062 0 .094-.004h.003a28.6 28.6 0 016.735.07 1.174 1.174 0 001.312-1.015 1.173 1.173 0 00-1.015-1.309c-2.27-.289-4.54-.332-6.746-.132a495.772 495.772 0 00-5.383-4.95 24.382 24.382 0 00-15.028-6.27l-5.453-.288c-5.16-.277-10.133 1.031-14.379 3.785-2.921 1.89-5.222 4.047-6.855 6.418-3.895.016-4.242-.04-4.652.039a3.019 3.019 0 00-2.559 2.98v7.984H1.645c-.907 0-1.645.74-1.645 1.645v7.168c0 .782.555 1.461 1.316 1.61l9.965 2.015c1.149 2.903 3.98 4.965 7.29 4.965a7.843 7.843 0 007.062-4.445h4.32a1.17 1.17 0 001.172-1.172 1.17 1.17 0 00-1.172-1.172h-3.621c.047-.344.074-.691.074-1.047 0-.722-.101-1.422-.285-2.086h31.461a7.817 7.817 0 00-.285 2.086c0 .356.027.703.074 1.047h-21.95a1.173 1.173 0 000 2.344h22.65a7.843 7.843 0 007.062 4.445 7.843 7.843 0 007.062-4.445h3.57A4.238 4.238 0 0080 50.645v-8.22a6.845 6.845 0 00-3.695-6.09zm-57.371-5.39c-.028-.06 0-.094.015-.114 3.293-3.848 8.434-6.977 14.348-7.66l2.445.133c.39 1.441.918 4.918-.004 8.258L19.012 31c-.028-.004-.059-.004-.078-.055zm34.617 1.218l-15.422-.52c.707-3.019.476-6.136.062-8.144a22.096 22.096 0 0111.914 5.508c1.118 1.012 2.27 2.07 3.446 3.156zM8.32 38.32v1.008c0 .297-.239.54-.54.54H5.094v-5.93c0-.106.027-.204.07-.293l3.059 4.363a.53.53 0 01.097.312zM2.343 50.16v-.758h8.676a7.782 7.782 0 00-.278 2.457zm16.226 6.82a5.5 5.5 0 01-5.492-5.492 5.5 5.5 0 015.492-5.492 5.5 5.5 0 015.492 5.492 5.5 5.5 0 01-5.492 5.492zm58.094-13.328c-2.648 0-4.387-1.359-4.578-2.054.484-.282 2.023-.426 4.578-.426.277 0 .55.012.824.027.11.395.168.805.168 1.227v1.187c-.324.024-.656.04-.992.04zM65.133 56.98a5.5 5.5 0 01-5.492-5.492 5.5 5.5 0 015.492-5.492 5.5 5.5 0 015.492 5.492 5.5 5.5 0 01-5.492 5.492zm10.633-4.445h-2.871c.046-.344.074-.691.074-1.047 0-.722-.102-1.422-.285-2.086h4.972v1.243c0 1.042-.847 1.89-1.89 1.89zm0 0"/><path d="M18.57 47.656a3.836 3.836 0 00-3.832 3.832 3.836 3.836 0 003.832 3.832 3.836 3.836 0 003.832-3.832 3.836 3.836 0 00-3.832-3.832zm0 5.32a1.49 1.49 0 01-1.488-1.488c0-.82.668-1.488 1.488-1.488s1.489.668 1.489 1.488a1.49 1.49 0 01-1.489 1.489zm0 0M65.133 47.656a3.836 3.836 0 00-3.832 3.832 3.836 3.836 0 003.832 3.832 3.836 3.836 0 003.832-3.832 3.836 3.836 0 00-3.832-3.832zm0 5.32a1.49 1.49 0 01-1.488-1.488c0-.82.667-1.488 1.488-1.488.82 0 1.488.668 1.488 1.488a1.49 1.49 0 01-1.488 1.489zm0 0M40 35.73a1.173 1.173 0 000 2.344h.813a1.173 1.173 0 000-2.344zm0 0M22.484 35.73c-.644 0-1.172.528-1.172 1.172 0 .649.528 1.172 1.172 1.172h.813a1.173 1.173 0 000-2.344zm0 0"/></svg>