<svg xmlns="http://www.w3.org/2000/svg" width="80" height="80" fill="#282D37"><path d="M79.148 49.676c-1.52-2.235-4.585-2.828-6.828-1.32l-10.21 6.831-.028-21.265 3.547 3.324a4.045 4.045 0 002.77 1.094h.003a4.061 4.061 0 002.953-1.281 4.025 4.025 0 001.094-2.907 4.016 4.016 0 00-1.281-2.824l-6.723-6.3a1.142 1.142 0 00-1.613.054c-.434.461-.41 1.184.05 1.613l6.727 6.301a1.768 1.768 0 01-1.21 3.059c-.454 0-.88-.168-1.212-.477L40.489 10.566a1.138 1.138 0 00-1.562 0l-26.633 25.09a1.767 1.767 0 01-2.5-.078 1.749 1.749 0 01-.48-1.266c.011-.472.21-.91.554-1.234l28.621-26.96a1.77 1.77 0 012.422-.005l16.746 15.688c.461.43 1.184.406 1.614-.055.433-.46.41-1.183-.051-1.613L42.473 4.445a4.059 4.059 0 00-5.551.008l-9.16 8.633-.004-1.54c0-.487-.192-.94-.535-1.284a1.796 1.796 0 00-1.282-.532h-.003l-6.555.012a1.79 1.79 0 00-1.281.531c-.344.344-.532.801-.532 1.286l.02 11.109-9.29 8.75a4.033 4.033 0 00-1.273 2.828 4.024 4.024 0 001.102 2.899 4.026 4.026 0 002.832 1.273h.121c1.04 0 2.02-.387 2.777-1.102l3.54-3.332.015 10.043a24.461 24.461 0 00-3.469-.254h-1.953v-.683c0-2.3-1.87-4.168-4.168-4.168H4.168A4.172 4.172 0 000 43.09v17.894a1.142 1.142 0 002.285 0V43.09c0-1.04.844-1.887 1.883-1.887h3.656c1.04 0 1.883.848 1.883 1.887v27.039c0 1.039-.844 1.887-1.883 1.887H4.168a1.887 1.887 0 01-1.883-1.887v-1.996a1.144 1.144 0 10-2.285 0v1.996c0 2.3 1.871 4.172 4.168 4.172h3.656a4.175 4.175 0 004.168-4.172v-.152l16.723 6.332c.031.011.062.02.094.03a8.056 8.056 0 002.171.31c.387 0 .774-.032 1.153-.094l24.578-3.54c.004-.003.012-.003.016-.003a12.05 12.05 0 005.699-2.555c.015-.012.031-.023.043-.035L78.344 56.14a4.942 4.942 0 00.804-6.465zm-53.675-37.66l.007 3.218-5.613 5.286-.012-8.497zm14.238.949L59.793 31.78l.035 24.934-3.234 2.164-3.422-.191-.09-.91a7.236 7.236 0 00-5.809-6.395L47.25 36.55c0-1.14-.926-2.067-2.066-2.067l-10.887.016c-.55 0-1.07.219-1.457.61-.39.39-.606.91-.606 1.46l.02 12.934a21.614 21.614 0 01-6.14-2.434 21.73 21.73 0 00-.727-.406 6.694 6.694 0 00-.29-.148 24.16 24.16 0 00-.445-.23c-.12-.063-.242-.118-.363-.177-.129-.058-.254-.12-.383-.18a17.499 17.499 0 00-.398-.171 10.16 10.16 0 00-.363-.156c-.133-.055-.27-.11-.407-.164l-.367-.141c-.137-.05-.27-.098-.406-.145-.13-.047-.258-.09-.387-.132-.129-.043-.262-.086-.39-.13l-.422-.128-.368-.106a16.963 16.963 0 00-.476-.125c-.074-.02-.149-.043-.227-.058l-.015-12.637zm5.277 38.133L35.438 50l-.899-.105-.02-13.11 10.45-.015zm31.836 3.34L60.961 68.703a9.71 9.71 0 01-4.586 2.05l-24.563 3.544h-.015l-.02.004a5.47 5.47 0 01-2.304-.149l-17.48-6.62V46.058h1.952c1.664 0 3.317.191 4.926.562.059.016.117.031.176.043.2.05.398.098.594.152l.05.012c.196.055.391.113.586.172.035.012.07.02.106.031.21.063.418.133.62.203a20.823 20.823 0 011.336.504c.024.012.048.02.071.032a21.322 21.322 0 01.637.277 27.748 27.748 0 01.664.32c.191.098.383.196.574.297l.106.059c.191.105.382.21.57.32a23.923 23.923 0 008.82 3.062l12.797 1.477c.07.008.14.02.211.031a4.96 4.96 0 014.02 4.39l.05.513-23.976-2.102a1.143 1.143 0 00-1.238 1.04 1.14 1.14 0 001.039 1.233L52.03 60.91h.02c.004 0 .011.004.015.004l4.782.266c.023.004.043.004.066.004.023 0 .043-.004.066-.004.028-.004.051-.004.079-.008a.864.864 0 00.097-.02c.024-.004.051-.007.074-.015.036-.012.07-.024.106-.04.02-.007.039-.011.059-.023a.843.843 0 00.152-.086l4.058-2.715 11.985-8.02a2.66 2.66 0 013.672.708 2.661 2.661 0 01-.438 3.477zm0 0"/></svg>