<svg xmlns="http://www.w3.org/2000/svg" width="80" height="80" fill="#282D37"><path d="M70.344 1.828C67.313-1.219 62.875-.14 60 2.781L36.656 26.094 29.531 28A2.273 2.273 0 0028 30.797c.125.406.344.765.656 1.047L32.796 36a2.27 2.27 0 003.204.156c.313-.281.531-.64.656-1.031l1.766-6.734 9.453-2.672a3.998 3.998 0 013.938 1.015l10.03 10.047a4.013 4.013 0 005.657.016l.016-.016L78.828 25.47a3.999 3.999 0 000-5.657l-5.656-5.656c-3.219-3.297.578-8.922-2.828-12.328zm-36 31.828l-3.313-3.312 4.5-1.188zm42.672-10.14L65.687 34.828a1.33 1.33 0 01-1.874 0l-10.11-10.031a6.683 6.683 0 00-4.719-1.953c-1.328 0-1.672.218-7.062 1.75l19-19 16 16c.531.5.562 1.343.062 1.89-.015.016-.015.032-.03.032zM62.875 3.796c1.86-1.327 4-1.687 5.578-.077 1.219 1.219.61 3.672.625 6.281zm0 0M25.328 41.328c.719 0 .766-.203 3.61-3.047a1.349 1.349 0 000-1.89 1.349 1.349 0 00-1.891 0l-2.672 2.672a1.349 1.349 0 00-.016 1.89c.266.234.61.375.97.375zm0 0M30.672 40v1.328a1.327 1.327 0 102.656 0V40a1.327 1.327 0 10-2.656 0zm0 0M26.672 33.328c0-.734-.594-1.328-1.328-1.328h-1.328a1.328 1.328 0 00-1.282 1.375c.032.703.594 1.266 1.282 1.281h1.328c.718.016 1.328-.593 1.328-1.328zm0 0"/><path d="M80 65.656A1.694 1.694 0 0078.266 64a1.53 1.53 0 00-.813.234A16.99 16.99 0 0072 69.484v-7.328c1.5-1.187 2.672-4.218 2.672-7.484v-1.328a2.464 2.464 0 00-2.219-2.672h-3.547a2.473 2.473 0 00-2.234 2.656v1.344c0 3.266 1.156 6.297 2.672 7.484v7.328a16.99 16.99 0 00-5.453-5.25 1.686 1.686 0 00-2.313.61c-.14.25-.219.531-.234.812.11 6.156 1.922 9.672 3.922 11.688H53.594c2.5-2.406 4.953-6.953 5.078-15.594a1.757 1.757 0 00-1.766-1.734c-.312 0-.625.093-.906.265a20.36 20.36 0 00-6.672 7.39v-12a8.708 8.708 0 004-7.671v-5.328A2.667 2.667 0 0050.672 40h-5.344a2.67 2.67 0 00-2.672 2.672V48a8.69 8.69 0 004 7.64v12a20.486 20.486 0 00-6.672-7.39c-.812-.516-1.89-.25-2.406.563a1.663 1.663 0 00-.266.906c.141 8.64 2.579 13.187 5.079 15.593h-20c4.328-3.312 9.328-10.671 9.53-27.328.017-1.093-.858-2-1.952-2.015-.407 0-.813.11-1.14.343A33.696 33.696 0 0017.311 63.72v-32c2.141-.782 2.938-3.032 2.985-5.328a6.484 6.484 0 004.25 2.03 3.918 3.918 0 003.89-3.921c0-.25-.03-.5-.078-.734a7.179 7.179 0 00-1.953-3.485 7.086 7.086 0 003.844-1.047c3.031-2.109 2.328-7.422-3.844-7.578 4.203-4.422 1.047-8.734-2.672-8a7.2 7.2 0 00-3.468 1.953 7.238 7.238 0 00-1.063-3.843c-2.062-3.094-7.375-2.36-7.515 3.812-4.422-4.219-8.735-1.031-8 2.672a7.2 7.2 0 001.953 3.469 7.238 7.238 0 00-3.844 1.062c-3 2.063-2.39 7.406 3.844 7.547a7.056 7.056 0 00-1.954 3.485c-.671 3.64 3.594 6.906 8.063 2.671 0 2.282.828 4.532 2.984 5.328v32A33.61 33.61 0 003.11 48.344a1.986 1.986 0 00-2.765.515c-.235.344-.36.735-.344 1.157.234 16.656 5.203 24.015 9.531 27.312H1.328a1.328 1.328 0 00-1.281 1.375c.031.703.594 1.266 1.281 1.281h77.328a1.328 1.328 0 001.281-1.375c-.03-.703-.593-1.265-1.28-1.28h-2.594c2.015-2.016 3.828-5.516 3.937-11.673zm-2.766 1.953c-.593 6.391-3.359 8.594-5.14 9.329a13.822 13.822 0 015.14-9.329zm-7.906-14.28H72v1.327a9.147 9.147 0 01-1.328 5.063 9.019 9.019 0 01-1.328-5.063zm-5.219 14.28a13.85 13.85 0 015.141 9.329c-1.766-.75-4.563-2.954-5.14-9.329zm-8.171-4c-.594 9.563-4.407 12.453-6.532 13.328A18.916 18.916 0 0156 63.61zM45.328 48v-5.328h5.328V48a5.84 5.84 0 01-2.672 5.328A5.893 5.893 0 0145.328 48zm-5.266 15.625a18.907 18.907 0 016.532 13.328c-2.125-.875-5.938-3.766-6.532-13.328zm-10.734-12.25c-.672 20.188-8.64 24.625-12 25.688.578-15.047 8.594-23 12-25.688zm-3.906-25.953a1.177 1.177 0 01-1.156.328 6.398 6.398 0 01-3.657-3.219 9.112 9.112 0 001.938-1.937 6.452 6.452 0 013.219 3.656c.109.438-.032.875-.344 1.172zm3.328-10.469c.578.36.766 1.125.406 1.703a1.26 1.26 0 01-.406.407 6.47 6.47 0 01-4.86.312 8.125 8.125 0 000-2.75 6.4 6.4 0 014.86.328zm-4.484-8.719a1.25 1.25 0 011.5.922c.047.188.047.39 0 .578a6.398 6.398 0 01-3.22 3.657 9.112 9.112 0 00-1.937-1.938 6.452 6.452 0 013.657-3.219zM14.938 3.25a1.242 1.242 0 011.703-.406c.156.094.297.234.406.406a6.583 6.583 0 01.297 4.875 8.125 8.125 0 00-2.75 0 6.586 6.586 0 01.344-4.875zm-8.36 3.328a1.177 1.177 0 011.156-.328 6.398 6.398 0 013.657 3.219 8.377 8.377 0 00-1.938 1.922 6.452 6.452 0 01-3.219-3.657c-.109-.421.032-.859.344-1.156zm-.75 7.75a9.478 9.478 0 012.297.328 8.125 8.125 0 000 2.75 6.466 6.466 0 01-4.86-.312c-1.156-.828-.859-2.766 2.563-2.766zm1.906 11.438a1.226 1.226 0 01-1.484-.922 1.206 1.206 0 010-.578 6.398 6.398 0 013.219-3.657 9.112 9.112 0 001.937 1.938 6.531 6.531 0 01-3.672 3.219zm3.438-7.485a1.896 1.896 0 00-.156-.218.758.758 0 000-.266 5.45 5.45 0 010-3.594v-.219a5.907 5.907 0 012.671-2.812c.079-.047.141-.094.204-.14a6.09 6.09 0 013.875 0 .758.758 0 00.265 0 7.702 7.702 0 011.703 1.218c.485.516.907 1.11 1.22 1.75a7.43 7.43 0 01.39 2.016A9.18 9.18 0 0121 18.078a7.702 7.702 0 01-1.219 1.703A9.388 9.388 0 0118.078 21a.758.758 0 00-.265 0 5.26 5.26 0 01-3.594 0 .758.758 0 00-.266 0c-.062-.063-.14-.11-.219-.156a5.507 5.507 0 01-2.562-2.563zm3.5 5.594a8.125 8.125 0 002.75 0 6.466 6.466 0 01-.313 4.86 1.242 1.242 0 01-1.703.406 1.26 1.26 0 01-.406-.407c-.75-1.5-.86-3.25-.328-4.859zm-12 27.5c3.375 2.672 11.406 10.672 12 25.672-3.344-1.047-11.344-5.64-12-25.672zm0 0M60.953 25.89l1.313-1.312c1.047.844 1.328 1.25 1.593 3.047l.203 1.828c.063.485.391.906.86 1.078.469.172.984.047 1.344-.297l6.39-6.265.016-.016c.5-.5.5-1.312.016-1.828a1.287 1.287 0 00-1.829-.016l-4.515 4.438c-.344-1.766-.89-2.719-2.203-3.813l1.28-1.28c.5-.5.5-1.329 0-1.829s-1.327-.5-1.827 0l-1.75 1.75c-.75-.156-2.14-.578-2.86-1.313-.468-.453-.593-1-.422-1.656.282-1.015 1.329-2.078 2.282-2.312.765-.188 1.515-.14 1.968.11a1.306 1.306 0 001.766-.5 1.306 1.306 0 00-.5-1.767c-1.031-.578-2.422-.703-3.844-.359-1.875.453-3.625 2.203-4.156 4.14-.437 1.563-.047 3.048 1.078 4.173.75.75 1.719 1.25 2.594 1.562l-.61.61c-.5.5-.5 1.328 0 1.828s1.297.5 1.813 0zm0 0"/></svg>