<svg xmlns="http://www.w3.org/2000/svg" width="80" height="80" fill="#282D37"><path d="M80 38.082c-.148-.98-.184-.781-6.883-5.164 5.95-22.352 5.817-21.05 5.332-21.902-.484-.848.383-.399-18.449-5.45V1.668C60 .746 59.254 0 58.332 0H21.668C20.746 0 20 .746 20 1.668v3.898L2.566 10.234a1.662 1.662 0 00-1.183 2.051l5.535 20.633c-6.566 4.281-6.668 4.148-6.867 5C0 38.332 0 36.484 0 73.332A6.667 6.667 0 006.668 80h66.664A6.667 6.667 0 0080 73.332v-35.25zM56.75 54.398l20-12.98c0 34.848 0 32.098-.117 32.766zm18.535-16.066l-4.433 2.883 1.316-4.914zM75 13.035c-.867 3.23 3.117-11.668-8.332 30.914L60 48.332V15.918l3.852 1.031A5.108 5.108 0 0066 20.684l-2.234 8.332a1.676 1.676 0 001.183 2.05A1.673 1.673 0 0067 29.883l2.582-9.649a1.668 1.668 0 00-.187-1.293 1.654 1.654 0 00-1.063-.757 1.665 1.665 0 01-1.164-2.051 1.668 1.668 0 00-1.184-2.05L60 12.464v-3.45zM56.668 3.332v47.133L40 61.352 23.332 50.465V3.332zM3.449 74.184c-.117-.668-.117 2.03-.117-32.766l20 12.98zM20 9.016v3.449l-6.05 1.668c-.43.113-.798.394-1.02.777a1.686 1.686 0 00-.164 1.274 1.668 1.668 0 01-1.098 2 1.664 1.664 0 00-1.184 2.03L13 29.868a1.676 1.676 0 002.05 1.184A1.676 1.676 0 0016.235 29L14 20.668a5.108 5.108 0 002.148-3.734L20 15.918v32.414l-6.668-4.383C12.066 39.25 6.301 17.734 5 13.035zM9.148 41.215l-4.433-2.883 3.117-2.031zM5.816 76.55L26.102 56.25c13.464 8.8 13.515 9.332 14.816 8.484l12.98-8.484 20.286 20.3c-.852.216-67.684.118-68.368 0zm0 0"/><path d="M30 21.668v-8.617A5.004 5.004 0 0033.05 10h13.9A5.004 5.004 0 0050 13.05v8.618a1.666 1.666 0 003.332 0v-10c0-.922-.746-1.668-1.664-1.668A1.667 1.667 0 0150 8.332c0-.918-.746-1.664-1.668-1.664H31.668c-.922 0-1.668.746-1.668 1.664C30 9.254 29.254 10 28.332 10c-.918 0-1.664.746-1.664 1.668v10a1.665 1.665 0 003.332 0zm0 0"/><path d="M40 50c7.363 0 13.332-5.969 13.332-13.332S47.363 23.332 40 23.332s-13.332 5.973-13.332 13.336S32.637 50 40 50zm0-23.332c5.523 0 10 4.477 10 10s-4.477 10-10 10-10-4.477-10-10 4.477-10 10-10zm0 0M39.367 15.133a1.664 1.664 0 00-.976 1.972 1.67 1.67 0 001.832 1.223 1.667 1.667 0 10-.855-3.195zm0 0"/></svg>