<svg xmlns="http://www.w3.org/2000/svg" width="80" height="80" fill="#FFFFFF"><path d="M76.484 8.984H64.95a1.17 1.17 0 00-1.172 1.172 1.17 1.17 0 001.172 1.172h11.535c.645 0 1.172.527 1.172 1.172 0 .313-.12.605-.347.828a1.146 1.146 0 01-.825.344h-47.5v-2.344H60a1.17 1.17 0 001.172-1.172A1.17 1.17 0 0060 8.984H28.984V7.031a2.737 2.737 0 00-2.734-2.734H15.312a2.737 2.737 0 00-2.734 2.734v1.953H3.516c-.942 0-1.825.368-2.485 1.028A3.495 3.495 0 000 12.5a3.52 3.52 0 003.516 3.516h9.062v1.953a2.737 2.737 0 002.735 2.734H26.25a2.737 2.737 0 002.734-2.734v-1.953h47.5c.942 0 1.825-.368 2.485-1.028A3.495 3.495 0 0080 12.5a3.52 3.52 0 00-3.516-3.516zm-63.906 4.688H3.516A1.175 1.175 0 012.344 12.5c0-.313.12-.605.347-.828.22-.223.512-.344.825-.344h9.062zm14.063 4.297c0 .21-.18.39-.391.39H15.312c-.21 0-.39-.18-.39-.39V7.03c0-.21.18-.39.39-.39H26.25c.21 0 .39.18.39.39zm0 0M76.484 42.422h-17.62v-5h.511a2.737 2.737 0 002.734-2.734v-1.954h14.375c.942 0 1.825-.367 2.485-1.027A3.495 3.495 0 0080 29.219a3.52 3.52 0 00-3.516-3.516H62.11V23.75a2.737 2.737 0 00-2.734-2.734H48.437a2.737 2.737 0 00-2.734 2.734v1.953H3.516c-.942 0-1.825.367-2.485 1.027A3.495 3.495 0 000 29.22a3.52 3.52 0 003.516 3.515H9.98a1.17 1.17 0 001.172-1.172 1.17 1.17 0 00-1.172-1.171H3.516a1.175 1.175 0 01-1.172-1.172c0-.313.12-.606.347-.828.22-.223.512-.344.825-.344h42.187v2.344H15.04a1.17 1.17 0 00-1.172 1.172 1.17 1.17 0 001.172 1.171h30.664v1.953a2.737 2.737 0 002.734 2.735h1.395l-.02 5H34.028v-1.953a2.737 2.737 0 00-2.734-2.735H20.355a2.737 2.737 0 00-2.734 2.735v1.953H3.516c-.942 0-1.825.367-2.485 1.027A3.495 3.495 0 000 45.938a3.52 3.52 0 003.516 3.515H17.62v1.953a2.737 2.737 0 002.734 2.735h10.938a2.737 2.737 0 002.734-2.735v-1.953h9.856c-.43.727-.68 1.57-.68 2.473v3.047a1.17 1.17 0 001.172 1.172 1.17 1.17 0 001.172-1.172v-3.047c0-1.309 1.008-2.395 2.266-2.473h.332c.507.043.902.262 1.226.684a1.542 1.542 0 002.758-.938l.004-.91v-.008-.008l.05-12.011v-.012-.012l.016-3.683c0-1.196.969-2.164 2.16-2.164.578 0 1.121.226 1.528.632.41.41.633.954.633 1.532v10.691a3.657 3.657 0 003.652 3.652h6.836a4.952 4.952 0 014.945 4.95v15.468c0 .746-.605 1.356-1.355 1.356H51.504c-3.285 0-5.957-2.676-5.957-5.965V60a1.17 1.17 0 00-1.172-1.172A1.17 1.17 0 0043.203 60v2.707c0 4.258 3.215 7.773 7.34 8.25v2.977c0 .976.797 1.77 1.773 1.77h17.551a1.77 1.77 0 001.77-1.77v-3.067a3.709 3.709 0 002.66-3.55v-15.47a7.25 7.25 0 00-.406-2.394h2.593c.942 0 1.825-.367 2.485-1.027A3.495 3.495 0 0080 45.937a3.52 3.52 0 00-3.516-3.515zM62.11 28.047h14.375c.645 0 1.172.527 1.172 1.172 0 .312-.12.605-.347.828a1.146 1.146 0 01-.825.344H62.11zM17.621 47.109H3.516a1.175 1.175 0 01-1.172-1.172c0-.312.12-.605.347-.828.22-.222.512-.343.825-.343H17.62zm14.063 4.297c0 .211-.18.39-.391.39H20.355c-.21 0-.39-.179-.39-.39v-3.113-.012-4.676-.011-3.125c0-.211.18-.39.39-.39h10.938c.21 0 .39.179.39.39zm18.109-4.297h-1.602c-.109-.004-.218-.007-.332-.007-.047.003-.093.003-.14.007H34.027v-2.343h15.774zm7.75-17.742a4.464 4.464 0 00-3.184-1.32 4.51 4.51 0 00-4.504 4.5l-.011 2.531h-1.407c-.21 0-.39-.18-.39-.39V23.75c0-.21.18-.39.39-.39h10.938c.21 0 .39.18.39.39v10.938c0 .21-.18.39-.39.39h-.512v-2.523a4.48 4.48 0 00-1.32-3.188zm11.75 43.992H52.887v-2.343h16.406zm8.016-26.593a1.146 1.146 0 01-.825.343h-3.941a7.326 7.326 0 00-3.793-2.343h7.734c.645 0 1.172.527 1.172 1.172 0 .312-.12.605-.347.828zm0 0"/></svg>