<svg xmlns="http://www.w3.org/2000/svg" width="80" height="80" fill="#282D37"><path d="M16.414 26.371H0v48.36h16.414zm-5.57 31.652H5.57v-4.687h5.274zm0-10.55H5.57v-4.688h5.274zM5.57 36.922v-4.688h5.274v4.688zm0 0M63.586 74.73H80V26.371H63.586zm5.57-42.496h5.274v4.688h-5.274zm0 10.551h5.274v4.688h-5.274zm5.274 10.55v4.688h-5.274v-4.687zm0 0M31.793 68.574h5.863v6.156h-5.863zm0 0M42.344 68.574h5.863v6.156h-5.863zm0 0"/><path d="M21.102 74.73h6.003V63.887h25.79V74.73h6.003V5.27H21.102zm21.535-16.707h-5.274v-4.687h5.274zm0-10.55h-5.274v-4.688h5.274zm0-10.551h-5.274v-4.688h5.274zm10.55 21.101h-5.273v-4.687h5.273zm0-10.55h-5.273v-4.688h5.273zm0-10.551h-5.273v-4.688h5.273zM32.087 16.414h5.57v-5.57h4.688v5.57h5.57v4.688h-5.57v5.57h-4.688v-5.57h-5.57zm-5.273 15.82h5.273v4.688h-5.273zm0 10.551h5.273v4.688h-5.273zm0 10.55h5.273v4.688h-5.273zm0 0"/></svg>