<svg xmlns="http://www.w3.org/2000/svg" width="80" height="80" fill="#FFFFFF"><path d="M62.703 27.945c-.637 0-1.273.035-1.906.106A31.578 31.578 0 0031.563 8.438C14.133 8.438 0 22.566 0 40s14.133 31.563 31.563 31.563a31.439 31.439 0 0016.304-4.532 9.552 9.552 0 005.781 3.32 9.59 9.59 0 007.18-1.632 9.616 9.616 0 003.914-6.242l.008-.059c9.094-1.078 15.773-9.059 15.23-18.203-.543-9.145-8.117-16.278-17.277-16.274zm0 0"/><path d="M7.95 35.809h1.37l2.098-9.051h-1.55l.327-1.477h4.782l-.348 1.477h-1.55L10.96 35.82h3.742l.418-1.758h1.59l-.75 3.231H7.6zm0 0M17.293 35.828a4.01 4.01 0 01.129-.86l1.094-4.195H17.03l.348-1.351h3.09l-1.461 5.566a2.952 2.952 0 00-.125.801c0 .348.18.55.469.55.363 0 .695-.276 1.078-1.276l.71.253c-.468 1.563-1.242 2.098-2.21 2.098-1.055 0-1.637-.637-1.637-1.586zm1.535-8.797c0-.582.473-1.058 1.055-1.058.39-.016.754.183.953.52.2.331.2.745 0 1.081a1.06 1.06 0 01-.953.516 1.056 1.056 0 01-1.055-1.059zm0 0M22.383 30.781h-1.367l.347-1.351h2.41l.915 6.25c1.406-1.512 2.425-3.063 2.738-4.27a1.092 1.092 0 01.328-2.133c.691 0 1.203.528 1.203 1.407 0 1.66-1.719 4.289-4.27 6.824h-1.039zm0 0M29.887 35.828c.008-.289.05-.578.125-.86l1.093-4.195H29.63l.344-1.351h3.086l-1.461 5.566a3.117 3.117 0 00-.13.801c0 .348.184.55.47.55.367 0 .695-.276 1.078-1.276l.71.253c-.468 1.563-1.238 2.098-2.206 2.098-1.051 0-1.633-.637-1.633-1.586zm1.531-8.797c0-.586.473-1.058 1.059-1.058a1.06 1.06 0 010 2.12 1.063 1.063 0 01-1.059-1.062zm0 0M39.156 35.844c.008-.301.051-.602.125-.89l.676-2.376c.082-.258.129-.527.129-.8 0-.696-.469-1.153-1.188-1.153-.964 0-1.875.824-2.28 2.39l-1.056 4.274h-1.609l1.645-6.508h-1.461l.347-1.351h2.813l-.422 1.836c.625-1.094 1.645-1.973 2.719-1.973 1.203 0 2.136.824 2.136 2.23-.011.43-.078.86-.199 1.274l-.676 2.32a3.508 3.508 0 00-.113.637c0 .367.184.586.496.586.309 0 .657-.278 1.02-1.278l.71.25c-.417 1.422-1.167 2.098-2.132 2.098-1.078.004-1.68-.652-1.68-1.566zm0 0" fill="#fff"/><path d="M42.879 40.023a1.309 1.309 0 01-.457-1.02c0-.64.437-1.077 1.004-1.077a.969.969 0 01.969.988c0 .16-.04.32-.114.469.407.207.86.304 1.317.289.746 0 1.277-.2 1.734-.656.418-.399.676-1.04.875-1.899l.348-1.476c-.676.949-1.625 1.55-2.703 1.55-1.77 0-2.864-1.261-2.864-3.156 0-2.555 1.77-4.762 4.16-4.762 1.118-.02 2.11.711 2.426 1.786l.496-1.676h1.477l-1.875 8.101c-.238 1.059-.567 1.844-1.152 2.446-.692.675-1.606 1.004-2.883 1.004-1.098.004-2.285-.434-2.758-.91zm6.367-7.46c0-1.168-.766-1.876-1.898-1.876-1.532 0-2.7 1.461-2.7 3.247 0 1.168.766 1.898 1.86 1.898 1.57-.004 2.738-1.574 2.738-3.27zm0 0M18.023 40.477h-1.296L17.074 39h4.418l-.328 1.477h-1.516l.364 7.554 4.453-7.718h.781l1.332 7.753 3.688-7.59h-1.461L29.133 39h4.433l-.347 1.477H32.07l-5.457 10.656h-.894l-1.442-7.645-4.617 7.645-.875.02zm0 0M30.324 48.016c0-2.684 1.86-5.02 4.14-5.02 1.188 0 2.083.856 2.356 1.86l.512-1.754h1.496l-1.387 5.605a3.326 3.326 0 00-.148.8c0 .348.168.548.469.548.304 0 .656-.274 1.023-1.274l.711.254c-.469 1.563-1.297 2.098-2.172 2.098-.937 0-1.515-.637-1.515-1.586v-.094c-.676.938-1.621 1.7-2.813 1.7-1.559 0-2.672-1.223-2.672-3.137zm6.13-1.68c0-1.172-.583-1.938-1.786-1.938-1.535 0-2.684 1.664-2.684 3.43 0 1.152.567 1.953 1.66 1.953 1.606 0 2.81-1.73 2.81-3.445zm0 0M39.688 53.75a1.317 1.317 0 01-.458-1.023c0-.637.442-1.079 1.004-1.079.262 0 .512.106.692.293a.958.958 0 01.277.696.974.974 0 01-.11.468c.407.208.856.31 1.313.293.75 0 1.278-.203 1.735-.66.422-.402.675-1.039.875-1.894l.347-1.48c-.675.949-1.625 1.55-2.699 1.55-1.773 0-2.867-1.258-2.867-3.156 0-2.555 1.77-4.762 4.16-4.762a2.481 2.481 0 012.426 1.79l.492-1.684h1.477l-1.875 8.105c-.235 1.059-.563 1.844-1.149 2.445-.695.676-1.605 1.004-2.883 1.004-1.101 0-2.289-.437-2.758-.906zm6.37-7.465c0-1.168-.769-1.875-1.898-1.875-1.535 0-2.703 1.461-2.703 3.25 0 1.168.77 1.899 1.863 1.899 1.567-.012 2.735-1.582 2.735-3.278zm0 0M49.906 47.574v.274c0 1.187.946 1.972 2.371 1.972.84 0 1.606-.183 2.59-.71l-.312 1.495c-.82.403-1.496.547-2.61.547-1.875 0-3.613-1.187-3.613-3.34 0-2.664 1.973-4.816 4.309-4.816 1.914 0 3.175 1.094 3.175 2.938a5.22 5.22 0 01-.293 1.64zm.219-1.148h4.094c.07-.219.11-.446.11-.676 0-.82-.548-1.422-1.68-1.422-1.133 0-2.106.856-2.524 2.098zm0 0M27.219 61.64h.742l1.148-4.972h-.828l.106-.445h4.207l-.313 1.328h-.492l.207-.883h-2.379l-.508 2.203h1.942l-.098.445h-1.941l-.543 2.325h2.375l.207-.883h.488l-.3 1.328h-4.126zm0 0M33.055 58.75h-.711l.105-.41h1.145l-.242.902c.367-.59.828-.972 1.336-.972.582 0 .953.347.972.937.363-.57.856-.937 1.344-.937a.932.932 0 01.71.27c.188.183.29.437.278.702a2.15 2.15 0 01-.105.586l-.383 1.313a1.859 1.859 0 00-.063.363.273.273 0 00.075.207.25.25 0 00.203.086c.195 0 .347-.176.515-.586l.278.086c-.18.527-.446.84-.856.84a.625.625 0 01-.48-.168.635.635 0 01-.2-.465c.012-.14.036-.277.075-.41l.383-1.328c.05-.164.082-.336.09-.508a.559.559 0 00-.59-.586c-.536 0-1.204.578-1.48 1.637l-.47 1.773h-.468l.597-2.316c.055-.164.082-.336.09-.508a.562.562 0 00-.598-.586c-.523 0-1.238.586-1.496 1.629l-.445 1.781h-.469zm0 0" fill="#fff"/><path d="M37.953 63.422h.578l1.125-4.672h-.715l.098-.41h1.148l-.167.722c.304-.43.75-.792 1.335-.792.813 0 1.446.613 1.446 1.578 0 1.308-.973 2.304-1.996 2.304-.625 0-1.133-.347-1.293-.898l-.508 2.164h.82l-.097.41h-1.875zm4.348-3.52c0-.738-.383-1.21-1.024-1.21-.89 0-1.597 1.05-1.597 1.925 0 .649.422 1.121 1.117 1.121.879 0 1.504-.91 1.504-1.836zm0 0M43.352 61.508c.011-.13.03-.254.062-.375l1.203-5.156h-.71l.097-.41h1.168l-1.3 5.57c-.032.12-.052.246-.063.37a.278.278 0 00.07.212.293.293 0 00.207.086c.195 0 .344-.18.516-.59l.277.09c-.18.527-.45.836-.856.836a.616.616 0 01-.476-.168.617.617 0 01-.195-.465zm0 0M45.266 60.555c0-1.188.918-2.282 2.12-2.282.989 0 1.563.73 1.563 1.602 0 1.188-.918 2.281-2.12 2.281-.985 0-1.563-.73-1.563-1.601zm3.218-.688c0-.71-.484-1.176-1.125-1.176-.906 0-1.62.871-1.62 1.875 0 .711.48 1.176 1.12 1.176.91-.004 1.625-.875 1.625-1.875zm0 0" fill="#fff"/><path d="M48.215 63.422a.386.386 0 01.105-.277.37.37 0 01.27-.122c.222 0 .355.157.37.407h.048c.215 0 .695-.336 1.523-1.352l-.668-3.328h-.695l.098-.41h1.015l.598 3.281c.71-.926 1.426-1.934 1.55-2.527a.482.482 0 01-.367-.446.395.395 0 01.403-.382c.238 0 .437.175.437.523 0 .648-.543 1.523-1.918 3.27-1.12 1.433-1.71 1.8-2.234 1.8-.27.008-.535-.18-.535-.437zm0 0M53.55 60.34c-.007.082-.007.156-.007.238 0 .781.625 1.168 1.262 1.168.437 0 .863-.117 1.23-.348l-.097.477c-.372.195-.786.29-1.204.273-.863 0-1.648-.558-1.648-1.562 0-1.266.988-2.313 2.094-2.313.847 0 1.363.532 1.363 1.325a2.17 2.17 0 01-.156.738zm.09-.39h2.387c.047-.141.07-.286.07-.43 0-.418-.285-.829-.96-.829-.68 0-1.266.536-1.496 1.258zm0 0M57.79 58.75h-.712l.106-.41h1.152l-.25 1.015c.5-.683.918-1.085 1.266-1.085.293 0 .453.167.453.39 0 .235-.184.43-.418.438a.39.39 0 01-.395-.301 2.816 2.816 0 00-1.164 1.648l-.41 1.637h-.469zm0 0M16.906 18.14h-.625l.106-.445h1.8l-.105.446h-.738l.125 4.597 2.433-4.285h.215l.488 4.293 2.422-4.605h-.71l.105-.446h1.797l-.106.446h-.59l-2.93 5.515h-.28l-.516-4.164-2.406 4.164h-.286zm0 0M23.438 21.813a1.62 1.62 0 00-.008.238c0 .781.633 1.168 1.265 1.168.434 0 .86-.121 1.227-.348l-.106.48c-.37.196-.785.29-1.203.278-.863 0-1.648-.563-1.648-1.563 0-1.265.988-2.316 2.094-2.316.847 0 1.363.531 1.363 1.328a2.17 2.17 0 01-.156.738zm.09-.395h2.386c.047-.137.07-.281.07-.426 0-.422-.285-.828-.96-.828-.676 0-1.258.531-1.493 1.254zm0 0M28.352 22.078c0-1.273.925-2.336 2.003-2.336.676 0 1.122.375 1.23.973l.224-.945h.468l-.695 2.851a1.617 1.617 0 00-.062.356.278.278 0 00.07.21.293.293 0 00.207.086c.195 0 .344-.18.515-.59l.274.09c-.176.524-.445.836-.852.836-.41 0-.66-.25-.66-.593v-.157c-.332.434-.793.766-1.336.766-.816.004-1.386-.586-1.386-1.547zm3.054-.793c0-.668-.355-1.12-1.031-1.12-.902 0-1.523.937-1.523 1.905 0 .696.335 1.14.976 1.14.973 0 1.578-1.089 1.578-1.925zm0 0M33.777 20.227h-.715l.11-.41h1.148l-.25 1.015c.5-.687.918-1.094 1.266-1.094.293 0 .453.168.453.39 0 .235-.184.43-.418.438a.39.39 0 01-.394-.3 2.82 2.82 0 00-1.164 1.644l-.41 1.64h-.47zm0 0M36.082 21.813c-.008.078-.008.156-.008.238 0 .781.625 1.168 1.266 1.168.433 0 .86-.121 1.23-.348l-.11.48c-.37.196-.784.29-1.202.278-.863 0-1.649-.563-1.649-1.563 0-1.265.993-2.316 2.094-2.316.848 0 1.363.531 1.363 1.328a2.082 2.082 0 01-.156.738zm.09-.395h2.387c.046-.137.07-.281.074-.426 0-.422-.29-.828-.965-.828-.676 0-1.262.531-1.496 1.254zm0 0M40.992 22.078c0-1.273.926-2.336 2.004-2.336.676 0 1.121.375 1.23.973l.223-.945h.469l-.7 2.851a1.885 1.885 0 00-.062.356.267.267 0 00.074.21c.051.055.125.086.204.086.195 0 .347-.18.515-.59l.278.09c-.18.524-.446.836-.856.836s-.66-.25-.66-.593v-.157c-.328.434-.793.766-1.336.766-.813.004-1.383-.586-1.383-1.547zm3.055-.793c0-.668-.356-1.12-1.031-1.12-.903 0-1.528.937-1.528 1.905 0 .696.34 1.14.98 1.14.97 0 1.579-1.089 1.579-1.925zm0 0" fill="#fff"/></svg>