<svg xmlns="http://www.w3.org/2000/svg" width="80" height="80" fill="#282D37"><path d="M68.242 48.219l-4.972-4.973-4.97 4.973 3.313 3.312-3.312 3.317-11.602-11.602-11.601 11.602 13.257 13.257c2.45 2.446 5.903 3.22 9.024 2.395l9.363 9.5L80 66.742l-9.363-9.5c.828-3.12.054-6.578-2.395-9.023zm0 0"/><path d="M57.379 9.363c-3.121-.824-6.574-.054-9.024 2.395l-4.972 4.972 4.972 4.97 3.313-3.313 3.316 3.312-11.601 11.602 11.601 11.601 13.258-13.257c2.45-2.446 3.223-5.903 2.395-9.024L80 13.258 66.742 0zm0 0"/><path d="M11.895 31.645l4.972 4.972 4.973-4.972-3.317-3.317 3.317-3.312L33.44 36.617 45.04 25.016 31.781 11.758c-2.445-2.45-5.902-3.223-9.023-2.395L13.258 0 0 13.258l9.5 9.363c-.824 3.121-.05 6.574 2.395 9.024zm0 0"/><path d="M22.758 70.5c3.12.824 6.578.05 9.023-2.395l4.973-4.972-4.973-4.973-3.312 3.317-3.317-3.317L36.754 46.56 25.152 34.96 11.895 48.219c-2.446 2.445-3.22 5.902-2.395 9.023l-9.5 9.5L13.258 80zm0 0"/></svg>