<svg xmlns="http://www.w3.org/2000/svg" width="80" height="80" fill="#282D37"><path d="M17.348 36.234l3.289 1.805 1.8 3.297a1.922 1.922 0 003.383 0l1.801-3.297 3.285-1.805a1.929 1.929 0 000-3.386l-3.285-1.805-1.8-3.3a1.918 1.918 0 00-1.692-1.005c-.707 0-1.356.383-1.692 1.004l-1.8 3.301-3.29 1.805a1.933 1.933 0 000 3.387zm4.523-3.195c.324-.18.59-.445.766-.77l1.492-2.734 1.492 2.735c.176.324.442.59.766.77l2.734 1.5-2.734 1.503a1.9 1.9 0 00-.766.766l-1.492 2.734-1.492-2.734a1.9 1.9 0 00-.766-.766l-2.734-1.504zm0 0M67.754 48.55a1.787 1.787 0 00-1.453-.753c-.578 0-1.121.285-1.453.754l-3.035 4.312a1.78 1.78 0 000 2.051l3.035 4.313a1.776 1.776 0 002.906 0l3.035-4.313a1.78 1.78 0 000-2.05zM66.3 57.22l-2.344-3.328 2.344-3.328 2.344 3.328zm0 0M46.605 9.613l-3.039-4.308a1.775 1.775 0 00-2.902 0l-3.039 4.308a1.792 1.792 0 000 2.051l3.04 4.313a1.776 1.776 0 002.901 0l3.04-4.313a1.78 1.78 0 000-2.05zm-4.488 4.356L39.77 10.64l2.347-3.329 2.344 3.329zm0 0M61.785 30.934l-5.695-8.079a2.3 2.3 0 00-1.883-.98c-.746 0-1.45.367-1.883.98l-5.691 8.079a2.314 2.314 0 000 2.664l5.691 8.078a2.308 2.308 0 001.883.976c.75 0 1.453-.363 1.883-.976l5.695-8.078a2.314 2.314 0 000-2.664zm-7.578 9.343l-5.645-8.011 5.645-8.016 5.648 8.016zm0 0"/><path d="M71.742 0H36.676a4.204 4.204 0 00-4.196 4.207v1.86H30.63a4.206 4.206 0 00-4.195 4.206v4.266a20.455 20.455 0 00-2.305-.129c-5.48 0-10.45 2.211-14.074 5.793a1.4 1.4 0 00-.22.219 20.114 20.114 0 00-5.773 14.117c0 5.496 2.208 10.48 5.774 14.117a1.018 1.018 0 00.219.219 20.203 20.203 0 004.683 3.453h-.105a4.3 4.3 0 00-4.297 4.297v19.078A4.3 4.3 0 0014.633 80h18.992a4.3 4.3 0 004.297-4.297v-5.105h27.773a4.206 4.206 0 004.196-4.207v-1.86h1.851a4.206 4.206 0 004.195-4.207V4.207A4.206 4.206 0 0071.743 0zM28.777 10.273A1.86 1.86 0 0130.63 8.41h1.851v7.824a20.043 20.043 0 00-3.703-1.28zm-3.476 6.52a17.578 17.578 0 0110.5 4.375l-2.84 2.852a13.65 13.65 0 00-7.66-3.192zm9.312 26.61a13.713 13.713 0 003.184-7.692h4.016a17.775 17.775 0 01-4.356 10.543zm1.188 4.511a17.625 17.625 0 01-10.5 4.375V48.25a13.646 13.646 0 007.66-3.188zm1.996-14.547a13.725 13.725 0 00-3.184-7.691l2.844-2.848a17.754 17.754 0 014.355 10.54zm-2.293 1.172c0 6.297-5.106 11.418-11.375 11.418-6.274 0-11.375-5.121-11.375-11.418 0-6.293 5.101-11.418 11.375-11.418 6.27 0 11.375 5.125 11.375 11.418zM22.957 16.793v4.035a13.65 13.65 0 00-7.66 3.192l-2.84-2.852a17.578 17.578 0 0110.5-4.375zm-12.156 6.035l2.84 2.848a13.748 13.748 0 00-3.18 7.691H6.445a17.73 17.73 0 014.356-10.539zM6.445 35.711h4.016a13.736 13.736 0 003.18 7.691l-2.84 2.852A17.75 17.75 0 016.445 35.71zm6.012 12.203l2.84-2.852a13.646 13.646 0 007.66 3.188v4.04a17.625 17.625 0 01-10.5-4.376zm23.121 27.79a1.954 1.954 0 01-1.953 1.952H14.633a1.954 1.954 0 01-1.953-1.953V56.625c0-1.078.875-1.953 1.953-1.953h18.992c1.078 0 1.953.875 1.953 1.953zm38.016-15.38a1.86 1.86 0 01-1.852 1.864H48.2a1.173 1.173 0 000 2.343h19.348v1.86a1.858 1.858 0 01-1.852 1.863H37.922V64.53h5.668a1.173 1.173 0 000-2.344h-5.668v-5.562a4.3 4.3 0 00-4.297-4.297h-.105a20.203 20.203 0 004.683-3.453 1.018 1.018 0 00.219-.219 20.107 20.107 0 005.773-14.117c0-5.492-2.207-10.48-5.773-14.117a.753.753 0 00-.106-.117.917.917 0 00-.113-.102 20.29 20.29 0 00-3.379-2.691V4.207c0-1.027.828-1.863 1.852-1.863h35.066a1.86 1.86 0 011.852 1.863zm0 0"/><path d="M30.176 56.496c-.922 0-1.785.36-2.434 1.012a3.459 3.459 0 000 4.875 3.418 3.418 0 002.434 1.008 3.42 3.42 0 002.433-1.012 3.461 3.461 0 000-4.871 3.42 3.42 0 00-2.433-1.012zm.773 4.23a1.09 1.09 0 01-1.547 0 1.108 1.108 0 010-1.562 1.088 1.088 0 011.547 0c.43.43.43 1.133 0 1.563zm0 0M30.176 69.297c-.922 0-1.785.36-2.434 1.012a3.454 3.454 0 000 4.87 3.406 3.406 0 002.434 1.012 3.42 3.42 0 002.433-1.011 3.461 3.461 0 000-4.871 3.42 3.42 0 00-2.433-1.012zm.773 4.23a1.09 1.09 0 01-1.547 0 1.108 1.108 0 010-1.562 1.088 1.088 0 011.547 0c.43.43.43 1.129 0 1.562zm0 0M18.082 69.297a3.42 3.42 0 00-2.434 1.012 3.461 3.461 0 000 4.87 3.42 3.42 0 002.434 1.012c.918 0 1.785-.359 2.434-1.011a3.454 3.454 0 000-4.871 3.413 3.413 0 00-2.434-1.012zm.773 4.23c-.207.207-.48.32-.773.32-.293 0-.566-.113-.773-.32a1.108 1.108 0 010-1.562 1.088 1.088 0 011.546 0c.43.43.43 1.129 0 1.562zm0 0M26.563 63.727a3.413 3.413 0 00-2.434-1.012c-.918 0-1.785.36-2.434 1.012a3.454 3.454 0 000 4.87 3.413 3.413 0 002.434 1.012c.918 0 1.785-.359 2.433-1.011a3.454 3.454 0 000-4.871zm-1.66 3.218c-.208.207-.481.32-.774.32-.293 0-.567-.113-.774-.32a1.108 1.108 0 010-1.562 1.088 1.088 0 011.547 0c.43.43.43 1.133 0 1.562zm0 0M18.082 63.39c.918 0 1.785-.359 2.434-1.011a3.454 3.454 0 000-4.871 3.406 3.406 0 00-2.434-1.012 3.42 3.42 0 00-2.434 1.012 3.466 3.466 0 000 4.875 3.432 3.432 0 002.434 1.008zm-.773-4.226a1.088 1.088 0 011.546 0c.43.43.43 1.133 0 1.563-.207.207-.48.32-.773.32-.293 0-.566-.113-.773-.32a1.108 1.108 0 010-1.563zm0 0"/></svg>