<svg xmlns="http://www.w3.org/2000/svg" width="80" height="80" fill="#FFFFFF"><path d="M76.25 2.5h-47.5c-.688 0-1.25.563-1.25 1.25v22.5H30V5h27.5v11.25c0 .688.563 1.25 1.25 1.25H70V60H42.5v2.5h33.75c.688 0 1.25-.563 1.25-1.25V55H75v5h-2.5V16.203a1.33 1.33 0 00-.36-.844L61.767 5H75v47.5h2.5V3.75c0-.688-.563-1.25-1.25-1.25zM68.234 15H60V6.766zM55 12.5h-7.5V10H55zM47.5 15H55v2.5h-7.5zm0 5h18.75v2.5H47.5zm0 5h18.75v2.5H47.5zm-5 5h23.75v2.5H57.5V35h8.75v2.5H57.5V40h8.75v2.5H57.5V45h8.75v2.5H57.5V50h8.75v2.5H42.5V50H55v-2.5H42.5V45H55v-2.5H42.5V40H55v-2.5H42.5V35H55v-2.5H42.5zm0 25h23.75v2.5H42.5zm-9.64-33.25l10-10 1.765 1.766-10 10zm2.562-11.469a2.927 2.927 0 00-2.922 2.922 2.927 2.927 0 002.922 2.922 2.927 2.927 0 002.922-2.922 2.927 2.927 0 00-2.922-2.922zm0 3.328a.42.42 0 01-.422-.421.42.42 0 01.422-.422.42.42 0 01.422.421c-.016.235-.203.422-.422.422zM45 22.08a2.927 2.927 0 00-2.922-2.923 2.927 2.927 0 00-2.922 2.922A2.927 2.927 0 0042.078 25 2.927 2.927 0 0045 22.078zm-2.922.421a.42.42 0 01-.422-.422.42.42 0 01.422-.422.42.42 0 01.422.422.42.42 0 01-.422.422zM35 28.75H25v-10c0-.688-.563-1.25-1.25-1.25-.188 0-.39.047-.563.125l-1.937.969-1.938-.969a1.292 1.292 0 00-1.125 0l-1.937.969-1.938-.969a1.292 1.292 0 00-1.124 0l-1.938.984-1.938-.968a1.23 1.23 0 00-1.671.562c-.094.172-.125.36-.125.563v10c-2.766 0-5 2.234-5 5v3.75h2.5v-3.75c0-1.375 1.125-2.5 2.5-2.5v3.75c0 .687.562 1.25 1.25 1.25h15c.687 0 1.25-.563 1.25-1.25v-3.75h10c1.375 0 2.5 1.125 2.5 2.5v38.75c0 1.375-1.125 2.5-2.5 2.5H7.5a2.507 2.507 0 01-2.5-2.5V40H2.5v32.5c0 2.766 2.234 5 5 5H35c2.766 0 5-2.234 5-5V33.75c0-2.766-2.234-5-5-5zm-12.5 5H10V20.766l.688.343c.359.172.765.172 1.124 0l1.938-.968 1.938.968c.359.172.765.172 1.124 0l1.938-.968 1.938.968c.359.172.765.172 1.125 0l.687-.343zM35 40c0-.688-.563-1.25-1.25-1.25h-25c-.688 0-1.25.563-1.25 1.25v11.25c0 .688.563 1.25 1.25 1.25h25c.688 0 1.25-.563 1.25-1.25zm-2.5 10H10v-8.75h22.5zm-25 11.25c0 .688.563 1.25 1.25 1.25h5c.688 0 1.25-.563 1.25-1.25v-5c0-.688-.563-1.25-1.25-1.25h-5c-.688 0-1.25.563-1.25 1.25zM10 57.5h2.5V60H10zm15-1.25c0-.688-.563-1.25-1.25-1.25h-5c-.688 0-1.25.563-1.25 1.25v5c0 .688.563 1.25 1.25 1.25h5c.688 0 1.25-.563 1.25-1.25zM22.5 60H20v-2.5h2.5zM35 56.25c0-.688-.563-1.25-1.25-1.25h-5c-.688 0-1.25.563-1.25 1.25v5c0 .688.563 1.25 1.25 1.25h5c.688 0 1.25-.563 1.25-1.25zM32.5 60H30v-2.5h2.5zm-25 11.25c0 .688.563 1.25 1.25 1.25h5c.688 0 1.25-.563 1.25-1.25v-5c0-.688-.563-1.25-1.25-1.25h-5c-.688 0-1.25.563-1.25 1.25zM10 67.5h2.5V70H10zM23.75 65h-5c-.688 0-1.25.563-1.25 1.25v5c0 .688.563 1.25 1.25 1.25h5c.688 0 1.25-.563 1.25-1.25v-5c0-.688-.563-1.25-1.25-1.25zm-1.25 5H20v-2.5h2.5zm11.25-5h-5c-.688 0-1.25.563-1.25 1.25v5c0 .688.563 1.25 1.25 1.25h5c.688 0 1.25-.563 1.25-1.25v-5c0-.688-.563-1.25-1.25-1.25zm-1.25 5H30v-2.5h2.5zM30 47.5h-2.5V45H30zm-5 0h-2.5V45H25zm-5 0h-2.5V45H20zm-7.5-18.75H20v2.5h-7.5zm0-5H20v2.5h-7.5zM73.75 70H72.5v-1.25A3.761 3.761 0 0068.75 65H60v2.5h8.75c.688 0 1.25.563 1.25 1.25V70H48.75c-.188 0-.39.047-.563.125l-5 2.5a1.24 1.24 0 00-.562 1.672c.125.234.313.437.563.562l5 2.5c.171.094.359.125.562.125h25a3.741 3.741 0 003.75-3.75A3.728 3.728 0 0073.75 70zM47.5 74.234l-.953-.484.953-.484zM70 75H50v-2.5h20zm3.75 0H72.5v-2.5h1.25c.688 0 1.25.563 1.25 1.25 0 .688-.563 1.25-1.25 1.25zM2.5 18.75c0-4.14 3.36-7.5 7.5-7.5v2.5c-2.766 0-5 2.234-5 5zm0 0"/></svg>