<svg xmlns="http://www.w3.org/2000/svg" width="80" height="80" fill="#282D37"><path d="M78.684 49.43H73.41c-.726 0-1.316.59-1.316 1.316h-13.18c-.348 0-.684.137-.93.387l-7.425 7.422-26.133-4.543a4.301 4.301 0 00-5.043 4.242c0 1.523.816 2.95 2.133 3.719l28.75 16.77c.672.39 1.418.589 2.168.589.66 0 1.32-.152 1.93-.457l14.085-7.043h3.645c0 .727.59 1.316 1.316 1.316h5.274c.726 0 1.316-.59 1.316-1.316V50.746c0-.726-.59-1.316-1.316-1.316zm-6.59 19.765H68.14c-.207 0-.407.047-.59.137L53.184 76.52c-.508.25-1.106.23-1.59-.051l-28.746-16.77a1.688 1.688 0 01-.832-1.445 1.673 1.673 0 011.96-1.649l24.305 4.227-1.066 1.07a5.008 5.008 0 00-1.477 3.567 5.048 5.048 0 005.043 5.043 5.008 5.008 0 003.567-1.477l6.816-6.816-1.863-1.864-6.817 6.817a2.42 2.42 0 01-1.703.707 2.412 2.412 0 01-1.703-4.117l10.383-10.38h12.633zm5.27 1.317H74.73v-18.45h2.633zm0 0M47.055 20.438c-4.36 0-7.907 3.546-7.907 7.906 0 4.36 3.547 7.906 7.907 7.906 4.36 0 7.906-3.547 7.906-7.906 0-4.36-3.547-7.907-7.906-7.907zm0 13.175a5.275 5.275 0 01-5.27-5.27 5.278 5.278 0 015.27-5.273 5.278 5.278 0 015.27 5.274 5.275 5.275 0 01-5.27 5.27zm0 0"/><path d="M72.094.668H22.016a1.32 1.32 0 00-1.317 1.32v10.543H10.156c-.351 0-.683.137-.93.383L0 22.141l1.863 1.863 8.84-8.84H20.7v7.906h-6.59v2.637h17.133a2.637 2.637 0 010 5.273h-9.226a1.324 1.324 0 00-.934.387l-3.95 3.953 1.864 1.864 1.703-1.707v7.363H.934v2.637h71.16a1.32 1.32 0 001.316-1.32V1.987c0-.726-.59-1.32-1.316-1.32zm-48.758 13.18h3.785a5.295 5.295 0 01-3.785 3.789zm0 28.992v-3.79a5.295 5.295 0 013.785 3.79zm47.437 0h-3.785a5.295 5.295 0 013.785-3.79zm0-6.473a7.92 7.92 0 00-6.468 6.473h-34.5a7.92 7.92 0 00-6.47-6.473v-2.754h7.907a5.234 5.234 0 003.723-1.543c1-.996 1.547-2.32 1.547-3.726a5.278 5.278 0 00-5.27-5.274h-7.906v-2.754a7.911 7.911 0 006.469-6.468h34.5a7.916 7.916 0 006.468 6.468zm0-18.73a5.295 5.295 0 01-3.785-3.79h3.785zm0-6.426H23.336V8.578h47.437zm0-5.27H23.336V3.305h47.437zm0 0"/></svg>