<svg xmlns="http://www.w3.org/2000/svg" width="80" height="80" fill="#FFFFFF"><path d="M.418 78.992A2.348 2.348 0 002.344 80h75.312a2.344 2.344 0 002.195-3.164c-.913-2.445-2.62-4.586-3.316-5.39a2.336 2.336 0 00-1.777-.821H5.242c-.683 0-1.336.3-1.777.82-.695.805-2.402 2.946-3.317 5.39a2.344 2.344 0 00.27 2.157zm0 0M9.375 37.656h14.219v28.282H9.375zm0 0M32.969 37.656H47.03v28.282H32.97zm0 0M56.406 37.656h14.219v28.282H56.406zm0 0M5.074 32.277c.438.442 1.051.692 1.656.692h66.54c.605 0 1.218-.25 1.656-.692.476-.476 4.043-4.187 5.074-8.683H0c1.031 4.496 4.598 8.207 5.074 8.683zm0 0M78.508 18.906L41.047.246a2.35 2.35 0 00-2.094 0l-37.46 18.66zm0 0"/></svg>