<svg xmlns="http://www.w3.org/2000/svg" width="80" height="80" fill="#282D37"><path d="M30.625 20c-.86 0-1.563.703-1.563 1.563 0 .859.704 1.562 1.563 1.562.86 0 1.563-.703 1.563-1.563 0-.421-.172-.812-.454-1.109A1.614 1.614 0 0030.625 20zm0 0M27.672 36.344a6.562 6.562 0 00-6.531-6.594 6.567 6.567 0 00-6.485 5.328 1.557 1.557 0 001.188 1.86 1.557 1.557 0 001.86-1.188c0-.031.015-.047.015-.078.375-1.86 2.187-3.078 4.047-2.703 1.859.375 3.078 2.187 2.703 4.047a3.429 3.429 0 01-3.36 2.765c-.859 0-1.562.703-1.562 1.563s.703 1.562 1.562 1.562a3.438 3.438 0 010 6.875 3.432 3.432 0 01-3.39-2.953 5.04 5.04 0 01-.032-.484c0-.86-.703-1.563-1.562-1.563-.86 0-1.563.703-1.563 1.563a6.55 6.55 0 007.484 6.5 6.55 6.55 0 005.579-7.422 6.518 6.518 0 00-2.25-4.078 6.604 6.604 0 002.297-5zm0 0"/><path d="M61.25 39.438V14.061c0-4.312-3.5-7.812-7.813-7.812h-4.062V5c0-2.766-2.234-5-5-5s-5 2.234-5 5v1.25h-17.5V5c0-2.766-2.234-5-5-5s-5 2.234-5 5v1.25H7.812A7.815 7.815 0 000 14.063v43.89c0 4.313 3.5 7.813 7.813 7.813h32.5A20.342 20.342 0 0059.686 80C70.892 80 80 70.89 80 59.687c0-10.671-8.281-19.453-18.75-20.25zM42.5 5a1.88 1.88 0 011.875-1.875A1.88 1.88 0 0146.25 5v5.625a1.88 1.88 0 01-1.875 1.875 1.88 1.88 0 01-1.875-1.875zM16.875 3.125A1.88 1.88 0 0118.75 5v5.625a1.88 1.88 0 01-1.875 1.875A1.88 1.88 0 0115 10.625V5a1.88 1.88 0 011.875-1.875zM7.812 62.641a4.681 4.681 0 01-4.687-4.688V23.125h20.469c.86 0 1.562-.703 1.562-1.563 0-.859-.703-1.562-1.562-1.562H3.125v-5.938a4.681 4.681 0 014.688-4.687h4.062v1.25c0 2.766 2.234 5 5 5s5-2.234 5-5v-1.25h17.5v1.25c0 2.766 2.234 5 5 5s5-2.234 5-5v-1.25h4.063a4.681 4.681 0 014.687 4.688V20H37.656c-.86 0-1.562.703-1.562 1.563 0 .859.703 1.562 1.562 1.562h20.469v16.313a20.343 20.343 0 00-11.422 4.64v-7.187a7.123 7.123 0 00-7.016-7.235 7.123 7.123 0 00-7.234 7.016v9.109a7.122 7.122 0 007.125 7.125c.328 0 .656-.031.984-.078a20.115 20.115 0 00-1.187 6.86c0 .984.078 1.968.219 2.953zm31.766-12.86c-2.203 0-4-1.797-4-4v-8.89a3.998 3.998 0 013.922-4.078 3.998 3.998 0 014.078 3.921v9.047c0 2.203-1.797 4-4 4zm20.11 27.094c-9.5 0-17.188-7.688-17.188-17.188S50.188 42.5 59.688 42.5s17.187 7.688 17.187 17.188c-.016 9.484-7.703 17.171-17.188 17.187zm0 0"/><path d="M54.64 61.625h1.954c.156 1.406.062 1.906-1.078 3.438l-1.188 1.5c-.328.406-.39.953-.156 1.421.219.47.687.766 1.203.766l9.36.078h.015c.75 0 1.344-.594 1.36-1.344 0-.75-.594-1.359-1.344-1.359l-6.625-.063c1.062-1.562 1.343-2.671 1.187-4.453h1.906a1.36 1.36 0 000-2.718h-2.578c-.437-.672-1.156-2-1.14-3.078 0-.688.297-1.188.906-1.532.969-.547 2.516-.562 3.39-.031.704.422 1.22 1.016 1.376 1.531.203.719.953 1.14 1.671.938a1.357 1.357 0 00.938-1.672c-.344-1.188-1.266-2.313-2.563-3.11-1.718-1.046-4.297-1.062-6.14-.015-1.485.828-2.297 2.219-2.282 3.89 0 1.11.36 2.204.766 3.079h-.906c-.75 0-1.36.609-1.36 1.359a1.319 1.319 0 001.329 1.375zm0 0"/></svg>