<svg xmlns="http://www.w3.org/2000/svg" width="80" height="80" fill="#282D37"><path d="M53.68 69.867c-.89 0-1.336.754-1.426 1.555h2.625v-.11c.02-.734-.379-1.445-1.2-1.445zm0 0M39.277 69.867c-.886 0-1.332.754-1.422 1.555h2.622v-.11c.023-.734-.399-1.445-1.2-1.445zm0 0M29.68 69.844c-1.157 0-1.645 1.113-1.645 2.133 0 1.023.442 2.156 1.598 2.156 1.156 0 1.62-1.133 1.62-2.156 0-1.02-.421-2.133-1.573-2.133zm0 0"/><path d="M.945 63v17h78.11V63zm19.176 8.754h-.664v2.98H18.41V66.91c.512-.09 1-.156 1.512-.156 1.113 0 2.156.18 2.687 1.27.18.355.27.73.27 1.132.02 1.711-1.113 2.598-2.758 2.598zm6.535-1.73c-.18-.047-.336-.047-.511-.047a1.48 1.48 0 00-1.223.734v4.023h-.977v-5.468h.778l.109.554c.336-.441.848-.71 1.402-.71.176 0 .356.023.512.09zm3 4.867c-1.734 0-2.644-1.27-2.644-2.914 0-1.598 1-2.887 2.687-2.887 1.692 0 2.645 1.289 2.645 2.887 0 1.601-.977 2.914-2.688 2.914zm5.489 0c-.711 0-1.157-.29-1.399-.825-.113-.265-.156-.687-.156-1.379v-2.753h-.8v-.668h.8v-1.043l.976-.38v1.423h1.536v.644h-1.536v2.824c-.023.309.024.621.114.91.086.29.375.465.687.446.356-.024.711-.18 1-.403l.156.711c-.421.313-.89.493-1.378.493zm6.332-2.692c-.489.024-.954 0-1.399 0h-2.223c.043 1 .602 1.91 1.688 1.91.645 0 1.27-.218 1.758-.644l.11.8a3.41 3.41 0 01-2 .645c-1.731 0-2.622-1.308-2.622-2.933 0-1.555.89-2.868 2.578-2.868.422 0 .844.114 1.176.356.71.469.98 1.222.98 2.07 0 .2-.023.442-.046.664zm3.468 2.692c-1.625 0-2.71-1.223-2.71-2.825 0-1.71 1.109-2.976 2.843-2.976.602-.024 1.176.176 1.668.512l-.203.753c-.422-.312-.91-.464-1.441-.488-1.157 0-1.848.977-1.848 2.067 0 1.09.578 2.175 1.8 2.175.555 0 1.09-.175 1.555-.488l.18.734a3.327 3.327 0 01-1.844.536zm4.621 0c-.71 0-1.156-.29-1.398-.825-.113-.265-.156-.687-.156-1.379v-2.753h-.801v-.668h.8v-1.043l.977-.38v1.423h1.535v.644h-1.535v2.824c-.023.309.024.621.114.91.086.29.375.465.687.446.356-.024.711-.18 1-.403l.156.711c-.422.313-.89.493-1.379.493zm6.313-2.692c-.488.024-.957 0-1.402 0h-2.223c.047 1 .601 1.91 1.691 1.91.645 0 1.266-.218 1.754-.644l.114.8a3.41 3.41 0 01-2 .645c-1.735 0-2.626-1.308-2.626-2.933 0-1.555.891-2.868 2.579-2.868.422 0 .843.114 1.199.356.715.469.98 1.222.98 2.07-.023.2-.023.442-.066.664zm5.578 2.535h-.758l-.11-.488a2.46 2.46 0 01-1.577.645c-1.469 0-2.38-1.223-2.38-2.848 0-1.73 1.223-2.934 2.536-2.934.465 0 .934.137 1.332.403v-2.934h.977v8.156zm0 0"/><path d="M20.168 67.645c-.223 0-.445 0-.691.023v3.176c.222 0 .445.023.668.023 1.066 0 1.668-.555 1.668-1.62 0-1.067-.579-1.602-1.645-1.602zm0 0M59.254 69.934c-.73 0-1.598.644-1.598 2.066 0 1.332.598 2.09 1.489 2.09.511 0 .976-.223 1.332-.578v-3.18a2.018 2.018 0 00-1.223-.398zm0 0M9.633 42.957c.71.309 1.488.441 2.265.422 4.559 0 8.157-2.914 10.711-8.625l2.914-7.066h4.598l1.024-2h-4.91l.175-.442c1.668-4 3.824-6.047 6.402-6.047.711.047 1.422.223 2.086.512l1.536-2.313a7.251 7.251 0 00-2.645-.554c-4.555 0-8.156 2.91-10.71 8.644l-.09.2h-8.423l-1.023 2h8.625l-1.113 2.644h-9.977l-1.023 1.98H20.32L19.21 35c-1.667 4-3.8 6.043-6.331 6.043a5.952 5.952 0 01-2.047-.508zm0 0M61.102 28.465a3.497 3.497 0 00-2.422-1.067 2.638 2.638 0 00-1.559.446c-.422.265-.687.71-.71 1.199-.02.336.089.668.312.934.355.355.777.644 1.222.867l1.598.89c.469.243.848.598 1.09 1.067.222.445.332.933.289 1.422a4.119 4.119 0 01-1.645 3.199c-1.023.8-2.289 1.18-3.8 1.18a6.495 6.495 0 01-3.532-1l1.29-2.137c.374.355.8.644 1.265.847a3.63 3.63 0 001.465.376 2.705 2.705 0 001.781-.579c.465-.375.754-.93.777-1.53.02-.333-.09-.645-.312-.892a5.158 5.158 0 00-1.2-.886l-1.62-.91a2.742 2.742 0 01-1.09-1.114 2.877 2.877 0 01-.313-1.422 3.585 3.585 0 011.535-2.82c1-.734 2.2-1.113 3.422-1.07.91 0 2.02.289 3.29.867zm0 0M51.188 28.066c-.532-.445-1.29-.668-2.243-.668a4.543 4.543 0 00-3.625 1.735 7.01 7.01 0 00-1.574 4.222c-.066 1.024.176 1.844.73 2.446.47.578 1.18.91 1.934.91a6.09 6.09 0 003.356-1.066l-.375 2.312a8.685 8.685 0 01-3.426.688c-1.555 0-2.73-.446-3.508-1.333-.777-.89-1.137-2.066-1.047-3.558.133-2.399.91-4.375 2.313-5.91a6.794 6.794 0 015.175-2.309c1.223 0 2.157.219 2.825.621zm0 0M39.168 28.465c-.645-.664-1.512-1.067-2.445-1.067a2.626 2.626 0 00-1.555.446c-.422.265-.691.71-.711 1.199-.023.336.086.668.309.934.355.355.757.644 1.222.867l1.602.89a2.52 2.52 0 011.09 1.067c.218.445.332.933.285 1.422a4.107 4.107 0 01-1.645 3.199c-1.02.8-2.285 1.18-3.797 1.18a6.499 6.499 0 01-3.535-1l1.29-2.137c.378.355.8.644 1.265.847.445.223.957.356 1.469.376a2.694 2.694 0 001.777-.579c.465-.375.754-.93.777-1.53a1.188 1.188 0 00-.312-.892 5.158 5.158 0 00-1.2-.886l-1.62-.91a2.767 2.767 0 01-1.09-1.114 2.874 2.874 0 01-.309-1.422 3.57 3.57 0 011.531-2.82c1-.734 2.2-1.113 3.422-1.07.91 0 2.024.289 3.29.867zm0 0"/><path d="M43.078 8.512c-.844 0-1.687.023-2.555.066-2.468.09-4.933.356-7.355.82a35.21 35.21 0 00-7.203 2.114c-1.2.488-2.332 1.09-3.399 1.8-.554.376-1.066.778-1.554 1.223a9.683 9.683 0 00-1.356 1.531A6.242 6.242 0 0018.723 18c-.2.71-.266 1.445-.18 2.156.09.688.27 1.38.578 2 .024.067.067.133.09.2a.27.27 0 00.223.109c.156 0 .289-.133.289-.285 0-.047 0-.07-.024-.114-.02-.066-.066-.132-.09-.199-.218-.578-.375-1.199-.398-1.824a4.43 4.43 0 01.246-1.797c.2-.578.508-1.113.887-1.601a9.846 9.846 0 012.758-2.38 21.968 21.968 0 013.265-1.597c1.133-.445 2.29-.8 3.465-1.113a39.452 39.452 0 013.559-.754 55.711 55.711 0 017.199-.735 87.738 87.738 0 017.242.043c1.203.047 2.402.157 3.602.27 1.199.11 2.379.289 3.578.512a28.582 28.582 0 016.91 2.066 17.001 17.001 0 013.133 1.863c.488.38.957.782 1.379 1.223.445.445.843.934 1.199 1.445.734 1.047 1.289 2.2 1.644 3.446.356 1.265.512 2.554.489 3.867a19.452 19.452 0 01-1.754 7.597 25.33 25.33 0 01-1.844 3.403 25.246 25.246 0 01-2.29 3.02 26.62 26.62 0 01-2.624 2.644c-.465.402-.934.8-1.399 1.18a21.18 21.18 0 01-1.464 1.066 22.288 22.288 0 01-6.336 2.977l-.399.113c-.113.02-.312.09-.422.11-.27.066-.554.112-.824.155-.555.09-1.11.157-1.664.2-.559.023-1.113.023-1.668 0a14.14 14.14 0 01-1.687-.176 23.057 23.057 0 01-6.578-2.27 39.227 39.227 0 01-6.133-3.93l-.024-.023c-.023 0-.023-.023-.023-.023a.295.295 0 00-.133-.043.211.211 0 00-.223.222c0 .043.024.086.043.133 1.625 2.09 3.867 4.176 6.578 6.043l-.02-.02a18.662 18.662 0 005.977 2.688c.645.156 1.29.266 1.934.332.668.067 1.313.114 1.977.09.668-.023 1.336-.066 1.98-.18.332-.066.664-.109.977-.199.199-.043.289-.066.465-.11l.492-.132A21.437 21.437 0 0059.7 46a26.665 26.665 0 005.51-5.89 30.62 30.62 0 002.09-3.489 29.727 29.727 0 001.622-3.754 23.163 23.163 0 001.332-7.488v-.09-.469a15.259 15.259 0 00-.598-4.02 12.739 12.739 0 00-1.71-3.577c-.735-1.067-1.626-2-2.626-2.825a18.564 18.564 0 00-3.152-2.066 29.85 29.85 0 00-6.98-2.531c-1.2-.29-2.422-.512-3.622-.711-1.199-.2-2.445-.313-3.668-.422a49.906 49.906 0 00-3.687-.18h-1zm0 0"/></svg>