<svg xmlns="http://www.w3.org/2000/svg" width="80" height="80" fill="#282D37"><path d="M60 13.332h2.668V16H60zm0 0M54.668 13.332h2.664V16h-2.664zm0 0M49.332 13.332H52V16h-2.668zm0 0M17.332 13.332H20V16h-2.668zm0 0M42.668 73.332h-5.336a1.335 1.335 0 000 2.668h5.336a1.334 1.334 0 000-2.668zm0 0"/><path d="M76 40h-1.332v-9.332A6.68 6.68 0 0068 24V6.668A6.677 6.677 0 0061.332 0H18.668A6.677 6.677 0 0012 6.668v22.664h2.668V10.668h50.664V24h-2.664a6.63 6.63 0 00-4.8 2.059c-7.391-9.47-20.888-11.532-30.766-4.7-9.88 6.832-12.711 20.188-6.457 30.446C26.898 62.059 40.066 65.656 50.668 60v5.332c0 .738.594 1.336 1.332 1.336h13.332v2.664H14.668V50.668H12v22.664A6.677 6.677 0 0018.668 80h42.664A6.677 6.677 0 0068 73.332v-6.664h10.668c.734 0 1.332-.598 1.332-1.336V44c0-2.207-1.793-4-4-4zM14.668 8V6.668c0-2.211 1.789-4 4-4h42.664c2.211 0 4 1.789 4 4V8zm46.664 69.332H18.668c-2.211 0-4-1.789-4-4V72h50.664v1.332c0 2.211-1.789 4-4 4zm1.336-50.664H68a4 4 0 014 4V40h-1.332v-9.332A2.669 2.669 0 0068 28h-5.332A2.669 2.669 0 0060 30.668V40h-1.332v-9.332c0-2.211 1.789-4 4-4zM68 40h-5.332v-9.332H68zm-20.027-1.332a35.04 35.04 0 00-.868-6.867 17.118 17.118 0 003.395-2.02 14.683 14.683 0 014.094 8.887zm-13.278 0c.063-2 .313-3.992.739-5.945 2.992.812 6.14.812 9.132 0 .426 1.953.676 3.945.739 5.945zm10.61 2.664c-.063 2-.313 3.992-.739 5.945a17.414 17.414 0 00-9.132 0 32.731 32.731 0 01-.739-5.945zm1.043-12.105a16.68 16.68 0 00-1.407-3.032c1.239.442 2.41 1.051 3.485 1.805-.656.465-1.352.875-2.078 1.227zm-2.512.933c-2.512.68-5.16.68-7.672 0 1.035-2.996 2.48-4.828 3.836-4.828 1.355 0 2.8 1.832 3.836 4.824zm-10.184-.933A14.587 14.587 0 0131.574 28a14.468 14.468 0 013.485-1.805 16.68 16.68 0 00-1.407 3.032zm-4.152.554c1.05.801 2.188 1.48 3.395 2.02a35.04 35.04 0 00-.868 6.867h-6.62a14.683 14.683 0 014.093-8.887zm2.527 11.551a35.04 35.04 0 00.868 6.867 17.118 17.118 0 00-3.395 2.02 14.683 14.683 0 01-4.094-8.887zm1.625 9.441a16.68 16.68 0 001.407 3.032A14.608 14.608 0 0131.574 52a14.587 14.587 0 012.078-1.227zm2.512-.933c2.512-.68 5.16-.68 7.672 0-1.035 2.996-2.48 4.828-3.836 4.828-1.355 0-2.8-1.832-3.836-4.824zm10.184.933c.726.352 1.422.762 2.078 1.227a14.468 14.468 0 01-3.485 1.805 16.68 16.68 0 001.407-3.032zM50.668 44v6.04l-.176.17a17.214 17.214 0 00-3.387-2.01 35.04 35.04 0 00.868-6.868h3.73A3.966 3.966 0 0050.668 44zM40 60c-9.488.004-17.672-6.664-19.59-15.957-1.918-9.29 2.953-18.652 11.668-22.406 8.711-3.758 18.863-.875 24.305 6.898A6.51 6.51 0 0056 30.668v2.719a17.334 17.334 0 10-5.332 20.261v3.266A19.988 19.988 0 0140 60zm37.332 4h-24V44c0-.738.598-1.332 1.336-1.332H76c.738 0 1.332.594 1.332 1.332zm0 0"/><path d="M69.332 49.332a4.002 4.002 0 00-3.402-3.969 4 4 0 00-2.313 7.57l-2.215 6.649a1.329 1.329 0 001.266 1.75H68c.43 0 .832-.203 1.082-.555.25-.343.316-.793.184-1.199l-2.215-6.644a3.998 3.998 0 002.281-3.602zm-4-1.332a1.335 1.335 0 11.003 2.669A1.335 1.335 0 0165.332 48zm-.812 10.668l.812-2.453.816 2.453zm0 0M0 33.332h2.668V36H0zm0 0M4 33.332h12V36H4zm0 0M0 38.668h2.668v2.664H0zm0 0M4 38.668h12v2.664H4zm0 0M0 44h2.668v2.668H0zm0 0M4 44h12v2.668H4zm0 0"/></svg>