<svg xmlns="http://www.w3.org/2000/svg" width="80" height="80" fill="#FFFFFF"><path d="M72.969 19.063H51.875V7.03A7.037 7.037 0 0044.844 0H7.03A7.037 7.037 0 000 7.031V72.97A7.037 7.037 0 007.031 80h37.813a7.037 7.037 0 007.031-7.031v-13.09l8.004-8.004h13.09A7.037 7.037 0 0080 44.844v-18.75a7.037 7.037 0 00-7.031-7.032zM4.688 7.03A2.346 2.346 0 017.03 4.688h37.813a2.346 2.346 0 012.343 2.343v2.344h-42.5zm42.5 65.938a2.346 2.346 0 01-2.344 2.344H7.03a2.346 2.346 0 01-2.343-2.344v-7.031h42.5zm0-11.719h-42.5V14.062h42.5v5h-2.344a7.037 7.037 0 00-7.032 7.032v18.75a7.037 7.037 0 007.032 7.031h2.343v9.375zm28.124-16.406a2.346 2.346 0 01-2.343 2.343H58.906c-.62 0-1.218.247-1.656.688l-5.375 5.371v-3.715a2.346 2.346 0 00-2.344-2.343h-4.687a2.346 2.346 0 01-2.344-2.344v-18.75a2.346 2.346 0 012.344-2.344h28.125a2.346 2.346 0 012.344 2.344zm0 0"/><path d="M68.281 28.438h-18.75a2.346 2.346 0 00-2.343 2.343 2.346 2.346 0 002.343 2.344h18.75a2.346 2.346 0 002.344-2.344 2.346 2.346 0 00-2.344-2.343zm0 0M58.906 37.813h-9.375a2.346 2.346 0 00-2.343 2.343A2.346 2.346 0 0049.53 42.5h9.375a2.346 2.346 0 002.344-2.344 2.346 2.346 0 00-2.344-2.343zm0 0"/></svg>