<svg xmlns="http://www.w3.org/2000/svg" width="80" height="80" fill="#FFFFFF"><path d="M21.25 37.813C9.617 37.813.156 47.273.156 58.906S9.617 80 21.25 80c11.633 0 21.094-9.46 21.094-21.094 0-11.633-9.461-21.093-21.094-21.093zm9.313 18.53L19.624 67.282a2.334 2.334 0 01-1.656.688c-.602 0-1.2-.23-1.657-.688l-4.687-4.687a2.336 2.336 0 010-3.313 2.336 2.336 0 013.313 0l3.03 3.028 9.282-9.278a2.336 2.336 0 013.313 0 2.336 2.336 0 010 3.313zm0 0"/><path d="M61.875 20.313a2.346 2.346 0 01-2.344-2.344V0H25.938a7.037 7.037 0 00-7.032 7.031v26.203c.774-.07 1.555-.109 2.344-.109 7.988 0 15.14 3.652 19.871 9.375h25.441a2.346 2.346 0 012.344 2.344 2.346 2.346 0 01-2.344 2.343H44.212a25.55 25.55 0 012.71 9.376h19.642a2.346 2.346 0 012.343 2.343 2.346 2.346 0 01-2.344 2.344h-19.64c-.7 7.742-4.836 14.504-10.867 18.75h36.758a7.037 7.037 0 007.03-7.031V20.313zm4.688 12.812H32.187a2.346 2.346 0 01-2.343-2.344 2.346 2.346 0 012.343-2.343h34.376a2.346 2.346 0 012.343 2.343 2.346 2.346 0 01-2.344 2.344zm0 0"/><path d="M64.219 1.371v14.254h14.25zm0 0"/></svg>