<svg xmlns="http://www.w3.org/2000/svg" width="80" height="80" fill="#FFFFFF"><path d="M48.355 17.922c3.704 2.324 6.301 6.254 6.778 10.816a11.661 11.661 0 004.965 1.114c6.492 0 11.75-5.262 11.75-11.75 0-6.493-5.258-11.754-11.75-11.754-6.43.004-11.645 5.168-11.743 11.574zm-7.699 24.062c6.492 0 11.75-5.261 11.75-11.754 0-6.488-5.261-11.75-11.75-11.75-6.492 0-11.754 5.262-11.754 11.754 0 6.489 5.262 11.75 11.754 11.75zm4.985.801h-9.973c-8.297 0-15.047 6.75-15.047 15.047v12.195l.031.192.84.261c7.918 2.477 14.797 3.301 20.461 3.301 11.059 0 17.469-3.152 17.863-3.355l.786-.395h.082V57.832c.004-8.297-6.746-15.047-15.043-15.047zm19.445-12.133h-9.898a14.485 14.485 0 01-4.47 10.09c7.376 2.192 12.77 9.031 12.77 17.11v3.757c9.774-.359 15.403-3.129 15.774-3.312l.785-.399h.082V45.7c0-8.297-6.75-15.047-15.043-15.047zm-45.05-.8c2.3 0 4.437-.668 6.25-1.813a14.538 14.538 0 015.468-9.277c.012-.219.031-.438.031-.66 0-6.489-5.262-11.75-11.75-11.75-6.492 0-11.754 5.261-11.754 11.75 0 6.488 5.262 11.75 11.754 11.75zm10.554 10.89a14.502 14.502 0 01-4.469-10.031c-.367-.027-.73-.059-1.101-.059h-9.973C6.75 30.652 0 37.402 0 45.7v12.196l.031.19.84.263c6.352 1.984 12.02 2.898 16.945 3.187v-3.683c0-8.079 5.395-14.914 12.774-17.11zm0 0"/></svg>