<svg xmlns="http://www.w3.org/2000/svg" width="80" height="80" fill="#282D37"><path d="M61.043 45.07l-8.047-2.148a1.247 1.247 0 01-.89-.906L51.02 37.69c1.855-2.183 3.253-4.855 3.757-7.832 2.758-.714 3.973-4.218 3.973-6.109 0-1.625-.637-2.445-1.25-2.863V17.5C57.5 7.852 49.648 0 40 0S22.5 7.852 22.5 17.5v3.387c-.613.418-1.25 1.238-1.25 2.863 0 1.89 1.21 5.387 3.96 6.11.5 3.054 1.919 5.695 3.767 7.831l-1.082 4.325c-.11.445-.45.789-.891.906l-8.047 2.148A13.765 13.765 0 008.75 58.355V78.75c0 .691.559 1.25 1.25 1.25s1.25-.559 1.25-1.25V72.5h10v6.25c0 .691.559 1.25 1.25 1.25s1.25-.559 1.25-1.25v-2.422c.32.14.652.258 1.012.317l5.035.84a1.252 1.252 0 001.438-1.027 1.248 1.248 0 00-1.032-1.438l-5.031-.84a1.7 1.7 0 01-1.422-1.68v-5c0-.691-.559-1.25-1.25-1.25s-1.25.559-1.25 1.25V70h-10V58.355c0-5.09 3.434-9.558 8.352-10.87l8.046-2.15c.766-.202 1.407-.655 1.895-1.241 2.789 1.98 5.93 3.117 9.207 3.351V78.75c0 .691.559 1.25 1.25 1.25s1.25-.559 1.25-1.25V47.445c3.277-.234 6.418-1.37 9.207-3.351.492.586 1.133 1.039 1.895 1.242l8.046 2.148a11.261 11.261 0 018.352 10.871V70h-10v-2.5c0-.691-.559-1.25-1.25-1.25s-1.25.559-1.25 1.25v5a1.7 1.7 0 01-1.422 1.68l-5.031.836a1.253 1.253 0 00-1.031 1.437 1.252 1.252 0 001.437 1.031l5.035-.84c.36-.062.692-.18 1.012-.32v2.426c0 .691.559 1.25 1.25 1.25s1.25-.559 1.25-1.25V72.5h10v6.25c0 .691.559 1.25 1.25 1.25s1.25-.559 1.25-1.25V58.355c0-6.222-4.2-11.683-10.207-13.285zM40 45c-3.379 0-6.629-1.14-9.453-3.281l.492-1.977c3.008 2.563 6.512 4.008 8.961 4.008 2.715 0 6.098-1.488 8.965-3.984l.488 1.953C46.63 43.859 43.38 45 40 45zm10.887-22.5C49.895 20.879 47.074 20 45 20c-2.215 0-4.027 1.031-4.703 2.5h-.594C39.027 21.031 37.215 20 35 20c-2.074 0-4.895.879-5.887 2.5h-1.508c.676-1.418 3.618-6.25 12.395-6.25 8.809 0 11.723 4.813 12.395 6.25zm-2.168 1.25C48.379 24.21 46.656 25 45 25c-1.527 0-2.5-.738-2.5-1.25s.973-1.25 2.5-1.25c1.656 0 3.379.79 3.719 1.25zm-11.219 0c0 .512-.973 1.25-2.5 1.25-1.656 0-3.379-.79-3.719-1.25.34-.46 2.063-1.25 3.719-1.25 1.527 0 2.5.738 2.5 1.25zM55 26.871v-3.648c.61-.301 1-.317 1.09-.274.023.012.16.219.16.801 0 .887-.469 2.309-1.25 3.121zM40 2.5c8.27 0 15 6.73 15 15v3.063a5.192 5.192 0 00-.688.222C52.984 18.425 49.188 13.75 40 13.75c-9.188 0-12.98 4.676-14.313 7.035A5.045 5.045 0 0025 20.56V17.5c0-8.27 6.73-15 15-15zM23.91 22.95c.086-.048.48-.032 1.09.273v3.648c-.781-.812-1.25-2.238-1.25-3.121 0-.582.137-.79.16-.8zM27.5 25h1.613c.992 1.621 3.813 2.5 5.887 2.5 2.215 0 4.027-1.031 4.703-2.5h.594c.676 1.469 2.488 2.5 4.703 2.5 2.074 0 4.895-.879 5.887-2.5H52.5v2.5c0 7.172-7.14 13.75-12.5 13.75-4.277 0-12.5-5.809-12.5-13.75zm0 0"/><path d="M27.566 54.605c-.011.032-1.082 3.11-5.367 4.184a1.25 1.25 0 00.301 2.461c.098 0 .203-.012.3-.04 5.602-1.398 7.075-5.636 7.134-5.815a1.244 1.244 0 00-.79-1.579 1.24 1.24 0 00-1.578.79zm0 0M57.2 61.21c.097.028.202.04.3.04.563 0 1.07-.379 1.21-.95a1.24 1.24 0 00-.91-1.51c-4.206-1.056-5.316-4.052-5.366-4.196a1.251 1.251 0 00-2.371.8c.062.18 1.53 4.419 7.136 5.817zm0 0"/></svg>