<svg height="512" viewBox="0 0 16.933 16.933" width="512" xmlns="http://www.w3.org/2000/svg" fill="#FFFFFF"><path d="M11.097.761L2.643 4.758h-.787c-.876 0-1.59.714-1.59 1.59v8.414c0 .876.714 1.59 1.59 1.59h2.032c.372 0 .376-.53 0-.53H1.856c-.592 0-1.06-.468-1.06-1.06V6.348c0-.592.468-1.06 1.06-1.06h13.249c.592 0 1.06.468 1.06 1.06v8.414c0 .592-.468 1.06-1.06 1.06H5.23c-.39 0-.334.53 0 .53h9.875c.876 0 1.59-.714 1.59-1.59V6.348c0-.876-.714-1.59-1.59-1.59H9.268l4.004-1.879.524 1.109c.155.35.636.154.502-.178-.361-.766-.721-1.526-1.083-2.29-.359-.87-1.33-1.105-2.118-.759zm1.639.984l.31.655L8.02 4.758H3.883l7.441-3.517c.61-.258 1.199.007 1.412.504zM2.521 6.317a.798.798 0 00-.794.795v1.306c0 .436.358.794.794.794h1.305a.8.8 0 00.796-.794V7.112a.8.8 0 00-.796-.795zm0 .53h1.305c.151 0 .266.113.266.265v1.306a.26.26 0 01-.266.264H2.52a.258.258 0 01-.264-.264V7.112c0-.152.113-.264.264-.264zm-.53 3.285c-.132.001-.264.1-.264.292v.348c0 .353.53.353.53 0v-.348c0-.197-.133-.293-.265-.292zm1.006 0c-.133.001-.266.1-.266.292v.348c0 .353.53.353.53 0v-.348c0-.197-.132-.293-.264-.292zm1.004 0c-.132.001-.265.1-.265.292v.348c0 .353.53.353.53 0v-.348c0-.197-.132-.293-.265-.292zm1.005 0c-.133.001-.265.1-.265.292v.348c0 .353.53.353.53 0v-.348c0-.197-.132-.293-.265-.292zm1.95 0c-.133.001-.265.1-.265.292v.348c0 .353.53.353.53 0v-.348c0-.197-.133-.293-.265-.292zm1.004 0c-.132.001-.265.1-.265.292v.348c0 .353.53.353.53 0v-.348c0-.197-.132-.293-.265-.292zm1.005 0c-.132.001-.265.1-.265.292v.348c0 .353.53.353.53 0v-.348c0-.197-.132-.293-.265-.292zm1.005 0c-.132.001-.265.1-.265.292v.348c0 .353.53.353.53 0v-.348c0-.197-.132-.293-.265-.292zm1.95 0c-.133.001-.266.1-.266.292v.348c0 .353.53.353.53 0v-.348c0-.197-.132-.293-.265-.292zm1.004 0c-.132.001-.265.1-.265.292v.348c0 .353.53.353.53 0v-.348c0-.197-.132-.293-.265-.292zm1.005 0c-.132.001-.265.1-.265.292v.348c0 .353.53.353.53 0v-.348c0-.197-.132-.293-.265-.292zm1.005 0c-.133.001-.265.1-.265.292v.348c0 .353.53.353.53 0v-.348c0-.197-.133-.293-.265-.292zm-3.188 1.62c-.809 0-1.47.661-1.47 1.47 0 .81.661 1.472 1.47 1.472.256 0 .497-.067.707-.183.21.114.446.183.7.183.81 0 1.471-.662 1.471-1.471 0-.81-.662-1.472-1.471-1.472-.254 0-.49.069-.7.183a1.458 1.458 0 00-.707-.183zm0 .53c.523 0 .941.418.941.94s-.418.942-.94.942c-.524 0-.942-.418-.942-.941s.418-.941.941-.941zm1.407 0c.523 0 .94.418.94.94a.937.937 0 01-1.19.906 1.46 1.46 0 000-1.811.929.929 0 01.25-.035zm-10.861.328c-.329 0-.303.523.027.528h1.822c.383.033.383-.56 0-.528zm.027 1.159c-.361-.008-.361.538 0 .53h4.34c.36.008.36-.538 0-.53z"/></svg>