<svg xmlns="http://www.w3.org/2000/svg" width="80" height="80" fill="#FFFFFF"><path d="M75.313 0C59.316 0 40 11.484 40 25.746c0 .082.023.32.035.406a1.813 1.813 0 001.367 1.703c.782.2 1.61-.14 2.016-.843 4.785-8.157 11.797-14.43 21.445-19.18.895-.445 2-.047 2.434.828.215.438.246.93.09 1.39a1.78 1.78 0 01-.918 1.044c-10.844 5.344-18.13 12.691-22.285 22.457-.067.097-.153.18-.2.297C41.375 40.133 40.035 47.594 40 56.02c-.64-1.692-1.398-3.297-2.215-4.864C39.23 48.938 40 46.523 40 43.926c0-14.258-19.316-25.742-35.313-25.742A4.694 4.694 0 000 22.87c0 15.996 11.484 35.313 25.746 35.313 3.512 0 6.692-1.375 9.484-4.004C38.418 60.898 40 68.79 40 78.184c0 1.004.813 1.816 1.816 1.816 1.008 0 1.82-.813 1.82-1.816v-21.82c0-7.118 1.02-13.419 2.926-18.88C48.91 39.144 51.484 40 54.255 40 68.516 40 80 20.684 80 4.687A4.696 4.696 0 0075.312 0zm0 0"/></svg>