<svg xmlns="http://www.w3.org/2000/svg" width="80" height="80" fill="#FFFFFF"><path d="M40 0C27.687 0 17.672 10.016 17.672 22.332a6.084 6.084 0 006.082 6.082 6.083 6.083 0 006.078-6.082c0-5.61 4.563-10.172 10.168-10.172 5.605 0 10.168 4.563 10.168 10.172 0 5.605-4.563 10.164-10.168 10.164a6.084 6.084 0 00-6.082 6.082v13.727a6.082 6.082 0 1012.164 0v-8.489c9.363-2.652 16.246-11.28 16.246-21.484C62.328 10.016 52.312 0 40 0zm0 0M40 62.988a8.507 8.507 0 00-8.508 8.508C31.492 76.191 35.301 80 40 80c4.7 0 8.508-3.809 8.508-8.504 0-4.7-3.809-8.508-8.508-8.508zm0 0"/></svg>