<svg xmlns="http://www.w3.org/2000/svg" width="80" height="80" fill="#282D37"><path d="M76.473 25.473l-10.325 4.89c4.133 8.934 2.864 19.75-3.847 27.516l-5.63-5.625v19.574H76.25l-5.828-5.824c10.207-11.277 12.215-27.352 6.05-40.531zm0 0M54.484 76.473L49.59 66.148c-8.93 4.137-19.75 2.864-27.516-3.847l5.63-5.625H8.124V76.25l5.828-5.828c11.274 10.207 27.348 12.215 40.531 6.05zm0 0M17.656 22.074l5.625 5.63V8.124H3.703l5.828 5.828C-.672 25.23-2.676 41.305 3.484 54.484L13.81 49.59c-4.141-8.93-2.864-19.75 3.847-27.516zm0 0M71.828 23.281V3.703l-5.824 5.828C54.723-.672 38.648-2.676 25.469 3.484l4.894 10.325c8.934-4.137 19.75-2.864 27.516 3.847l-5.625 5.625zm0 0M55.617 39.977c0 8.636-7.004 15.64-15.64 15.64-8.637 0-15.641-7.004-15.641-15.64 0-8.637 7.004-15.641 15.64-15.641 8.637 0 15.641 7.004 15.641 15.64zm0 0"/></svg>