<svg xmlns="http://www.w3.org/2000/svg" width="80" height="80" fill="#FFFFFF"><path d="M73.684 0H6.316A6.317 6.317 0 000 6.316v67.368A6.317 6.317 0 006.316 80h67.368A6.317 6.317 0 0080 73.684V6.316A6.317 6.317 0 0073.684 0zM39.102 37.59h8.761v7.422h-8.422l.145 3.203c0 2.18-.563 3.887-1.688 5.129H55.27v7.707H24.738v-7.707h2.934c1.086-.285 1.656-1.27 1.719-2.95l.023-1.515-.14-3.867h-4.649V37.59h4.402l-.175-6.195c0-3.899 1.164-6.95 3.496-9.153 2.328-2.203 5.488-3.3 9.472-3.293 4.266 0 7.598 1.094 10 3.281 2.403 2.192 3.598 5.16 3.586 8.907h-9.453c0-2.989-1.297-4.485-3.883-4.485a2.818 2.818 0 00-2.34 1.157c-.593.777-.886 1.964-.886 3.586zm0 0"/></svg>