<svg xmlns="http://www.w3.org/2000/svg" width="80" height="80" fill="#282D37"><path d="M78.734 31.668L72 25.887V10.98a2.669 2.669 0 00-2.668-2.668h-8a2.666 2.666 0 00-2.664 2.668v3.47L43.75 1.647a5.931 5.931 0 00-7.5 0L1.266 31.668c-1.54 1.316-1.344 2.395-1.094 2.926.219.476.848 1.238 2.555 1.398.246.031.496.047.742.043h1.875v44.278h69.324v-44.32l1.863.042c.242.004.489-.012.73-.043 1.708-.156 2.337-.922 2.571-1.398.246-.532.441-1.61-1.098-2.926zM26.668 72.313c-7.367 0-13.336-5.97-13.336-13.333 0-7.367 5.969-13.335 13.336-13.335C34.031 45.645 40 51.613 40 58.98a13.276 13.276 0 01-3.895 9.438 13.276 13.276 0 01-9.437 3.894zm4-12.114a1.099 1.099 0 01-.574.477c-.133.05-.274.074-.414.074h-4.188l-.234 2.023a5.27 5.27 0 01-.356 1.38c-.18.413-.422.796-.722 1.132.398-.09.797-.156 1.195-.215.39-.054.785-.082 1.18-.082h6.351l-.199 1.473c-.027.187-.09.371-.184.539-.097.18-.222.348-.375.488a1.784 1.784 0 01-.53.364 1.55 1.55 0 01-.65.14H19.25l.297-2.21c.48-.075.926-.302 1.27-.641.288-.313.468-.778.542-1.395l.368-3h-1.79l.188-1.434a.792.792 0 01.113-.312c.063-.105.145-.2.239-.277.105-.086.218-.153.34-.203a.984.984 0 01.41-.079h.78l.337-2.703c.093-.77.32-1.52.668-2.21a6.262 6.262 0 011.383-1.84 6.545 6.545 0 012.054-1.258c.848-.32 1.75-.48 2.656-.47a6.693 6.693 0 011.887.247 4.82 4.82 0 011.406.676c.395.281.735.633 1.008 1.035.27.41.496.855.672 1.316l-1.594.938c-.3.156-.636.23-.972.223a1.15 1.15 0 01-.817-.442 9.742 9.742 0 00-.41-.469 1.715 1.715 0 00-.402-.312 1.735 1.735 0 00-.492-.18 3.358 3.358 0 00-.657-.054 2.39 2.39 0 00-1.77.718c-.476.48-.765 1.164-.87 2.055l-.328 2.734h5.195l-.172 1.434a.937.937 0 01-.121.32zm0 0"/></svg>