<svg xmlns="http://www.w3.org/2000/svg" width="80" height="80" fill="#282D37"><path d="M68.266 11.7c-15.594-15.598-40.97-15.598-56.567 0-15.597 15.593-15.597 40.972 0 56.566 15.594 15.597 40.969 15.597 56.567 0 15.597-15.594 15.597-40.973 0-56.567zm1.132 46.902l-9.984-9.98a21.39 21.39 0 00.05-17.173l9.993-9.988c7.11 11.312 7.098 25.84-.059 37.14zm-40.82-7.215c-6.293-6.29-6.293-16.52 0-22.809 6.29-6.293 16.516-6.293 22.809 0 6.293 6.29 6.293 16.516 0 22.809-6.293 6.285-16.524 6.281-22.809 0zm29.93-40.883L48.512 20.5a21.333 21.333 0 00-17.168.047l-9.985-9.988c11.305-7.149 25.832-7.164 37.149-.055zM10.449 21.547l10 10a21.362 21.362 0 00.051 16.965L10.508 58.5c-7.074-11.254-7.09-25.676-.059-36.953zm11.004 47.91l9.992-9.992a21.371 21.371 0 0016.97.05l10 10c-11.278 7.032-25.704 7.016-36.962-.058zm0 0"/></svg>