<svg xmlns="http://www.w3.org/2000/svg" width="80" height="80" fill="#FFFFFF"><path d="M40.105 0C17.957 0 0 17.953 0 40.105c0 22.149 17.957 40.102 40.105 40.102 22.149 0 40.102-17.953 40.102-40.102C80.207 17.953 62.254 0 40.105 0zm5.887 66.883c0 .691-.558 1.25-1.25 1.25h-9.277c-.692 0-1.25-.559-1.25-1.25v-35.36c0-.691.558-1.25 1.25-1.25h9.281c.688 0 1.25.559 1.25 1.25v35.36zm-5.887-40.227a7.299 7.299 0 01-7.292-7.293c0-4.02 3.269-7.289 7.292-7.289 4.02 0 7.29 3.27 7.29 7.29 0 4.023-3.27 7.292-7.29 7.292zm0 0"/></svg>