<svg xmlns="http://www.w3.org/2000/svg" width="80" height="80" fill="#FFFFFF"><path d="M74.508 71.371H53.94v-4.98h18.934l-3-9.13H55.59c-4.29 4.09-8.25 7.852-11.805 12.723L40 75.176l-3.785-5.196c-3.586-4.91-7.637-8.738-11.805-12.718H10.125c-.023.074-1.422 4.324-3 9.129h18.934v4.98H5.492c-1.504 4.57-2.8 8.516-2.836 8.629h74.688c-.035-.11-1.332-4.059-2.836-8.629zm0 0"/><path d="M40 67.219C51.3 51.73 67.387 45.754 67.387 27.387 67.387 11.69 55.69 0 40 0 24.312 0 12.613 11.691 12.613 27.387c0 18.367 16.094 24.347 27.387 39.832zm0-46.274c4.113 0 7.469 3.356 7.469 7.47 0 4.112-3.356 7.468-7.469 7.468s-7.469-3.356-7.469-7.469 3.356-7.469 7.469-7.469zm0 0"/></svg>