<svg xmlns="http://www.w3.org/2000/svg" width="80" height="80" fill="#282D37"><path d="M3.047 49.266v1.863a1.529 1.529 0 00-1.156 1.48v5.493c-.442.207-.75.656-.75 1.18v19.417c0 .719.586 1.301 1.3 1.301h15.504c.715 0 1.301-.582 1.301-1.3V59.28c0-.523-.308-.972-.75-1.18V52.61c0-.714-.492-1.312-1.156-1.48v-1.867c0-.946.308-1.86.867-2.575.348-.445.66-.925.93-1.421l7.008-12.133a2.128 2.128 0 00-.778-2.899 4.697 4.697 0 00-3.578-.472c-.52.14-1.004.363-1.434.656v-.988a1.17 1.17 0 00-1.171-1.172 1.17 1.17 0 00-1.172 1.172v4.105l-.457.793a4.996 4.996 0 00-4.942 1.258 4.993 4.993 0 000 7.055 1.172 1.172 0 001.657-1.657 2.65 2.65 0 010-3.742 2.643 2.643 0 013.195-.418 1.171 1.171 0 001.601-.43c.125-.214 1.762-3.046 1.887-3.261A2.368 2.368 0 0124 32.16c-7.05 12.207-6.902 11.957-6.918 11.98a7.57 7.57 0 01-.723 1.106A6.54 6.54 0 0015 49.262l-.004 1.824h-9.61v-1.82c0-1.461-.484-2.891-1.37-4.032a7.74 7.74 0 01-1.641-4.793V24.488a1.077 1.077 0 012.152 0v7.074a1.172 1.172 0 002.344 0V21.489a1.077 1.077 0 112.152 0v10.075a1.17 1.17 0 002.34 0V18.805a1.08 1.08 0 011.078-1.078 1.08 1.08 0 011.079 1.078v12.758a1.17 1.17 0 002.34 0V21.488a1.077 1.077 0 112.152 0v2.477a1.17 1.17 0 001.172 1.172 1.17 1.17 0 001.171-1.172v-2.477a3.425 3.425 0 00-3.418-3.422c-.394 0-.769.067-1.12.192a3.424 3.424 0 00-3.376-2.875 3.424 3.424 0 00-3.375 2.875 3.329 3.329 0 00-1.12-.192 3.425 3.425 0 00-3.41 3.18 3.424 3.424 0 00-4.504 3.242v15.953c0 2.278.738 4.434 2.136 6.23.566.731.879 1.653.879 2.595zm13.11 4.164v4.55H4.23v-4.55zm.745 24.226H3.484V60.32h13.418zm0 0M43.707 2.684c-.395 0-.77.066-1.121.187A3.424 3.424 0 0039.21 0a3.424 3.424 0 00-3.375 2.871 3.425 3.425 0 00-4.531 2.992A3.42 3.42 0 0026.8 9.105v15.95c0 2.28.738 4.437 2.137 6.23.566.73.878 1.652.878 2.594v1.867a1.524 1.524 0 00-1.156 1.477v5.496c-.441.207-.75.656-.75 1.176v8.5a1.173 1.173 0 002.344 0v-7.458h13.418v32.72H30.254V57.858a1.172 1.172 0 00-2.344 0V78.7c0 .719.586 1.301 1.3 1.301h15.505c.715 0 1.3-.582 1.3-1.3V43.894c0-.52-.308-.97-.75-1.176v-5.496c0-.711-.492-1.313-1.156-1.477V33.88c0-.945.309-1.86.868-2.574.347-.45.66-.926.93-1.422l7.007-12.137a2.123 2.123 0 00-.777-2.894 4.68 4.68 0 00-3.578-.473c-.52.14-1.004.36-1.434.652v-8.93a3.424 3.424 0 00-3.418-3.417zm-.781 35.359v4.55H31.004v-4.55zm7.844-21.266c-7.047 12.207-6.907 11.957-6.915 11.977-.21.39-.453.762-.722 1.11a6.543 6.543 0 00-1.363 4.015v1.824h-9.61l-.004-1.824c0-1.461-.484-2.89-1.37-4.027a7.743 7.743 0 01-1.641-4.797V9.105a1.08 1.08 0 011.074-1.078 1.08 1.08 0 011.078 1.078v7.07a1.173 1.173 0 002.344 0V6.103a1.077 1.077 0 012.152 0v10.074a1.17 1.17 0 102.34 0V3.418c0-.594.484-1.074 1.078-1.074.594 0 1.078.48 1.078 1.074v12.758a1.17 1.17 0 102.34 0V6.102a1.077 1.077 0 012.152 0v12.05l-.457.793a4.996 4.996 0 00-4.941 1.258 4.958 4.958 0 00-1.461 3.527 4.95 4.95 0 001.46 3.524 1.172 1.172 0 001.657-1.656 2.617 2.617 0 01-.773-1.868c0-.707.273-1.37.773-1.87a2.65 2.65 0 013.195-.422c.27.156.59.199.891.117.297-.078.555-.274.71-.543.13-.227 1.759-3.04 1.888-3.266a2.378 2.378 0 013.047-.969zm0 0M65.98 17.727a3.424 3.424 0 00-3.375 2.87 3.425 3.425 0 00-4.531 2.992 3.42 3.42 0 00-4.5 3.242v5.356a1.17 1.17 0 102.34 0v-5.355a1.077 1.077 0 112.152 0v7.07a1.17 1.17 0 001.172 1.172 1.17 1.17 0 001.172-1.172V23.828a1.077 1.077 0 112.153 0v10.074a1.173 1.173 0 002.344 0V21.145a1.077 1.077 0 112.152 0v12.757a1.17 1.17 0 102.34 0V23.828a1.077 1.077 0 112.152 0v12.05l-.457.794a4.989 4.989 0 00-4.941 8.309 1.172 1.172 0 001.656-1.657 2.645 2.645 0 013.195-4.16 1.173 1.173 0 001.601-.426c.133-.226 1.754-3.039 1.887-3.265a2.378 2.378 0 013.047-.97c-7.047 12.208-6.902 11.954-6.914 11.977-.21.387-.453.762-.723 1.11a6.543 6.543 0 00-1.363 4.015v1.825h-9.61v-1.825c0-1.46-.488-2.89-1.374-4.03a7.732 7.732 0 01-1.64-4.794v-5.129a1.172 1.172 0 00-2.344 0v5.13c0 2.28.738 4.437 2.136 6.23.566.73.879 1.652.879 2.593v1.868a1.524 1.524 0 00-1.156 1.476v5.496c-.442.207-.75.657-.75 1.176V78.7c0 .719.586 1.301 1.304 1.301h15.5a1.3 1.3 0 001.301-1.3V61.62c0-.52-.308-.969-.75-1.176V54.95c0-.71-.492-1.312-1.156-1.476v-1.868c0-.945.308-1.859.867-2.578.352-.445.664-.922.93-1.422l7.008-12.132a2.117 2.117 0 00-.778-2.895 4.72 4.72 0 00-5.011.184v-8.934a3.422 3.422 0 00-4.54-3.23 3.424 3.424 0 00-3.375-2.871zM57.773 60.32v-4.55h11.922v4.55zm12.668 17.336H57.023V62.664h13.418zm0 0"/></svg>