<svg xmlns="http://www.w3.org/2000/svg" width="80" height="80" fill="#FFFFFF"><path d="M72.965 47.59l-12.5-5a1.265 1.265 0 00-1.063.058 1.27 1.27 0 00-.629.856l-.203 1.012-2.808-.625-2.223-3.336c-.191-.29-.5-.489-.848-.54-.343-.054-.699.04-.972.258l-.043.036-.653-2.618c1.856-2.183 3.254-4.855 3.758-7.832 2.754-.714 3.969-4.218 3.969-6.109 0-1.625-.637-2.445-1.25-2.863V17.5C57.5 6.703 50.797 0 40 0c-4.887 0-6.867 1.383-10.531 5.016C22.5 5.39 22.5 13.238 22.5 17.5v3.387c-.613.418-1.25 1.238-1.25 2.863 0 1.887 1.21 5.387 3.96 6.11.5 3.054 1.919 5.695 3.767 7.831l-.657 2.614-.039-.032a1.248 1.248 0 00-1.82.286l-2.223 3.332-2.808.625-.203-1.012a1.254 1.254 0 00-1.692-.914l-12.5 5a1.253 1.253 0 00-.762 1.406l1.25 6.25c.075.363.305.676.633.856.184.097.39.148.594.148.059 0 .113-.023.172-.031-.11.703-.172 1.414-.172 2.136V78.75c0 .691.559 1.25 1.25 1.25s1.25-.559 1.25-1.25V58.355c0-1.09.164-2.16.473-3.195l9.992-4a1.25 1.25 0 00.762-1.406l-.559-2.785 2.582-.574 8.262 10.625c.207.261.508.433.84.472a1.267 1.267 0 00.93-.266l1.917-1.535 1.016 2.036-2.457 20.878A1.253 1.253 0 0036.25 80c.625 0 1.168-.469 1.242-1.105L39.86 58.75h.282l2.367 20.145a1.253 1.253 0 001.387 1.097 1.253 1.253 0 001.097-1.387l-2.457-20.878 1.016-2.036 1.918 1.536a1.267 1.267 0 00.926.265c.335-.039.636-.21.84-.476L55.5 46.39l2.582.578-.559 2.785c-.117.59.204 1.184.762 1.406l9.992 3.996c.309 1.04.473 2.11.473 3.2V78.75c0 .691.559 1.25 1.25 1.25s1.25-.559 1.25-1.25V58.355c0-.722-.063-1.433-.172-2.136.059.008.113.031.172.031a1.254 1.254 0 001.227-1.004l1.25-6.25a1.253 1.253 0 00-.762-1.406zm-57.832-.547l.754 3.758-1.575.629-.753-3.758zm-3.934 1.574l.75 3.758-2.27.906-.75-3.758zm7.047 1.238l-.754-3.757 1.578-.63.75 3.755zM55 26.871v-3.648c.61-.305 1-.32 1.09-.274.023.012.16.219.16.801 0 .887-.469 2.309-1.25 3.121zM30 7.5c.332 0 .648-.133.883-.367C34.64 3.379 35.93 2.5 40 2.5c9.39 0 15 5.61 15 15v3.066c-.188.047-.375.094-.57.168-.516-1.312-1.371-3.191-2.297-4.117-1.688-1.691-5.86-1.98-10.692-2.316-3.722-.262-7.945-.555-9.5-1.59a1.239 1.239 0 00-1.28-.063c-.407.215-.661.641-.661 1.102 0 3.316-2.648 6.105-3.883 7.227a5.568 5.568 0 00-1.117-.41V17.5c0-5.27.383-10 5-10zm-6.09 15.45c.086-.048.48-.032 1.09.273v3.648c-.781-.812-1.25-2.238-1.25-3.121 0-.582.137-.79.16-.8zm3.59.144c1.176-1.008 4.043-3.79 4.809-7.5 2.28.734 5.55.96 8.96 1.199 3.594.254 8.07.562 9.098 1.59.723.726 1.66 2.96 2.133 4.328V27.5c0 7.574-7.602 13.75-12.5 13.75-4.277 0-12.5-5.805-12.5-13.75zm3.54 16.648c3.007 2.563 6.51 4.008 8.96 4.008 2.71 0 6.094-1.488 8.965-3.984l.566 2.257L40 49.648l-9.531-7.625zm2.917 14.742l-7.418-9.539 1.242-1.867L38 51.25zm6.52 1.766h-.954l-1.078-2.156L40 52.852l1.555 1.242zm5.566-1.766L42 51.25l10.219-8.172 1.242 1.867zm22.008-2.109l.75-3.758 2.27.906-.75 3.758zm-2.364-.945l-1.574-.633.754-3.754 1.574.629zm-4.757-5.961l1.578.629-.754 3.757-1.574-.628zm0 0"/><path d="M22.5 70c-.691 0-1.25.559-1.25 1.25v7.5c0 .691.559 1.25 1.25 1.25s1.25-.559 1.25-1.25v-7.5c0-.691-.559-1.25-1.25-1.25zm0 0M57.5 70c-.691 0-1.25.559-1.25 1.25v7.5c0 .691.559 1.25 1.25 1.25s1.25-.559 1.25-1.25v-7.5c0-.691-.559-1.25-1.25-1.25zm0 0M52.5 70h-3.75c-.691 0-1.25.559-1.25 1.25s.559 1.25 1.25 1.25h3.75c.691 0 1.25-.559 1.25-1.25S53.191 70 52.5 70zm0 0"/></svg>