<svg xmlns="http://www.w3.org/2000/svg" width="80" height="80" fill="#282D37"><path d="M58.332 36.668c-11.945 0-21.664 9.719-21.664 21.664C36.668 70.282 46.387 80 58.332 80 70.282 80 80 70.281 80 58.332c0-11.945-9.719-21.664-21.668-21.664zM61.668 70a3.333 3.333 0 01-3.336 3.332A3.33 3.33 0 0155 70V58.332A3.33 3.33 0 0158.332 55a3.333 3.333 0 013.336 3.332zm-3.336-20A3.333 3.333 0 0155 46.668a3.336 3.336 0 013.332-3.336 3.34 3.34 0 013.336 3.336A3.336 3.336 0 0158.332 50zm0 0"/><path d="M59.934.367C51.3-.898 43.668 1.168 36.668 6.668c-7-5.5-14.633-7.566-23.27-6.3C10.5.765 8.332 3.265 8.332 6.132v36.566c0 1.633.703 3.2 1.934 4.301a5.798 5.798 0 004.601 1.465c5.301-.598 10.434.5 15.168 3.203.23.098.43.23.664.367.035-.137.067-.234.102-.367a26.12 26.12 0 011.5-4.469c-4.567-2.566-9.5-3.898-14.602-3.898-1.133 0-2.234.066-3.398.199a.847.847 0 01-.7-.234.708.708 0 01-.269-.567V6.133c0-.399.336-.766.77-.832 7.53-1.102 13.933.765 20.066 5.8.297.2.566.465.867.7.93.832 2.332.832 3.266 0 .3-.235.566-.5.867-.7 6.133-5.035 12.531-6.867 20.066-5.8.434.066.766.433.766.832v23.902c1.7.098 3.367.363 5 .766V6.133C65 3.266 62.832.766 59.934.367zm0 0"/><path d="M30.8 51.668c-.034.133-.066.23-.1.367a30.287 30.287 0 00-.665 4.633H5.832c-3.2 0-5.832-2.633-5.832-5.836V12.5c0-3.2 2.602-5.8 5.8-5.832H10c1.367 0 2.5 1.098 2.5 2.5 0 1.367-1.102 2.5-2.5 2.5H5.832A.845.845 0 005 12.5v38.332c0 .469.367.836.832.836zm0 0M73.332 12.5v21.8a28.888 28.888 0 00-5-2.468V12.5a.825.825 0 00-.832-.832h-4.168a2.518 2.518 0 01-2.5-2.5c0-1.367 1.133-2.5 2.5-2.5H67.5c3.2 0 5.832 2.633 5.832 5.832zm0 0M39.168 10v27.5a27.423 27.423 0 00-5 6.066V10c0-1.367 1.133-2.5 2.5-2.5s2.5 1.133 2.5 2.5zm0 0"/></svg>