<svg xmlns="http://www.w3.org/2000/svg" width="80" height="80" fill="#FFFFFF"><path d="M53.785 43.242l-6.812-3.027c-.48-.211-.79-.692-.79-1.215v-1.871c2.286-1.824 3.758-4.629 3.758-7.777v-2.63a2.43 2.43 0 001.25-2.124v-.254c0-5.48-4.457-9.942-9.937-9.942h-2.508c-5.48 0-9.937 4.461-9.937 9.942v2.316c0 .793.34 1.512.933 1.969.102.078.207.148.32.207v.516a9.93 9.93 0 003.754 7.777v1.867a1.33 1.33 0 01-.789 1.219l-6.808 3.027a6.19 6.19 0 00-3.672 5.649v15.535a1.173 1.173 0 002.344 0V48.89c0-.133.007-.27.023-.403l3.137 3.137c.488.492.758 1.14.758 1.832v10.969a1.173 1.173 0 002.343 0V53.457c0-1.32-.511-2.555-1.445-3.488l-3.738-3.739c.336-.351.738-.64 1.199-.847l6.695-2.973 4.965 4.965v17.05a1.173 1.173 0 002.344 0v-17.05l4.965-4.965 6.695 2.973c.461.207.863.496 1.203.847l-3.742 3.739a4.909 4.909 0 00-1.445 3.488v10.969a1.173 1.173 0 002.344 0V53.457c0-.691.269-1.34.757-1.832l3.137-3.137c.016.133.027.27.027.403v15.535a1.173 1.173 0 002.344 0V48.89a6.197 6.197 0 00-3.672-5.649zM40 45.23l-4.355-4.355A3.665 3.665 0 0036.16 39v-.48a9.84 9.84 0 003.84.773 9.84 9.84 0 003.84-.773V39c0 .672.183 1.316.515 1.875zm0-8.28c-4.188 0-7.594-3.407-7.594-7.598v-.524c.73-.293 1.442-.754 2.125-1.383a1.173 1.173 0 00-1.59-1.723c-.586.54-1.171.891-1.738 1.04-.015.004-.023.004-.031.004a.245.245 0 01-.02-.106v-2.316c0-4.188 3.407-7.598 7.594-7.598h2.508c4.187 0 7.594 3.41 7.594 7.598v.254c0 .039-.024.07-.051.078-7.02 1.387-10.54-1.227-11.727-2.414a1.172 1.172 0 00-1.656 1.656c3.64 3.64 8.95 3.707 12.184 3.316v2.118c0 4.191-3.41 7.597-7.598 7.597zm0 0M21.133 36.867v-2.504a8.68 8.68 0 00-3.985-7.297c.149-.472.227-.972.227-1.468 0-2.72-2.21-4.93-4.93-4.93a4.935 4.935 0 00-4.707 6.398 8.686 8.686 0 00-3.98 7.297v2.504a8.682 8.682 0 003.758 7.149v2.578c0 .508-.282.965-.739 1.191l-4.05 2.028A4.9 4.9 0 000 54.222v10.203a1.173 1.173 0 002.344 0v-9.7l1.91 1.91c.488.489.758 1.137.758 1.829v5.96a1.173 1.173 0 002.343 0v-5.96A4.9 4.9 0 005.91 54.98l-2.656-2.656c-.012-.015-.027-.023-.04-.039.165-.144.352-.273.56-.375l4.054-2.027c.207-.106.399-.227.578-.363l2.867 2.863v12.043a1.173 1.173 0 002.344 0V52.383l2.863-2.863c.18.136.375.257.582.363l1.118.558c.168.082.347.125.523.125a1.175 1.175 0 00.527-2.223l-1.12-.558a1.324 1.324 0 01-.735-1.191v-2.578a8.686 8.686 0 003.758-7.149zm-8.688-13.855a2.589 2.589 0 012.543 3.047 8.69 8.69 0 00-5.086-.004 2.518 2.518 0 01-.043-.457 2.589 2.589 0 012.586-2.586zm0 5.008a6.353 6.353 0 016.344 6.343v.426C13.91 36.281 11 32.57 10.88 32.406a1.182 1.182 0 00-.856-.465 1.187 1.187 0 00-.914.34c-1.117 1.121-2.21 1.66-3.004 1.918a6.348 6.348 0 016.34-6.18zm0 22.222l-2.707-2.707a3.77 3.77 0 00.121-.941v-1.43c.817.254 1.684.39 2.586.39.899 0 1.77-.136 2.586-.39v1.43c0 .324.043.636.121.941zm0-7.031a6.348 6.348 0 01-6.343-6.344v-.242c.933-.215 2.32-.715 3.765-1.875.512.48 1.242 1.074 2.172 1.582a9.312 9.312 0 004.48 1.156c.704 0 1.461-.082 2.258-.27a6.348 6.348 0 01-6.332 5.993zm0 0M77.273 47.309l-6.554-3.282a1.32 1.32 0 01-.739-1.191v-1.66a7.42 7.42 0 002.504-5.559v-1.336h.082a1.17 1.17 0 001.172-1.172v-2.504c0-4.097-3.336-7.433-7.433-7.433h-2.508c-4.098 0-7.434 3.336-7.434 7.433v2.504a1.17 1.17 0 001.172 1.172h.082v1.336a7.42 7.42 0 002.504 5.559v1.66c0 .508-.281.965-.738 1.191a1.174 1.174 0 001.05 2.098c.208-.105.399-.227.579-.363l2.867 2.867v15.797a1.173 1.173 0 002.344 0V48.625l2.863-2.863c.184.136.375.258.582.363l6.348 3.172-1.926 1.926a4.9 4.9 0 00-1.445 3.484v9.719c0 .644.527 1.172 1.171 1.172.649 0 1.172-.528 1.172-1.172v-9.719c0-.691.27-1.34.758-1.828l1.824-1.824c.055.215.086.433.086.66v12.71a1.173 1.173 0 002.344 0v-12.71a4.895 4.895 0 00-2.727-4.406zm-18.566-15.61v-1.094a5.098 5.098 0 015.09-5.09h2.508a5.098 5.098 0 015.09 5.09v1.301c-5.094-.273-8.168-2.254-8.2-2.273a1.165 1.165 0 00-1.477.145c-1.124 1.12-2.222 1.66-3.011 1.921zm6.344 14.785l-2.707-2.707a3.77 3.77 0 00.12-.941v-.25a7.37 7.37 0 002.587.465 7.37 7.37 0 002.586-.465v.25c0 .324.043.637.12.941zm0-5.777a5.095 5.095 0 01-5.09-5.09v-1.89a9.856 9.856 0 002.75-1.68c1.23.64 3.805 1.75 7.43 2.113v1.457a5.095 5.095 0 01-5.09 5.09zm0 0"/></svg>