<svg xmlns="http://www.w3.org/2000/svg" width="80" height="80" fill="#282D37"><path d="M64.102 28.02a4.725 4.725 0 00-4.72 4.718 4.725 4.725 0 004.72 4.719 4.725 4.725 0 004.718-4.719 4.725 4.725 0 00-4.718-4.718zm0 7.09a2.372 2.372 0 010-4.743 2.372 2.372 0 010 4.742zm0 0"/><path d="M64.102 22.262a1.174 1.174 0 000 2.347c4.484 0 8.128 3.649 8.128 8.13 0 3.761-2.566 6.933-6.039 7.855-.328.086-.66.152-.992.199-.023.004-.05.004-.074.008-.152.02-.305.035-.457.047-.016 0-.031 0-.05.004-.345.02-.688.02-1.032 0-.02-.004-.035-.004-.05-.004a9.054 9.054 0 01-.458-.047c-.023-.004-.05-.004-.074-.008a8.745 8.745 0 01-.992-.2c-3.473-.925-6.04-4.093-6.04-7.855a8.133 8.133 0 014.75-7.394c.587-.27.848-.965.579-1.555a1.176 1.176 0 00-1.559-.578 10.482 10.482 0 00-6.117 9.527c0 4.516 2.871 8.375 6.887 9.844v16.75c0 7.438-6.051 13.488-13.489 13.488-7.437 0-13.492-6.05-13.492-13.488V49.277c6.282-1.152 11.817-5.382 16.063-12.289a3.592 3.592 0 00-.383-4.273c4.191-8.156 6.074-15.852 4.918-20.242-.86-3.258-3.793-5.844-8.504-7.508-.082-1.067-.691-2.156-1.77-3.13C42.813.896 41.492.208 40.402.044c-2.304-.348-4.496 1.496-4.894 4.113-.188 1.23.047 2.457.66 3.457.648 1.063 1.645 1.746 2.797 1.918.215.035.441.051.68.051.976 0 2.125-.266 3.148-.742.934-.43 1.656-.988 2.14-1.63 2.88 1.028 6.13 2.837 6.926 5.86.762 2.895-.043 9.43-4.699 18.504a3.53 3.53 0 00-1.457.043 3.56 3.56 0 00-2.226 1.61c-3.75 6.101-8.305 9.195-13.536 9.195-5.23 0-9.78-3.094-13.53-9.195a3.602 3.602 0 00-3.688-1.653C8.066 22.5 7.266 15.964 8.027 13.07c.793-3.02 4.032-4.824 6.922-5.86.485.642 1.211 1.2 2.14 1.63 1.024.476 2.173.742 3.15.742.238 0 .468-.016.679-.05 1.156-.173 2.148-.856 2.8-1.919.61-1 .845-2.226.657-3.457-.395-2.617-2.59-4.46-4.895-4.113-1.085.164-2.41.852-3.453 1.793-1.074.973-1.683 2.062-1.765 3.129C9.55 6.629 6.617 9.21 5.758 12.473c-1.156 4.386.722 12.086 4.914 20.242a3.597 3.597 0 00-.379 4.273c4.242 6.907 9.781 11.137 16.059 12.29v5.745a1.174 1.174 0 002.347 0v-6.75c0-.59-.437-1.09-1.023-1.164-5.973-.77-11.293-4.695-15.387-11.351a1.245 1.245 0 01.402-1.703c.004-.004.008-.004.012-.008.016-.008.031-.02.047-.027a1.248 1.248 0 011.66.437c4.207 6.844 9.434 10.313 15.531 10.313 6.102 0 11.329-3.47 15.536-10.313a1.235 1.235 0 011.648-.441l.059.035c.004 0 .007.004.011.004.578.363.758 1.125.399 1.707-4.09 6.652-9.41 10.578-15.383 11.347a1.175 1.175 0 00-1.023 1.164v11.059c0 8.73 7.101 15.836 15.835 15.836 8.73 0 15.836-7.106 15.836-15.836V43.141l.098.011.137.012c.144.016.285.027.43.035.035 0 .07.004.105.004.152.008.3.012.453.012h.04c.148 0 .3-.004.452-.012.035 0 .07-.004.106-.004.144-.008.285-.02.43-.035l.136-.012.098-.011v16.187a18.25 18.25 0 01-5.004 12.574 1.173 1.173 0 001.703 1.614 20.575 20.575 0 005.648-14.188V42.582c4.016-1.469 6.887-5.328 6.887-9.844 0-5.777-4.7-10.476-10.476-10.476zM43.277 5.332c-.168 1.117-2.742 2.066-3.96 1.879-.458-.07-.864-.363-1.149-.824-.324-.528-.441-1.196-.34-1.883.2-1.313 1.219-2.293 2.223-2.14.515.077 1.43.491 2.23 1.214.688.617 1.067 1.29.996 1.754zM17.602 3.578c.8-.723 1.718-1.137 2.23-1.215.07-.011.14-.015.211-.015.934 0 1.828.933 2.016 2.16.101.683-.02 1.351-.344 1.879-.281.46-.688.754-1.145.824-1.218.187-3.793-.762-3.96-1.879-.07-.465.308-1.137.992-1.754zm0 0"/><path d="M59.219 74.574a1.175 1.175 0 00-1.637-.277 18.181 18.181 0 01-10.559 3.355c-10.105 0-18.324-8.218-18.324-18.324 0-.644-.527-1.172-1.172-1.172-.648 0-1.175.528-1.175 1.172C26.352 70.727 35.625 80 47.023 80c4.293 0 8.414-1.309 11.914-3.79a1.172 1.172 0 00.282-1.636zm0 0"/></svg>