<svg xmlns="http://www.w3.org/2000/svg" width="80" height="80" fill="#FFFFFF"><path d="M71.668 0H8.332A8.332 8.332 0 000 8.332v63.336A8.332 8.332 0 008.332 80h63.336A8.332 8.332 0 0080 71.668V8.332A8.332 8.332 0 0071.668 0zM8.332 3.332h63.336a5 5 0 015 5v5H3.332v-5a5 5 0 015-5zm63.336 73.336H8.332a5 5 0 01-5-5v-55h73.336v55a5 5 0 01-5 5zm0 0"/><path d="M70.734 9.715a1.656 1.656 0 001.774.086c.558-.317.887-.926.844-1.567a1.667 1.667 0 00-3.133-.671 1.663 1.663 0 00.515 2.152zm0 0M66.668 8.332c0-.918-.746-1.664-1.668-1.664A1.666 1.666 0 1065 10c.922 0 1.668-.746 1.668-1.668zm0 0M57.7 9.867c.734.301 1.581.047 2.023-.613a1.668 1.668 0 00-.207-2.106c-2.215-1.78-4.118 1.836-1.817 2.72zm0 0M8.332 10h30a1.667 1.667 0 100-3.332h-30a1.665 1.665 0 000 3.332zm0 0M21.668 51.668c8.281 0 15-6.719 15-15 0-8.285-6.719-15-15-15-8.285 0-15 6.715-15 15 0 8.281 6.715 15 15 15zm-6.5-5.316c4.266-6.204 8.73-6.204 13 0a11.671 11.671 0 01-13 0zM18.332 35A3.333 3.333 0 0125 35a3.333 3.333 0 01-6.668 0zm3.336-10a11.667 11.667 0 018.98 19.102 16.496 16.496 0 00-4.363-4.317 6.667 6.667 0 00-4.617-11.477 6.668 6.668 0 00-6.188 4.176 6.67 6.67 0 001.57 7.301 16.51 16.51 0 00-4.366 4.317A11.667 11.667 0 0121.668 25zm0 0M36.668 63.332H23.332c-.918 0-1.664.746-1.664 1.668 0 .922.746 1.668 1.664 1.668h13.336c.918 0 1.664-.746 1.664-1.668 0-.922-.746-1.668-1.664-1.668zm0 0M36.668 56.668H8.332a1.665 1.665 0 000 3.332h28.336a1.666 1.666 0 000-3.332zm0 0M36.668 70H8.332a1.666 1.666 0 000 3.332h28.336a1.665 1.665 0 000-3.332zm0 0M71.668 63.332H43.332c-.918 0-1.664.746-1.664 1.668v6.668c0 .918.746 1.664 1.664 1.664h28.336c.918 0 1.664-.746 1.664-1.664V65c0-.922-.746-1.668-1.664-1.668zM70 70H45v-3.332h25zm0 0M71.668 43.332h-10c-.922 0-1.668.746-1.668 1.668v13.332c0 .922.746 1.668 1.668 1.668h10c.918 0 1.664-.746 1.664-1.668V45c0-.922-.746-1.668-1.664-1.668zM70 56.668h-6.668v-10H70zm0 0M43.332 60H55a1.667 1.667 0 100-3.332H43.332a1.665 1.665 0 000 3.332zm0 0M43.332 53.332H55A1.666 1.666 0 1055 50H43.332a1.666 1.666 0 000 3.332zm0 0M43.332 46.668H55a1.667 1.667 0 100-3.336H43.332c-.918 0-1.664.746-1.664 1.668 0 .922.746 1.668 1.664 1.668zm0 0M71.668 36.668H43.332a1.665 1.665 0 000 3.332h28.336a1.666 1.666 0 000-3.332zm0 0M71.668 20H43.332c-.918 0-1.664.746-1.664 1.668v10c0 .918.746 1.664 1.664 1.664h28.336c.918 0 1.664-.746 1.664-1.664v-10c0-.922-.746-1.668-1.664-1.668zM70 30H45v-6.668h25zm0 0M8.332 66.668h8.336c.918 0 1.664-.746 1.664-1.668 0-.922-.746-1.668-1.664-1.668H8.332c-.918 0-1.664.746-1.664 1.668 0 .922.746 1.668 1.664 1.668zm0 0"/></svg>