<svg xmlns="http://www.w3.org/2000/svg" width="80" height="80" fill="#FFFFFF"><path d="M78.438 32.266H65.624v-3.309c0-.863-.7-1.562-1.563-1.562h-33.75a1.562 1.562 0 100 3.125H62.5V42.5c0 10.523-5.617 20.305-14.691 25.625H17.816C8.742 62.805 3.125 53.023 3.125 42.5V30.52h10.469a1.562 1.562 0 100-3.125H1.563c-.864 0-1.563.699-1.563 1.562V42.5c0 5.906 1.586 11.7 4.59 16.746a33.082 33.082 0 007.73 8.879H1.562c-.863 0-1.562.7-1.562 1.563C0 75.374 4.625 80 10.313 80h48.75c5.687 0 10.312-4.625 10.312-10.313 0-.863-.7-1.562-1.563-1.562H53.306a33.03 33.03 0 007.234-8.074h4.41C73.246 60.05 80 53.3 80 45V33.828c0-.863-.7-1.562-1.563-1.562zM66.078 71.25c-.715 3.215-3.59 5.625-7.016 5.625h-48.75c-3.425 0-6.3-2.41-7.015-5.625zm-.453-28.75v-.86h5V45a5.683 5.683 0 01-5.676 5.676h-.355a32.981 32.981 0 001.031-8.176zm11.25 2.5c0 6.578-5.352 11.926-11.926 11.926h-2.66c.5-1.02.945-2.063 1.332-3.125h1.328c4.852 0 8.801-3.95 8.801-8.801v-4.922c0-.863-.7-1.562-1.563-1.562h-6.562V35.39h11.25zm0 0M34.305 8.648l-.813-1.023a4.066 4.066 0 01-.004-5.09A1.564 1.564 0 0031.04.59a7.184 7.184 0 00.008 8.984l.812 1.02a5.327 5.327 0 01.008 6.656l-.836 1.05a1.564 1.564 0 00.254 2.196 1.567 1.567 0 002.195-.254l.833-1.05a8.43 8.43 0 00-.008-10.544zm0 0M42.965 12.16l-.813-1.02a4.071 4.071 0 01-.004-5.093 1.564 1.564 0 00-.253-2.195 1.564 1.564 0 00-2.196.253 7.184 7.184 0 00.008 8.98l.813 1.024a5.317 5.317 0 01.007 6.653l-.832 1.05a1.56 1.56 0 001.223 2.536c.457 0 .914-.203 1.223-.594l.832-1.047a8.43 8.43 0 00-.008-10.547zm0 0M25.645 12.16l-.813-1.02a4.071 4.071 0 01-.004-5.093 1.564 1.564 0 00-.254-2.195 1.564 1.564 0 00-2.195.253 7.179 7.179 0 00.008 8.98l.812 1.024a5.317 5.317 0 01.004 6.653l-.832 1.05a1.564 1.564 0 001.223 2.536c.46 0 .918-.203 1.226-.594l.832-1.047a8.44 8.44 0 00-.007-10.547zm0 0"/><path d="M23.48 27.852a1.574 1.574 0 00-1.105-.457c-.41 0-.813.168-1.102.457-.293.293-.46.695-.46 1.105a1.568 1.568 0 001.562 1.563 1.557 1.557 0 001.563-1.563c0-.41-.165-.812-.458-1.105zm0 0M56.563 40.938c-.864 0-1.563.699-1.563 1.562 0 5.8-2.352 11.5-6.453 15.637a1.562 1.562 0 102.219 2.199c4.675-4.719 7.359-11.219 7.359-17.836 0-.863-.7-1.563-1.563-1.563zm0 0M45.918 62.379a1.565 1.565 0 00-2.129-.594l-.035.02a1.565 1.565 0 00.77 2.926c.261 0 .523-.067.765-.204l.04-.02a1.562 1.562 0 00.589-2.128zm0 0"/></svg>