<svg xmlns="http://www.w3.org/2000/svg" width="80" height="80" fill="#282D37"><path d="M72.5 1.25h-65v37.5h65zM70 3.75v27.5h-5v-5H52.5v5H10V3.75zm-7.5 27.5H55v-2.5h7.5zm-52.5 5v-2.5h60v2.5zm0 0M80 46.25h-7.5a3.756 3.756 0 00-3.75-3.75h-15A3.756 3.756 0 0050 46.25h-7.5v7.5H45v20h2.5v-20h2.73a3.748 3.748 0 003.52 2.5H55v6.25h-5V70h2.5v8.75H55V70h12.5v8.75H70V70h2.5v-7.5h-5v-6.25h1.25a3.748 3.748 0 003.52-2.5H75v20h2.5v-20H80zm-35 2.5h5v2.5h-5zM70 67.5H52.5V65H70zm-5-5h-7.5v-6.25H65zm5-10c0 .691-.559 1.25-1.25 1.25h-15c-.691 0-1.25-.559-1.25-1.25v-6.25c0-.691.559-1.25 1.25-1.25h15c.691 0 1.25.559 1.25 1.25zm7.5-1.25h-5v-2.5h5zm0 0M26.25 42.5h-15a3.756 3.756 0 00-3.75 3.75H0v7.5h2.5v20H5v-20h2.73a3.748 3.748 0 003.52 2.5h1.25v6.25h-5V70H10v8.75h2.5V70H25v8.75h2.5V70H30v-7.5h-5v-6.25h1.25a3.748 3.748 0 003.52-2.5h2.73v20H35v-20h2.5v-7.5H30a3.756 3.756 0 00-3.75-3.75zM2.5 48.75h5v2.5h-5zm25 18.75H10V65h17.5zm-5-5H15v-6.25h7.5zm5-10c0 .691-.559 1.25-1.25 1.25h-15c-.691 0-1.25-.559-1.25-1.25v-6.25c0-.691.559-1.25 1.25-1.25h15c.691 0 1.25.559 1.25 1.25zm7.5-3.75v2.5h-5v-2.5zm0 0"/></svg>