<svg xmlns="http://www.w3.org/2000/svg" width="80" height="80" fill="#282D37"><path d="M70.668 32h-1.336V13.332C69.332 5.969 63.363 0 56 0S42.668 5.969 42.668 13.332v20c0 .738.594 1.336 1.332 1.336h26.668a6.67 6.67 0 016.664 6.664v32a4.008 4.008 0 01-2.664 3.773V66.668a5.341 5.341 0 00-4-5.164V44H68v17.332h-6.668a5.33 5.33 0 00-4.402 2.332L53.793 46.43a4.57 4.57 0 00-4.5-3.762H29.332v2.664h19.961a1.91 1.91 0 011.875 1.574L55.734 72h-42.62L8.55 46.91a1.337 1.337 0 011.316-1.578h7.465v-2.664H9.867a4.004 4.004 0 00-3.937 4.719l4.738 26.066v5.215c0 .734.594 1.332 1.332 1.332h61.332A6.677 6.677 0 0080 73.332v-32A9.34 9.34 0 0070.668 32zM56 2.668A10.685 10.685 0 0166.582 12H45.418A10.685 10.685 0 0156 2.668zm10.664 12.477a3.63 3.63 0 01-2.32 3.312 3.294 3.294 0 01-2.574-.113 3.477 3.477 0 01-1.204-.938zm-9.258 1.976c.188.547.45 1.067.778 1.547h-4.368c.329-.48.59-1 .778-1.547a1.334 1.334 0 00-.797-1.683l-2.082-.77h8.57l-2.082.77c-.68.253-1.031 1-.797 1.683zm-5.972.285a3.477 3.477 0 01-1.204.938 3.294 3.294 0 01-2.574.113 3.635 3.635 0 01-2.32-3.312zM66.668 32H45.332V21.332h3.414c.02 0 .043.004.066.004.016 0 .036-.004.051-.004H63.13c.02 0 .039.004.059.004.027 0 .05-.004.074-.004h3.406zM56 77.332H13.332v-2.664H56zm16 0H58.668v-2.664H72zM72 72H58.668v-5.332A2.668 2.668 0 0161.332 64h8A2.669 2.669 0 0172 66.668zm0 0"/><path d="M54.352 25.332H52V28h2.352a14.09 14.09 0 006.246-1.473l-1.196-2.386a11.324 11.324 0 01-5.05 1.191zm0 0M13.012 56.273l2.617-.507 2.367 12.226-2.621.508zm0 0M12.027 50.91l2.625-.476.485 2.668-2.621.476zm0 0M25.773 48.992a1.334 1.334 0 002.157-1.414l-3.414-10.246h10.152A5.339 5.339 0 0040 32V5.332A5.341 5.341 0 0034.668 0H5.332A5.341 5.341 0 000 5.332V32a5.339 5.339 0 005.332 5.332h7.488zM13.332 2.668H16v18c0 3.312 2.688 6 6 6 3.313 0 6-2.688 6-6v-2c0-.738-.598-1.336-1.332-1.336h-1.273l5.273-6.781v10.117c0 4.785-3.883 8.664-8.668 8.664-4.785 0-8.668-3.879-8.668-8.664zM2.668 32V5.332a2.667 2.667 0 012.664-2.664h5.336v18C10.668 26.926 15.742 32 22 32c6.258 0 11.332-5.074 11.332-11.332v-14a1.332 1.332 0 00-2.383-.82l-9.336 12A1.335 1.335 0 0022.668 20h2.664v.668a3.333 3.333 0 01-6.664 0v-18h16a2.667 2.667 0 012.664 2.664V32a2.67 2.67 0 01-2.664 2.668h-12a1.332 1.332 0 00-1.266 1.754l2.403 7.207-9.578-8.621a1.343 1.343 0 00-.895-.34h-8A2.67 2.67 0 012.668 32zm0 0"/></svg>