<svg xmlns="http://www.w3.org/2000/svg" width="80" height="80" fill="#282D37"><path d="M8.063 80h64c2.21 0 4-1.79 4-4V60a4 4 0 00-4-4h-23.02l3.121-2.332A31.544 31.544 0 0065.394 28V6.668c0-.508-.285-.969-.738-1.195A60.206 60.206 0 0040.062 0a60.238 60.238 0 00-24.597 5.473c-.45.226-.735.687-.735 1.195V28a31.544 31.544 0 0013.23 25.668L31.083 56H8.062a4 4 0 00-4 4v16c0 2.21 1.79 4 4 4zm9.332-52V7.52a59.127 59.127 0 0122.668-4.852A59.127 59.127 0 0162.73 7.52V28a28.937 28.937 0 01-12.164 23.531l-9.703 7.25a1.348 1.348 0 01-1.601 0l-9.703-7.25A28.937 28.937 0 0117.395 28zM6.73 60c0-.734.594-1.332 1.332-1.332h26.586l3.016 2.25a4.026 4.026 0 004.8 0l3.009-2.25h26.59c.738 0 1.332.598 1.332 1.332v16c0 .738-.594 1.332-1.332 1.332h-64A1.329 1.329 0 016.73 76zm0 0"/><path d="M10.406 67.96l3.383.849-2.793 3.726a1.33 1.33 0 00.266 1.863 1.33 1.33 0 001.867-.265l2.934-3.91 2.933 3.91a1.33 1.33 0 001.867.265 1.33 1.33 0 00.266-1.863l-2.8-3.734 3.386-.848a1.33 1.33 0 00.965-.926 1.34 1.34 0 00-.325-1.3 1.334 1.334 0 00-1.289-.36l-3.671.926v-3.625a1.332 1.332 0 10-2.664 0v3.625l-3.676-.918a1.332 1.332 0 10-.648 2.586zm0 0M26.406 67.96l3.383.849-2.797 3.73a1.333 1.333 0 102.133 1.602l2.938-3.918 2.933 3.91a1.33 1.33 0 001.867.265 1.33 1.33 0 00.266-1.863l-2.8-3.734 3.386-.848a1.33 1.33 0 00.965-.926 1.33 1.33 0 00-1.614-1.66l-3.671.926v-3.625a1.332 1.332 0 10-2.665 0v3.625l-3.675-.918a1.334 1.334 0 00-.648 2.586zm0 0M42.406 67.96l3.383.849-2.797 3.73c-.289.383-.347.887-.16 1.324.188.438.594.742 1.066.801.473.055.942-.144 1.227-.523l2.938-3.918 2.933 3.91c.285.383.754.582 1.227.523.472-.054.879-.36 1.066-.8a1.327 1.327 0 00-.16-1.32l-2.8-3.735 3.386-.848a1.33 1.33 0 00.965-.926 1.34 1.34 0 00-.325-1.3 1.334 1.334 0 00-1.289-.36l-3.671.926v-3.625a1.332 1.332 0 10-2.665 0v3.625l-3.675-.918a1.334 1.334 0 00-.648 2.586zm0 0M58.406 67.96l3.383.849-2.797 3.73c-.289.383-.347.887-.16 1.324.188.438.594.742 1.066.801.473.055.942-.144 1.227-.523l2.938-3.918 2.933 3.91c.285.383.754.582 1.227.523.472-.054.879-.36 1.066-.8a1.327 1.327 0 00-.16-1.32l-2.8-3.735 3.386-.848a1.333 1.333 0 00-.649-2.586l-3.671.926v-3.625c0-.738-.598-1.336-1.332-1.336-.735 0-1.333.598-1.333 1.336v3.625l-3.675-.918a1.332 1.332 0 10-.648 2.586zm0 0M42.281 53.457l6.582-4.39c7.43-5.551 11.2-12.641 11.2-21.067V10.668c0-.531-.313-1.012-.801-1.227a47.09 47.09 0 00-38.39 0c-.49.211-.81.692-.81 1.227V28c0 8.426 3.77 15.516 11.2 21.066l.058.043 6.52 4.344a3.982 3.982 0 004.441 0zm-9.449-6.547C26.129 41.89 22.73 35.527 22.73 28V11.55a44.076 44.076 0 0134.665 0V28c0 7.54-3.41 13.91-10.07 18.89l-6.52 4.348c-.45.301-1.035.301-1.485 0zm0 0"/><path d="M49.395 36v-8a3.997 3.997 0 00-2.665-3.754v-1.578A6.667 6.667 0 0040.063 16a6.667 6.667 0 00-6.668 6.668v1.578A3.997 3.997 0 0030.73 28v8c0 2.21 1.79 4 4 4h10.665c2.21 0 4-1.79 4-4zM36.062 22.668c0-2.211 1.79-4 4-4 2.211 0 4 1.789 4 4V24h-8zM33.395 36v-8c0-.734.597-1.332 1.335-1.332h10.665c.738 0 1.335.598 1.335 1.332v8c0 .738-.597 1.332-1.335 1.332H34.73A1.332 1.332 0 0133.395 36zm0 0"/><path d="M40.063 29.332c-.735 0-1.333.598-1.333 1.336v2.664a1.332 1.332 0 102.664 0v-2.664c0-.738-.593-1.336-1.331-1.336zm0 0"/></svg>