<svg xmlns="http://www.w3.org/2000/svg" width="80" height="80" fill="#FFFFFF"><path d="M76.008 19.79l-1.89-8.59a5.447 5.447 0 00-2.415-3.454 5.462 5.462 0 00-4.148-.738L10.754 19.504H5.789A5.797 5.797 0 000 25.293v25.074c0 .863.71 1.563 1.57 1.563.864 0 1.559-.7 1.559-1.563 0-.043 0-.086-.004-.125V25.293a2.667 2.667 0 012.664-2.664h68.422a2.667 2.667 0 012.664 2.664v37.562H1.562c-.863 0-1.562.7-1.562 1.563v3.117c0 1.078.297 2.09.813 2.953.011.016.019.032.027.047.004.004.004.008.008.012a5.789 5.789 0 004.941 2.773h68.422A5.791 5.791 0 0080 67.535V25.293a5.802 5.802 0 00-3.992-5.504zm-7.781-9.731a2.381 2.381 0 012.835 1.812l1.68 7.633H25.297zm8.648 57.476a2.662 2.662 0 01-2.664 2.66H5.789a2.662 2.662 0 01-2.379-1.468 2.653 2.653 0 01-.285-1.192V65.98h73.75zm0 0"/><path d="M30.29 47.2a1.562 1.562 0 100 3.124h8.843a1.562 1.562 0 100-3.125zm0 0M54.23 50.324a1.562 1.562 0 100-3.125h-8.847a1.562 1.562 0 100 3.125zm0 0M69.324 47.2H60.48a1.562 1.562 0 100 3.124h8.844a1.562 1.562 0 100-3.125zm0 0M39.64 55.8c0 .864.7 1.563 1.563 1.563h28.121a1.562 1.562 0 100-3.125h-28.12c-.864 0-1.563.7-1.563 1.563zm0 0M8.84 43.121c.281.484.797.781 1.355.781h4.688l2.344 4.059a1.565 1.565 0 002.707 0l2.343-4.059h4.688c.558 0 1.074-.297 1.355-.78a1.571 1.571 0 000-1.563L25.977 37.5l2.343-4.063a1.571 1.571 0 000-1.562 1.566 1.566 0 00-1.355-.781h-4.688l-2.343-4.059a1.565 1.565 0 00-2.707 0l-2.344 4.059h-4.688c-.558 0-1.074.297-1.355.781a1.571 1.571 0 000 1.563l2.344 4.058L8.84 41.56a1.571 1.571 0 000 1.562zm5.504-6.406l-1.446-2.496h2.887c.559 0 1.074-.297 1.352-.782l1.441-2.496 1.445 2.497c.278.484.793.78 1.352.78h2.883l-1.442 2.497a1.571 1.571 0 000 1.562l1.442 2.5h-2.883c-.559 0-1.074.297-1.352.782l-1.445 2.496-1.441-2.496a1.555 1.555 0 00-1.352-.782h-2.887l1.446-2.5a1.571 1.571 0 000-1.562zm0 0M71.16 28.93c0-.864-.7-1.563-1.562-1.563H41.594c-.864 0-1.563.7-1.563 1.563v7.883c0 .863.7 1.562 1.563 1.562h28.004c.863 0 1.562-.7 1.562-1.563zm-3.125 6.32H43.156v-4.758h24.88zm0 0M.266 58.621a1.562 1.562 0 002.859-.828c.035-1.39-1.727-2.129-2.691-1.117-.5.523-.57 1.344-.168 1.945zm0 0"/></svg>