<svg xmlns="http://www.w3.org/2000/svg" width="80" height="80" fill="#282D37"><path d="M61.164 37.555C56.293 40.867 48.668 44.816 40 44.816c-8.668 0-16.293-3.949-21.164-7.261a1.174 1.174 0 00-1.629.312 1.168 1.168 0 00.309 1.625C22.66 42.992 30.734 47.16 40 47.16c9.266 0 17.34-4.168 22.484-7.668.536-.363.672-1.09.309-1.625a1.174 1.174 0 00-1.629-.312zm0 0"/><path d="M75.27.625H4.73A4.735 4.735 0 000 5.355v54.86a4.737 4.737 0 004.73 4.73h28.352l-1.832 5.727h-4.445a4.986 4.986 0 00-4.98 4.98v1.532a2.337 2.337 0 002.335 2.336h31.68a2.337 2.337 0 002.336-2.336v-1.532a4.985 4.985 0 00-4.977-4.98H48.75l-1.832-5.727H75.27c2.609 0 4.73-2.125 4.73-4.73V5.355c0-2.609-2.121-4.73-4.73-4.73zM4.73 2.969h70.54a2.389 2.389 0 012.386 2.386v48.63H2.344V5.354A2.389 2.389 0 014.73 2.97zm51.102 72.683l.008 1.524-31.672.008v-1.532a2.638 2.638 0 012.637-2.636h26.39a2.638 2.638 0 012.637 2.636zm-9.543-4.98H33.711l1.832-5.727h8.914zm28.98-8.07H4.73a2.389 2.389 0 01-2.386-2.387v-3.887h75.312v3.887a2.389 2.389 0 01-2.386 2.387zm0 0"/><path d="M6.79 51.566c.644 0 1.17-.527 1.17-1.171V8.325h64.08v42.062c0 .644.526 1.172 1.17 1.172.65 0 1.173-.528 1.173-1.172V7.78c0-.992-.809-1.8-1.801-1.8H7.418c-.992 0-1.8.808-1.8 1.8v42.614c0 .644.523 1.171 1.171 1.171zm0 0"/><path d="M63.84 28.8C60.367 25.786 51.086 18.77 40 18.77S19.633 25.785 16.16 28.8a2.523 2.523 0 000 3.817C19.633 35.633 28.914 42.648 40 42.648s20.367-7.015 23.84-10.03a2.523 2.523 0 000-3.816zm-46.207 1.91c0-.038.012-.093.062-.14 1.88-1.629 5.547-4.496 10.278-6.648a13.79 13.79 0 00-1.79 6.789c0 2.398.63 4.734 1.79 6.785-4.73-2.148-8.399-5.02-10.278-6.648a.186.186 0 01-.062-.137zm14.547 8.384a11.485 11.485 0 01-3.653-8.383c0-3.18 1.332-6.219 3.653-8.387 2.445-.742 5.078-1.21 7.82-1.21s5.375.468 7.82 1.21a11.494 11.494 0 013.653 8.387c0 3.176-1.332 6.219-3.653 8.383-2.445.742-5.078 1.21-7.82 1.21s-5.375-.468-7.82-1.21zm30.125-8.246c-1.88 1.629-5.547 4.5-10.278 6.648a13.786 13.786 0 001.79-6.785 13.79 13.79 0 00-1.79-6.79c4.73 2.153 8.399 5.02 10.278 6.65a.186.186 0 010 .277zm0 0"/><path d="M40 23.516a7.202 7.202 0 00-7.195 7.195c0 3.965 3.226 7.191 7.195 7.191 3.969 0 7.195-3.226 7.195-7.191A7.202 7.202 0 0040 23.516zm0 12.043a4.855 4.855 0 01-4.852-4.848A4.856 4.856 0 0140 25.859a4.856 4.856 0 014.852 4.852A4.855 4.855 0 0140 35.559zm0 0"/></svg>