<svg xmlns="http://www.w3.org/2000/svg" width="80" height="80" fill="#FFFFFF"><path d="M76.016 39.973l-3.633-.453a24.95 24.95 0 00-4.656-7.36l2.668-11.305c.109-.464 0-.953-.297-1.328a1.559 1.559 0 00-1.223-.593h-.344-.004c-4.43 0-8.422 2.789-9.992 6.875a24.434 24.434 0 00-3.418-1.079 1.56 1.56 0 10-.719 3.04 21.657 21.657 0 0110.32 5.742c.106.152.231.285.38.39a21.722 21.722 0 014.695 7.582 1.57 1.57 0 001.277 1.02l4.555.57c.715.09 1.25.696 1.25 1.414v7.88c0 .718-.535 1.323-1.25 1.413l-4.223.532a1.558 1.558 0 00-1.297 1.082 21.646 21.646 0 01-6.882 10.234 1.56 1.56 0 00-.567 1.203v8.637c0 .777-.629 1.406-1.406 1.406h-9.063a1.408 1.408 0 01-1.406-1.406v-3.293c0-.86-.699-1.563-1.562-1.563H36.094c-.864 0-1.563.703-1.563 1.563v3.293c0 .777-.633 1.406-1.406 1.406h-9.063a1.405 1.405 0 01-1.406-1.406V69.37a1.57 1.57 0 00-.816-1.375 21.708 21.708 0 01-11.371-19.094c0-11.972 9.742-21.715 21.715-21.715h1.957a1.562 1.562 0 100-3.125h-1.957c-11.602 0-21.368 7.993-24.086 18.758H6.953a3.834 3.834 0 01-3.828-3.828 3.834 3.834 0 013.828-3.828 1.562 1.562 0 100-3.125A6.961 6.961 0 000 38.992c0 3.832 3.121 6.953 6.953 6.953h.567a24.833 24.833 0 0012.012 24.336v5.188c0 2.5 2.03 4.531 4.53 4.531h9.063a4.537 4.537 0 004.531-4.531v-1.73h10v1.73c0 2.5 2.035 4.531 4.532 4.531h9.062c2.5 0 4.531-2.031 4.531-4.531v-7.914a24.833 24.833 0 006.985-10.266l3.246-.406A4.56 4.56 0 0080 52.367v-7.879a4.56 4.56 0 00-3.984-4.515zM65.102 29.676a24.885 24.885 0 00-3.727-2.524 7.625 7.625 0 015.48-4.902zm0 0"/><path d="M62.2 39.676a1.588 1.588 0 00-1.106-.457c-.41 0-.813.168-1.106.457-.289.293-.457.695-.457 1.105 0 .41.168.813.457 1.106.293.289.696.457 1.106.457.41 0 .812-.168 1.105-.457.29-.293.457-.696.457-1.106 0-.41-.168-.812-.457-1.105zm0 0M45.82 9.113c-.863 0-1.562.7-1.562 1.563v6.199a1.562 1.562 0 103.125 0v-6.2c0-.863-.7-1.562-1.563-1.562zm0 0M46.922 3.902a1.572 1.572 0 00-1.102-.457c-.414 0-.816.168-1.105.457A1.564 1.564 0 0045.82 6.57c.41 0 .813-.168 1.102-.457.293-.293.46-.695.46-1.105 0-.41-.167-.813-.46-1.106zm0 0M33.125 0c-.863 0-1.563.7-1.563 1.563v2.656a1.562 1.562 0 103.125 0V1.562C34.688.7 33.989 0 33.126 0zm0 0M17.805 48.902a1.562 1.562 0 10-3.125 0v.082a1.56 1.56 0 001.562 1.551h.008a1.562 1.562 0 001.555-1.57zm0 0M24.719 61.195a14.475 14.475 0 01-5.969-7.152 1.563 1.563 0 00-2.918 1.121 17.592 17.592 0 007.262 8.7c.254.156.535.23.812.23a1.563 1.563 0 00.813-2.898zm0 0M33.125 7.508a6.572 6.572 0 00-6.563 6.562 6.572 6.572 0 006.563 6.563 6.572 6.572 0 006.563-6.563 6.572 6.572 0 00-6.563-6.562zm0 10a3.443 3.443 0 01-3.438-3.438 3.443 3.443 0 013.438-3.437 3.443 3.443 0 013.438 3.437 3.443 3.443 0 01-3.438 3.438zm0 0M52.813 33.125h-1.407c.617-1 .977-2.18.977-3.438a6.572 6.572 0 00-6.563-6.562 6.57 6.57 0 00-6.562 6.563c0 1.257.355 2.437.972 3.437H32.5a1.562 1.562 0 100 3.125h20.313a1.562 1.562 0 100-3.125zm-6.993 0a3.44 3.44 0 01-3.437-3.438 3.44 3.44 0 013.437-3.437 3.443 3.443 0 013.438 3.438 3.443 3.443 0 01-3.438 3.437zm0 0"/></svg>