<svg xmlns="http://www.w3.org/2000/svg" width="80" height="80" fill="#FFFFFF"><path d="M22.39 18.715c.122.012.247.012.372 0a.674.674 0 00.554-.625.708.708 0 00-.382-.766 1.448 1.448 0 00-.653-.133h-1.465v-.02a6.76 6.76 0 000 1.54zm0 0M10.66 36.863a.883.883 0 00-.363-.05H8.605l-.011 1.855h1.902c.36-.02.652-.29.707-.645a.913.913 0 00-.031-.695.908.908 0 00-.512-.465zm0 0M35.219 14.723a.843.843 0 00-.5-.137H33c-.012.61-.012 1.137 0 1.648h1.89a.63.63 0 00.567-.347.841.841 0 00-.238-1.164zm0 0M20.902 15.96h1.52c.148-.007.293-.05.426-.116a.572.572 0 00.312-.602.515.515 0 00-.348-.515 1.548 1.548 0 00-.48-.098h-1.531l.012 1.332zm0 0"/><path d="M79.988 43.367a.245.245 0 00-.023-.105l-.05-.114a2.26 2.26 0 00-.122-.261l-.242-.457a43.992 43.992 0 00-.856-1.575 12.148 12.148 0 00-1.605-2.152 6.504 6.504 0 00-1.8-1.406 3.39 3.39 0 00-1.895-.356 19.169 19.169 0 00-3.25.657c-.829.261-1.641.57-2.434.922V14.883c.004-4.828-3.91-8.738-8.734-8.738H8.738A8.736 8.736 0 000 14.883v50.234a8.736 8.736 0 008.738 8.738h50.239c4.824 0 8.738-3.91 8.734-8.738v-15.86a55.34 55.34 0 018.695-4.23 17.64 17.64 0 013.176-.937h.14a.278.278 0 00.196-.082.259.259 0 00.078-.2zM60.102 27.223a.652.652 0 00-.207-.262 4.256 4.256 0 00-.723-.352c-.426-.172-.863-.328-1.29-.5a1.638 1.638 0 01-.632-.484 1.703 1.703 0 01.121-2.188c.2-.21.445-.375.719-.468a2.604 2.604 0 012.187.187c.348.2.618.512.766.883v.133a.317.317 0 010 .086l-.14.078-.68.227a.2.2 0 01-.262-.086c-.32-.461-.91-.649-1.441-.461a.752.752 0 00-.25.156.488.488 0 00-.18.332.48.48 0 00.18.433c.136.098.289.18.449.243.328.129.664.226.98.36.266.1.52.226.766.37a1.804 1.804 0 01.59 2.633 1.78 1.78 0 01-.735.578 2.91 2.91 0 01-2.433 0c-.5-.254-.89-.687-1.094-1.215a.575.575 0 01-.121-.25l.371-.14.57-.207c.09-.04.196 0 .239.086.125.187.265.359.425.511.41.364.993.45 1.489.219a.677.677 0 00.336-.902zm-8.227-1.168V23.19c0-.261 0-.273.285-.273h.762c.156 0 .187 0 .2.187.003.07.003.145 0 .22v4.374c0 .348 0 .348.347.348h2.535a.146.146 0 01.105.023.15.15 0 01.059.094.095.095 0 010 .047v.852a.138.138 0 01-.047.117.144.144 0 01-.117.039h-3.8c-.329 0-.329 0-.329-.34zm-7.078 2.925l2.187-5.863a.283.283 0 01.313-.219h.723c.238 0 .238 0 .328.22L49 24.835l1.555 4.062c.054.098.097.204.129.313h-.996a.246.246 0 01-.282-.2c-.101-.292-.218-.59-.328-.882-.11-.297-.101-.242-.34-.242h-1.996c-.25 0-.25 0-.336.242-.09.238-.218.59-.312.883a.245.245 0 01-.266.187h-1.094a.265.265 0 01.067-.219zm-2.469-1.582v-4.273c0-.066 0-.207.219-.207h.781c.176 0 .2 0 .211.219.008.218 0 .11 0 .156v5.578c0 .371 0 .371-.363.371h-.582c-.25 0-.262 0-.262-.273zM26.016 13.516c0-.196 3.964-.055 4.25 0v.992c.004.035 0 .07-.02.101-.023.028-.05.051-.086.055a.111.111 0 01-.05 0h-2.883v1.313h1.718c.063.382.063.773 0 1.156h-1.718a5.213 5.213 0 000 1.52h2.918a.817.817 0 01.195 0s.11.054.11.085c.019.364.019.73 0 1.094l-4.423-.031zm-1.508 9.402h3.887a.129.129 0 01.097.031c.028.02.043.055.047.09v.895c0 .039-.016.074-.043.097a.122.122 0 01-.101.035h-2.73a.145.145 0 00-.157.114v1.011c0 .157 0 .176.199.176h1.406c.184 0 .207 0 .215.207.012.207 0 .48 0 .719 0 .242 0 .23-.226.23h-1.43c-.23 0-.254 0-.254.262v1.004c0 .34 0 .25.262.25h2.71c.337 0 .337 0 .337.328v.625c0 .211 0 .2-.196.2h-3.953c-.328 0-.328 0-.328-.34v-5.68c-.004-.23-.004-.254.258-.254zm-4.945-9.445h2.847c.27 0 .535.03.797.097a1.63 1.63 0 011.16 1.989c-.02.066-.039.132-.066.195a1.34 1.34 0 01-.438.59l-.195.176.156.097c.434.23.715.668.754 1.156.024.2.024.403 0 .602-.152.8-.836 1.39-1.652 1.422a4.38 4.38 0 01-.555 0H19.56c-.051-.188-.063-6.047.003-6.324zm-6.708.054h.938a.308.308 0 01.312.176l1.301 2.188.156.238.157-.219c.437-.71.86-1.406 1.289-2.117a.365.365 0 01.37-.219h1.102l-.14.262-2.031 3.351a.834.834 0 00-.133.461v2.149h-1.223v-2.219a.878.878 0 00-.133-.46l-2.043-3.34-.129-.25zm-5.625 1.54c.153-.477.43-.899.81-1.223a2.304 2.304 0 011.616-.563 2.406 2.406 0 011.887.82c.172.2.285.446.332.704l-1.094.492a2.578 2.578 0 01-.195-.266 1.219 1.219 0 00-1.012-.457 1.21 1.21 0 00-.957.567 2.63 2.63 0 00-.336 1.007c-.054.47-.023.946.098 1.407.07.25.184.488.34.695.32.508.992.664 1.504.344.097-.063.187-.14.261-.235a4.73 4.73 0 00.352-.433l1.094.426a2.437 2.437 0 01-1.407 1.453 2.797 2.797 0 01-1.562 0 2.277 2.277 0 01-1.445-1.094A3.94 3.94 0 017 17.03a4.727 4.727 0 01.23-1.965zm-.207 13.792a336.6 336.6 0 01-.011-2.785v-2.812c0-.34 0-.34.34-.34h3.777c.176 0 .195 0 .195.2v.78c0 .262 0 .164-.172.176H8.496c-.23 0-.254 0-.254.238v.852c0 .285 0 .219.23.219h1.434a.158.158 0 01.164.14v.856c0 .273 0 .156-.207.156H8.641c-.418 0-.407 0-.407.402v.766c0 .36 0 .36.371.36h2.56c.347 0 .347 0 .347.34v.624c0 .207 0 .172-.188.184H7.371c-.348.004-.348.004-.348-.356zm5.157 10.266a2.181 2.181 0 01-1.828.852H8.594v2.578h-1.32v-7.032h2.913a3.24 3.24 0 011.094.157 1.961 1.961 0 011.281 1.445c.192.688.051 1.43-.382 2zm.293-11.203a.269.269 0 00-.078-.219.783.783 0 01.144-.086l.781-.285c.157-.055.157 0 .27.098.125.187.265.355.426.511.402.356.972.43 1.453.2a.661.661 0 00.336-.383.665.665 0 00-.032-.512.706.706 0 00-.156-.2 2.295 2.295 0 00-.742-.358c-.438-.157-.875-.305-1.29-.504a1.506 1.506 0 01-.937-1.25 1.67 1.67 0 011.211-1.875c.57-.2 1.192-.2 1.758 0 .504.191.903.59 1.094 1.093.102-.054.121.012.21.145l-.937.305a.194.194 0 01-.132 0 .945.945 0 01-.098-.157.837.837 0 00-.438-.34 1.557 1.557 0 00-.886 0 .56.56 0 00-.47.5.455.455 0 00.2.45c.13.086.27.16.414.218l1.004.372c.324.117.629.277.906.48.633.535.813 1.434.438 2.172a1.98 1.98 0 01-1.453 1.008 3.027 3.027 0 01-1.375 0 2.366 2.366 0 01-1.621-1.383zm6.222 14.625l-4.703.02v-7.032h1.344v5.715h3.36c.058.43.058.867 0 1.297zm-.57-14.727a.168.168 0 010-.062v-.067l.14-.074.735-.273c.184-.067.184-.067.313.11.082.128.18.253.28.366.368.407.938.555 1.454.383a.639.639 0 00.515-.547.652.652 0 00-.34-.742c-.21-.113-.429-.21-.652-.297-.43-.156-.855-.312-1.27-.492a1.565 1.565 0 01-.613-.469 1.693 1.693 0 01.102-2.187 2.2 2.2 0 011.418-.633c.52-.047 1.04.066 1.488.328.364.211.645.543.797.938.035.054.067.113.098.175l-.2.075-.425.144c-.117 0-.25.106-.36.086-.109-.023-.14-.176-.23-.25a1.178 1.178 0 00-.313-.242 1.487 1.487 0 00-1.023 0 .632.632 0 00-.242.156.484.484 0 000 .766c.129.093.265.172.414.23l1.027.371c.371.121.715.313 1.016.555.34.289.547.703.57 1.148a1.789 1.789 0 01-.57 1.516c-.149.145-.32.258-.512.34a2.859 2.859 0 01-2.59-.121 2.25 2.25 0 01-1.027-1.23zm7.328 7.97v4.007c.012.387-.035.77-.14 1.14a2.353 2.353 0 01-1.735 1.641 3.842 3.842 0 01-1.812 0 2.42 2.42 0 01-1.965-2.266 5.912 5.912 0 010-.644v-4.137a4.98 4.98 0 011.363 0v4.184c-.02.23-.02.46 0 .691.074.473.445.844.918.914.363.075.734.075 1.094 0 .406-.07.73-.379.82-.78.059-.231.086-.47.086-.708v-4.027c.02-.09.027-.18.023-.274h1.344zm5.375 6.597a3.067 3.067 0 01-2.969-.176 2.665 2.665 0 01-1.093-1.453l1.222-.457c.086.144.157.273.25.394a1.58 1.58 0 001.703.664c.149-.03.286-.086.418-.164a.734.734 0 00.086-1.156 2.588 2.588 0 00-.558-.328c-.285-.121-.59-.207-.883-.313a7.93 7.93 0 01-.781-.312 2.21 2.21 0 01-.832-.633 1.848 1.848 0 01.414-2.578l.078-.055c.328-.21.703-.343 1.094-.383a2.966 2.966 0 011.625.188c.5.238.89.66 1.093 1.18v.133c.04.027.078.058.11.097l-1.18.399-.098-.157a1.096 1.096 0 00-.937-.57 2.542 2.542 0 00-.645 0 .715.715 0 00-.312.188.516.516 0 00-.188.351.515.515 0 00.188.457c.168.117.351.219.547.293.293.121.61.207.906.313.285.105.566.222.84.359.535.234.933.691 1.094 1.25a2.011 2.011 0 01-1.2 2.465zm4.246-19.09v5.61c0 .359 0 .359-.36.359h-.448a.444.444 0 01-.457-.239c-.293-.449-.602-.894-.907-1.332l-1.367-2.023-.27-.434-.023.02v3.672c0 .336 0 .336-.34.336h-.644c-.172 0-.195 0-.207-.22-.012-.218 0-.108 0-.155V23.3c0-.371 0-.371.37-.371H31a.289.289 0 01.273.156l.305.445 1.988 2.953.313.489V23.19c0-.23 0-.25.242-.25h.762c.156 0 .187 0 .199.196.012.199-.012.11-.012.152zm.352-3.68c-.313-.656-.656-1.289-.961-1.945a.372.372 0 00-.418-.25h-.98v2.258a4.466 4.466 0 01-1.25 0 2.192 2.192 0 010-.227v-5.871c-.024.066-.012 0-.012-.098h2.925c.254-.004.508.028.754.086a1.688 1.688 0 011.32 1.407 2.043 2.043 0 01-.398 1.773c-.14.172-.316.316-.515.422l-.227.133c.39.832.809 1.648 1.2 2.492h-1.145a.278.278 0 01-.301-.188zm3.879 4.594a.054.054 0 000 .035v4.613c0 .36 0 .36-.364.36h-.578l-.238-.008v-4.707c0-.426 0-.406-.406-.406h-1.2c-.218 0-.23 0-.242-.23-.011-.227 0-.477 0-.72 0-.242 0-.23.243-.23h4.257c.34 0 .34 0 .34.34v.601c0 .196 0 .227-.23.227h-1.418a.148.148 0 00-.114.023.161.161 0 00-.058.094zm9.804 43.633v.383c0 .132 0 .218-.12.261a.188.188 0 01-.153.004.207.207 0 01-.11-.113l-.535-.652a41.888 41.888 0 01-3.867-5.887 58.086 58.086 0 01-4.129-9.473 13.043 13.043 0 01-.172-.554c-.054-.188-.011-.188-.035-.262a.164.164 0 01.098-.145.237.237 0 01.164 0c.063.043.117.09.164.145a8.777 8.777 0 004.711 2.37c1.383.208 2.797.145 4.16-.187a13.987 13.987 0 003.684-1.382h.097a.213.213 0 01.243.066.173.173 0 010 .23l-.055.098a23.05 23.05 0 00-3.035 6.926 32.447 32.447 0 00-.961 5.371c-.09.93-.133 1.855-.156 2.797zm27.102-23.328a56.105 56.105 0 00-8.926 4.351.301.301 0 00-.113.04 39.764 39.764 0 00-6.91 5.156 54.709 54.709 0 00-6.969 8.109 57.613 57.613 0 00-3.45 5.445 22.27 22.27 0 01.571-6.312 29.865 29.865 0 012.86-7.578 40.24 40.24 0 017.386-9.766 24.36 24.36 0 016.547-4.61l.313-.156a22.2 22.2 0 012.78-1.07 18.48 18.48 0 013.153-.637 3.77 3.77 0 01.297-.011c.445 0 .887.105 1.285.312a5.817 5.817 0 011.653 1.285c.585.63 1.101 1.32 1.535 2.059.297.512.57 1.031.843 1.554l.246.47c.04.07.07.14.102.214l.031.207c-1.105.211-2.187.527-3.234.938zm0 0"/><path d="M48.469 26.75c-.203-.7-.457-1.379-.766-2.04l-.797 2.04a5.51 5.51 0 001.563 0zm0 0"/></svg>