<svg xmlns="http://www.w3.org/2000/svg" width="80" height="80" fill="#FFFFFF"><path d="M63.332 28.332c.922 0 1.668.746 1.668 1.668 0 .922.746 1.668 1.668 1.668 2.766 0 2.016-5-1.668-6.367a1.667 1.667 0 10-3.332 0 4.996 4.996 0 00-3.223 5.547A5.002 5.002 0 0063.332 35a1.667 1.667 0 11-1.664 1.668c0-.922-.746-1.668-1.668-1.668-2.766 0-2.016 5 1.668 6.367a1.666 1.666 0 103.332 0 5.002 5.002 0 003.223-5.547 4.995 4.995 0 00-4.891-4.152A1.666 1.666 0 0161.668 30c0-.922.746-1.668 1.664-1.668zm0 0M36.668 20H23.332v-7.133c6.953 2.133 13.02-2.25 13.652-9.652a1.669 1.669 0 00-.851-1.664C30.418-1.602 24.465.05 21.668 4.883c-2.8-4.7-8.684-6.45-14.469-3.215a1.66 1.66 0 00-.847 1.664C6.984 10.617 13.05 15 20 12.867V20H6.668A6.667 6.667 0 000 26.668v46.664A6.667 6.667 0 006.668 80h30a6.666 6.666 0 006.664-6.668V26.668A6.666 6.666 0 0036.668 20zM33.516 4.05a6.911 6.911 0 01-3.61 5.27 6.918 6.918 0 01-6.39.063 6.904 6.904 0 013.605-5.281 6.903 6.903 0 016.395-.051zm-23.7 0a6.903 6.903 0 016.395.052 6.894 6.894 0 013.605 5.28 6.91 6.91 0 01-6.386-.062 6.925 6.925 0 01-3.614-5.27zM40 73.333a3.333 3.333 0 01-3.332 3.336h-30a3.334 3.334 0 01-3.336-3.336V26.668a3.334 3.334 0 013.336-3.336h30A3.333 3.333 0 0140 26.668zm0 0"/><path d="M35 26.668H8.332c-.918 0-1.664.746-1.664 1.664v10c0 .922.746 1.668 1.664 1.668H35c.922 0 1.668-.746 1.668-1.668v-10c0-.918-.746-1.664-1.668-1.664zm-1.668 10H10V30h23.332zm0 0M75 46.668h-1.668a16.667 16.667 0 10-20 0h-1.664a5 5 0 00-5 5c0 3.184-.316 4.883 1.297 6.664a5.014 5.014 0 00-1.297 3.336c0 3.184-.316 4.883 1.297 6.664-1.664 1.816-1.297 3.55-1.297 6.668a5 5 0 005 5H75a5 5 0 005-5c0-3.184.316-4.883-1.3-6.668A4.981 4.981 0 0080 65c0-3.184.316-4.883-1.3-6.668 1.667-1.816 1.3-3.547 1.3-6.664a5 5 0 00-5-5zM50 33.332C50 25.969 55.969 20 63.332 20s13.336 5.969 13.336 13.332-5.973 13.336-13.336 13.336S50 40.695 50 33.332zm0 18.336c0-.922.746-1.668 1.668-1.668H75c.922 0 1.668.746 1.668 1.668V55c0 .922-.746 1.668-1.668 1.668H51.668A1.667 1.667 0 0150 55zm26.668 10V65c0 .922-.746 1.668-1.668 1.668H51.668A1.667 1.667 0 0150 65v-3.332c0-.922.746-1.668 1.668-1.668H75c.922 0 1.668.746 1.668 1.668zm0 13.332c0 .922-.746 1.668-1.668 1.668H51.668A1.667 1.667 0 0150 75v-3.332c0-.922.746-1.668 1.668-1.668H75c.922 0 1.668.746 1.668 1.668zm0 0M18.332 43.332h-10c-.918 0-1.664.746-1.664 1.668v10c0 .922.746 1.668 1.664 1.668h10c.922 0 1.668-.746 1.668-1.668V45c0-.922-.746-1.668-1.668-1.668zm-1.664 10H10v-6.664h6.668zm0 0M18.332 60h-10c-.918 0-1.664.746-1.664 1.668v10c0 .918.746 1.664 1.664 1.664h10c.922 0 1.668-.746 1.668-1.664v-10c0-.922-.746-1.668-1.668-1.668zm-1.664 10H10v-6.668h6.668zm0 0M35 43.332H25c-.922 0-1.668.746-1.668 1.668v10c0 .922.746 1.668 1.668 1.668h10c.922 0 1.668-.746 1.668-1.668V45c0-.922-.746-1.668-1.668-1.668zm-1.668 10h-6.664v-6.664h6.664zm0 0M35 60H25c-.922 0-1.668.746-1.668 1.668v10c0 .918.746 1.664 1.668 1.664h10c.922 0 1.668-.746 1.668-1.664v-10c0-.922-.746-1.668-1.668-1.668zm-1.668 10h-6.664v-6.668h6.664zm0 0"/></svg>