<svg xmlns="http://www.w3.org/2000/svg" width="80" height="80" fill="#FFFFFF"><path d="M1.762 69.754L69.754 1.758l8.484 8.484-67.992 67.996zm0 0M61.176 42.355c-10.38 0-18.824 8.442-18.824 18.82C42.352 71.56 50.797 80 61.176 80 71.555 80 80 71.559 80 61.176c0-10.38-8.445-18.82-18.824-18.82zm0 25.645c-3.762 0-6.824-3.059-6.824-6.82 0-3.762 3.062-6.825 6.824-6.825A6.83 6.83 0 0168 61.18C68 64.94 64.937 68 61.176 68zm0 0M18.824 37.645c10.38 0 18.82-8.446 18.82-18.82C37.645 8.44 29.205 0 18.825 0 8.445 0 0 8.441 0 18.824c0 10.38 8.445 18.82 18.824 18.82zm0-25.645c3.762 0 6.82 3.063 6.82 6.824 0 3.758-3.058 6.82-6.82 6.82-3.762 0-6.824-3.058-6.824-6.82C12 15.062 15.063 12 18.824 12zm0 0"/></svg>