<svg xmlns="http://www.w3.org/2000/svg" width="80" height="80" fill="#282D37"><path d="M64.922 69.676l-2.984-8.961a9.044 9.044 0 00-6.954-6.031l-8.625-1.567v-.668c1.5-.87 2.805-2.039 3.848-3.418h2.605a3.875 3.875 0 003.872-3.87V29.675c0-9.246-7.528-16.774-16.778-16.774-9.246 0-16.773 7.528-16.773 16.774v9.035c0 2.488 1.77 4.566 4.117 5.055.723 3.707 3.04 6.843 6.207 8.683v.668l-8.625 1.567a9.038 9.038 0 00-6.953 6.03l-.516 1.552-4.394-4.395a1.294 1.294 0 010-1.828l5.097-5.094L8.5 41.383 2.738 47.14a8.974 8.974 0 00-2.644 6.386 8.96 8.96 0 002.644 6.387l17.438 17.441A8.992 8.992 0 0026.566 80a8.93 8.93 0 006.344-2.61l6.285-5.757-1.96-1.957zM54.102 45.16c0 .715-.579 1.293-1.29 1.293h-1.085c.375-.855.656-1.754.84-2.687a5.118 5.118 0 001.535-.614zm-1.29-4.23v-4.442a2.571 2.571 0 011.29 2.223 2.57 2.57 0 01-1.29 2.219zm-25.808 0a2.57 2.57 0 01-1.29-2.22c0-.952.524-1.776 1.29-2.222zm0-8.672v1.472c-.457.122-.89.301-1.29.536v-4.59c0-7.824 6.368-14.192 14.192-14.192 7.828 0 14.196 6.368 14.196 14.192v4.59a5.133 5.133 0 00-1.29-.536v-1.472H51.52a14.195 14.195 0 01-10.102-4.184l-1.512-1.512-1.508 1.512c-2.699 2.7-6.289 4.184-10.105 4.184zm2.582 9.031v-6.5a16.703 16.703 0 0010.32-4.586A16.723 16.723 0 0050.23 34.79v6.5c0 1.883-.515 3.64-1.394 5.164h-8.93v2.578h6.809a10.275 10.275 0 01-6.809 2.582c-5.691 0-10.32-4.633-10.32-10.324zm14.191 12.309v.062l-3.87 3.871-3.872-3.87v-.063a12.838 12.838 0 007.742 0zM20.324 61.53a6.456 6.456 0 014.969-4.308l9.02-1.641 5.593 5.598 5.598-5.594 9.016 1.637a6.456 6.456 0 014.968 4.308l1.856 5.567H34.656L29.63 62.07l-5.586 5.051c-.484.492-1.336.492-1.824 0l-2.817-2.816zm-11.828-16.5l5.918 5.918-1.402 1.403-5.914-5.918zm22.629 30.5a6.425 6.425 0 01-4.563 1.887A6.412 6.412 0 0122 75.528L4.562 58.09a6.396 6.396 0 01-1.89-4.559c0-1.726.672-3.343 1.89-4.562l.708-.711 5.918 5.918-.047.047a3.876 3.876 0 000 5.472l9.254 9.254a3.847 3.847 0 002.738 1.133c1.035 0 2.008-.402 2.691-1.086l.094-.086 5.945 5.942zm2.645-2.426l-5.934-5.93 1.707-1.542 5.918 5.922zm0 0M76.035 0H57.973a3.878 3.878 0 00-3.871 3.871v10.324a3.878 3.878 0 003.87 3.871h3.446l-1.332 7.782 12.45-7.782h3.5a3.875 3.875 0 003.87-3.87V3.87A3.875 3.875 0 0076.036 0zm1.293 14.195c0 .711-.582 1.29-1.293 1.29h-4.238l-8.195 5.12.878-5.12h-6.507a1.29 1.29 0 01-1.29-1.29V3.871c0-.71.579-1.289 1.29-1.289h18.062c.711 0 1.293.578 1.293 1.29zm0 0"/><path d="M59.262 5.16h15.484v2.582H59.262zm0 0M59.262 10.324h10.324v2.578H59.262zm0 0M72.164 10.324h2.582v2.578h-2.582zm0 0M39.906 3.871c-16.86 0-31.379 11.66-35.156 27.93l-2.445-4.078L.094 29.05l4.535 7.558 7.555-4.535-1.329-2.215-3.496 2.098C11.016 17.078 24.4 6.453 39.906 6.453c3.39 0 6.735.5 9.942 1.496l.765-2.465a36.141 36.141 0 00-10.707-1.613zm0 0M79.281 28.57l-7.558-4.535-4.535 7.559 2.214 1.328 2.258-3.766A33.461 33.461 0 0173.457 40c0 7.672-2.66 15.176-7.484 21.121l2.004 1.629A36.208 36.208 0 0076.035 40c0-3.945-.633-7.8-1.875-11.492l3.793 2.277zm0 0"/></svg>