<svg xmlns="http://www.w3.org/2000/svg" width="80" height="80" fill="#FFFFFF"><path d="M71.668 26.5C71.551 7.184 50.551-6.383 32.602 3.066a3.339 3.339 0 00-4.27-.117A3.215 3.215 0 0025.117 0h-3.566a3.219 3.219 0 00-3.219 2.95 3.333 3.333 0 00-4.367.183l-2.5 2.515a3.218 3.218 0 00-.18 4.352 3.221 3.221 0 00-2.953 3.215v3.57A3.221 3.221 0 0011.285 20a3.329 3.329 0 00-.77 2.082c0 1.668.852 2.184 3.47 4.8a3.333 3.333 0 004.367.184 26.793 26.793 0 001.847 9.399c3.617 9.203 9.653 9.8 11.403 21.57A4.994 4.994 0 0031.3 65a5.002 5.002 0 00-.844 5.363A4.991 4.991 0 0035 73.332h1.832A8.332 8.332 0 0045 80.008a8.332 8.332 0 008.168-6.676H55a4.991 4.991 0 004.543-2.969A5.002 5.002 0 0058.699 65a5.002 5.002 0 00-.367-6.984C60.551 43.715 71.75 43.184 71.668 26.5zm-55.402-2.066l-2.368-2.368a3.21 3.21 0 00.614-3.414 3.211 3.211 0 00-2.844-1.984v-3.336a3.211 3.211 0 002.844-1.984 3.21 3.21 0 00-.614-3.414l2.368-2.368a3.218 3.218 0 005.402-2.234H25a3.218 3.218 0 001.984 2.848c1.16.48 2.496.242 3.414-.614l2.368 2.368a3.225 3.225 0 00-.614 3.414A3.216 3.216 0 0035 13.332v3.336a3.216 3.216 0 00-2.848 1.984 3.225 3.225 0 00.614 3.414l-2.368 2.368a3.209 3.209 0 00-3.414-.614A3.218 3.218 0 0025 26.668h-3.332a3.218 3.218 0 00-5.402-2.234zm24.02 48.898h9.429a4.997 4.997 0 01-9.43 0zM55 70H35a1.667 1.667 0 110-3.332h20A1.666 1.666 0 1155 70zm0-6.668H35A1.666 1.666 0 1135 60h20a1.667 1.667 0 110 3.332zm-20-6.664V36.465l10-1.25v21.453zm12.766-24.586c-.618-.566-1.067-.434-2.766-.215V25h10v31.668h-6.668c0-25.168.25-23.883-.566-24.586zm10.566 16v-24.75c0-.918-.746-1.664-1.664-1.664H43.332c-.918 0-1.664.746-1.664 1.664v8.953l-8.535 1.047c-.84.102-1.473.82-1.465 1.668v12.898c-3.434-6.28-8.336-8.332-9.734-17.898h3.183a3.215 3.215 0 003.215-2.95 3.333 3.333 0 004.367-.183l2.516-2.515A3.217 3.217 0 0035.383 20a3.215 3.215 0 002.949-3.215v-3.57A3.215 3.215 0 0035.382 10a3.194 3.194 0 00-.3-4.465 23.435 23.435 0 0122.324 1.477 23.434 23.434 0 0110.926 19.523 23.209 23.209 0 01-5.781 15.5 33.411 33.411 0 00-4.219 6.047zm0 0"/><path d="M30 15a6.667 6.667 0 10-13.332 0A6.666 6.666 0 1030 15zm-6.668 3.332a3.333 3.333 0 010-6.664A3.333 3.333 0 0126.668 15a3.333 3.333 0 01-3.336 3.332zm0 0"/></svg>