<svg xmlns="http://www.w3.org/2000/svg" width="80" height="80" fill="#282D37"><path d="M77.668 43.82a4.389 4.389 0 00-4.027-.035l-4.934 2.492a26.15 26.15 0 005.875-16.543c0-14.5-11.797-26.297-26.297-26.297-14.504 0-26.3 11.797-26.3 26.297 0 3.871.84 7.645 2.453 11.098-.243-.082-.481-.16-.715-.227-1.118-.324-3.227-.464-8.594 2-1.031.473-2.004.961-2.82 1.391v-2.95a1.57 1.57 0 00-1.57-1.57H1.57A1.57 1.57 0 000 41.047v34.009c0 .867.703 1.57 1.57 1.57h9.168a1.57 1.57 0 001.57-1.57v-2.766h19.06a1.57 1.57 0 100-3.14h-19.06V47.561c4.063-2.304 9.028-4.378 10.547-3.94.985.284 2.16.804 3.407 1.355 2.675 1.183 6.004 2.652 9.73 2.812 5.055.215 9.778 1.887 10.446 2.719.386.699.507 2.039.402 2.762H28.418c-2.352 0-3.637.988-4.3 1.816-1.65 2.055-1.071 4.93-.997 5.254a1.574 1.574 0 001.871 1.195 1.569 1.569 0 001.195-1.87c-.093-.442-.222-1.872.383-2.618.13-.16.516-.637 1.848-.637h20.824c4.188 0 8.371-.996 12.106-2.887l13.707-6.937c.363-.184.789-.18 1.144.012.406.215.66.636.66 1.097v2.192c0 .394-.191.773-.511 1.004l-16.97 12.297a16.786 16.786 0 01-7.23 2.976L43.57 67.52a1.574 1.574 0 00-1.308 1.796 1.575 1.575 0 001.797 1.309l8.578-1.36a19.91 19.91 0 008.582-3.535l16.968-12.293A4.399 4.399 0 0080 49.888v-2.192a4.376 4.376 0 00-2.332-3.875zm-68.5 29.664H3.141V42.617h6.027zM43.973 45.97a33.553 33.553 0 00-7.848-1.317c-2.496-.109-4.844-.945-6.988-1.851a1.674 1.674 0 00-.121-.215 23.062 23.062 0 01-3.891-12.852c0-12.77 10.39-23.156 23.16-23.156 12.766 0 23.156 10.387 23.156 23.156 0 12.184-9.457 22.2-21.418 23.094V42.16a6.988 6.988 0 000-.414v-3.953c4.399-.02 8.051-1.3 10.872-3.824 5.175-4.637 5.558-11.739 5.574-12.04a1.57 1.57 0 00-1.75-1.633c-9.496 1.118-13.844 5.337-15.82 8.68a14.726 14.726 0 00-1.91 5.547 11.347 11.347 0 00-3.75-2.632l-6.587-2.84a1.41 1.41 0 00-.3-.094c-.223-.047-.325-.074-.395-.09-.254-.062-.352-.078-.918-.144a1.569 1.569 0 00-1.254.41c-.336.316-.52.762-.5 1.222.012.25.336 6.239 4.703 10.149 2.325 2.078 5.313 3.16 8.895 3.226v3.356c-.79-.398-1.762-.77-2.91-1.117zm6.168-11.317c.164-1.039.547-2.53 1.46-4.078 2.098-3.55 5.946-5.851 11.45-6.855-.438 2.097-1.531 5.472-4.25 7.91-2.2 1.969-5.106 2.98-8.66 3.023zm-3.403 5.938c-2.71-.09-4.937-.899-6.636-2.41-1.883-1.676-2.809-3.942-3.258-5.625l5.148 2.222c2.457 1.059 4.235 3.254 4.746 5.813zm0 0"/><path d="M38.445 68.938l-.043-.028a1.571 1.571 0 00-1.707 2.637l.043.027a1.57 1.57 0 002.172-.465c.473-.726.266-1.699-.465-2.172zm0 0M33.793 22.344c.031-.09 2.91-8.64 11.941-9.477a1.57 1.57 0 001.418-1.71 1.567 1.567 0 00-1.707-1.419c-4.586.426-8.574 2.57-11.53 6.203-2.212 2.72-3.071 5.32-3.106 5.43-.27.824.183 1.711 1.007 1.98a1.568 1.568 0 001.977-1.008zm0 0M50.797 13.004l.043.027a1.57 1.57 0 002.172-.465c.472-.726.265-1.699-.465-2.171l-.043-.028a1.571 1.571 0 00-2.172.465c-.469.727-.262 1.7.465 2.172zm0 0"/></svg>