<svg xmlns="http://www.w3.org/2000/svg" width="80" height="80" fill="#282D37"><path d="M80 66.809v-9.746l-3.734-.954a3.939 3.939 0 00-.079-.191l1.965-3.309-6.89-6.894-3.313 1.965c-.062-.024-.125-.051-.187-.078l-.953-3.73h-9.746l-.954 3.733c-.062.024-.129.051-.191.079l-3.309-1.965-6.894 6.89 1.965 3.313c-.024.062-.051.125-.078.187l-3.73.953v9.747l3.733.953c.024.062.051.129.079.187l-1.965 3.313 6.89 6.894 3.313-1.965c.062.024.125.051.187.079l.953 3.73h9.747l.953-3.734c.062-.024.129-.051.187-.079l3.313 1.965 6.894-6.89-1.965-3.313c.024-.062.051-.125.079-.187zm-5.086 4.046l-4.059 4.06-2.757-1.638-.621.297c-.399.188-.809.36-1.23.508l-.65.23-.792 3.106h-5.739l-.793-3.106-.648-.23a12.147 12.147 0 01-1.23-.508l-.622-.297-2.757 1.637-4.055-4.059 1.637-2.757-.297-.621a12.171 12.171 0 01-.512-1.23l-.23-.65-3.106-.792v-5.739l3.106-.793.23-.648c.148-.422.316-.832.508-1.23l.297-.622-1.637-2.757 4.059-4.055 2.757 1.637.622-.297c.398-.192.808-.364 1.23-.512l.648-.23.793-3.106h5.739l.793 3.106.648.23c.422.148.832.316 1.23.508l.622.297 2.757-1.637 4.055 4.059-1.637 2.757.297.622c.192.398.364.808.512 1.23l.23.648 3.106.793v5.739l-3.106.793-.23.648c-.148.422-.316.832-.508 1.23l-.297.622zm0 0"/><path d="M61.934 51.613c-5.692 0-10.32 4.63-10.32 10.32 0 5.696 4.628 10.325 10.32 10.325 5.695 0 10.324-4.63 10.324-10.324 0-5.692-4.63-10.32-10.324-10.32zm0 18.063c-4.27 0-7.739-3.469-7.739-7.742a7.744 7.744 0 017.739-7.739c4.273 0 7.742 3.47 7.742 7.739a7.745 7.745 0 01-7.742 7.742zm0 0"/><path d="M61.934 56.773a5.168 5.168 0 00-5.16 5.16 5.169 5.169 0 005.16 5.165 5.17 5.17 0 005.164-5.164 5.169 5.169 0 00-5.164-5.16zm0 7.743a2.58 2.58 0 11.005-5.159 2.58 2.58 0 01-.005 5.159zm0 0M32.676 21.848a7.79 7.79 0 002.164 3.261v1.094l-6.137 2.3a6.481 6.481 0 00-4.187 6.04v6.746h30.968v-6.746a6.481 6.481 0 00-4.187-6.04l-6.137-2.3V25.11a7.742 7.742 0 002.164-3.261c2.43-.418 4.29-2.528 4.29-5.075v-5.16C51.613 5.211 46.401 0 40 0c-6.402 0-11.613 5.21-11.613 11.613v5.16c0 2.547 1.86 4.657 4.289 5.075zm9.906 4.89L40 31.04l-2.582-4.3v-.094a7.65 7.65 0 002.582.453 7.65 7.65 0 002.582-.453zm-7.008 1.946l2.602 4.332-2.582 1.293-1.672-5.008zm17.328 5.859v4.168H27.098v-4.168a3.89 3.89 0 012.511-3.625l1.895-.707 2.582 7.738L40 34.992l5.914 2.957 2.582-7.738 1.895.71a3.88 3.88 0 012.511 3.622zm-6.824-5.242l-1.672 5.008-2.582-1.29 2.602-4.335zM40 24.516a5.163 5.163 0 01-5.16-5.16v-5.25c1.887-.2 3.672-.887 5.16-2.06 1.488 1.173 3.273 1.86 5.16 2.06v5.25a5.163 5.163 0 01-5.16 5.16zm7.742-5.52v-4.441c.77.445 1.29 1.27 1.29 2.222 0 .95-.52 1.77-1.29 2.22zM40 2.582c4.98 0 9.031 4.05 9.031 9.031v.719a5.092 5.092 0 00-2.578-.719h-.223a7.453 7.453 0 01-5.316-2.203L40 8.496l-.914.914a7.453 7.453 0 01-5.316 2.203h-.223c-.942 0-1.817.274-2.578.719v-.719c0-4.98 4.05-9.031 9.031-9.031zm-7.742 11.969v4.445a2.573 2.573 0 01-1.29-2.223c0-.953.52-1.773 1.29-2.222zm0 0M0 80h25.805V46.453H0zm2.582-30.969h20.645v28.387H2.582zm0 0"/><path d="M5.16 51.613h15.485v2.582H5.16zm0 0M5.16 56.773h2.582v2.582H5.16zm0 0M10.324 56.773h10.32v2.582h-10.32zm0 0M5.16 61.934h15.485v2.582H5.16zm0 0M5.16 67.098h15.485v2.578H5.16zm0 0M18.066 72.258h2.579v2.582h-2.579zm0 0M5.16 72.258h10.324v2.582H5.16zm0 0M34.46 57.688l-1.823-1.825-6.075 6.07 6.075 6.075 1.824-1.824-2.957-2.957h9.785v-2.582h-9.785zm0 0M14.195 20.645c0-.711.578-1.29 1.29-1.29h5.917l-2.96 2.957 1.824 1.825 6.074-6.07-6.074-6.075-1.825 1.824 2.961 2.957h-5.918a3.878 3.878 0 00-3.87 3.872V43.87h2.581zm0 0M61.934 20.645v16.242l-2.957-2.961-1.825 1.824 6.075 6.074L69.3 35.75l-1.824-1.824-2.961 2.96V20.646a3.878 3.878 0 00-3.871-3.872h-6.45v2.582h6.45c.71 0 1.289.579 1.289 1.29zm0 0"/></svg>