<svg xmlns="http://www.w3.org/2000/svg" width="80" height="80" fill="#FFFFFF"><path d="M2.938 37.121h33.656v-9.953h6.812v9.953H77.06v-20.05H63.965c2.484-4.915 2.105-10.544-1.399-14.048C60.617 1.074 57.91 0 54.946 0c-3.786 0-7.673 1.71-10.657 4.7C41.492 7.491 40.4 12.034 40 15.866c-.398-3.832-1.492-8.375-4.29-11.168C32.728 1.711 28.84 0 25.056 0c-2.965 0-5.672 1.074-7.621 3.023-2.309 2.309-3.372 5.676-2.918 9.243a14.65 14.65 0 001.5 4.804H2.938zm46.417-27.36c1.625-1.628 3.72-2.6 5.59-2.6.746 0 1.793.16 2.559.925 1.723 1.726.941 5.535-1.676 8.152-1.281 1.282-4.656 2.164-8.832 2.348.164-3.43.863-7.332 2.36-8.824zM22.496 8.087c.766-.766 1.813-.926 2.559-.926 1.87 0 3.965.973 5.59 2.602 1.507 1.508 2.207 5.37 2.363 8.824-4.176-.184-7.555-1.066-8.836-2.348-1.41-1.41-2.34-3.183-2.555-4.87-.101-.798-.12-2.282.88-3.282zm14.098 35.39V80H8.043V43.477zM43.406 80V43.477h28.551V80zm0 0"/></svg>