<svg xmlns="http://www.w3.org/2000/svg" width="80" height="80" fill="#FFFFFF"><path d="M17.633 50.613v12.59h3.828v-12.59h-3.828zm0 0M14.957 70.328c-1.05-1.851-2.805-2.816-4.77-3.379-1.335-.379-2.73-.449-4.124-.441-1.965.004-3.93 0-5.899 0v12.73c2.535-.02 5.074-.047 7.613-.078a9.736 9.736 0 003.66-.77c1.711-.73 3.16-1.745 3.836-3.581.575-1.543.477-3.079-.316-4.48zM8.93 76.547c-.89.351-1.801.504-2.75.5-.7-.008-1.395 0-2.114 0v-8.711c1.551.3 3.141-.035 4.633.535 1.274.488 2.27 1.29 2.676 2.633.64 2.129-.227 4.187-2.445 5.043zm0 0M25.605 77.3c-.992-.23-2.054-.902-2.011-2.109h9.343c.098-1.117-.09-2.132-.57-3.09-.695-1.398-1.922-2.132-3.36-2.538a8.78 8.78 0 00-3.241-.282c-1.828.168-3.489.653-4.817 2.016-1.105 1.129-1.5 2.457-1.176 3.996.262 1.242 1.028 2.152 2.055 2.84 1.25.86 2.672 1.215 4.164 1.265 1.047.04 2.106.02 3.14-.09.9-.09 1.774-.34 2.653-.546.102-.02.227-.207.235-.325.023-.656.007-1.308.007-1.953-.437.196-.847.434-1.285.559-1.691.46-3.41.637-5.137.258zm-1.093-5.632c1.183-.625 2.414-.727 3.656-.176.652.293.945.77 1.242 1.832h-5.75c-.117-.566.235-1.336.852-1.656zm0 0M75.719 77.434c-.434-.22-.735-.551-.696-1.125.043-.645.008-1.29.008-1.938v-2.39h3.086v-2.028H75.02v-2.398h-3.81v2.425h-2.905v2.012h2.93v.508c0 1.559-.012 3.113.007 4.672.012.594.23 1.144.653 1.57.617.64 1.41.934 2.265 1.086.297.055.582.113.871.172h1.434c.375-.059.762-.082 1.125-.18.23-.062.629.078.644-.343.028-.625.012-1.25.012-1.875-.894.183-1.734.234-2.527-.168zm0 0M66.023 50.664c.004.73.004 1.398.004 2.106h5.137v10.597h3.617V52.766h5.055v-2.102H66.023zm0 0M15.309 55.262c-.528-1.528-1.664-2.578-3.075-3.336-1.66-.89-3.46-1.246-5.332-1.262-2.242-.023-4.496-.008-6.738-.008v12.735c2.3-.02 4.594-.086 6.89-.07 1.52.007 2.973-.22 4.376-.782 1.265-.504 2.379-1.242 3.187-2.36 1.098-1.511 1.281-3.19.692-4.917zm-5.106 4.707c-.805.672-1.754 1.035-2.781 1.14-.79.075-1.59.055-2.383.098-.312.012-.629.063-.976.098v-8.703c.609 0 1.199-.028 1.792 0 .61.027 1.215.101 1.82.164 1.09.097 1.997.605 2.763 1.347 1.574 1.508 1.554 4.375-.235 5.856zm0 0M71.879 20.746c-.3-1.848-.914-3.613-1.774-5.277-.87-1.68-1.93-3.258-3.207-4.649-1.457-1.582-3.039-3.027-4.816-4.246-2.145-1.469-4.398-2.715-6.828-3.625-1.332-.5-2.676-.98-4.05-1.344-1.657-.437-3.345-.753-5.028-1.085-.77-.153-1.547-.25-2.336-.333-.664-.07-1.324-.082-2.086-.12.172.335-.18.73.371.87 1.238.329 2.516.594 3.703 1.063 1.48.578 2.95 1.23 4.313 2.043 1.96 1.16 3.738 2.605 5.164 4.422.832 1.066 1.617 2.168 2.164 3.406a38.762 38.762 0 011.394 3.59c.278.84.414 1.734.563 2.613.168 1.078.347 2.16.394 3.246a32.07 32.07 0 01-.074 3.778 26.667 26.667 0 01-.508 3.472c-.523 2.528-1.543 4.864-2.98 7.004-1.047 1.567-2.309 2.95-3.742 4.184-1.375 1.199-2.903 2.176-4.532 2.965a22.05 22.05 0 01-7.097 2.027c-1.305.148-2.637.137-3.953.09a40.96 40.96 0 01-4.145-.336c-1.43-.191-2.863-.426-4.258-.785-2.363-.606-4.687-1.38-6.855-2.528-1.344-.714-2.684-1.445-3.953-2.28a19.453 19.453 0 01-4.059-3.52c-1.289-1.477-2.312-3.082-2.742-5.02-.281-1.312-.203-2.59.41-3.8.773-1.536 1.984-2.669 3.363-3.65 1.426-1.007 2.95-1.808 4.551-2.491 2.3-.98 4.672-1.75 7.129-2.22 1.633-.312 3.273-.624 4.926-.827 1.566-.195 3.152-.29 4.734-.34 1.3-.043 2.606.043 3.906.07.133 0 .27-.011.434-.023V0h-2.527c-.043.027-.082.074-.13.078-1.156.063-2.308.11-3.464.18-.633.035-1.274.086-1.902.18-.985.144-1.961.304-2.934.492-1.297.254-2.629.468-3.898.832-1.739.5-3.461 1.05-5.145 1.715-1.41.558-2.785 1.246-4.11 1.988a24.641 24.641 0 00-4.417 3.187 22.472 22.472 0 00-3.18 3.524C7.586 13.684 6.715 15.3 6.102 17.05c-.239.687-.48 1.383-.61 2.094-.199 1.066-.281 2.156-.441 3.234-.219 1.512-.047 3.004.215 4.476a17.313 17.313 0 001.199 3.883A19.654 19.654 0 009.547 35.7c.851 1.004 1.77 1.98 2.77 2.844a33 33 0 003.738 2.836c1.375.871 2.836 1.61 4.293 2.336.992.492 2.02.933 3.078 1.277a62.07 62.07 0 004.66 1.324c1.363.329 2.746.59 4.129.793 1.238.176 2.48.274 3.726.336 1.184.059 2.371.059 3.547 0a95.496 95.496 0 005.078-.336c1.204-.113 2.418-.265 3.594-.53 1.613-.364 3.2-.852 4.805-1.286 1.765-.48 3.453-1.188 5.086-2.004 1.273-.64 2.488-1.41 3.71-2.148a21.995 21.995 0 003.872-3.055 21.36 21.36 0 001.586-1.676c.64-.762 1.27-1.535 1.808-2.355a20.11 20.11 0 002.164-4.516c.57-1.703.875-3.45.942-5.223.047-1.187-.067-2.398-.254-3.57zm0 0M58.86 70.004v9.3h3.667v-9.3H58.86zm0 0M58.86 65.605v2.387h3.66v-2.387h-3.66zm0 0"/><path d="M39.746 18.121c-.906.113-1.844.156-2.742.356-1.461.328-2.875.835-4.191 1.543-1.774.949-3.352 2.168-4.614 3.75-.77.96-1.41 1.996-1.832 3.156-.332.922-.664 1.84-.664 2.84-.004.941-.074 1.894.055 2.824.133.96.476 1.875.945 2.746a11.279 11.279 0 002.367 3.023c.762.688 1.63 1.282 2.492 1.836 1.375.875 2.848 1.547 4.43 1.957.89.23 1.778.457 2.68.657.512.109 1.035.144 1.594.207V18.027c-.192.032-.356.075-.52.094zm0 0M50.559 52.758v-2.145H40.402v12.672h10.063v-2.18h-6.602v-3.039h6.282v-2.183H43.87v-3.125h6.688zm0 0M34.305 57.195c.894-.234 1.742-.539 2.304-1.414.418-.648.512-1.324.493-2.05-.028-.993-.547-1.727-1.34-2.192-1.223-.719-2.59-.965-4.012-.957-.813.004-1.629 0-2.441 0h-4.57v12.7h3.777v-5.024c.574 0 1.125-.04 1.668.004.656.047 1.23.328 1.562.925a201.31 201.31 0 012.05 3.848c.102.203.2.285.427.285 1.152-.011 2.308-.004 3.457-.008.082 0 .168-.03.3-.054-1.335-2.012-2.171-4.258-3.675-6.063zm-1.63-1.742c-.593.39-1.234.59-1.937.602-.726.008-1.453 0-2.23 0v-3.301c1 0 2 .008 2.996 0 .55-.004.957.281 1.351.617.606.52.442 1.676-.18 2.082zm0 0M63.05 61.2c-1.503.042-3 .058-4.456-.41-1.16-.372-2.153-.946-2.684-2.099-.422-.921-.398-1.882-.16-2.863.188-.8.563-1.488 1.172-2 1.055-.906 2.355-1.156 3.687-1.215.614-.031 1.23.02 1.844.078.797.079 1.606.227 2.477.352.097-.54.21-1.145.304-1.746.016-.059-.082-.18-.16-.203-.976-.352-1.969-.633-3.004-.68a23.061 23.061 0 00-2.324.004c-.762.055-1.516.121-2.254.3-1.512.364-2.96.91-4.148 2.005-.617.566-1.125 1.199-1.418 1.988-.352.937-.492 1.894-.344 2.922.172 1.226.637 2.304 1.469 3.207 1.027 1.11 2.336 1.8 3.773 2.2 1.496.42 3.008.624 4.574.542a17.654 17.654 0 003.625-.562c-.062-.696-.128-1.38-.187-2.06-.645.087-1.207.22-1.785.24zm0 0M52.266 73.555c-.16-.856-.496-1.621-1.075-2.274-.925-1.043-2.152-1.535-3.472-1.629-1.903-.144-3.801-.054-5.426 1.457v-5.586h-3.719v13.692h3.762v-.938c.078.02.144.016.18.047.875.828 1.976 1.133 3.109 1.235 1.297.12 2.613.086 3.832-.504 1.133-.551 2.004-1.348 2.496-2.54.39-.964.492-1.94.313-2.96zm-5.2 3.523a3.479 3.479 0 01-3.992-.508c-.554-.492-.87-1.136-.761-1.882-.227-1.575 1.417-2.774 2.69-2.876 1.036-.085 1.946.122 2.704.82 1.477 1.356 1.09 3.52-.64 4.446zm0 0"/></svg>