<svg xmlns="http://www.w3.org/2000/svg" width="80" height="80" fill="#282D37"><path d="M79.852 18.969a3.998 3.998 0 00-4.903-2.824 4 4 0 00-2.43 1.867l-.664 1.16a1.327 1.327 0 00-1.812.48l-3.387 5.77-1.16-.668a1.355 1.355 0 00-1.016-.133 1.334 1.334 0 00-.316 2.441l1.156.668-11.328 19.637-2.8 7.477-1.333 2.492a4 4 0 00.211 4.32l-3 3.68-.84-2.106a2.659 2.659 0 00-2.261-1.66 2.662 2.662 0 00-2.496 1.285l-.48.813-.454-5.332a2.663 2.663 0 00-2.336-2.426 2.663 2.663 0 00-2.848 1.8l-3.28 9.837c-.231.7.144 1.45.84 1.683.128.06.269.094.413.106.574 0 1.082-.363 1.266-.906l3.265-9.84.47 5.414a2.663 2.663 0 002.054 2.375 2.663 2.663 0 002.89-1.23l.493-.813.828 2.094a2.668 2.668 0 002.082 1.652 2.674 2.674 0 002.476-.973l3.106-3.933c.344.09.699.136 1.054.133a3.99 3.99 0 003.477-1.973l1.336-2.227 5.078-6.172 11.45-19.874 1.16.664a1.335 1.335 0 01.496 1.828l-5.332 9.238c-.204.305-.27.676-.192 1.031.082.356.305.66.617.848.305.18.672.226 1.016.133.34-.09.633-.317.809-.625l5.332-9.239a3.997 3.997 0 00.402-3.039 3.996 3.996 0 00-1.867-2.425l-1.16-.668 3.332-5.774a1.331 1.331 0 00-.48-1.812l.667-1.16c.547-.934.692-2.051.399-3.094zm-5.024.375c.176-.309.469-.535.813-.625a1.341 1.341 0 011.64.945c.082.344.035.703-.133 1.012l-.668 1.16-2.32-1.332zM56.656 56.562l-.664-.386-1.976-1.145 1.894-5.066 4.2 2.426zm-4 3.856a1.333 1.333 0 01-.398-1.746l.668-1.16 2.316 1.332-.664 1.144a1.336 1.336 0 01-1.922.43zm8.973-10.211l-4.613-2.668 10.668-18.477 4.609 2.665zm12-20.785l-4.613-2.668 2.664-4.61 4.613 2.665zm0 0M21.035 59.75l-4.719 4.707-2.824-2.828a1.34 1.34 0 00-1.883 0 1.345 1.345 0 000 1.894l2.829 2.825c.5.496 1.175.773 1.878.773.711.004 1.391-.273 1.895-.773l4.707-4.72a1.336 1.336 0 00-.07-1.808 1.337 1.337 0 00-1.813-.07zm0 0"/><path d="M5.332 63.336c0 6.258 5.074 11.332 11.332 11.332 6.258 0 11.332-5.074 11.332-11.332a1.334 1.334 0 00-2.668 0A8.664 8.664 0 0116.664 72 8.664 8.664 0 018 63.336a8.664 8.664 0 018.664-8.664 8.578 8.578 0 015.2 1.73 1.33 1.33 0 001.866-.265c.442-.59.32-1.422-.27-1.867a11.332 11.332 0 00-18.128 9.066zm0 0M47.992 10.68a1.335 1.335 0 000-2.668h-34.66c-.738 0-1.336.597-1.336 1.332v5.332c0 .738.598 1.336 1.336 1.336h34.66a1.335 1.335 0 000-2.668H14.664V10.68zm0 0M17.332 18.676a1.335 1.335 0 100 2.668h26.66c.738 0 1.332-.598 1.332-1.332 0-.739-.594-1.336-1.332-1.336zm0 0M51.992 28.008H22.664a1.335 1.335 0 100 2.668h29.328a1.335 1.335 0 000-2.668zm0 0M38.66 37.34c0-.735-.597-1.332-1.332-1.332H10.664a1.331 1.331 0 100 2.664h26.664c.734 0 1.332-.594 1.332-1.332zm0 0M51.992 36.008H42.66a1.331 1.331 0 100 2.664h9.332a1.331 1.331 0 100-2.664zm0 0M23.996 45.34a1.335 1.335 0 000-2.668H10.664a1.334 1.334 0 000 2.668zm0 0M29.328 45.34h9.332a1.335 1.335 0 000-2.668h-9.332a1.334 1.334 0 000 2.668zm0 0"/><path d="M59.988 61.336c-.734 0-1.332.598-1.332 1.332V76c0 .738-.597 1.332-1.332 1.332H4A1.329 1.329 0 012.668 76V4.012c0-.735.594-1.332 1.332-1.332h53.324c.735 0 1.332.597 1.332 1.332v25.035a1.335 1.335 0 102.668 0V4.012c0-2.207-1.793-4-4-4H4a4 4 0 00-4 4V76c0 2.21 1.79 4 4 4h53.324a4 4 0 004-4V62.668c0-.734-.597-1.332-1.336-1.332zm0 0"/></svg>