<svg xmlns="http://www.w3.org/2000/svg" width="80" height="80" fill="#282D37"><path d="M29.23 48.234c-.02-.101-.05-.199-.09-.293a1.625 1.625 0 00-.34-.508 1.577 1.577 0 00-1.41-.425c-.097.02-.195.05-.288.09-.098.039-.188.086-.274.144a1.392 1.392 0 00-.234.192c-.074.074-.14.152-.196.238a1.789 1.789 0 00-.144.27 1.613 1.613 0 00-.121.598 1.613 1.613 0 00.12.597c.04.093.09.183.145.27a1.636 1.636 0 00.43.434 1.532 1.532 0 00.563.23 1.574 1.574 0 001.75-.934 1.497 1.497 0 00.117-.598c0-.102-.008-.203-.028-.305zm0 0"/><path d="M78.438 75.215h-3.239V51.652a4.681 4.681 0 00-4.676-4.675h-2.668V31.563a4.681 4.681 0 00-4.675-4.676h-4.797v-4.535a6.344 6.344 0 004.125-8.957l-4.29-8.684a1.555 1.555 0 00-1.398-.871c-.597 0-1.14.336-1.402.87l-4.29 8.688a6.345 6.345 0 001.204 7.293 6.313 6.313 0 002.926 1.66v4.536H41.562v-6.715a6.337 6.337 0 004.125-8.957L41.403 2.53a1.565 1.565 0 00-2.804 0l-4.285 8.684a6.337 6.337 0 004.124 8.957v6.715H24.742v-4.532a6.345 6.345 0 004.129-8.957l-4.289-8.687a1.556 1.556 0 00-1.402-.871c-.594 0-1.137.336-1.399.87l-4.289 8.688a6.339 6.339 0 001.203 7.293 6.302 6.302 0 002.922 1.664v4.532H16.82a4.682 4.682 0 00-4.675 4.68v15.41H9.477a4.682 4.682 0 00-4.676 4.68v23.558H1.562a1.562 1.562 0 100 3.125h76.876a1.562 1.562 0 100-3.125zM54.543 18.48a3.21 3.21 0 01-.61-3.699L56.82 8.93l2.887 5.851a3.223 3.223 0 01-.61 3.7 3.221 3.221 0 01-3.84.535c-.257-.141-.5-.317-.714-.536zm-16.82-2.18a3.222 3.222 0 01-.61-3.702L40 6.75l2.887 5.848a3.222 3.222 0 01-.61 3.703c-.218.215-.46.394-.715.535a3.221 3.221 0 01-3.84-.535zm-16.817 2.18a3.218 3.218 0 01-.613-3.699L23.18 8.93l2.886 5.851a3.21 3.21 0 01-1.324 4.235 3.221 3.221 0 01-3.836-.536zM16.82 30.012h46.36c.855 0 1.55.695 1.55 1.55v4.907c-.687.218-1.43.316-2.304.316-2.332 0-3.395-.707-4.742-1.605-1.496-1-3.196-2.133-6.473-2.133-3.277 0-4.973 1.133-6.473 2.133-1.347.898-2.41 1.605-4.738 1.605-2.332 0-3.395-.707-4.742-1.605-1.496-1-3.196-2.133-6.473-2.133-3.273 0-4.973 1.133-6.473 2.133-1.343.898-2.41 1.605-4.738 1.605-.875 0-1.617-.097-2.304-.316v-4.907c0-.855.695-1.55 1.55-1.55zm55.254 45.203H7.926V60.199c1.328.246 2.172.809 3.176 1.477 1.496 1 3.195 2.129 6.472 2.129 3.278 0 4.973-1.13 6.473-2.13 1.348-.898 2.41-1.605 4.738-1.605 2.332 0 3.395.707 4.742 1.606 1.496 1 3.196 2.129 6.473 2.129 3.273 0 4.973-1.13 6.473-2.13 1.343-.898 2.41-1.605 4.738-1.605 2.332 0 3.394.707 4.742 1.606 1.496 1 3.195 2.129 6.473 2.129 3.277 0 4.972-1.13 6.472-2.13 1.004-.667 1.848-1.23 3.176-1.476zm0-18.176c-2.293.293-3.668 1.211-4.91 2.035-1.344.899-2.41 1.606-4.738 1.606-2.332 0-3.395-.707-4.742-1.606-1.496-1-3.196-2.129-6.473-2.129-3.277 0-4.973 1.13-6.473 2.13-1.347.898-2.41 1.605-4.738 1.605-2.332 0-3.395-.707-4.742-1.606-1.496-1-3.196-2.129-6.473-2.129-3.273 0-4.973 1.13-6.473 2.13-1.343.898-2.41 1.605-4.738 1.605-2.332 0-3.394-.707-4.738-1.606-1.242-.824-2.617-1.742-4.91-2.035v-5.387c0-.855.695-1.55 1.55-1.55H21.47a1.562 1.562 0 100-3.125h-6.2V39.69c.72.145 1.481.22 2.305.22 3.278 0 4.973-1.134 6.473-2.13 1.348-.898 2.41-1.61 4.738-1.61 2.332 0 3.395.712 4.742 1.61 1.496.996 3.196 2.13 6.473 2.13 3.273 0 4.973-1.134 6.473-2.13 1.343-.898 2.41-1.61 4.738-1.61 2.332 0 3.394.712 4.742 1.61 1.496.996 3.195 2.13 6.473 2.13.824 0 1.586-.075 2.304-.22v7.286H33.926a1.562 1.562 0 100 3.125h36.597c.856 0 1.551.695 1.551 1.55zm0 0"/><path d="M15.238 71.336c-.02-.102-.05-.2-.09-.293a1.767 1.767 0 00-.14-.27 1.625 1.625 0 00-.703-.578 1.577 1.577 0 00-1.898.578 1.767 1.767 0 00-.141.27 1.613 1.613 0 00-.121.598 1.613 1.613 0 00.261.867 1.58 1.58 0 001.3.695 1.613 1.613 0 00.599-.121 1.599 1.599 0 00.508-.336c.07-.074.136-.152.195-.238.055-.086.101-.176.14-.27a1.613 1.613 0 00.121-.598c0-.1-.011-.202-.03-.304zm0 0M32.031 66.664a1.488 1.488 0 00-.23-.562 1.625 1.625 0 00-.703-.578 1.488 1.488 0 00-.293-.087 1.456 1.456 0 00-.61 0 1.488 1.488 0 00-.562.231 1.625 1.625 0 00-.238.195c-.07.07-.137.153-.192.239a1.495 1.495 0 00-.144.27 1.613 1.613 0 00-.121.598 1.613 1.613 0 00.12.596 1.599 1.599 0 00.336.508 1.599 1.599 0 00.508.336 1.613 1.613 0 00.598.121 1.613 1.613 0 00.598-.12 1.599 1.599 0 00.508-.336c.07-.075.136-.153.195-.24a1.488 1.488 0 00.23-.563c.024-.1.032-.202.032-.303 0-.102-.008-.203-.032-.305zm0 0M50.098 71.336c-.02-.102-.051-.2-.09-.293a1.599 1.599 0 00-.336-.508 1.625 1.625 0 00-.508-.34 1.57 1.57 0 00-.293-.086 1.475 1.475 0 00-.613 0 1.532 1.532 0 00-.992.664 1.789 1.789 0 00-.145.27 1.82 1.82 0 00-.09.293c-.02.102-.027.203-.027.305 0 .101.008.203.027.304.024.102.051.2.09.293.04.094.09.184.145.27.058.086.125.164.195.238.07.07.152.137.238.192.082.058.176.105.27.144a1.545 1.545 0 00.597.121c.41 0 .813-.168 1.106-.457a1.599 1.599 0 00.336-.508 1.613 1.613 0 00.121-.598c0-.1-.012-.202-.031-.304zm0 0M67.824 67.598a1.602 1.602 0 00-.23-.563 1.672 1.672 0 00-.196-.238 1.588 1.588 0 00-1.105-.457c-.41 0-.813.168-1.106.457-.07.07-.136.152-.195.238a1.602 1.602 0 00-.23.563 1.58 1.58 0 00-.032.304 1.613 1.613 0 00.262.868c.059.085.125.164.195.238.075.07.153.137.239.195.086.055.176.102.27.14a1.613 1.613 0 00.598.121 1.58 1.58 0 001.3-.694c.054-.086.101-.176.14-.27a1.613 1.613 0 00.121-.598 1.58 1.58 0 00-.03-.304zm0 0M52.277 42.055a1.546 1.546 0 00-.09-.29 1.602 1.602 0 00-.14-.269 1.625 1.625 0 00-.703-.578 1.949 1.949 0 00-.293-.09c-.2-.039-.41-.039-.61 0a1.618 1.618 0 00-.8.43c-.07.07-.137.152-.196.238a1.602 1.602 0 00-.14.27 1.545 1.545 0 00-.09.902c.02.098.05.2.09.293.039.094.086.184.14.27.059.085.125.164.196.238.07.07.152.136.238.191.082.059.176.106.27.145a1.58 1.58 0 00.598.121 1.613 1.613 0 00.597-.121 1.599 1.599 0 00.508-.336c.07-.074.136-.153.195-.239.055-.085.101-.175.14-.27a1.583 1.583 0 00.122-.597c0-.101-.012-.207-.032-.308zm0 0M31.875 39.93a1.488 1.488 0 00-.23-.563 1.443 1.443 0 00-.196-.238 1.443 1.443 0 00-.238-.195 1.488 1.488 0 00-.563-.23 1.456 1.456 0 00-.609 0 1.488 1.488 0 00-.562.23 1.625 1.625 0 00-.239.195c-.07.07-.136.152-.191.238a1.495 1.495 0 00-.145.27 1.613 1.613 0 00-.121.598 1.613 1.613 0 00.121.597 1.599 1.599 0 00.336.508 1.599 1.599 0 00.508.336 1.613 1.613 0 00.598.121 1.58 1.58 0 001.445-.965c.04-.094.066-.191.086-.293.023-.102.031-.203.031-.305 0-.101-.008-.203-.031-.304zm0 0"/></svg>