<svg xmlns="http://www.w3.org/2000/svg" width="80" height="80" fill="#FFFFFF"><path d="M55.844 44.215a27.413 27.413 0 006.886-6.14h7.122c4.289 0 7.777-3.49 7.777-7.778V7.777C77.629 3.488 74.14 0 69.852 0H31.414c-4.289 0-7.777 3.488-7.777 7.777v22.52c0 4.289 3.488 7.777 7.777 7.777h2.672l1.789 4.32-4.852 3.04-1.386-2.223c-4.32-6.898-13.45-8.996-20.348-4.676C2.395 42.855.297 51.98 4.617 58.88 7.414 63.348 12.23 65.8 17.152 65.8c2.672 0 5.38-.723 7.809-2.246l15.625-9.785 7.09 17.117C50.027 76.567 55.539 80 61.332 80c1.879 0 3.79-.36 5.633-1.125 7.515-3.113 11.101-11.766 7.988-19.285a14.682 14.682 0 00-7.988-7.988 14.682 14.682 0 00-11.3 0c-.083.03-1.052.437-2.419 1.007l-2.226-5.375zm-1.246-1.988l-4.489 2.812-.152-.367-2.73-6.598h12.406a24.904 24.904 0 01-5.035 4.153zm15.254-6.497H46.254l-7.207-17.398h36.238v11.965a5.44 5.44 0 01-5.433 5.433zM31.414 2.344h38.438a5.44 5.44 0 015.433 5.433V8.81h-9.422a1.173 1.173 0 000 2.343h9.422v4.836H38.078l-.969-2.34a1.176 1.176 0 00-1.02-.722 1.176 1.176 0 00-1.093.61 28.85 28.85 0 00-1.184 2.452H25.98v-4.836h35.204a1.173 1.173 0 000-2.343H25.98V7.777a5.44 5.44 0 015.434-5.433zM25.98 30.297V18.332h6.961a27.296 27.296 0 00.223 17.398h-1.75a5.44 5.44 0 01-5.434-5.433zM23.72 61.57c-5.805 3.633-13.485 1.867-17.117-3.933-3.633-5.805-1.868-13.48 3.933-17.114a12.335 12.335 0 016.57-1.894c4.141 0 8.192 2.066 10.547 5.824C27.707 44.54 34.207 55 34.207 55zm32.843-7.804a12.334 12.334 0 019.504 0 12.338 12.338 0 016.72 6.722c2.62 6.325-.395 13.602-6.72 16.223-6.324 2.621-13.605-.395-16.226-6.719l-4.735-11.437 11.458-4.79zm-12.355 2.62l-2.805-6.769a1.17 1.17 0 10-2.164.895l.438 1.062-3.477 2.18c-.879-1.41-2.52-4.043-3.941-6.328l4.527-2.836.66 1.601a1.173 1.173 0 002.168-.898l-3.715-8.969a25.012 25.012 0 01.047-19.363l15.137 36.55c-2.48 1.04-5.344 2.235-6.875 2.876zm0 0"/><path d="M52.406 68.93a9.582 9.582 0 005.219 5.215 9.633 9.633 0 003.688.738c1.25 0 2.5-.246 3.69-.738a9.57 9.57 0 005.216-5.22 9.543 9.543 0 000-7.374 9.57 9.57 0 00-5.215-5.219 9.588 9.588 0 00-7.379 0c-4.91 2.035-7.254 7.688-5.219 12.598zm6.114-10.434a7.333 7.333 0 012.792-.559c.95 0 1.895.188 2.793.56a7.25 7.25 0 013.95 3.948 7.25 7.25 0 010 5.586 7.25 7.25 0 01-3.95 3.95 7.283 7.283 0 01-2.78.554c-2.864 0-5.59-1.7-6.75-4.504-1.544-3.715.23-7.992 3.945-9.535zm0 0M19.285 41.648a9.577 9.577 0 00-7.273 1.227 9.578 9.578 0 00-4.282 6.012 9.563 9.563 0 001.227 7.273 9.578 9.578 0 006.012 4.281 9.834 9.834 0 002.176.246c1.789 0 3.546-.5 5.097-1.472 4.504-2.82 5.875-8.781 3.055-13.285a9.589 9.589 0 00-6.012-4.282zM21 57.23a7.261 7.261 0 01-5.508.926 7.257 7.257 0 01-4.55-3.238 7.244 7.244 0 01-.926-5.508 7.257 7.257 0 013.238-4.55 7.26 7.26 0 015.504-.926 7.247 7.247 0 014.55 3.238c2.137 3.41 1.102 7.922-2.308 10.058zm0 0M42.605 44.965c.399.937 1.774.95 2.165 0a1.18 1.18 0 00-.286-1.309 1.19 1.19 0 00-1.398-.144 1.188 1.188 0 00-.48 1.453zm0 0M49.559 20.691h-5.5a1.173 1.173 0 000 2.344h5.5a1.173 1.173 0 000-2.344zm0 0M59.148 20.691h-5.496a1.173 1.173 0 000 2.344h5.496a1.173 1.173 0 000-2.344zm0 0M68.742 20.691h-5.5c-.644 0-1.172.528-1.172 1.172 0 .649.528 1.172 1.172 1.172h5.5a1.173 1.173 0 000-2.344zm0 0"/></svg>