<svg xmlns="http://www.w3.org/2000/svg" width="80" height="80" fill="#282D37"><path d="M56.473 42.082c-3.86-4.004-9.278-7.48-17.055-10.937-13.172-5.856-17.652-14.582-17.84-14.954a1.425 1.425 0 01-.148-.636c0-4.657-1.973-7.227-3.016-8.266-4.078 2.676-4.129 8.207-4.129 8.266 0 .613-.394 1.16-.976 1.355-3.672 1.223-7.114 3.719-9.68 7.02C1.355 26.852 0 30.129 0 32.695c0 .313 0 .961 1.586 1.633 1.324.563 3.242.91 5.098 1.25 4.234.77 9.03 1.64 9.03 5.692 0 4.882-4.948 8.64-7.898 10.445a1.435 1.435 0 00-.671 1.215v8.34a1.427 1.427 0 002.855 0v-1.43a4.287 4.287 0 014.285-4.285h7.488c.63-1.914 2.329-5.758 6.32-8.07 3.993-2.317 9.114-2.462 15.216-.43.75.25 1.152 1.058.902 1.808a1.423 1.423 0 01-1.805.903c-5.277-1.758-9.601-1.7-12.851.172-4.246 2.445-5.29 7.28-5.297 7.332-.004.003-.004.015-.008.023-1.082 4.879-.34 9.21 2.207 12.875a15.201 15.201 0 004.254 4.148c.687.391.922 1.266.527 1.95a1.424 1.424 0 01-1.238.718h-7.145c-.789 0-1.425.637-1.425 1.426 0 .79.636 1.43 1.425 1.43h29.586c.707-.477 2.594-1.871 4.563-4.395 2.285-2.93 5.16-8.039 5.86-15.734.613-6.758-1.477-12.527-6.391-17.629zM10 26.984a1.43 1.43 0 11.001-2.86 1.43 1.43 0 01-.001 2.86zm0 0"/><path d="M55.031 18.238c-6.191-3.379-9.988-7.406-11.285-11.972A12.247 12.247 0 0143.582.16c-2.977.59-8.285 2.2-11.664 6.465-2.84 3.586-3.813 8.398-2.898 14.313 2.597 2.468 6.347 5.28 11.562 7.597 11.547 5.133 26.715 13.973 25.125 31.434-.926 10.203-5.297 16.375-8.531 19.62 4.152-.526 10.55-2.112 15.469-6.804C77.527 68.133 80 61.371 80 52.695c0-7.847-2.18-14.453-6.66-20.191-3.977-5.09-9.797-9.625-18.309-14.266zm0 0"/></svg>