<svg xmlns="http://www.w3.org/2000/svg" width="80" height="80" fill="#FFFFFF"><path d="M72 10.668H8a8 8 0 00-8 8v42.664a8 8 0 008 8h64a8 8 0 008-8V18.668a8 8 0 00-8-8zm-25.242 31.39a1.72 1.72 0 01-.403.47c-.171.14-.363.253-.57.331a1.835 1.835 0 01-.691.125h-7.078l-.395 3.422a8.846 8.846 0 01-.601 2.328c-.301.703-.711 1.348-1.223 1.914.68-.156 1.351-.27 2.02-.359a14.86 14.86 0 011.995-.137h10.723l-.332 2.485c-.047.32-.152.629-.312.91a3.324 3.324 0 01-.625.828c-.262.254-.567.46-.899.61a2.52 2.52 0 01-1.094.238H27.477l.492-3.723c.937-.191 1.652-.559 2.14-1.094.493-.539.801-1.32.922-2.343l.625-5.07h-3.02l.313-2.427c.031-.187.098-.363.2-.527.105-.176.242-.336.402-.469a2.15 2.15 0 01.57-.336c.219-.093.453-.14.692-.136h1.328l.554-4.567c.16-1.3.543-2.562 1.125-3.734a10.558 10.558 0 012.344-3.106 10.975 10.975 0 013.469-2.12 12.151 12.151 0 014.492-.782c1.074-.02 2.152.121 3.188.414a8.136 8.136 0 012.374 1.125 6.749 6.749 0 011.696 1.75 10.99 10.99 0 011.14 2.227l-2.691 1.593a3.43 3.43 0 01-1.645.372c-.523-.028-.98-.278-1.374-.747-.25-.304-.485-.562-.696-.78-.203-.212-.43-.391-.683-.54a2.63 2.63 0 00-.829-.297 5.263 5.263 0 00-1.105-.093 4.048 4.048 0 00-2.992 1.21c-.809.805-1.301 1.961-1.48 3.465l-.56 4.617h8.778l-.293 2.418a1.521 1.521 0 01-.195.536zm0 0"/></svg>