<svg xmlns="http://www.w3.org/2000/svg" width="80" height="80" fill="#FFFFFF"><path d="M60.61 8.785h-.68v-4.5A4.256 4.256 0 0058.316.934a4.27 4.27 0 00-3.629-.825L16.642 8.84c-.004 0-.004 0-.008.005a3.34 3.34 0 00-2.75 3.285v19.465c0 .648.523 1.172 1.176 1.172a1.17 1.17 0 001.171-1.172V12.129c0-.547.446-.992.993-.992H45.73a1.177 1.177 0 000-2.352H27.375l27.84-6.387a1.924 1.924 0 011.637.372c.464.37.73.921.73 1.515v4.5H50.43a1.177 1.177 0 000 2.352h10.18a3.164 3.164 0 013.16 3.16v48.531A1.17 1.17 0 0064.94 64c.653 0 1.176-.523 1.176-1.172V14.297a5.517 5.517 0 00-5.508-5.512zm0 0M64.941 66.348c-.648 0-1.171.527-1.171 1.175v6.97a3.164 3.164 0 01-3.16 3.16H17.222a.994.994 0 01-.993-.993V36.29a1.174 1.174 0 00-2.347 0v40.37c0 1.84 1.5 3.34 3.34 3.34h43.386a5.516 5.516 0 005.508-5.508v-6.969c0-.648-.523-1.175-1.176-1.175zm0 0"/><path d="M39.953 52.25c8.219 0 14.906-6.688 14.906-14.906 0-8.219-6.687-14.907-14.906-14.907-8.219 0-14.906 6.688-14.906 14.907 0 8.218 6.687 14.906 14.906 14.906zm0-2.352c-1.172 0-2.719-2.441-3.523-6.578h7.05c-.808 4.137-2.355 6.578-3.527 6.578zm3.984-.648c.297-.531.57-1.121.82-1.777.47-1.227.845-2.633 1.11-4.153h5.13a12.646 12.646 0 01-7.06 5.93zm8.575-11.906c0 1.261-.192 2.48-.54 3.629h-5.78a36.587 36.587 0 00.03-6.918h5.848c.285 1.047.442 2.148.442 3.289zm-1.344-5.637h-5.242c-.27-1.652-.664-3.176-1.168-4.492-.25-.656-.524-1.25-.82-1.777a12.611 12.611 0 017.23 6.269zm-11.215-6.922c1.203 0 2.805 2.578 3.59 6.922h-7.18c.79-4.344 2.387-6.922 3.59-6.922zm3.914 9.27c.102 1.027.156 2.125.156 3.289 0 1.293-.07 2.504-.191 3.629h-7.758a34.728 34.728 0 01-.035-6.918zm-7.898-8.617c-.293.527-.57 1.12-.82 1.777-.504 1.316-.895 2.84-1.169 4.492h-5.242a12.611 12.611 0 017.23-6.27zm-8.57 11.906c0-1.14.152-2.242.437-3.29h5.848a36.587 36.587 0 00.031 6.918h-5.781a12.508 12.508 0 01-.536-3.628zm6.64 5.976c.27 1.52.64 2.926 1.11 4.153.25.656.527 1.25.82 1.777a12.638 12.638 0 01-7.055-5.93zm0 0M26.223 59.531h27.554a1.174 1.174 0 100-2.347H26.223a1.174 1.174 0 100 2.348zm0 0M31.426 64a1.174 1.174 0 100 2.348h17.148a1.174 1.174 0 100-2.348zm0 0"/></svg>