<svg xmlns="http://www.w3.org/2000/svg" width="80" height="80" fill="#282D37"><path d="M50.047 24.625l1.094-5.39a1.125 1.125 0 01-.594-.329c-.484.547-1.531 1.469-2.453 1.469h-.11c-.265 0-.547-.11-.703-.266.219-.265.219-.656 0-.875l-.047-.047v.047c0 .11-.047.266-.156.328h-.11c-.109 0-.218-.046-.265-.156-.047-.11-.11-.218-.11-.328v-.219l.22.047h.046c.11 0 .157-.11.22-.218 0-.157-.048-.266-.157-.329l-.219-.047c0-.046.047-.156.11-.265.109-.156.218-.328.437-.328h.047c.11 0 .219.047.266.156.046.11.109.219.109.375 0 .047 0 .11-.047.156 0 .047.047.047.11.047.109 0 .218-.047.328-.11a.907.907 0 00.328-.437c0-.047.047-.11.047-.156a1.318 1.318 0 00-.329-1.203.719.719 0 00-.547-.219c-.218 0-.374.11-.546.219-.266.219-.375.547-.547.875v.047c-.047.156-.11.328-.157.484 0 .11-.046.156-.046.266h-.11c0-.11.047-.157.047-.266.047-.156.11-.328.156-.484.157-.375.328-.703.485-1.094.11-.219.218-.484.218-.766 0-.218 0-.484-.109-.703l-.547-1.64s-.765 1.03-.922 1.25c-.109.156-.218.375-.218.593-.047.266 0 .547.047.813.046.437.156.812.218 1.25v.812h-.11v-.859c-.046-.375-.108-.766-.327-1.031a1.04 1.04 0 00-.485-.485c-.109-.046-.218-.046-.328-.046-.11 0-.156 0-.265.046-.328.11-.594.485-.594.985v.156c0 .219.11.438.219.547.109.156.328.265.437.265h.047v-.156c0-.11.047-.218.156-.328.047-.047.11-.047.157-.047.046 0 .109 0 .156.047.218.11.328.328.375.547.047.11.047.219.047.266l-.22-.047h-.046c-.11 0-.156.11-.219.218 0 .157.047.266.157.329l.218.047c0 .046-.047.109-.047.218a.988.988 0 01-.156.266c-.047.047-.11.047-.156.047-.11 0-.156-.047-.219-.11-.11-.109-.11-.218-.047-.375v-.047h-.062c-.266.11-.375.438-.157.813-.218.047-.437.047-.656.047h-.375c-1.36-.156-2.187-1.422-2.453-2.125-.047.047-.156.047-.219.047h-.218a.953.953 0 01-.438-.11c-.266.657-1.031 1.97-2.453 2.125h-.375c-.266 0-.484-.047-.656-.047.218-.375.11-.703-.157-.812h-.046v.047c0 .11 0 .265-.047.375-.047.047-.157.11-.219.11-.047 0-.11 0-.156-.048a.988.988 0 01-.157-.265c-.046-.11-.046-.157-.046-.219l.156-.047c.11-.047.219-.156.156-.328 0-.11-.11-.219-.219-.219h-.047l-.218.047c0-.047 0-.156.047-.265.047-.22.156-.438.375-.547.047 0 .109-.047.109-.047.047 0 .11 0 .156.047.11.047.157.156.157.328v.156c.109 0 .374-.219.437-.266a13.2 13.2 0 00.219-.547v-.156c0-.437-.219-.875-.594-.984-.11-.047-.156-.047-.266-.047-.109 0-.218 0-.328.047-.218.11-.328.265-.484.484a4.385 4.385 0 00-.328 1.032v.046c0 .157-.047.375-.047.547v.266h-.11c0-.11 0-.156-.046-.266v-.547c.047-.437.156-.812.218-1.25.047-.265.047-.546.047-.812-.047-.219-.11-.438-.218-.594-.157-.265-.922-1.25-.922-1.25s-.485 1.313-.547 1.64c-.047.22-.11.485-.11.704.047.265.11.484.22.765.155.329.374.704.483 1.094.047.157.11.328.157.485 0 .109.047.156.047.265h-.11c0-.047-.047-.156-.047-.265-.047-.157-.109-.328-.156-.485v-.047c-.156-.328-.266-.656-.547-.875a.719.719 0 00-.547-.218c-.218 0-.375.109-.547.218a1.348 1.348 0 00-.328 1.203c0 .047.047.11.047.157.047.156.219.328.328.437.11.047.22.11.328.11.047 0 .11 0 .11-.047s-.047-.11-.047-.157c0-.156 0-.265.11-.375.046-.109.156-.156.265-.156h.047c.219 0 .375.157.437.328.047.11.11.22.11.266l-.219.047c-.11.047-.219.156-.156.328 0 .11.11.219.218.219h.047l.22-.047v.219c0 .109-.048.265-.11.328-.047.11-.157.156-.266.156h-.11c-.109-.047-.109-.156-.156-.328v-.047c-.046 0-.046 0-.046.047-.22.219-.22.594 0 .875-.22.11-.438.219-.703.219h-.11c-.875 0-1.969-.922-2.453-1.47-.156.157-.375.329-.594.329L30 24.515c3.219-1.25 6.547-1.906 10.031-1.906 3.485.11 6.86.766 10.016 2.016"/><path d="M40.031 23.438c-3.437 0-6.703.656-9.86 1.906-.046 0-.108.047-.155.047s-.11.047-.157.047a1.089 1.089 0 00-.437 1.359c.156.437.594.656.984.656.157 0 .266 0 .438-.047a24.199 24.199 0 019.203-1.797c3.219 0 6.328.594 9.203 1.797.11.047.266.047.438.047.437 0 .812-.265 1.03-.656.22-.485 0-1.094-.437-1.36-.047-.046-.11-.046-.156-.046-.047 0-.11-.047-.156-.047-3.188-1.313-6.516-1.907-9.938-1.907"/><path d="M40.031 26.969c12.64 0 22.938 10.25 22.938 22.937 0 12.64-10.25 22.938-22.938 22.938-12.64 0-22.937-10.25-22.937-22.938 0-1.687.156-3.375.547-4.953 0-.047.047-.11.047-.156v-.047c0-.047.046-.156.046-.219 2.407-10.093 11.5-17.562 22.297-17.562m-21.75 13.797c-1.25 2.89-1.86 6-1.86 9.203 0 3.156.595 6.265 1.86 9.203a23.612 23.612 0 005.063 7.516 23.276 23.276 0 007.515 5.062c2.891 1.25 6 1.86 9.203 1.86 3.22 0 6.266-.594 9.204-1.86a23.612 23.612 0 007.515-5.063 23.276 23.276 0 005.063-7.515c1.25-2.89 1.86-6 1.86-9.203 0-3.157-.595-6.266-1.86-9.203a23.612 23.612 0 00-5.063-7.516 23.11 23.11 0 00-7.515-5.063c-2.891-1.25-6-1.859-9.203-1.859-3.22 0-6.329.594-9.266 1.86a23.612 23.612 0 00-7.516 5.062c-2.11 2.172-3.86 4.672-5 7.516M38.875 77.172c0 1.531 1.203 2.828 1.203 2.828s1.203-1.25 1.203-2.828c0-1.531-1.203-2.828-1.203-2.828s-1.203 1.234-1.203 2.828M36.094 74.656c-1.36.766-1.907 2.39-1.907 2.39s1.688.438 3.047-.327c1.36-.766 1.907-2.39 1.907-2.39s-1.672-.438-3.047.327M35.61 73.953s-1.579-.656-3.047-.11c-1.47.548-2.235 2.079-2.235 2.079s1.578.656 3.047.11c1.422-.548 2.234-2.079 2.234-2.079M32.172 73.031s-1.469-.875-3-.547c-1.531.329-2.5 1.75-2.5 1.75s1.469.875 3 .547c1.469-.344 2.5-1.75 2.5-1.75M28.906 71.656s-1.312-1.094-2.89-.984c-1.532.11-2.72 1.36-2.72 1.36s1.313 1.093 2.892.984c1.515-.094 2.718-1.36 2.718-1.36M23.14 68.39c-1.53-.109-2.89.922-2.89.922s1.14 1.25 2.719 1.422c1.531.11 2.89-.921 2.89-.921s-1.14-1.25-2.718-1.422"/><path d="M23.14 67.516s-.984-1.422-2.453-1.797c-1.53-.328-3 .484-3 .484s.985 1.422 2.454 1.797c1.468.39 3-.484 3-.484M20.734 64.906s-.765-1.531-2.187-2.125c-1.422-.547-3.047.047-3.047.047s.766 1.531 2.188 2.125c1.468.61 3.046-.047 3.046-.047M18.781 61.969s-.484-1.64-1.86-2.39c-1.358-.767-3-.376-3-.376s.485 1.64 1.86 2.39c1.297.75 3 .376 3 .376M14.297 57.938c1.203.984 2.937.812 2.937.812s-.265-1.688-1.468-2.672c-1.204-.984-2.938-.812-2.938-.812s.281 1.734 1.469 2.672M16.219 55.375s0-1.75-1.094-2.828c-1.094-1.14-2.781-1.25-2.781-1.25s0 1.75 1.094 2.828c1.093 1.14 2.78 1.25 2.78 1.25M15.672 51.828s.219-1.687-.656-3c-.875-1.25-2.563-1.64-2.563-1.64s-.219 1.687.656 3c.875 1.312 2.563 1.64 2.563 1.64M15.672 48.281s.484-1.64-.219-3.047c-.703-1.359-2.344-1.968-2.344-1.968s-.484 1.64.22 3.047c.702 1.374 2.343 1.968 2.343 1.968M16.156 44.797s.703-1.578.219-3.047-2.016-2.281-2.016-2.281-.703 1.578-.218 3.047c.484 1.468 2.015 2.28 2.015 2.28M17.14 41.36s.922-1.47.657-3c-.266-1.532-1.64-2.563-1.64-2.563s-.923 1.422-.657 3c.281 1.531 1.64 2.562 1.64 2.562M18.656 38.14s1.14-1.312 1.094-2.828c-.047-1.53-1.25-2.78-1.25-2.78s-1.14 1.312-1.094 2.827c0 1.594 1.25 2.782 1.25 2.782M22.047 32.531c.156-1.531-.875-2.937-.875-2.937s-1.313 1.14-1.469 2.672c-.156 1.53.813 2.937.813 2.937s1.359-1.14 1.53-2.672M24.766 30.078c.375-1.531-.438-3-.438-3s-1.469.922-1.86 2.39c-.374 1.532.438 3 .438 3s1.485-.859 1.86-2.39M27.813 28.125c.593-1.422 0-3.047 0-3.047s-1.579.703-2.188 2.125c-.594 1.422-.047 3.047-.047 3.047s1.64-.719 2.235-2.125M43.953 74.656c-1.36-.765-3.047-.328-3.047-.328s.547 1.64 1.907 2.39c1.359.766 3.046.329 3.046.329s-.547-1.688-1.906-2.39M47.5 73.781c-1.469-.547-3.047.11-3.047.11s.766 1.53 2.234 2.078c1.47.547 3.047-.11 3.047-.11s-.828-1.53-2.234-2.078M50.875 72.484c-1.531-.328-3 .547-3 .547s.984 1.422 2.5 1.75c1.516.328 3-.547 3-.547s-.984-1.421-2.5-1.75M54.031 70.688c-1.531-.11-2.89.984-2.89.984s1.203 1.25 2.718 1.36c1.532.109 2.891-.985 2.891-.985s-1.188-1.313-2.719-1.36M56.86 68.39c-1.532.11-2.72 1.422-2.72 1.422s1.36 1.032 2.891.922c1.532-.109 2.719-1.421 2.719-1.421s-1.313-1.032-2.89-.922M59.375 65.781c-1.531.328-2.453 1.797-2.453 1.797s1.469.875 3 .484c1.531-.328 2.453-1.796 2.453-1.796s-1.484-.875-3-.485M61.438 62.781c-1.47.547-2.188 2.125-2.188 2.125s1.578.656 3.047.047c1.469-.547 2.187-2.125 2.187-2.125s-1.562-.594-3.046-.047M63.125 59.563c-1.36.765-1.86 2.39-1.86 2.39s1.688.375 3-.375c1.36-.766 1.86-2.39 1.86-2.39s-1.688-.438-3 .374M64.281 56.078c-1.203.984-1.469 2.672-1.469 2.672s1.688.156 2.938-.813c1.203-.984 1.469-2.671 1.469-2.671s-1.75-.11-2.938.812M64.875 52.531c-1.094 1.14-1.094 2.828-1.094 2.828s1.688-.109 2.782-1.25c1.093-1.14 1.093-2.828 1.093-2.828s-1.687.11-2.781 1.25M64.984 48.89c-.875 1.25-.656 3-.656 3s1.688-.328 2.563-1.64c.875-1.25.656-3 .656-3s-1.64.375-2.563 1.64M64.61 45.234c-.704 1.36-.22 3.047-.22 3.047s1.641-.593 2.344-1.968c.704-1.376.22-3.047.22-3.047s-1.641.609-2.345 1.968M63.844 44.797s1.531-.813 2.015-2.281c.485-1.47-.218-3.047-.218-3.047s-1.532.812-2.016 2.281.219 3.047.219 3.047M62.86 41.36s1.359-1.032 1.64-2.563c.266-1.531-.656-3-.656-3s-1.36 1.031-1.64 2.562c-.267 1.594.655 3 .655 3M61.39 38.14s1.204-1.203 1.25-2.78c.047-1.532-1.093-2.829-1.093-2.829s-1.203 1.203-1.25 2.782c-.047 1.53 1.094 2.828 1.094 2.828M59.422 35.156s1.031-1.36.812-2.937c-.156-1.532-1.468-2.672-1.468-2.672s-1.032 1.36-.875 2.937c.234 1.578 1.53 2.672 1.53 2.672M57.078 32.531s.813-1.531.438-3c-.375-1.531-1.86-2.39-1.86-2.39s-.812 1.53-.437 3c.453 1.468 1.86 2.39 1.86 2.39M52.188 25.063s-.594 1.64.046 3.046c.594 1.422 2.188 2.125 2.188 2.125s.594-1.64-.047-3.047c-.61-1.468-2.188-2.125-2.188-2.125M49.188 61.86s.046 0 0 0m-.11-.063c.047 0 .047 0 0 0h.047-.047m-1.25-.375c.047 0 .047 0 0 0m-17.016.437c.063 0 .063 0 0 0 .063 0 0 0 0 0m19.891-3.812c-.266-.703-.547-1.422-.547-1.422s-1.093.703-1.64 1.031c-.547.328-1.422.875-2.078 1.64-.657.767-1.141 1.907-1.141 1.907h.547c.328 0 .765 0 1.312.11h.047c.047 0 .156.046.219.046h.094s-.157 1.797-1.75 3.485c-.328.375-1.032.922-1.47 1.203-.265.219-.546.328-.874.484h-.328c-1.25 0-2.282-.922-2.282-2.078v-7.625c-.328 0-.656.047-.984.047-.328 0-.656 0-.984-.047v7.625c0 1.14-1.032 2.078-2.282 2.078h-.328c-.265-.156-.593-.265-.875-.484a8.434 8.434 0 01-1.14-.922l-.328-.328c-1.532-1.75-1.75-3.484-1.75-3.484h.093c.047 0 .157-.047.22-.047h.046c.547-.11.984-.11 1.313-.11h.546s-.484-1.14-1.14-1.906c-.657-.766-1.532-1.313-2.078-1.64-.547-.329-1.641-1.032-1.641-1.032s-.266.703-.547 1.422c-.265.703-.703 1.36-.875 2.672a7.037 7.037 0 00.11 2.344s.703-.485 1.796-.985c0 0 .047 0 .047-.047 0 0 .047 0 .047-.047h.235c.046.266.546 2.891 1.796 4.407l.047.047c.11.109.219.265.375.375.438.375 1.14.984 2.016 1.578.984.703 2.187 1.422 3.047 2.078 1.25.922 1.906 1.64 1.906 1.64s.656-.703 1.906-1.64c.875-.656 2.078-1.422 3.11-2.078.875-.594 1.578-1.203 2.015-1.578.047-.047.11-.11.157-.11l.265-.265c.047-.047.047-.11.11-.157.109-.109.156-.265.265-.437.047-.11.11-.156.156-.266a5.03 5.03 0 00.438-.922v-.078c.156-.375.266-.765.375-1.094.11-.328.156-.593.219-.874.047-.329.109-.547.109-.594h.188s.046 0 .046.047h.047C50 62.5 50.703 63 50.703 63s.328-1.031.11-2.344c.609-1.25.171-1.906-.11-2.61M38.563 32.922a1.997 1.997 0 01-.594-1.422c0-.547.218-1.031.593-1.422a1.997 1.997 0 011.422-.594c.547 0 1.032.22 1.422.594.375.375.594.875.594 1.422 0 .547-.219 1.031-.594 1.422-.11.11-.265.266-.437.328a.98.98 0 00-.985-.984.98.98 0 00-.984.984v.047c-.11-.11-.281-.219-.438-.375m.485 5.11v4.312c.328.156.656.328.984.484.328-.156.657-.328.985-.484V38.03h2.718l7.25-1.14v-1.688h-9.968v-.547a3.358 3.358 0 002.343-3.218c0-1.86-1.53-3.329-3.328-3.329a3.301 3.301 0 00-3.328 3.328c0 1.532.984 2.782 2.344 3.22v.546h-9.969v1.688l7.25 1.14zm0 0M40.797 43.219c.047.047.156.047.219.11.812.437 1.64.812 2.39 1.25.657-.329 1.422-.704 2.282-.985 3.656-2.016 6.546-3.594 6.75-3.703a15.798 15.798 0 002.343-1.578c.328-.266.703-.657 1.032-.985.328-.328.593-.656.593-.656l.375-.438-.547.047s-.437.047-.875.11c-.437.047-1.03.218-1.359.328-.766.265-1.906.703-2.61 1.093-.328.157-5.015 2.563-10.359 5.282-.078.062-.187.125-.234.125M29.344 55.64c.156 0 .375-.046.547-.109.265-.156.437-.375.547-.656.109-.281.046-.594-.047-.875-.22-.375-.547-.594-.985-.594-.11 0-.218 0-.265.047l-.22-.437-.046-.11c.594-.328 2.344-1.312 4.578-2.5-.766-.11-1.469-.218-2.187-.484a8.45 8.45 0 01-1.86-.813l-1.797.922c-.109.047-.156.11-.218.11l-.266-.485c.156-.11.266-.328.328-.484.11-.266.047-.594-.11-.875-.218-.375-.593-.594-.984-.594a1.79 1.79 0 00-.547.11 1.253 1.253 0 00-.546.656c-.11.265-.047.593.047.875l.875 1.578h-.11a.682.682 0 00-.328.11c-.11.046-.156.109-.266.218 0 0-.047.047-.047.11h-.125c-.109 0-.218.046-.265.109-.11.047-.156.11-.266.218 0 .047-.047.047-.047.11h-.109a.682.682 0 00-.328.11c-.11.046-.156.109-.266.218 0 .047-.047.047-.047.11h-.109c-.11 0-.219.046-.266.109-.109.047-.218.11-.265.218l-.047.047h-.156c-.11 0-.22.047-.266.11-.11.047-.156.11-.266.218 0 .047-.047.047-.047.047h-.156c-.11 0-.218.047-.265.11-.11.047-.157.11-.266.218 0 .047-.047.047-.047.047h-.156c-.11 0-.219.047-.266.11-.11.047-.156.11-.265.218l-.047.047h-.157c-.109.047-.218.047-.265.11-.047.062-.156.11-.219.156h-.156c-.375 0-.766.219-1.031.484-.266.266-.375.657-.375 1.094.047.813.703 1.422 1.468 1.422h.11c.484 0 .922-.266 1.203-.703.11-.047.156-.11.219-.219h.156c.047 0 .156-.047.219-.047.062 0 .109-.047.156-.047.11-.047.156-.109.219-.218h.156c.047 0 .156-.047.219-.047.062 0 .109-.047.156-.11.11-.047.156-.109.219-.218h.156c.047 0 .156-.047.219-.047.062 0 .109-.047.156-.11.11-.047.156-.109.219-.218h.156c.047 0 .156-.047.219-.047.062 0 .109-.047.156-.047.11-.047.156-.11.219-.219h.156c.047 0 .156-.047.219-.047.062 0 .109-.047.156-.11.11-.046.156-.108.219-.218h.156c.047 0 .156-.047.219-.047.062 0 .109-.047.156-.047.11-.047.156-.156.219-.218h.156c.047 0 .156-.047.219-.047.047 0 .109-.047.156-.047.11-.047.156-.11.219-.219h.156c.047 0 .156-.047.219-.047.047 0 .047 0 .047-.047l.375.703.437.813c.156.297.531.516.969.516M24.172 37.328c.328.328.765.703 1.031.984.656.485 1.64 1.204 2.344 1.579.219.109 2.562 1.422 5.719 3.156 1.53.266 2.89.703 3.984 1.25.11.047.266.11.375.219.11.047.219.109.375.218.375.22.703.438.984.657.266.218.485.437.657.656.156-.047.375-.047.547-.047.265 0 .546.047.703.11.328-.22.922-.594 1.687-.985-.547-.266-1.094-.594-1.687-.875-.328-.156-.657-.328-.985-.484-.11-.047-.265-.11-.375-.22-.11-.046-.265-.108-.375-.218-.047-.047-.156-.11-.218-.11-5.282-2.718-10.032-5.124-10.36-5.343-.703-.375-1.797-.813-2.61-1.094-.374-.11-.921-.265-1.359-.328-.484-.047-.875-.11-.875-.11l-.547-.046.329.437c.109-.062.328.266.656.594M59.922 54.281h-.156c-.047-.047-.157-.11-.22-.156a.418.418 0 00-.265-.11h-.156c0-.046-.047-.046-.047-.046-.047-.11-.156-.157-.266-.219-.109-.047-.218-.11-.265-.11h-.156l-.047-.046c-.047-.11-.157-.157-.266-.219-.11-.047-.219-.11-.266-.11h-.156c0-.046-.047-.046-.047-.046-.047-.11-.156-.157-.265-.219-.11-.047-.219-.11-.328-.11h-.11c0-.046-.047-.046-.047-.046-.047-.11-.156-.157-.265-.219-.11-.047-.219-.11-.328-.11h-.11l-.047-.046c-.047-.11-.156-.157-.265-.219-.11-.047-.219-.11-.328-.11h-.11c0-.046-.047-.046-.047-.109-.047-.11-.156-.156-.265-.218-.11-.047-.219-.11-.266-.11h-.11c0-.047-.046-.047-.046-.11-.047-.109-.156-.156-.266-.218-.11-.047-.218-.11-.328-.11h-.11l.876-1.578c.156-.265.156-.546.047-.874a1.301 1.301 0 00-.547-.657c-.157-.11-.328-.11-.547-.11-.438 0-.813.22-.984.595-.157.265-.157.547-.047.875a.723.723 0 00.328.484l-.266.484c-.047-.047-.156-.047-.219-.109l-2.39-1.25c-.547.375-1.14.703-2.125.984 0 .047.047.157.047.22 0 .265-.047.593-.328.921 1.75.984 3.109 1.688 3.593 1.969l-.11.156-.218.328c-.11 0-.156-.047-.266-.047-.437 0-.812.219-.984.594-.156.266-.156.547-.11.875.11.266.266.484.548.656.156.11.328.11.547.11.437 0 .812-.22.984-.594l.375-.766.375-.703.047.047c.11.047.156.047.218.047h.157c.047.11.156.156.218.219.047.047.11.047.157.047.11.046.156.046.218.046h.157c.047.11.156.157.218.22.047 0 .11.046.157.046.047.047.156.047.218.047h.157c.047.11.156.156.218.219.047.047.11.047.157.047.047.046.156.046.218.046h.157c.047.11.156.157.218.22.047.046.11.046.157.046.047.047.156.047.218.047h.157c.047.11.11.156.218.219.047.047.11.047.157.109.047.063.156.047.218.047h.157c.047.11.11.156.218.219.047.047.11.047.157.109.047.063.156.047.218.047h.157c.047.11.11.156.218.219.047.047.11.047.157.047.047.046.156.046.218.046h.157c.047.11.156.157.218.22.266.374.704.655 1.204.702h.047c.765 0 1.421-.593 1.468-1.422 0-.375-.11-.765-.375-1.093-.093-.203-.484-.36-.86-.36"/><path d="M29.344 48.344c.11.047.218.11.375.218.11.047.265.11.375.22.375.218.812.374 1.312.546 1.094.375 2.188.484 3.047.484h.703c.328 0 .594-.046.813-.046.265-.047.437-.047.437-.047l.328 1.531-2.28 3.11s.921 1.64 4.577 1.906c.328 0 .657.047.985.047.328 0 .703 0 .984-.047 3.656-.266 4.406-1.907 4.406-1.907l-2.89-2.562.547-1.36c-.11 0-.22-.046-.329-.046-.328 0-.593.047-.765.109h-.25l-.219-.047c.047 0 .11-.047.219-.11.11-.046.218-.109.375-.218.328-.156.765-.328 1.031-.266.047 0 .11.047.219.047.156.047.328.11.484.157.219.046.375.156.703.218h.11a2 2 0 00.437.047c.156 0 .219-.047.656-.047h.22c.921.047.874.485.874.485.047-.047.156-.11.219-.157.266-.265.328-.484.266-.703a1.002 1.002 0 00-.22-.328c-.109-.11-.218-.219-.327-.266-.11-.109-.22-.109-.22-.109.22-.594-1.577-.875-2.343-1.094-.484-.109-1.578-.593-2.39-.984a4.257 4.257 0 01-.657-.328h-.047c-.109-.047-.156-.047-.156-.11-.047 0-.11-.046-.156-.046-.156-.047-.328-.11-.547-.11-.156 0-.266 0-.438.047-.218.047-.437.11-.437.11s-.11-.22-.375-.485l-.156-.156c-.328-.328-.813-.656-1.578-1.031-.11-.047-.266-.11-.375-.157-.11-.047-.266-.109-.375-.156a2.764 2.764 0 00-.766-.266A11.247 11.247 0 0034.219 44c-.375-.11-.766-.156-1.203-.266-.875-.156-1.907-.328-3.047-.375-1.032-.047-2.016-.109-2.938-.109-6 0-8.984 1.531-8.984 1.531s2.937.438 6.11 1.25c2.515.516 3.765 1.485 5.187 2.313M50.594 43.156c-1.64.11-3.219.547-4.625 1.094-.657.219-1.25.484-1.797.766-.11.047-.266.109-.375.156-.11.047-.266.11-.375.219-.984.547-1.75.984-2.078 1.203l.156.047h.047c.266.109 2.187.703 2.89.875.11 0 .22.047.329.047 1.14.218 2.078.484 2.39 1.03.047.048.047.11.047.22.11.109.266.218.375.328a5.587 5.587 0 001.797-.703c.11-.047.219-.157.328-.22.11-.046.219-.156.328-.218.657-.484 1.25-1.094 2.453-1.531 3.547-1.422 9.422-2.125 9.422-2.125s-5.281-1.203-9.922-1.203a8.318 8.318 0 00-1.39.015M41.172 2.188a.935.935 0 01-.156.546c.437.22.875.485 1.203.766V.812c-.328.266-.766.594-1.203.766.093.219.156.39.156.61M40.031 1.094c.219 0 .375.047.547.156.219-.484.547-.922.813-1.25h-2.672c.265.328.593.766.765 1.203.157-.062.375-.11.547-.11M38.938 2.188c0-.22.046-.376.156-.547-.438-.157-.875-.485-1.203-.766v2.672c.328-.328.765-.594 1.203-.813a1.11 1.11 0 01-.157-.546M41.39 4.36c-.265-.329-.593-.766-.765-1.204-.156.11-.375.156-.547.156a.935.935 0 01-.547-.156c-.218.438-.484.875-.765 1.203zm0 0M39.594 2.89c.11.11.265.157.484.157a.847.847 0 00.484-.156c.11-.047.157-.157.22-.22.046-.155.109-.327.109-.483a.847.847 0 00-.157-.485c-.047-.11-.156-.156-.218-.219-.11-.109-.266-.156-.485-.156a.847.847 0 00-.484.156c-.11.047-.156.157-.219.22-.047.155-.11.327-.11.484 0 .156.048.328.157.484.047.047.11.156.219.219M39.594 9.594c.11.11.265.156.484.156a.847.847 0 00.484-.156c.11-.047.157-.156.22-.219.109-.11.156-.266.156-.484a.847.847 0 00-.157-.485c-.047-.11-.156-.156-.218-.219-.11-.109-.266-.156-.485-.156a.847.847 0 00-.484.156c-.11.047-.157.157-.219.22a.903.903 0 00-.156.546c0 .156.047.328.156.485.047.046.11.093.219.156M39.594 11.39c.11.11.265.157.484.157a.847.847 0 00.484-.156c.11-.047.157-.157.22-.22.109-.108.156-.265.156-.483a.847.847 0 00-.157-.485c-.047-.11-.156-.156-.218-.219-.11-.109-.266-.156-.485-.156a.847.847 0 00-.484.156c-.11.047-.157.157-.219.22a.847.847 0 00-.156.483c0 .157.047.329.156.485.047.047.11.156.219.219M39.594 13.14c.11.11.265.157.484.157a.847.847 0 00.484-.156c.11-.047.157-.11.22-.22.109-.108.156-.265.156-.483 0-.157-.047-.329-.157-.438-.047-.11-.156-.156-.218-.219-.11-.11-.266-.156-.485-.156a.847.847 0 00-.484.156c-.11.047-.157.11-.219.219a.603.603 0 00-.156.438c0 .156.047.328.156.484.047.11.11.156.219.219M28.25 18.75c.11.11.266.156.484.156a.847.847 0 00.485-.156c.11-.047.156-.156.218-.219.11-.11.157-.265.157-.484a.847.847 0 00-.157-.485c-.046-.109-.156-.156-.218-.218-.11-.11-.266-.157-.485-.157a.847.847 0 00-.484.157c-.11.047-.156.156-.219.218-.11.11-.156.266-.156.485 0 .156.047.328.156.484.063.11.11.157.219.219M39.594 16.844c.11.11.265.156.484.156a.847.847 0 00.484-.156c.11-.047.157-.157.22-.219.109-.11.156-.266.156-.484a.847.847 0 00-.157-.485c-.047-.11-.156-.156-.218-.219a.723.723 0 00-.485-.156.847.847 0 00-.484.156c-.11.047-.157.157-.219.22a.847.847 0 00-.156.484c0 .156.047.328.156.484l.219.219M40.031 8.016c.985 0 1.797-.813 1.797-1.797 0-.985-.812-1.797-1.797-1.797-.984 0-1.797.812-1.797 1.797 0 .984.813 1.797 1.797 1.797M28.25 14.984c-.438-1.359-2.125-4.468.328-6.64.813-.703 2.016-1.14 3-1.14.703 0 1.688.218 2.61.546 1.64.547 2.671.875 4.578.875V9.5c-2.078 0-3.157-.328-4.844-.922-.766-.265-1.64-.484-2.234-.484-.985 0-1.86.328-2.5.922-1.579 1.359-1.032 3.218-.329 5.062.11.219.157.438.22.656zm0 0M37.297 17.813c.437-.375 1.25-.875 1.75-1.094-.047-.11-.11-.219-.156-.328-.047-.328 0-.594.156-.813-.484-.219-1.313-.765-1.75-1.14zm0 0M42.813 17.813v-3.375c-.438.374-1.25.921-1.75 1.14.046.11.109.219.156.375.047.266 0 .594-.157.813.485.187 1.313.672 1.75 1.047M39.422 15.156c.11-.047.219-.11.375-.156h.219c.218 0 .437.047.593.156.22-.484.703-1.312 1.094-1.75h-3.375c.39.375.938 1.25 1.094 1.75M28.469 16.953h.218c.157 0 .266.047.438.047.156-.594.656-1.75.922-2.281l-2.188.765zm0 0M31.469 19.188l-.703-3.329c-.157.438-.813 1.141-1.25 1.47.109.155.218.327.265.546.047.219.047.438-.047.594.532.062 1.407.437 1.735.718M36.813 6.656c-.11.11-.22.219-.329.375-.047.157-.047.328-.047.485 0 .109.047.218.11.265.11.11.219.219.375.328a1.7 1.7 0 00.484.047c.11 0 .219-.047.328-.11.11-.108.22-.218.328-.374.047-.156.047-.328.047-.484 0-.11-.047-.22-.109-.266-.11-.11-.219-.219-.375-.328-.156-.047-.328-.047-.484-.047-.11 0-.22 0-.328.11M35.172 6.047c-.156.047-.328.11-.438.219-.109.109-.156.265-.218.437v.328c.047.157.109.328.218.438.11.11.266.218.438.218h.328c.156-.046.328-.109.438-.218.109-.11.218-.266.218-.438v-.328c-.047-.156-.11-.328-.218-.437-.11-.11-.266-.22-.438-.22h-.328M33.219 5.344c-.157.047-.266.156-.375.328a.847.847 0 00-.157.484c0 .11 0 .219.047.328.047.157.157.266.328.375.157.11.329.11.485.11.11 0 .219 0 .328-.047.156-.047.266-.156.375-.328.11-.157.156-.328.11-.485 0-.109-.047-.218-.047-.328-.047-.156-.157-.265-.329-.375-.156-.11-.328-.11-.484-.11-.125-.015-.234-.015-.281.048M30.922 5.281c-.11.11-.219.266-.266.438a.852.852 0 000 .484c.047.11.11.219.157.266.109.11.265.218.437.265a.852.852 0 00.484 0A.988.988 0 0032 6.578c.11-.11.219-.219.266-.437a.852.852 0 000-.485.988.988 0 00-.157-.265c-.109-.11-.218-.22-.437-.266a.852.852 0 00-.485 0 .988.988 0 01-.265.156M28.86 5.938c-.11.109-.157.265-.11.484 0 .156.047.328.156.484.047.11.157.157.219.219.11.11.266.11.484.11a.847.847 0 00.485-.157c.11-.047.156-.156.218-.219.11-.109.11-.265.11-.484 0-.156-.047-.328-.156-.438-.047-.109-.157-.156-.22-.218-.108-.11-.265-.157-.483-.157-.157 0-.329.047-.438.157-.11 0-.219.11-.266.218M26.89 7.297c-.046.156 0 .328.047.484.047.157.157.266.329.375.109.047.218.11.328.11.156.046.328 0 .484-.047.156-.047.266-.156.375-.328.047-.11.11-.22.11-.329.046-.156 0-.328-.047-.484-.047-.156-.157-.266-.328-.375-.11-.047-.22-.11-.329-.11-.156-.046-.328 0-.484.048-.156.046-.266.156-.375.328-.047.11-.11.218-.11.328M25.64 9.203c0 .156.11.328.22.438.109.109.265.218.437.218h.328c.156-.046.328-.109.438-.218.109-.11.218-.266.218-.438v-.328c-.047-.156-.11-.328-.218-.438-.11-.109-.266-.218-.438-.218h-.328c-.156 0-.328.11-.438.219-.109.109-.218.265-.218.437v.328M25.203 11.39c.11.11.219.266.375.329.156.047.328.11.485.047.109 0 .218-.047.328-.11.109-.11.265-.219.328-.375.062-.156.11-.328.047-.484a.682.682 0 00-.11-.328c-.11-.156-.218-.266-.375-.328-.156-.047-.328-.11-.484-.047a.682.682 0 00-.328.11c-.157.108-.266.218-.328.374-.047.156-.11.328-.047.485.047.156.047.265.11.328M25.703 13.625c.11.11.266.156.438.156.156 0 .328-.047.484-.11.11-.046.156-.108.219-.218a.603.603 0 00.156-.437c0-.172-.047-.329-.11-.485-.046-.11-.109-.156-.218-.219a.603.603 0 00-.438-.156 1.36 1.36 0 00-.484.11c-.11.046-.156.109-.219.218a.603.603 0 00-.156.438c0 .172.047.328.11.484.046.11.109.156.218.219M26.344 15.531c.11.11.265.156.484.156a.847.847 0 00.485-.156c.109-.047.156-.156.218-.219.11-.109.157-.265.157-.484a.847.847 0 00-.157-.484c-.047-.11-.156-.156-.218-.219-.11-.11-.266-.156-.485-.156a.847.847 0 00-.484.156c-.11.047-.157.156-.219.219-.11.11-.156.265-.156.484 0 .156.047.328.156.485.063.062.11.171.219.218M51.86 18.75c-.11.11-.266.156-.485.156a.847.847 0 01-.484-.156c-.11-.047-.157-.156-.22-.219-.108-.11-.155-.265-.155-.484 0-.156.047-.328.156-.485.047-.109.156-.156.219-.218.109-.11.265-.157.484-.157.156 0 .328.047.484.157.11.047.157.156.22.218.108.11.155.266.155.485a.847.847 0 01-.156.484.587.587 0 01-.219.219M51.797 14.984c.437-1.359 2.125-4.468-.375-6.64-.813-.703-2.016-1.14-3-1.14-.703 0-1.688.218-2.61.546-1.64.547-2.671.875-4.578.875V9.5c2.078 0 3.157-.328 4.844-.922.766-.265 1.688-.484 2.344-.484.766 0 1.797.328 2.453.922 1.578 1.359 1.031 3.218.328 5.062-.11.219-.156.438-.219.656zm0 0M51.64 16.953h-.218c-.156 0-.266.047-.438.047-.156-.594-.656-1.75-.922-2.281l2.188.765zm0 0M48.578 19.188l.703-3.329c.157.438.813 1.141 1.25 1.47-.11.155-.218.327-.265.546-.047.219-.047.438.047.594-.532.062-1.344.437-1.735.718M43.297 6.656c.11.11.219.219.328.375a1.7 1.7 0 01.047.485c0 .109-.047.218-.11.265-.109.11-.218.219-.374.328-.157.047-.329.047-.485.047-.11 0-.219-.047-.266-.11-.109-.108-.218-.218-.328-.374-.047-.156-.047-.328-.047-.484 0-.11.047-.22.11-.266.11-.11.219-.219.375-.328.156-.047.328-.047.484-.047.047 0 .157 0 .266.11M44.875 6.047c.156.047.328.11.438.219.109.109.218.265.218.437v.328c-.047.157-.11.328-.218.438-.11.11-.266.218-.438.218h-.328c-.156-.046-.328-.109-.438-.218-.109-.11-.218-.266-.218-.438v-.328c.047-.156.109-.328.218-.437.11-.11.266-.22.438-.22h.328M46.89 5.344c.157.047.266.156.376.328.109.156.109.328.109.484 0 .11 0 .219-.047.328-.047.157-.156.266-.328.375-.156.11-.328.11-.484.11-.11 0-.22 0-.328-.047-.157-.047-.266-.156-.376-.328-.046-.157-.046-.328-.046-.485 0-.109 0-.218.047-.328.046-.156.156-.265.328-.375.156-.11.328-.11.484-.11a.364.364 0 01.266.048M49.125 5.281c.11.11.219.266.266.438a.852.852 0 010 .484.988.988 0 01-.157.266c-.109.11-.218.218-.437.265a.852.852 0 01-.484 0 .988.988 0 01-.266-.156c-.11-.11-.219-.219-.266-.437a.852.852 0 010-.485.988.988 0 01.157-.265c.109-.11.265-.22.437-.266a.851.851 0 01.484 0c.11.047.22.11.266.156M51.25 5.938c.11.109.11.265.11.484a.847.847 0 01-.157.484c-.047.11-.156.157-.219.219-.109.11-.265.11-.484.11-.156 0-.328-.048-.438-.157-.109-.047-.156-.156-.218-.219-.11-.109-.157-.265-.11-.484 0-.156.047-.328.157-.438.047-.109.156-.156.218-.218.11-.11.266-.157.485-.157.156 0 .328.047.484.157.016 0 .125.11.172.218M53.219 7.297c.047.156 0 .328-.047.484-.047.157-.156.266-.328.375-.11.047-.157.11-.266.11-.156.046-.328 0-.484-.047-.157-.047-.266-.156-.375-.328-.047-.11-.11-.22-.11-.329-.047-.156 0-.328.047-.484.047-.156.157-.266.328-.375.11-.047.22-.11.266-.11.156-.046.328 0 .484.048.157.046.266.156.375.328.047.11.047.218.11.328M54.469 9.203c-.047.156-.11.328-.219.438-.11.109-.266.218-.438.218h-.328c-.156-.046-.328-.109-.437-.218-.11-.11-.219-.266-.219-.438 0-.11-.047-.219 0-.328.047-.156.11-.328.219-.438.11-.109.266-.218.437-.218h.328c.157 0 .329.11.438.219.11.109.219.265.219.437v.328M54.844 11.39c-.11.11-.219.266-.375.329-.157.047-.328.11-.485.047a.682.682 0 01-.328-.11c-.11-.11-.265-.219-.328-.375-.062-.156-.11-.328-.047-.484 0-.11.047-.219.11-.328.109-.156.218-.266.375-.328.156-.047.328-.11.484-.047.11 0 .219.047.328.11.11.108.266.218.328.374.063.156.11.328.047.485 0 .156-.047.265-.11.328M54.406 13.625a.603.603 0 01-.437.156c-.172 0-.328-.047-.485-.11-.109-.046-.156-.108-.218-.218a.603.603 0 01-.157-.437c0-.172.047-.329.11-.485.047-.11.11-.156.218-.219a.603.603 0 01.438-.156c.156 0 .328.047.484.11.11.046.157.109.22.218.108.11.155.266.155.438s-.047.328-.109.484c-.047.11-.11.156-.219.219M53.766 15.531c-.11.11-.266.156-.485.156a.847.847 0 01-.484-.156c-.11-.047-.156-.156-.219-.219-.11-.109-.156-.265-.156-.484 0-.156.047-.328.156-.484.047-.11.156-.156.219-.219.11-.11.266-.156.484-.156.157 0 .328.047.485.156.109.047.156.156.218.219.11.11.157.265.157.484a.847.847 0 01-.157.485l-.218.218"/></svg>