<svg xmlns="http://www.w3.org/2000/svg" width="80" height="80" fill="#FFFFFF"><path d="M75.555 8.89H17.777a4.442 4.442 0 00-4.445 4.442v8.89H4.445A4.443 4.443 0 000 26.669v40a4.442 4.442 0 004.445 4.441h57.778a4.442 4.442 0 004.445-4.441v-8.89h8.887A4.443 4.443 0 0080 53.331v-40a4.442 4.442 0 00-4.445-4.441zM60 64.446H6.668V28.891h6.664v24.441a4.445 4.445 0 004.445 4.445H60zM46.668 48.891c-8.594 0-15.559-6.965-15.559-15.559 0-8.59 6.965-15.555 15.555-15.555 8.594 0 15.559 6.965 15.559 15.555a15.514 15.514 0 01-15.555 15.559zm0 0"/><path d="M50.719 34.57c-.063.106-.14.203-.239.285a1.364 1.364 0 01-.343.2c-.133.05-.274.074-.414.074h-4.254l-.235 2.047c-.058.48-.18.949-.359 1.398-.184.418-.43.805-.734 1.149.402-.09.808-.164 1.21-.22.399-.05.797-.077 1.2-.081h6.43l-.2 1.492c-.027.191-.09.379-.183.547-.102.184-.23.352-.38.496a1.94 1.94 0 01-.538.367 1.608 1.608 0 01-.66.145H39.145l.296-2.239a2.31 2.31 0 001.286-.652c.293-.316.476-.785.55-1.406l.375-3.04h-1.808l.187-1.452a.797.797 0 01.117-.313.985.985 0 01.243-.281c.101-.086.218-.156.34-.203.132-.055.273-.086.417-.082h.793l.336-2.746a6.85 6.85 0 01.684-2.242 6.255 6.255 0 011.406-1.864 6.653 6.653 0 012.078-1.273 7.366 7.366 0 012.696-.469 6.582 6.582 0 011.91.25c.511.148.992.379 1.43.684.398.285.746.64 1.019 1.047.277.417.504.867.68 1.335l-1.614.957a2.016 2.016 0 01-.988.223 1.151 1.151 0 01-.824-.445 6.005 6.005 0 00-.418-.469 1.707 1.707 0 00-.406-.324 1.631 1.631 0 00-.5-.18 3.781 3.781 0 00-.664-.058 2.465 2.465 0 00-1.793.726c-.485.485-.782 1.18-.887 2.082l-.336 2.77h5.266l-.176 1.453a.928.928 0 01-.121.312zm0 0"/></svg>