<svg xmlns="http://www.w3.org/2000/svg" width="80" height="80" fill="#FFFFFF"><path d="M40 59.688a31.998 31.998 0 01-16.406-4.504V80L40 65.234 56.406 80V55.184A31.998 31.998 0 0140 59.688zm0 0M40 14.063c-7.41 0-13.438 6.027-13.438 13.437 0 7.41 6.028 13.438 13.438 13.438 7.41 0 13.438-6.028 13.438-13.438 0-7.41-6.028-13.438-13.438-13.438zm0 0"/><path d="M40 0C24.836 0 12.5 12.336 12.5 27.5S24.836 55 40 55s27.5-12.336 27.5-27.5S55.164 0 40 0zm0 45.625c-9.992 0-18.125-8.129-18.125-18.125S30.008 9.375 40 9.375 58.125 17.504 58.125 27.5 49.992 45.625 40 45.625zm0 0"/></svg>