<svg xmlns="http://www.w3.org/2000/svg" width="80" height="80" fill="#FFFFFF"><path d="M62.813 80H17.187a.47.47 0 01-.468-.469V.47A.47.47 0 0117.187 0h45.626a.47.47 0 01.468.469V79.53a.47.47 0 01-.468.469zM52.71 6.422h-3.234v1.46a4.764 4.764 0 01-4.75 4.755h-9.454a4.766 4.766 0 01-4.75-4.754V6.422H27.29a5.096 5.096 0 00-5.078 5.078v57a5.096 5.096 0 005.078 5.078h25.422a5.096 5.096 0 005.078-5.078v-57a5.096 5.096 0 00-5.078-5.078zm0 0"/><path d="M40 52.684c7.004 0 12.684-5.68 12.684-12.684S47.004 27.316 40 27.316 27.316 32.996 27.316 40a12.667 12.667 0 003.704 8.98A12.667 12.667 0 0040 52.684zm2.934-11.79a.812.812 0 01-.422.348.733.733 0 01-.301.055h-3.074l-.168 1.484a3.938 3.938 0 01-.262 1.012 2.94 2.94 0 01-.531.828c.293-.066.586-.117.879-.156.285-.04.574-.059.867-.059h4.652l-.144 1.078a1.2 1.2 0 01-.133.399 1.53 1.53 0 01-.277.355 1.26 1.26 0 01-.391.266c-.149.07-.313.105-.477.105H34.56l.214-1.617c.356-.054.684-.219.938-.469.238-.293.379-.648.398-1.02l.274-2.202H35.07l.133-1.051a.734.734 0 01.262-.43.88.88 0 01.246-.148c.098-.04.2-.063.3-.059h.575l.246-1.988c.07-.563.234-1.113.488-1.621.25-.508.598-.965 1.016-1.348.441-.398.95-.71 1.504-.922a5.366 5.366 0 011.95-.34c.468-.007.933.055 1.382.18.371.11.719.274 1.035.496.29.203.54.461.738.758.2.3.364.625.492.965l-1.167.691a1.47 1.47 0 01-.715.157.831.831 0 01-.598-.325 4.715 4.715 0 00-.3-.34 1.164 1.164 0 00-.656-.363 2.498 2.498 0 00-.481-.043 1.76 1.76 0 00-1.297.528c-.352.351-.567.851-.645 1.504l-.242 2.003h3.812l-.128 1.051a.647.647 0 01-.086.239zm0 0"/></svg>