<svg xmlns="http://www.w3.org/2000/svg" width="80" height="80" fill="#282D37"><path d="M18.84 35.07l-9.52-9.465a1.519 1.519 0 010-2.05l2.11-2.055a1.27 1.27 0 01.996-.453c.398 0 .781.164 1.054.453l6.387 6.387 13.68-13.684c.273-.289.656-.453 1.055-.453.382-.008.75.16 1 .457l2.109 2.05a1.524 1.524 0 010 2.055L20.89 35.07a1.387 1.387 0 01-2.05 0zm0 0"/><path d="M27.54 46.582a12.778 12.778 0 014.179-2.633c.351-.136.742-.203 1.11-.312H4.515v-38h37.996v11.328a16.634 16.634 0 014.515-1.875V1.12H0v47.031h26.133c.433-.554.902-1.078 1.406-1.57zm0 0"/><path d="M40.563 43.281c3.03 3.032 6.687 4.547 10.976 4.547 4.285.004 7.945-1.512 10.977-4.547 3.03-3.035 4.547-6.691 4.547-10.976 0-4.285-1.516-7.942-4.547-10.977-3.032-3.035-6.692-4.55-10.977-4.55-4.289 0-7.95 1.515-10.977 4.55-3.035 3.031-4.55 6.688-4.55 10.977 0 4.285 1.515 7.945 4.55 10.976zm0 0"/><path d="M26.594 51.484a21.152 21.152 0 00-1.742 3.946 35.202 35.202 0 00-1.07 4.386 40.672 40.672 0 00-.563 4.407 58.407 58.407 0 00-.145 4.183c0 3.235.985 5.785 2.953 7.656 1.97 1.872 4.582 2.81 7.84 2.813h35.336c3.262 0 5.875-.938 7.844-2.813C79.016 74.189 80 71.638 80 68.406c0-1.43-.047-2.824-.14-4.183-.11-1.477-.301-2.95-.567-4.407a33.874 33.874 0 00-1.07-4.386 20.883 20.883 0 00-1.739-3.946 14.317 14.317 0 00-2.507-3.28 10.55 10.55 0 00-3.457-2.161 12.099 12.099 0 00-4.508-.809c-.27 0-.848.29-1.739.868-.89.582-1.875 1.226-2.953 1.941-1.078.715-2.52 1.36-4.324 1.941a17.56 17.56 0 01-10.918 0c-1.805-.578-3.246-1.226-4.324-1.941a277.319 277.319 0 00-2.953-1.934c-.89-.582-1.469-.87-1.739-.867-1.539-.02-3.07.254-4.507.805a10.668 10.668 0 00-3.457 2.164 14.284 14.284 0 00-2.504 3.273zm0 0"/></svg>