<svg xmlns="http://www.w3.org/2000/svg" width="80" height="80" fill="#282D37"><path d="M72 63.82a10.64 10.64 0 00-7.988-9.062L48.75 50.465v-5.922c3.012-2.469 5.633-5.824 6.145-9.543h4.855c2.21 0 4-1.79 4-4v-4.5a3.992 3.992 0 00-2.273-3.59c.093-.758.14-1.523.148-2.285C61.625 12.922 58.812 0 40 0 21.187 0 18.375 12.922 18.375 20.625c.004.762.055 1.527.148 2.285a3.985 3.985 0 00-2.273 3.59V31c0 2.21 1.79 4 4 4h4.86c.511 3.71 3.124 7.059 6.144 9.523v5.942L16.027 54.75A10.67 10.67 0 008 63.82L6.258 78.605A1.253 1.253 0 007.5 80a1.25 1.25 0 001.238-1.105l1.742-14.786a8.168 8.168 0 016.184-6.945l7.672-2.156 7.125 10.687c.195.293.508.489.86.54a.931.931 0 00.179.015c.293 0 .574-.102.8-.29l5.45-4.542v8.555a1.251 1.251 0 002.5 0v-8.555l5.45 4.543c.226.187.507.289.8.289a.931.931 0 00.18-.016c.351-.05.664-.246.86-.539L55.663 55l7.711 2.172a8.155 8.155 0 016.14 6.937l1.739 14.786c.074.632.61 1.105 1.246 1.105.05 0 .098-.004.148-.008a1.25 1.25 0 001.094-1.387zM25.09 22.5h-.422C25 11.434 29.773 6.25 39.637 6.25c9.32 0 14.093 4.633 14.875 14.48a5.945 5.945 0 00-5.817-4.574c-1.73.055-3.43.477-4.98 1.242a9.11 9.11 0 01-3.711.989 9.127 9.127 0 01-3.715-.989 12.115 12.115 0 00-4.98-1.242c-4.278 0-5.856 3.649-6.22 6.344zM61.25 31a1.5 1.5 0 01-1.5 1.5H55V25h4.75a1.5 1.5 0 011.5 1.5zM40 2.5c15.805 0 19.125 9.855 19.125 18.125a17.693 17.693 0 01-.113 1.875h-1.91C56.75 9.898 51.035 3.75 39.637 3.75c-11.399 0-17.114 6.148-17.465 18.75h-1.18a16.72 16.72 0 01-.117-1.875C20.875 12.355 24.195 2.5 40 2.5zM18.75 31v-4.5a1.5 1.5 0 011.5-1.5H25v7.5h-4.75a1.5 1.5 0 01-1.5-1.5zm8.75 2.695V23.75c0-.207.07-5.098 3.809-5.098a9.792 9.792 0 014 1.043 11.369 11.369 0 004.687 1.188 11.384 11.384 0 004.688-1.188 9.76 9.76 0 014-1.043c3.746.004 3.816 4.895 3.816 5.098v9.133l-5.898 2.21A3.728 3.728 0 1047.5 37.5c0-.023-.008-.047-.008-.07l4.711-1.766c-1.59 5.781-9.586 10.586-12.176 10.586-2.89 0-12.527-5.934-12.527-12.555zM45 37.5c0 .691-.559 1.25-1.25 1.25s-1.25-.559-1.25-1.25.559-1.25 1.25-1.25S45 36.809 45 37.5zm-4.973 11.25a13.666 13.666 0 006.223-2.402v4.386L40 56.984l-6.25-6.25v-4.406a13.813 13.813 0 006.277 2.422zM32.77 63.148l-5.907-8.855 5.399-1.516 5.886 5.891zm14.46 0l-5.375-4.48 5.891-5.89 5.395 1.515zm0 0"/><path d="M40 73.75c-.691 0-1.25.559-1.25 1.25v3.75c0 .691.559 1.25 1.25 1.25s1.25-.559 1.25-1.25V75c0-.691-.559-1.25-1.25-1.25zm0 0"/></svg>