<svg xmlns="http://www.w3.org/2000/svg" width="80" height="80" fill="#282D37"><path d="M71.426 41.965h-2.399c-1.59-4.762-4.68-8.961-8.816-12.235a2.342 2.342 0 00-.07-.468c-.86-2.977.203-5.707 1.453-7.657.879-1.355-.254-3.125-1.89-2.925-3.665.445-6.184 1.765-7.923 3.238a7.478 7.478 0 00-2.414 3.887c-2.62 10.625-12.398 18.554-24.09 18.554a25.042 25.042 0 01-15.05-5 23.192 23.192 0 00-1.551 15.485c0 .027.008.054.015.082a23.22 23.22 0 002.043 5.324c1.164 2.48 2.891 5.375 5.22 7.738 3.398 3.426 3.968 7.657 4.054 9.477v.91c.074.918.84 1.621 1.758 1.625h10.78a1.754 1.754 0 001.774-1.734v-2.618a36.9 36.9 0 004.782.313c1.25 0 2.503-.063 3.75-.195v2.476a1.757 1.757 0 001.773 1.738h10.781a1.76 1.76 0 001.774-1.738v-2.61c.015-.859.32-4.312 3.648-7.257.117-.102.234-.2.352-.313.035-.03.07-.05.101-.082 3.703-3.226 6.453-7.261 7.875-11.757h2.25a3.227 3.227 0 003.258-3.192v-7.89c.023-1.735-1.43-3.176-3.238-3.176zm-13.457.562a2.613 2.613 0 01-2.57-2.64 2.615 2.615 0 012.628-2.582 2.612 2.612 0 012.598 2.61 2.645 2.645 0 01-2.656 2.612zm0 0"/><path d="M24 37.336c10.309-.004 18.668-8.36 18.664-18.668C42.664 8.355 34.31 0 23.996 0 13.688 0 5.332 8.36 5.332 18.668A18.608 18.608 0 0024 37.336zm4.316-17.344a1.16 1.16 0 01-.62.524c-.141.05-.294.078-.442.078H22.73l-.253 2.187a5.603 5.603 0 01-.383 1.489c-.192.449-.453.859-.782 1.222.434-.097.864-.172 1.29-.23a9.356 9.356 0 011.277-.086h6.851l-.214 1.586a1.604 1.604 0 01-.196.582 2.157 2.157 0 01-.98.922 1.661 1.661 0 01-.7.156H16l.313-2.383a2.487 2.487 0 001.367-.695c.312-.336.508-.836.586-1.5l.398-3.239h-1.926l.2-1.546a.964.964 0 01.125-.34c.07-.114.156-.211.257-.297.11-.09.235-.164.367-.219.137-.058.29-.086.442-.086h.848l.355-2.922a7.433 7.433 0 01.719-2.386 6.746 6.746 0 011.496-1.98 7.075 7.075 0 012.215-1.36 7.83 7.83 0 012.87-.5 7.012 7.012 0 012.032.265 5.14 5.14 0 011.52.727c.425.3.793.68 1.086 1.117.293.445.539.922.726 1.422l-1.719 1.016c-.324.168-.687.25-1.05.238a1.23 1.23 0 01-.883-.469c-.157-.191-.313-.36-.442-.5a1.932 1.932 0 00-.433-.344 1.637 1.637 0 00-.532-.191 3.9 3.9 0 00-.707-.063 2.602 2.602 0 00-1.91.774c-.515.523-.828 1.262-.937 2.215l-.36 2.949h5.61l-.188 1.547a.913.913 0 01-.129.312zm0 0"/></svg>