<svg xmlns="http://www.w3.org/2000/svg" width="80" height="80" fill="#282D37"><path d="M25.828 26.48l6.242 4.536-2.386 7.34c-.36 1.109.02 2.269.96 2.956a2.643 2.643 0 001.56.516 2.64 2.64 0 001.554-.516L40 36.778l6.242 4.535a2.608 2.608 0 003.113 0 2.611 2.611 0 00.961-2.957l-2.386-7.34 6.242-4.535a2.605 2.605 0 00.96-2.96 2.606 2.606 0 00-2.515-1.829h-7.715l-2.386-7.336A2.604 2.604 0 0040 12.523a2.604 2.604 0 00-2.516 1.832l-2.386 7.336h-7.715a2.614 2.614 0 00-2.52 1.829 2.613 2.613 0 00.965 2.96zm1.266-2.234c.047-.14.14-.21.289-.21h8.566c.508 0 .957-.325 1.117-.81l2.645-8.148c.047-.14.144-.21.289-.21s.242.07.29.21l2.644 8.149c.16.484.609.808 1.117.808h8.566c.149 0 .242.07.29.211.042.137.007.25-.11.336l-6.934 5.04a1.17 1.17 0 00-.425 1.308l2.648 8.148c.047.14.008.254-.11.34a.277.277 0 01-.355 0l-6.934-5.04a1.165 1.165 0 00-.687-.222c-.242 0-.484.074-.688.223l-6.933 5.039a.277.277 0 01-.356 0c-.117-.086-.156-.2-.109-.34l2.648-8.148a1.172 1.172 0 00-.425-1.309l-6.934-5.039c-.117-.086-.152-.2-.11-.336zm0 0"/><path d="M70.89 32.91l-5.921-5.922V2.426A2.425 2.425 0 0062.547 0H17.453a2.425 2.425 0 00-2.422 2.426v24.562L9.11 32.91c-.218.219-.34.516-.34.828v42.586A3.68 3.68 0 0012.446 80h55.11a3.68 3.68 0 003.675-3.676V33.738c0-.312-.12-.61-.34-.828zM68.888 76L49.172 56.281l19.715-19.715zm-1.657 1.656H12.77l23.628-23.633a5.097 5.097 0 017.2 0zM17.453 2.344h45.094a.08.08 0 01.078.082v30.058a1.173 1.173 0 002.344 0v-2.18l3.433 3.434-20.886 20.887-2.258-2.258c-2.899-2.898-7.617-2.898-10.516 0L11.113 76V36.566l16.895 16.895a1.169 1.169 0 001.656 0c.457-.457.457-1.2 0-1.656l-12.289-12.29V2.426a.08.08 0 01.078-.081zm-2.422 27.96v6.868l-3.433-3.434zm0 0"/></svg>