<svg xmlns="http://www.w3.org/2000/svg" width="80" height="80" fill="#FFFFFF"><path d="M19.629 75.383h6.933c4.02 0 4.028-6.266 0-6.266H19.63c-4.024 0-4.027 6.266 0 6.266zm0-3.922h6.933c1.02 0 1.02 1.578 0 1.578H19.63c-1.02 0-1.02-1.578 0-1.578zm0 0M28.234 40.281l-7.636 7.633-2.641-2.644c-1.074-1.07-2.73.585-1.66 1.656l3.473 3.472c.554.461 1.105.461 1.66 0l8.46-8.46c1.07-1.07-.585-2.731-1.656-1.657zm0 0"/><path d="M79.129 51.844a12.216 12.216 0 01-1.047-2.887 59.576 59.576 0 00-5.16-13.766l-3.817-7.277c-2.156-4.121-8.527-3.437-9.73 1.082-2.852-1.023-6.074.66-6.855 3.594-2.356-.852-5.083.148-6.333 2.316V4.578A4.585 4.585 0 0041.61 0h-27.3c-1.516 0-1.516 2.344 0 2.344h27.3a2.239 2.239 0 012.235 2.234v3.426h-41.5V4.578a2.239 2.239 0 012.234-2.234h3.168c1.516 0 1.516-2.344 0-2.344H4.578A4.585 4.585 0 000 4.578v70.844A4.585 4.585 0 004.578 80H41.61a4.585 4.585 0 004.578-4.578V60.965l4.188 2.07a5.292 5.292 0 012.395 2.399c1.863 3.78 6.628 5.347 10.375 3.386l6.98-3.656c1.344-.703.258-2.781-1.086-2.078l-6.98 3.66c-2.594 1.36-5.891.281-7.184-2.348a7.66 7.66 0 00-3.46-3.464l-17.77-8.79c-3.34-1.62-.926-6.859 2.464-5.277l6.453 3.399c.997.523 2.106-.586 1.583-1.582L32.937 27.289c-1.84-3.46 3.09-6.656 4.97-3.066l7.921 15.125 2.07 3.949c.684 1.305 2.778.25 2.075-1.09l-2.012-3.844c-.816-2.718 2.539-4.91 4.7-3.015l2.241 4.277c.684 1.305 2.778.254 2.078-1.086l-2.28-4.352c-.216-2.5 2.847-4.109 4.784-2.46l2.254 4.308c.684 1.305 2.778.25 2.078-1.086l-2.257-4.308C61.25 27.57 65.57 26.21 67.03 29l3.813 7.281A57.056 57.056 0 0175.8 49.504a13.979 13.979 0 001.254 3.426 5.287 5.287 0 01-2.227 7.125c-1.344.703-.254 2.777 1.086 2.074 3.723-1.95 5.164-6.563 3.215-10.285zM43.844 75.422a2.239 2.239 0 01-2.235 2.234H4.58a2.239 2.239 0 01-2.235-2.234v-8.594h41.5zM30.133 47.25a5.291 5.291 0 00.394 5.207 10.243 10.243 0 01-7.433 3.18c-5.676 0-10.293-4.621-10.293-10.297s4.617-10.297 10.293-10.297c5.386 0 9.816 4.16 10.258 9.434a5.367 5.367 0 00-3.22 2.773zm8.508-25.754a5.24 5.24 0 00-1.746-.937c-3.754-1.172-7.536 2.27-6.708 6.113H7.938a.392.392 0 01-.39-.39v-8.376c0-.215.176-.39.39-.39H38.25c.215 0 .39.175.39.39zm5.203 9.012l-2.86-5.457v-7.145a2.737 2.737 0 00-2.734-2.734H7.937a2.737 2.737 0 00-2.734 2.734v8.375a2.737 2.737 0 002.734 2.735h23.258l9.13 17.422-3.145-1.657c-.016-.008-.028-.015-.043-.02a5.237 5.237 0 00-1.45-.449C35.164 37.82 29.72 32.7 23.095 32.7c-6.969 0-12.637 5.672-12.637 12.64 0 6.97 5.668 12.641 12.637 12.641 3.496 0 6.773-1.417 9.156-3.925 3.715 2.144 7.746 3.847 11.594 5.75v4.68h-41.5V10.347h41.5zm0 0"/></svg>