<svg xmlns="http://www.w3.org/2000/svg" width="80" height="80" fill="#282D37"><path d="M75.438 52.664V48.36c0-4.007-3.262-7.273-7.274-7.273h-27.86a1.174 1.174 0 000 2.348h27.86a4.931 4.931 0 014.926 4.93v4.3a5.74 5.74 0 00-4.559 5.613v4.36h-37.52v-4.36a5.74 5.74 0 00-4.558-5.613v-4.3c0-2.72 2.211-4.93 4.926-4.93h4.23a1.174 1.174 0 100-2.348h-4.23c-4.012 0-7.274 3.266-7.274 7.273v4.305a5.743 5.743 0 00-4.562 5.613V75c0 .648.527 1.172 1.176 1.172h36.215a1.174 1.174 0 100-2.348H31.012v-8.84h37.52v8.84h-6.903a1.174 1.174 0 000 2.348h17.195c.649 0 1.176-.524 1.176-1.172V58.277c0-2.761-1.96-5.07-4.563-5.613zM21.89 58.277a3.39 3.39 0 013.386-3.386 3.39 3.39 0 013.387 3.386v15.547h-6.773zm55.761 15.547H70.88V58.277a3.39 3.39 0 013.387-3.386 3.39 3.39 0 013.386 3.386zm0 0M29.918 32.707a1.186 1.186 0 001.168 1.059h37.371c.637 0 1.172-.536 1.172-1.172V5c0-.637-.535-1.172-1.172-1.172h-6.828a1.174 1.174 0 000 2.348h3.992L63.45 8.348H36.094l-2.172-2.172h23.012a1.174 1.174 0 000-2.348H31.086c-.637 0-1.172.535-1.172 1.172v27.594c0 .039 0 .078.004.113zm4.004-1.289l2.172-2.172h27.355l2.172 2.172zm28.84-4.52H52.09l-1.957-2.175 6.347-7.051a.967.967 0 011.426.004l4.856 5.34zm-13.828 0H36.785v-.859l5.137-5.707a.748.748 0 011.101 0zM67.28 7.836v21.922l-2.172-2.172V10.008zm-4.52 11.687l-3.113-3.421c-1.293-1.438-3.617-1.438-4.91 0l-6.183 6.867-3.79-4.207a3.087 3.087 0 00-2.292-1.024c-.868 0-1.715.38-2.297 1.024l-3.39 3.77V10.694h25.976zm-28.327-9.515v17.578l-2.172 2.172V7.836zm0 0"/><path d="M13.234 69.594h-1.152V28.957h3.016v13.285a1.174 1.174 0 102.347 0V28.957h3.196c.742 0 1.308-.71 1.144-1.437L17.668 9.512a1.174 1.174 0 00-1.145-.914H5.293c-.55 0-1.023.379-1.148.914L.027 27.52a1.187 1.187 0 001.145 1.437h8.562v40.637H8.582a5.238 5.238 0 00-5.23 5.23V75c0 .648.527 1.172 1.175 1.172H17.29A1.17 1.17 0 0018.461 75v-.176a5.235 5.235 0 00-5.227-5.23zM6.227 10.945h9.359l3.582 15.664H2.645zm-.348 62.88a2.886 2.886 0 012.703-1.884h4.652a2.88 2.88 0 012.7 1.883zm0 0M48.555 18.61a3.32 3.32 0 003.316-3.317 3.32 3.32 0 00-3.316-3.316 3.32 3.32 0 00-3.317 3.316 3.32 3.32 0 003.317 3.316zm0-4.282a.97.97 0 01.968.965.969.969 0 11-1.938 0c0-.531.435-.965.97-.965zm0 0"/></svg>