<svg xmlns="http://www.w3.org/2000/svg" width="80" height="80" fill="#282D37"><path d="M5.684 32.86v24.093a1.173 1.173 0 002.344 0V32.86a6.706 6.706 0 004.35-2.812 6.685 6.685 0 0011.047 0 6.69 6.69 0 0011.05 0 6.685 6.685 0 0011.048 0 6.69 6.69 0 0011.051 0 6.685 6.685 0 0011.047 0 6.706 6.706 0 004.352 2.812v4.407a1.17 1.17 0 001.172 1.172 1.17 1.17 0 001.171-1.172v-4.407c3.137-.554 5.528-3.297 5.528-6.59v-3h-.004c0-.183-.04-.363-.125-.53L69.387 2.37A4.315 4.315 0 0065.523 0H14.477c-1.641 0-3.122.91-3.864 2.371L.285 22.738a1.154 1.154 0 00-.125.532H.156v3c0 3.293 2.39 6.035 5.528 6.59zm1.171-2.239A4.359 4.359 0 012.5 26.27V24.44h8.707v1.829a4.358 4.358 0 01-4.352 4.351zM26.86 2.344l-4.375 19.754h-8.433L21.25 2.344zm8.086 0l-1.554 19.754h-8.504l4.375-19.754zm7.758 0l1.555 19.754h-8.516l1.555-19.754zm8.035 0l4.375 19.754H46.61L45.055 2.344zm8.012 0l7.2 19.754h-8.434L53.14 2.344zM17.902 30.62a4.358 4.358 0 01-4.351-4.351V24.44h8.703v1.829a4.358 4.358 0 01-4.352 4.351zm11.051 0a4.359 4.359 0 01-4.355-4.351V24.44h8.707v1.829a4.358 4.358 0 01-4.352 4.351zm11.047 0a4.358 4.358 0 01-4.352-4.351V24.44h8.704v1.829A4.358 4.358 0 0140 30.62zm11.047 0a4.358 4.358 0 01-4.352-4.351V24.44h8.707v1.829a4.359 4.359 0 01-4.355 4.351zm11.05 0a4.358 4.358 0 01-4.35-4.351V24.44h8.702v1.829a4.358 4.358 0 01-4.351 4.351zm11.048 0a4.358 4.358 0 01-4.352-4.351V24.44H77.5v1.829a4.359 4.359 0 01-4.355 4.351zM67.297 3.43l9.465 18.668h-8.32L61.245 2.344h4.277c.754 0 1.434.418 1.774 1.086zm-54.594 0a1.982 1.982 0 011.774-1.086h4.277l-7.195 19.754h-8.32zm0 0"/><path d="M35.895 39.46c-.645 0-1.172.524-1.172 1.173V67.78c0 .645.527 1.172 1.172 1.172h32.199c.648 0 1.172-.527 1.172-1.172V40.633a1.17 1.17 0 00-1.172-1.172zm1.171 2.345h29.856v19.754H37.066zm29.856 24.804H37.066v-2.707h29.856zm0 0M25.793 52.246c-.645 0-1.172.524-1.172 1.172v6.312a1.173 1.173 0 002.344 0v-6.312a1.17 1.17 0 00-1.172-1.172zm0 0"/><path d="M77.25 72.605h-2.934v-29.87a1.173 1.173 0 00-2.344 0v29.87H32.017V40.633a1.17 1.17 0 00-1.172-1.172H11.906a1.17 1.17 0 00-1.172 1.172v31.972H8.027V62.422a1.173 1.173 0 00-2.343 0v10.183H2.75A2.754 2.754 0 000 75.355v1.895A2.754 2.754 0 002.75 80h60.719a1.173 1.173 0 000-2.344H2.75a.408.408 0 01-.406-.406v-1.895c0-.222.183-.406.406-.406h74.5c.223 0 .406.184.406.406v1.895a.408.408 0 01-.406.406h-8.313a1.17 1.17 0 00-1.171 1.172A1.17 1.17 0 0068.937 80h8.313A2.754 2.754 0 0080 77.25v-1.895a2.754 2.754 0 00-2.75-2.75zm-64.172-30.8h16.594v30.8H13.078zm0 0"/><path d="M59.938 47.914l-5.364-2.21a1.175 1.175 0 00-1.336.32l-1.543 1.8h-2.46a5.914 5.914 0 00-5.907 5.906v2.844c0 .645.524 1.172 1.172 1.172h14.992c.649 0 1.172-.527 1.172-1.172v-7.578c0-.473-.285-.902-.727-1.082zm-1.618 7.488H45.672V53.73a3.566 3.566 0 013.562-3.562h3c.34 0 .664-.148.887-.41l1.344-1.563 3.855 1.586zm0 0"/></svg>