<svg xmlns="http://www.w3.org/2000/svg" width="80" height="80" fill="#FFFFFF"><path d="M60.992 45.055l-5.23-1.164-2.223-3.336a1.253 1.253 0 00-1.766-.325l-.097.07a346.59 346.59 0 00-.653-2.612c1.856-2.184 3.25-4.852 3.754-7.829 2.758-.714 3.973-4.218 3.973-6.109 0-1.625-.637-2.445-1.25-2.863V17.5C57.5 7.852 49.648 0 40 0S22.5 7.852 22.5 17.5v3.387c-.613.418-1.25 1.238-1.25 2.863 0 1.887 1.21 5.387 3.96 6.11.5 3.054 1.919 5.69 3.767 7.831-.29 1.145-.5 1.989-.657 2.61l-.093-.067a1.231 1.231 0 00-.954-.21 1.238 1.238 0 00-.812.535l-2.223 3.332-5.281 1.18A13.765 13.765 0 008.75 58.354V78.75c0 .691.559 1.25 1.25 1.25s1.25-.559 1.25-1.25v-4.234c2.996-.793 4.563-2.313 4.633-2.383.488-.485.484-1.27.004-1.758a1.257 1.257 0 00-1.762-.016c-.012.012-.992.922-2.875 1.551v-6.394c.8.222 1.492.34 2.07.336 1.598 0 2.399-.743 2.797-1.543.094-.184.156-.23.156-.23.11-.044.5.03.739.073 1.02.188 3.148.575 4.172-2.507.171-.504.68-2.036-.227-3.2-.984-1.273-2.812-1.14-4.57-1.015-.477.035-.95.07-1.387.07-.41 0-1.168-.273-1.832-.516-.582-.21-1.176-.425-1.75-.55.738-4.262 3.89-7.805 8.133-8.938l4.722-1.055 4.586 10.317c.18.41.567.691 1.016.734.043.004.082.008.125.008a1.24 1.24 0 001.016-.523l5.043-7.059 2.691 5.379V78.75c0 .691.559 1.25 1.25 1.25s1.25-.559 1.25-1.25V65.777c.957-.05 1.879-.082 2.75-.082 4.96 0 5.547-2.617 5.61-3.414.167-2.144-1.9-4.37-4.419-4.765-.84-.133-1.523.375-2.183.859-.66.484-1.2.828-1.758.93v-4.008l2.691-5.379 5.043 7.059A1.24 1.24 0 0050 57.5c.043 0 .082-.004.125-.008.45-.043.836-.324 1.016-.734l4.586-10.317 4.671 1.043a11.255 11.255 0 018.332 10.348 7.57 7.57 0 00-.363.203c-.55.328-1.234.735-3.172.735-3.476 0-3.972 1.984-4.27 3.167-.105.418-.19.774-.366.95-.778.773-.559 1.504-.426 1.785.316.68.879.898 1.992.898.672 0 1.54-.078 2.676-.18 1.133-.1 2.476-.222 3.949-.296v6.008c-1.063.328-1.586-.024-1.645-.075a1.258 1.258 0 00-1.738.032 1.252 1.252 0 000 1.77c.434.433 1.317.917 2.547.917.262 0 .543-.035.836-.082v5.086c0 .691.559 1.25 1.25 1.25s1.25-.559 1.25-1.25V58.355c0-6.222-4.2-11.683-10.258-13.3zM15 60c.492 0 1.027-.04 1.566-.078.747-.055 2.133-.156 2.403.023 0 0 .074.227-.153.91-.343 1.024-.421 1.012-1.355.836-.844-.152-2.594-.468-3.578 1.5-.098.196-.89.336-2.633-.289v-3.93c.367.11.766.255 1.066.364.903.324 1.836.664 2.684.664zm40-33.129v-3.648c.61-.305 1-.32 1.09-.274.023.012.16.219.16.801 0 .887-.469 2.309-1.25 3.121zM40 2.5c8.27 0 15 6.73 15 15v3.059c-.242.062-.488.14-.742.246-.598-1.032-1.176-1.84-1.664-2.52-1.422-1.976-2.133-2.969-1.367-6.789a1.255 1.255 0 00-.344-1.129l-1.25-1.25a1.249 1.249 0 00-1.278-.305C48.32 8.829 44.742 10 40 10c-4.715 0-8.32-1.172-8.355-1.188a1.253 1.253 0 00-1.278.305l-1.25 1.25a1.245 1.245 0 00-.344 1.13c.766 3.82.055 4.812-1.367 6.788-.488.68-1.066 1.488-1.664 2.52a5.498 5.498 0 00-.742-.246V17.5c0-8.27 6.73-15 15-15zM23.91 22.95c.086-.048.48-.032 1.09.273v3.648c-.781-.812-1.25-2.238-1.25-3.121 0-.582.137-.79.16-.8zm3.59-.137c.672-1.293 1.34-2.239 1.938-3.07 1.472-2.052 2.648-3.692 1.91-8.071l.261-.262c1.38.375 4.516 1.09 8.391 1.09s7.012-.715 8.39-1.09l.262.258c-.738 4.383.438 6.023 1.91 8.074.598.832 1.266 1.778 1.938 3.07V27.5c0 7.398-7.422 13.75-12.5 13.75-4.277 0-12.5-5.805-12.5-13.75zm3.54 16.925c3.007 2.567 6.51 4.012 8.96 4.012 2.715 0 6.098-1.488 8.969-3.984.25 1.007.414 1.664.52 2.097l-6.466 4.621c-.015.008-.023.028-.035.036-.066.054-.117.12-.172.183-.054.063-.113.121-.152.195-.008.016-.023.024-.031.043l-.281.559h-4.704l-.28-.559c-.009-.015-.024-.027-.036-.043-.039-.07-.098-.132-.152-.195-.055-.062-.102-.129-.168-.18-.016-.011-.02-.03-.035-.039l-6.465-4.62c.105-.438.27-1.102.527-2.126zM40 52.203L38.898 50h2.204zm-9.746 1.54l-3.832-8.622 1.402-2.105 6.684 4.773zm14.238 6.644c.164-.121.375-.278.516-.364 1.304.297 2.16 1.403 2.11 2.063-.044.55-1.024 1.11-3.118 1.11a56.5 56.5 0 00-2.75.077v-1.43c1.414-.109 2.512-.917 3.242-1.456zm5.254-6.645l-4.254-5.953 6.684-4.773 1.402 2.105zm14.832 9.156c-.45.04-.922.082-1.351.118.046-.164.086-.325.125-.473.242-.98.32-1.277 1.843-1.277 1.754 0 2.82-.29 3.555-.614v1.938a104.61 104.61 0 00-4.172.308zm0 0"/><path d="M57.5 66.25c-.691 0-1.25.559-1.25 1.25v11.25c0 .691.559 1.25 1.25 1.25s1.25-.559 1.25-1.25V67.5c0-.691-.559-1.25-1.25-1.25zm0 0M33.75 68.75c-.703 0-1.004-.27-1.617-.883-.68-.683-1.617-1.617-3.383-1.617-2.629 0-3.027 1.61-3.223 2.383-.043.183-.105.426-.16.484-.383.38-1.023.602-1.617.73V67.5c0-.691-.559-1.25-1.25-1.25s-1.25.559-1.25 1.25v11.25c0 .691.559 1.25 1.25 1.25s1.25-.559 1.25-1.25v-2.098a9.932 9.932 0 001.723.149c1.047 0 2.289-.156 3.672-.617.921-.305 1.406-.582 1.761-.786.465-.265.7-.398 2.844-.398.977 0 1.727-.203 2.29-.625a2.321 2.321 0 00.94-1.902c0-1.739-1.718-3.723-3.23-3.723zm0 3.75c-2.555 0-3.18.21-4.086.73a6.21 6.21 0 01-1.309.586c-2.128.707-3.742.508-4.605.29V72.39c1.016-.157 2.422-.543 3.383-1.508.547-.547.703-1.18.82-1.645.035-.14.09-.355.106-.39 0-.004.152-.098.691-.098.703 0 1.004.27 1.617.883.668.668 1.582 1.582 3.285 1.617.32.16.785.82.828 1.156-.109.04-.34.094-.73.094zm0 0M46.941 73.883c-1.543.765-2.265.258-2.34.199a1.25 1.25 0 00-1.734 1.8c.434.434 1.317.919 2.543.919.762 0 1.653-.188 2.649-.684 2.406-1.203 2.921-.87 3.558-.234a1.247 1.247 0 001.766 0 1.252 1.252 0 000-1.77c-1.906-1.906-3.957-1.472-6.442-.23zm0 0"/></svg>