<svg xmlns="http://www.w3.org/2000/svg" width="80" height="80" fill="#282D37"><path d="M45.16 27.098h-3.87v-6.453h-2.58v9.03h6.45zm0 0"/><path d="M80 51.613H63.227v-7.742h-9.032V18.066h2.578v-7.742H52.2L43.168 0h-6.332L27.8 10.324h-4.574v7.742h2.578v25.805h-9.032v7.742H0v7.742h2.582V80h74.836V59.355H80zm-19.355 0H54.75l-6.352-5.16h12.247zm-7.727 5.16L40 46.277 27.082 56.773h-4.094L40 42.953l17.012 13.82zm-4.094 0H31.176L40 49.602zM40 18.066c5.691 0 10.324 4.63 10.324 10.32 0 5.692-4.633 10.325-10.324 10.325s-10.324-4.633-10.324-10.324c0-5.692 4.633-10.32 10.324-10.32zm5.223 25.805l-3.364-2.73a12.915 12.915 0 009.754-7.168v9.898zm6.39-21.07a12.946 12.946 0 00-3.902-4.735h3.902zM38.003 2.582h3.993l6.774 7.742H31.23zm-12.198 10.32h28.39v2.582h-28.39zm6.484 5.164a12.915 12.915 0 00-3.902 4.735v-4.735zm-3.902 15.907c1.828 3.785 5.445 6.539 9.75 7.168l-3.36 2.73h-6.39zm-9.032 12.48h12.247l-6.352 5.16h-5.895zm49.032 30.965h-5.16V64.516h5.16zm-7.742 0h-2.579V64.516h2.579zm-5.16 0h-5.16V64.516h5.16zm-7.743 0H45.16V64.516h2.582zm-5.16 0h-5.164V64.516h5.164zm-7.742 0h-2.582V64.516h2.582zm-5.164 0h-5.16V64.516h5.16zm-7.742 0h-2.579V64.516h2.579zm-5.16 0h-5.16V64.516h5.16zm60.644-20.645H65.805v2.582h9.035v18.063h-3.871V61.934H9.03v15.484h-3.87V59.355h9.034v-2.582H2.582v-2.578H22.07l-3.172 2.578h-2.125v2.582h46.454v-2.582h-2.125l-3.172-2.578h19.488zm0 0"/></svg>