<svg xmlns="http://www.w3.org/2000/svg" width="80" height="80" fill="#282D37"><path d="M79.941 17.234c0-.09.063-.18.059-.27L55.586 40.489l24.383 22.77c.015-.16-.028-.324-.028-.492zm0 0M51.86 44.105l-9.965 9.59a2.607 2.607 0 01-1.81.73 2.595 2.595 0 01-1.776-.702L28.37 44.46 3.828 68.12c.594.215 1.235.379 1.906.379h68.704c.996 0 1.93-.305 2.742-.754zm0 0"/><path d="M40.059 48.227l37.257-35.891c-.843-.5-1.824-.836-2.879-.836H5.734c-1.37 0-2.625.531-3.605 1.344zm0 0M0 18.11v44.656c0 .511.117 1.007.246 1.48l24.238-23.344zm0 0"/></svg>