<svg xmlns="http://www.w3.org/2000/svg" width="80" height="80" fill="#FFFFFF"><path d="M63.672 15.672l-1.86-1.86a6.3 6.3 0 01-1.859-4.484V7.156a3.682 3.682 0 002.5-3.484A3.678 3.678 0 0058.781 0H21.22a3.678 3.678 0 00-3.672 3.672c0 1.625 1.047 3 2.5 3.484v2.172a6.3 6.3 0 01-1.86 4.485l-1.859 1.859a8.642 8.642 0 00-2.547 6.14v43.235c0 .64.531 1.172 1.172 1.172a1.18 1.18 0 001.172-1.172V21.813a6.3 6.3 0 011.86-4.485l1.859-1.86a8.642 8.642 0 002.547-6.14V7.36h27.64a1.18 1.18 0 001.172-1.171 1.18 1.18 0 00-1.172-1.172H21.22a1.327 1.327 0 110-2.657h37.578a1.327 1.327 0 110 2.657h-3.75a1.18 1.18 0 00-1.172 1.171c0 .641.531 1.172 1.172 1.172h2.578v1.985c0 2.328.906 4.5 2.547 6.14l1.86 1.86a6.3 6.3 0 011.859 4.484v52a3.851 3.851 0 01-3.844 3.844H19.953a3.851 3.851 0 01-3.844-3.844v-3.75a1.18 1.18 0 00-1.172-1.172 1.18 1.18 0 00-1.171 1.172v3.75a6.192 6.192 0 006.187 6.188h40.078a6.192 6.192 0 006.188-6.188V21.812c0-2.312-.906-4.5-2.547-6.14zm0 0"/><path d="M19.953 62.625a1.18 1.18 0 00-1.172 1.172v5.016c0 .64.532 1.171 1.172 1.171h1.328v3.844c0 .64.532 1.172 1.172 1.172h30.063a1.18 1.18 0 001.172-1.172v-3.844h6.343a1.18 1.18 0 001.172-1.171v-5.016a1.18 1.18 0 00-1.172-1.172h-1.328v-3.844a1.18 1.18 0 00-1.172-1.172h-2.578v-3.843a1.18 1.18 0 00-1.172-1.172h-3.843V48.75a1.18 1.18 0 00-1.172-1.172h-8.97c-.546-2.844-3.062-5.016-6.062-5.016a6.192 6.192 0 00-6.187 6.188c0 1.453.5 2.781 1.344 3.844h-5.172a1.18 1.18 0 00-1.172 1.172v5.015c0 .64.531 1.172 1.172 1.172h2.578v2.672zm1.172 2.344h7.672v2.672h-7.672zm13.781-10.016h7.672v2.672h-7.672zm3.766 5h7.672v2.672h-7.672zm2.5 7.688v-2.672h7.672v2.672zm-2.344-2.672v2.672h-7.672v-2.672zm-15.187 5.015h7.672v2.672H23.64zm10.015 0h7.672v2.672h-7.672zm17.703 2.657h-7.672v-2.672h7.672zm7.516-5h-7.672v-2.672h7.672zm-2.516-5.016h-7.672v-2.672h7.672zm-3.75-5.016h-7.672v-2.672h7.672zm-5.015-5h-7.672v-2.672h7.672zm-17.688-3.843a3.851 3.851 0 013.844-3.844 3.841 3.841 0 013.844 3.844 3.841 3.841 0 01-3.844 3.843 3.841 3.841 0 01-3.844-3.843zm-5.015 6.187h7.672v2.672H24.89zm3.75 5h7.672v2.672H28.64zm0 0M46.266 42.422a6.192 6.192 0 006.187-6.188 6.182 6.182 0 00-6.187-6.187 6.182 6.182 0 00-6.188 6.187 6.192 6.192 0 006.188 6.188zm0-10.016a3.851 3.851 0 013.843 3.844 3.841 3.841 0 01-3.843 3.844 3.841 3.841 0 01-3.844-3.844 3.841 3.841 0 013.844-3.844zm0 0M33.594 18.563c-2.453 2.453-3.016 5.734-1.282 7.468.688.688 1.594 1 2.61 1 1.578 0 3.375-.797 4.86-2.281 2.452-2.453 3.015-5.734 1.28-7.469-1.734-1.734-5.015-1.172-7.468 1.282zm6.062 1.953c-.187.875-.75 1.812-1.531 2.593-.781.782-1.719 1.328-2.594 1.532-.687.156-1.25.062-1.562-.25-.672-.672-.282-2.594 1.281-4.157 1.063-1.062 2.313-1.593 3.203-1.593.406 0 .734.109.953.312.313.297.407.875.25 1.563zm0 0"/></svg>