<svg xmlns="http://www.w3.org/2000/svg" width="80" height="80" fill="#FFFFFF"><path d="M27.39 46.902H13.345a5.2 5.2 0 01-5.196-5.195V11.004a5.206 5.206 0 014.102-5.078c-.055 2.472.195 5.5 1.066 9.011h-1.261v7.872h3.988c2.898 6.914 7.633 16.656 11.348 24.093zM17.165 0l35.617 63.34c.051.086.106.168.164.246l.063.07c.043.051.082.102.129.145.027.027.058.05.086.074.043.04.086.078.132.113l.102.067a1.359 1.359 0 00.254.14c.047.024.098.047.148.067l.121.043c.051.015.102.03.153.043.043.011.086.015.129.023a1.429 1.429 0 00.293.031c.03.004.058.008.09.008.042 0 .09 0 .136-.004.192-.011.383-.015.578-.011.07 0 .145.003.215.007.137.008.274.016.41.028a8.197 8.197 0 01.656.098c.07.011.137.019.204.035.21.046.422.097.633.164h.003c3.184.972 5.47 3.906 5.56 7.238.007.258 0 .515-.017.765-.003.032-.003.06-.007.09-.02.239-.051.473-.09.707-.008.04-.012.078-.02.118a7.546 7.546 0 01-.414 1.43l-.035.09c-.09.218-.187.429-.297.636-.004.011-.012.02-.015.031a6.933 6.933 0 01-.348.594l-.043.066a6.622 6.622 0 01-.395.543l-.07.09a8.66 8.66 0 01-.437.488c-.028.032-.059.059-.086.09a8.533 8.533 0 01-.48.445c-.028.024-.06.047-.087.07-.172.141-.351.282-.539.41l-.05.032a7.147 7.147 0 01-.579.356c-.015.007-.031.02-.05.027a6.857 6.857 0 01-.711.344 8.648 8.648 0 01-.63.234c-.038.012-.074.024-.113.035a7.353 7.353 0 01-.656.172.908.908 0 01-.11.02 6.707 6.707 0 01-.69.109c-.024.004-.048.004-.071.004-.242.023-.484.039-.73.039h-.036c-.199 0-.402-.008-.609-.027a7.136 7.136 0 01-.77-.094c-3.16-.555-5.667-3.063-6.277-6.18a8.42 8.42 0 01-.098-.629 8.028 8.028 0 01-.015-1.59c.05-.515.148-1.011.289-1.492.078-.265.105-.539.078-.804a2.061 2.061 0 00-.535-1.215l-6.617-7.285-4.344-4.79s-.629-1.21-1.656-3.226c-.778-1.52-1.782-3.5-2.918-5.766-3.543-7.058-8.352-16.863-11.473-24.097-.305-.7-.59-1.375-.86-2.02-.007-.027-.019-.055-.03-.082-.126-.3-.243-.59-.36-.875a1.86 1.86 0 00-.062-.156c-.11-.277-.22-.55-.32-.817-.005-.003-.005-.011-.009-.015a33.81 33.81 0 01-.382-1.031 33.21 33.21 0 01-.254-.739c-.028-.082-.059-.164-.086-.246a61.737 61.737 0 01-.301-.949 59.281 59.281 0 01-.27-.938c-1.003-3.652-1.25-6.73-1.18-9.128.063-2.098.368-3.668.622-4.649v-.004c.027-.105.055-.203.082-.293 0-.004 0-.011.004-.015.023-.086.047-.168.07-.243.004-.003.004-.011.004-.015.023-.07.043-.137.063-.195.003-.008.003-.012.007-.016.02-.059.035-.11.051-.152 0-.004.004-.008.004-.012.016-.043.031-.082.04-.113.003 0 .003-.004.003-.008l.04-.094zM52.18 74.11a3.757 3.757 0 00.523.69l.082.083c.098.097.203.187.309.27l.035.023a3.233 3.233 0 00.691.394 3.39 3.39 0 00.48.172l.06.012c.113.031.226.05.34.066.042.008.081.012.12.016.106.012.207.02.313.02a.43.43 0 00.07.007c.012 0 .024-.004.031-.004.133 0 .266-.007.399-.023l.062-.012a3.12 3.12 0 00.332-.066c.043-.008.082-.02.125-.031.094-.028.188-.059.282-.094l.117-.047c.129-.055.254-.113.379-.184a3.48 3.48 0 001.394-1.48 3.506 3.506 0 00.059-2.95 3.371 3.371 0 00-.398-.676c-.024-.034-.051-.066-.079-.097a2.958 2.958 0 00-.207-.234 3.355 3.355 0 00-.395-.355c-.007-.008-.019-.012-.03-.02a3.271 3.271 0 00-.31-.207l-.105-.059a3.611 3.611 0 00-.379-.176 3.33 3.33 0 00-.378-.128l-.059-.012a3.477 3.477 0 00-.34-.067c-.043-.007-.082-.011-.121-.015a2.786 2.786 0 00-.309-.02c-.027 0-.05-.004-.074-.004h-.031c-.133 0-.266.008-.398.028-.02 0-.043.007-.063.007-.113.02-.223.04-.336.067l-.121.035a3.954 3.954 0 00-.281.094c-.04.015-.078.027-.117.043a3.751 3.751 0 00-.38.183 3.489 3.489 0 00-1.702 2.434c-.016.11-.032.219-.04.332-.05.668.094 1.36.45 1.984zM66.656 5.808h-1.289C65.25 2.199 64.414.19 64.414.19L61.22 5.81H24.91l5.137 9.129h37.898v7.87H34.47L48.87 48.415c.246-.488.504-.992.766-1.512h17.02a5.2 5.2 0 005.195-5.195V11.004a5.203 5.203 0 00-5.196-5.195zM34.23 67.71a2.112 2.112 0 00-.468 2.02c.281.96.383 1.996.258 3.082-.395 3.398-3.036 6.203-6.407 6.777a7.81 7.81 0 01-9.148-7.961c.11-3.328 2.406-6.254 5.598-7.207a7.589 7.589 0 012.703-.309 2.127 2.127 0 002.004-1.058l3.601-6.328c.27.527.441.863.496.964.156.301.348.579.574.829l4.586 5.05zm-6.218 1.363a3.48 3.48 0 10-3.484 6.026 3.48 3.48 0 003.484-6.026zm0 0"/></svg>