<svg xmlns="http://www.w3.org/2000/svg" width="80" height="80" fill="#FFFFFF"><path d="M40 3.75a36.213 36.213 0 00-23.98 9.063 1.25 1.25 0 101.656 1.875c13.61-11.993 34.261-11.079 46.758 2.066 12.496 13.148 12.355 33.824-.313 46.8-12.668 12.981-33.336 13.618-46.781 1.442-13.445-12.172-14.856-32.8-3.195-46.691a1.25 1.25 0 00-.149-1.762 1.25 1.25 0 00-1.762.152C1.304 29.715.891 48.578 11.238 62.062 21.582 75.552 39.91 80.035 55.316 72.856c15.407-7.183 23.75-24.105 20.075-40.699C71.71 15.563 56.996 3.75 40 3.75zm0 0"/><path d="M60.98 59.7a1.25 1.25 0 001.762-.134c9.196-10.691 9.707-26.343 1.227-37.609-8.485-11.266-23.664-15.105-36.48-9.223-12.817 5.88-19.81 19.895-16.798 33.668C13.7 60.18 25.898 70 40 70a29.667 29.667 0 0018.676-6.523c.379-.266.582-.723.523-1.18a1.26 1.26 0 00-.804-1.016 1.258 1.258 0 00-1.27.242A27.205 27.205 0 0140 67.5c-12.926 0-24.105-9.004-26.867-21.633-2.758-12.625 3.652-25.472 15.398-30.863 11.75-5.39 25.668-1.871 33.442 8.457 7.773 10.328 7.304 24.676-1.125 34.473-.45.523-.391 1.312.132 1.765zm0 0"/><path d="M32.5 26.25c1.379 0 2.5 1.121 2.5 2.5 0 .691.559 1.25 1.25 1.25s1.25-.559 1.25-1.25a5 5 0 10-10 0v22.5a5 5 0 1010 0v-17.5c0-.691-.559-1.25-1.25-1.25S35 33.059 35 33.75v17.5c0 1.379-1.121 2.5-2.5 2.5a2.502 2.502 0 01-2.5-2.5v-22.5c0-1.379 1.121-2.5 2.5-2.5zm0 0M47.5 53.75a2.502 2.502 0 01-2.5-2.5c0-.691-.559-1.25-1.25-1.25s-1.25.559-1.25 1.25a5 5 0 1010 0v-22.5a5 5 0 10-10 0v17.5c0 .691.559 1.25 1.25 1.25S45 46.941 45 46.25v-17.5c0-1.379 1.121-2.5 2.5-2.5s2.5 1.121 2.5 2.5v22.5c0 1.379-1.121 2.5-2.5 2.5zm0 0"/></svg>