<svg xmlns="http://www.w3.org/2000/svg" width="80" height="80" fill="#FFFFFF"><path d="M79.738 64.98l-6.125-12.656 4.356-8.261c.894-2.235-.004-4.622-1.813-5.833-2.308-1.546-5.793-.914-7.168 2.192l-.008.02-8.285 17.847h-23.25v-.008H32.07l.004.008h-21.82c-2.379 0-4.844 1.758-4.844 5.211 0 3.355 2.356 5.207 4.844 5.207h4.09l-3.48 6.7a2.606 2.606 0 104.624 2.41l4.735-9.11h14.414l2.093 8.527a2.61 2.61 0 005.066-1.246l-1.784-7.281h20.11l4.737 9.11a2.605 2.605 0 003.516 1.109 2.611 2.611 0 001.11-3.52l-3.481-6.699h11.383c1.922 0 3.187-1.996 2.351-3.727zm-12.015-1.472l2.867-5.446 2.637 5.446zm0 0"/><path d="M56.418 26.2C52.547 11.765 38.281 2.86 23.828 5.36l-.71-2.65A2.609 2.609 0 0019.921.868a2.615 2.615 0 00-1.848 3.196l.711 2.648C5.023 11.77-2.887 26.62.98 41.05a2.612 2.612 0 003.196 1.847L26.8 36.836l3.988 16.23h5.375L31.84 35.484l22.734-6.09a2.614 2.614 0 001.844-3.195zm0 0"/></svg>