<svg xmlns="http://www.w3.org/2000/svg" width="80" height="80" fill="#282D37"><path d="M75.898 13.332H4.102A4.117 4.117 0 000 17.437v45.126a4.117 4.117 0 004.102 4.105h71.796A4.117 4.117 0 0080 62.562V17.438a4.117 4.117 0 00-4.102-4.106zM74.36 16.41l-32 24c-.574.438-1.457.711-2.359.707-.902.004-1.785-.27-2.36-.707l-32-24zM57.266 41.992l17.437 21.54c.016.023.04.038.055.058H5.242c.016-.02.04-.035.055-.059l17.437-21.539a1.537 1.537 0 10-2.39-1.934L3.078 61.388V18.332l32.715 24.54c1.23.917 2.727 1.32 4.207 1.323 1.477-.004 2.973-.406 4.203-1.324l32.719-24.539v43.055L59.656 40.059a1.538 1.538 0 00-2.39 1.933zm0 0"/></svg>