<svg xmlns="http://www.w3.org/2000/svg" width="80" height="80" fill="#282D37"><path d="M36.25 60c-.691 0-1.25-.559-1.25-1.25v-5c0-.691.559-1.25 1.25-1.25s1.25.559 1.25 1.25v5c0 .691-.559 1.25-1.25 1.25zm0 0M18.75 8.75c0 .691-.559 1.25-1.25 1.25s-1.25-.559-1.25-1.25.559-1.25 1.25-1.25 1.25.559 1.25 1.25zm0 0M25 8.75c0 .691-.559 1.25-1.25 1.25s-1.25-.559-1.25-1.25.559-1.25 1.25-1.25S25 8.059 25 8.75zm0 0M31.25 8.75c0 .691-.559 1.25-1.25 1.25s-1.25-.559-1.25-1.25S29.309 7.5 30 7.5s1.25.559 1.25 1.25zm0 0M43.086 34.375c-.2 0-.398-.05-.574-.148l-2.5-1.313-2.5 1.313c-.403.195-.88.16-1.25-.09a1.252 1.252 0 01-.5-1.25l.488-2.801-2.125-1.95a1.253 1.253 0 01-.32-1.288 1.256 1.256 0 011.02-.848l2.8-.398 1.25-2.5A1.244 1.244 0 0140 22.395c.48 0 .918.273 1.125.707l1.25 2.5 2.8.398c.473.066.872.395 1.02.848.149.457.024.957-.32 1.289l-2.04 1.976.49 2.801c.093.477-.102.965-.5 1.25-.22.14-.477.215-.74.211zM40 30.25a1.22 1.22 0 01.586.137l.84.449-.176-.95a1.248 1.248 0 01.375-1.136l.688-.676-.95-.137a1.249 1.249 0 01-.937-.687L40 26.437l-.426.852c-.18.367-.531.625-.937.688l-.95.136.688.676c.293.285.43.695.363 1.098l-.164.949.84-.45c.18-.093.383-.14.586-.136zm0 0M26.836 34.375c-.2 0-.398-.05-.574-.148l-2.5-1.313-2.5 1.313c-.403.195-.88.16-1.25-.09a1.252 1.252 0 01-.5-1.25L20 30.086l-2.125-1.95a1.253 1.253 0 01-.32-1.288 1.256 1.256 0 011.02-.848l2.8-.398 1.25-2.5a1.244 1.244 0 011.125-.707c.48 0 .918.273 1.125.707l1.25 2.5 2.8.398c.473.066.872.395 1.02.848.149.457.024.957-.32 1.289l-2.04 1.976.49 2.801c.093.477-.102.965-.5 1.25a1.263 1.263 0 01-.74.211zM23.75 30.25a1.22 1.22 0 01.586.137l.84.449-.176-.95a1.248 1.248 0 01.375-1.136l.688-.676-.95-.137a1.249 1.249 0 01-.937-.687l-.426-.813-.426.852c-.18.367-.531.625-.937.688l-.95.136.688.676c.293.285.43.695.363 1.098l-.164.949.84-.45c.18-.093.383-.14.586-.136zm0 0M59.336 34.375c-.2 0-.398-.05-.574-.148l-2.5-1.313-2.5 1.313a1.252 1.252 0 01-1.813-1.34l.489-2.801-2.063-1.95a1.253 1.253 0 01-.32-1.288 1.256 1.256 0 011.02-.848l2.8-.398 1.25-2.5a1.244 1.244 0 011.125-.707c.48 0 .918.273 1.125.707l1.25 2.5 2.8.398c.473.066.872.395 1.02.848.149.457.024.957-.32 1.289l-2.04 1.976.49 2.801c.093.477-.102.965-.5 1.25-.22.14-.477.215-.74.211zM56.25 30.25a1.22 1.22 0 01.586.137l.84.449-.176-.95a1.248 1.248 0 01.375-1.136l.688-.676-.95-.137a1.249 1.249 0 01-.937-.687l-.426-.813-.426.852c-.18.367-.531.625-.937.688l-.95.136.688.676c.293.285.43.695.363 1.098l-.164.949.84-.45c.18-.093.383-.14.586-.136zm0 0M68.75 15h-57.5c-.691 0-1.25-.559-1.25-1.25s.559-1.25 1.25-1.25h57.5c.691 0 1.25.559 1.25 1.25S69.441 15 68.75 15zm0 0"/><path d="M36.25 77.5a1.172 1.172 0 01-.688-.21 18.04 18.04 0 01-8.062-15V51.25a3.75 3.75 0 013.54-3.75A6.261 6.261 0 0135 48.75V40.8a4.511 4.511 0 013.926-4.55 4.374 4.374 0 014.824 4.375v7.3c2-.98 4.418-.257 5.55 1.66A4.314 4.314 0 0156 51.8a4.354 4.354 0 012.574-.55A4.511 4.511 0 0162.5 55.8v5.45c0 .691-.559 1.25-1.25 1.25S60 61.941 60 61.25V55.8a2.023 2.023 0 00-1.676-2.05 1.866 1.866 0 00-1.457.473c-.394.359-.62.867-.617 1.402 0 .691-.559 1.25-1.25 1.25s-1.25-.559-1.25-1.25v-2.324a2.023 2.023 0 00-1.676-2.051 1.922 1.922 0 00-1.46.477c-.391.359-.614.867-.614 1.398 0 .691-.559 1.25-1.25 1.25s-1.25-.559-1.25-1.25v-1.074A2.023 2.023 0 0045.824 50a1.866 1.866 0 00-1.457.473c-.394.359-.62.867-.617 1.402 0 .691-.559 1.25-1.25 1.25s-1.25-.559-1.25-1.25v-11.25c0-.531-.223-1.04-.613-1.398a1.922 1.922 0 00-1.461-.477A2.023 2.023 0 0037.5 40.8v12.95c0 .691-.559 1.25-1.25 1.25S35 54.441 35 53.75A3.75 3.75 0 0031.125 50 1.248 1.248 0 0030 51.25v10.988a15.582 15.582 0 006.938 12.973c.453.309.656.875.5 1.398-.157.528-.641.887-1.188.891zm0 0M53.75 77.5a1.247 1.247 0 01-1.188-.89 1.259 1.259 0 01.5-1.4 15.607 15.607 0 006.5-9.312 1.245 1.245 0 011.5-.863c.653.16 1.063.809.926 1.465a18.083 18.083 0 01-7.5 10.79 1.184 1.184 0 01-.738.21zm0 0"/><path d="M36.25 50H15a5 5 0 01-5-5v-3.75c0-.691.559-1.25 1.25-1.25s1.25.559 1.25 1.25V45c0 1.379 1.121 2.5 2.5 2.5h21.25c.691 0 1.25.559 1.25 1.25S36.941 50 36.25 50zm0 0M65 50H42.5c-.691 0-1.25-.559-1.25-1.25s.559-1.25 1.25-1.25H65c1.379 0 2.5-1.121 2.5-2.5V7.5C67.5 6.121 66.379 5 65 5H15a2.502 2.502 0 00-2.5 2.5V30c0 .691-.559 1.25-1.25 1.25S10 30.691 10 30V7.5a5 5 0 015-5h50a5 5 0 015 5V45a5 5 0 01-5 5zm0 0M11.25 37.5c-.691 0-1.25-.559-1.25-1.25V35c0-.691.559-1.25 1.25-1.25s1.25.559 1.25 1.25v1.25c0 .691-.559 1.25-1.25 1.25zm0 0"/></svg>