<svg xmlns="http://www.w3.org/2000/svg" width="80" height="80" fill="#282D37"><path d="M60.992 45.055l-5.23-1.164-2.223-3.336c-.191-.29-.5-.489-.848-.54-.347-.054-.699.04-.972.258l-.043.036-.653-2.618c1.856-2.183 3.254-4.855 3.758-7.832 2.754-.714 3.969-4.218 3.969-6.109 0-1.625-.637-2.445-1.25-2.863V17.5C57.5 6.703 50.797 0 40 0c-4.887 0-6.867 1.383-10.531 5.016C22.5 5.39 22.5 13.238 22.5 17.5v3.387c-.613.418-1.25 1.238-1.25 2.863 0 1.887 1.21 5.387 3.96 6.11.5 3.054 1.919 5.695 3.767 7.831l-.657 2.614-.039-.032a1.248 1.248 0 00-1.82.286l-2.223 3.332-5.281 1.18A13.765 13.765 0 008.75 58.354V78.75c0 .691.559 1.25 1.25 1.25s1.25-.559 1.25-1.25V58.355a11.27 11.27 0 016.367-10.136l-1.234 2.472c-.211.422-.168.93.117 1.309l2.559 3.41-2.598 3.895a1.254 1.254 0 00.309 1.707L38.75 76.89v1.859c0 .691.559 1.25 1.25 1.25s1.25-.559 1.25-1.25v-1.86l21.984-15.878c.543-.39.68-1.149.305-1.707l-2.598-3.895L63.5 52c.285-.379.328-.887.117-1.309l-1.23-2.46a11.258 11.258 0 016.363 10.124V78.75c0 .691.559 1.25 1.25 1.25s1.25-.559 1.25-1.25V58.355c0-6.222-4.2-11.683-10.258-13.3zM40 52.852l1.555 1.242-1.078 2.156h-.954l-1.078-2.156zm-.14 5.898h.28l1.657 14.11c-.578.656-1.18 1.25-1.797 1.78a17.945 17.945 0 01-1.797-1.78zm-3.41-3.059l1.015 2.036-1.445 12.277c-3.961-5.887-6.747-14.047-8.313-19.484l5.059 6.496a1.233 1.233 0 00.984.484c.281 0 .559-.098.781-.273zm6.085 2.036l1.016-2.036 1.918 1.536a1.267 1.267 0 00.926.265c.335-.039.636-.21.84-.476l5.058-6.5c-1.563 5.437-4.352 13.601-8.313 19.492zm10.926-12.782l-7.418 9.54L42 51.25l10.219-8.172zM50.289 21.25c-.793-.379-2.758-1.25-4.039-1.25-3.047 0-4.68.758-5.422 1.25h-1.656C38.43 20.758 36.797 20 33.75 20c-1.281 0-3.246.871-4.04 1.25h-.374c1.195-1.387 2.492-3.34 2.973-5.656 2.28.734 5.546.96 8.96 1.199 3.594.254 8.067.562 9.094 1.59.5.5 1.098 1.71 1.578 2.867zm-1.832 1.922l-.32.973a1.255 1.255 0 01-1.188.855h-3.547l-.644-1.934c.617-.261 1.71-.566 3.492-.566.453 0 1.379.324 2.207.672zm-11.21-.11L36.596 25h-3.546c-.54 0-1.016-.344-1.188-.855l-.324-.973c.828-.348 1.758-.672 2.211-.672 1.785 0 2.887.309 3.496.563zM55 26.872v-3.65c.61-.304 1-.32 1.09-.273.023.012.16.219.16.801 0 .887-.469 2.309-1.25 3.121zM30 7.5c.332 0 .648-.133.883-.367C34.64 3.379 35.93 2.5 40 2.5c9.39 0 15 5.61 15 15v3.066c-.188.047-.375.094-.57.168-.516-1.312-1.371-3.191-2.297-4.117-1.688-1.691-5.86-1.98-10.692-2.316-3.722-.262-7.945-.555-9.5-1.59a1.239 1.239 0 00-1.28-.063c-.407.215-.661.641-.661 1.102 0 3.316-2.648 6.105-3.883 7.227a5.568 5.568 0 00-1.117-.41V17.5c0-5.27.383-10 5-10zm-6.09 15.45c.086-.048.48-.032 1.09.273v3.648c-.781-.812-1.25-2.238-1.25-3.121 0-.582.137-.79.16-.8zm3.59.8h1.598l.394 1.188a3.752 3.752 0 003.559 2.562h3.547a2.496 2.496 0 002.37-1.707l.68-2.043h.7l.68 2.04a2.503 2.503 0 002.374 1.71h3.547a3.747 3.747 0 003.559-2.566l.394-1.184H52.5v3.75c0 7.168-7.145 13.75-12.5 13.75-4.277 0-12.5-5.805-12.5-13.75zm3.54 15.992c3.007 2.563 6.51 4.008 8.96 4.008 2.71 0 6.094-1.488 8.965-3.984l.566 2.257L40 49.648l-9.531-7.625zm-3.255 3.336L38 51.25l-4.043 3.234-7.418-9.539zM23.54 53.195a1.25 1.25 0 00-2.078-1.39l-.934 1.398-1.562-2.086 1.96-3.93 3.13-.695c.863 3.668 3.71 14.621 8.664 22.957l-13.512-9.758zm35.934.008l-.934-1.394a1.25 1.25 0 00-1.734-.348 1.25 1.25 0 00-.344 1.734l4.332 6.5-13.512 9.754c4.953-8.332 7.801-19.285 8.664-22.957l3.125.696 1.965 3.93zm0 0"/><path d="M57.5 70c-.691 0-1.25.559-1.25 1.25v7.5c0 .691.559 1.25 1.25 1.25s1.25-.559 1.25-1.25v-7.5c0-.691-.559-1.25-1.25-1.25zm0 0M22.5 70c-.691 0-1.25.559-1.25 1.25v7.5c0 .691.559 1.25 1.25 1.25s1.25-.559 1.25-1.25v-7.5c0-.691-.559-1.25-1.25-1.25zm0 0M52.5 75h-5c-.691 0-1.25.559-1.25 1.25s.559 1.25 1.25 1.25h5c.691 0 1.25-.559 1.25-1.25S53.191 75 52.5 75zm0 0"/></svg>