<svg xmlns="http://www.w3.org/2000/svg" width="80" height="80" fill="#FFFFFF"><path d="M66.285 33.488h-4.7V21.723C61.586 9.746 51.84 0 39.864 0 27.887 0 18.141 9.746 18.141 21.723v11.765h-4.7c-.91 0-1.652.739-1.652 1.649v42.941c0 .91.742 1.649 1.652 1.649h52.844c.91 0 1.653-.739 1.653-1.649V35.137a1.65 1.65 0 00-1.653-1.649zM36.254 61.195a5.2 5.2 0 01-1.664-3.84 5.279 5.279 0 015.273-5.273 5.279 5.279 0 015.274 5.273 5.2 5.2 0 01-1.664 3.84c-.332.313-.524.75-.524 1.207v5.594a3.09 3.09 0 01-3.086 3.086 3.093 3.093 0 01-3.09-3.086v-5.594a1.643 1.643 0 00-.52-1.207zm3.61-49.488c5.519 0 10.011 4.492 10.011 10.016v11.765H29.852V21.723c0-5.52 4.492-10.016 10.011-10.016zm0 0"/></svg>