<svg xmlns="http://www.w3.org/2000/svg" width="80" height="80" fill="#282D37"><path d="M60 80a1.7 1.7 0 01-.648-.129C58.559 79.535 40 71.511 40 55.121v-13.93a1.67 1.67 0 011.133-1.582l18.332-6.187a1.673 1.673 0 011.07 0l18.332 6.187A1.666 1.666 0 0180 41.191v13.93c0 16.39-18.559 24.414-19.352 24.75A1.7 1.7 0 0160 80zM43.332 42.39v12.731c0 12.613 13.52 19.86 16.668 21.375 3.148-1.52 16.668-8.797 16.668-21.375v-12.73L60 36.76zm0 0"/><path d="M58.332 63.332c-.027 0-.062 0-.09-.004a1.636 1.636 0 01-1.207-.621l-6.668-8.332a1.668 1.668 0 01.258-2.344 1.682 1.682 0 012.344.258l5.5 6.879L68.82 48.82a1.67 1.67 0 012.356 0 1.662 1.662 0 010 2.356L59.512 62.844a1.67 1.67 0 01-1.18.488zm0 0M61.668 26.668h-50C5.234 26.668 0 21.434 0 15 0 8.566 5.234 3.332 11.668 3.332h50c6.434 0 11.664 5.234 11.664 11.668 0 6.434-5.23 11.668-11.664 11.668zm-50-20c-4.598 0-8.336 3.734-8.336 8.332 0 4.598 3.738 8.332 8.336 8.332h50C66.262 23.332 70 19.598 70 15c0-4.598-3.738-8.332-8.332-8.332zm0 0"/><path d="M15 20c-2.758 0-5-2.242-5-5s2.242-5 5-5 5 2.242 5 5-2.242 5-5 5zm0-6.668c-.918 0-1.668.75-1.668 1.668 0 .918.75 1.668 1.668 1.668.918 0 1.668-.75 1.668-1.668 0-.918-.75-1.668-1.668-1.668zm0 0M31.668 20c-2.758 0-5-2.242-5-5s2.242-5 5-5c2.754 0 5 2.242 5 5s-2.246 5-5 5zm0-6.668c-.918 0-1.668.75-1.668 1.668 0 .918.75 1.668 1.668 1.668.914 0 1.664-.75 1.664-1.668 0-.918-.75-1.668-1.664-1.668zm0 0M31.668 46.668h-20C5.234 46.668 0 41.434 0 35c0-3.113 1.215-6.04 3.422-8.246a11.577 11.577 0 018.246-3.422h50c2.605 0 5.062.84 7.094 2.422a1.666 1.666 0 11-2.051 2.629 8.132 8.132 0 00-5.043-1.715h-50a8.28 8.28 0 00-5.89 2.441A8.274 8.274 0 003.331 35c0 4.598 3.738 8.332 8.336 8.332h20c.918 0 1.664.746 1.664 1.668 0 .922-.746 1.668-1.664 1.668zm0 0"/><path d="M15 40c-2.758 0-5-2.242-5-5s2.242-5 5-5 5 2.242 5 5-2.242 5-5 5zm0-6.668c-.918 0-1.668.75-1.668 1.668 0 .918.75 1.668 1.668 1.668.918 0 1.668-.75 1.668-1.668 0-.918-.75-1.668-1.668-1.668zm0 0M31.668 40c-2.758 0-5-2.242-5-5s2.242-5 5-5c2.754 0 5 2.242 5 5s-2.246 5-5 5zm0-6.668c-.918 0-1.668.75-1.668 1.668 0 .918.75 1.668 1.668 1.668.914 0 1.664-.75 1.664-1.668 0-.918-.75-1.668-1.664-1.668zm0 0M31.668 66.668h-20C5.234 66.668 0 61.434 0 55c0-3.113 1.215-6.04 3.422-8.246a11.577 11.577 0 018.246-3.422h20c.918 0 1.664.746 1.664 1.668 0 .922-.746 1.668-1.664 1.668h-20a8.28 8.28 0 00-5.89 2.441A8.274 8.274 0 003.331 55c0 4.598 3.738 8.332 8.336 8.332h20c.918 0 1.664.746 1.664 1.668 0 .922-.746 1.668-1.664 1.668zm0 0"/><path d="M15 60c-2.758 0-5-2.242-5-5s2.242-5 5-5 5 2.242 5 5-2.242 5-5 5zm0-6.668c-.918 0-1.668.75-1.668 1.668 0 .918.75 1.668 1.668 1.668.918 0 1.668-.75 1.668-1.668 0-.918-.75-1.668-1.668-1.668zm0 0M31.668 60c-2.758 0-5-2.242-5-5s2.242-5 5-5c2.754 0 5 2.242 5 5s-2.246 5-5 5zm0-6.668c-.918 0-1.668.75-1.668 1.668 0 .918.75 1.668 1.668 1.668.914 0 1.664-.75 1.664-1.668 0-.918-.75-1.668-1.664-1.668zm0 0"/></svg>