<svg xmlns="http://www.w3.org/2000/svg" width="80" height="80" fill="#FFFFFF"><path d="M79.21.207a1.557 1.557 0 00-1.57.012l-28.632 16.93a1.561 1.561 0 00-.547 2.14 1.56 1.56 0 002.137.55L71.145 7.692l-38.27 39.704-19.031-5.82 24.84-14.688a1.561 1.561 0 00.546-2.14 1.56 1.56 0 00-2.136-.552L9.204 40.687a1.565 1.565 0 00.34 2.84l22.73 6.953L42.3 68.73c.008.02.02.036.031.051a1.57 1.57 0 001.336.762 1.57 1.57 0 001.094-.445l11.531-11.27 21.687 6.633c.149.047.305.07.457.07.333 0 .657-.105.93-.304.399-.297.633-.762.633-1.258V1.562C80 1 79.7.484 79.21.208zM42.388 51.441a1.554 1.554 0 00-.282.891v9.559l-6.843-12.465 30.297-31.438zm2.843 12.825v-9.82l7.657 2.34zm31.645-3.41l-30.703-9.391L76.875 7.14zm0 0"/><path d="M25.691 54.309a1.565 1.565 0 00-2.21 0L8.894 68.895a1.562 1.562 0 102.21 2.21L25.691 56.52c.61-.61.61-1.602 0-2.211zm0 0M6.262 73.738a1.565 1.565 0 00-2.211 0L.457 77.332a1.562 1.562 0 102.21 2.21l3.595-3.593c.61-.61.61-1.601 0-2.21zm0 0M22.29 77.242a1.568 1.568 0 00-1.106-.46c-.41 0-.813.167-1.106.46-.289.29-.457.692-.457 1.102 0 .414.168.816.457 1.105a1.564 1.564 0 002.668-1.105c0-.41-.168-.813-.457-1.102zm0 0M33.914 65.613a1.565 1.565 0 00-2.21 0L23.98 73.34a1.558 1.558 0 000 2.21c.305.305.704.458 1.102.458.402 0 .8-.153 1.105-.457l7.727-7.727c.61-.61.61-1.597 0-2.21zm0 0M60.578 65.023a1.558 1.558 0 00-2.21 0L50.62 72.77a1.56 1.56 0 000 2.207c.305.308.707.46 1.106.46.398 0 .8-.152 1.105-.46l7.746-7.747a1.56 1.56 0 000-2.207zm0 0M44.297 21.297a1.58 1.58 0 00-1.106-.457c-.41 0-.812.168-1.105.457a1.59 1.59 0 00-.457 1.11c0 .41.168.812.457 1.1a1.564 1.564 0 002.668-1.102 1.59 1.59 0 00-.457-1.108zm0 0"/></svg>