<svg xmlns="http://www.w3.org/2000/svg" width="80" height="80" fill="#FFFFFF"><path d="M28.938 29.566h1.023a1.17 1.17 0 001.172-1.171 1.17 1.17 0 00-1.172-1.172h-.34v-2.43a1.173 1.173 0 00-2.344 0v3.113c0 .914.743 1.66 1.66 1.66zm0 0M34.371 33.516a1.174 1.174 0 00-.363-1.618 1.17 1.17 0 00-1.617.364c-.66 1.043-2.098 1.715-3.668 1.715-1.563 0-3.004-.672-3.664-1.715a1.17 1.17 0 00-1.618-.364 1.174 1.174 0 00-.363 1.618c1.098 1.73 3.262 2.804 5.645 2.804 2.39 0 4.55-1.074 5.648-2.804zm0 0M35.852 24.484c.644 0 1.171-.523 1.171-1.172v-1.417c0-.645-.527-1.172-1.171-1.172-.649 0-1.172.527-1.172 1.172v1.418a1.17 1.17 0 001.172 1.171zm0 0M21.598 20.723c-.649 0-1.172.527-1.172 1.172v1.418a1.17 1.17 0 001.172 1.171 1.17 1.17 0 001.172-1.172v-1.417c0-.645-.524-1.172-1.172-1.172zm0 0M58.063 48.395h.78a1.173 1.173 0 00.02-2.344v-1.563a1.17 1.17 0 00-1.172-1.172 1.17 1.17 0 00-1.171 1.172v2.364c0 .847.69 1.543 1.542 1.543zm0 0M62.426 51.262a1.171 1.171 0 10-1.98-1.254c-.45.71-1.45 1.172-2.544 1.172-1.093 0-2.093-.461-2.543-1.172a1.171 1.171 0 10-1.98 1.254c.883 1.394 2.617 2.261 4.523 2.261 1.907 0 3.641-.867 4.524-2.261zm0 0M63.313 44.535a1.17 1.17 0 001.171-1.172v-.687a1.17 1.17 0 00-1.171-1.172 1.17 1.17 0 00-1.172 1.172v.687a1.17 1.17 0 001.172 1.172zm0 0M53.664 43.363v-.687a1.173 1.173 0 00-2.344 0v.687a1.173 1.173 0 002.344 0zm0 0"/><path d="M77.012 64.332a1.169 1.169 0 00-1.657-.039 1.172 1.172 0 00-.043 1.656c1.376 1.442 2.336 3.633 2.336 5.328v6.38h-3.882v-3.985a1.17 1.17 0 00-1.172-1.172 1.17 1.17 0 00-1.172 1.172v3.984h-27.04v-3.984a1.173 1.173 0 00-2.343 0v3.984h-3.883v-6.379c0-2.12 1.473-4.898 3.23-6.105 1.801-.91 3.684-1.672 5.61-2.274 1.957 2.059 6.02 3.352 10.723 3.352 4.71 0 8.875-1.355 10.797-3.441.015.004 1.656.53 2.437.832a1.173 1.173 0 001.512-.68 1.179 1.179 0 00-.68-1.512c-1.594-.648-5.676-1.699-6.8-1.91-.817-.148-1.497-.723-1.41-2.164a12.774 12.774 0 009.519-12.355v-8.172c0-.668-.059-1.348-.18-2.016a2.91 2.91 0 00-.441-2.355 3.066 3.066 0 00-.485-.543 11.463 11.463 0 00-11.351-6.512h-5.473a11.514 11.514 0 00-6.805 1.547V14.734c0-4.132-1.75-8.097-4.797-10.882A14.785 14.785 0 0032.29.059c-1.187.109-2.379.222-3.574.238-1.192.016-2.371-.129-3.559-.238a14.776 14.776 0 00-11.27 3.793 14.766 14.766 0 00-4.8 10.882V48.07c-1.16.485-2.3 1.016-3.426 1.586A10.287 10.287 0 000 58.875v1.504a1.17 1.17 0 001.172 1.172 1.17 1.17 0 001.172-1.172v-1.504a7.953 7.953 0 014.375-7.129 48.61 48.61 0 017.758-3.133c2.425 2.703 7.875 4.473 14.003 4.473 6.247 0 11.73-1.816 14.106-4.586l.125.035v6.836a2.431 2.431 0 002.43 2.426h7.09c0 .824-.606 1.539-1.41 1.742-7.817 1.984-10.641 3.617-10.68 3.645-2.426 1.617-4.328 5.171-4.328 8.093v6.38H10.98V65.48c0-.644-.527-1.171-1.171-1.171-.649 0-1.172.527-1.172 1.171v12.176H2.344v-11.82a1.17 1.17 0 00-1.172-1.172A1.17 1.17 0 000 65.836v11.977C0 79.02.98 80 2.188 80h75.617c1.207 0 2.187-.98 2.187-2.188v-6.535c0-2.28-1.195-5.07-2.98-6.945zm-24.88-10.203c-1.655-1.266-3.628-3.484-3.628-6.883l-.027-7.52c2.77.333 9.351.579 12.73-3.874l.305-.012c.129.11 2.27 1.144 3.047 1.281.71.945 2.207 2.516 2.765 2.813l-.023 7.316c0 3.395-1.973 5.613-3.63 6.879-2.046 1.566-4.417 2.312-5.769 2.351-1.351-.039-3.722-.785-5.77-2.351zm5.77-21.332l1.344-3.2c.164-.386.707-.476.988-.163l1.832 2.035-.855 2.039-2.738.11a.599.599 0 01-.57-.821zm9.395.875l2.738-.113c.426-.024.735.433.57.82l-1.347 3.2a.596.596 0 01-.985.163l-1.835-2.035zm2.367 7.16a1.345 1.345 0 011.086 1.316v1.192c0 .656-.477 1.207-1.098 1.32zm-5.293-6.25l-.91-.383.676-1.605.91.383zm4.711 16.098c.352-1.016.563-2.39.563-3.66.328-.024.648-.086.945-.188a10.376 10.376 0 01-1.508 3.848zm-.242-19.418l-1.848.074a1.677 1.677 0 00-.433-.266l-2.118-.89c-.16-.07-.328-.11-.496-.125 0 0-2.058-2.285-2.101-2.328a9.12 9.12 0 016.996 3.535zm-13.832-3.5c.035.004 2.691.004 2.691.004a2.946 2.946 0 00-.613.925l-1.344 3.196a2.908 2.908 0 00.293 2.812 2.932 2.932 0 001.758 1.192c-3.18 2.164-7.961 1.683-9.582 1.433a1.812 1.812 0 00-1.961 1.14c-.422.02-.824.106-1.195.25v-1.866a9.144 9.144 0 012.91-6.68l.039-.035.023-.024a9.156 9.156 0 016.98-2.347zM37.965 44.98a2.615 2.615 0 01-2.14-2.578v-1.336a18.52 18.52 0 002.148-1.418c2.668-2.035 5.843-5.195 5.843-11.882h.004c.774 0 1.559-.2 2.196-.543v1.57a11.502 11.502 0 00-3.305 8.055v9.246a51.578 51.578 0 00-4.746-1.114zm-17.067-7.195c-2.246-1.715-4.921-4.73-4.921-9.36l-.043-10.679c2.394-.383 8.027-1.703 12.789-5.988 4.761 4.285 10.394 5.605 12.793 5.988l-.043 10.684c0 4.625-2.676 7.64-4.922 9.355-2.77 2.117-5.992 3.125-7.828 3.176-1.836-.05-5.059-1.059-7.825-3.176zm25.118-14.504c0 1.18-1.008 2.14-2.188 2.14l.024-5.847c1.18 0 2.164.961 2.164 2.14zm-.961 18.867c0-.648.465-1.195 1.082-1.316l.011 3.828a1.346 1.346 0 01-1.093-1.32zM15.469 5.582a12.414 12.414 0 019.476-3.187c1.258.113 2.516.257 3.778.265 1.265.012 2.523-.152 3.78-.265a12.42 12.42 0 019.477 3.187 12.414 12.414 0 014.036 9.152v3.04a4.484 4.484 0 00-2.137-.544h-.02v-.101a1.622 1.622 0 00-1.418-1.617c-1.734-.219-7.765-1.285-12.59-5.91a1.633 1.633 0 00-2.253 0c-4.825 4.625-10.856 5.691-12.59 5.91a1.628 1.628 0 00-1.422 1.617l.004.101c-.777 0-1.524.2-2.16.543v-3.039c0-3.476 1.472-6.808 4.039-9.152zm-4.04 16.133c0-1.18.989-2.14 2.169-2.14l.023 5.847c-1.18 0-2.191-.961-2.191-2.14zm0 5.508a4.734 4.734 0 002.2.543h.004c0 6.53 3.176 9.847 5.84 11.882.699.536 1.425 1.008 2.152 1.418v1.336a2.619 2.619 0 01-2.14 2.578 50.986 50.986 0 00-8.055 2.18zm17.051 23.52c-5.332 0-9.257-1.329-11.335-2.864a51.054 51.054 0 012.761-.594c2.356-.433 4.063-2.691 4.063-5.09 1.797.723 3.484 1.082 4.73 1.11H28.75c1.246-.028 2.93-.387 4.73-1.11 0 2.399 1.708 4.657 4.06 5.09.808.149 1.612.32 2.413.508-2.488 1.941-7.316 2.95-11.473 2.95zm16.575 4.628v-8.598c.343.137.715.22 1.105.247 0 3.898 1.985 6.785 3.887 8.433H45.14a.083.083 0 01-.086-.082zm6.191 6.473a4.06 4.06 0 003.32-3.735c1.258.465 2.426.696 3.313.715h.047c.886-.02 2.054-.25 3.312-.715a4.056 4.056 0 003.32 3.735c.387.074.778.152 1.169.238-1.653 1.02-4.473 1.824-8.008 1.824-3.45 0-6.235-.777-7.903-1.765.477-.11.954-.207 1.43-.297zm0 0"/></svg>