<svg xmlns="http://www.w3.org/2000/svg" width="80" height="80" fill="#FFFFFF"><path d="M40 23.594H11.719a2.346 2.346 0 00-2.344 2.343c0 9.032 7.48 16.407 16.563 16.407 9.046 0 16.406-7.36 16.406-16.407A2.346 2.346 0 0040 23.595zM25.937 37.656c-5.734 0-10.53-4.031-11.636-9.375h23.12c-1.089 5.344-5.823 9.375-11.483 9.375zm0 0M16.563 18.906h4.687a2.346 2.346 0 002.344-2.343 2.346 2.346 0 00-2.344-2.344h-4.688a2.346 2.346 0 00-2.343 2.344 2.346 2.346 0 002.344 2.343zm0 0M30.625 18.906h4.688a2.346 2.346 0 002.343-2.343 2.346 2.346 0 00-2.343-2.344h-4.688a2.346 2.346 0 00-2.344 2.344 2.346 2.346 0 002.344 2.343zm0 0"/><path d="M54.063 28.281c-.825 0-1.645.043-2.461.117.074-.808.117-1.628.117-2.46C51.719 11.636 40.152 0 25.937 0 11.684 0 0 11.688 0 25.938c0 14.214 11.637 25.78 25.938 25.78.832 0 1.652-.042 2.46-.116a27.17 27.17 0 00-.117 2.46C28.281 68.364 39.848 80 54.063 80 68.316 80 80 68.312 80 54.062c0-14.214-11.637-25.78-25.938-25.78zM4.687 25.938c0-11.72 9.532-21.25 21.25-21.25 11.633 0 21.094 9.53 21.094 21.25 0 11.632-9.46 21.093-21.093 21.093-11.72 0-21.25-9.46-21.25-21.093zm49.376 49.374c-11.633 0-21.094-9.53-21.094-21.25 0-1.14.093-2.28.273-3.398 8.352-2.473 14.95-9.07 17.422-17.422a21.442 21.442 0 013.398-.273c11.72 0 21.25 9.46 21.25 21.093 0 11.72-9.53 21.25-21.25 21.25zm0 0"/><path d="M54.063 56.406a16.424 16.424 0 00-12.22 5.469 2.346 2.346 0 00.18 3.309c.965.863 2.45.78 3.313-.184a11.742 11.742 0 018.727-3.906c3.32 0 6.503 1.426 8.726 3.906a2.347 2.347 0 003.313.184 2.346 2.346 0 00.18-3.309 16.424 16.424 0 00-12.22-5.469zm0 0M44.688 51.719h4.687a2.346 2.346 0 002.344-2.344 2.346 2.346 0 00-2.344-2.344h-4.688a2.346 2.346 0 00-2.343 2.344 2.346 2.346 0 002.343 2.344zm0 0M58.75 51.719h4.688a2.346 2.346 0 002.343-2.344 2.346 2.346 0 00-2.344-2.344H58.75a2.346 2.346 0 00-2.344 2.344 2.346 2.346 0 002.344 2.344zm0 0"/></svg>