<svg xmlns="http://www.w3.org/2000/svg" width="80" height="80" fill="#FFFFFF"><path d="M26.516 36.313L66.563 59.64H13.75v.718h52.813zm0 21.984H13.75v.719h52.813zM16.5 62.953h-1.016l-1.796 4.297h1.124l.313-.844h1.656l.328.844h1.157zm-1.063 2.625l.547-1.469.532 1.47zm13 1.672h-1.015l.015-3.031-1.109 3.031h-.75l-1.094-3.031.016 3.031h-.984v-4.297h1.468l.985 2.75h.015l.938-2.75h1.5v4.297zm4.204-3.422h-1.907v.813h1.782v.828h-1.782v.89h2v.891h-3v-4.297h2.907zm11.109 0h-1.813v.906h1.657v.86h-1.657v1.672h-1.03v-4.297h2.827zm18.656 0h-1.89v.813h1.78v.828h-1.78v.89h2v.891H59.53v-4.297h2.89zM31.25 78.906h-1.156l-2.547-6.437h1.547l1.625 4.469 1.61-4.47h1.515zm7.766-5.187H36.03v1.25h2.813v1.219H36.03v1.421h3.125v1.282h-4.515v-6.438h4.375zm7.25 5.187H44.64l-2.703-4.375v4.375H40.53V72.47h1.688l2.625 4.234V72.47h1.406zm4.765-6.437h-1.156l-2.797 6.437h1.547l.563-1.406h2.453l.578 1.406h1.578zm-1.343 3.781l.734-1.922.719 1.922zm10.656 2.656h-1.625l-2.703-4.375v4.375h-1.407V72.47h1.688l2.625 4.234V72.47h1.406zm6.172-5.187H64.64v5.187h-1.407v-5.172H61.36V72.47h5.157zM20.703 62.953h-1.64v4.297h1.015v-1.703h.36l.937 1.703h1.219l-1.125-1.844c.25-.062.484-.219.656-.422.156-.203.25-.468.234-.734.016-.219-.047-.422-.14-.625a1.167 1.167 0 00-.39-.39 1.592 1.592 0 00-.532-.22c-.203-.015-.406-.046-.594-.062m-.64 1.86v-1h.796c.078.015.157.03.235.062a.488.488 0 01.172.14.458.458 0 01.062.25.446.446 0 01-.25.422c-.078.032-.156.063-.25.079-.094.015-.172.015-.265.015zm15.312-1.844h-1.547v4.297h1.594c.297 0 .594-.047.875-.125a1.98 1.98 0 00.766-.391c.234-.188.437-.422.562-.688.14-.296.219-.64.203-.968a2.093 2.093 0 00-.219-1.016 1.756 1.756 0 00-.562-.656 2.106 2.106 0 00-.766-.344 4.338 4.338 0 00-.89-.11m-.516 3.391v-2.515h.516c.172 0 .343.015.515.062.157.032.313.11.453.203.141.094.25.235.313.391.156.39.156.813 0 1.203a1.278 1.278 0 01-.313.39c-.14.094-.297.173-.453.204-.172.047-.36.062-.531.062zm12.11-3.515c-.313 0-.641.047-.938.156-.281.094-.531.25-.734.453a1.96 1.96 0 00-.485.703 2.13 2.13 0 00-.172.938c0 .312.063.64.172.937.11.266.281.516.484.719.22.203.47.36.735.469.61.219 1.266.219 1.86 0 .28-.11.53-.266.75-.469.218-.203.374-.453.484-.719a2.13 2.13 0 00.172-.937c0-.313-.063-.64-.172-.938-.11-.265-.282-.5-.485-.703a2.295 2.295 0 00-.75-.453 2.66 2.66 0 00-.922-.156m0 3.578c-.172 0-.343-.031-.5-.094a1.132 1.132 0 01-.39-.281 1.435 1.435 0 01-.25-.422 1.552 1.552 0 010-1.063 1.207 1.207 0 011.14-.813c.172.001.344.032.5.095.141.062.282.156.391.281a1.435 1.435 0 01.344.938 1.435 1.435 0 01-.344.953c-.11.125-.234.218-.39.28-.157.079-.329.11-.5.126m5.093-3.484h-1.656v4.296h1.016v-1.703h.359l.937 1.703h1.22l-1.126-1.843c.25-.063.484-.22.656-.422.157-.203.25-.469.235-.735.015-.218-.047-.421-.14-.625a1.167 1.167 0 00-.392-.39 1.592 1.592 0 00-.53-.219 2.691 2.691 0 00-.61-.063m-.64 1.86v-1h.796c.078.016.156.031.234.062a.488.488 0 01.172.141.458.458 0 01.063.25.446.446 0 01-.25.422c-.078.031-.156.062-.25.078s-.172.016-.266.016zm5.562-1.969c.312 0 .61.063.89.156.282.094.516.25.72.47l-.704.702a.821.821 0 00-.39-.297 1.353 1.353 0 00-.984 0c-.142.063-.282.157-.392.282-.109.125-.203.265-.25.421a1.61 1.61 0 000 1.079c.063.156.141.296.25.421.11.11.235.204.391.266.156.063.328.094.484.094.188 0 .375-.031.547-.125.157-.078.282-.188.39-.313l.72.672a1.91 1.91 0 01-.703.516 2.235 2.235 0 01-.97.187 2.66 2.66 0 01-.921-.156 2.12 2.12 0 01-1.219-1.187 2.546 2.546 0 010-1.86 2.13 2.13 0 011.234-1.172c.297-.109.61-.156.922-.156m8.141.031c.25 0 .5.047.75.141.25.078.469.219.656.39l-.656.704a1.13 1.13 0 00-.344-.266.93.93 0 00-.422-.094h-.203c-.062.016-.14.032-.187.063a.307.307 0 00-.14.14.344.344 0 00-.063.204c0 .062.015.125.046.187a.369.369 0 00.141.125c.063.047.14.078.203.094l.281.094.454.156c.156.062.296.14.437.234.125.094.234.219.313.36.093.156.14.343.125.53 0 .22-.047.438-.141.641a1.345 1.345 0 01-.39.454 1.696 1.696 0 01-.532.265 2.04 2.04 0 01-.61.078c-.296 0-.609-.062-.89-.156a1.936 1.936 0 01-.719-.453l.672-.688c.11.141.25.25.422.329.156.078.328.125.516.125.078 0 .156 0 .219-.016a.676.676 0 00.187-.078.397.397 0 00.156-.125.5.5 0 00.047-.219.314.314 0 00-.062-.203c-.047-.063-.11-.11-.172-.156-.094-.047-.188-.094-.281-.125l-.391-.125c-.125-.047-.266-.094-.39-.156a1.337 1.337 0 01-.344-.235 1.08 1.08 0 01-.25-.344 1.353 1.353 0 01-.094-.5c0-.218.047-.421.14-.609.094-.172.235-.313.391-.422.156-.11.344-.187.531-.234.203-.047.406-.078.594-.078m-47.953 9.422c.219 0 .422.015.64.062.22.031.438.094.641.188.203.078.406.187.578.296.188.125.36.282.5.454l.094.124-1.078.86-.094-.125a1.252 1.252 0 00-.562-.422 2.034 2.034 0 00-1.516.016c-.234.109-.453.25-.625.437a2.151 2.151 0 00-.39.656c-.094.266-.141.547-.141.829 0 .296.047.593.14.874.079.25.22.47.391.657.172.187.375.328.594.422.25.109.531.156.797.156.28 0 .562-.063.812-.172.219-.11.422-.266.563-.469l.093-.125 1.141.797-.094.125c-.281.36-.64.64-1.047.844a3.252 3.252 0 01-1.437.297 3.76 3.76 0 01-1.375-.25A3.124 3.124 0 0114 77.078a3.461 3.461 0 01-.25-1.375c0-.484.078-.953.266-1.39.156-.407.39-.766.703-1.063a3.202 3.202 0 011.11-.672 2.998 2.998 0 011.343-.266m6.484 0c-.468 0-.922.079-1.36.235-.405.14-.78.375-1.093.672a2.912 2.912 0 00-.719 1.062 3.795 3.795 0 00-.265 1.39c0 .47.078.938.265 1.376.172.406.407.766.72 1.078.312.297.687.547 1.093.703.437.172.906.25 1.375.25a3.76 3.76 0 001.375-.25c.406-.156.781-.39 1.094-.703.312-.297.562-.672.718-1.063.172-.437.266-.906.266-1.374 0-.47-.078-.954-.266-1.391a2.912 2.912 0 00-.718-1.063 3.049 3.049 0 00-1.094-.671 3.32 3.32 0 00-1.39-.25m0 5.453c-.266 0-.548-.047-.798-.157a1.687 1.687 0 01-.609-.437 2.151 2.151 0 01-.39-.656 2.609 2.609 0 010-1.688c.078-.25.218-.469.39-.656.172-.188.375-.344.61-.438.25-.109.53-.156.796-.156.282 0 .547.047.813.156.234.11.437.25.61.438.171.187.296.422.39.656.093.266.14.547.14.828 0 .297-.047.578-.14.86-.078.25-.219.468-.39.656-.173.187-.392.328-.626.437a1.96 1.96 0 01-.797.157M42.984 11.5c-.125.25-.265.531-.422.813l-1.437 2.921c2.531-1.343 5.64-2.218 7.86-2.25a14.527 14.527 0 00-6-1.484m4.421-9.047l-.562 1.125c1.906 1.031 4.031 3.203 5.297 5.39.593.282 1.156.595 1.703.891-1.532-3.03-3.969-5.906-6.438-7.406m-.922 1.875c-.422.875-.922 1.86-1.375 2.766.047 0 4.063.593 5.813 1.328-1.125-1.703-2.953-3.016-4.438-4.094m14.157 16.203a15.771 15.771 0 003.906 4.235c.422-1 .844-2.016 1.266-3.047h-.141a12.767 12.767 0 01-5.031-1.188M58 19.094c1.469 2.984 3.688 6 5.781 7.453.157-.39.266-.64.422-1.016C62.61 24.406 60.781 22.11 59.61 20A16.595 16.595 0 0158 19.062m11.031-5.093a21.204 21.204 0 01-6.797 1.625c1.188.703 3.641 1.328 5.297 1.328h.219c.438-.985.86-1.969 1.281-2.953M50.297 2.64c2 1.562 4.031 4.875 5 6.984l1.844-3.922c-2.016-1.422-4.172-2.61-6.844-3.062m10.766 6a161.704 161.704 0 01-1.75 3.796c.343.016.843.047 1.453.047 2 .016 3.984-.234 5.89-.765-2-.735-3.89-1.766-5.594-3.078m7.047 3.484c-2.609 1.016-5.437 1.188-7.296 1.219-.922 0-1.954.047-1.954.047l1.344.968h.14c.907 0 5.829-.093 9.407-1.921l-.14-.016a14.982 14.982 0 01-1.5-.297m-11.782 6.766c-.61 1.312-1.297 2.78-1.922 4.125 2.266 1.672 4.39 3.28 6.938 3.859a44.2 44.2 0 01-5.016-7.984m1.594-12.625c-.844 1.812-2.625 5.625-2.625 5.625l-.016.046A18.556 18.556 0 0044.656 8l-.906 1.844-.313.672a19.548 19.548 0 0110.344 4.218l.14.11-.015.047s-1.843 3.859-2.781 5.843c.875.532 1.703 1.11 2.5 1.688.89-1.922 2.672-5.735 2.672-5.735 4.016 2.97 6.297 4 9.89 4.094.36-.89.829-2.031 1.188-2.906-3.563-.188-5.672-1.047-9.734-4.094v-.031l2.656-5.656C59.5 7.5 58.719 6.89 57.922 6.297m-5.625 9.765c-2.797.094-5.516.86-7.953 2.25 2.078.235 4.093.891 5.906 1.922.61-1.25 1.547-3.078 2.047-4.172m-.938-1.828c-3.047.094-7.937.922-11.843 4.297a20.64 20.64 0 012.578-.281c3.203-1.922 6.86-3 10.593-3.14a14.978 14.978 0 00-1.328-.876zM27.297 6.86h-1.844c.36.235.469.563.469 1.11-.531 0-.75 0-1.016-.407V8.97c.266-.422.5-.422 1-.422a1.634 1.634 0 01-1.015 1.484h2.984a1.75 1.75 0 01-1.063-1.484c.516 0 .735 0 1.047.422V7.563c-.312.406-.53.421-1.062.421-.063-.453.14-.875.5-1.125m-9.313 7.157a.387.387 0 00-.39.39c0 .219.187.406.406.406a.414.414 0 00.406-.406.387.387 0 00-.39-.39m-.36-1.204a.41.41 0 00-.39.407c0 .219.187.406.406.406a.414.414 0 00.406-.406.41.41 0 00-.39-.406m.078-1.157a.387.387 0 00-.391.39c0 .22.172.392.39.392.22 0 .391-.172.391-.391-.015-.219-.187-.39-.39-.39m.484-1.079a.387.387 0 00-.39.39c0 .22.171.391.39.391s.39-.171.39-.39a.387.387 0 00-.39-.39m.984-.813a.387.387 0 00-.39.39c0 .219.172.39.39.39.22 0 .391-.171.391-.39a.387.387 0 00-.39-.39m1.187-.454a.387.387 0 00-.39.391c0 .219.171.406.405.406a.403.403 0 00.407-.406.387.387 0 00-.39-.39m1.28.156a.387.387 0 00-.39.39c0 .22.172.391.39.391.22 0 .391-.172.391-.39a.387.387 0 00-.39-.391m1.156.312a.387.387 0 00-.391.39c0 .22.172.392.39.392.22 0 .391-.172.391-.391a.387.387 0 00-.39-.39m1.187.39a.41.41 0 00-.39.406c0 .219.187.406.406.406a.414.414 0 00.406-.406.407.407 0 00-.422-.406c.016 0 .016 0 0 0m8.172-.875a.387.387 0 00-.39.39c0 .22.187.407.406.407a.414.414 0 00.406-.406.387.387 0 00-.39-.391M31 9.453a.387.387 0 00-.39.39c0 .22.171.391.39.391s.39-.171.39-.39c-.015-.219-.171-.39-.39-.39m-1.172.312a.403.403 0 00-.406.406c0 .219.172.406.406.406a.394.394 0 00.406-.406.403.403 0 00-.406-.406m-1.187.39a.387.387 0 00-.391.39v.032c0 .219.188.406.406.406a.414.414 0 00.407-.406.385.385 0 00-.36-.406h-.031m3.172.547c-1.422 0-3.172.765-4.094 1.234v-.094a2.548 2.548 0 01.125-.968h-3.031c.093.312.14.64.125.968v.11c-.922-.438-2.703-1.235-4.125-1.235a2.167 2.167 0 00-1.703.641c-.891.984-.391 2.516-.172 3.172l.547-.188c-.203-.593-.625-1.859.047-2.609.343-.328.796-.5 1.28-.453 1.407 0 3.298.906 4.048 1.265l.078.032v1.578c.36.375.562.86.562 1.375a.87.87 0 01-.672-.39v1.812a.954.954 0 01.672-.422c-.031.719-.39 1.515-1.172 1.61h-.187a1.117 1.117 0 01-1.156-.876.941.941 0 01.25-.953.562.562 0 01.765.203.555.555 0 01.063.14c.218-.53.234-.983-.078-1.327a.659.659 0 00-.532-.266.585.585 0 00-.484.235c.11-1.204-.516-1.766-.844-1.891-.297.187-.75.906-.328 2.031a.84.84 0 00-.328-.078.657.657 0 00-.656.469c-.125.422-.032.89.25 1.234 0-.312.25-.578.562-.578h.016c.062 0 .125.016.187.047.313.11.453.515.485.812.078.61-.375 1.157-.985 1.235h-.218c-.641 0-1.125-.625-1.407-1.375h.141c.234 0 .469.078.64.234l-.484-1.765a1.102 1.102 0 01-.547.609c-.093-.656-.062-1.266.157-1.547l-1.157.438L20.5 20.64h11.61l2.015-5.453-1.156-.438c.218.281.265.89.156 1.547a1.084 1.084 0 01-.578-.625l-.484 1.765c.187-.156.421-.234.656-.234h.156c-.281.766-.766 1.375-1.406 1.375h-.125a1.13 1.13 0 01-1.047-1.187v-.047c.031-.297.172-.703.5-.813.062-.015.11-.031.172-.031.312 0 .578.25.578.578.281-.344.36-.812.25-1.234a.659.659 0 00-.672-.485.914.914 0 00-.344.079c.422-1.141-.031-1.844-.328-2.032-.344.11-.953.688-.844 1.89a.585.585 0 00-.484-.233.659.659 0 00-.531.265c-.297.36-.297.813-.078 1.328a.554.554 0 01.547-.422c.093 0 .203.032.28.078.266.235.36.61.25.954-.109.53-.593.89-1.14.875h-.172c-.765-.094-1.156-.875-1.172-1.578.266.03.5.171.672.39v-1.828a.925.925 0 01-.656.422c0-.516.219-1.016.578-1.39v-1.595l.047-.03c.766-.36 2.64-1.266 4.047-1.266a1.69 1.69 0 011.281.453c.672.75.25 2 .047 2.61l.531.187c.219-.657.735-2.172-.172-3.172a2.21 2.21 0 00-1.687-.64m2.828 3.312a.385.385 0 00-.406.359v.031c0 .219.187.406.406.406a.414.414 0 00.406-.406.41.41 0 00-.406-.39M35 12.812a.41.41 0 00-.39.407c0 .219.171.406.406.406a.394.394 0 00.406-.406.41.41 0 00-.39-.406m-.079-1.157a.403.403 0 00-.406.406c0 .22.172.407.406.407a.394.394 0 00.406-.406.403.403 0 00-.406-.407m-.516-1.094a.387.387 0 00-.39.391c0 .219.172.39.39.39.22 0 .391-.171.391-.39-.016-.219-.187-.39-.39-.39m-1-.813a.403.403 0 00-.407.406c0 .219.172.406.407.406a.394.394 0 00.406-.406.394.394 0 00-.407-.406m20.126 29.719c-.188.453-.157.968.109 1.39-.422-.453-1.547-2.187-.36-3.468.36.14.36.453.688.625.39.203.64-.282.406-.547-.234-.266-.906-.766-1.86 0-.812.672-.718 2.843-.03 4.297 1.422 3 2.656 5.984.172 7.984-1.282 1.031-3.204-.328-3.204-.328s-.89 2.25.594 2.531c1.031.188 2.031-.531 2.188-.594a.898.898 0 01.953.203c.437.313.468.579.468.579l.797.437s.078 3.797-.156 5.281a1.725 1.725 0 01-.344.875h-4.703s-.14-1.78.719-2.53c1.047.343 1.547.39 2.094.046 1.078-.656.328-2.094.328-2.094a29.104 29.104 0 01-4.203.688 15.216 15.216 0 01-3.86-.125s-1.328-2.157-1.547-4.219c-1.312.188-2.843.547-2.562 1.39.188.563 1.984 1.36 1.984 1.36s-.39 3.781-1.375 5.453h-6.406s.125-2.187 1.719-2.781c.5.672 2.375 1.578 3.5-.953-1.078-.625-4.375-2.86-4.953-5.953 1.64-2.5 4.672-3.22 6.172-3.5-.328-.297-1.5-1.547-3.078-1.078a4.132 4.132 0 01-1.22-1.735 12.271 12.271 0 01-6.312-3.203c-.297-.047-1.156-.11-1.562-.438l-9.407 19.626H18.5l9.422-19.657c-2.5-.047-1.672-2.265-1.36-2.765.22-.438 1.485-2.266 3.47-1.563l.812-1.687c-.39.078-.828-.422-.313-1.063-.531-.281-.562-1.469.344-1.61-.188-.484-.156-1.25.844-1.546.36-.078.734 0 1.047.187L46.14 1.094c.015-.063.062-.11.109-.157h.688c.03.032.03.079.015.125L33.343 29.36l.704.547c.266.203.39.188.453 1.11a2.659 2.659 0 01-.484 1.672c.5.609 1.218 1.015 2 1.156.39-.594.593-1.235 2.343-1.828 1.75-.594 2.97-.282 5.125-1.47a8.75 8.75 0 01-.922-.187s-2.234-.156-3.609.61a3.754 3.754 0 01-.906-2.047h.5a.665.665 0 01.219-.36.368.368 0 00.359.297 5.803 5.803 0 001.547-.172c.86-.171.64-.812.64-.812A4.036 4.036 0 0140.25 28a2.793 2.793 0 01-1.234-.328c-.266-.11-.391.344-.391.344a3.062 3.062 0 01-.672-.985 4.104 4.104 0 01-.125-1.156c-.047-.203-.406-.313-.156-1.063l2.875-.703a.84.84 0 01.562-.64 8.883 8.883 0 011.547-.485c.407-.093.64-.14.813-.172.437-.093.343-.109.36-.156.046-.187.062-.375.046-.562.594.031 1.172.093 1.75.187a6.751 6.751 0 011.547.453s1.375-.5 1.984.063c-.015.11-.047.219-.093.328 0 0 2.437-.25 4.39 2.578.125.188.11.235.094.266a4.802 4.802 0 00-1.64-1.203s1.452.859 1.921 2.125c.469 1.265.156 1.5.156 1.5a5.433 5.433 0 00-1.218-2.063 8.598 8.598 0 011.343 4.078c.157 2.266-.578 3.39-.578 3.39.14-.874.14-1.75.016-2.624a11.332 11.332 0 01-.438 2.5c-.609-.047-2.75-.516-4.078 2.25a3.058 3.058 0 01.36-1.703s-2.125 2.234-.485 6.672a4.827 4.827 0 01-1.36-1.22 13.488 13.488 0 00.907 5.563c1.156 3.032 2.266 3.985 3.594 3.078 1.328-.906.703-3.671.031-4.89-.672-1.219-4.14-5.625-1.312-7.828a3.053 3.053 0 013.953.11 2.903 2.903 0 00-2.813 0c1.547-.204 2.938-.235 3.719 1.28.547 1.063-.531 2.141-.75 2.485-.219.343-.906 1.156.078 2.062-1.11-.187-1.39-2.062-1.39-2.062zM34.25 36.53c-1.156-1.25-2.234-3.703-2.234-3.703l-.25-.203-1.203 2.5c.187.39.656 1.406.812 1.703.188.39.922 1.328 1.484 1.156.391-.562.86-1.047 1.391-1.453zM51.031 56.97c-.25 0-.5-.047-.734-.14-.328.452-.5.983-.5 1.546.219-.469.64-.828 1.14-.984a.853.853 0 00-.109 1.078c.031-.453.906-1.016 1.578-1.25a.463.463 0 00-.25-.032 3.934 3.934 0 00-.86.126c.767-.25 1.61-.563 1.75-1.5a2.425 2.425 0 01-2.015 1.156m-14.047.172c-.39 0-.78-.047-1.156-.125a1.796 1.796 0 00-.531 1.28 1.753 1.753 0 011.203-.75c-.422.313-.25.657-.11.923 0-.172.22-.36.516-.516a.497.497 0 00.219.5c-.156-.36.531-.625 1.234-.687-.187 0-.39-.032-.609-.032-.125 0-.25 0-.39.016.234-.094.484-.156.734-.203a1.784 1.784 0 00-.578-.078c-.203 0-.407.015-.61.031.688-.125 1.235-.25 1.547-.844a2.238 2.238 0 01-1.469.438m-5.562-24.797a.529.529 0 01-.688-.281V32c-.14.5.313.61.547.484.063-.03.11-.093.14-.187m14.204-5.813s.469.25.64-.078a1.673 1.673 0 01-.25-1.156s.579 1.25.954 1.36c-.203-.485-.266-1-.219-1.5 0 0 .39 1.109 2.453.515.64-.188 1.484-.89 1.438-1.516-.047-.625-1.828-.703-2.125-.53.265.062.515.187.703.39 0 0-.953-.422-1.625-.094-.953.469-1.032 1-1.11 1.813-.468-1.188.063-1.61.297-2-.39-.594-1.656-.594-2.062-.594-.407 0-3.61.468-3.25.984.36.516 1.797.656 2.547.422-.516 1.281-1.313.969-1.922.828-.61-.14-1.078-.578-2.203-.39-1.125.187-.891.828-.891.828s-.5-.063-.563.265c-.03.157-.046.86 1.157 1.188.75.187 1.531.187 2.281 0 0 0 .313 1.468-.438 1.75-.406.156-1.593.36-2.124.625a.423.423 0 00-.266.562.633.633 0 00.078.14 5.14 5.14 0 012.813-.577c1.265.125 1.484-.157 1.968-.625a5.161 5.161 0 00.922-1.64s.453 1.624 0 2.39a4.015 4.015 0 001.61-2.657 1.397 1.397 0 01-.813-.703zM30.953 38.36l1.688.672-1.641.14c1.203.829 2.5 1.517 3.86 2.048 1.953.687 3.406.937 4.374.734a5.467 5.467 0 001.953-1.031 11.137 11.137 0 005.47 4.39c-1.5.079-3.048-.859-3.048-.859a6.041 6.041 0 003.375 1.64c-2.015.11-3.03-.765-3.984-1.312.922 1.547 2.984 1.813 2.984 1.813s-1.609-.14-2.203.234c-.593.984-.422 2.86-.25 4.016.172 1.156.64 2.625 1.297 2.89 2.531 1 6.89-.484 7.25-.672.281-.14.813-.312.594-.89-.219-.578-.656-.094-1.469.14a2.512 2.512 0 01-2.11-.296 2.206 2.206 0 01-.515-.625 4.502 4.502 0 01-1.828 1.359s2-1.781 1.719-4.453c-.25-2.297-2.032-4.797-2.578-5.89-.547-1.094-.766-2.47-.532-3.22-.64.297-1.359.391-2.047.25 0 0 1.922-.593 2.188-1.171-3.86.625-5.719-.157-5.719-.157s3.875-.14 5.219-1.125c-5.61 1.125-7.625-.468-7.625-.468s3.594.234 5.031-.547c-2.406.515-4.156 0-5.593-.282-1.407.766-1.86 1.547-1.86 1.547 1.5.391 3.063.547 4.61.47-1.829.765-3.266 1.28-4.422 1.343-3 .187-3.97-1.61-4.407-2.203-.422-.594-.265-.703-.89-1.516-1.235-.39-1.547.078-1.547.078s.453 0 .531.407a1.062 1.062 0 00-1.469.328c-.015.015-.015.03-.03.047a.773.773 0 01.905.218c-1.328-.172-1.422.453-1.406.86.547-.485.953-.282.953-.282a1.113 1.113 0 00-.75.422c-.64.703.11 1.235.766.844.469-.234.797-.672.89-1.188.391.391-.078.985-.078.985.485.719 1.47.906 2.203.422.079-.063.11-.094.141-.11zm8.531 10.547c.766-.39 1.594-.687 2.438-.875.484-.125 1.078-.562.469-1.718-4.563.687-6.61 2.703-6.61 2.703 2.703.656 2.953.297 3.703-.11zm12.047-22.718a2.844 2.844 0 00-1.328-.594l-.11.078c.298.437.516.922.626 1.437a2.94 2.94 0 00-1.313-1.078l-.234.063c.219.922.844 3.375-.266 4.984.469-1.39-.297-3.922-.765-4.797.156 1.157.812 3.39-1.266 5.235 1.047-1.47.906-4.047.688-4.891-.126 2.016.453 5.11-3.735 6.11.406-.204 1.844-.547 2.656-3.11-.234.313-2.297 1.984-4.547 2.625a11.72 11.72 0 001.797-.328c-.89.578-1.937.89-2.984.89-.344 0-.672-.03-1-.062a6.321 6.321 0 00-.766-.063c-.14 0-.28.016-.406.063a3.227 3.227 0 00-1.437.86 3.796 3.796 0 011.312-.22c1.094 0 1.984.438 2.453.516h.078c2.735 0 4.72-.562 5.438-1.765-.703 1.765-2.266 2.437-3.656 3.265 1.922-.718 4.453-1.578 5.39-3.922.25 1.157-.531 3.22-3.265 4.516 3.03-.844 4.89-3.11 5.39-7.172a10.543 10.543 0 01-.093 4.078c.968-1.406.906-4.11.265-5.593a7.557 7.557 0 011.156 4.984c.5-2.188.75-4.688-.625-6.219 1.328 1.031 1.688 3.078 1.907 5.5.359-2.203-.063-5.469-2.11-6.484l-.047.062c.282.282.563.64.797 1.032m-15.86 8.171c-.265 0-1.655-.765-2.265-1.89.407-.328.703-1.485.625-1.985-.5-.547-1.11-1-1.781-1.328-.547.672.328 1.547 1.25 1.563-.984.64-1.656 1.468-1 1.718.031.016.078.032.125.047.156 1.391 2 3.157 2 3.157zm-3.624-3.468h.016a.965.965 0 01-.532-.625.98.98 0 01.188-.797c-.532.312-.594.765-.438 1.062.172.25.469.39.766.39m-.703.767h.125a.64.64 0 00.39-.282h-.218a.818.818 0 01-.563-.187.717.717 0 01-.203-.422c-.14.672.156.89.469.89m21.312 25.829a1.181 1.181 0 00-1.093.093.487.487 0 00-.141.688.421.421 0 00.11.125l.015.016c-.078-.813 1.125-.922 1.11-.922zM41.984 34.344c-1.875.562-2.968-.14-3.765-.203-.5-.032-1 .109-1.438.39a5.402 5.402 0 005.203-.187zm0 0M13.734 70.047h52.828v-.375H13.734zm0 0"/></svg>