<?xml version="1.0" standalone="no"?>
<!DOCTYPE svg PUBLIC "-//W3C//DTD SVG 1.1//EN" "http://www.w3.org/Graphics/SVG/1.1/DTD/svg11.dtd" >
<svg xmlns="http://www.w3.org/2000/svg">
<defs>
  <font id="lmcu-icons" horiz-adv-x="800.0000000000001">
    <font-face font-family="lmcu-icons"
      units-per-em="800" ascent="800"
      descent="0" />
    <missing-glyph horiz-adv-x="0" />
    <glyph glyph-name="uEA01-001-circular-graphic-of-business-cycle-or-circuit"
      unicode="&#xE001;"
      horiz-adv-x="799.9984150098566" d="M765.1428967676106 545.1335849505185L661.8142193428234 496.2081092058209C703.1840470742072 406.8162501114446 690.4676711541699 298.6121430057357 623.3163937511763 220.9048312480808L567.0254688103659 277.1973411790347V81.3305992253363H762.8922107640642L704.5931033116387 139.6297066777618C806.7108482669123 252.4318701893074 826.7847484323456 413.2639900145623 765.1428967676106 545.1335849505188zM545.1383399209485 34.8903880253996L496.1684844522372 138.1746857261732C406.8146651213012 96.7668182313493 298.5661782915787 109.5212339148267 220.8667914846404 176.670926327677L277.157716425451 232.9634362586309H81.2909744717525V37.0966943049324L139.590081924178 95.3958017573579C252.4001703864404 -6.714018247199 413.2338752018386 -26.7879184126323 545.1383399209485 34.8903880253996zM176.6487364656701 579.1300385350729L232.9396614064806 522.8391135942624V718.7058555479608H37.0649945020654L95.3561770037743 660.414673046252C-6.7076782866257 547.5586198698327 -26.7831634422023 386.7265000445779 34.8586882225326 254.8553201184781L138.1493258838797 303.8251755871894C96.743043379199 393.1821648984121 109.4974590626765 501.4290667379913 176.6487364656701 579.1300385350729zM718.6741557450939 567.0650935639494V762.9318355176479L660.3829732433851 704.640653015939C547.5269200669658 806.7029233161957 386.694800241711 826.7784084717723 254.8252053057545 765.1365568070373L303.7887208138924 661.8522591062637C393.182164898412 703.2220868376475 501.3910269745509 690.5057109176103 579.0904137814894 623.3544335146166L522.7994888406788 567.0635085738061H718.674155745094zM243.4956957611421 400.0182273866485A156.4829068719229 156.4829068719229 0 0 1 556.4615095049877 400.0182273866485A156.4829068719229 156.4829068719229 0 0 1 243.4956957611421 400.0182273866485" />
    <glyph glyph-name="uEA02-002-information"
      unicode="&#xE002;"
      horiz-adv-x="799.9999999999999" d="M400 799.9999999999999C179.091948051948 799.9999999999999 0 620.9163636363635 0 400S179.091948051948 0 400 0C620.9163636363636 0 799.9999999999999 179.0836363636363 799.9999999999999 400S620.9163636363635 799.9999999999999 400 799.9999999999999zM458.7303896103896 132.8955844155844C458.7303896103896 126.0051948051948 453.1615584415584 120.4280519480519 446.2628571428571 120.4280519480519H353.7288311688311A12.4675324675325 12.4675324675325 0 0 0 341.2612987012987 132.8955844155844V485.5771428571427A12.4675324675325 12.4675324675325 0 0 0 353.7288311688311 498.0446753246752H446.2794805194805A12.4675324675325 12.4675324675325 0 0 0 458.7470129870129 485.5771428571427V132.8955844155844H458.7303896103895zM400 534.1257142857143C359.8961038961039 534.1257142857143 327.2727272727273 566.7490909090909 327.2727272727273 606.852987012987S359.8961038961039 679.5802597402597 400 679.5802597402597S472.7272727272727 646.9568831168831 472.7272727272727 606.852987012987S440.1038961038961 534.1257142857143 400 534.1257142857143z" />
    <glyph glyph-name="uEA03-003-round-account-button-with-user-inside"
      unicode="&#xE003;"
      horiz-adv-x="800" d="M400 800C180 800 0 620 0 400S180 0 400 0S800 180 800 400S620 800 400 800zM400 680C468.0000000000001 680 520 628 520 560S468.0000000000001 440 400 440S280 492 280 560S332 680 400 680zM400 112C300 112 212 163.998431372549 160 240C160 320 320 364 400 364S640 320 640 240C588 164 500 112 400 112z" />
    <glyph glyph-name="uEA04-004-cancel-credit-card"
      unicode="&#xE004;"
      horiz-adv-x="800" d="M273.9222559635984 330.9657953580112H133.4518078759533C104.8031011687969 330.9657953580112 81.4974661419937 354.2714303848145 81.4974661419937 382.9162313378185V689.9631882671146C81.4974661419937 714.8545594797536 99.0967943522795 735.6878521281478 122.5000732328904 740.7340864929257C121.9649849140246 716.0145684629881 124.4568560631951 685.7293507660161 133.1627820686827 650.6283381992521H120.5550076650425V571.931297784461H160.4366633142277C189.3978303535684 502.7760147637507 236.7746282210266 405.35478894281 273.9222559635984 330.9657953580112zM171.6461777313427 800L527.8158046341773 166.6194721373263C528.3040239032155 165.7484889613622 528.8547352386904 164.9282805893784 529.4484098698408 164.154941267222C529.6436975774561 163.9010672473221 529.8702313182897 163.682345014793 530.0733305342096 163.4401882573502C530.4951519826585 162.9402517258552 530.9130676769552 162.4403151943601 531.3778524210794 161.9833419585405C531.6473494575885 161.721656430336 531.9441867731637 161.4912169353501 532.2254010721297 161.2451544237549C532.6667512913401 160.8584847626768 533.1002900022459 160.4679093474462 533.5689805005225 160.120297227891C533.8892523410115 159.8820462246005 534.2329587064143 159.6789470086806 534.5649478093602 159.4602247761515C535.0297325534845 159.1555759522717 535.4945172976088 158.8470213742396 535.9827365666468 158.5814300918829C536.3459717028112 158.3822366301154 536.7248298555849 158.2181949557186 537.099782254206 158.0385302647125C537.5880015232442 157.8041850155742 538.0762207922824 157.5737455205882 538.583968832082 157.3784578129729C538.982355755617 157.2261334010331 539.3885541874566 157.1050550223116 539.7947526192964 156.9722593811331C540.3064064132484 156.8082177067363 540.814154453048 156.6519875406442 541.3375255094569 156.5270034077704C541.7593469579059 156.4254537998104 542.1889799146593 156.3512444709167 542.6186128714129 156.2770351420229C543.145889681974 156.1832970423676 543.6731664925353 156.1012762051693 544.208254811401 156.046595647037C544.6496050306115 156.0036323513616 545.0948610039743 155.9801978264477 545.5401169773371 155.9606690556863C545.8408600470646 155.9489517932294 546.1337916084874 155.9020827434017 546.434534678215 155.9020827434017C546.8915079140346 155.9020827434017 547.3523869040066 155.9177057600109 547.8093601398263 155.9450460390771C549.715368166151 156.0622186636462 551.6448107173896 156.0778416802554 553.582064776933 156.0505014011892C554.300723540957 156.0387841387324 555.0232880591334 156.0036323513616 555.7458525773098 155.9723863181431A76.517629597805 76.517629597805 0 0 0 562.1122318455667 155.4372979992774C563.5417378653104 155.253727554119 564.9790553933586 155.0154765508284 566.4202786755591 154.7459795143194C567.0959741439078 154.6209953814456 567.7716696122566 154.5155400193335 568.4512708347577 154.3671213615458A77.0331891459092 77.0331891459092 0 0 0 574.80983859471 152.7345161258824C606.657357952604 143.0091882866432 629.5021139894352 113.6535400779196 630.4043431986177 80.3647974378251C630.4746467733592 77.7674709265424 630.3926259361608 75.2092019567828 630.2168669993071 72.6821790202414C630.1973382285455 72.3892474588186 630.1895267202409 72.0963158973956 630.1660921953271 71.8033843359729A78.888422368254 78.888422368254 0 0 0 629.2638629861447 64.7417808286056L629.0607637702249 63.5622430746096C628.6350365676236 61.2969056662727 628.1116655112148 59.0706257994589 627.4984621093029 56.8834034741682C627.3891009930384 56.4928280589377 627.2719283684693 56.1061583978594 627.1547557439001 55.715582982629A76.3848339566266 76.3848339566266 0 0 0 624.9362873853909 49.2710886313259C624.8152090066694 48.9625340532938 624.6785076113387 48.6617909835663 624.553523478465 48.3571421596865A79.1266733715446 79.1266733715446 0 0 0 621.6203021100839 41.9868571372773L621.4484489273825 41.6783025592451A78.2010096374484 78.2010096374484 0 0 0 617.9606104693742 35.7415562477416C617.8239090740435 35.5267397693649 617.6950191870175 35.3041117826836 617.5544120375345 35.093201058459C616.3162879712538 33.2184390653528 614.9805200511655 31.4100748928355 613.590071572945 29.6524855242984C613.3518205696544 29.351742454571 613.1174753205161 29.0470936306912 612.8753185630733 28.750256315116A79.5094372784705 79.5094372784705 0 0 0 602.8375303916498 18.5171804360772C602.5641276009884 18.2828351869389 602.2790075478702 18.0602072002575 602.0016990030565 17.8297677052716A78.9743489596047 78.9743489596047 0 0 0 596.5961352562666 13.7248200911991C596.4359993360222 13.6154589749347 596.2719576616253 13.517815121127 596.1118217413808 13.4084540048625C594.2409655024268 12.1390839053635 592.3115229511881 10.9517346430628 590.3273998418173 9.8464062179604C590.1555466591159 9.7526681183051 589.9915049847191 9.647212756193 589.8196518020177 9.5534746565377C587.82381143019 8.4598634938923 585.7654789919252 7.4717076933591 583.6680890121376 6.5538554675675C583.340005663344 6.4093425639321 583.0158280687026 6.2609239061446 582.687744719909 6.1203167566616A77.197230820306 77.197230820306 0 0 0 575.2590003222251 3.4292521457236C573.1186470467621 2.7730854481364 570.939236229776 2.1989395877476 568.7285793795714 1.7263433353187C568.3653442434071 1.6482282522726 567.9942975989381 1.5818304316833 567.6310624627737 1.5076211027896C565.3461962836753 1.0545536211222 563.033989825511 0.6835069766531 560.6866315799757 0.4335387109057C560.4561920849897 0.4101041859918 560.2218468358514 0.398386923535 559.987501586713 0.3749523986212C557.5854627830455 0.1445129036351 555.156083700312 0.0078115083045 552.6993643385122 -1e-13L552.3556579731094 -0.0078115083047A78.0916485211838 78.0916485211838 0 0 0 544.7745891634855 0.3905754152304A81.5872984874967 81.5872984874967 0 0 0 538.5683458154731 1.2029722789098L538.5370997822546 1.2068780330621C506.9473601984128 6.7491431751828 481.8919473113769 31.8553308661985 475.7872535713244 62.992002968373A78.4626951656528 78.4626951656528 0 0 0 474.6663021296128 85.1844980617693C475.142804136194 90.3322820345072 476.1231484284226 95.3160243328481 477.5448429398615 100.1044789235739C478.333805278627 102.7603917471413 478.5876792985269 105.4983254079069 478.333805278627 108.1698612480835A20.9895228144864 20.9895228144864 0 0 1 472.9751105816648 120.3167566617517L406.81163524162 193.1786003729993L363.3523087889236 241.0436175094957S357.0757618661697 253.1592668899455 346.7958169373033 273.3090525616863A9954.372979992775 9954.372979992775 0 0 0 317.6276449278904 330.9618896038587C282.2063605206374 401.5466786443125 234.0835636100889 499.6162596545358 202.8726821790206 571.9391092927654A1516.741038735317 1516.741038735317 0 0 0 194.3151748313206 592.1591985392477L193.97537422007 592.9794069112318C192.7411559079417 595.9634030835927 191.553806645641 598.8770956812122 190.4055149248633 601.732201966547L189.7845000146469 603.282786365012C188.67136008124 606.0597775673008 187.5894661810515 608.7859939656096 186.5622528389953 611.4262837725677L186.4919492642538 611.6020427094214C185.136652573404 615.0859754132774 183.8594709656003 618.5269448214581 182.6369699159289 621.9288566881155A385.3260816497906 385.3260816497906 0 0 0 180.1021354710831 629.2951090193626C179.8248269262694 630.1114116371944 179.5279896106942 630.9433372716352 179.2584925741852 631.7557341353147A395.5161942331541 395.5161942331541 0 0 0 173.5599972659723 650.6205266909473C163.5339263570057 687.1393280149979 161.0420552078352 717.9440110142265 161.7489967094024 741.9136242469216C162.3700116196189 762.8719010281895 165.4125941042644 778.6120902619782 167.9630515657195 788.3842871510451A146.118168591878 146.118168591878 0 0 0 168.7793541835512 791.3760948317106L168.8184117250742 791.5206077353458A112.3841699784207 112.3841699784207 0 0 0 170.2127659574471 796.0629998144765L170.263540761427 796.2192299805687C170.45492271489 796.7933758409575 170.6306816517437 797.3011238807571 170.7869118178359 797.7463798541198L170.8259693593589 797.863552478689L171.2282620370463 798.964975149639L171.2595080702648 799.0469959868374C171.5094763360123 799.6758224053585 171.6461777313429 799.9999999999998 171.6461777313429 799.9999999999998zM521.7970374854756 58.9183013875191L521.8087547479324 58.8987726167576C522.5274135119565 57.6411197797154 523.3319988673312 56.4693935340239 524.1756417642291 55.3406305840078C524.429515784129 55.0047357269095 524.6951070664857 54.6844638864205 524.9567925946901 54.3563805376269C525.6168650464297 53.5361721656429 526.3081835313876 52.7550213351819 527.030748049564 52.0090222920917C527.3041508402252 51.7239022389734 527.5736478767344 51.4348764317029 527.8548621757003 51.1575678868893C528.8469237303858 50.2006581195745 529.874137072442 49.2945231562399 530.9560309726305 48.4704090301036C531.0575805805904 48.3922939470574 531.1708474510073 48.3298018806206 531.2763028131194 48.2516867975745C532.2761758761095 47.5095935086365 533.3112007264702 46.8378037944401 534.3774716100496 46.2128831300713C534.728989483757 46.0058781599992 535.0844131116168 45.8184019606886 535.4398367394765 45.6231142530733C536.3381601945066 45.1348949840352 537.2560124202982 44.6935447648248 538.1894876626991 44.287346332985C538.5253825197974 44.1428334293496 538.8573716227432 43.9826975091052 539.1971722339938 43.8499018679269C540.4470135627314 43.3577768447364 541.7163836622306 42.9203323796783 543.0130940407957 42.5766260142755C543.208381748411 42.5258512102955 543.4114809643308 42.4946051770771 543.6106744260983 42.4438303730972A34.3393905070645 34.3393905070645 0 0 1 551.3089158602912 41.4283342934979C551.5549783718865 41.4244285393455 551.7971351293294 41.3814652436703 552.0431976409245 41.3814652436703C552.1486530030368 41.3814652436703 552.2502026109967 41.4009940144317 552.355657973109 41.4009940144317A34.6323220684874 34.6323220684874 0 0 1 556.3199984376984 41.6548680343316C556.5387206702275 41.6822083133977 556.7535371486042 41.7329831173777 556.968353626981 41.7642291505961C558.0775878062356 41.9243650708405 559.1829162313379 42.1391815492174 560.2843389022878 42.4086785857263C560.6983488424321 42.5102281936863 561.1123587825764 42.6313065724077 561.5224629685684 42.7484791969769C562.4676554734262 43.0179762334858 563.4050364699794 43.3304365656702 564.3346059582279 43.6858601935301C564.7251813734584 43.8342788513177 565.1157567886889 43.9709802466483 565.5024264497672 44.1350219210451C566.7796080575708 44.6740159940632 568.0450724029176 45.2715963793659 569.279290715046 45.9746321267808A34.6440393309443 34.6440393309443 0 0 1 583.2228330387744 60.7891576264732A34.9955572046518 34.9955572046518 0 0 1 586.8083153505903 76.9706970794723A34.5698300020505 34.5698300020505 0 0 1 579.8404499428784 97.0384619140148C579.590481677131 97.3743567711131 579.3248903947742 97.6907228574497 579.0671106207221 98.0149004520911A34.1636315702108 34.1636315702108 0 0 1 576.9892494116958 100.3700702059309C576.7158466210345 100.6551902590492 576.4463495845254 100.9442160663197 576.1651352855595 101.2176188569812A34.1558200619062 34.1558200619062 0 0 1 573.0600607344771 103.9047777137669C572.9585111265171 103.982892796813 572.853055764405 104.0414791090975 572.751506156445 104.1156884379914A34.2925214572369 34.2925214572369 0 0 1 569.6464316053626 106.1583978596467C569.2949137316552 106.3654028297189 568.9355843496432 106.5567847831819 568.5762549676311 106.752072490797A34.6440393309443 34.6440393309443 0 0 1 565.8383213068654 108.0800289025807C565.498520695615 108.2284475603683 565.1626258385166 108.3846777264605 564.8189194731139 108.5213791217911A35.4056613906438 35.4056613906438 0 0 1 561.0108091746166 109.7946549754425C560.8116157128492 109.8493355335749 560.6124222510815 109.8766758126409 560.4132287893141 109.9274506166208A35.5150225069083 35.5150225069083 0 0 1 555.8083446437465 110.7437532344526A33.9800611250525 33.9800611250525 0 0 1 552.7149873551211 110.9429466962201C552.4689248435259 110.9468524503724 552.226768086083 110.9898157460477 551.9807055744878 110.9898157460477C551.8752502123756 110.9898157460477 551.7737006044157 110.9702869752863 551.6682452423033 110.9702869752863A34.7573062013612 34.7573062013612 0 0 1 547.6999990235616 110.7164129553864C547.4851825451849 110.6890726763203 547.270366066808 110.6382978723403 547.0555495884314 110.6070518391219A35.2025621747239 35.2025621747239 0 0 1 543.7278470506676 109.9626024039917C543.3138371105233 109.8610527960317 542.9076386786835 109.7399744173104 542.4936287385392 109.6228017927411C541.5445304795292 109.3533047562322 540.607149482976 109.0369386698955 539.6736742405751 108.6815150420357C539.287004579497 108.533096384248 538.8964291642664 108.3963949889173 538.5136652573406 108.2323533145205A35.4056613906438 35.4056613906438 0 0 1 534.7368009920617 106.3927431087849A34.7338716764473 34.7338716764473 0 0 1 517.2976087020204 78.7517209729233A34.6830968724674 34.6830968724674 0 0 1 521.7970374854756 58.9183013875191zM666.5520978781991 741.917530001074H653.6787321922022C652.5187232089677 777.9949811059142 644.133069043969 798.0861804653706 644.133069043969 798.0861804653706L612.1722828156583 741.917530001074H249.1168113423101L300.4501381660532 650.6283381992521H679.4410865808052V571.931297784461H344.7062384658198L488.6918652905393 315.8778670676574C491.1798306855575 320.7522482497339 493.7380996553173 325.7789538437503 496.374483708123 330.9657953580111H666.5520978781991C695.196898831203 330.9657953580111 718.5025338580062 354.2714303848144 718.5025338580062 382.9162313378184V689.9631882671146C718.5025338580062 718.6118949742709 695.1968988312029 741.917530001074 666.5520978781991 741.917530001074zM342.3041996621523 122.8750256315116A21.0949781765987 21.0949781765987 0 0 1 337.6329176959957 102.6822766640953C340.429437669046 93.0936502201868 341.4527452569498 82.7238729458173 340.1950924199077 71.8619706482575C336.2619979885367 37.8780037690528 309.8590999189557 9.838594709656 276.132912813803 4.0971361057678C226.8422954117154 -4.292423813383 183.0744143809869 34.2847099489323 184.6640563209749 83.7120287463506C185.7342329587065 116.9968656322929 208.7274076533254 146.2353412164473 240.6257018151994 155.8005331354418A75.9747297706346 75.9747297706346 0 0 0 267.6378975325399 158.8743616533059C275.824358235771 158.3275560719832 283.6319607862284 162.3114253073341 287.6900393504732 169.4433323894427L323.6932811264196 232.7165496567818C326.3999687539669 227.4594045677794 328.1341235975903 224.1082675051018 328.6653061623037 223.0810541630457A38.9013113569566 38.9013113569566 0 0 1 334.4301992911057 214.7891380977025L380.2876587933174 164.2877369084002L342.3041996621524 122.8750256315116zM280.1324050657632 109.2595666565768A34.8002694970365 34.8002694970365 0 1 1 245.2930780272036 49.0054973489694A34.8002694970365 34.8002694970365 0 0 1 280.1324050657632 109.2595666565768z" />
    <glyph glyph-name="uEA05-005-car"
      unicode="&#xE005;"
      horiz-adv-x="800" d="M794.4477103646793 505.9942024284932C792.5462690802943 511.5302750805781 785.8060854229592 515.8358841296548 780.1787922401735 515.8358841296548H707.0787131823803C701.4534471224991 515.8358841296548 694.7112363422594 511.5302750805781 692.8077679349699 505.9942024284932C690.946869108674 500.5757029048671 689.5562627962133 495.741014777726 688.6318947517788 491.1941781030184L639.8025582291053 626.2836755792504C631.748798929679 648.55972917638 610.419411728933 663.5259775800207 586.7345077132027 663.5259775800207H213.2715736555107C189.5846425168758 663.5259775800207 168.2593095619388 648.55972917638 160.2014960167035 626.2796213334415L111.3701323711257 491.1779611197827C110.4437372037867 495.7288520402992 109.0531308913259 500.5696215361538 107.1902049421256 505.9942024284932C105.2887636577406 511.5302750805781 98.546552877501 515.8358841296548 92.9212868176198 515.8358841296548H19.8212077598265C14.1959416999453 515.8358841296548 7.4537309197057 511.5302750805781 5.5522896353206 505.9942024284932C-1.8507632117735 484.439804585352 -1.8467089659646 472.1007074658937 5.5543167582251 450.544282499848C7.4557580426101 445.0082098477631 14.1979688228497 440.7026007986865 19.8232348827309 440.7026007986865H92.9233139405242C92.9922361192759 440.7026007986865 93.0652125438365 440.7208449048266 93.1361618454927 440.7228720277311L92.0334069854655 437.6679978107073C77.1279722689587 432.7157365551074 66.3659767691715 418.6839918104235 66.3659767691715 402.1142891893536V154.4890636719305A18.0130141290466 18.0130141290466 0 0 1 84.3810180211226 136.4740224199793H175.048144168981A18.0150412519511 18.0150412519511 0 0 1 193.0631854209321 154.4890636719305V242.1864547647524H606.9408688248767V154.4890636719305A18.0150412519511 18.0150412519511 0 0 1 624.9559100768279 136.4740224199793H715.6230362246862A18.0130141290466 18.0130141290466 0 0 1 733.6380774766372 154.4890636719305V402.1142891893536C733.6380774766372 418.6799375646146 722.880136222659 432.709655186394 707.9807828748656 437.6659706878029L706.8760008919339 440.7228720277311C706.9428959477812 440.7208449048266 707.0138452494373 440.704627921591 707.0807403052845 440.704627921591H780.1808193630778C785.8081125458635 440.704627921591 792.5482962031986 445.0102369706676 794.4497374875837 450.5463096227525C801.8507632117734 472.1007074658937 801.8467089659644 484.4398045853521 794.4477103646792 505.9942024284933zM220.1698728993938 597.2309501125053H579.7855303967078L636.7639009953173 439.5978188157548H163.193529423689L220.1698728993939 597.2309501125053zM230.2000770306703 328.5499989864386H154.3491921915226C138.0754495145041 328.5499989864386 124.8849607751718 341.7404877257709 124.8849607751718 358.0142304027894C124.8849607751718 374.2859459569034 138.0734223915996 387.4784618191401 154.3491921915226 387.4784618191401H230.2000770306704C246.4717925847844 387.4784618191401 259.6643084470212 374.2879730798079 259.6643084470212 358.0142304027894C259.6663355699256 341.7404877257709 246.4717925847844 328.5499989864386 230.2000770306704 328.5499989864386zM645.6487806855729 328.5499989864386H569.7978958464251C553.5261802923111 328.5499989864386 540.3336644300744 341.7404877257709 540.3336644300744 358.0142304027894C540.3336644300744 374.2859459569034 553.526180292311 387.4784618191401 569.7978958464251 387.4784618191401H645.6487806855729C661.9225233625915 387.4784618191401 675.1130121019238 374.2879730798079 675.1130121019238 358.0142304027894S661.9225233625915 328.5499989864386 645.6487806855729 328.5499989864386z" />
    <glyph glyph-name="uEA06-006-email"
      unicode="&#xE006;"
      horiz-adv-x="800" d="M799.4091323804146 627.6578181344223C799.4091323804146 628.57192509884 800.0382326106792 629.4617022200982 799.9965243081201 630.365382108876L555.8639266629015 395.1305556762393L799.7045661902074 167.4101750879784C799.8470695572839 169.0367988877785 799.4091323804146 170.6773254550983 799.4091323804146 172.3387061736976V627.6578181344223zM518.5975583264544 358.9312247469262L418.9355693617761 263.0438371638354A25.998175261763 25.998175261763 0 0 0 400.8619715862189 255.7587869835338A25.9912238780032 25.9912238780032 0 0 0 383.0907590042143 262.7553547378025L283.6998740061693 355.3721162618933L38.2673675978624 118.8026241473693C44.2351305556762 116.6581222574619 50.6408306903592 114.9932658469826 57.3489160185949 114.9932658469826H744.3785028457227C754.3398357735587 114.9932658469826 763.6824955467697 118.0275448581482 771.8051874701307 122.5528956857975L518.5975583264543 358.9312247469262zM400.5769648520659 317.7234218186557L773.1572316114177 676.6268410305427C764.7217274188644 681.6422644132597 754.9028978581049 685.0067341530173 744.3785028457228 685.0067341530173H57.348916018595C43.6442629360907 685.0067341530173 31.0865881739584 679.6854498848677 21.305991223878 671.5697093452666L400.5769648520659 317.7234218186557zM0 618.9164530564365V172.3456575574575C0 167.2190120345831 1.1782595472911 162.2765781813442 2.4573141590998 157.5531129165399L244.8451144806013 390.9666768041014L0 618.9164530564365z" />
    <glyph glyph-name="uEA07-007-star"
      unicode="&#xE007;"
      horiz-adv-x="800.0000000000001" d="M800.0000000000001 489.8062440403989L523.606831730052 529.9663343344383L400.0000000000001 780.4233181762162L276.3931682699481 529.9663343344383L0 489.8062440403989L200.0012973281527 294.8541478824362L152.7889311962014 19.576681823784L400.0000000000001 149.5456108145276L647.2110688037985 19.576681823784L599.9987026718474 294.8541478824362z" />
    <glyph glyph-name="uEA08-008-pound-sterling"
      unicode="&#xE008;"
      horiz-adv-x="800" d="M399.9990625007325 800C179.4392348130978 800 0 620.5607651869022 0 400.0009374992676S179.4392348130978 0.0018749985351 399.9990625007325 0.0018749985351S799.9981250014649 179.4411098116328 799.9981250014649 400.0009374992676S620.5588901883671 800 399.9990625007325 800zM399.9990625007325 80.0005624995605C223.5598253438865 80.0005624995605 79.9986875010254 223.5598253438864 79.9986875010254 400.0009374992676S223.5598253438865 719.9994375004394 399.9990625007325 719.9994375004394S719.9994375004395 576.4401746561135 719.9994375004395 400.0009374992676C719.9994375004395 223.520450374648 576.4401746561136 80.0005624995605 399.9990625007325 80.0005624995605zM399.9990625007325 520.0008437493408C422.0396702815076 520.0008437493408 439.9984062512452 502.0402327810681 439.9984062512452 480.0014999988281H519.9989687508056C519.9989687508056 546.1608233118568 466.1583858137611 600.0014062489014 399.9990625007324 600.0014062489014S279.9991562506592 546.1608233118568 279.9991562506592 480.0014999988281V440.0002812497803H239.9998125001465V359.9997187502197H279.9991562506592V279.9991562506591H239.9998125001465V200.0004687496337H519.9989687508056V280.0010312491944H359.9997187502198V360.0015937487549H440.0002812497803V440.0002812497803H359.9997187502198V479.999625000293C359.9997187502198 502.0402327810681 377.9603297184925 520.0008437493408 399.9990625007325 520.0008437493408z" />
    <glyph glyph-name="uEA09-009-sunbed"
      unicode="&#xE009;"
      horiz-adv-x="800" d="M797.375 150.1921874999999L736.140625 276.7390625000001L779.66875 359.35625C788.6234375 381.7140625000001 779.6515625 405.5703125 761.55625 417.696875C738.459375 433.171875 703.6234375 426.8390625 689.8937500000001 395.778125L689.8078125000001 395.5828125L606.9359375 217.09375H374.46875L374.4484375 217.1765625000001H320.709375L320.7296875 217.09375H102.5328125C78.7671875 217.09375 54.0953125 199.521875 54.0953125 164.9812500000001C54.0953125 131.4296875 77.64375 112.9203125 102.5328125 112.9203125H143.4296875L108.6296875 45.9328125C101.971875 33.1515625 106.93125 17.4 119.703125 10.74375C132.4765625 4.103125 148.2109375 9.0171875 154.8921875 21.834375L202.24375 112.921875H346.378125L367.2906250000001 27.659375C370.7421875000001 13.6796875 384.8234375000001 5.1 398.8625 8.5515625C412.8515625000001 11.99375 421.4062500000001 26.125 417.9671875 40.11875L400.115625 112.921875H601.228125L648.5796875 21.834375C655.2078125 9.109375 670.934375 4.0703125 683.7687500000001 10.74375C696.540625 17.4015625 701.4984375 33.1546875 694.8421875 45.9328125L660.0421875000001 112.9203125H773.884375C793.084375 112.9187500000001 805.7406249999999 132.8796875000001 797.375 150.1921874999999zM677.2203125 164.9187500000001L705.9171875 219.3859375L732.2749999999999 164.9187500000001H677.2203124999999zM564.165625 538.015625C525.4828125 682.3375 382.79375 771.3890625 238.2625 746.4015625L231.1671875 772.875C227.43125 786.8109375 213.1984375 795.046875 199.203125 791.31875C185.29375 787.590625 177.0390625 773.290625 180.759375 759.3734375L187.8515625 732.9015625C50.2234375 682.3125 -28.865625 533.8 9.803125 389.4765625C13.509375 375.6515625 27.771875 367.2734375 41.7671875 371.0328125000001L267.996875 431.6515625L307.8875 269.3484375000001H361.6265625L318.4140625 445.1609375000001L545.7234375 506.06875C559.6875000000001 509.81875 567.865625 524.1578125000001 564.1656250000001 538.015625z" />
    <glyph glyph-name="uEA0A-010-handshake"
      unicode="&#xE00A;"
      horiz-adv-x="800" d="M400 771.7015625C387.0453125 771.7015625 376.5625 761.21875 376.5625 748.2640625V677.9515625C376.5625 664.996875 387.0453125 654.5140625 400 654.5140625S423.4375 664.996875 423.4375 677.9515625V748.2640625C423.4375 761.21875 412.9546875 771.7015625 400 771.7015625zM275.946875 624.2109375L229.071875 671.0859375C219.915625 680.240625 205.084375 680.240625 195.9296875 671.0859375S186.775 647.0984375 195.9296875 637.94375L242.8046875 591.06875C251.959375 581.9140625 266.7921875 581.9140625 275.946875 591.06875C285.1015625 600.2234375 285.1015625 615.05625 275.946875 624.2109375zM604.071875 671.0859375C594.9171875000001 680.240625 580.084375 680.240625 570.9296875 671.0859375L524.0546875 624.2109375C514.9 615.05625 514.9 600.2234375 524.0546875 591.06875C533.2093749999999 581.9140625 548.0421875 581.9140625 557.196875 591.06875L604.071875 637.94375C613.2265625 647.0984375 613.2265625 661.93125 604.071875 671.0859375zM776.5625 443.5765625H704.6875V115.4515625H776.5625C789.5171875 115.4515625 800 125.9343750000001 800 138.8890625V420.1390625C800 433.09375 789.5171875 443.5765625 776.5625 443.5765625zM23.4375 443.5765625C10.4828125 443.5765625 0 433.09375 0 420.1390625V138.8890625C0 125.9343750000001 10.4828125 115.4515625 23.4375 115.4515625H95.3125V443.5765625H23.4375zM382.1015625 420.1390625C364.225 420.1390625 348.1578125 410.20625 340.1703125 394.2296875L268.828125 251.5C280.775 246.259375 293.409375 243.603125 306.31875 243.603125C342.0015625 243.603125 374.1140625000001 263.4921875 390.1125000000001 295.5359375000001L405.5390625 326.3890625H450.903125C463.2406250000001 326.3890625 475.325 321.3765625 484.0453125000001 312.6562500000001L657.8125 138.8890625V420.1390625H382.1015625zM450.9031249999999 279.5140625H434.515625L433.1625 276.8046875C411.0234375 232.5296875 367.8484375 201.2703125000001 318.509375 197.2375000000001C282.20625 194.2671875 257.0484375 204.7109375000001 227.2171875 218.2796875C215.0859375 223.7953125 209.8078125 238.2890625 215.7671875 250.209375L298.2281250000001 415.1734375000001A93.76875 93.76875 0 0 0 382.1015625 467.015625H483.246875C489.7390625 481.3953125 493.75 497.09375 493.75 513.890625C493.75 526.8453125000001 483.2671875 537.328125 470.3125 537.328125H288.3515625A70.3265625 70.3265625 0 0 1 225.4484375 498.4531250000001L204.4921875 456.5390625000001A23.4453125 23.4453125 0 0 0 183.5234375 443.5781250000001H142.1875V115.4531250000001H249.6703125L316.06875 49.0546875000001C335.315625 29.8078125000001 363.0375 23.73125 386.953125 31.7281250000001L587.1109375 94.6484375000001C599.0734375 98.015625 609.1578125 104.5968750000001 617.3828125 113.0359375000002L450.9031249999999 279.5140625z" />
    <glyph glyph-name="uEA0B-011-phone-call"
      unicode="&#xE00B;"
      horiz-adv-x="800" d="M736.842053324057 273.2627247226356C687.4939864259758 273.2627247226356 639.1584203605431 280.9679942171006 593.3471984763146 296.0844540168208C570.9892853530308 303.7897235112858 545.5997907893017 297.8528765237471 530.9056997579768 282.8627326173788L440.0845724379708 214.2732025273047C335.8739604226649 269.8936430046406 269.179168732869 336.5469872919303 214.3166236156445 439.9997039471249L281.0528627079464 528.6734610801489C297.8528765237472 545.4734748959497 303.8745920021317 570.0636266970614 296.6745860810741 593.0945666896107C281.431810388002 639.199867763049 273.6850934910309 687.5788549168215 273.6850934910309 736.8420533240569C273.6850934910309 771.6637924866714 245.3488859777024 799.9999999999999 210.5271468150879 799.9999999999999H63.157946675943C28.3362075133285 800 0 771.6637924866715 0 736.842053324057C0 330.5686929018857 330.5686929018856 0 736.842053324057 0C771.6637924866715 0 800 28.3362075133285 800 63.157946675943V210.1047780466926C800 244.926517209307 771.6637924866715 273.2627247226356 736.842053324057 273.2627247226356z" />
    <glyph glyph-name="uEA0C-012-credit-card"
      unicode="&#xE00C;"
      horiz-adv-x="800" d="M750 675H50C22.45 675 0 652.55 0 625V175C0 147.4 22.45 125 50 125H750C777.6 125 800 147.4 800 175V625C800 652.55 777.6 675 750 675zM275 225H125C111.2 225 100 236.2000000000001 100 250S111.2 275 125 275H275C288.8 275 300 263.8 300 250S288.8 225 275 225zM600 375C576.2 375 554.65 383.65 537.5 397.5C520.35 383.65 498.8 375 475 375C419.75 375 375 419.75 375 475S419.75 575 475 575C498.8 575 520.35 566.35 537.5 552.5C554.65 566.35 576.2 575 600 575C655.25 575 700 530.25 700 475S655.25 375 600 375z" />
    <glyph glyph-name="uEA0D-013-battery"
      unicode="&#xE00D;"
      horiz-adv-x="800" d="M550 700H500V775C500 788.8 488.8 800 475 800H325C311.2 800 300 788.8 300 775V700H250C222.45 700 200 677.55 200 650V50C200 21.95 221.95 0 250 0H550C578.05 0 600 21.95 600 50V650C600 678.05 578.05 700 550 700zM400 150V300H300L400 550V400H500L400 150z" />
    <glyph glyph-name="uEA0E-014-check"
      unicode="&#xE00E;"
      horiz-adv-x="800" d="M400 800C180.296875 800 0 619.703125 0 400S180.296875 0 400 0S800 180.296875 800 400S619.703125 800 400 800zM351.5921875 218.0625L176.428125 393.225L242.7125000000001 459.509375L354.6593750000001 347.5625L579.3984375000001 551.8625L642.4781250000001 482.5109375L351.5921875 218.0625z" />
    <glyph glyph-name="uEA0F-015-teamwork"
      unicode="&#xE00F;"
      horiz-adv-x="799.9984375030518" d="M682.4267921351717 317.822816752311L632.7081392419157 367.5414696455671L582.9894863486596 317.822816752311L616.1362966087958 284.6822564799678L582.9879238517113 251.5323212259351L466.9787754320794 367.5430321425154L350.9696270124474 251.5323212259351L483.5506180651993 118.9528926701315C508.0318202503512 94.4779404727725 542.5817527700142 86.7560805545302 573.7957543051675 95.0029394473839L667.4174464503 0.0015624969482L799.9984375030518 132.5825535497L706.3767453579193 227.5823680031874C714.6282917416178 258.7963695383407 706.9017443325307 293.354114542745 682.4267921351717 317.822816752311zM682.4267921351717 317.822816752311M573.7957543051674 706.3783078548674C542.5833152669625 714.6236042507729 508.0302577534029 706.9033068294789 483.5506180651992 682.4283546321199L433.8366526627878 632.7097017388637L483.5506180651992 582.9910488456077L516.6989908222836 616.1378591057439L549.8458010824198 582.9894863486595L433.8366526627878 466.9803379290275L549.8458010824198 350.9711895093955L682.4267921351717 483.5521805621474C706.9017443325307 508.0271327595063 714.629854238566 542.5786277761176 706.3767453579193 573.792629311271L799.9984375030518 667.4190089472481L667.4174464503 800zM573.7957543051674 706.3783078548674M118.9513301731833 483.5521805621473L168.6699830664394 433.838215159736L218.3886359596954 483.5521805621473L185.2418256995592 516.6989908222836L218.3901984566437 549.847363579368L334.3993468762757 433.838215159736L450.4084952959077 549.847363579368L317.8275042431559 682.4283546321199C293.3463020580038 706.9033068294789 258.7948070413925 714.6314167355142 227.5808055062393 706.3783078548674L132.5809910527519 800L0 667.4190089472481L94.9998144534874 573.7973168021156C86.7545180575819 542.5848777639105 94.4763779758243 508.031820250351 118.9513301731833 483.5521805621473zM118.9513301731833 483.5521805621473M227.5808055062393 95.0013769504355C258.7948070413925 86.7560805545302 293.3463020580038 94.4779404727725 317.8275042431559 118.9528926701315L367.5414696455672 168.6715455633876L317.8275042431559 218.3901984566436L284.6791314860714 185.2433881965074L251.5385712137281 218.3917609535918L367.5414696455671 334.4009093732238L251.5370087167799 450.4100577928558L118.9513301731832 317.822816752311C94.4763779758242 293.3541145427449 86.7545180575819 258.7963695383407 95.0013769504356 227.5823680031873L0 132.5825535497L132.5809910527519 0.0015624969482zM227.5808055062393 95.0013769504355" />
    <glyph glyph-name="uEA10-016-open-book"
      unicode="&#xE010;"
      horiz-adv-x="800" d="M787.4843137254902 680.2627450980392L748.192156862745 700.5882352941177A304.7509803921569 304.7509803921569 0 0 1 471.3294117647059 700.5411764705882L419.6078431372549 673.7901960784313V108.5686274509804L453.3921568627451 126.0470588235295A344.1470588235295 344.1470588235295 0 0 0 766.1372549019609 126.086274509804A23.1509803921569 23.1509803921569 0 0 1 800 146.6156862745098V659.7019607843138A23.0470588235294 23.0470588235294 0 0 1 787.4843137254902 680.2607843137255zM787.4843137254902 680.2627450980392M51.7235294117647 700.5431372549019L12.5078431372549 680.2627450980392A23.0549019607843 23.0549019607843 0 0 1 0 659.7039215686275V146.6137254901961C0 138.5352941176472 4.2117647058824 131.035294117647 11.1137254901961 126.8392156862746A23.1333333333333 23.1333333333333 0 0 1 33.7843137254902 126.0490196078432A344.1470588235295 344.1470588235295 0 0 0 346.5294117647059 126.0882352941177L380.3921568627451 108.5686274509804V673.7901960784313L328.5843137254903 700.5882352941177A304.7509803921569 304.7509803921569 0 0 1 51.721568627451 700.5411764705882zM51.7235294117647 700.5431372549019" />
    <glyph glyph-name="uEA11-017-prize"
      unicode="&#xE011;"
      horiz-adv-x="800" d="M400 203.125C340.115625 203.125 284.0125 219.58125 235.9375 248.1828125V0L400 147.65625L564.0625 0V248.1828125C515.9875000000001 219.58125 459.884375 203.125 400 203.125zM400 659.375C325.90625 659.375 265.625 599.0953125 265.625 525S325.90625 390.625 400 390.625S534.375 450.9046875 534.375 525S474.09375 659.375 400 659.375zM400 800C248.3640625 800 125 676.6359375 125 525S248.3640625 250 400 250S675 373.3640625 675 525S551.6359375000001 800 400 800zM400 343.75C300.0593750000001 343.75 218.75 425.0578125 218.75 525S300.0593750000001 706.25 400 706.25S581.25 624.9421875 581.25 525S499.940625 343.75 400 343.75z" />
    <glyph glyph-name="uEA12-018-send"
      unicode="&#xE012;"
      horiz-adv-x="800" d="M799.9999999999999 800L0 349.9993560601182L255.6647391399539 255.3092843252154L650.0015025263908 624.9994633834318L350.0560227697142 220.3476416775063L350.2998613382788 220.2566315075491L350.0010732331363 220.3476416775063V-0.0017171730182L493.3764343760866 167.2681065162422L675.0018244963317 99.9978535337274z" />
    <glyph glyph-name="uEA13-019-hospital"
      unicode="&#xE013;"
      horiz-adv-x="800" d="M164.134375 536.2921875H0V52.6796875H164.134375zM108.44375 219.7781250000001H55.690625V266.6531250000001H108.44375zM108.44375 325.2828125000001H55.690625V372.1578125000001H108.44375zM55.690625 430.7875000000001V477.6625000000001H108.44375V430.7875000000001zM635.865625 52.678125H800V536.2921875H635.865625zM691.5578125 477.6625H744.309375V430.7875H691.5578125zM691.5578125 372.1578125000001H744.309375V325.2828125000001H691.5578125zM744.3078125 266.6531250000001V219.7781250000001H691.5562499999999V266.6531250000001zM317.9328125 114.2734375H376.5625V52.678125H317.9328125zM423.4375 114.2734375H482.065625V52.678125H423.4375zM211.009375 52.678125H271.0578125V161.1484375H528.940625V52.678125H588.9906249999999V747.321875H211.009375zM426.3765625 219.7781250000001H373.6234375V266.6531250000001H426.3765625zM426.3765625 325.2828125000001H373.6234375V372.1578125000001H426.3765625zM426.3765625 430.7875000000001H373.6234375V477.6625000000001H426.3765625zM531.8796874999999 219.7781250000001H479.1281249999999V266.6531250000001H531.8796874999999zM531.8796874999999 325.2828125000001H479.1281249999999V372.1578125000001H531.8796874999999zM531.8796874999999 430.7875000000001H479.1281249999999V477.6625000000001H531.8796874999999zM320.871875 635.85625H376.5625V691.546875H423.4375V635.85625H479.1296875V588.98125H423.4375V533.2890625H376.5625V588.98125H320.871875zM268.11875 477.6625H320.871875V430.7875H268.11875zM268.11875 372.1578125000001H320.871875V325.2828125000001H268.11875zM268.11875 266.6531250000001H320.871875V219.7781250000001H268.11875z" />
    <glyph glyph-name="uEA14-020-stethoscope"
      unicode="&#xE014;"
      horiz-adv-x="800" d="M682.8125 423.4375C626.225 423.4375 578.8859375 383.1109375 567.996875 329.6875H539.0625C474.4484375 329.6875 421.875 277.1140625000001 421.875 212.5V117.1875C421.875 78.415625 390.334375 46.875 351.5625 46.875S281.25 78.415625 281.25 117.1875V193.3796874999999C308.471875 203.0875 328.125 228.859375 328.125 259.375V300.7828125C439.715625 356.8875000000001 515.625 535.5406250000001 515.625 635.9375C515.625 691.8796875 510.5203125 719.5078125 467.159375 744.35625C460.3875 776.1015625 432.175 800 398.4375 800C359.6656250000001 800 328.125 768.459375 328.125 729.6875S359.6656250000001 659.375 398.4375 659.375C424.0640625000001 659.375 446.303125 673.3 458.59375 693.8390625C467.3421875 684.4171875 468.75 670.44375 468.75 635.9375C468.75 521.3359375 366.5765625 329.6875 257.8125 329.6875S46.875 521.3359375 46.875 635.9375C46.875 670.44375 48.2828125 684.4171875 57.03125 693.8390625C69.321875 673.3 91.5609375 659.375 117.1875 659.375C155.959375 659.375 187.5 690.915625 187.5 729.6875S155.959375 800 117.1875 800C83.45 800 55.2375 776.1015625 48.465625 744.35625C5.1046875 719.5078125 0 691.8796875 0 635.9375C0 535.540625 75.909375 356.8875000000001 187.5 300.7828125V259.375C187.5 228.859375 207.153125 203.0875 234.375 193.3796874999999V117.1875C234.375 52.5734375 286.9484375 0 351.5625 0S468.75 52.5734375 468.75 117.1875V212.5C468.75 251.271875 500.290625 282.8125 539.0625 282.8125H567.996875C578.8859375000001 229.3890624999999 626.225 189.0625 682.8125 189.0625C747.4265625 189.0625 800 241.6359375 800 306.25S747.4265625 423.4375 682.8125 423.4375zM706.25 282.8125H659.375V329.6875H706.25z" />
    <glyph glyph-name="uEA15-021-handshake-1"
      unicode="&#xE015;"
      horiz-adv-x="800" d="M112.0078125 324.7640625H0V556.6796875H112.0078125zM158.8828125 361.9359375V519.5078125H217.3625L308.271875 610.415625H441.4796875L535.2109375 516.684375L513.8203125 495.29375C490.0203124999999 471.496875 451.0765625 471.271875 427.00625 494.7890625L386.259375 533.8921875L214.303125 361.9359375zM582.6390625 361.9359375L428.3718750000001 207.6687500000001C416.709375 196.00625 401.2031250000001 189.584375 384.7109375 189.584375S352.7125 196.00625 341.05 207.6687500000001L233.6890625 315.0296875L386.9375 468.2765625000001L394.328125 461.1828125000001C436.6796875 419.8859375000001 505.1265624999999 420.3093750000001 546.965625 462.1484375000001L603.821875 519.5078125H641.1203125V361.9343750000001H582.6390624999999zM800 324.7640625H687.9921875V556.6796875H800z" />
    <glyph glyph-name="uEA16-022-passport"
      unicode="&#xE016;"
      horiz-adv-x="800" d="M373.973434549924 378.4922554859822C384.1560110041803 352.5789339065817 395.3413814580735 342.9227462029135 400.0007809922116 342.9227462029135S415.847112964666 352.5804958910047 426.0265654500761 378.4922554859822C435.4437695370084 402.4671543963028 441.5886162575244 434.2941490015991 443.5426587708355 468.2532523444411H356.4589032135878C358.4113837424757 434.2957109860223 364.5562304629917 402.468716380726 373.973434549924 378.4922554859822zM331.0282348209283 359.9108887886615C318.8088306789361 390.3680230548901 311.5799667687815 428.7397323930187 309.5322051900838 468.253252344441H253.0898980609917C260.5749274165364 421.1484880967024 290.2479455023635 381.3428770581586 331.0282348209284 359.9108887886615zM331.0282348209283 623.4567105779538C290.2479455023635 602.0247223084567 260.5733654321133 562.2191112699128 253.0883360765685 515.1127850377511H309.5306432056606C311.5799667687814 554.6278669735966 318.8103926633592 592.9995763117251 331.0282348209283 623.4567105779538zM468.9702031946487 359.9108887886615C509.7520544976365 381.3428770581586 539.4250725834637 421.1484880967024 546.9101019390084 468.253252344441H490.4677948099163C488.4200332312187 428.7397323930187 481.1896073366409 390.3680230548901 468.9702031946487 359.9108887886615zM426.0265654500761 604.8753438806332C415.8455509802429 630.7886654600337 404.6601805263498 640.4448531637019 400.0007809922116 640.4448531637019S384.1544490197573 630.7871034756106 373.9734345499241 604.87378189621C364.5562304629918 580.9004449703125 358.4113837424757 549.0718883805931 356.4573412291647 515.1127850377511H443.5410967864124C441.5886162575245 549.0718883805931 435.4437695370084 580.9004449703125 426.0265654500762 604.8753438806332zM625.7700095085802 800H91.8478080477343V0H625.7700095085802C671.1956405014752 0 708.1521919522658 36.9565514507906 708.1521919522658 82.3821824436856V717.6178175563144C708.1521919522659 763.0434485492093 671.1956405014752 800 625.7700095085802 800zM521.0373919546088 103.7595012583737H278.9626080453913V150.619033951684H521.0373919546088zM564.7729558016982 196.5320040845893H235.2270441983018V243.3915367778996H564.7729558016983zM400.0007809922115 296.0632135096033C292.1348226854807 296.0632135096033 204.3794138262956 383.8186223687885 204.3794138262956 491.6830186910962S292.1348226854808 687.3059478414352 400.0007809922115 687.3059478414352S595.6205861737043 599.5489769978269 595.6205861737043 491.6845806755193S507.8667392989423 296.0632135096033 400.0007809922115 296.0632135096033zM546.9101019390084 515.1127850377511C539.4250725834637 562.2191112699128 509.7520544976365 602.0247223084568 468.9702031946487 623.4567105779538C481.1896073366409 592.9995763117251 488.4184712467955 554.6278669735966 490.4662328254932 515.1127850377511z" />
    <glyph glyph-name="uEA17-023-location"
      unicode="&#xE017;"
      horiz-adv-x="800" d="M745.0953125 86.30625H539.41875V136.0984375000001H728.7390625A1420781.9421875 1420781.9421875 0 0 0 698.7546875 227.3859375H555.8984375C513.0234375 186.475 473.3812500000001 148.8546875 437.8687500000001 100.175L399.9968750000001 48.2609375L362.1296875000001 100.1781249999999C326.2968750000001 149.2999999999999 285.7921875000001 187.5812499999999 244.1078125000001 227.3859374999999H101.2453125L71.2609375 136.0984374999999H260.58125V86.3062499999999H54.9046875C39.8828125 40.578125 26.925 1.1265625 26.55625 0H773.4437499999999C773.08125 1.1078125 760.1203125 40.56875 745.0953125 86.30625zM400 127.8015625000001C512.9921875 282.6890625 673.859375 342.45 673.859375 526.1421875C673.859375 683.0703125 556.928125 800 400 800C243.121875 800 126.140625 683.0703125 126.140625 526.140625C126.140625 342.4734375 287.0593750000001 282.6390625 400 127.8015625000001zM400 590.5390625C441.14375 590.5390625 474.6890625 556.9953125 474.6890625 515.85C474.6890625 474.721875 441.14375 441.1609375000001 400 441.1609375000001C358.853125 441.1609375000001 325.3109375 474.721875 325.3109375 515.85C325.3109375 556.9953125 358.853125 590.5390625 400 590.5390625z" />
    <glyph glyph-name="uEA18-024-wedding-rings"
      unicode="&#xE018;"
      horiz-adv-x="800" d="M267.3121367521368 115.2375091575092C159.7483760683761 121.3233699633701 74.1024664224665 210.7530158730159 74.1024664224665 319.8233943833945C74.1024664224665 432.8197313797315 166.0249084249085 524.7499877899879 279.0118681318682 524.7499877899879C329.5445177045178 524.7499877899879 378.0673015873017 506.207960927961 415.6436630036631 472.5403663003664C459.0401953601954 433.7246398046398 483.9368986568987 378.0563614163615 483.9368986568987 319.8249572649573C483.9368986568987 270.9895970695972 466.4185592185593 223.9640537240537 435.1624908424909 187.1535042735043A157.5525274725275 157.5525274725275 0 0 1 509.3040293040294 162.2536752136753C541.2243223443224 208.7212698412699 558.0393650793651 262.940757020757 558.0393650793651 319.8249572649573C558.0393650793651 380.767960927961 538.7455921855923 438.6539682539683 502.2476190476191 487.2236385836386C473.2452258852259 525.8315018315018 434.64673992674 556.3952136752137 390.6203663003663 575.6155311355311A275.5672771672772 275.5672771672772 0 0 1 314.4252014652015 596.6206593406594C367.5444200244201 635.723956043956 387.8571916971917 668.4975824175824 387.8571916971917 697.0826862026862C387.8571916971917 731.3848107448107 360.0504029304029 759.1915995115995 325.7482783882784 759.1915995115995C307.1093528693529 759.1915995115995 290.402148962149 750.9708424908425 279.0181196581197 737.9707936507937C267.6340903540904 750.9708424908425 250.9253235653236 759.1915995115995 232.287960927961 759.1915995115995C197.9858363858364 759.1915995115995 170.1790476190476 731.3848107448107 170.1790476190476 697.0826862026862C170.1790476190476 668.4928937728937 190.4980708180708 635.7145787545787 243.636043956044 596.6034676434676C106.4306715506716 579.1648351648352 0 461.6892796092796 0 319.8233943833944C0 165.9764590964591 125.16336996337 40.8115262515263 279.0118681318682 40.8115262515263C300.2826862026862 40.8115262515263 321.1643467643468 43.1714774114774 341.4927472527472 47.8241758241758A327.7440781440783 327.7440781440783 0 0 0 267.3121367521367 115.2375091575092zM520.9896947496948 598.8336996336997C499.7173137973138 598.8336996336997 478.8356532356532 596.4737484737485 458.5072527472527 591.822612942613A327.8284737484737 327.8284737484737 0 0 0 532.6894261294261 524.4077167277168C640.2531868131869 518.321855921856 725.8990964590964 428.8922100122101 725.8990964590964 319.8233943833945C725.8990964590964 206.8270573870574 633.9782173382173 114.8968009768011 520.9912576312576 114.8968009768011C470.4601709401708 114.8968009768011 421.9358241758241 133.4388278388279 384.3578998778998 167.1064224664225C340.9613675213675 205.9237118437119 316.0646642246642 261.5919902319903 316.0646642246642 319.8233943833945C316.0646642246642 368.6587545787546 333.5830036630036 415.6858608058609 364.839072039072 452.4948473748474A157.5525274725275 157.5525274725275 0 0 1 290.6975335775335 477.3946764346765C258.7756776556776 430.9270818070819 241.9621978021977 376.7091575091576 241.9621978021977 319.8249572649574C241.9621978021977 258.8803907203908 261.2544078144078 200.9959462759464 297.7555067155066 152.4247130647132C326.7563369963369 113.8168498168499 365.3548229548229 83.253137973138 409.3811965811965 64.0328205128205C444.6147985347984 48.6228083028084 482.1599023199021 40.8130891330892 520.9912576312574 40.8130891330892C674.8381929181928 40.8130891330892 800.0015628815627 165.9764590964591 800.0015628815627 319.8249572649573C799.9999999999998 473.6703296703297 674.8366300366298 598.8336996336997 520.9896947496945 598.8336996336997z" />
    <glyph glyph-name="uEA19-025-lifeguard"
      unicode="&#xE019;"
      horiz-adv-x="800" d="M573.3543307086615 377.9527559055118C569.2535433070866 345.3874015748032 556.1858267716535 315.6173228346458 536.7086614173228 291.1811023622048L699.5070866141733 134.8850393700789C759.6125984251968 202.6062992125984 794.503937007874 287.4708661417323 799.3858267716536 377.9527559055118zM355.0787401574803 568.8944881889763A174.9511811023622 174.9511811023622 0 0 0 400 574.7338582677165C414.807874015748 574.7338582677165 429.1811023622048 572.8850393700787 442.911811023622 569.4173228346457L517.5055118110236 782.540157480315C479.9181102362205 794.0346456692913 440.4188976377953 800 400 800C352.1748031496063 800 305.6409448818898 791.6393700787402 262.0377952755906 775.6535433070866zM486.7653543307086 551.7007874015749C532.3968503937008 525.5464566929134 565.0897637795275 479.3937007874016 572.91968503937 425.1968503937009H799.1952755905512C793.1826771653543 522.5590551181103 752.4236220472442 613.2629921259843 682.844094488189 682.8425196850394C647.3496062992126 718.3385826771654 606.3574803149606 746.3370078740157 561.7889763779527 766.051968503937zM502.5275590551181 258.5070866141732C473.7291338582677 237.6031496062992 438.3086614173228 225.2661417322835 400 225.2661417322835C358.2866141732283 225.2661417322835 319.9952755905512 239.8913385826771 289.9527559055118 264.2818897637796L130.2897637795275 104.6188976377953C204.1574803149606 37.0251968503937 299.2299212598425 0 400 0C499.1622047244094 0 592.8031496062993 35.8614173228347 666.1543307086614 101.4141732283465zM227.0818897637796 425.1968503937008C234.8094488188977 478.6929133858268 266.7669291338583 524.3417322834646 311.4740157480316 550.6661417322834L218.7275590551181 756.7716535433071C181.6724409448819 737.896062992126 147.4141732283465 713.0992125984252 117.1574803149606 682.8425196850394C47.5779527559055 613.2629921259843 6.8188976377953 522.5590551181102 0.8062992125984 425.1968503937008zM226.6456692913386 377.9527559055118H0.6141732283465C5.4110236220472 289.0645669291339 39.1511811023622 205.5858267716536 97.3244094488189 138.4661417322835L257.5889763779528 298.7307086614174C241.2645669291339 321.6472440944883 230.332283464567 348.672440944882 226.6456692913386 377.9527559055118z" />
    <glyph glyph-name="uEA1A-026-squirrel"
      unicode="&#xE01A;"
      horiz-adv-x="800" d="M564.7089285714286 379.1946428571429C526.1517857142858 419.2357142857143 471.9696428571429 453.9839285714285 394.1982142857144 488.5482142857143C262.4589285714286 547.1017857142857 217.6375000000001 634.3839285714286 215.7946428571429 638.0714285714286A14.275 14.275 0 0 0 214.2857142857143 644.4607142857143C214.2857142857143 691.0232142857143 194.5821428571429 716.7357142857143 184.1285714285715 727.0964285714285C143.3589285714286 700.3446428571428 142.8571428571428 645.0517857142858 142.8571428571428 644.4607142857143A14.2857142857143 14.2857142857143 0 0 0 133.0892857142857 630.9071428571428C96.3535714285714 618.6625 61.9714285714286 593.725 36.2767857142857 560.6910714285714C13.5607142857143 531.4857142857143 0 498.7160714285715 0 473.0321428571428C0 469.9196428571429 0 463.4428571428571 15.8482142857143 456.7178571428572C29.1178571428571 451.0892857142857 48.2946428571429 447.6107142857143 66.8410714285714 444.2303571428572C109.1678571428571 436.5357142857144 157.1428571428572 427.8142857142857 157.1428571428572 387.3178571428571C157.1428571428572 338.4714285714286 107.6660714285714 300.8892857142858 78.175 282.8321428571429A14.2839285714286 14.2839285714286 0 0 1 71.4285714285714 270.7V187.3178571428572A14.2857142857143 14.2857142857143 0 0 1 100 187.3178571428572V201.6035714285715C100.0267857142857 225.2625000000001 119.1982142857143 244.4339285714286 142.8571428571428 244.4607142857143H217.7375C224.0178571428571 263.594642857143 241.0125 302.0160714285715 280.9267857142857 325.175S372.0517857142857 349.7821428571429 433.0892857142857 329.4375000000001A14.2857142857143 14.2857142857143 0 1 0 424.0535714285714 302.3303571428572C371.2839285714285 319.9232142857143 328.05 319.344642857143 295.5464285714285 300.6250000000001C253.1035714285714 276.1785714285715 242.6714285714285 227.8089285714286 242.5696428571428 227.3232142857144C242.5571428571428 227.2535714285715 242.5321428571428 227.1446428571429 242.5178571428571 227.0714285714286C231.6785714285714 178.3000000000001 239.0946428571428 134.9785714285715 264.5589285714285 98.3214285714287A151.4910714285714 151.4910714285714 0 0 1 307.1267857142857 56.8464285714287A14.2857142857143 14.2857142857143 0 0 0 300 30.1750000000001H228.5714285714286A14.2857142857143 14.2857142857143 0 0 1 228.5714285714286 1.6035714285715H524.4196428571429C531.4982142857143 6.357142857143 550.3678571428571 20.3000000000001 570.0464285714286 45.532142857143C592.9035714285715 74.8500000000001 621.6357142857144 125.9482142857144 628.6303571428572 202.8964285714286C634.7750000000001 270.4821428571429 613.8660714285714 328.1482142857144 564.7089285714286 379.1946428571429zM100 530.175A14.2857142857143 14.2857142857143 0 1 0 100 558.7464285714286A14.2857142857143 14.2857142857143 0 0 0 100 530.175zM550.3017857142856 617.6357142857144C488.3821428571428 651.4107142857143 450.4232142857143 691.6928571428572 437.4803571428571 737.3625A122.0392857142858 122.0392857142858 0 0 0 435.8303571428571 798.3964285714286C406.0589285714285 792.5035714285715 352.9857142857143 776.4142857142857 319.1767857142858 733.7392857142858C290.7696428571429 697.8821428571429 281.0392857142858 649.7517857142857 290.2142857142858 590.6303571428572C316.1589285714287 565.9535714285714 353.6892857142858 537.8214285714287 405.8017857142858 514.6607142857143C521.2767857142858 463.3375 672.9571428571429 374.9160714285715 657.0839285714285 200.3107142857143C647.8089285714286 98.2821428571429 604.1196428571428 36.5607142857143 571.7571428571429 4.0982142857142C613.2875 9.3857142857142 677.2589285714286 25.25 726.4589285714285 72.1624999999999C775.2571428571429 118.6875 800 186.2714285714286 800 273.0321428571429C800 351.5267857142858 778.2142857142858 417.5750000000001 733.3928571428571 474.9517857142857C693.6160714285714 525.8571428571429 635.4392857142857 571.194642857143 550.3017857142856 617.6357142857144z" />
    <glyph glyph-name="uEA1B-027-mortarboard"
      unicode="&#xE01B;"
      horiz-adv-x="800" d="M400.0007821038987 256.4628178030311L141.1228274620142 382.7460058931529V216.0483809471668L400.0148599740733 101.0744152306913L658.9053282783352 216.048380947167V382.7600837633275zM800 503.8000473172859L400.0007821038987 698.9255847693087L0 503.8000473172859L400.0007821038987 308.674509865263L705.8378190250684 457.8655211451564V284.1884010081318H752.7640529406129V480.7577022569562z" />
    <glyph glyph-name="uEA1C-028-brick-wall"
      unicode="&#xE01C;"
      horiz-adv-x="800" d="M258.8235294117647 376.4705882352941H541.1764705882354V235.2941176470589H258.8235294117647zM0 376.4705882352941H211.764705882353V235.2941176470589H0zM588.235294117647 376.4705882352941H800V235.2941176470589H588.235294117647zM423.5294117647059 188.2352941176471H800V47.0588235294118H423.5294117647059zM0 188.2352941176471H376.4705882352941V47.0588235294118H0zM423.5294117647059 564.7058823529412H800V423.5294117647059H423.5294117647059zM94.1176470588235 564.7058823529412H376.4705882352941V423.5294117647059H94.1176470588235zM541.1764705882354 752.9411764705883H800V611.7647058823529H541.1764705882354z" />
    <glyph glyph-name="uEA1D-029-lmcu-icons-filled-id"
      unicode="&#xE01D;"
      horiz-adv-x="800" d="M746.671875 800H53.328125A53.3125 53.3125 0 0 1 0 746.671875V53.328125A53.3125 53.3125 0 0 1 53.328125 0H746.671875A53.3125 53.3125 0 0 1 800 53.328125V746.671875A53.3125 53.3125 0 0 1 746.671875 800zM80 640H346.671875V560H80zM720 160H80V240H720zM720 320H80V400H720z" />
    <glyph glyph-name="uEA1E-030-lmcu-icons-filled-savings-1"
      unicode="&#xE01E;"
      horiz-adv-x="800" d="M586.671875 800H213.328125L330.1406250000001 649.828125Q106.703125 413.5312500000001 106.703125 240C106.671875 41.171875 238 0 400 0S693.328125 41.171875 693.328125 240Q693.328125 413.5312500000001 469.890625 649.828125zM533.3281250000001 266.671875A133.328125 133.328125 0 1 0 400 400A132.921875 132.921875 0 0 0 533.328125 266.671875zM435.9843750000001 255.734375A8.984375 8.984375 0 0 0 433.8281250000001 253.203125A10.578125 10.578125 0 0 0 430.7968750000001 251.4375A10.171875 10.171875 0 0 0 427.1093750000001 250.765625H389.421875L387.328125 232.59375A47.5625 47.5625 0 0 0 384.203125 220.1875A37.890625 37.890625 0 0 0 377.703125 210Q383.09375 211.21875 388.4375000000001 211.9375000000001A81.515625 81.515625 0 0 0 399.0781250000001 212.65625H456.0937500000001L454.3281250000001 199.421875A14.0625 14.0625 0 0 0 452.6718750000001 194.5625A18.140625 18.140625 0 0 0 449.3125000000001 190.171875A16.9375 16.9375 0 0 0 444.5312500000001 186.90625A13.921875 13.921875 0 0 0 438.6718750000001 185.640625H333.3281250000001L335.9843750000001 205.484375A20.65625 20.65625 0 0 1 347.3906250000001 211.265625C349.9843750000001 214.09375 351.6250000000001 218.265625 352.2812500000001 223.765625L355.5937500000001 250.7499999999999H339.5000000000001L341.1562500000001 263.6562499999999A7.8125 7.8125 0 0 0 342.2031250000001 266.453125A9.796875 9.796875 0 0 0 344.359375 268.9374999999999A11.484375 11.484375 0 0 0 347.390625 270.75A9.375 9.375 0 0 0 351.0781250000001 271.4687499999999H358.125L361.109375 295.8281249999999A61.59375 61.59375 0 0 0 367.1875 315.625A55.875 55.875 0 0 0 379.6875 332.15625A58.875 58.875 0 0 0 398.140625 343.453125A65.265625 65.265625 0 0 0 422.046875 347.640625A58.859375 58.859375 0 0 0 439.03125 345.4375A43.53125 43.53125 0 0 0 451.7031250000001 339.375A36.015625 36.015625 0 0 0 460.734375 330A59.96875 59.96875 0 0 0 466.796875 318.15625L452.46875 309.671875A18.203125 18.203125 0 0 0 443.703125 307.6718750000001A10.25 10.25 0 0 0 436.375 311.6562500000001C435.046875 313.2187500000001 433.828125 314.6718750000001 432.6875 315.8437500000001A16.578125 16.578125 0 0 1 429.0625 318.7031250000001A14.6875 14.6875 0 0 1 424.640625 320.2656250000001A30.453125 30.453125 0 0 1 418.75 320.7656250000001A21.625 21.625 0 0 1 402.828125 314.3125000000001C398.53125 310.03125 395.90625 303.8593750000001 395.015625 295.8593750000001L392.03125 271.28125H438.765625L437.203125 258.390625A8.484375 8.484375 0 0 0 435.9375 255.703125z" />
    <glyph glyph-name="uEA1F-031-lmcu-icons-filled-current-account"
      unicode="&#xE01F;"
      horiz-adv-x="800" d="M720 693.328125H80A80 80 0 0 1 0 613.328125V186.671875A80 80 0 0 1 80 106.6718750000001H720A80 80 0 0 1 800 186.671875V613.328125A80 80 0 0 1 720 693.328125zM467.578125 379.40625A17.1875 17.1875 0 0 0 463.546875 374.71875A19.953125 19.953125 0 0 0 457.8593750000001 371.390625A19.125 19.125 0 0 0 450.9218750000001 370.140625H380.1406250000001L376.203125 335.9375A88.5625 88.5625 0 0 0 370.203125 312.640625A70.015625 70.015625 0 0 0 357.984375 293.515625C364.7500000000001 295.078125 371.46875 296.21875 378.171875 297.125A148.546875 148.546875 0 0 0 398.140625 298.484375H505.359375L502.046875 273.640625A26.265625 26.265625 0 0 0 498.921875 264.515625A33.765625 33.765625 0 0 0 492.671875 256.25A31.671875 31.671875 0 0 0 483.671875 250.140625A25.796875 25.796875 0 0 0 472.734375 247.765625H274.78125L279.6875 285.015625Q293.75 287.8906249999999 301.109375 295.953125T310.3125 319.390625L316.5625 370.09375H286.375L289.5 394.328125A14.671875 14.671875 0 0 0 291.46875 399.59375A18.390625 18.390625 0 0 0 295.515625 404.28125A21.875 21.875 0 0 0 301.203125 407.6718749999999A17.3125 17.3125 0 0 0 308.125 409.0312499999999H321.390625L326.953125 454.6874999999999A115.828125 115.828125 0 0 0 338.21875 492.0468749999999A105.296875 105.296875 0 0 0 361.65625 523.0937499999999A110.28125 110.28125 0 0 0 396.328125 544.3125A122.328125 122.328125 0 0 0 441.234375 552.125A110.28125 110.28125 0 0 0 473.125 547.9843749999999A81.015625 81.015625 0 0 0 496.875 536.703125A67.34375 67.34375 0 0 0 513.84375 519.21875A110.078125 110.078125 0 0 0 525.21875 496.9687499999999L498.328125 481.0312499999999A34.375 34.375 0 0 0 481.859375 477.2968749999999Q474.046875 477.7187499999999 468.1093749999999 484.7656249999999Q464.359375 489.3124999999999 461.15625 492.5781249999999A30.9375 30.9375 0 0 1 454.3437499999999 497.9531249999999A27.203125 27.203125 0 0 1 446.046875 500.9531249999999A56.625 56.625 0 0 1 434.984375 501.8906249999999A40.625 40.625 0 0 1 405.0625 489.7812499999999Q392.96875 477.6874999999999 390.28125 455.1249999999999L384.6875 408.9531249999999H472.453125L469.546875 384.75A15.265625 15.265625 0 0 0 467.578125 379.4062499999999z" />
    <glyph glyph-name="uEA20-032-lmcu-icons-filled-savings"
      unicode="&#xE020;"
      horiz-adv-x="800" d="M714.25 380.34375H690.265625C674.3906249999999 427.96875 643.46875 469.9687500000001 602.09375 502.703125A22.625 22.625 0 0 1 601.421875 507.390625C592.796875 537.15625 603.4375 564.4375 615.9375 583.953125C624.734375 597.515625 613.40625 615.203125 597.03125 613.21875C560.375 608.75 535.203125 595.53125 517.8125 580.8125A74.75 74.75 0 0 1 493.65625 541.953125C467.46875 435.7031250000001 369.671875 356.4062500000001 252.78125 356.4062500000001A250.4218750000001 250.4218750000001 0 0 0 102.28125 406.4062500000001A231.78125 231.78125 0 0 1 86.75 251.5625A3.125 3.125 0 0 1 86.90625 250.734375A231.90625 231.90625 0 0 1 107.359375 197.5C119 172.6875000000001 136.234375 143.7500000000001 159.546875 120.109375C193.5 85.875 199.234375 43.546875 200.078125 25.34375V16.25A17.6875 17.6875 0 0 1 217.65625 0H325.46875A17.546875 17.546875 0 0 1 343.203125 17.359375V43.5A377.984375 377.984375 0 0 1 391 40.375A353.984375 353.984375 0 0 1 428.5 42.359375V17.5625A17.546875 17.546875 0 0 1 446.2343750000001 0.203125H554.046875A17.546875 17.546875 0 0 1 571.7812500000001 17.5625V43.65625C571.9531250000001 52.25 575.0000000000001 86.8125 608.2656250000001 116.25C609.4531250000001 117.25 610.6250000000001 118.2343749999999 611.8125000000001 119.375C612.1562500000001 119.7031249999999 612.4843750000001 119.875 612.828125 120.2031249999999C649.8281250000001 152.4531249999999 677.3593750000001 192.7968749999999 691.546875 237.7812499999999H714.0625A32.28125 32.28125 0 0 1 746.65625 269.7031249999999V348.5937500000001C746.875 365.9531250000001 732.328125 380.34375 714.25 380.34375zM579.6875 374.71875A26.125 26.125 0 1 0 606.25 400.84375A26.46875 26.46875 0 0 0 579.6875 374.71875zM240 426.65625A186.671875 186.671875 0 1 1 53.3125 613.328125A186.09375 186.09375 0 0 1 240 426.65625zM283.171875 600.09375A11.109375 11.109375 0 0 0 280.59375 596.96875A12.703125 12.703125 0 0 0 276.953125 594.859375A12.078125 12.078125 0 0 0 272.53125 594.0625H227.3125L224.78125 572.1875A55.828125 55.828125 0 0 0 220.953125 557.296875A44.734375 44.734375 0 0 0 213.140625 545.078125C217.453125 546.046875 221.75 546.796875 226.03125 547.390625A97.515625 97.515625 0 0 0 238.796875 548.25H307.296875L305.1718749999999 532.375A16.5625 16.5625 0 0 0 303.1874999999999 526.546875A21.453125 21.453125 0 0 0 299.1562499999999 521.265625A20.421875 20.421875 0 0 0 293.4062499999999 517.359375A16.515625 16.515625 0 0 0 286.3906249999999 515.796875H159.9843749999999L163.1093749999999 539.59375A25 25 0 0 1 176.7968749999999 546.546875Q181.4843749999999 551.625 182.6718749999999 561.5625L186.6406249999999 593.953125H167.3906249999999L169.3749999999999 609.421875A9.703125 9.703125 0 0 0 170.6406249999999 612.796875A11.28125 11.28125 0 0 0 173.2187499999999 615.765625A13.84375 13.84375 0 0 0 176.8593749999999 617.953125A11.21875 11.21875 0 0 0 181.2812499999999 618.8125H189.7499999999999L193.3124999999999 648.03125A74.515625 74.515625 0 0 0 200.5156249999999 671.90625A67.09375 67.09375 0 0 0 215.4687499999999 691.734375A70.3125 70.3125 0 0 0 237.6093749999999 705.296875A78.25 78.25 0 0 0 266.3124999999999 710.328125A70.3125 70.3125 0 0 0 286.6249999999999 707.671875A52.0625 52.0625 0 0 0 301.8437499999999 700.40625A43.34375 43.34375 0 0 0 312.6874999999999 689.234375A71.234375 71.234375 0 0 0 319.9531249999999 675.015625L302.7656249999999 664.828125A21.96875 21.96875 0 0 0 292.2499999999999 662.453125A12.234375 12.234375 0 0 0 283.4531249999999 667.140625C281.8906249999999 669.078125 280.3281249999999 670.75 279.0156249999999 672.15625A19.1875 19.1875 0 0 1 274.6718749999999 675.59375A17.34375 17.34375 0 0 1 269.375 677.5156250000001A37.078125 37.078125 0 0 1 262.296875 678.109375A25.96875 25.96875 0 0 1 243.1875 670.375Q235.453125 662.5625 233.8125 648.234375L230.25 618.734375H286.3125L284.453125 603.265625A9.46875 9.46875 0 0 0 283.171875 600.171875z" />
    <glyph glyph-name="uEA21-033-lmcu-icons-filled-card"
      unicode="&#xE021;"
      horiz-adv-x="800" d="M160 426.671875H373.328125V346.671875H160zM746.671875 640H53.328125A53.3125 53.3125 0 0 1 0 586.671875V213.328125A53.3125 53.3125 0 0 1 53.328125 160H746.671875A53.3125 53.3125 0 0 1 800 213.328125V586.671875A53.3125 53.3125 0 0 1 746.671875 640zM720 240H80V506.671875H720z" />
    <glyph glyph-name="uEA22-034-lmcu-icons-filled-house-money"
      unicode="&#xE022;"
      horiz-adv-x="800" d="M787.359375 483.3125L720 541.125V690.203125A26.671875 26.671875 0 0 1 693.328125 716.875H613.328125A26.65625 26.65625 0 0 1 586.671875 690.203125V655.515625L437.5 783.5A59.25 59.25 0 0 1 362.5 783.5L12.640625 483.3125C-2.75 470.171875 -0.796875 459.390625 1.703125 454.0625C3.921875 449.28125 10.1875 441.6875 27.265625 440.09375A51.6875 51.6875 0 0 1 34.703125 439.640625H53.453125V-3.125H746.671875V440.09375L765.3125 439.640625A48.4375 48.4375 0 0 1 772.609375 440.09375C789.703125 441.65625 795.96875 449.28125 798.3125 454.0625C800.78125 459.375 802.75 470.171875 787.359375 483.3125zM266.671875 76.875A133.34375 133.34375 0 1 0 400 210.203125A132.921875 132.921875 0 0 0 266.671875 76.875zM306.671875 198.015625A10.21875 10.21875 0 0 0 304.296875 195.203125A11.6875 11.6875 0 0 0 300.921875 193.234375A11.421875 11.421875 0 0 0 296.8125 192.5H254.90625L252.578125 172.28125A52.90625 52.90625 0 0 0 249.03125 158.484375A42.1875 42.1875 0 0 0 241.796875 147.15625C245.796875 148.0625 249.78125 148.71875 253.75 149.3125A91.28125 91.28125 0 0 0 265.5625 150.109375H329.046875L327.078125 135.390625A15.625 15.625 0 0 0 325.25 130A20.1875 20.1875 0 0 0 321.5 125.109375A18.75 18.75 0 0 0 316.1875 121.484375A15.46875 15.46875 0 0 0 309.671875 120.078125H192.484375L195.46875 142.1875A22.921875 22.921875 0 0 1 208.15625 148.609375Q212.5 153.296875 213.609375 162.5312500000001L217.28125 192.546875H199.390625L201.234375 206.890625A8.5 8.5 0 0 0 202.390625 210.015625A10.8125 10.8125 0 0 0 204.78125 212.78125A13.421875 13.421875 0 0 0 208.15625 214.796875A10.234375 10.234375 0 0 0 212.25 215.59375H220.0625L223.4375 242.625A68.484375 68.484375 0 0 0 230.1093750000001 264.734375A62.03125 62.03125 0 0 0 243.953125 283.109375A65.0625 65.0625 0 0 0 264.484375 295.6875A72.46875 72.46875 0 0 0 291.046875 300.375A65.625 65.625 0 0 0 309.921875 297.921875A47.953125 47.953125 0 0 0 323.984375 291.1718750000001A40.0625 40.0625 0 0 0 334.046875 280.828125A66.109375 66.109375 0 0 0 340.765625 267.65625L324.84375 258.28125A20.15625 20.15625 0 0 0 315.109375 256.0625A11.375 11.375 0 0 0 306.953125 260.484375C305.4843750000001 262.2812499999999 304.1093750000001 263.828125 302.8437500000001 265.171875A18.53125 18.53125 0 0 1 298.8125 268.296875A16.15625 16.15625 0 0 1 293.9062500000001 270.0625A33.34375 33.34375 0 0 1 287.3437500000001 270.625A24.03125 24.03125 0 0 1 269.6406250000001 263.453125Q262.5 256.25 260.9375 242.875L257.640625 215.53125H309.59375L307.875 201.203125A9.109375 9.109375 0 0 0 306.671875 198.0156249999999z" />
    <glyph glyph-name="uEA23-035-lmcu-icons-filled-decision"
      unicode="&#xE023;"
      horiz-adv-x="800" d="M188.40625 449.3125L93.203125 543.9375A15.15625 15.15625 0 0 0 93.203125 564.453125L114.296875 584.984375A12.734375 12.734375 0 0 0 124.265625 589.546875A14.546875 14.546875 0 0 0 134.8125 584.984375L198.65625 521.140625L335.46875 657.953125A14.546875 14.546875 0 0 0 346.015625 662.5A12.734375 12.734375 0 0 0 356 657.9375L377.09375 637.40625A15.203125 15.203125 0 0 0 377.09375 616.890625L208.921875 449.3125A13.8125 13.8125 0 0 0 188.40625 449.3125zM275.375 334.1875A128.3125 128.3125 0 0 0 317.1875 360.5000000000001C320.6875 361.890625 324.59375 362.5468750000001 328.265625 363.6250000000001H45.15625V743.625H425.125V630.359375A167.0625 167.0625 0 0 0 470.2812499999999 649.109375V788.78125H0V318.46875H261.34375A153.53125 153.53125 0 0 0 275.375 334.1875zM405.609375 367.1875Q451.078125 321.71875 515.375 321.703125T625.140625 367.1875Q670.609375 412.6875 670.609375 476.953125T625.140625 586.71875Q579.6875 632.21875 515.375 632.21875T405.609375 586.734375Q360.125 541.265625 360.125 476.96875T405.609375 367.1875zM265.921875 285.140625A208.6875 208.6875 0 0 1 248.53125 245.71875A344.265625 344.265625 0 0 1 237.828125 201.84375A410.609375 410.609375 0 0 1 232.171875 157.78125Q230.7343750000001 137.359375 230.75 115.9375000000001Q230.75 67.421875 260.265625 39.3750000000001T338.6875 11.2500000000001H692.046875Q740.953125 11.2500000000001 770.4843749999999 39.3750000000001T799.9999999999999 115.9375000000001Q799.9999999999999 137.359375 798.59375 157.78125A418.75 418.75 0 0 1 792.9374999999999 201.84375A341.59375 341.59375 0 0 1 782.2187499999999 245.71875A208.609375 208.609375 0 0 1 764.8437499999999 285.140625A143.03125 143.03125 0 0 1 739.7656249999999 317.953125A105.796875 105.796875 0 0 1 705.1874999999999 339.578125A121.359375 121.359375 0 0 1 660.1093749999999 347.65625Q656.0781249999999 347.65625 642.7343749999999 338.96875T613.2187499999999 319.5625Q597.0468749999999 308.875 569.9531249999999 300.15625A175.78125 175.78125 0 0 0 460.7968749999999 300.15625Q433.7031249999999 308.84375 417.5312499999999 319.5625T388.0156249999999 338.90625Q374.6718749999999 347.609375 370.6406249999999 347.59375A121.40625 121.40625 0 0 1 325.5624999999999 339.515625A105.796875 105.796875 0 0 1 290.9843749999999 317.890625A142.65625 142.65625 0 0 1 265.9218749999999 285.140625z" />
    <glyph glyph-name="uEA24-036-lmcu-icons-filled-card-stack"
      unicode="&#xE024;"
      horiz-adv-x="800" d="M755.5625 711.109375H177.78125A44.4375 44.4375 0 0 1 133.328125 666.671875V577.78125H44.4375A44.4375 44.4375 0 0 1 0 533.328125V133.3281250000001A44.4375 44.4375 0 0 1 44.4375 88.8906250000001H622.21875A44.4375 44.4375 0 0 1 666.6718749999999 133.3281250000001V222.21875H755.5624999999999A44.4375 44.4375 0 0 1 800 266.671875V666.671875A44.4375 44.4375 0 0 1 755.5625 711.109375zM600 155.5625H66.671875V511.109375H133.328125V266.671875A44.453125 44.453125 0 0 1 177.78125 222.21875H600zM466.671875 311.109375A155.5625 155.5625 0 1 0 622.21875 466.671875A155.078125 155.078125 0 0 0 466.671875 311.109375zM507.203125 454.3125A10.484375 10.484375 0 0 0 504.796875 451.4531249999999A12.34375 12.34375 0 0 0 501.375 449.46875A11.359375 11.359375 0 0 0 497.2187499999999 448.71875H454.6875L452.328125 428.234375A53.125 53.125 0 0 0 448.734375 414.265625A42.6875 42.6875 0 0 0 441.40625 402.78125Q447.46875 404.140625 453.515625 404.953125A91.015625 91.015625 0 0 0 465.5 405.765625H529.8125000000001L527.8281250000001 390.859375A16 16 0 0 0 525.9687500000001 385.390625A21.421875 21.421875 0 0 0 522.1718750000001 380.421875A18.96875 18.96875 0 0 0 516.7812500000001 376.765625A15.625 15.625 0 0 0 510.1875000000001 375.328125H391.4375000000001L394.4218750000001 397.6875A23.28125 23.28125 0 0 1 407.2656250000001 404.203125Q411.6718750000001 408.984375 412.78125 418.265625L416.515625 448.6875H398.4375L400.296875 463.2187499999999A8.828125 8.828125 0 0 0 401.46875 466.3437499999999A11.203125 11.203125 0 0 0 403.90625 469.15625A12.953125 12.953125 0 0 0 407.3125 471.1875A10.484375 10.484375 0 0 0 411.4687500000001 472H419.421875L422.78125 499.453125A69.40625 69.40625 0 0 0 429.59375 521.875A63.296875 63.296875 0 0 0 443.65625 540.5A66.25 66.25 0 0 0 464.453125 553.234375A73.328125 73.328125 0 0 0 491.390625 557.921875A66.1875 66.1875 0 0 0 510.515625 555.4375A48.8125 48.8125 0 0 0 524.796875 548.609375A40.625 40.625 0 0 0 534.984375 538.109375A65.796875 65.796875 0 0 0 541.796875 524.765625L525.671875 515.203125A20.3125 20.3125 0 0 0 515.796875 512.96875A11.546875 11.546875 0 0 0 507.53125 517.4375C506.046875 519.25 504.65625 520.828125 503.3749999999999 522.125A18.1875 18.1875 0 0 1 499.2812499999999 525.34375A16.171875 16.171875 0 0 1 494.3124999999999 527.140625A33.96875 33.96875 0 0 1 487.6718749999999 527.71875A24.453125 24.453125 0 0 1 469.7187499999999 520.453125Q462.4687499999999 513.1875 460.8593749999999 499.65625L457.4999999999999 471.953125H510.1406249999999L508.4062499999999 457.4375000000001A9.265625 9.265625 0 0 0 507.2031249999999 454.3125000000001z" />
    <glyph glyph-name="uEA25-037-lmcu-icons-filled-mobile-app"
      unicode="&#xE025;"
      horiz-adv-x="800" d="M628.125 0H171.875A4.6875 4.6875 0 0 0 167.1875 4.6875V795.3125A4.6875 4.6875 0 0 0 171.875 800H628.125A4.6875 4.6875 0 0 0 632.8125 795.3125V4.6875A4.6875 4.6875 0 0 0 628.125 0zM527.125 735.765625H494.7812500000001V721.15625A47.671875 47.671875 0 0 0 447.25 673.625H352.734375A47.671875 47.671875 0 0 0 305.21875 721.15625V735.765625H272.875A50.9375 50.9375 0 0 1 222.09375 684.984375V115.015625A50.9375 50.9375 0 0 1 272.875 64.234375H527.125A50.9375 50.9375 0 0 1 577.90625 115.015625V684.984375A50.9375 50.9375 0 0 1 527.125 735.765625zM400 273.171875A126.828125 126.828125 0 1 1 273.171875 400A126.453125 126.453125 0 0 1 400 273.171875zM429.328125 391.0625A7.53125 7.53125 0 0 0 427.59375 389A8.6875 8.6875 0 0 0 425.109375 387.5625A8.25 8.25 0 0 0 422.109375 387.0156249999999H391.375L389.671875 372.1874999999999A38.140625 38.140625 0 0 0 387.0625 362.0781249999999A30.109375 30.109375 0 0 0 381.765625 353.7812499999999C384.703125 354.4374999999999 387.609375 354.9531249999999 390.53125 355.3437499999999A64.703125 64.703125 0 0 0 399.203125 355.9374999999999H445.734375L444.296875 345.1562499999999A11.390625 11.390625 0 0 0 442.953125 341.1874999999999A14.78125 14.78125 0 0 0 440.203125 337.6093749999999A13.484375 13.484375 0 0 0 436.296875 334.9531249999999A11.265625 11.265625 0 0 0 431.53125 333.9218749999998H345.59375L347.7499999999999 350.0937499999999A16.84375 16.84375 0 0 1 357.1249999999999 354.7812499999999A17.859375 17.859375 0 0 1 361.109375 364.9687499999998L363.8125 386.9843749999998H350.6874999999999L352.03125 397.4999999999998A6.578125 6.578125 0 0 0 352.890625 399.7812499999998A7.703125 7.703125 0 0 0 354.640625 401.8124999999998A9.375 9.375 0 0 0 357.125 403.2812499999998A7.34375 7.34375 0 0 0 360.125 403.8749999999998H365.875L368.3125 423.7343749999998A50 50 0 0 0 373.203125 439.9531249999998A45.5625 45.5625 0 0 0 383.359375 453.4218749999998A47.75 47.75 0 0 0 398.40625 462.6406249999998A53.125 53.125 0 0 0 417.890625 466.0468749999998A47.6875 47.6875 0 0 0 431.734375 464.2499999999998A35.375 35.375 0 0 0 442.0625 459.3124999999998A29.125 29.125 0 0 0 449.4375000000001 451.7187499999998A48.4375 48.4375 0 0 0 454.3750000000001 442.0624999999998L442.6875000000001 435.1406249999998A15.015625 15.015625 0 0 0 435.5468750000001 433.5781249999998A8.328125 8.328125 0 0 0 429.5781250000001 436.8281249999998C428.5000000000001 438.1406249999998 427.5000000000001 439.2812499999998 426.5625000000001 440.2343749999998A13.25 13.25 0 0 1 423.6093750000001 442.5781249999998A12.046875 12.046875 0 0 1 420.0000000000001 443.8749999999998A25 25 0 0 1 415.2031250000001 444.2812499999998A17.640625 17.640625 0 0 1 402.2187500000001 439.0312499999998Q396.9687500000001 433.7499999999998 395.7968750000001 423.9843749999998L393.3750000000001 403.9374999999998H431.4687500000001L430.2031250000001 393.4218749999998A6.71875 6.71875 0 0 0 429.3281250000001 391.0624999999998z" />
    <glyph glyph-name="uEA26-038-lmcu-icons-filled-identification"
      unicode="&#xE026;"
      horiz-adv-x="800" d="M746.671875 693.328125H53.328125A53.328125 53.328125 0 0 1 0 640V160A53.328125 53.328125 0 0 1 53.328125 106.671875H746.671875A53.328125 53.328125 0 0 1 800 160V640A53.328125 53.328125 0 0 1 746.671875 693.328125zM400 186.671875H80V613.328125H400zM720 186.671875H480V266.671875H719.9999999999999zM720 346.671875H480V426.671875H719.9999999999999z" />
    <glyph glyph-name="uEA27-039-lmcu-icons-filled-graph"
      unicode="&#xE027;"
      horiz-adv-x="800" d="M690.90625 800H800V0H690.90625zM472.734375 545.453125H581.828125V0H472.734375zM254.546875 290.90625H363.640625V0H254.546875zM36.359375 145.453125H145.453125V0H36.359375zM181.8125 800A181.828125 181.828125 0 1 1 363.640625 618.1875A181.25 181.25 0 0 1 181.8125 800zM228.34375 604A12.03125 12.03125 0 0 0 225.5625 600.734375A13.53125 13.53125 0 0 0 221.640625 598.453125A12.90625 12.90625 0 0 0 216.953125 597.59375H168.140625L165.4375 574.078125A61.25 61.25 0 0 0 161.3125 558.046875A49 49 0 0 0 152.90625 544.875Q159.859375 546.4375 166.796875 547.375A104.40625 104.40625 0 0 0 180.546875 548.296875H254.34375L252.0625 531.25A18.21875 18.21875 0 0 0 249.921875 525A23.015625 23.015625 0 0 0 245.578125 519.3125A22.125 22.125 0 0 0 239.328125 515.09375A18.078125 18.078125 0 0 0 231.765625 513.53125H95.625L99.046875 539.0625Q108.71875 541.0625 113.796875 546.546875C117.15625 550.203125 119.28125 555.59375 120.046875 562.71875L124.328125 597.625H103.59375L105.734375 614.296875A9.90625 9.90625 0 0 0 107.09375 617.921875A12.28125 12.28125 0 0 0 109.875 621.140625A15.453125 15.453125 0 0 0 113.796875 623.484375A12 12 0 0 0 118.484375 624.40625H127.609375L131.453125 655.890625A79.84375 79.84375 0 0 0 139.265625 681.609375A72.4375 72.4375 0 0 0 155.390625 702.953125A75.578125 75.578125 0 0 0 179.25 717.5625A84.15625 84.15625 0 0 0 210.171875 722.984375A75.796875 75.796875 0 0 0 232.1250000000001 720.125A55.875 55.875 0 0 0 248.5000000000001 712.3125A46.234375 46.234375 0 0 0 260.1875 700.28125A76.375 76.375 0 0 0 268 684.96875L249.4843750000001 674.03125A23.4375 23.4375 0 0 0 238.1562500000001 671.453125A13.21875 13.21875 0 0 0 228.703125 676.5625C226.9843750000001 678.640625 225.390625 680.453125 223.921875 681.96875A21.046875 21.046875 0 0 1 219.234375 685.671875A18.5625 18.5625 0 0 1 213.53125 687.734375A38.328125 38.328125 0 0 1 205.921875 688.390625A27.953125 27.953125 0 0 1 185.328125 680.046875Q176.984375 671.71875 175.140625 656.1875L171.296875 624.40625H231.703125L229.6875 607.71875A10.40625 10.40625 0 0 0 228.34375 604z" />
    <glyph glyph-name="uEA28-040-lifeguard-1"
      unicode="&#xE028;"
      horiz-adv-x="800" d="M682.9665010004518 682.9665010004518C526.9476537791261 839.0111663331827 273.0781643322791 839.0111663331827 117.0334989995481 682.9665010004518C-39.0111663331828 526.9476537791261 -39.0111663331828 273.0523462208739 117.0334989995481 117.0334989995481C273.0523462208739 -39.0111663331827 526.9218356677209 -39.0111663331827 682.9665010004518 117.0334989995481C839.0111663331827 273.0523462208738 839.0111663331827 526.9476537791261 682.9665010004518 682.9665010004518zM694.300651907313 213.7223262118375L594.4103788807848 313.5867811269605A214.0837797715097 214.0837797715097 0 0 1 594.9267411088879 485.3804944168333L694.8944684696314 585.2965855547666A349.2157748660685 349.2157748660685 0 0 0 694.300651907313 213.7223262118375zM285.909765700639 285.8839475892338A161.4922868392177 161.4922868392177 0 0 0 285.909765700639 514.0902342993609A161.4922868392177 161.4922868392177 0 0 0 514.1160524107662 514.0902342993609A161.4664687278125 161.4664687278125 0 0 0 514.1160524107662 285.9097657006389A161.6213773962435 161.6213773962435 0 0 0 285.909765700639 285.8839475892338zM585.348221777577 694.8944684696314L485.3546763054283 594.9267411088879A213.5415994320016 213.5415994320016 0 0 1 313.5609630155554 594.43619699219L213.6965081004324 694.3522881301233A349.4223197573098 349.4223197573098 0 0 0 585.3482217775769 694.8944684696314zM104.5375330794553 584.4445878783968L204.5827147744143 484.3994061834377A213.6965081004324 213.6965081004324 0 0 1 205.0990770025173 314.6711418059769L105.1313496417737 214.7292325566385A349.2674110888789 349.2674110888789 0 0 0 104.5375330794553 584.4445878783968zM214.6259601110179 105.1055315303686L314.5936874717615 205.0732588911121A213.8772348802685 213.8772348802685 0 0 1 484.3477699606274 204.5827147744143L584.3929516555864 104.5375330794553A349.4223197573098 349.4223197573098 0 0 0 214.625960111018 105.1055315303686z" />
    <glyph glyph-name="uEA29-041-multiple-users-silhouette"
      unicode="&#xE029;"
      horiz-adv-x="800" d="M482.7655060526644 621.0707600149757C519.7553974790965 597.8784475227754 545.6932484712341 558.6322226382129 550.415574691127 513.0762510919756A116.7103456882566 116.7103456882566 0 0 1 599.9950081118183 501.9742917758642C664.7997004867091 501.9742917758642 717.3243479346063 554.4989392237615 717.3243479346063 619.2936478222888C717.3243479346063 684.0983401971796 664.7997004867092 736.6229876450767 599.9950081118183 736.6229876450767C535.8093098714588 736.6030200923499 483.7439161362786 685.0168476226132 482.7655060526645 621.0707600149757zM405.900411830775 380.8411331586173C470.7051042056658 380.8411331586173 523.229751653563 433.3757643828779 523.229751653563 498.1704729814052S470.6951204293024 615.4898290278297 405.900411830775 615.4898290278297C341.1057032322476 615.4898290278297 288.5511044552602 562.9551978035691 288.5511044552602 498.1604892050418S341.1057032322477 380.8411331586173 405.900411830775 380.8411331586173zM455.6695370023711 372.8441282915263H356.111319106452C273.2759266192437 372.8441282915263 205.8854361662299 305.443654062149 205.8854361662299 222.6082615749407V100.8561088231624L206.1949332334955 98.949207537751L214.5813053787595 96.3234743541743C293.6328466242356 71.6236116310993 362.3112442281293 63.3869961312864 418.8393859977537 63.3869961312864C529.2499688006989 63.3869961312864 593.2459752901535 94.8658430051165 597.1895669537003 96.8725820541617L605.0268313989767 100.8361412704354H605.865468613503V222.6082615749407C605.8954199425933 305.443654062149 538.5049294895795 372.8441282915263 455.6695370023712 372.8441282915263zM649.7841008361413 493.9673031324098H550.9946337202048A144.5950330712592 144.5950330712592 0 0 0 506.3671533757645 393.2509671783352C579.9975040559092 371.3565456133782 633.8699613128667 303.0774990640209 633.8699613128667 222.4285536003993V184.9095220267066C731.4114563833771 188.4837139648071 787.6201173093724 216.1287907150879 791.3240983401972 217.9857731186821L799.1613627854737 221.959316111319H800.0000000000001V343.7514039685512C800.0000000000001 426.576812679396 732.6095095469863 493.9673031324098 649.7841008361413 493.9673031324098zM200.0249594409086 501.9543242231373C222.9776613003869 501.9543242231373 244.3329589417198 508.6534381629851 262.4235617122177 520.0648945463621A145.2040434294272 145.2040434294272 0 0 0 317.0048670909772 612.6744040933482C317.1246724073381 614.8708348932984 317.3343317109697 617.0472981405215 317.3343317109697 619.2636964931985C317.3343317109697 684.0683888680893 264.7997004867092 736.5930363159865 200.0249594409086 736.5930363159865C135.2102832896544 736.5930363159865 82.6956196181206 684.0683888680893 82.6956196181206 619.2636964931985C82.6956196181206 554.488955447398 135.2102832896544 501.9543242231373 200.0249594409086 501.9543242231373zM305.3937351803321 393.2509671783352A144.6848870585299 144.6848870585299 0 0 0 260.796206164982 493.4082116560588C257.1321602396107 493.6777736178709 253.5080494196931 493.9673031324098 249.774117059778 493.9673031324098H150.2258829402222C67.3904904530139 493.9673031324098 0 426.576812679396 0 343.7514039685512V221.979283664046L0.3094970672657 220.102333707725L8.6958692125296 217.4566329714214C72.1128166729065 197.6588044427805 128.7108448770748 188.5336328466242 177.8709596905029 185.6583052539622V222.4285536003993C177.8909272432297 303.0774990640209 231.7434169474604 371.3365780606514 305.393735180332 393.2509671783352z" />
    <glyph glyph-name="uEA2A-042-desktop-monitor"
      unicode="&#xE02A;"
      horiz-adv-x="800" d="M780.4119874783827 727.0812810577702C767.3576906518391 740.1355778843136 751.6706435206469 746.6692935793875 733.3304145414213 746.6692935793875H66.6666666666667C48.3337346672212 746.6692935793875 32.6437687441168 740.1355778843136 19.5807155418372 727.0812810577702C6.5249593193377 714.0226060433587 0 698.3340995162102 0 679.9997081208088V226.6631641163723C0 208.3243945331028 6.5249593193377 192.6373474019104 19.5807155418372 179.5757535955868C32.6437687441168 166.5214567690433 48.3337346672212 159.9994162416176 66.6666666666667 159.9994162416176H293.337127762819C293.337127762819 149.4465240836819 291.113008325854 138.6032121304993 286.667688243836 127.5001276971463C282.2252869537299 116.3882868880571 277.7799668717119 106.6701692169611 273.3346467896938 98.3399371000344C268.8951642914998 89.9994892114155 266.6725042504908 83.8962953233657 266.6725042504908 80.009923892501C266.6725042504908 72.7888327021447 269.3096327430077 66.5251052589334 274.5882679159097 61.2610640455916C279.8639842968996 55.9765912888656 286.1145771765067 53.3292470246565 293.337127762819 53.3292470246565H506.6701692169612C513.8927198032735 53.3292470246565 520.1447720788367 55.9751318929096 525.4204884598266 61.2610640455916C530.7035018205966 66.5236458629775 533.3406303131135 72.7873733061887 533.3406303131135 80.009923892501C533.3406303131135 83.611713111943 531.1135920842364 89.6579905577082 526.6697313981743 98.1283246864124C522.2244113161563 106.5942806272485 517.7790912341383 116.4670942696819 513.3396087359442 127.7059025269442C508.8942886539262 138.9578453478106 506.6716286129172 149.7208905234124 506.6716286129172 159.9994162416176H733.3420897090696C751.6721029166029 159.9994162416176 767.3591500477953 166.5214567690433 780.4134468743389 179.5757535955868C793.4735812847064 192.6358880059544 800.0014593959562 208.3229351371467 800.0014593959562 226.6631641163723V679.9997081208088C800.0058375838242 698.3340995162102 793.4721218887504 714.0226060433587 780.4119874783829 727.0812810577702zM746.6663747874754 333.3318739373773C746.6663747874754 329.7198689462431 745.348540239195 326.5996803922856 742.709952350722 323.9567143159446C740.068445670337 321.3239640112958 736.9424195325555 320.0061294630153 733.3304145414213 320.0061294630153H66.6666666666667C63.0575804674445 320.0061294630153 59.931554329663 321.3239640112958 57.29296644119 323.9567143159446C54.655837948673 326.6084367680217 53.3350846084805 329.7198689462432 53.3350846084805 333.3318739373773V679.9997081208088C53.3350846084805 683.611713111943 54.651459760805 686.7348204578125 57.29296644119 689.3734083462855C59.933013725619 692.0076180468905 63.0590398634005 693.3312901789949 66.6666666666667 693.3312901789949H733.3406303131134C736.9467977204235 693.3312901789949 740.0786614420291 692.0119962347585 742.709952350722 689.3734083462855C745.348540239195 686.7333610618565 746.6663747874754 683.6102537159869 746.6663747874754 679.9997081208088V333.3318739373773z" />
    <glyph glyph-name="uEA2B-043-lock-square-locked-filled-padlock"
      unicode="&#xE02B;"
      horiz-adv-x="800" d="M665.138411883974 463.9632556792321H617.9666487358794V582.0333512641205C617.9666487358794 702.2220383167129 520.1804113046717 800 400 800C279.8113129474076 800 182.0333512641205 702.2220383167129 182.0333512641205 582.0333512641205V463.963255679232H134.861588116026A16.5514958414367 16.5514958414367 0 0 1 118.3100922745893 447.4117598377954V16.5514958414367A16.5514958414367 16.5514958414367 0 0 1 134.861588116026 0H665.1384118839738A16.5514958414367 16.5514958414367 0 0 1 681.6899077254105 16.5514958414367V447.4117598377954C681.6899077254105 456.5564612901891 674.2913890842883 463.9632556792321 665.1384118839738 463.9632556792321zM363.7853270989366 185.9395042826996A52.2365208755741 52.2365208755741 0 0 0 347.0683162990855 224.4713866015642A52.9978896842802 52.9978896842802 0 0 0 400 277.4030703024787A52.9978896842802 52.9978896842802 0 0 0 452.9316837009144 224.4713866015642A52.211693631812 52.211693631812 0 0 0 436.2146729010634 185.9395042826996A16.5597715893574 16.5597715893574 0 0 1 430.967848719328 173.8486365705301V117.7225141722183A31.0092274589316 31.0092274589316 0 0 0 399.9917242520792 86.7546654528903A31.0092274589316 31.0092274589316 0 0 0 369.0155997848305 117.7225141722183V173.8486365705301A16.5183928497538 16.5183928497538 0 0 1 363.7853270989365 185.9395042826996zM400 682.5092067695618C455.3978565812885 682.5092067695618 500.4675797575205 637.4394835933298 500.4675797575205 582.0333512641205V463.963255679232H299.5324202424794V582.0333512641205C299.5324202424794 637.4312078454091 344.6021434187114 682.5092067695618 400 682.5092067695618z" />
    <glyph glyph-name="uEA2C-044-black-suitcase"
      unicode="&#xE02C;"
      horiz-adv-x="800" d="M733.3333333333333 602.1111111111111H615.3111111111111V714.5333333333333A44.4444444444444 44.4444444444444 0 0 1 570.8666666666667 758.9777777777778H229.1555555555556A44.4444444444444 44.4444444444444 0 0 1 184.7111111111111 714.5333333333333V602.1111111111111H66.6666666666667C29.8666666666667 602.1111111111111 0 572.2444444444444 0 535.4444444444443V107.6666666666666A66.6666666666667 66.6666666666667 0 0 1 66.6666666666667 41H733.3333333333333A66.6666666666667 66.6666666666667 0 0 1 800 107.6666666666666V535.4444444444443A66.6666666666667 66.6666666666667 0 0 1 733.3333333333333 602.1111111111111zM273.6 670.0444444444445H526.4222222222222V602.0444444444445H273.6V670.0444444444445z" />
    <glyph glyph-name="uEA2D-045-help-sing"
      unicode="&#xE02D;"
      horiz-adv-x="800" d="M400 800C276.8804200342163 800 176.7127097432094 699.833975239556 176.7127097432094 576.6891123153291C176.7127097432094 543.1099724415753 203.9407704560203 515.8785406676386 237.5232813908998 515.8785406676386C271.0990502035279 515.8785406676386 298.3304819774645 543.1099724415753 298.3304819774645 576.6891123153291C298.3304819774645 632.7566009590669 343.9325113562622 678.3822277657449 399.9983144694371 678.3822277657449S501.6661469614098 632.7566009590669 501.6661469614098 576.6891123153291C501.6661469614098 520.6199381410283 456.064117582612 475.0212798233564 399.9983144694371 475.0212798233564C366.4191745956834 475.0212798233564 339.1877428217467 447.7915335799827 339.1877428217467 414.2140792367918V276.9444701956058C339.1877428217467 243.3670158524149 366.4191745956834 216.138955139604 399.9983144694371 216.138955139604S460.8055150560018 243.3670158524149 460.8055150560018 276.9444701956058V361.8244182812644C554.4670773742805 388.3546693410418 623.2856047262277 474.6336077938932 623.2856047262277 576.6907978458919C623.2872902567906 699.833975239556 523.1195799657837 800 400 800zM400 170.1205997117743C353.0259487430156 170.1205997117743 314.9363290829871 132.0326655823087 314.9363290829871 85.033331366881C314.9363290829871 38.0862485989027 353.0259487430156 0.0016855305629 400 0.0016855305629S485.0602998558871 38.0879341294657 485.0602998558871 85.033331366881C485.0602998558871 132.0326655823087 446.9740512569844 170.1205997117743 400 170.1205997117743z" />
    <glyph glyph-name="uEA2E-046-percentage"
      unicode="&#xE02E;"
      horiz-adv-x="800" d="M17.5984375 102.471875L697.5390625 782.4125L782.390625 697.5609375L102.45 17.6203125zM611.74375 376.4640625C507.9515625 376.4640625 423.5203125 292.015625 423.5203125 188.2234375000001S507.9687500000001 0 611.74375 0C715.5515625 0 799.984375 84.43125 799.984375 188.2234374999999C799.984375 292.03125 715.5359374999999 376.4640625 611.74375 376.4640625zM611.74375 119.984375C574.128125 119.984375 543.5203125 150.5921875 543.5203125 188.2078125000001C543.5203125 225.8390625000001 574.128125 256.4484375000001 611.74375 256.4484375000001C649.375 256.4484375000001 679.984375 225.8406250000001 679.984375 188.2078125000001C679.984375 150.5921875 649.3765625 119.984375 611.74375 119.984375zM188.240625 423.5515625C292.0171875000001 423.5515625 376.4640625 508 376.4640625 611.775C376.4640625 715.56875 292.015625 800 188.240625 800C84.4484375 800 0.015625 715.56875 0.015625 611.7765625S84.4484375 423.5515625 188.240625 423.5515625zM188.240625 680C225.85625 680 256.4640625 649.3921875000001 256.4640625 611.7765625000001C256.4640625 574.1609375 225.85625 543.553125 188.240625 543.553125C150.625 543.553125 120.0171875 574.1453125 120.0171875 611.7765625000001C120.015625 649.3921875 150.6234375 680 188.240625 680z" />
    <glyph glyph-name="uEA2F-047-pie-chart"
      unicode="&#xE02F;"
      horiz-adv-x="800" d="M359.9997187502198 800C159.999250000586 779.999390625476 0 608.0001499998828 0 400.0009374992676C0 180.0017343736449 179.9998593751099 0.0018749985351 399.9990625007325 0.0018749985351C491.9996156253003 0.0018749985351 571.9983031263258 32.0024749980664 639.9988750008789 80.0024374980956L359.9997187502198 359.9997187502197V800zM471.9990062507764 359.9997187502197zM699.9988281259157 131.9998968750805C755.9994093754616 191.9998500001171 791.9993812504836 272.0004124996776 799.998125001465 359.9997187502197H471.9990062507764L699.9988281259156 131.9998968750805zM440.0002812497803 800V440.0002812497803H800.0000000000001C779.9993906254762 628.0007593744067 632.0001312498975 779.999390625476 440.0002812497803 800z" />
    <glyph glyph-name="uEA30-048-bank"
      unicode="&#xE030;"
      horiz-adv-x="800" d="M4.1921793121498 10.0718553284075A23.442141714567 23.442141714567 0 0 1 23.4405792176187 0.0015624969482H776.5578582854331C784.2484682647105 0.0015624969482 791.4343917297037 3.7781176208639 795.8062581909021 10.0718553284075A23.398391800016 23.398391800016 0 0 1 798.5078154144231 31.6546256745592C789.3750207519128 56.0764529756777 772.3016165984052 77.4998486331081 765.3656926451316 85.5560828982755A23.4015167939125 23.4015167939125 0 0 1 747.5813523801712 93.7498168948888H52.4170851228806C45.5733484895537 93.7498168948888 39.0733611848414 90.7513852512005 34.6327448579202 85.5560828982755C27.6983834015949 77.4998486331081 10.6234167511392 56.0764529756777 1.4906220886287 31.6546256745592A23.3937043091713 23.3937043091713 0 0 1 4.1921793121498 10.0718553284075zM93.7498168948889 423.4382354721963H235.9370391854704V140.6262878392814H93.7498168948889zM329.6868560803593 423.4382354721963H470.3115814226925V140.6262878392814H329.6868560803592zM564.0613983175815 423.4382354721963H706.248620608163V140.6262878392814H564.0613983175815zM50.7295884187726 477.2131304431045C55.1295798250394 472.7959515704071 61.2530053652239 470.3115814226925 67.3092435366337 470.3115814226925L67.3201810152715 470.314706416589C67.323306009168 470.314706416589 67.3279935000127 470.3115814226925 67.3311184939092 470.327206392175H732.6673190091426C732.6704440030392 470.3115814226925 732.6751314938839 470.314706416589 732.6782564877803 470.314706416589L732.6891939664181 470.3115814226925C738.745432137828 470.3115814226925 744.8688576780124 472.7943890734588 749.2688490842792 477.2131304431045C754.0375897703325 481.9818711291579 789.6781451598727 519.0989861347927 799.9968750061036 564.0613983175814H0C10.320292343179 519.0989861347928 45.959285235771 481.9818711291579 50.7295884187726 477.2131304431045zM785.0812791381267 610.9378692619741L410.4820107773228 797.5281298278715A23.4671416657389 23.4671416657389 0 0 1 389.5164267257291 797.5281298278715L14.9171583649251 610.9378692619741z" />
    <glyph glyph-name="uEA31-049-warning"
      unicode="&#xE031;"
      horiz-adv-x="800" d="M399.9990625007325 800C179.4392348130978 800 0 620.5607651869022 0 400.0009374992676C0 179.4017348423946 179.4392348130978 0.0018749985351 399.9990625007325 0.0018749985351S799.9981250014649 179.4017348423946 799.9981250014649 400.0009374992676C800 620.5607651869022 620.5588901883671 800 399.9990625007325 800zM359.9997187502198 640.000749999414H440.0002812497803V360.0015937487549H359.9997187502198V640.000749999414zM399.9990625007325 190.0011015616394C372.3990840632156 190.0011015616394 349.9984765636902 212.3604590933914 349.9984765636902 240.0016874986817C349.9984765636902 267.6016659361987 372.3990840632156 290.002273435724 399.9990625007325 290.002273435724S449.9996484377747 267.5997909376634 449.9996484377747 239.9998125001465C449.9996484377747 212.3604590933914 427.5990409382493 190.0011015616394 399.9990625007325 190.0011015616394z" />
    <glyph glyph-name="uEA32-050-home"
      unicode="&#xE032;"
      horiz-adv-x="800" d="M634.375 519.8546875V720.1796875H540.625V613.215625L400 753.2578125L0 354.9171875V306.1171875H95.3125V46.7421875H344.7921875V202.9921875H454.1671875000001V46.7421875H704.6875V306.1171875H800V354.9171874999999z" />
    </font>
</defs>
</svg>
