<?xml version="1.0" encoding="UTF-8"?>
<svg xmlns="http://www.w3.org/2000/svg" xmlns:xlink="http://www.w3.org/1999/xlink" width="80px" height="80px" viewBox="0 0 80 80" version="1.1">
<g id="surface1">
<path style=" stroke:none;fill-rule:nonzero;fill:rgb(0%,0%,0%);fill-opacity:1;" d="M 63.332031 28.332031 C 64.253906 28.332031 65 29.078125 65 30 C 65 30.921875 65.746094 31.667969 66.667969 31.667969 C 69.433594 31.667969 68.683594 26.667969 65 25.300781 C 65 24.378906 64.253906 23.632812 63.332031 23.632812 C 62.414062 23.632812 61.667969 24.378906 61.667969 25.300781 C 59.390625 26.125 58.035156 28.460938 58.445312 30.847656 C 58.855469 33.230469 60.914062 34.980469 63.332031 35 C 64.253906 35 65 35.746094 65 36.667969 C 65 37.585938 64.253906 38.332031 63.332031 38.332031 C 62.414062 38.332031 61.667969 37.585938 61.667969 36.667969 C 61.667969 35.746094 60.921875 35 60 35 C 57.234375 35 57.984375 40 61.667969 41.367188 C 61.667969 42.289062 62.414062 43.035156 63.332031 43.035156 C 64.253906 43.035156 65 42.289062 65 41.367188 C 67.273438 40.542969 68.632812 38.203125 68.222656 35.820312 C 67.8125 33.433594 65.753906 31.683594 63.332031 31.667969 C 62.414062 31.667969 61.667969 30.921875 61.667969 30 C 61.667969 29.078125 62.414062 28.332031 63.332031 28.332031 Z M 63.332031 28.332031 "/>
<path style=" stroke:none;fill-rule:nonzero;fill:rgb(0%,0%,0%);fill-opacity:1;" d="M 36.667969 20 L 23.332031 20 L 23.332031 12.867188 C 30.285156 15 36.351562 10.617188 36.984375 3.214844 C 37.066406 2.539062 36.730469 1.878906 36.132812 1.550781 C 30.417969 -1.601562 24.464844 0.0507812 21.667969 4.882812 C 18.867188 0.183594 12.984375 -1.566406 7.199219 1.667969 C 6.601562 1.996094 6.265625 2.65625 6.351562 3.332031 C 6.984375 10.617188 13.050781 15 20 12.867188 L 20 20 L 6.667969 20 C 2.984375 20 0 22.984375 0 26.667969 L 0 73.332031 C 0 77.015625 2.984375 80 6.667969 80 L 36.667969 80 C 40.347656 80 43.332031 77.015625 43.332031 73.332031 L 43.332031 26.667969 C 43.332031 22.984375 40.347656 20 36.667969 20 Z M 33.515625 4.050781 C 33.246094 6.289062 31.898438 8.257812 29.90625 9.320312 C 27.914062 10.382812 25.527344 10.40625 23.515625 9.382812 C 23.78125 7.136719 25.128906 5.164062 27.121094 4.101562 C 29.117188 3.039062 31.503906 3.019531 33.515625 4.050781 Z M 9.816406 4.050781 C 11.828125 3.019531 14.214844 3.039062 16.210938 4.101562 C 18.207031 5.164062 19.550781 7.136719 19.816406 9.382812 C 17.804688 10.40625 15.417969 10.382812 13.429688 9.320312 C 11.4375 8.257812 10.089844 6.289062 9.816406 4.050781 Z M 40 73.332031 C 40 75.175781 38.507812 76.667969 36.667969 76.667969 L 6.667969 76.667969 C 4.824219 76.667969 3.332031 75.175781 3.332031 73.332031 L 3.332031 26.667969 C 3.332031 24.824219 4.824219 23.332031 6.667969 23.332031 L 36.667969 23.332031 C 38.507812 23.332031 40 24.824219 40 26.667969 Z M 40 73.332031 "/>
<path style=" stroke:none;fill-rule:nonzero;fill:rgb(0%,0%,0%);fill-opacity:1;" d="M 35 26.667969 L 8.332031 26.667969 C 7.414062 26.667969 6.667969 27.414062 6.667969 28.332031 L 6.667969 38.332031 C 6.667969 39.253906 7.414062 40 8.332031 40 L 35 40 C 35.921875 40 36.667969 39.253906 36.667969 38.332031 L 36.667969 28.332031 C 36.667969 27.414062 35.921875 26.667969 35 26.667969 Z M 33.332031 36.667969 L 10 36.667969 L 10 30 L 33.332031 30 Z M 33.332031 36.667969 "/>
<path style=" stroke:none;fill-rule:nonzero;fill:rgb(0%,0%,0%);fill-opacity:1;" d="M 75 46.667969 L 73.332031 46.667969 C 79.074219 42.363281 81.414062 34.867188 79.144531 28.0625 C 76.875 21.257812 70.507812 16.667969 63.332031 16.667969 C 56.160156 16.667969 49.789062 21.257812 47.523438 28.0625 C 45.253906 34.867188 47.59375 42.363281 53.332031 46.667969 L 51.667969 46.667969 C 48.90625 46.667969 46.667969 48.90625 46.667969 51.667969 C 46.667969 54.851562 46.351562 56.550781 47.964844 58.332031 C 47.136719 59.246094 46.675781 60.433594 46.667969 61.667969 C 46.667969 64.851562 46.351562 66.550781 47.964844 68.332031 C 46.300781 70.148438 46.667969 71.882812 46.667969 75 C 46.667969 77.761719 48.90625 80 51.667969 80 L 75 80 C 77.761719 80 80 77.761719 80 75 C 80 71.816406 80.316406 70.117188 78.699219 68.332031 C 79.53125 67.421875 79.992188 66.234375 80 65 C 80 61.816406 80.316406 60.117188 78.699219 58.332031 C 80.367188 56.515625 80 54.785156 80 51.667969 C 80 48.90625 77.761719 46.667969 75 46.667969 Z M 50 33.332031 C 50 25.96875 55.96875 20 63.332031 20 C 70.695312 20 76.667969 25.96875 76.667969 33.332031 C 76.667969 40.695312 70.695312 46.667969 63.332031 46.667969 C 55.96875 46.667969 50 40.695312 50 33.332031 Z M 50 51.667969 C 50 50.746094 50.746094 50 51.667969 50 L 75 50 C 75.921875 50 76.667969 50.746094 76.667969 51.667969 L 76.667969 55 C 76.667969 55.921875 75.921875 56.667969 75 56.667969 L 51.667969 56.667969 C 50.746094 56.667969 50 55.921875 50 55 Z M 76.667969 61.667969 L 76.667969 65 C 76.667969 65.921875 75.921875 66.667969 75 66.667969 L 51.667969 66.667969 C 50.746094 66.667969 50 65.921875 50 65 L 50 61.667969 C 50 60.746094 50.746094 60 51.667969 60 L 75 60 C 75.921875 60 76.667969 60.746094 76.667969 61.667969 Z M 76.667969 75 C 76.667969 75.921875 75.921875 76.667969 75 76.667969 L 51.667969 76.667969 C 50.746094 76.667969 50 75.921875 50 75 L 50 71.667969 C 50 70.746094 50.746094 70 51.667969 70 L 75 70 C 75.921875 70 76.667969 70.746094 76.667969 71.667969 Z M 76.667969 75 "/>
<path style=" stroke:none;fill-rule:nonzero;fill:rgb(0%,0%,0%);fill-opacity:1;" d="M 18.332031 43.332031 L 8.332031 43.332031 C 7.414062 43.332031 6.667969 44.078125 6.667969 45 L 6.667969 55 C 6.667969 55.921875 7.414062 56.667969 8.332031 56.667969 L 18.332031 56.667969 C 19.253906 56.667969 20 55.921875 20 55 L 20 45 C 20 44.078125 19.253906 43.332031 18.332031 43.332031 Z M 16.667969 53.332031 L 10 53.332031 L 10 46.667969 L 16.667969 46.667969 Z M 16.667969 53.332031 "/>
<path style=" stroke:none;fill-rule:nonzero;fill:rgb(0%,0%,0%);fill-opacity:1;" d="M 18.332031 60 L 8.332031 60 C 7.414062 60 6.667969 60.746094 6.667969 61.667969 L 6.667969 71.667969 C 6.667969 72.585938 7.414062 73.332031 8.332031 73.332031 L 18.332031 73.332031 C 19.253906 73.332031 20 72.585938 20 71.667969 L 20 61.667969 C 20 60.746094 19.253906 60 18.332031 60 Z M 16.667969 70 L 10 70 L 10 63.332031 L 16.667969 63.332031 Z M 16.667969 70 "/>
<path style=" stroke:none;fill-rule:nonzero;fill:rgb(0%,0%,0%);fill-opacity:1;" d="M 35 43.332031 L 25 43.332031 C 24.078125 43.332031 23.332031 44.078125 23.332031 45 L 23.332031 55 C 23.332031 55.921875 24.078125 56.667969 25 56.667969 L 35 56.667969 C 35.921875 56.667969 36.667969 55.921875 36.667969 55 L 36.667969 45 C 36.667969 44.078125 35.921875 43.332031 35 43.332031 Z M 33.332031 53.332031 L 26.667969 53.332031 L 26.667969 46.667969 L 33.332031 46.667969 Z M 33.332031 53.332031 "/>
<path style=" stroke:none;fill-rule:nonzero;fill:rgb(0%,0%,0%);fill-opacity:1;" d="M 35 60 L 25 60 C 24.078125 60 23.332031 60.746094 23.332031 61.667969 L 23.332031 71.667969 C 23.332031 72.585938 24.078125 73.332031 25 73.332031 L 35 73.332031 C 35.921875 73.332031 36.667969 72.585938 36.667969 71.667969 L 36.667969 61.667969 C 36.667969 60.746094 35.921875 60 35 60 Z M 33.332031 70 L 26.667969 70 L 26.667969 63.332031 L 33.332031 63.332031 Z M 33.332031 70 "/>
</g>
</svg>
