<?xml version="1.0" encoding="UTF-8"?>
<svg xmlns="http://www.w3.org/2000/svg" xmlns:xlink="http://www.w3.org/1999/xlink" width="80px" height="80px" viewBox="0 0 80 80" version="1.1">
<g id="surface1">
<path style=" stroke:none;fill-rule:nonzero;fill:rgb(0%,0%,0%);fill-opacity:1;" d="M 26.515625 36.3125 L 66.5625 59.640625 L 13.75 59.640625 L 13.75 60.359375 L 66.5625 60.359375 Z M 26.515625 58.296875 L 13.75 58.296875 L 13.75 59.015625 L 66.5625 59.015625 Z M 16.5 62.953125 L 15.484375 62.953125 L 13.6875 67.25 L 14.8125 67.25 L 15.125 66.40625 L 16.78125 66.40625 L 17.109375 67.25 L 18.265625 67.25 Z M 15.4375 65.578125 L 15.984375 64.109375 L 16.515625 65.578125 Z M 28.4375 67.25 L 27.421875 67.25 L 27.4375 64.21875 L 26.328125 67.25 L 25.578125 67.25 L 24.484375 64.21875 L 24.5 67.25 L 23.515625 67.25 L 23.515625 62.953125 L 24.984375 62.953125 L 25.96875 65.703125 L 25.984375 65.703125 L 26.921875 62.953125 L 28.421875 62.953125 L 28.421875 67.25 Z M 32.640625 63.828125 L 30.734375 63.828125 L 30.734375 64.640625 L 32.515625 64.640625 L 32.515625 65.46875 L 30.734375 65.46875 L 30.734375 66.359375 L 32.734375 66.359375 L 32.734375 67.25 L 29.734375 67.25 L 29.734375 62.953125 L 32.640625 62.953125 Z M 43.75 63.828125 L 41.9375 63.828125 L 41.9375 64.734375 L 43.59375 64.734375 L 43.59375 65.59375 L 41.9375 65.59375 L 41.9375 67.265625 L 40.90625 67.265625 L 40.90625 62.96875 L 43.734375 62.96875 Z M 62.40625 63.828125 L 60.515625 63.828125 L 60.515625 64.640625 L 62.296875 64.640625 L 62.296875 65.46875 L 60.515625 65.46875 L 60.515625 66.359375 L 62.515625 66.359375 L 62.515625 67.25 L 59.53125 67.25 L 59.53125 62.953125 L 62.421875 62.953125 Z M 31.25 78.90625 L 30.09375 78.90625 L 27.546875 72.46875 L 29.09375 72.46875 L 30.71875 76.9375 L 32.328125 72.46875 L 33.84375 72.46875 Z M 39.015625 73.71875 L 36.03125 73.71875 L 36.03125 74.96875 L 38.84375 74.96875 L 38.84375 76.1875 L 36.03125 76.1875 L 36.03125 77.609375 L 39.15625 77.609375 L 39.15625 78.890625 L 34.640625 78.890625 L 34.640625 72.453125 L 39.015625 72.453125 Z M 46.265625 78.90625 L 44.640625 78.90625 L 41.9375 74.53125 L 41.9375 78.90625 L 40.53125 78.90625 L 40.53125 72.46875 L 42.21875 72.46875 L 44.84375 76.703125 L 44.84375 72.46875 L 46.25 72.46875 Z M 51.03125 72.46875 L 49.875 72.46875 L 47.078125 78.90625 L 48.625 78.90625 L 49.1875 77.5 L 51.640625 77.5 L 52.21875 78.90625 L 53.796875 78.90625 Z M 49.6875 76.25 L 50.421875 74.328125 L 51.140625 76.25 Z M 60.34375 78.90625 L 58.71875 78.90625 L 56.015625 74.53125 L 56.015625 78.90625 L 54.609375 78.90625 L 54.609375 72.46875 L 56.296875 72.46875 L 58.921875 76.703125 L 58.921875 72.46875 L 60.328125 72.46875 Z M 66.515625 73.71875 L 64.640625 73.71875 L 64.640625 78.90625 L 63.234375 78.90625 L 63.234375 73.734375 L 61.359375 73.734375 L 61.359375 72.46875 L 66.515625 72.46875 Z M 20.703125 62.953125 L 19.0625 62.953125 L 19.0625 67.25 L 20.078125 67.25 L 20.078125 65.546875 L 20.4375 65.546875 L 21.375 67.25 L 22.59375 67.25 L 21.46875 65.40625 C 21.71875 65.34375 21.953125 65.1875 22.125 64.984375 C 22.28125 64.78125 22.375 64.515625 22.359375 64.25 C 22.375 64.03125 22.3125 63.828125 22.21875 63.625 C 22.125 63.46875 21.984375 63.328125 21.828125 63.234375 C 21.671875 63.125 21.484375 63.0625 21.296875 63.015625 C 21.09375 63 20.890625 62.96875 20.703125 62.953125 M 20.0625 64.8125 L 20.0625 63.8125 L 20.625 63.8125 C 20.703125 63.8125 20.78125 63.8125 20.859375 63.8125 C 20.9375 63.828125 21.015625 63.84375 21.09375 63.875 C 21.15625 63.90625 21.21875 63.953125 21.265625 64.015625 C 21.3125 64.09375 21.328125 64.171875 21.328125 64.265625 C 21.34375 64.4375 21.234375 64.609375 21.078125 64.6875 C 21 64.71875 20.921875 64.75 20.828125 64.765625 C 20.734375 64.78125 20.65625 64.78125 20.5625 64.78125 Z M 35.375 62.96875 L 33.828125 62.96875 L 33.828125 67.265625 L 35.421875 67.265625 C 35.71875 67.265625 36.015625 67.21875 36.296875 67.140625 C 36.578125 67.0625 36.84375 66.9375 37.0625 66.75 C 37.296875 66.5625 37.5 66.328125 37.625 66.0625 C 37.765625 65.765625 37.84375 65.421875 37.828125 65.09375 C 37.84375 64.75 37.765625 64.390625 37.609375 64.078125 C 37.484375 63.8125 37.28125 63.59375 37.046875 63.421875 C 36.8125 63.25 36.546875 63.140625 36.28125 63.078125 C 35.984375 63.015625 35.6875 62.96875 35.390625 62.96875 M 34.875 66.359375 L 34.875 63.84375 L 35.390625 63.84375 C 35.5625 63.84375 35.734375 63.859375 35.90625 63.90625 C 36.0625 63.9375 36.21875 64.015625 36.359375 64.109375 C 36.5 64.203125 36.609375 64.34375 36.671875 64.5 C 36.828125 64.890625 36.828125 65.3125 36.671875 65.703125 C 36.59375 65.859375 36.484375 65.984375 36.359375 66.09375 C 36.21875 66.1875 36.0625 66.265625 35.90625 66.296875 C 35.734375 66.34375 35.546875 66.359375 35.375 66.359375 Z M 46.984375 62.84375 C 46.671875 62.84375 46.34375 62.890625 46.046875 63 C 45.765625 63.09375 45.515625 63.25 45.3125 63.453125 C 45.09375 63.65625 44.9375 63.890625 44.828125 64.15625 C 44.703125 64.453125 44.640625 64.765625 44.65625 65.09375 C 44.65625 65.40625 44.71875 65.734375 44.828125 66.03125 C 44.9375 66.296875 45.109375 66.546875 45.3125 66.75 C 45.53125 66.953125 45.78125 67.109375 46.046875 67.21875 C 46.65625 67.4375 47.3125 67.4375 47.90625 67.21875 C 48.1875 67.109375 48.4375 66.953125 48.65625 66.75 C 48.875 66.546875 49.03125 66.296875 49.140625 66.03125 C 49.265625 65.734375 49.328125 65.421875 49.3125 65.09375 C 49.3125 64.78125 49.25 64.453125 49.140625 64.15625 C 49.03125 63.890625 48.859375 63.65625 48.65625 63.453125 C 48.4375 63.25 48.1875 63.109375 47.90625 63 C 47.609375 62.890625 47.296875 62.84375 46.984375 62.84375 M 46.984375 66.421875 C 46.8125 66.421875 46.640625 66.390625 46.484375 66.328125 C 46.34375 66.265625 46.203125 66.171875 46.09375 66.046875 C 45.984375 65.921875 45.90625 65.78125 45.84375 65.625 C 45.71875 65.28125 45.71875 64.90625 45.84375 64.5625 C 45.890625 64.40625 45.984375 64.265625 46.09375 64.140625 C 46.328125 63.890625 46.640625 63.75 46.984375 63.75 C 47.15625 63.75 47.328125 63.78125 47.484375 63.84375 C 47.625 63.90625 47.765625 64 47.875 64.125 C 47.984375 64.25 48.0625 64.390625 48.125 64.546875 C 48.1875 64.71875 48.21875 64.890625 48.21875 65.0625 C 48.21875 65.25 48.1875 65.421875 48.125 65.59375 C 48.0625 65.75 47.984375 65.890625 47.875 66.015625 C 47.765625 66.140625 47.640625 66.234375 47.484375 66.296875 C 47.328125 66.375 47.15625 66.40625 46.984375 66.421875 M 52.078125 62.9375 L 50.421875 62.9375 L 50.421875 67.234375 L 51.4375 67.234375 L 51.4375 65.53125 L 51.796875 65.53125 L 52.734375 67.234375 L 53.953125 67.234375 L 52.828125 65.390625 C 53.078125 65.328125 53.3125 65.171875 53.484375 64.96875 C 53.640625 64.765625 53.734375 64.5 53.71875 64.234375 C 53.734375 64.015625 53.671875 63.8125 53.578125 63.609375 C 53.484375 63.453125 53.34375 63.3125 53.1875 63.21875 C 53.03125 63.109375 52.84375 63.046875 52.65625 63 C 52.453125 62.953125 52.25 62.9375 52.046875 62.9375 M 51.40625 64.796875 L 51.40625 63.796875 L 51.96875 63.796875 C 52.046875 63.796875 52.125 63.796875 52.203125 63.796875 C 52.28125 63.8125 52.359375 63.828125 52.4375 63.859375 C 52.5 63.890625 52.5625 63.9375 52.609375 64 C 52.65625 64.078125 52.671875 64.15625 52.671875 64.25 C 52.6875 64.421875 52.578125 64.59375 52.421875 64.671875 C 52.34375 64.703125 52.265625 64.734375 52.171875 64.75 C 52.078125 64.765625 52 64.765625 51.90625 64.765625 Z M 56.96875 62.828125 C 57.28125 62.828125 57.578125 62.890625 57.859375 62.984375 C 58.140625 63.078125 58.375 63.234375 58.578125 63.453125 L 57.875 64.15625 C 57.78125 64.015625 57.640625 63.921875 57.484375 63.859375 C 57.328125 63.796875 57.171875 63.765625 57 63.765625 C 56.828125 63.765625 56.65625 63.796875 56.5 63.859375 C 56.359375 63.921875 56.21875 64.015625 56.109375 64.140625 C 56 64.265625 55.90625 64.40625 55.859375 64.5625 C 55.796875 64.734375 55.765625 64.921875 55.765625 65.109375 C 55.765625 65.296875 55.796875 65.46875 55.859375 65.640625 C 55.921875 65.796875 56 65.9375 56.109375 66.0625 C 56.21875 66.171875 56.34375 66.265625 56.5 66.328125 C 56.65625 66.390625 56.828125 66.421875 56.984375 66.421875 C 57.171875 66.421875 57.359375 66.390625 57.53125 66.296875 C 57.6875 66.21875 57.8125 66.109375 57.921875 65.984375 L 58.640625 66.65625 C 58.453125 66.875 58.203125 67.0625 57.9375 67.171875 C 57.640625 67.296875 57.3125 67.375 56.96875 67.359375 C 56.65625 67.359375 56.34375 67.3125 56.046875 67.203125 C 55.5 67 55.046875 66.5625 54.828125 66.015625 C 54.59375 65.421875 54.59375 64.75 54.828125 64.15625 C 54.9375 63.890625 55.109375 63.640625 55.328125 63.4375 C 55.546875 63.234375 55.796875 63.078125 56.0625 62.984375 C 56.359375 62.875 56.671875 62.828125 56.984375 62.828125 M 65.125 62.859375 C 65.375 62.859375 65.625 62.90625 65.875 63 C 66.125 63.078125 66.34375 63.21875 66.53125 63.390625 L 65.875 64.09375 C 65.78125 63.984375 65.65625 63.890625 65.53125 63.828125 C 65.40625 63.765625 65.265625 63.734375 65.109375 63.734375 C 65.046875 63.734375 64.96875 63.734375 64.90625 63.734375 C 64.84375 63.75 64.765625 63.765625 64.71875 63.796875 C 64.65625 63.828125 64.609375 63.875 64.578125 63.9375 C 64.53125 64 64.515625 64.078125 64.515625 64.140625 C 64.515625 64.203125 64.53125 64.265625 64.5625 64.328125 C 64.59375 64.375 64.640625 64.421875 64.703125 64.453125 C 64.765625 64.5 64.84375 64.53125 64.90625 64.546875 L 65.1875 64.640625 L 65.640625 64.796875 C 65.796875 64.859375 65.9375 64.9375 66.078125 65.03125 C 66.203125 65.125 66.3125 65.25 66.390625 65.390625 C 66.484375 65.546875 66.53125 65.734375 66.515625 65.921875 C 66.515625 66.140625 66.46875 66.359375 66.375 66.5625 C 66.28125 66.734375 66.15625 66.890625 65.984375 67.015625 C 65.828125 67.140625 65.640625 67.21875 65.453125 67.28125 C 65.25 67.34375 65.046875 67.359375 64.84375 67.359375 C 64.546875 67.359375 64.234375 67.296875 63.953125 67.203125 C 63.6875 67.109375 63.4375 66.953125 63.234375 66.75 L 63.90625 66.0625 C 64.015625 66.203125 64.15625 66.3125 64.328125 66.390625 C 64.484375 66.46875 64.65625 66.515625 64.84375 66.515625 C 64.921875 66.515625 65 66.515625 65.0625 66.5 C 65.125 66.484375 65.203125 66.453125 65.25 66.421875 C 65.3125 66.390625 65.359375 66.359375 65.40625 66.296875 C 65.4375 66.234375 65.453125 66.15625 65.453125 66.078125 C 65.453125 66 65.4375 65.9375 65.390625 65.875 C 65.34375 65.8125 65.28125 65.765625 65.21875 65.71875 C 65.125 65.671875 65.03125 65.625 64.9375 65.59375 L 64.546875 65.46875 C 64.421875 65.421875 64.28125 65.375 64.15625 65.3125 C 64.03125 65.25 63.90625 65.171875 63.8125 65.078125 C 63.703125 64.984375 63.625 64.859375 63.5625 64.734375 C 63.5 64.578125 63.46875 64.40625 63.46875 64.234375 C 63.46875 64.015625 63.515625 63.8125 63.609375 63.625 C 63.703125 63.453125 63.84375 63.3125 64 63.203125 C 64.15625 63.09375 64.34375 63.015625 64.53125 62.96875 C 64.734375 62.921875 64.9375 62.890625 65.125 62.890625 M 17.171875 72.3125 C 17.390625 72.3125 17.59375 72.328125 17.8125 72.375 C 18.03125 72.40625 18.25 72.46875 18.453125 72.5625 C 18.65625 72.640625 18.859375 72.75 19.03125 72.859375 C 19.21875 72.984375 19.390625 73.140625 19.53125 73.3125 L 19.625 73.4375 L 18.546875 74.296875 L 18.453125 74.171875 C 18.3125 73.984375 18.109375 73.828125 17.890625 73.75 C 17.40625 73.5625 16.859375 73.5625 16.375 73.765625 C 16.140625 73.875 15.921875 74.015625 15.75 74.203125 C 15.578125 74.390625 15.453125 74.625 15.359375 74.859375 C 15.265625 75.125 15.21875 75.40625 15.21875 75.6875 C 15.21875 75.984375 15.265625 76.28125 15.359375 76.5625 C 15.4375 76.8125 15.578125 77.03125 15.75 77.21875 C 15.921875 77.40625 16.125 77.546875 16.34375 77.640625 C 16.59375 77.75 16.875 77.796875 17.140625 77.796875 C 17.421875 77.796875 17.703125 77.734375 17.953125 77.625 C 18.171875 77.515625 18.375 77.359375 18.515625 77.15625 L 18.609375 77.03125 L 19.75 77.828125 L 19.65625 77.953125 C 19.375 78.3125 19.015625 78.59375 18.609375 78.796875 C 18.15625 79 17.671875 79.109375 17.171875 79.09375 C 16.703125 79.09375 16.234375 79.015625 15.796875 78.84375 C 14.96875 78.53125 14.328125 77.890625 14 77.078125 C 13.828125 76.640625 13.734375 76.171875 13.75 75.703125 C 13.75 75.21875 13.828125 74.75 14.015625 74.3125 C 14.171875 73.90625 14.40625 73.546875 14.71875 73.25 C 15.03125 72.953125 15.40625 72.734375 15.828125 72.578125 C 16.234375 72.390625 16.703125 72.296875 17.171875 72.3125 M 23.65625 72.3125 C 23.1875 72.3125 22.734375 72.390625 22.296875 72.546875 C 21.890625 72.6875 21.515625 72.921875 21.203125 73.21875 C 20.890625 73.515625 20.640625 73.875 20.484375 74.28125 C 20.3125 74.71875 20.21875 75.1875 20.21875 75.671875 C 20.21875 76.140625 20.296875 76.609375 20.484375 77.046875 C 20.65625 77.453125 20.890625 77.8125 21.203125 78.125 C 21.515625 78.421875 21.890625 78.671875 22.296875 78.828125 C 22.734375 79 23.203125 79.078125 23.671875 79.078125 C 24.140625 79.078125 24.609375 79 25.046875 78.828125 C 25.453125 78.671875 25.828125 78.4375 26.140625 78.125 C 26.453125 77.828125 26.703125 77.453125 26.859375 77.0625 C 27.03125 76.625 27.125 76.15625 27.125 75.6875 C 27.125 75.21875 27.046875 74.734375 26.859375 74.296875 C 26.703125 73.890625 26.453125 73.53125 26.140625 73.234375 C 25.828125 72.9375 25.453125 72.703125 25.046875 72.5625 C 24.59375 72.375 24.125 72.296875 23.65625 72.3125 M 23.65625 77.765625 C 23.390625 77.765625 23.109375 77.71875 22.859375 77.609375 C 22.625 77.515625 22.421875 77.359375 22.25 77.171875 C 22.078125 76.984375 21.953125 76.75 21.859375 76.515625 C 21.765625 76.25 21.71875 75.953125 21.71875 75.65625 C 21.71875 75.375 21.765625 75.09375 21.859375 74.828125 C 21.9375 74.578125 22.078125 74.359375 22.25 74.171875 C 22.421875 73.984375 22.625 73.828125 22.859375 73.734375 C 23.109375 73.625 23.390625 73.578125 23.65625 73.578125 C 23.9375 73.578125 24.203125 73.625 24.46875 73.734375 C 24.703125 73.84375 24.90625 73.984375 25.078125 74.171875 C 25.25 74.359375 25.375 74.59375 25.46875 74.828125 C 25.5625 75.09375 25.609375 75.375 25.609375 75.65625 C 25.609375 75.953125 25.5625 76.234375 25.46875 76.515625 C 25.390625 76.765625 25.25 76.984375 25.078125 77.171875 C 24.90625 77.359375 24.6875 77.5 24.453125 77.609375 C 24.203125 77.71875 23.9375 77.765625 23.65625 77.765625 M 42.984375 11.5 C 42.859375 11.75 42.71875 12.03125 42.5625 12.3125 L 41.125 15.234375 C 43.65625 13.890625 46.765625 13.015625 48.984375 12.984375 C 47.109375 12.0625 45.078125 11.5625 42.984375 11.5 M 47.40625 2.453125 L 46.84375 3.578125 C 48.75 4.609375 50.875 6.78125 52.140625 8.96875 C 52.734375 9.25 53.296875 9.5625 53.84375 9.859375 C 52.3125 6.828125 49.875 3.953125 47.40625 2.453125 M 46.484375 4.328125 C 46.0625 5.203125 45.5625 6.1875 45.109375 7.09375 C 45.15625 7.09375 49.171875 7.6875 50.921875 8.421875 C 49.796875 6.71875 47.96875 5.40625 46.484375 4.328125 M 60.640625 20.53125 C 61.671875 22.171875 63 23.609375 64.546875 24.765625 C 64.96875 23.765625 65.390625 22.75 65.8125 21.71875 L 65.671875 21.71875 C 63.9375 21.671875 62.21875 21.265625 60.640625 20.53125 M 58 19.09375 C 59.46875 22.078125 61.6875 25.09375 63.78125 26.546875 C 63.9375 26.15625 64.046875 25.90625 64.203125 25.53125 C 62.609375 24.40625 60.78125 22.109375 59.609375 20 C 59.0625 19.71875 58.515625 19.40625 58 19.0625 M 69.03125 13.96875 C 66.875 14.875 64.578125 15.4375 62.234375 15.59375 C 63.421875 16.296875 65.875 16.921875 67.53125 16.921875 L 67.75 16.921875 C 68.1875 15.9375 68.609375 14.953125 69.03125 13.96875 M 50.296875 2.640625 C 52.296875 4.203125 54.328125 7.515625 55.296875 9.625 L 57.140625 5.703125 C 55.125 4.28125 52.96875 3.09375 50.296875 2.640625 M 61.0625 8.640625 C 60.515625 9.875 59.90625 11.1875 59.3125 12.4375 C 59.65625 12.453125 60.15625 12.484375 60.765625 12.484375 C 62.765625 12.5 64.75 12.25 66.65625 11.71875 C 64.65625 10.984375 62.765625 9.953125 61.0625 8.640625 M 68.109375 12.125 C 65.5 13.140625 62.671875 13.3125 60.8125 13.34375 C 59.890625 13.34375 58.859375 13.390625 58.859375 13.390625 L 60.203125 14.359375 L 60.34375 14.359375 C 61.25 14.359375 66.171875 14.265625 69.75 12.4375 L 69.609375 12.421875 C 69.09375 12.34375 68.59375 12.25 68.109375 12.125 M 56.328125 18.890625 C 55.71875 20.203125 55.03125 21.671875 54.40625 23.015625 C 56.671875 24.6875 58.796875 26.296875 61.34375 26.875 C 59.390625 24.390625 57.703125 21.71875 56.328125 18.890625 M 57.921875 6.265625 C 57.078125 8.078125 55.296875 11.890625 55.296875 11.890625 L 55.28125 11.9375 C 52.234375 9.546875 48.515625 8.171875 44.65625 8 L 43.75 9.84375 L 43.4375 10.515625 C 47.21875 10.890625 50.8125 12.34375 53.78125 14.734375 L 53.921875 14.84375 L 53.90625 14.890625 C 53.90625 14.890625 52.0625 18.75 51.125 20.734375 C 52 21.265625 52.828125 21.84375 53.625 22.421875 C 54.515625 20.5 56.296875 16.6875 56.296875 16.6875 C 60.3125 19.65625 62.59375 20.6875 66.1875 20.78125 C 66.546875 19.890625 67.015625 18.75 67.375 17.875 C 63.8125 17.6875 61.703125 16.828125 57.640625 13.78125 L 57.640625 13.75 C 57.640625 13.75 59.4375 9.921875 60.296875 8.09375 C 59.5 7.5 58.71875 6.890625 57.921875 6.296875 M 52.296875 16.0625 C 49.5 16.15625 46.78125 16.921875 44.34375 18.3125 C 46.421875 18.546875 48.4375 19.203125 50.25 20.234375 C 50.859375 18.984375 51.796875 17.15625 52.296875 16.0625 M 51.359375 14.234375 C 48.3125 14.328125 43.421875 15.15625 39.515625 18.53125 C 40.375 18.375 41.234375 18.296875 42.09375 18.25 C 45.296875 16.328125 48.953125 15.25 52.6875 15.109375 C 52.234375 14.78125 51.84375 14.515625 51.359375 14.234375 Z M 27.296875 6.859375 L 25.453125 6.859375 C 25.8125 7.09375 25.921875 7.421875 25.921875 7.96875 C 25.390625 7.96875 25.171875 7.96875 24.90625 7.5625 L 24.90625 8.96875 C 25.171875 8.546875 25.40625 8.546875 25.90625 8.546875 C 25.890625 9.203125 25.5 9.78125 24.890625 10.03125 L 27.875 10.03125 C 27.265625 9.765625 26.859375 9.203125 26.8125 8.546875 C 27.328125 8.546875 27.546875 8.546875 27.859375 8.96875 L 27.859375 7.5625 C 27.546875 7.96875 27.328125 7.984375 26.796875 7.984375 C 26.734375 7.53125 26.9375 7.109375 27.296875 6.859375 M 17.984375 14.015625 C 17.765625 14.015625 17.59375 14.1875 17.59375 14.40625 C 17.59375 14.625 17.78125 14.8125 18 14.8125 C 18.21875 14.8125 18.40625 14.625 18.40625 14.40625 C 18.40625 14.1875 18.234375 14.015625 18.015625 14.015625 M 17.65625 12.8125 C 17.4375 12.828125 17.265625 13 17.265625 13.21875 C 17.265625 13.4375 17.453125 13.625 17.671875 13.625 C 17.890625 13.625 18.078125 13.4375 18.078125 13.21875 C 18.078125 13 17.90625 12.828125 17.6875 12.8125 M 17.765625 11.65625 C 17.546875 11.65625 17.375 11.828125 17.375 12.046875 C 17.375 12.265625 17.546875 12.4375 17.765625 12.4375 C 17.984375 12.4375 18.15625 12.265625 18.15625 12.046875 C 18.140625 11.828125 17.96875 11.65625 17.765625 11.65625 M 18.25 10.578125 C 18.03125 10.578125 17.859375 10.75 17.859375 10.96875 C 17.859375 11.1875 18.03125 11.359375 18.25 11.359375 C 18.46875 11.359375 18.640625 11.1875 18.640625 10.96875 C 18.640625 10.75 18.46875 10.578125 18.25 10.578125 M 19.234375 9.765625 C 19.015625 9.765625 18.84375 9.9375 18.84375 10.15625 C 18.84375 10.375 19.015625 10.546875 19.234375 10.546875 C 19.453125 10.546875 19.625 10.375 19.625 10.15625 C 19.625 9.9375 19.453125 9.765625 19.234375 9.765625 M 20.421875 9.3125 C 20.203125 9.3125 20.03125 9.484375 20.03125 9.703125 C 20.03125 9.921875 20.203125 10.109375 20.4375 10.109375 C 20.65625 10.109375 20.84375 9.9375 20.84375 9.703125 C 20.84375 9.484375 20.671875 9.3125 20.453125 9.3125 M 21.734375 9.46875 C 21.515625 9.46875 21.34375 9.640625 21.34375 9.859375 C 21.34375 10.078125 21.515625 10.25 21.734375 10.25 C 21.953125 10.25 22.125 10.078125 22.125 9.859375 C 22.125 9.640625 21.953125 9.46875 21.734375 9.46875 M 22.890625 9.78125 C 22.671875 9.78125 22.5 9.953125 22.5 10.171875 C 22.5 10.390625 22.671875 10.5625 22.890625 10.5625 C 23.109375 10.5625 23.28125 10.390625 23.28125 10.171875 C 23.28125 9.953125 23.109375 9.78125 22.890625 9.78125 M 24.078125 10.171875 C 23.859375 10.1875 23.6875 10.359375 23.6875 10.578125 C 23.6875 10.796875 23.875 10.984375 24.09375 10.984375 C 24.3125 10.984375 24.5 10.796875 24.5 10.578125 C 24.5 10.34375 24.3125 10.171875 24.078125 10.171875 C 24.09375 10.171875 24.09375 10.171875 24.078125 10.171875 M 32.25 9.296875 C 32.03125 9.296875 31.859375 9.46875 31.859375 9.6875 C 31.859375 9.90625 32.046875 10.09375 32.265625 10.09375 C 32.484375 10.09375 32.671875 9.90625 32.671875 9.6875 C 32.671875 9.46875 32.5 9.296875 32.28125 9.296875 M 31 9.453125 C 30.78125 9.453125 30.609375 9.625 30.609375 9.84375 C 30.609375 10.0625 30.78125 10.234375 31 10.234375 C 31.21875 10.234375 31.390625 10.0625 31.390625 9.84375 C 31.375 9.625 31.21875 9.453125 31 9.453125 M 29.828125 9.765625 C 29.609375 9.765625 29.421875 9.9375 29.421875 10.171875 C 29.421875 10.390625 29.59375 10.578125 29.828125 10.578125 C 30.0625 10.578125 30.234375 10.40625 30.234375 10.171875 C 30.234375 9.9375 30.046875 9.765625 29.828125 9.765625 M 28.640625 10.15625 C 28.421875 10.15625 28.25 10.328125 28.25 10.546875 C 28.25 10.5625 28.25 10.5625 28.25 10.578125 C 28.25 10.796875 28.4375 10.984375 28.65625 10.984375 C 28.875 10.984375 29.0625 10.796875 29.0625 10.578125 C 29.078125 10.359375 28.90625 10.1875 28.703125 10.171875 C 28.6875 10.171875 28.6875 10.171875 28.671875 10.171875 M 31.84375 10.71875 C 30.421875 10.71875 28.671875 11.484375 27.75 11.953125 C 27.75 11.890625 27.75 11.859375 27.75 11.859375 C 27.734375 11.53125 27.765625 11.203125 27.875 10.890625 L 24.84375 10.890625 C 24.9375 11.203125 24.984375 11.53125 24.96875 11.859375 L 24.96875 11.96875 C 24.046875 11.53125 22.265625 10.734375 20.84375 10.734375 C 20.203125 10.6875 19.59375 10.921875 19.140625 11.375 C 18.25 12.359375 18.75 13.890625 18.96875 14.546875 L 19.515625 14.359375 C 19.3125 13.765625 18.890625 12.5 19.5625 11.75 C 19.90625 11.421875 20.359375 11.25 20.84375 11.296875 C 22.25 11.296875 24.140625 12.203125 24.890625 12.5625 L 24.96875 12.59375 L 24.96875 14.171875 C 25.328125 14.546875 25.53125 15.03125 25.53125 15.546875 C 25.265625 15.53125 25.015625 15.390625 24.859375 15.15625 L 24.859375 16.96875 C 25.015625 16.734375 25.265625 16.578125 25.53125 16.546875 C 25.5 17.265625 25.140625 18.0625 24.359375 18.15625 L 24.171875 18.15625 C 23.625 18.1875 23.125 17.8125 23.015625 17.28125 C 22.90625 16.9375 23.015625 16.578125 23.265625 16.328125 C 23.53125 16.171875 23.875 16.265625 24.03125 16.53125 C 24.0625 16.578125 24.078125 16.625 24.09375 16.671875 C 24.3125 16.140625 24.328125 15.6875 24.015625 15.34375 C 23.890625 15.171875 23.6875 15.078125 23.484375 15.078125 C 23.296875 15.078125 23.109375 15.15625 23 15.3125 C 23.109375 14.109375 22.484375 13.546875 22.15625 13.421875 C 21.859375 13.609375 21.40625 14.328125 21.828125 15.453125 C 21.71875 15.40625 21.609375 15.375 21.5 15.375 C 21.203125 15.359375 20.921875 15.5625 20.84375 15.84375 C 20.71875 16.265625 20.8125 16.734375 21.09375 17.078125 C 21.09375 16.765625 21.34375 16.5 21.65625 16.5 C 21.65625 16.5 21.671875 16.5 21.671875 16.5 C 21.734375 16.5 21.796875 16.515625 21.859375 16.546875 C 22.171875 16.65625 22.3125 17.0625 22.34375 17.359375 C 22.421875 17.96875 21.96875 18.515625 21.359375 18.59375 C 21.328125 18.59375 21.296875 18.59375 21.265625 18.59375 L 21.140625 18.59375 C 20.5 18.59375 20.015625 17.96875 19.734375 17.21875 L 19.875 17.21875 C 20.109375 17.21875 20.34375 17.296875 20.515625 17.453125 L 20.03125 15.6875 C 19.9375 15.953125 19.734375 16.171875 19.484375 16.296875 C 19.390625 15.640625 19.421875 15.03125 19.640625 14.75 L 18.484375 15.1875 L 20.5 20.640625 L 32.109375 20.640625 L 34.125 15.1875 L 32.96875 14.75 C 33.1875 15.03125 33.234375 15.640625 33.125 16.296875 C 32.859375 16.171875 32.640625 15.953125 32.546875 15.671875 L 32.0625 17.4375 C 32.25 17.28125 32.484375 17.203125 32.71875 17.203125 L 32.875 17.203125 C 32.59375 17.96875 32.109375 18.578125 31.46875 18.578125 L 31.34375 18.578125 C 30.734375 18.53125 30.265625 18.015625 30.296875 17.390625 C 30.296875 17.375 30.296875 17.359375 30.296875 17.34375 C 30.328125 17.046875 30.46875 16.640625 30.796875 16.53125 C 30.859375 16.515625 30.90625 16.5 30.96875 16.5 C 31.28125 16.5 31.546875 16.75 31.546875 17.078125 C 31.828125 16.734375 31.90625 16.265625 31.796875 15.84375 C 31.71875 15.546875 31.4375 15.34375 31.125 15.359375 C 31.015625 15.359375 30.890625 15.390625 30.78125 15.4375 C 31.203125 14.296875 30.75 13.59375 30.453125 13.40625 C 30.109375 13.515625 29.5 14.09375 29.609375 15.296875 C 29.5 15.140625 29.3125 15.0625 29.125 15.0625 C 28.921875 15.0625 28.71875 15.15625 28.59375 15.328125 C 28.296875 15.6875 28.296875 16.140625 28.515625 16.65625 C 28.578125 16.40625 28.796875 16.234375 29.0625 16.234375 C 29.15625 16.234375 29.265625 16.265625 29.34375 16.3125 C 29.609375 16.546875 29.703125 16.921875 29.59375 17.265625 C 29.484375 17.796875 29 18.15625 28.453125 18.140625 L 28.28125 18.140625 C 27.515625 18.046875 27.125 17.265625 27.109375 16.5625 C 27.375 16.59375 27.609375 16.734375 27.78125 16.953125 L 27.78125 15.125 C 27.625 15.359375 27.390625 15.515625 27.125 15.546875 C 27.125 15.03125 27.34375 14.53125 27.703125 14.15625 L 27.703125 12.5625 L 27.75 12.53125 C 28.515625 12.171875 30.390625 11.265625 31.796875 11.265625 C 32.265625 11.234375 32.734375 11.390625 33.078125 11.71875 C 33.75 12.46875 33.328125 13.71875 33.125 14.328125 L 33.65625 14.515625 C 33.875 13.859375 34.390625 12.34375 33.484375 11.34375 C 33.03125 10.890625 32.421875 10.671875 31.796875 10.703125 M 34.625 14.015625 C 34.40625 14 34.234375 14.171875 34.21875 14.375 C 34.21875 14.390625 34.21875 14.390625 34.21875 14.40625 C 34.21875 14.625 34.40625 14.8125 34.625 14.8125 C 34.84375 14.8125 35.03125 14.625 35.03125 14.40625 C 35.015625 14.1875 34.84375 14.015625 34.625 14.015625 M 35 12.8125 C 34.78125 12.828125 34.609375 13 34.609375 13.21875 C 34.609375 13.4375 34.78125 13.625 35.015625 13.625 C 35.25 13.625 35.421875 13.453125 35.421875 13.21875 C 35.421875 13 35.25 12.828125 35.03125 12.8125 M 34.953125 11.65625 C 34.734375 11.65625 34.546875 11.828125 34.546875 12.0625 C 34.546875 12.28125 34.71875 12.46875 34.953125 12.46875 C 35.1875 12.46875 35.359375 12.296875 35.359375 12.0625 C 35.359375 11.828125 35.171875 11.65625 34.953125 11.65625 M 34.4375 10.5625 C 34.21875 10.5625 34.046875 10.734375 34.046875 10.953125 C 34.046875 11.171875 34.21875 11.34375 34.4375 11.34375 C 34.65625 11.34375 34.828125 11.171875 34.828125 10.953125 C 34.8125 10.734375 34.640625 10.5625 34.4375 10.5625 M 33.4375 9.75 C 33.21875 9.75 33.03125 9.921875 33.03125 10.15625 C 33.03125 10.375 33.203125 10.5625 33.4375 10.5625 C 33.671875 10.5625 33.84375 10.390625 33.84375 10.15625 C 33.84375 9.921875 33.671875 9.75 33.4375 9.75 M 53.5625 39.46875 C 53.375 39.921875 53.40625 40.4375 53.671875 40.859375 C 53.25 40.40625 52.125 38.671875 53.3125 37.390625 C 53.671875 37.53125 53.671875 37.84375 54 38.015625 C 54.390625 38.21875 54.640625 37.734375 54.40625 37.46875 C 54.171875 37.203125 53.5 36.703125 52.546875 37.46875 C 51.734375 38.140625 51.828125 40.3125 52.515625 41.765625 C 53.9375 44.765625 55.171875 47.75 52.6875 49.75 C 51.40625 50.78125 49.484375 49.421875 49.484375 49.421875 C 49.484375 49.421875 48.59375 51.671875 50.078125 51.953125 C 51.109375 52.140625 52.109375 51.421875 52.265625 51.359375 C 52.59375 51.234375 52.96875 51.3125 53.21875 51.5625 C 53.65625 51.875 53.6875 52.140625 53.6875 52.140625 L 54.484375 52.578125 C 54.484375 52.578125 54.5625 56.375 54.328125 57.859375 C 54.296875 58.1875 54.171875 58.484375 53.984375 58.734375 L 49.28125 58.734375 C 49.28125 58.734375 49.140625 56.953125 50 56.203125 C 51.046875 56.546875 51.546875 56.59375 52.09375 56.25 C 53.171875 55.59375 52.421875 54.15625 52.421875 54.15625 C 51.046875 54.484375 49.640625 54.71875 48.21875 54.84375 C 46.9375 54.96875 45.640625 54.921875 44.359375 54.71875 C 44.359375 54.71875 43.03125 52.5625 42.8125 50.5 C 41.5 50.6875 39.96875 51.046875 40.25 51.890625 C 40.4375 52.453125 42.234375 53.25 42.234375 53.25 C 42.234375 53.25 41.84375 57.03125 40.859375 58.703125 L 34.453125 58.703125 C 34.453125 58.703125 34.578125 56.515625 36.171875 55.921875 C 36.671875 56.59375 38.546875 57.5 39.671875 54.96875 C 38.59375 54.34375 35.296875 52.109375 34.71875 49.015625 C 36.359375 46.515625 39.390625 45.796875 40.890625 45.515625 C 40.5625 45.21875 39.390625 43.96875 37.8125 44.4375 C 37.265625 43.984375 36.84375 43.375 36.59375 42.703125 C 34.21875 42.28125 32.015625 41.15625 30.28125 39.5 C 29.984375 39.453125 29.125 39.390625 28.71875 39.0625 L 19.3125 58.6875 L 18.5 58.6875 L 27.921875 39.03125 C 25.421875 38.984375 26.25 36.765625 26.5625 36.265625 C 26.78125 35.828125 28.046875 34 30.03125 34.703125 L 30.84375 33.015625 C 30.453125 33.09375 30.015625 32.59375 30.53125 31.953125 C 30 31.671875 29.96875 30.484375 30.875 30.34375 C 30.6875 29.859375 30.71875 29.09375 31.71875 28.796875 C 32.078125 28.71875 32.453125 28.796875 32.765625 28.984375 L 46.140625 1.09375 C 46.15625 1.03125 46.203125 0.984375 46.25 0.9375 L 46.9375 0.9375 C 46.96875 0.96875 46.96875 1.015625 46.953125 1.0625 L 33.34375 29.359375 L 34.046875 29.90625 C 34.3125 30.109375 34.4375 30.09375 34.5 31.015625 C 34.53125 31.609375 34.359375 32.203125 34.015625 32.6875 C 34.515625 33.296875 35.234375 33.703125 36.015625 33.84375 C 36.40625 33.25 36.609375 32.609375 38.359375 32.015625 C 40.109375 31.421875 41.328125 31.734375 43.484375 30.546875 C 43.171875 30.5 42.859375 30.4375 42.5625 30.359375 C 42.5625 30.359375 40.328125 30.203125 38.953125 30.96875 C 38.453125 30.390625 38.125 29.671875 38.046875 28.921875 L 38.546875 28.921875 C 38.578125 28.78125 38.65625 28.65625 38.765625 28.5625 C 38.796875 28.734375 38.953125 28.859375 39.125 28.859375 C 39.640625 28.875 40.15625 28.8125 40.671875 28.6875 C 41.53125 28.515625 41.3125 27.875 41.3125 27.875 C 40.96875 27.96875 40.609375 28 40.25 28 C 39.8125 27.984375 39.390625 27.875 39.015625 27.671875 C 38.75 27.5625 38.625 28.015625 38.625 28.015625 C 38.34375 27.734375 38.109375 27.40625 37.953125 27.03125 C 37.859375 26.65625 37.8125 26.265625 37.828125 25.875 C 37.78125 25.671875 37.421875 25.5625 37.671875 24.8125 L 40.546875 24.109375 C 40.609375 23.8125 40.8125 23.5625 41.109375 23.46875 C 41.609375 23.265625 42.125 23.09375 42.65625 22.984375 C 43.0625 22.890625 43.296875 22.84375 43.46875 22.8125 C 43.90625 22.71875 43.8125 22.703125 43.828125 22.65625 C 43.875 22.46875 43.890625 22.28125 43.875 22.09375 C 44.46875 22.125 45.046875 22.1875 45.625 22.28125 C 46.15625 22.375 46.671875 22.515625 47.171875 22.734375 C 47.171875 22.734375 48.546875 22.234375 49.15625 22.796875 C 49.140625 22.90625 49.109375 23.015625 49.0625 23.125 C 49.0625 23.125 51.5 22.875 53.453125 25.703125 C 53.578125 25.890625 53.5625 25.9375 53.546875 25.96875 C 53.09375 25.453125 52.53125 25.046875 51.90625 24.765625 C 51.90625 24.765625 53.359375 25.625 53.828125 26.890625 C 54.296875 28.15625 53.984375 28.390625 53.984375 28.390625 C 53.734375 27.625 53.328125 26.921875 52.765625 26.328125 C 53.546875 27.546875 54.015625 28.953125 54.109375 30.40625 C 54.265625 32.671875 53.53125 33.796875 53.53125 33.796875 C 53.671875 32.921875 53.671875 32.046875 53.546875 31.171875 C 53.5 32.015625 53.34375 32.859375 53.109375 33.671875 C 52.5 33.625 50.359375 33.15625 49.03125 35.921875 C 48.984375 35.328125 49.109375 34.734375 49.390625 34.21875 C 49.390625 34.21875 47.265625 36.453125 48.90625 40.890625 C 48.375 40.578125 47.921875 40.15625 47.546875 39.671875 C 47.453125 41.578125 47.765625 43.46875 48.453125 45.234375 C 49.609375 48.265625 50.71875 49.21875 52.046875 48.3125 C 53.375 47.40625 52.75 44.640625 52.078125 43.421875 C 51.40625 42.203125 47.9375 37.796875 50.765625 35.59375 C 51.921875 34.65625 53.609375 34.703125 54.71875 35.703125 C 53.84375 35.21875 52.78125 35.21875 51.90625 35.703125 C 53.453125 35.5 54.84375 35.46875 55.625 36.984375 C 56.171875 38.046875 55.09375 39.125 54.875 39.46875 C 54.65625 39.8125 53.96875 40.625 54.953125 41.53125 C 53.84375 41.34375 53.5625 39.46875 53.5625 39.46875 Z M 34.25 36.53125 C 33.09375 35.28125 32.015625 32.828125 32.015625 32.828125 L 31.765625 32.625 L 30.5625 35.125 C 30.75 35.515625 31.21875 36.53125 31.375 36.828125 C 31.5625 37.21875 32.296875 38.15625 32.859375 37.984375 C 33.25 37.421875 33.71875 36.9375 34.25 36.53125 Z M 51.03125 56.96875 C 50.78125 56.96875 50.53125 56.921875 50.296875 56.828125 C 49.96875 57.28125 49.796875 57.8125 49.796875 58.375 C 50.015625 57.90625 50.4375 57.546875 50.9375 57.390625 C 50.640625 57.671875 50.609375 58.140625 50.828125 58.46875 C 50.859375 58.015625 51.734375 57.453125 52.40625 57.21875 C 52.328125 57.1875 52.234375 57.171875 52.15625 57.1875 C 51.859375 57.203125 51.578125 57.234375 51.296875 57.3125 C 52.0625 57.0625 52.90625 56.75 53.046875 55.8125 C 52.609375 56.515625 51.859375 56.953125 51.03125 56.96875 M 36.984375 57.140625 C 36.59375 57.140625 36.203125 57.09375 35.828125 57.015625 C 35.484375 57.359375 35.296875 57.8125 35.296875 58.296875 C 35.578125 57.890625 36.015625 57.609375 36.5 57.546875 C 36.078125 57.859375 36.25 58.203125 36.390625 58.46875 C 36.390625 58.296875 36.609375 58.109375 36.90625 57.953125 C 36.875 58.140625 36.953125 58.34375 37.125 58.453125 C 36.96875 58.09375 37.65625 57.828125 38.359375 57.765625 C 38.171875 57.765625 37.96875 57.734375 37.75 57.734375 C 37.625 57.734375 37.5 57.734375 37.359375 57.75 C 37.59375 57.65625 37.84375 57.59375 38.09375 57.546875 C 37.90625 57.484375 37.71875 57.46875 37.515625 57.46875 C 37.3125 57.46875 37.109375 57.484375 36.90625 57.5 C 37.59375 57.375 38.140625 57.25 38.453125 56.65625 C 38.03125 56.96875 37.515625 57.125 36.984375 57.09375 M 31.421875 32.296875 C 31.15625 32.40625 30.84375 32.28125 30.734375 32.015625 C 30.734375 32.015625 30.734375 32.015625 30.734375 32 C 30.59375 32.5 31.046875 32.609375 31.28125 32.484375 C 31.34375 32.453125 31.390625 32.390625 31.421875 32.296875 M 45.625 26.484375 C 45.625 26.484375 46.09375 26.734375 46.265625 26.40625 C 46.046875 26.0625 45.953125 25.65625 46.015625 25.25 C 46.015625 25.25 46.59375 26.5 46.96875 26.609375 C 46.765625 26.125 46.703125 25.609375 46.75 25.109375 C 46.75 25.109375 47.140625 26.21875 49.203125 25.625 C 49.84375 25.4375 50.6875 24.734375 50.640625 24.109375 C 50.59375 23.484375 48.8125 23.40625 48.515625 23.578125 C 48.78125 23.640625 49.03125 23.765625 49.21875 23.96875 C 49.21875 23.96875 48.265625 23.546875 47.59375 23.875 C 46.640625 24.34375 46.5625 24.875 46.484375 25.6875 C 46.015625 24.5 46.546875 24.078125 46.78125 23.6875 C 46.390625 23.09375 45.125 23.09375 44.71875 23.09375 C 44.3125 23.09375 41.109375 23.5625 41.46875 24.078125 C 41.828125 24.59375 43.265625 24.734375 44.015625 24.5 C 43.5 25.78125 42.703125 25.46875 42.09375 25.328125 C 41.484375 25.1875 41.015625 24.75 39.890625 24.9375 C 38.765625 25.125 39 25.765625 39 25.765625 C 39 25.765625 38.5 25.703125 38.4375 26.03125 C 38.40625 26.1875 38.390625 26.890625 39.59375 27.21875 C 40.34375 27.40625 41.125 27.40625 41.875 27.21875 C 41.875 27.21875 42.1875 28.6875 41.4375 28.96875 C 41.03125 29.125 39.84375 29.328125 39.3125 29.59375 C 39.078125 29.671875 38.953125 29.921875 39.046875 30.15625 C 39.0625 30.203125 39.09375 30.25 39.125 30.296875 C 39.984375 29.84375 40.953125 29.640625 41.9375 29.71875 C 43.203125 29.84375 43.421875 29.5625 43.90625 29.09375 C 44.3125 28.609375 44.625 28.046875 44.828125 27.453125 C 44.828125 27.453125 45.28125 29.078125 44.828125 29.84375 C 45.703125 29.203125 46.28125 28.25 46.4375 27.1875 C 46.078125 27.0625 45.78125 26.8125 45.625 26.484375 Z M 30.953125 38.359375 L 32.640625 39.03125 L 31 39.171875 C 32.203125 40 33.5 40.6875 34.859375 41.21875 C 36.8125 41.90625 38.265625 42.15625 39.234375 41.953125 C 39.953125 41.75 40.609375 41.390625 41.1875 40.921875 C 42.484375 42.9375 44.40625 44.46875 46.65625 45.3125 C 45.15625 45.390625 43.609375 44.453125 43.609375 44.453125 C 44.53125 45.34375 45.71875 45.921875 46.984375 46.09375 C 44.96875 46.203125 43.953125 45.328125 43 44.78125 C 43.921875 46.328125 45.984375 46.59375 45.984375 46.59375 C 45.984375 46.59375 44.375 46.453125 43.78125 46.828125 C 43.1875 47.8125 43.359375 49.6875 43.53125 50.84375 C 43.703125 52 44.171875 53.46875 44.828125 53.734375 C 47.359375 54.734375 51.71875 53.25 52.078125 53.0625 C 52.359375 52.921875 52.890625 52.75 52.671875 52.171875 C 52.453125 51.59375 52.015625 52.078125 51.203125 52.3125 C 50.484375 52.53125 49.71875 52.421875 49.09375 52.015625 C 48.890625 51.84375 48.703125 51.625 48.578125 51.390625 C 48.09375 51.984375 47.46875 52.46875 46.75 52.75 C 46.75 52.75 48.75 50.96875 48.46875 48.296875 C 48.21875 46 46.4375 43.5 45.890625 42.40625 C 45.34375 41.3125 45.125 39.9375 45.359375 39.1875 C 44.71875 39.484375 44 39.578125 43.3125 39.4375 C 43.3125 39.4375 45.234375 38.84375 45.5 38.265625 C 41.640625 38.890625 39.78125 38.109375 39.78125 38.109375 C 39.78125 38.109375 43.65625 37.96875 45 36.984375 C 39.390625 38.109375 37.375 36.515625 37.375 36.515625 C 37.375 36.515625 40.96875 36.75 42.40625 35.96875 C 40 36.484375 38.25 35.96875 36.8125 35.6875 C 35.40625 36.453125 34.953125 37.234375 34.953125 37.234375 C 36.453125 37.625 38.015625 37.78125 39.5625 37.703125 C 37.734375 38.46875 36.296875 38.984375 35.140625 39.046875 C 32.140625 39.234375 31.171875 37.4375 30.734375 36.84375 C 30.3125 36.25 30.46875 36.140625 29.84375 35.328125 C 28.609375 34.9375 28.296875 35.40625 28.296875 35.40625 C 28.296875 35.40625 28.75 35.40625 28.828125 35.8125 C 28.328125 35.5 27.671875 35.640625 27.359375 36.140625 C 27.34375 36.15625 27.34375 36.171875 27.328125 36.1875 C 27.640625 36.046875 28.015625 36.140625 28.234375 36.40625 C 26.90625 36.234375 26.8125 36.859375 26.828125 37.265625 C 27.375 36.78125 27.78125 36.984375 27.78125 36.984375 C 27.484375 37.015625 27.21875 37.171875 27.03125 37.40625 C 26.390625 38.109375 27.140625 38.640625 27.796875 38.25 C 28.265625 38.015625 28.59375 37.578125 28.6875 37.0625 C 29.078125 37.453125 28.609375 38.046875 28.609375 38.046875 C 29.09375 38.765625 30.078125 38.953125 30.8125 38.46875 C 30.890625 38.40625 30.921875 38.375 30.953125 38.359375 Z M 39.484375 48.90625 C 40.25 48.515625 41.078125 48.21875 41.921875 48.03125 C 42.40625 47.90625 43 47.46875 42.390625 46.3125 C 37.828125 47 35.78125 49.015625 35.78125 49.015625 C 38.484375 49.671875 38.734375 49.3125 39.484375 48.90625 Z M 51.53125 26.1875 C 51.140625 25.875 50.6875 25.671875 50.203125 25.59375 L 50.09375 25.671875 C 50.390625 26.109375 50.609375 26.59375 50.71875 27.109375 C 50.390625 26.625 49.9375 26.25 49.40625 26.03125 L 49.171875 26.09375 C 49.390625 27.015625 50.015625 29.46875 48.90625 31.078125 C 49.375 29.6875 48.609375 27.15625 48.140625 26.28125 C 48.296875 27.4375 48.953125 29.671875 46.875 31.515625 C 47.921875 30.046875 47.78125 27.46875 47.5625 26.625 C 47.4375 28.640625 48.015625 31.734375 43.828125 32.734375 C 44.234375 32.53125 45.671875 32.1875 46.484375 29.625 C 46.25 29.9375 44.1875 31.609375 41.9375 32.25 C 42.546875 32.1875 43.140625 32.078125 43.734375 31.921875 C 42.84375 32.5 41.796875 32.8125 40.75 32.8125 C 40.40625 32.8125 40.078125 32.78125 39.75 32.75 C 39.5 32.71875 39.234375 32.6875 38.984375 32.6875 C 38.84375 32.6875 38.703125 32.703125 38.578125 32.75 C 38.03125 32.90625 37.53125 33.203125 37.140625 33.609375 C 37.5625 33.453125 38.015625 33.390625 38.453125 33.390625 C 39.546875 33.390625 40.4375 33.828125 40.90625 33.90625 L 40.984375 33.90625 C 43.71875 33.90625 45.703125 33.34375 46.421875 32.140625 C 45.71875 33.90625 44.15625 34.578125 42.765625 35.40625 C 44.6875 34.6875 47.21875 33.828125 48.15625 31.484375 C 48.40625 32.640625 47.625 34.703125 44.890625 36 C 47.921875 35.15625 49.78125 32.890625 50.28125 28.828125 C 50.515625 30.171875 50.484375 31.5625 50.1875 32.90625 C 51.15625 31.5 51.09375 28.796875 50.453125 27.3125 C 51.40625 28.78125 51.8125 30.546875 51.609375 32.296875 C 52.109375 30.109375 52.359375 27.609375 50.984375 26.078125 C 52.3125 27.109375 52.671875 29.15625 52.890625 31.578125 C 53.25 29.375 52.828125 26.109375 50.78125 25.09375 L 50.734375 25.15625 C 51.015625 25.4375 51.296875 25.796875 51.53125 26.1875 M 35.671875 34.359375 C 35.40625 34.359375 34.015625 33.59375 33.40625 32.46875 C 33.8125 32.140625 34.109375 30.984375 34.03125 30.484375 C 33.53125 29.9375 32.921875 29.484375 32.25 29.15625 C 31.703125 29.828125 32.578125 30.703125 33.5 30.71875 C 32.515625 31.359375 31.84375 32.1875 32.5 32.4375 C 32.53125 32.453125 32.578125 32.46875 32.625 32.484375 C 32.78125 33.875 34.625 35.640625 34.625 35.640625 Z M 32.046875 30.890625 L 32.0625 30.890625 C 31.796875 30.765625 31.609375 30.546875 31.53125 30.265625 C 31.46875 29.984375 31.546875 29.703125 31.71875 29.46875 C 31.1875 29.78125 31.125 30.234375 31.28125 30.53125 C 31.453125 30.78125 31.75 30.921875 32.046875 30.921875 M 31.34375 31.6875 L 31.46875 31.6875 C 31.625 31.65625 31.765625 31.546875 31.859375 31.40625 C 31.78125 31.40625 31.71875 31.40625 31.640625 31.40625 C 31.4375 31.421875 31.234375 31.34375 31.078125 31.21875 C 30.96875 31.109375 30.890625 30.953125 30.875 30.796875 C 30.734375 31.46875 31.03125 31.6875 31.34375 31.6875 M 52.65625 57.515625 C 52.296875 57.359375 51.890625 57.40625 51.5625 57.609375 C 51.328125 57.765625 51.265625 58.0625 51.421875 58.296875 C 51.453125 58.34375 51.484375 58.390625 51.53125 58.421875 L 51.546875 58.4375 C 51.46875 57.625 52.671875 57.515625 52.65625 57.515625 Z M 41.984375 34.34375 C 40.109375 34.90625 39.015625 34.203125 38.21875 34.140625 C 37.71875 34.109375 37.21875 34.25 36.78125 34.53125 C 38.4375 35.359375 40.40625 35.296875 41.984375 34.34375 Z M 41.984375 34.34375 "/>
<path style=" stroke:none;fill-rule:nonzero;fill:rgb(0%,0%,0%);fill-opacity:1;" d="M 13.734375 70.046875 L 66.5625 70.046875 L 66.5625 69.671875 L 13.734375 69.671875 Z M 13.734375 70.046875 "/>
</g>
</svg>
