<?xml version="1.0" encoding="UTF-8"?>
<svg xmlns="http://www.w3.org/2000/svg" xmlns:xlink="http://www.w3.org/1999/xlink" width="80px" height="80px" viewBox="0 0 80 80" version="1.1">
<g id="surface1">
<path style=" stroke:none;fill-rule:nonzero;fill:rgb(0%,0%,0%);fill-opacity:1;" d="M 0.417969 78.992188 C 0.855469 79.621094 1.574219 80 2.34375 80 L 77.65625 80 C 78.425781 80 79.144531 79.621094 79.582031 78.992188 C 80.019531 78.359375 80.121094 77.554688 79.851562 76.835938 C 78.9375 74.390625 77.230469 72.25 76.535156 71.445312 C 76.09375 70.925781 75.441406 70.625 74.757812 70.625 L 5.242188 70.625 C 4.558594 70.625 3.90625 70.925781 3.464844 71.445312 C 2.769531 72.25 1.0625 74.390625 0.148438 76.835938 C -0.121094 77.554688 -0.0195312 78.359375 0.417969 78.992188 Z M 0.417969 78.992188 "/>
<path style=" stroke:none;fill-rule:nonzero;fill:rgb(0%,0%,0%);fill-opacity:1;" d="M 9.375 37.65625 L 23.59375 37.65625 L 23.59375 65.9375 L 9.375 65.9375 Z M 9.375 37.65625 "/>
<path style=" stroke:none;fill-rule:nonzero;fill:rgb(0%,0%,0%);fill-opacity:1;" d="M 32.96875 37.65625 L 47.03125 37.65625 L 47.03125 65.9375 L 32.96875 65.9375 Z M 32.96875 37.65625 "/>
<path style=" stroke:none;fill-rule:nonzero;fill:rgb(0%,0%,0%);fill-opacity:1;" d="M 56.40625 37.65625 L 70.625 37.65625 L 70.625 65.9375 L 56.40625 65.9375 Z M 56.40625 37.65625 "/>
<path style=" stroke:none;fill-rule:nonzero;fill:rgb(0%,0%,0%);fill-opacity:1;" d="M 5.074219 32.277344 C 5.511719 32.71875 6.125 32.96875 6.730469 32.96875 C 6.730469 32.96875 6.734375 32.96875 6.734375 32.96875 L 73.265625 32.96875 C 73.265625 32.96875 73.265625 32.96875 73.269531 32.96875 C 73.875 32.96875 74.488281 32.71875 74.925781 32.277344 C 75.402344 31.800781 78.96875 28.089844 80 23.59375 L 0 23.59375 C 1.03125 28.089844 4.597656 31.800781 5.074219 32.277344 Z M 5.074219 32.277344 "/>
<path style=" stroke:none;fill-rule:nonzero;fill:rgb(0%,0%,0%);fill-opacity:1;" d="M 78.507812 18.90625 L 41.046875 0.246094 C 40.390625 -0.0820312 39.609375 -0.0820312 38.953125 0.246094 L 1.492188 18.90625 Z M 78.507812 18.90625 "/>
</g>
</svg>
