<?xml version="1.0" encoding="UTF-8"?>
<svg xmlns="http://www.w3.org/2000/svg" xmlns:xlink="http://www.w3.org/1999/xlink" width="80px" height="80px" viewBox="0 0 80 80" version="1.1">
<g id="surface1">
<path style=" stroke:none;fill-rule:nonzero;fill:rgb(0%,0%,0%);fill-opacity:1;" d="M 55 10 L 50 10 L 50 2.5 C 50 1.121094 48.878906 0 47.5 0 L 32.5 0 C 31.121094 0 30 1.121094 30 2.5 L 30 10 L 25 10 C 22.246094 10 20 12.246094 20 15 L 20 75 C 20 77.804688 22.195312 80 25 80 L 55 80 C 57.804688 80 60 77.804688 60 75 L 60 15 C 60 12.195312 57.804688 10 55 10 Z M 40 65 L 40 50 L 30 50 L 40 25 L 40 40 L 50 40 Z M 40 65 "/>
</g>
</svg>
