<?xml version="1.0" encoding="UTF-8"?>
<svg xmlns="http://www.w3.org/2000/svg" xmlns:xlink="http://www.w3.org/1999/xlink" width="80px" height="80px" viewBox="0 0 80 80" version="1.1">
<g id="surface1">
<path style=" stroke:none;fill-rule:nonzero;fill:rgb(0%,0%,0%);fill-opacity:1;" d="M 51.25 72.5 C 51.941406 72.5 52.5 71.941406 52.5 71.25 C 52.5 70.558594 51.941406 70 51.25 70 L 41.25 70 C 40.558594 70 40 70.558594 40 71.25 C 40 71.941406 40.558594 72.5 41.25 72.5 Z M 51.25 72.5 "/>
<path style=" stroke:none;fill-rule:nonzero;fill:rgb(0%,0%,0%);fill-opacity:1;" d="M 3.75 72.5 L 13.75 72.5 C 14.441406 72.5 15 71.941406 15 71.25 C 15 70.558594 14.441406 70 13.75 70 L 3.75 70 C 3.058594 70 2.5 70.558594 2.5 71.25 C 2.5 71.941406 3.058594 72.5 3.75 72.5 Z M 3.75 72.5 "/>
<path style=" stroke:none;fill-rule:nonzero;fill:rgb(0%,0%,0%);fill-opacity:1;" d="M 35 75 C 34.308594 75 33.75 75.558594 33.75 76.25 C 33.75 76.941406 34.308594 77.5 35 77.5 L 40 77.5 C 40.691406 77.5 41.25 76.941406 41.25 76.25 C 41.25 75.558594 40.691406 75 40 75 Z M 35 75 "/>
<path style=" stroke:none;fill-rule:nonzero;fill:rgb(0%,0%,0%);fill-opacity:1;" d="M 8.75 76.25 C 8.75 76.941406 9.308594 77.5 10 77.5 L 27.5 77.5 C 28.191406 77.5 28.75 76.941406 28.75 76.25 C 28.75 75.558594 28.191406 75 27.5 75 L 10 75 C 9.308594 75 8.75 75.558594 8.75 76.25 Z M 8.75 76.25 "/>
<path style=" stroke:none;fill-rule:nonzero;fill:rgb(0%,0%,0%);fill-opacity:1;" d="M 73.878906 31.597656 C 71.820312 30.566406 69.113281 30 66.25 30 C 65.398438 30 64.546875 30.050781 63.699219 30.15625 L 70.882812 22.96875 C 71.371094 22.480469 71.371094 21.691406 70.882812 21.203125 C 69.585938 19.90625 67.507812 19.644531 65.035156 20.472656 C 62.851562 21.199219 60.535156 22.714844 58.507812 24.738281 C 58.15625 25.089844 57.820312 25.453125 57.5 25.820312 L 57.5 16.25 C 57.5 15.558594 56.941406 15 56.25 15 C 54.417969 15 52.761719 16.285156 51.597656 18.621094 C 50.566406 20.679688 50 23.386719 50 26.25 C 49.996094 27.652344 50.136719 29.050781 50.425781 30.425781 C 49.050781 30.140625 47.652344 29.996094 46.25 30 C 43.386719 30 40.679688 30.566406 38.621094 31.597656 C 36.285156 32.761719 35 34.417969 35 36.25 C 35 36.941406 35.558594 37.5 36.25 37.5 L 44.925781 37.5 C 42.261719 41.300781 41.699219 45.132812 43.703125 47.132812 C 44.191406 47.621094 44.980469 47.621094 45.46875 47.132812 L 51.839844 40.765625 C 52.429688 41.695312 53.398438 42.316406 54.488281 42.464844 C 55.578125 42.613281 56.679688 42.277344 57.5 41.542969 C 57.554688 41.59375 57.613281 41.640625 57.671875 41.6875 C 59.140625 45.335938 59.972656 49.492188 60.101562 53.796875 C 57.050781 54.023438 54.109375 55.164062 51.539062 57.132812 C 51.382812 57.253906 51.226562 57.378906 51.074219 57.503906 C 44.054688 57.550781 37.730469 60.398438 34.351562 65 L 3.75 65 L 3.75 67.5 L 56.25 67.5 C 61.257812 67.5 65 69.480469 65 71.25 C 65 73.019531 61.257812 75 56.25 75 C 55.558594 75 55 75.558594 55 76.25 C 55 76.941406 55.558594 77.5 56.25 77.5 C 59.113281 77.5 61.820312 76.933594 63.878906 75.902344 C 66.214844 74.738281 67.5 73.082031 67.5 71.25 C 67.5 69.847656 66.746094 68.554688 65.351562 67.5 L 76.25 67.5 C 76.667969 67.5 77.054688 67.292969 77.289062 66.949219 C 77.519531 66.601562 77.566406 66.164062 77.40625 65.777344 C 75.96875 62.25 73.738281 59.261719 70.960938 57.132812 C 69.839844 56.273438 68.613281 55.554688 67.3125 55 L 67.5 55 C 67.5 48.722656 66.25 42.71875 63.867188 37.5 L 76.25 37.5 C 76.941406 37.5 77.5 36.941406 77.5 36.25 C 77.5 34.417969 76.214844 32.761719 73.878906 31.597656 Z M 55 18.082031 L 55 29.488281 C 54.632812 30.203125 54.335938 30.949219 54.109375 31.714844 C 54.03125 31.675781 53.957031 31.636719 53.878906 31.597656 C 53.675781 31.492188 53.460938 31.398438 53.242188 31.304688 C 52.738281 29.667969 52.488281 27.960938 52.5 26.25 C 52.5 22.414062 53.660156 19.320312 55 18.082031 Z M 51.414062 37.65625 L 44.996094 44.074219 C 44.921875 42.492188 45.933594 39.996094 48.101562 37.5 L 51.464844 37.5 C 51.445312 37.550781 51.429688 37.601562 51.414062 37.65625 Z M 38.082031 35 C 39.320312 33.660156 42.414062 32.5 46.25 32.5 C 50.085938 32.5 53.179688 33.660156 54.417969 35 Z M 55 40 C 54.308594 40 53.75 39.441406 53.75 38.75 C 53.75 38.058594 54.308594 37.5 55 37.5 C 55.691406 37.5 56.25 38.058594 56.25 38.75 C 56.25 39.441406 55.691406 40 55 40 Z M 56.328125 33.222656 C 56.621094 31.230469 58.117188 28.667969 60.277344 26.503906 C 62.988281 23.792969 65.996094 22.425781 67.820312 22.5 L 58.816406 31.503906 C 58.75 31.535156 58.683594 31.5625 58.621094 31.597656 C 57.769531 32.003906 56.992188 32.554688 56.328125 33.222656 Z M 60 40 C 59.308594 40 58.75 39.441406 58.75 38.75 C 58.75 38.058594 59.308594 37.5 60 37.5 C 60.691406 37.5 61.25 38.058594 61.25 38.75 C 61.25 39.441406 60.691406 40 60 40 Z M 45.429688 65 L 37.65625 65 C 40.238281 62.460938 44.113281 60.71875 48.402344 60.179688 C 47.203125 61.648438 46.203125 63.269531 45.429688 65 Z M 69.441406 59.121094 C 71.46875 60.703125 73.128906 62.707031 74.296875 65 L 48.203125 65 C 49.371094 62.707031 51.03125 60.703125 53.058594 59.121094 C 55.511719 57.242188 58.34375 56.25 61.25 56.25 C 64.15625 56.25 66.988281 57.242188 69.441406 59.121094 Z M 64.988281 54.214844 C 64.207031 54.019531 63.410156 53.882812 62.605469 53.8125 C 62.511719 49.945312 61.84375 46.117188 60.621094 42.449219 C 61.421875 42.3125 62.160156 41.917969 62.71875 41.328125 C 64.167969 45.472656 64.933594 49.824219 64.988281 54.214844 Z M 58.082031 35 C 59.320312 33.660156 62.414062 32.5 66.25 32.5 C 70.085938 32.5 73.179688 33.660156 74.417969 35 Z M 58.082031 35 "/>
<path style=" stroke:none;fill-rule:nonzero;fill:rgb(0%,0%,0%);fill-opacity:1;" d="M 33.75 70 L 21.25 70 C 20.558594 70 20 70.558594 20 71.25 C 20 71.941406 20.558594 72.5 21.25 72.5 L 33.75 72.5 C 34.441406 72.5 35 71.941406 35 71.25 C 35 70.558594 34.441406 70 33.75 70 Z M 33.75 70 "/>
<path style=" stroke:none;fill-rule:nonzero;fill:rgb(0%,0%,0%);fill-opacity:1;" d="M 22.5 10 C 19.046875 10 16.25 12.796875 16.25 16.25 C 16.25 19.703125 19.046875 22.5 22.5 22.5 C 25.953125 22.5 28.75 19.703125 28.75 16.25 C 28.746094 12.800781 25.949219 10.003906 22.5 10 Z M 22.5 20 C 20.429688 20 18.75 18.320312 18.75 16.25 C 18.75 14.179688 20.429688 12.5 22.5 12.5 C 24.570312 12.5 26.25 14.179688 26.25 16.25 C 26.246094 18.320312 24.570312 19.996094 22.5 20 Z M 22.5 20 "/>
<path style=" stroke:none;fill-rule:nonzero;fill:rgb(0%,0%,0%);fill-opacity:1;" d="M 23.75 6.25 L 23.75 3.75 C 23.75 3.058594 23.191406 2.5 22.5 2.5 C 21.808594 2.5 21.25 3.058594 21.25 3.75 L 21.25 6.25 C 21.25 6.941406 21.808594 7.5 22.5 7.5 C 23.191406 7.5 23.75 6.941406 23.75 6.25 Z M 23.75 6.25 "/>
<path style=" stroke:none;fill-rule:nonzero;fill:rgb(0%,0%,0%);fill-opacity:1;" d="M 36.25 16.25 C 36.25 15.558594 35.691406 15 35 15 L 32.5 15 C 31.808594 15 31.25 15.558594 31.25 16.25 C 31.25 16.941406 31.808594 17.5 32.5 17.5 L 35 17.5 C 35.691406 17.5 36.25 16.941406 36.25 16.25 Z M 36.25 16.25 "/>
<path style=" stroke:none;fill-rule:nonzero;fill:rgb(0%,0%,0%);fill-opacity:1;" d="M 23.75 28.75 L 23.75 26.25 C 23.75 25.558594 23.191406 25 22.5 25 C 21.808594 25 21.25 25.558594 21.25 26.25 L 21.25 28.75 C 21.25 29.441406 21.808594 30 22.5 30 C 23.191406 30 23.75 29.441406 23.75 28.75 Z M 23.75 28.75 "/>
<path style=" stroke:none;fill-rule:nonzero;fill:rgb(0%,0%,0%);fill-opacity:1;" d="M 8.75 16.25 C 8.75 16.941406 9.308594 17.5 10 17.5 L 12.5 17.5 C 13.191406 17.5 13.75 16.941406 13.75 16.25 C 13.75 15.558594 13.191406 15 12.5 15 L 10 15 C 9.308594 15 8.75 15.558594 8.75 16.25 Z M 8.75 16.25 "/>
<path style=" stroke:none;fill-rule:nonzero;fill:rgb(0%,0%,0%);fill-opacity:1;" d="M 16.3125 8.296875 L 14.546875 6.527344 C 14.054688 6.046875 13.269531 6.054688 12.789062 6.539062 C 12.304688 7.019531 12.296875 7.804688 12.777344 8.296875 L 14.546875 10.0625 C 14.859375 10.386719 15.324219 10.519531 15.761719 10.402344 C 16.199219 10.289062 16.539062 9.949219 16.652344 9.511719 C 16.769531 9.074219 16.636719 8.609375 16.3125 8.296875 Z M 16.3125 8.296875 "/>
<path style=" stroke:none;fill-rule:nonzero;fill:rgb(0%,0%,0%);fill-opacity:1;" d="M 30.453125 10.0625 L 32.222656 8.292969 C 32.703125 7.804688 32.695312 7.019531 32.210938 6.535156 C 31.730469 6.050781 30.945312 6.046875 30.453125 6.527344 L 28.6875 8.296875 C 28.214844 8.785156 28.21875 9.566406 28.703125 10.046875 C 29.183594 10.53125 29.964844 10.535156 30.453125 10.0625 Z M 30.453125 10.0625 "/>
<path style=" stroke:none;fill-rule:nonzero;fill:rgb(0%,0%,0%);fill-opacity:1;" d="M 30.453125 25.972656 C 30.945312 26.453125 31.730469 26.445312 32.210938 25.960938 C 32.695312 25.480469 32.703125 24.695312 32.222656 24.203125 L 30.453125 22.4375 C 30.140625 22.113281 29.675781 21.980469 29.238281 22.097656 C 28.800781 22.210938 28.460938 22.550781 28.347656 22.988281 C 28.230469 23.425781 28.363281 23.890625 28.6875 24.203125 Z M 30.453125 25.972656 "/>
<path style=" stroke:none;fill-rule:nonzero;fill:rgb(0%,0%,0%);fill-opacity:1;" d="M 12.777344 24.203125 C 12.457031 24.519531 12.328125 24.984375 12.441406 25.417969 C 12.558594 25.851562 12.898438 26.191406 13.332031 26.308594 C 13.765625 26.421875 14.230469 26.292969 14.546875 25.972656 L 16.3125 24.203125 C 16.636719 23.890625 16.769531 23.425781 16.652344 22.988281 C 16.539062 22.550781 16.199219 22.210938 15.761719 22.097656 C 15.324219 21.980469 14.859375 22.113281 14.546875 22.4375 Z M 12.777344 24.203125 "/>
<path style=" stroke:none;fill-rule:nonzero;fill:rgb(0%,0%,0%);fill-opacity:1;" d="M 18.75 42.5 C 19.441406 42.5 20 43.058594 20 43.75 C 20 44.441406 20.558594 45 21.25 45 C 21.941406 45 22.5 44.441406 22.5 43.75 C 22.5 43.058594 23.058594 42.5 23.75 42.5 C 24.441406 42.5 25 43.058594 25 43.75 C 25 44.441406 25.558594 45 26.25 45 C 26.941406 45 27.5 44.441406 27.5 43.75 C 27.5 42.269531 26.632812 40.929688 25.28125 40.324219 C 23.929688 39.722656 22.351562 39.96875 21.25 40.957031 C 20.148438 39.96875 18.570312 39.722656 17.21875 40.324219 C 15.867188 40.929688 15 42.269531 15 43.75 C 15 44.441406 15.558594 45 16.25 45 C 16.941406 45 17.5 44.441406 17.5 43.75 C 17.5 43.058594 18.058594 42.5 18.75 42.5 Z M 18.75 42.5 "/>
<path style=" stroke:none;fill-rule:nonzero;fill:rgb(0%,0%,0%);fill-opacity:1;" d="M 5 51.25 C 5 51.941406 5.558594 52.5 6.25 52.5 C 6.941406 52.5 7.5 51.941406 7.5 51.25 C 7.5 50.558594 8.058594 50 8.75 50 C 9.441406 50 10 50.558594 10 51.25 C 10 51.941406 10.558594 52.5 11.25 52.5 C 11.941406 52.5 12.5 51.941406 12.5 51.25 C 12.5 50.558594 13.058594 50 13.75 50 C 14.441406 50 15 50.558594 15 51.25 C 15 51.941406 15.558594 52.5 16.25 52.5 C 16.941406 52.5 17.5 51.941406 17.5 51.25 C 17.5 49.769531 16.632812 48.429688 15.28125 47.824219 C 13.929688 47.222656 12.351562 47.46875 11.25 48.457031 C 10.148438 47.46875 8.570312 47.222656 7.21875 47.824219 C 5.867188 48.429688 5 49.769531 5 51.25 Z M 5 51.25 "/>
</g>
</svg>
