<?xml version="1.0" encoding="UTF-8"?>
<svg xmlns="http://www.w3.org/2000/svg" xmlns:xlink="http://www.w3.org/1999/xlink" width="80px" height="80px" viewBox="0 0 80 80" version="1.1">
<g id="surface1">
<path style=" stroke:none;fill-rule:nonzero;fill:rgb(0%,0%,0%);fill-opacity:1;" d="M 73.332031 19.789062 L 61.53125 19.789062 L 61.53125 8.546875 C 61.53125 6.09375 59.539062 4.101562 57.085938 4.101562 L 22.914062 4.101562 C 20.460938 4.101562 18.472656 6.09375 18.472656 8.546875 L 18.472656 19.789062 L 6.667969 19.789062 C 2.988281 19.789062 0 22.777344 0 26.457031 L 0 69.234375 C 0 72.917969 2.988281 75.898438 6.667969 75.898438 L 73.332031 75.898438 C 77.015625 75.898438 80 72.917969 80 69.234375 L 80 26.457031 C 80 22.777344 77.019531 19.789062 73.332031 19.789062 Z M 27.359375 12.996094 L 52.640625 12.996094 L 52.640625 19.796875 L 27.359375 19.796875 Z M 27.359375 12.996094 "/>
</g>
</svg>
