<?xml version="1.0" encoding="UTF-8"?>
<svg xmlns="http://www.w3.org/2000/svg" xmlns:xlink="http://www.w3.org/1999/xlink" width="80px" height="80px" viewBox="0 0 80 80" version="1.1">
<g id="surface1">
<path style=" stroke:none;fill-rule:nonzero;fill:rgb(0%,0%,0%);fill-opacity:1;" d="M 19.628906 75.382812 L 26.5625 75.382812 C 30.582031 75.382812 30.589844 69.117188 26.5625 69.117188 L 19.628906 69.117188 C 15.605469 69.117188 15.601562 75.382812 19.628906 75.382812 Z M 19.628906 71.460938 L 26.5625 71.460938 C 27.582031 71.460938 27.582031 73.039062 26.5625 73.039062 L 19.628906 73.039062 C 18.609375 73.039062 18.609375 71.460938 19.628906 71.460938 Z M 19.628906 71.460938 "/>
<path style=" stroke:none;fill-rule:nonzero;fill:rgb(0%,0%,0%);fill-opacity:1;" d="M 28.234375 40.28125 L 20.597656 47.914062 L 17.957031 45.269531 C 16.882812 44.199219 15.226562 45.855469 16.296875 46.925781 L 19.769531 50.398438 C 20.324219 50.859375 20.875 50.859375 21.429688 50.398438 L 29.890625 41.9375 C 30.960938 40.867188 29.304688 39.207031 28.234375 40.28125 Z M 28.234375 40.28125 "/>
<path style=" stroke:none;fill-rule:nonzero;fill:rgb(0%,0%,0%);fill-opacity:1;" d="M 79.128906 51.84375 C 78.65625 50.941406 78.3125 49.949219 78.082031 48.957031 C 76.9375 44.175781 75.203125 39.546875 72.921875 35.191406 L 69.105469 27.914062 C 66.949219 23.792969 60.578125 24.476562 59.375 28.996094 C 56.523438 27.972656 53.300781 29.65625 52.519531 32.589844 C 50.164062 31.738281 47.4375 32.738281 46.1875 34.90625 L 46.1875 4.578125 C 46.1875 2.054688 44.132812 0 41.609375 0 L 14.308594 0 C 12.792969 0 12.792969 2.34375 14.308594 2.34375 L 41.609375 2.34375 C 42.839844 2.34375 43.84375 3.347656 43.84375 4.578125 L 43.84375 8.003906 L 2.34375 8.003906 L 2.34375 4.578125 C 2.34375 3.347656 3.347656 2.34375 4.578125 2.34375 L 7.746094 2.34375 C 9.261719 2.34375 9.261719 0 7.746094 0 L 4.578125 0 C 2.054688 0 0 2.054688 0 4.578125 L 0 75.421875 C 0 77.945312 2.054688 80 4.578125 80 L 41.609375 80 C 44.132812 80 46.1875 77.945312 46.1875 75.421875 L 46.1875 60.964844 L 50.375 63.035156 C 51.410156 63.546875 52.261719 64.398438 52.769531 65.433594 C 54.632812 69.214844 59.398438 70.78125 63.144531 68.820312 L 70.125 65.164062 C 71.46875 64.460938 70.382812 62.382812 69.039062 63.085938 L 62.058594 66.746094 C 59.464844 68.105469 56.167969 67.027344 54.875 64.398438 C 54.136719 62.902344 52.910156 61.671875 51.414062 60.933594 L 33.644531 52.144531 C 30.304688 50.523438 32.71875 45.285156 36.109375 46.867188 L 42.5625 50.265625 C 43.558594 50.789062 44.667969 49.679688 44.144531 48.683594 L 32.9375 27.289062 C 31.097656 23.828125 36.027344 20.632812 37.90625 24.222656 L 45.828125 39.347656 L 47.898438 43.296875 C 48.582031 44.601562 50.675781 43.546875 49.972656 42.207031 L 47.960938 38.363281 C 47.144531 35.644531 50.5 33.453125 52.660156 35.347656 L 54.902344 39.625 C 55.585938 40.929688 57.679688 39.878906 56.980469 38.539062 L 54.699219 34.1875 C 54.484375 31.6875 57.546875 30.078125 59.484375 31.726562 L 61.738281 36.035156 C 62.421875 37.339844 64.515625 36.285156 63.816406 34.949219 L 61.558594 30.640625 C 61.25 27.570312 65.570312 26.210938 67.03125 29 L 70.84375 36.28125 C 73.035156 40.460938 74.703125 44.910156 75.800781 49.503906 C 76.066406 50.691406 76.488281 51.847656 77.054688 52.929688 C 78.402344 55.507812 77.40625 58.703125 74.828125 60.054688 C 73.484375 60.757812 74.574219 62.832031 75.914062 62.128906 C 79.636719 60.179688 81.078125 55.566406 79.128906 51.84375 Z M 43.84375 75.421875 C 43.84375 76.652344 42.839844 77.65625 41.609375 77.65625 L 4.578125 77.65625 C 3.347656 77.65625 2.34375 76.652344 2.34375 75.421875 L 2.34375 66.828125 L 43.84375 66.828125 Z M 30.132812 47.25 C 29.335938 48.921875 29.492188 50.925781 30.527344 52.457031 C 28.589844 54.484375 25.929688 55.636719 23.09375 55.636719 C 17.417969 55.636719 12.800781 51.015625 12.800781 45.339844 C 12.800781 39.664062 17.417969 35.042969 23.09375 35.042969 C 28.480469 35.042969 32.910156 39.203125 33.351562 44.476562 C 31.964844 44.902344 30.757812 45.9375 30.132812 47.25 Z M 38.640625 21.496094 C 38.128906 21.078125 37.539062 20.761719 36.894531 20.558594 C 33.140625 19.386719 29.359375 22.828125 30.1875 26.671875 L 7.9375 26.671875 C 7.722656 26.671875 7.546875 26.496094 7.546875 26.28125 L 7.546875 17.90625 C 7.546875 17.691406 7.722656 17.515625 7.9375 17.515625 L 38.25 17.515625 C 38.464844 17.515625 38.640625 17.691406 38.640625 17.90625 Z M 43.84375 30.507812 L 40.984375 25.050781 L 40.984375 17.90625 C 40.984375 16.398438 39.757812 15.171875 38.25 15.171875 L 7.9375 15.171875 C 6.429688 15.171875 5.203125 16.398438 5.203125 17.90625 L 5.203125 26.28125 C 5.203125 27.789062 6.429688 29.015625 7.9375 29.015625 L 31.195312 29.015625 L 40.324219 46.4375 L 37.179688 44.78125 C 37.164062 44.773438 37.152344 44.765625 37.136719 44.761719 C 36.671875 44.539062 36.183594 44.390625 35.6875 44.3125 C 35.164062 37.820312 29.71875 32.699219 23.09375 32.699219 C 16.125 32.699219 10.457031 38.371094 10.457031 45.339844 C 10.457031 52.308594 16.125 57.980469 23.09375 57.980469 C 26.589844 57.980469 29.867188 56.5625 32.25 54.054688 C 35.964844 56.199219 39.996094 57.902344 43.84375 59.804688 L 43.84375 64.484375 L 2.34375 64.484375 L 2.34375 10.347656 L 43.84375 10.347656 Z M 43.84375 30.507812 "/>
</g>
</svg>
