<?xml version="1.0" encoding="UTF-8"?>
<svg xmlns="http://www.w3.org/2000/svg" xmlns:xlink="http://www.w3.org/1999/xlink" width="80px" height="80px" viewBox="0 0 80 80" version="1.1">
<g id="surface1">
<path style=" stroke:none;fill-rule:nonzero;fill:rgb(0%,0%,0%);fill-opacity:1;" d="M 25.882812 42.351562 L 54.117188 42.351562 L 54.117188 56.46875 L 25.882812 56.46875 Z M 25.882812 42.351562 "/>
<path style=" stroke:none;fill-rule:nonzero;fill:rgb(0%,0%,0%);fill-opacity:1;" d="M 0 42.351562 L 21.175781 42.351562 L 21.175781 56.46875 L 0 56.46875 Z M 0 42.351562 "/>
<path style=" stroke:none;fill-rule:nonzero;fill:rgb(0%,0%,0%);fill-opacity:1;" d="M 58.824219 42.351562 L 80 42.351562 L 80 56.46875 L 58.824219 56.46875 Z M 58.824219 42.351562 "/>
<path style=" stroke:none;fill-rule:nonzero;fill:rgb(0%,0%,0%);fill-opacity:1;" d="M 42.351562 61.175781 L 80 61.175781 L 80 75.292969 L 42.351562 75.292969 Z M 42.351562 61.175781 "/>
<path style=" stroke:none;fill-rule:nonzero;fill:rgb(0%,0%,0%);fill-opacity:1;" d="M 0 61.175781 L 37.648438 61.175781 L 37.648438 75.292969 L 0 75.292969 Z M 0 61.175781 "/>
<path style=" stroke:none;fill-rule:nonzero;fill:rgb(0%,0%,0%);fill-opacity:1;" d="M 42.351562 23.53125 L 80 23.53125 L 80 37.648438 L 42.351562 37.648438 Z M 42.351562 23.53125 "/>
<path style=" stroke:none;fill-rule:nonzero;fill:rgb(0%,0%,0%);fill-opacity:1;" d="M 9.410156 23.53125 L 37.648438 23.53125 L 37.648438 37.648438 L 9.410156 37.648438 Z M 9.410156 23.53125 "/>
<path style=" stroke:none;fill-rule:nonzero;fill:rgb(0%,0%,0%);fill-opacity:1;" d="M 54.117188 4.707031 L 80 4.707031 L 80 18.824219 L 54.117188 18.824219 Z M 54.117188 4.707031 "/>
</g>
</svg>
