<?xml version="1.0" encoding="UTF-8"?>
<svg xmlns="http://www.w3.org/2000/svg" xmlns:xlink="http://www.w3.org/1999/xlink" width="80px" height="80px" viewBox="0 0 80 80" version="1.1">
<g id="surface1">
<path style=" stroke:none;fill-rule:nonzero;fill:rgb(0%,0%,0%);fill-opacity:1;" d="M 76.25 2.5 L 28.75 2.5 C 28.0625 2.5 27.5 3.0625 27.5 3.75 L 27.5 26.25 L 30 26.25 L 30 5 L 57.5 5 L 57.5 16.25 C 57.5 16.9375 58.0625 17.5 58.75 17.5 L 70 17.5 L 70 60 L 42.5 60 L 42.5 62.5 L 76.25 62.5 C 76.9375 62.5 77.5 61.9375 77.5 61.25 L 77.5 55 L 75 55 L 75 60 L 72.5 60 C 72.5 60 72.5 16.21875 72.5 16.203125 C 72.484375 15.890625 72.359375 15.59375 72.140625 15.359375 L 61.765625 5 L 75 5 L 75 52.5 L 77.5 52.5 L 77.5 3.75 C 77.5 3.0625 76.9375 2.5 76.25 2.5 Z M 68.234375 15 L 60 15 L 60 6.765625 Z M 55 12.5 L 47.5 12.5 L 47.5 10 L 55 10 Z M 47.5 15 L 55 15 L 55 17.5 L 47.5 17.5 Z M 47.5 20 L 66.25 20 L 66.25 22.5 L 47.5 22.5 Z M 47.5 25 L 66.25 25 L 66.25 27.5 L 47.5 27.5 Z M 42.5 30 L 66.25 30 L 66.25 32.5 L 57.5 32.5 L 57.5 35 L 66.25 35 L 66.25 37.5 L 57.5 37.5 L 57.5 40 L 66.25 40 L 66.25 42.5 L 57.5 42.5 L 57.5 45 L 66.25 45 L 66.25 47.5 L 57.5 47.5 L 57.5 50 L 66.25 50 L 66.25 52.5 L 42.5 52.5 L 42.5 50 L 55 50 L 55 47.5 L 42.5 47.5 L 42.5 45 L 55 45 L 55 42.5 L 42.5 42.5 L 42.5 40 L 55 40 L 55 37.5 L 42.5 37.5 L 42.5 35 L 55 35 L 55 32.5 L 42.5 32.5 Z M 42.5 55 L 66.25 55 L 66.25 57.5 L 42.5 57.5 Z M 32.859375 21.75 L 42.859375 11.75 L 44.625 13.515625 L 34.625 23.515625 Z M 35.421875 10.28125 C 33.8125 10.28125 32.5 11.59375 32.5 13.203125 C 32.5 14.8125 33.8125 16.125 35.421875 16.125 C 37.03125 16.125 38.34375 14.8125 38.34375 13.203125 C 38.328125 11.578125 37.03125 10.28125 35.421875 10.28125 Z M 35.421875 13.609375 C 35.1875 13.609375 35 13.421875 35 13.1875 C 35 12.953125 35.1875 12.765625 35.421875 12.765625 C 35.65625 12.765625 35.84375 12.953125 35.84375 13.1875 C 35.828125 13.421875 35.640625 13.609375 35.421875 13.609375 Z M 45 22.078125 C 45 20.46875 43.6875 19.15625 42.078125 19.15625 C 40.46875 19.15625 39.15625 20.46875 39.15625 22.078125 C 39.15625 23.6875 40.46875 25 42.078125 25 C 43.6875 25 45 23.6875 45 22.078125 Z M 42.078125 22.5 C 41.84375 22.5 41.65625 22.3125 41.65625 22.078125 C 41.65625 21.84375 41.84375 21.65625 42.078125 21.65625 C 42.3125 21.65625 42.5 21.84375 42.5 22.078125 C 42.5 22.3125 42.3125 22.5 42.078125 22.5 Z M 35 28.75 L 25 28.75 L 25 18.75 C 25 18.0625 24.4375 17.5 23.75 17.5 C 23.5625 17.5 23.359375 17.546875 23.1875 17.625 L 21.25 18.59375 L 19.3125 17.625 C 18.953125 17.453125 18.546875 17.453125 18.1875 17.625 L 16.25 18.59375 L 14.3125 17.625 C 13.953125 17.453125 13.546875 17.453125 13.1875 17.625 L 11.25 18.609375 L 9.3125 17.640625 C 8.6875 17.328125 7.9375 17.578125 7.640625 18.203125 C 7.546875 18.375 7.515625 18.5625 7.515625 18.765625 L 7.515625 28.765625 C 4.75 28.765625 2.515625 31 2.515625 33.765625 L 2.515625 37.515625 L 5.015625 37.515625 L 5.015625 33.765625 C 5.015625 32.390625 6.140625 31.265625 7.515625 31.265625 L 7.515625 35.015625 C 7.515625 35.703125 8.078125 36.265625 8.765625 36.265625 L 23.765625 36.265625 C 24.453125 36.265625 25.015625 35.703125 25.015625 35.015625 L 25.015625 31.265625 L 35.015625 31.265625 C 36.390625 31.265625 37.515625 32.390625 37.515625 33.765625 L 37.515625 72.515625 C 37.515625 73.890625 36.390625 75.015625 35.015625 75.015625 L 7.5 75.015625 C 6.125 75.015625 5 73.890625 5 72.515625 L 5 40 L 2.5 40 L 2.5 72.5 C 2.5 75.265625 4.734375 77.5 7.5 77.5 L 35 77.5 C 37.765625 77.5 40 75.265625 40 72.5 L 40 33.75 C 40 30.984375 37.765625 28.75 35 28.75 Z M 22.5 33.75 L 10 33.75 L 10 20.765625 L 10.6875 21.109375 C 11.046875 21.28125 11.453125 21.28125 11.8125 21.109375 L 13.75 20.140625 L 15.6875 21.109375 C 16.046875 21.28125 16.453125 21.28125 16.8125 21.109375 L 18.75 20.140625 L 20.6875 21.109375 C 21.046875 21.28125 21.453125 21.28125 21.8125 21.109375 L 22.5 20.765625 Z M 35 40 C 35 39.3125 34.4375 38.75 33.75 38.75 L 8.75 38.75 C 8.0625 38.75 7.5 39.3125 7.5 40 L 7.5 51.25 C 7.5 51.9375 8.0625 52.5 8.75 52.5 L 33.75 52.5 C 34.4375 52.5 35 51.9375 35 51.25 Z M 32.5 50 L 10 50 L 10 41.25 L 32.5 41.25 Z M 7.5 61.25 C 7.5 61.9375 8.0625 62.5 8.75 62.5 L 13.75 62.5 C 14.4375 62.5 15 61.9375 15 61.25 L 15 56.25 C 15 55.5625 14.4375 55 13.75 55 L 8.75 55 C 8.0625 55 7.5 55.5625 7.5 56.25 Z M 10 57.5 L 12.5 57.5 L 12.5 60 L 10 60 Z M 25 56.25 C 25 55.5625 24.4375 55 23.75 55 L 18.75 55 C 18.0625 55 17.5 55.5625 17.5 56.25 L 17.5 61.25 C 17.5 61.9375 18.0625 62.5 18.75 62.5 L 23.75 62.5 C 24.4375 62.5 25 61.9375 25 61.25 Z M 22.5 60 L 20 60 L 20 57.5 L 22.5 57.5 Z M 35 56.25 C 35 55.5625 34.4375 55 33.75 55 L 28.75 55 C 28.0625 55 27.5 55.5625 27.5 56.25 L 27.5 61.25 C 27.5 61.9375 28.0625 62.5 28.75 62.5 L 33.75 62.5 C 34.4375 62.5 35 61.9375 35 61.25 Z M 32.5 60 L 30 60 L 30 57.5 L 32.5 57.5 Z M 7.5 71.25 C 7.5 71.9375 8.0625 72.5 8.75 72.5 L 13.75 72.5 C 14.4375 72.5 15 71.9375 15 71.25 L 15 66.25 C 15 65.5625 14.4375 65 13.75 65 L 8.75 65 C 8.0625 65 7.5 65.5625 7.5 66.25 Z M 10 67.5 L 12.5 67.5 L 12.5 70 L 10 70 Z M 23.75 65 L 18.75 65 C 18.0625 65 17.5 65.5625 17.5 66.25 L 17.5 71.25 C 17.5 71.9375 18.0625 72.5 18.75 72.5 L 23.75 72.5 C 24.4375 72.5 25 71.9375 25 71.25 L 25 66.25 C 25 65.5625 24.4375 65 23.75 65 Z M 22.5 70 L 20 70 L 20 67.5 L 22.5 67.5 Z M 33.75 65 L 28.75 65 C 28.0625 65 27.5 65.5625 27.5 66.25 L 27.5 71.25 C 27.5 71.9375 28.0625 72.5 28.75 72.5 L 33.75 72.5 C 34.4375 72.5 35 71.9375 35 71.25 L 35 66.25 C 35 65.5625 34.4375 65 33.75 65 Z M 32.5 70 L 30 70 L 30 67.5 L 32.5 67.5 Z M 30 47.5 L 27.5 47.5 L 27.5 45 L 30 45 Z M 25 47.5 L 22.5 47.5 L 22.5 45 L 25 45 Z M 20 47.5 L 17.5 47.5 L 17.5 45 L 20 45 Z M 12.5 28.75 L 20 28.75 L 20 31.25 L 12.5 31.25 Z M 12.5 23.75 L 20 23.75 L 20 26.25 L 12.5 26.25 Z M 73.75 70 L 72.5 70 L 72.5 68.75 C 72.5 66.6875 70.8125 65 68.75 65 L 60 65 L 60 67.5 L 68.75 67.5 C 69.4375 67.5 70 68.0625 70 68.75 L 70 70 L 48.75 70 C 48.5625 70 48.359375 70.046875 48.1875 70.125 L 43.1875 72.625 C 42.5625 72.9375 42.3125 73.6875 42.625 74.296875 C 42.75 74.53125 42.9375 74.734375 43.1875 74.859375 L 48.1875 77.359375 C 48.359375 77.453125 48.546875 77.484375 48.75 77.484375 L 73.75 77.484375 C 75.828125 77.484375 77.5 75.8125 77.5 73.734375 C 77.5 71.65625 75.828125 70 73.75 70 Z M 47.5 74.234375 L 46.546875 73.75 L 47.5 73.265625 Z M 70 75 L 50 75 L 50 72.5 L 70 72.5 Z M 73.75 75 L 72.5 75 L 72.5 72.5 L 73.75 72.5 C 74.4375 72.5 75 73.0625 75 73.75 C 75 74.4375 74.4375 75 73.75 75 Z M 2.5 18.75 C 2.5 14.609375 5.859375 11.25 10 11.25 L 10 13.75 C 7.234375 13.75 5 15.984375 5 18.75 Z M 2.5 18.75 "/>
</g>
</svg>
