<?xml version="1.0" encoding="UTF-8"?>
<svg xmlns="http://www.w3.org/2000/svg" xmlns:xlink="http://www.w3.org/1999/xlink" width="80px" height="80px" viewBox="0 0 80 80" version="1.1">
<g id="surface1">
<path style=" stroke:none;fill-rule:nonzero;fill:rgb(0%,0%,0%);fill-opacity:1;" d="M 29.230469 48.234375 C 29.210938 48.132812 29.179688 48.035156 29.140625 47.941406 C 29.101562 47.847656 29.054688 47.757812 28.996094 47.671875 C 28.9375 47.585938 28.875 47.507812 28.800781 47.433594 C 28.4375 47.070312 27.898438 46.90625 27.390625 47.007812 C 27.292969 47.027344 27.195312 47.058594 27.101562 47.097656 C 27.003906 47.136719 26.914062 47.183594 26.828125 47.242188 C 26.742188 47.296875 26.664062 47.363281 26.59375 47.433594 C 26.519531 47.507812 26.453125 47.585938 26.398438 47.671875 C 26.34375 47.757812 26.292969 47.847656 26.253906 47.941406 C 26.214844 48.035156 26.1875 48.132812 26.164062 48.234375 C 26.144531 48.335938 26.132812 48.4375 26.132812 48.539062 C 26.132812 48.640625 26.144531 48.742188 26.164062 48.84375 C 26.1875 48.945312 26.214844 49.042969 26.253906 49.136719 C 26.292969 49.230469 26.34375 49.320312 26.398438 49.40625 C 26.453125 49.492188 26.519531 49.570312 26.59375 49.644531 C 26.664062 49.714844 26.742188 49.78125 26.828125 49.839844 C 26.914062 49.894531 27.003906 49.945312 27.101562 49.984375 C 27.195312 50.023438 27.292969 50.050781 27.390625 50.070312 C 27.492188 50.09375 27.59375 50.101562 27.695312 50.101562 C 28.109375 50.101562 28.511719 49.933594 28.800781 49.644531 C 28.875 49.570312 28.9375 49.492188 28.996094 49.40625 C 29.054688 49.320312 29.101562 49.230469 29.140625 49.136719 C 29.179688 49.042969 29.210938 48.945312 29.230469 48.84375 C 29.25 48.742188 29.257812 48.640625 29.257812 48.539062 C 29.257812 48.4375 29.25 48.335938 29.230469 48.234375 Z M 29.230469 48.234375 "/>
<path style=" stroke:none;fill-rule:nonzero;fill:rgb(0%,0%,0%);fill-opacity:1;" d="M 78.4375 75.214844 L 75.199219 75.214844 L 75.199219 51.652344 C 75.199219 49.074219 73.101562 46.976562 70.523438 46.976562 L 67.855469 46.976562 L 67.855469 31.5625 C 67.855469 28.984375 65.757812 26.886719 63.179688 26.886719 L 58.382812 26.886719 L 58.382812 22.351562 C 59.453125 22.078125 60.46875 21.527344 61.304688 20.691406 C 63.230469 18.765625 63.710938 15.835938 62.507812 13.394531 L 58.21875 4.710938 C 57.957031 4.175781 57.414062 3.839844 56.820312 3.839844 C 56.222656 3.839844 55.679688 4.175781 55.417969 4.710938 L 51.128906 13.398438 C 49.925781 15.835938 50.410156 18.765625 52.332031 20.691406 C 53.171875 21.527344 54.183594 22.082031 55.257812 22.351562 L 55.257812 26.886719 L 41.5625 26.886719 L 41.5625 20.171875 C 42.632812 19.898438 43.648438 19.347656 44.484375 18.511719 C 46.410156 16.585938 46.894531 13.65625 45.6875 11.214844 L 41.402344 2.53125 C 41.136719 1.996094 40.59375 1.660156 40 1.660156 C 39.40625 1.660156 38.863281 1.996094 38.597656 2.53125 L 34.3125 11.214844 C 33.105469 13.65625 33.589844 16.585938 35.515625 18.511719 C 36.351562 19.347656 37.367188 19.898438 38.4375 20.171875 L 38.4375 26.886719 L 24.742188 26.886719 L 24.742188 22.355469 C 25.839844 22.078125 26.847656 21.511719 27.667969 20.691406 C 29.589844 18.765625 30.074219 15.835938 28.871094 13.398438 L 24.582031 4.710938 C 24.320312 4.175781 23.777344 3.839844 23.179688 3.839844 C 22.585938 3.839844 22.042969 4.175781 21.78125 4.710938 L 17.492188 13.398438 C 16.289062 15.835938 16.769531 18.765625 18.695312 20.691406 C 19.515625 21.511719 20.519531 22.078125 21.617188 22.355469 L 21.617188 26.886719 L 16.820312 26.886719 C 14.242188 26.886719 12.144531 28.984375 12.144531 31.566406 L 12.144531 46.976562 L 9.476562 46.976562 C 6.898438 46.976562 4.800781 49.074219 4.800781 51.65625 L 4.800781 75.214844 L 1.5625 75.214844 C 0.699219 75.214844 0 75.917969 0 76.777344 C 0 77.640625 0.699219 78.339844 1.5625 78.339844 L 78.4375 78.339844 C 79.300781 78.339844 80 77.640625 80 76.777344 C 80 75.917969 79.300781 75.214844 78.4375 75.214844 Z M 54.542969 18.480469 C 53.566406 17.503906 53.320312 16.015625 53.933594 14.78125 L 56.820312 8.929688 L 59.707031 14.78125 C 60.316406 16.015625 60.070312 17.503906 59.097656 18.480469 C 58.878906 18.699219 58.636719 18.875 58.382812 19.015625 C 57.414062 19.554688 56.226562 19.554688 55.257812 19.015625 C 55 18.875 54.757812 18.699219 54.542969 18.480469 Z M 37.722656 16.300781 C 36.746094 15.324219 36.503906 13.835938 37.113281 12.597656 L 40 6.75 L 42.886719 12.597656 C 43.496094 13.835938 43.253906 15.324219 42.277344 16.300781 C 42.058594 16.515625 41.816406 16.695312 41.5625 16.835938 C 40.59375 17.375 39.40625 17.375 38.4375 16.835938 C 38.183594 16.695312 37.941406 16.515625 37.722656 16.300781 Z M 20.90625 18.480469 C 19.929688 17.503906 19.683594 16.015625 20.292969 14.78125 L 23.179688 8.929688 L 26.066406 14.78125 C 26.679688 16.015625 26.433594 17.503906 25.457031 18.480469 C 25.242188 18.699219 25 18.875 24.742188 19.015625 C 23.773438 19.554688 22.585938 19.554688 21.617188 19.015625 C 21.363281 18.875 21.121094 18.699219 20.90625 18.480469 Z M 16.820312 30.011719 L 63.179688 30.011719 C 64.035156 30.011719 64.730469 30.707031 64.730469 31.5625 L 64.730469 36.46875 C 64.042969 36.6875 63.300781 36.785156 62.425781 36.785156 C 60.09375 36.785156 59.03125 36.078125 57.683594 35.179688 C 56.1875 34.179688 54.488281 33.046875 51.210938 33.046875 C 47.933594 33.046875 46.238281 34.179688 44.738281 35.179688 C 43.390625 36.078125 42.328125 36.785156 40 36.785156 C 37.667969 36.785156 36.605469 36.078125 35.257812 35.179688 C 33.761719 34.179688 32.0625 33.046875 28.785156 33.046875 C 25.511719 33.046875 23.8125 34.179688 22.3125 35.179688 C 20.96875 36.078125 19.902344 36.785156 17.574219 36.785156 C 16.699219 36.785156 15.957031 36.6875 15.269531 36.46875 L 15.269531 31.5625 C 15.269531 30.707031 15.964844 30.011719 16.820312 30.011719 Z M 72.074219 75.214844 L 7.925781 75.214844 L 7.925781 60.199219 C 9.253906 60.445312 10.097656 61.007812 11.101562 61.675781 C 12.597656 62.675781 14.296875 63.804688 17.574219 63.804688 C 20.851562 63.804688 22.546875 62.675781 24.046875 61.675781 C 25.394531 60.777344 26.457031 60.070312 28.785156 60.070312 C 31.117188 60.070312 32.179688 60.777344 33.527344 61.675781 C 35.023438 62.675781 36.722656 63.804688 40 63.804688 C 43.273438 63.804688 44.972656 62.675781 46.472656 61.675781 C 47.816406 60.777344 48.882812 60.070312 51.210938 60.070312 C 53.542969 60.070312 54.605469 60.777344 55.953125 61.675781 C 57.449219 62.675781 59.148438 63.804688 62.425781 63.804688 C 65.703125 63.804688 67.398438 62.675781 68.898438 61.675781 C 69.902344 61.007812 70.746094 60.445312 72.074219 60.199219 Z M 72.074219 57.039062 C 69.78125 57.332031 68.40625 58.25 67.164062 59.074219 C 65.820312 59.972656 64.753906 60.679688 62.425781 60.679688 C 60.09375 60.679688 59.03125 59.972656 57.683594 59.074219 C 56.1875 58.074219 54.488281 56.945312 51.210938 56.945312 C 47.933594 56.945312 46.238281 58.074219 44.738281 59.074219 C 43.390625 59.972656 42.328125 60.679688 40 60.679688 C 37.667969 60.679688 36.605469 59.972656 35.257812 59.074219 C 33.761719 58.074219 32.0625 56.945312 28.785156 56.945312 C 25.511719 56.945312 23.8125 58.074219 22.3125 59.074219 C 20.96875 59.972656 19.902344 60.679688 17.574219 60.679688 C 15.242188 60.679688 14.179688 59.972656 12.835938 59.074219 C 11.59375 58.25 10.21875 57.332031 7.925781 57.039062 L 7.925781 51.652344 C 7.925781 50.796875 8.621094 50.101562 9.476562 50.101562 L 21.46875 50.101562 C 22.332031 50.101562 23.03125 49.402344 23.03125 48.539062 C 23.03125 47.675781 22.332031 46.976562 21.46875 46.976562 L 15.269531 46.976562 L 15.269531 39.691406 C 15.988281 39.835938 16.75 39.910156 17.574219 39.910156 C 20.851562 39.910156 22.546875 38.777344 24.046875 37.78125 C 25.394531 36.882812 26.457031 36.171875 28.785156 36.171875 C 31.117188 36.171875 32.179688 36.882812 33.527344 37.78125 C 35.023438 38.777344 36.722656 39.910156 40 39.910156 C 43.273438 39.910156 44.972656 38.777344 46.472656 37.78125 C 47.816406 36.882812 48.882812 36.171875 51.210938 36.171875 C 53.542969 36.171875 54.605469 36.882812 55.953125 37.78125 C 57.449219 38.777344 59.148438 39.910156 62.425781 39.910156 C 63.25 39.910156 64.011719 39.835938 64.730469 39.691406 L 64.730469 46.976562 L 33.925781 46.976562 C 33.0625 46.976562 32.363281 47.675781 32.363281 48.539062 C 32.363281 49.402344 33.0625 50.101562 33.925781 50.101562 L 70.523438 50.101562 C 71.378906 50.101562 72.074219 50.796875 72.074219 51.652344 Z M 72.074219 57.039062 "/>
<path style=" stroke:none;fill-rule:nonzero;fill:rgb(0%,0%,0%);fill-opacity:1;" d="M 15.238281 71.335938 C 15.21875 71.234375 15.1875 71.136719 15.148438 71.042969 C 15.109375 70.949219 15.0625 70.859375 15.007812 70.773438 C 14.949219 70.6875 14.882812 70.609375 14.8125 70.535156 C 14.738281 70.460938 14.660156 70.398438 14.574219 70.339844 C 14.488281 70.285156 14.398438 70.234375 14.304688 70.195312 C 14.210938 70.15625 14.113281 70.128906 14.011719 70.109375 C 13.503906 70.007812 12.964844 70.171875 12.601562 70.535156 C 12.53125 70.609375 12.464844 70.6875 12.40625 70.773438 C 12.351562 70.859375 12.304688 70.949219 12.265625 71.042969 C 12.226562 71.136719 12.195312 71.234375 12.175781 71.335938 C 12.15625 71.4375 12.144531 71.539062 12.144531 71.640625 C 12.144531 71.742188 12.15625 71.84375 12.175781 71.945312 C 12.195312 72.046875 12.226562 72.144531 12.265625 72.238281 C 12.304688 72.332031 12.351562 72.421875 12.40625 72.507812 C 12.464844 72.59375 12.53125 72.671875 12.601562 72.746094 C 12.890625 73.035156 13.296875 73.203125 13.707031 73.203125 C 13.808594 73.203125 13.910156 73.191406 14.011719 73.171875 C 14.113281 73.152344 14.210938 73.121094 14.304688 73.082031 C 14.398438 73.042969 14.488281 72.996094 14.574219 72.9375 C 14.660156 72.882812 14.738281 72.816406 14.8125 72.746094 C 14.882812 72.671875 14.949219 72.59375 15.007812 72.507812 C 15.0625 72.421875 15.109375 72.332031 15.148438 72.238281 C 15.1875 72.144531 15.21875 72.046875 15.238281 71.945312 C 15.257812 71.84375 15.269531 71.742188 15.269531 71.640625 C 15.269531 71.539062 15.257812 71.4375 15.238281 71.335938 Z M 15.238281 71.335938 "/>
<path style=" stroke:none;fill-rule:nonzero;fill:rgb(0%,0%,0%);fill-opacity:1;" d="M 32.03125 66.664062 C 32.011719 66.5625 31.984375 66.464844 31.945312 66.371094 C 31.90625 66.277344 31.855469 66.1875 31.800781 66.101562 C 31.742188 66.015625 31.675781 65.933594 31.605469 65.863281 C 31.53125 65.789062 31.453125 65.726562 31.367188 65.667969 C 31.28125 65.613281 31.191406 65.5625 31.097656 65.523438 C 31.003906 65.484375 30.90625 65.457031 30.804688 65.4375 C 30.605469 65.394531 30.398438 65.394531 30.195312 65.4375 C 30.09375 65.457031 29.996094 65.484375 29.902344 65.523438 C 29.808594 65.5625 29.71875 65.613281 29.632812 65.667969 C 29.546875 65.726562 29.46875 65.789062 29.394531 65.863281 C 29.324219 65.933594 29.257812 66.015625 29.203125 66.101562 C 29.144531 66.1875 29.097656 66.277344 29.058594 66.371094 C 29.019531 66.464844 28.988281 66.5625 28.96875 66.664062 C 28.949219 66.765625 28.9375 66.867188 28.9375 66.96875 C 28.9375 67.070312 28.949219 67.171875 28.96875 67.273438 C 28.988281 67.375 29.019531 67.472656 29.058594 67.566406 C 29.097656 67.660156 29.144531 67.75 29.203125 67.835938 C 29.257812 67.921875 29.324219 68 29.394531 68.074219 C 29.46875 68.144531 29.546875 68.210938 29.632812 68.265625 C 29.71875 68.324219 29.808594 68.371094 29.902344 68.410156 C 29.996094 68.449219 30.09375 68.480469 30.195312 68.5 C 30.296875 68.519531 30.398438 68.53125 30.5 68.53125 C 30.601562 68.53125 30.703125 68.519531 30.804688 68.5 C 30.90625 68.480469 31.003906 68.449219 31.097656 68.410156 C 31.191406 68.371094 31.28125 68.324219 31.367188 68.265625 C 31.453125 68.210938 31.53125 68.144531 31.605469 68.074219 C 31.675781 68 31.742188 67.921875 31.800781 67.835938 C 31.855469 67.75 31.90625 67.660156 31.945312 67.566406 C 31.984375 67.472656 32.011719 67.375 32.03125 67.273438 C 32.054688 67.171875 32.0625 67.070312 32.0625 66.96875 C 32.0625 66.867188 32.054688 66.765625 32.03125 66.664062 Z M 32.03125 66.664062 "/>
<path style=" stroke:none;fill-rule:nonzero;fill:rgb(0%,0%,0%);fill-opacity:1;" d="M 50.097656 71.335938 C 50.078125 71.234375 50.046875 71.136719 50.007812 71.042969 C 49.96875 70.949219 49.921875 70.859375 49.863281 70.773438 C 49.808594 70.6875 49.742188 70.609375 49.671875 70.535156 C 49.597656 70.460938 49.519531 70.398438 49.433594 70.339844 C 49.347656 70.285156 49.257812 70.234375 49.164062 70.195312 C 49.070312 70.15625 48.96875 70.128906 48.871094 70.109375 C 48.667969 70.066406 48.460938 70.066406 48.257812 70.109375 C 48.160156 70.128906 48.0625 70.15625 47.96875 70.195312 C 47.875 70.234375 47.78125 70.285156 47.699219 70.339844 C 47.613281 70.398438 47.53125 70.460938 47.460938 70.535156 C 47.390625 70.609375 47.324219 70.6875 47.265625 70.773438 C 47.210938 70.859375 47.160156 70.949219 47.121094 71.042969 C 47.082031 71.136719 47.054688 71.234375 47.03125 71.335938 C 47.011719 71.4375 47.003906 71.539062 47.003906 71.640625 C 47.003906 71.742188 47.011719 71.84375 47.03125 71.945312 C 47.054688 72.046875 47.082031 72.144531 47.121094 72.238281 C 47.160156 72.332031 47.210938 72.421875 47.265625 72.507812 C 47.324219 72.59375 47.390625 72.671875 47.460938 72.746094 C 47.53125 72.816406 47.613281 72.882812 47.699219 72.9375 C 47.78125 72.996094 47.875 73.042969 47.96875 73.082031 C 48.0625 73.121094 48.160156 73.152344 48.257812 73.171875 C 48.359375 73.191406 48.464844 73.203125 48.566406 73.203125 C 48.976562 73.203125 49.378906 73.035156 49.671875 72.746094 C 49.742188 72.671875 49.808594 72.59375 49.863281 72.507812 C 49.921875 72.421875 49.96875 72.332031 50.007812 72.238281 C 50.046875 72.144531 50.078125 72.046875 50.097656 71.945312 C 50.117188 71.84375 50.128906 71.742188 50.128906 71.640625 C 50.128906 71.539062 50.117188 71.4375 50.097656 71.335938 Z M 50.097656 71.335938 "/>
<path style=" stroke:none;fill-rule:nonzero;fill:rgb(0%,0%,0%);fill-opacity:1;" d="M 67.824219 67.597656 C 67.804688 67.496094 67.773438 67.398438 67.734375 67.304688 C 67.695312 67.210938 67.648438 67.117188 67.59375 67.035156 C 67.535156 66.949219 67.46875 66.867188 67.398438 66.796875 C 67.105469 66.507812 66.703125 66.339844 66.292969 66.339844 C 65.882812 66.339844 65.480469 66.507812 65.1875 66.796875 C 65.117188 66.867188 65.050781 66.949219 64.992188 67.035156 C 64.9375 67.117188 64.890625 67.210938 64.851562 67.304688 C 64.8125 67.398438 64.78125 67.496094 64.761719 67.597656 C 64.742188 67.695312 64.730469 67.800781 64.730469 67.902344 C 64.730469 68.003906 64.742188 68.105469 64.761719 68.207031 C 64.78125 68.308594 64.8125 68.40625 64.851562 68.5 C 64.890625 68.59375 64.9375 68.683594 64.992188 68.769531 C 65.050781 68.855469 65.117188 68.933594 65.1875 69.007812 C 65.261719 69.078125 65.339844 69.144531 65.425781 69.203125 C 65.511719 69.257812 65.601562 69.304688 65.695312 69.34375 C 65.789062 69.382812 65.886719 69.414062 65.988281 69.433594 C 66.089844 69.453125 66.191406 69.464844 66.292969 69.464844 C 66.703125 69.464844 67.109375 69.296875 67.398438 69.007812 C 67.46875 68.933594 67.535156 68.855469 67.59375 68.769531 C 67.648438 68.683594 67.695312 68.59375 67.734375 68.5 C 67.773438 68.40625 67.804688 68.308594 67.824219 68.207031 C 67.84375 68.105469 67.855469 68.003906 67.855469 67.902344 C 67.855469 67.800781 67.84375 67.695312 67.824219 67.597656 Z M 67.824219 67.597656 "/>
<path style=" stroke:none;fill-rule:nonzero;fill:rgb(0%,0%,0%);fill-opacity:1;" d="M 52.277344 42.054688 C 52.257812 41.957031 52.226562 41.859375 52.1875 41.765625 C 52.148438 41.671875 52.101562 41.578125 52.046875 41.496094 C 51.988281 41.410156 51.921875 41.328125 51.851562 41.257812 C 51.777344 41.183594 51.699219 41.121094 51.613281 41.0625 C 51.527344 41.007812 51.4375 40.957031 51.34375 40.917969 C 51.25 40.878906 51.148438 40.851562 51.050781 40.828125 C 50.851562 40.789062 50.640625 40.789062 50.441406 40.828125 C 50.339844 40.851562 50.242188 40.878906 50.148438 40.917969 C 50.054688 40.957031 49.960938 41.007812 49.878906 41.0625 C 49.792969 41.121094 49.710938 41.183594 49.640625 41.257812 C 49.570312 41.328125 49.503906 41.410156 49.445312 41.496094 C 49.390625 41.578125 49.34375 41.671875 49.304688 41.765625 C 49.265625 41.859375 49.234375 41.957031 49.214844 42.054688 C 49.195312 42.15625 49.183594 42.261719 49.183594 42.363281 C 49.183594 42.464844 49.195312 42.566406 49.214844 42.667969 C 49.234375 42.765625 49.265625 42.867188 49.304688 42.960938 C 49.34375 43.054688 49.390625 43.144531 49.445312 43.230469 C 49.503906 43.316406 49.570312 43.394531 49.640625 43.46875 C 49.710938 43.539062 49.792969 43.605469 49.878906 43.660156 C 49.960938 43.71875 50.054688 43.765625 50.148438 43.804688 C 50.242188 43.84375 50.339844 43.875 50.441406 43.894531 C 50.539062 43.914062 50.644531 43.925781 50.746094 43.925781 C 50.847656 43.925781 50.949219 43.914062 51.050781 43.894531 C 51.148438 43.875 51.25 43.84375 51.34375 43.804688 C 51.4375 43.765625 51.527344 43.71875 51.613281 43.660156 C 51.699219 43.605469 51.777344 43.539062 51.851562 43.46875 C 51.921875 43.394531 51.988281 43.316406 52.046875 43.230469 C 52.101562 43.144531 52.148438 43.054688 52.1875 42.960938 C 52.226562 42.867188 52.257812 42.765625 52.277344 42.667969 C 52.296875 42.566406 52.308594 42.464844 52.308594 42.363281 C 52.308594 42.261719 52.296875 42.15625 52.277344 42.054688 Z M 52.277344 42.054688 "/>
<path style=" stroke:none;fill-rule:nonzero;fill:rgb(0%,0%,0%);fill-opacity:1;" d="M 31.875 39.929688 C 31.855469 39.828125 31.828125 39.730469 31.789062 39.636719 C 31.75 39.542969 31.699219 39.453125 31.644531 39.367188 C 31.585938 39.28125 31.523438 39.199219 31.449219 39.128906 C 31.378906 39.054688 31.296875 38.992188 31.210938 38.933594 C 31.125 38.878906 31.035156 38.828125 30.941406 38.789062 C 30.847656 38.75 30.75 38.722656 30.648438 38.703125 C 30.449219 38.660156 30.242188 38.660156 30.039062 38.703125 C 29.9375 38.722656 29.839844 38.75 29.746094 38.789062 C 29.652344 38.828125 29.5625 38.878906 29.476562 38.933594 C 29.390625 38.992188 29.3125 39.054688 29.238281 39.128906 C 29.167969 39.199219 29.101562 39.28125 29.046875 39.367188 C 28.988281 39.453125 28.941406 39.542969 28.902344 39.636719 C 28.863281 39.730469 28.832031 39.828125 28.8125 39.929688 C 28.792969 40.03125 28.78125 40.132812 28.78125 40.234375 C 28.78125 40.335938 28.792969 40.4375 28.8125 40.539062 C 28.832031 40.640625 28.863281 40.738281 28.902344 40.832031 C 28.941406 40.925781 28.988281 41.015625 29.046875 41.101562 C 29.101562 41.1875 29.167969 41.265625 29.238281 41.339844 C 29.3125 41.410156 29.390625 41.476562 29.476562 41.53125 C 29.5625 41.589844 29.652344 41.636719 29.746094 41.675781 C 29.839844 41.714844 29.9375 41.746094 30.039062 41.765625 C 30.140625 41.785156 30.242188 41.796875 30.34375 41.796875 C 30.445312 41.796875 30.550781 41.785156 30.648438 41.765625 C 30.75 41.746094 30.847656 41.714844 30.941406 41.675781 C 31.035156 41.636719 31.125 41.589844 31.210938 41.53125 C 31.296875 41.476562 31.378906 41.410156 31.449219 41.339844 C 31.523438 41.265625 31.585938 41.1875 31.644531 41.101562 C 31.699219 41.015625 31.75 40.925781 31.789062 40.832031 C 31.828125 40.738281 31.855469 40.640625 31.875 40.539062 C 31.898438 40.4375 31.90625 40.335938 31.90625 40.234375 C 31.90625 40.132812 31.898438 40.03125 31.875 39.929688 Z M 31.875 39.929688 "/>
</g>
</svg>
