<?xml version="1.0" encoding="UTF-8"?>
<svg xmlns="http://www.w3.org/2000/svg" xmlns:xlink="http://www.w3.org/1999/xlink" width="80px" height="80px" viewBox="0 0 80 80" version="1.1">
<g id="surface1">
<path style=" stroke:none;fill-rule:nonzero;fill:rgb(0%,0%,0%);fill-opacity:1;" d="M 72 63.820312 C 71.476562 59.433594 68.296875 55.828125 64.011719 54.757812 L 48.75 50.464844 L 48.75 44.542969 C 51.761719 42.074219 54.382812 38.71875 54.894531 35 L 59.75 35 C 61.960938 35 63.75 33.210938 63.75 31 L 63.75 26.5 C 63.746094 24.964844 62.859375 23.570312 61.476562 22.910156 C 61.570312 22.152344 61.617188 21.386719 61.625 20.625 C 61.625 12.921875 58.8125 0 40 0 C 21.1875 0 18.375 12.921875 18.375 20.625 C 18.378906 21.386719 18.429688 22.152344 18.523438 22.910156 C 17.136719 23.570312 16.253906 24.964844 16.25 26.5 L 16.25 31 C 16.25 33.210938 18.039062 35 20.25 35 L 25.109375 35 C 25.621094 38.710938 28.234375 42.058594 31.253906 44.523438 L 31.253906 50.464844 L 16.027344 54.75 C 11.730469 55.8125 8.535156 59.421875 8 63.820312 L 6.257812 78.605469 C 6.179688 79.289062 6.667969 79.910156 7.355469 79.992188 C 7.402344 79.996094 7.449219 80 7.5 80 C 8.132812 80 8.664062 79.523438 8.738281 78.894531 L 10.480469 64.109375 C 10.894531 60.734375 13.355469 57.964844 16.664062 57.164062 L 24.335938 55.007812 L 31.460938 65.695312 C 31.65625 65.988281 31.96875 66.183594 32.320312 66.234375 C 32.378906 66.246094 32.441406 66.25 32.5 66.25 C 32.792969 66.25 33.074219 66.148438 33.300781 65.960938 L 38.75 61.417969 L 38.75 69.972656 C 38.75 70.660156 39.308594 71.222656 40 71.222656 C 40.691406 71.222656 41.25 70.660156 41.25 69.972656 L 41.25 61.417969 L 46.699219 65.960938 C 46.925781 66.148438 47.207031 66.25 47.5 66.25 C 47.558594 66.25 47.621094 66.246094 47.679688 66.234375 C 48.03125 66.183594 48.34375 65.988281 48.539062 65.695312 L 55.664062 55 L 63.375 57.171875 C 66.664062 57.984375 69.109375 60.746094 69.515625 64.109375 L 71.253906 78.894531 C 71.328125 79.527344 71.863281 80 72.5 80 C 72.550781 80 72.597656 79.996094 72.648438 79.992188 C 73.332031 79.910156 73.824219 79.289062 73.742188 78.605469 Z M 25.089844 22.5 L 24.667969 22.5 C 25 11.433594 29.773438 6.25 39.636719 6.25 C 48.957031 6.25 53.730469 10.882812 54.511719 20.730469 C 53.875 18.039062 51.460938 16.140625 48.695312 16.15625 C 46.964844 16.210938 45.265625 16.632812 43.714844 17.398438 C 42.5625 17.988281 41.296875 18.324219 40.003906 18.386719 C 38.707031 18.324219 37.445312 17.988281 36.289062 17.398438 C 34.738281 16.632812 33.039062 16.210938 31.308594 16.15625 C 27.03125 16.15625 25.453125 19.804688 25.089844 22.5 Z M 61.25 31 C 61.25 31.828125 60.578125 32.5 59.75 32.5 L 55 32.5 L 55 25 L 59.75 25 C 60.578125 25 61.25 25.671875 61.25 26.5 Z M 40 2.5 C 55.804688 2.5 59.125 12.355469 59.125 20.625 C 59.121094 21.25 59.082031 21.878906 59.011719 22.5 L 57.101562 22.5 C 56.75 9.898438 51.035156 3.75 39.636719 3.75 C 28.238281 3.75 22.523438 9.898438 22.171875 22.5 L 20.992188 22.5 C 20.917969 21.878906 20.878906 21.25 20.875 20.625 C 20.875 12.355469 24.195312 2.5 40 2.5 Z M 18.75 31 L 18.75 26.5 C 18.75 25.671875 19.421875 25 20.25 25 L 25 25 L 25 32.5 L 20.25 32.5 C 19.421875 32.5 18.75 31.828125 18.75 31 Z M 27.5 33.695312 L 27.5 23.75 C 27.5 23.542969 27.570312 18.652344 31.308594 18.652344 C 32.699219 18.710938 34.0625 19.066406 35.308594 19.695312 C 36.765625 20.421875 38.367188 20.828125 39.996094 20.882812 C 41.625 20.828125 43.222656 20.421875 44.683594 19.695312 C 45.925781 19.066406 47.289062 18.710938 48.683594 18.652344 C 52.429688 18.65625 52.5 23.546875 52.5 23.75 L 52.5 32.882812 L 46.601562 35.09375 C 45.425781 33.722656 43.433594 33.390625 41.878906 34.308594 C 40.320312 35.226562 39.644531 37.132812 40.277344 38.824219 C 40.910156 40.519531 42.667969 41.515625 44.445312 41.1875 C 46.222656 40.863281 47.511719 39.308594 47.5 37.5 C 47.5 37.476562 47.492188 37.453125 47.492188 37.429688 L 52.203125 35.664062 C 50.613281 41.445312 42.617188 46.25 40.027344 46.25 C 37.136719 46.25 27.5 40.316406 27.5 33.695312 Z M 45 37.5 C 45 38.191406 44.441406 38.75 43.75 38.75 C 43.058594 38.75 42.5 38.191406 42.5 37.5 C 42.5 36.808594 43.058594 36.25 43.75 36.25 C 44.441406 36.25 45 36.808594 45 37.5 Z M 40.027344 48.75 C 42.269531 48.476562 44.40625 47.648438 46.25 46.347656 L 46.25 50.734375 L 40 56.984375 L 33.75 50.734375 L 33.75 46.328125 C 35.609375 47.640625 37.769531 48.472656 40.027344 48.75 Z M 32.769531 63.148438 L 26.863281 54.292969 L 32.261719 52.777344 L 38.148438 58.667969 Z M 47.230469 63.148438 L 41.855469 58.667969 L 47.746094 52.777344 L 53.140625 54.292969 Z M 47.230469 63.148438 "/>
<path style=" stroke:none;fill-rule:nonzero;fill:rgb(0%,0%,0%);fill-opacity:1;" d="M 40 73.75 C 39.308594 73.75 38.75 74.308594 38.75 75 L 38.75 78.75 C 38.75 79.441406 39.308594 80 40 80 C 40.691406 80 41.25 79.441406 41.25 78.75 L 41.25 75 C 41.25 74.308594 40.691406 73.75 40 73.75 Z M 40 73.75 "/>
</g>
</svg>
