<?xml version="1.0" encoding="UTF-8"?>
<svg xmlns="http://www.w3.org/2000/svg" xmlns:xlink="http://www.w3.org/1999/xlink" width="80px" height="80px" viewBox="0 0 80 80" version="1.1">
<g id="surface1">
<path style=" stroke:none;fill-rule:nonzero;fill:rgb(0%,0%,0%);fill-opacity:1;" d="M 27.390625 46.902344 L 13.34375 46.902344 C 10.480469 46.902344 8.148438 44.574219 8.148438 41.707031 L 8.148438 11.003906 C 8.148438 8.515625 9.910156 6.429688 12.25 5.925781 C 12.195312 8.398438 12.445312 11.425781 13.316406 14.9375 L 12.054688 14.9375 L 12.054688 22.808594 L 16.042969 22.808594 C 18.941406 29.722656 23.675781 39.464844 27.390625 46.902344 Z M 17.164062 0 L 52.78125 63.339844 C 52.832031 63.425781 52.886719 63.507812 52.945312 63.585938 C 52.964844 63.609375 52.988281 63.632812 53.007812 63.65625 C 53.050781 63.707031 53.089844 63.757812 53.136719 63.800781 C 53.164062 63.828125 53.195312 63.851562 53.222656 63.875 C 53.265625 63.914062 53.308594 63.953125 53.355469 63.988281 C 53.390625 64.011719 53.421875 64.03125 53.457031 64.054688 C 53.503906 64.085938 53.550781 64.117188 53.597656 64.140625 C 53.632812 64.160156 53.671875 64.179688 53.710938 64.195312 C 53.757812 64.21875 53.808594 64.242188 53.859375 64.261719 C 53.898438 64.277344 53.9375 64.289062 53.980469 64.304688 C 54.03125 64.320312 54.082031 64.335938 54.132812 64.347656 C 54.175781 64.359375 54.21875 64.363281 54.261719 64.371094 C 54.316406 64.382812 54.367188 64.390625 54.421875 64.394531 C 54.464844 64.398438 54.507812 64.402344 54.554688 64.402344 C 54.585938 64.40625 54.613281 64.410156 54.644531 64.410156 C 54.6875 64.410156 54.734375 64.410156 54.78125 64.40625 C 54.972656 64.394531 55.164062 64.390625 55.359375 64.394531 C 55.429688 64.394531 55.503906 64.398438 55.574219 64.402344 C 55.710938 64.410156 55.847656 64.417969 55.984375 64.429688 C 56.058594 64.4375 56.136719 64.445312 56.210938 64.457031 C 56.355469 64.476562 56.496094 64.5 56.640625 64.527344 C 56.710938 64.539062 56.777344 64.546875 56.84375 64.5625 C 57.054688 64.609375 57.265625 64.660156 57.476562 64.726562 C 57.476562 64.726562 57.480469 64.726562 57.480469 64.726562 C 60.664062 65.699219 62.949219 68.632812 63.039062 71.964844 C 63.046875 72.222656 63.039062 72.480469 63.023438 72.730469 C 63.019531 72.761719 63.019531 72.789062 63.015625 72.820312 C 62.996094 73.058594 62.964844 73.292969 62.925781 73.527344 C 62.917969 73.566406 62.914062 73.605469 62.90625 73.644531 C 62.863281 73.871094 62.8125 74.09375 62.75 74.3125 C 62.738281 74.351562 62.726562 74.390625 62.714844 74.429688 C 62.648438 74.648438 62.578125 74.863281 62.492188 75.074219 C 62.480469 75.105469 62.46875 75.132812 62.457031 75.164062 C 62.367188 75.382812 62.269531 75.59375 62.160156 75.800781 C 62.15625 75.8125 62.148438 75.820312 62.144531 75.832031 C 62.039062 76.035156 61.921875 76.234375 61.796875 76.425781 C 61.78125 76.449219 61.769531 76.46875 61.753906 76.492188 C 61.632812 76.679688 61.5 76.859375 61.359375 77.035156 C 61.335938 77.066406 61.3125 77.09375 61.289062 77.125 C 61.148438 77.292969 61.003906 77.457031 60.851562 77.613281 C 60.824219 77.644531 60.792969 77.671875 60.765625 77.703125 C 60.609375 77.859375 60.449219 78.007812 60.285156 78.148438 C 60.257812 78.171875 60.226562 78.195312 60.199219 78.21875 C 60.027344 78.359375 59.847656 78.5 59.660156 78.628906 C 59.644531 78.636719 59.628906 78.648438 59.609375 78.660156 C 59.425781 78.785156 59.230469 78.90625 59.03125 79.015625 C 59.015625 79.023438 59 79.035156 58.980469 79.042969 C 58.78125 79.152344 58.578125 79.253906 58.367188 79.34375 C 58.335938 79.359375 58.300781 79.375 58.269531 79.386719 C 58.0625 79.472656 57.855469 79.550781 57.640625 79.621094 C 57.601562 79.632812 57.566406 79.644531 57.527344 79.65625 C 57.3125 79.722656 57.09375 79.78125 56.871094 79.828125 C 56.835938 79.835938 56.800781 79.84375 56.761719 79.847656 C 56.535156 79.894531 56.304688 79.933594 56.070312 79.957031 C 56.046875 79.960938 56.023438 79.960938 56 79.960938 C 55.757812 79.984375 55.515625 80 55.269531 80 C 55.257812 80 55.246094 80 55.234375 80 C 55.035156 80 54.832031 79.992188 54.625 79.972656 C 54.578125 79.96875 54.527344 79.964844 54.476562 79.960938 C 54.273438 79.941406 54.066406 79.917969 53.855469 79.878906 C 50.695312 79.324219 48.1875 76.816406 47.578125 73.699219 C 47.539062 73.492188 47.503906 73.28125 47.480469 73.070312 C 47.421875 72.527344 47.417969 71.996094 47.464844 71.480469 C 47.515625 70.964844 47.613281 70.46875 47.753906 69.988281 C 47.832031 69.722656 47.859375 69.449219 47.832031 69.183594 C 47.792969 68.738281 47.609375 68.308594 47.296875 67.96875 L 40.679688 60.683594 L 36.335938 55.894531 C 36.335938 55.894531 35.707031 54.683594 34.679688 52.667969 C 33.902344 51.148438 32.898438 49.167969 31.761719 46.902344 C 28.21875 39.84375 23.410156 30.039062 20.289062 22.804688 C 19.984375 22.105469 19.699219 21.429688 19.429688 20.785156 C 19.421875 20.757812 19.410156 20.730469 19.398438 20.703125 C 19.273438 20.402344 19.15625 20.113281 19.039062 19.828125 C 19.019531 19.773438 19 19.722656 18.976562 19.671875 C 18.867188 19.394531 18.757812 19.121094 18.65625 18.855469 C 18.652344 18.851562 18.652344 18.84375 18.648438 18.839844 C 18.511719 18.492188 18.386719 18.148438 18.265625 17.808594 C 18.175781 17.558594 18.09375 17.316406 18.011719 17.070312 C 17.984375 16.988281 17.953125 16.90625 17.925781 16.824219 C 17.824219 16.511719 17.726562 16.203125 17.632812 15.898438 C 17.632812 15.890625 17.628906 15.882812 17.625 15.875 C 17.53125 15.558594 17.441406 15.246094 17.355469 14.9375 C 16.351562 11.285156 16.105469 8.207031 16.175781 5.808594 C 16.238281 3.710938 16.542969 2.140625 16.796875 1.160156 C 16.796875 1.160156 16.796875 1.15625 16.796875 1.15625 C 16.824219 1.050781 16.851562 0.953125 16.878906 0.863281 C 16.878906 0.859375 16.878906 0.851562 16.882812 0.847656 C 16.90625 0.761719 16.929688 0.679688 16.953125 0.605469 C 16.957031 0.601562 16.957031 0.59375 16.957031 0.589844 C 16.980469 0.519531 17 0.453125 17.019531 0.394531 C 17.023438 0.386719 17.023438 0.382812 17.027344 0.378906 C 17.046875 0.320312 17.0625 0.269531 17.078125 0.226562 C 17.078125 0.222656 17.082031 0.21875 17.082031 0.214844 C 17.097656 0.171875 17.113281 0.132812 17.121094 0.101562 C 17.125 0.101562 17.125 0.0976562 17.125 0.09375 C 17.152344 0.03125 17.164062 0 17.164062 0 Z M 52.179688 74.109375 C 52.253906 74.234375 52.332031 74.351562 52.417969 74.464844 C 52.441406 74.5 52.46875 74.53125 52.496094 74.5625 C 52.5625 74.644531 52.628906 74.722656 52.703125 74.800781 C 52.730469 74.828125 52.757812 74.855469 52.785156 74.882812 C 52.882812 74.980469 52.988281 75.070312 53.09375 75.152344 C 53.105469 75.160156 53.117188 75.167969 53.128906 75.175781 C 53.226562 75.25 53.332031 75.316406 53.4375 75.378906 C 53.472656 75.398438 53.507812 75.417969 53.542969 75.4375 C 53.632812 75.488281 53.726562 75.53125 53.820312 75.570312 C 53.851562 75.585938 53.886719 75.601562 53.917969 75.613281 C 54.042969 75.664062 54.171875 75.707031 54.300781 75.742188 C 54.320312 75.746094 54.339844 75.75 54.359375 75.753906 C 54.472656 75.785156 54.585938 75.804688 54.699219 75.820312 C 54.742188 75.828125 54.78125 75.832031 54.820312 75.835938 C 54.925781 75.847656 55.027344 75.855469 55.132812 75.855469 C 55.15625 75.859375 55.179688 75.863281 55.203125 75.863281 C 55.214844 75.863281 55.226562 75.859375 55.234375 75.859375 C 55.367188 75.859375 55.5 75.851562 55.632812 75.835938 C 55.652344 75.832031 55.675781 75.828125 55.695312 75.824219 C 55.808594 75.808594 55.917969 75.785156 56.027344 75.757812 C 56.070312 75.75 56.109375 75.738281 56.152344 75.726562 C 56.246094 75.699219 56.339844 75.667969 56.433594 75.632812 C 56.472656 75.617188 56.511719 75.601562 56.550781 75.585938 C 56.679688 75.53125 56.804688 75.472656 56.929688 75.402344 C 57.554688 75.042969 58.027344 74.523438 58.324219 73.921875 C 58.570312 73.421875 58.691406 72.863281 58.679688 72.304688 C 58.671875 71.855469 58.574219 71.402344 58.382812 70.972656 C 58.335938 70.863281 58.28125 70.757812 58.222656 70.65625 C 58.148438 70.527344 58.070312 70.410156 57.984375 70.296875 C 57.960938 70.261719 57.933594 70.230469 57.90625 70.199219 C 57.839844 70.117188 57.773438 70.039062 57.699219 69.964844 C 57.671875 69.933594 57.644531 69.90625 57.617188 69.878906 C 57.515625 69.78125 57.414062 69.691406 57.304688 69.609375 C 57.296875 69.601562 57.285156 69.597656 57.273438 69.589844 C 57.175781 69.515625 57.070312 69.445312 56.964844 69.382812 C 56.929688 69.363281 56.894531 69.34375 56.859375 69.324219 C 56.769531 69.277344 56.675781 69.230469 56.582031 69.191406 C 56.550781 69.175781 56.515625 69.160156 56.480469 69.148438 C 56.355469 69.097656 56.230469 69.054688 56.101562 69.019531 C 56.082031 69.015625 56.0625 69.011719 56.042969 69.007812 C 55.929688 68.980469 55.816406 68.957031 55.703125 68.941406 C 55.660156 68.933594 55.621094 68.929688 55.582031 68.925781 C 55.476562 68.914062 55.375 68.90625 55.273438 68.90625 C 55.246094 68.90625 55.222656 68.902344 55.199219 68.902344 C 55.1875 68.902344 55.175781 68.902344 55.167969 68.902344 C 55.035156 68.902344 54.902344 68.910156 54.769531 68.929688 C 54.75 68.929688 54.726562 68.9375 54.707031 68.9375 C 54.59375 68.957031 54.484375 68.976562 54.371094 69.003906 C 54.332031 69.015625 54.289062 69.027344 54.25 69.039062 C 54.15625 69.066406 54.0625 69.097656 53.96875 69.132812 C 53.929688 69.148438 53.890625 69.160156 53.851562 69.175781 C 53.722656 69.230469 53.597656 69.289062 53.472656 69.359375 C 52.535156 69.898438 51.941406 70.804688 51.769531 71.792969 C 51.753906 71.902344 51.738281 72.011719 51.730469 72.125 C 51.679688 72.792969 51.824219 73.484375 52.179688 74.109375 Z M 66.65625 5.808594 L 65.367188 5.808594 C 65.25 2.199219 64.414062 0.191406 64.414062 0.191406 L 61.21875 5.808594 L 24.910156 5.808594 L 30.046875 14.9375 L 67.945312 14.9375 L 67.945312 22.808594 L 34.46875 22.808594 L 48.871094 48.414062 C 49.117188 47.925781 49.375 47.421875 49.636719 46.902344 L 66.65625 46.902344 C 69.519531 46.902344 71.851562 44.574219 71.851562 41.707031 L 71.851562 11.003906 C 71.851562 8.140625 69.519531 5.808594 66.65625 5.808594 Z M 34.230469 67.710938 C 33.730469 68.257812 33.554688 69.023438 33.761719 69.730469 C 34.042969 70.691406 34.144531 71.726562 34.019531 72.8125 C 33.625 76.210938 30.984375 79.015625 27.613281 79.589844 C 22.683594 80.429688 18.308594 76.570312 18.464844 71.628906 C 18.574219 68.300781 20.871094 65.375 24.0625 64.421875 C 24.988281 64.144531 25.894531 64.054688 26.765625 64.113281 C 27.582031 64.167969 28.363281 63.769531 28.769531 63.054688 L 32.371094 56.726562 C 32.640625 57.253906 32.8125 57.589844 32.867188 57.691406 C 33.023438 57.992188 33.214844 58.269531 33.441406 58.519531 L 38.027344 63.570312 Z M 28.011719 69.074219 C 26.347656 68.113281 24.222656 68.679688 23.257812 70.34375 C 22.296875 72.007812 22.863281 74.136719 24.527344 75.097656 C 26.191406 76.0625 28.320312 75.492188 29.285156 73.828125 C 30.246094 72.164062 29.675781 70.035156 28.011719 69.074219 Z M 28.011719 69.074219 "/>
</g>
</svg>
