<?xml version="1.0" encoding="UTF-8"?>
<svg xmlns="http://www.w3.org/2000/svg" xmlns:xlink="http://www.w3.org/1999/xlink" width="80px" height="80px" viewBox="0 0 80 80" version="1.1">
<g id="surface1">
<path style=" stroke:none;fill-rule:nonzero;fill:rgb(0%,0%,0%);fill-opacity:1;" d="M 76.304688 36.335938 C 74.0625 35.164062 71.707031 34.210938 69.304688 33.507812 C 68.683594 33.328125 68.03125 33.683594 67.851562 34.304688 C 67.667969 34.925781 68.023438 35.574219 68.644531 35.757812 C 70.898438 36.417969 73.113281 37.3125 75.21875 38.414062 C 75.453125 38.535156 75.671875 38.675781 75.875 38.832031 C 74.597656 38.84375 73.339844 38.898438 72.363281 39.085938 C 70.179688 39.511719 69.722656 40.617188 69.722656 41.476562 C 69.722656 43.882812 72.96875 45.996094 76.664062 45.996094 C 77 45.996094 77.328125 45.980469 77.65625 45.960938 L 77.65625 47.058594 L 71.59375 47.058594 C 70.179688 45.003906 67.8125 43.652344 65.132812 43.652344 C 62.453125 43.652344 60.085938 45.003906 58.675781 47.058594 L 25.027344 47.058594 C 23.613281 45.003906 21.246094 43.652344 18.570312 43.652344 C 15.890625 43.652344 13.523438 45.003906 12.109375 47.058594 L 2.34375 47.058594 L 2.34375 44.265625 L 3.921875 44.265625 C 4.570312 44.265625 5.09375 43.742188 5.09375 43.09375 L 5.09375 42.210938 L 7.78125 42.210938 C 9.371094 42.210938 10.664062 40.917969 10.664062 39.328125 L 10.664062 38.320312 C 10.664062 37.722656 10.484375 37.152344 10.144531 36.664062 L 7.757812 33.261719 L 10.59375 33.261719 C 10.992188 33.261719 11.367188 33.054688 11.582031 32.71875 C 13.042969 30.421875 15.234375 28.316406 18.09375 26.464844 C 19.878906 25.308594 21.8125 24.4375 23.839844 23.859375 C 23.484375 24.0625 23.132812 24.277344 22.785156 24.5 C 20.550781 25.949219 18.660156 27.566406 17.167969 29.308594 C 16.550781 30.035156 16.40625 31.023438 16.785156 31.890625 C 17.167969 32.753906 17.988281 33.308594 18.933594 33.339844 C 18.933594 33.339844 56.628906 34.613281 56.640625 34.613281 C 56.652344 34.613281 56.664062 34.613281 56.675781 34.613281 C 56.707031 34.613281 56.738281 34.613281 56.769531 34.609375 L 56.773438 34.609375 C 58.96875 34.367188 61.238281 34.390625 63.507812 34.679688 C 64.152344 34.761719 64.738281 34.304688 64.820312 33.664062 C 64.898438 33.023438 64.445312 32.433594 63.804688 32.355469 C 61.535156 32.066406 59.265625 32.023438 57.058594 32.222656 C 55.210938 30.5 53.402344 28.835938 51.675781 27.273438 C 47.546875 23.527344 42.210938 21.304688 36.648438 21.003906 L 31.195312 20.714844 C 26.035156 20.4375 21.0625 21.746094 16.816406 24.5 C 13.894531 26.390625 11.59375 28.546875 9.960938 30.917969 C 6.066406 30.933594 5.71875 30.878906 5.308594 30.957031 C 3.859375 31.179688 2.75 32.429688 2.75 33.9375 L 2.75 41.023438 C 2.75 41.03125 2.75 41.035156 2.75 41.039062 C 2.75 41.042969 2.75 41.046875 2.75 41.050781 L 2.75 41.921875 L 1.644531 41.921875 C 0.738281 41.921875 0 42.660156 0 43.566406 L 0 50.734375 C 0 51.515625 0.554688 52.195312 1.316406 52.34375 L 11.28125 54.359375 C 12.429688 57.261719 15.261719 59.324219 18.570312 59.324219 C 21.675781 59.324219 24.367188 57.507812 25.632812 54.878906 L 29.953125 54.878906 C 30.601562 54.878906 31.125 54.355469 31.125 53.707031 C 31.125 53.058594 30.601562 52.535156 29.953125 52.535156 L 26.332031 52.535156 C 26.378906 52.191406 26.40625 51.84375 26.40625 51.488281 C 26.40625 50.765625 26.304688 50.066406 26.121094 49.402344 L 57.582031 49.402344 C 57.398438 50.066406 57.296875 50.765625 57.296875 51.488281 C 57.296875 51.84375 57.324219 52.191406 57.371094 52.535156 L 35.421875 52.535156 C 34.777344 52.535156 34.25 53.058594 34.25 53.707031 C 34.25 54.355469 34.777344 54.878906 35.421875 54.878906 L 58.070312 54.878906 C 59.335938 57.507812 62.027344 59.324219 65.132812 59.324219 C 68.238281 59.324219 70.929688 57.507812 72.195312 54.878906 L 75.765625 54.878906 C 78.101562 54.878906 80 52.980469 80 50.644531 L 80 42.425781 C 80 39.859375 78.585938 37.523438 76.304688 36.335938 Z M 18.933594 30.945312 C 18.90625 30.886719 18.933594 30.851562 18.949219 30.832031 C 22.242188 26.984375 27.382812 23.855469 33.296875 23.171875 L 35.742188 23.304688 C 36.132812 24.746094 36.660156 28.222656 35.738281 31.5625 L 19.011719 31 C 18.984375 30.996094 18.953125 30.996094 18.933594 30.945312 Z M 53.550781 32.164062 L 38.128906 31.644531 C 38.835938 28.625 38.605469 25.507812 38.191406 23.5 C 42.609375 24.082031 46.785156 26.003906 50.105469 29.007812 C 51.222656 30.019531 52.375 31.078125 53.550781 32.164062 Z M 8.320312 38.320312 L 8.320312 39.328125 C 8.320312 39.625 8.082031 39.867188 7.78125 39.867188 L 5.09375 39.867188 L 5.09375 33.9375 C 5.09375 33.832031 5.121094 33.734375 5.164062 33.644531 L 8.222656 38.007812 C 8.289062 38.101562 8.320312 38.207031 8.320312 38.320312 Z M 2.34375 50.160156 L 2.34375 49.402344 L 11.019531 49.402344 C 10.796875 50.207031 10.703125 51.023438 10.742188 51.859375 Z M 18.570312 56.980469 C 15.542969 56.980469 13.078125 54.515625 13.078125 51.488281 C 13.078125 48.460938 15.542969 45.996094 18.570312 45.996094 C 21.597656 45.996094 24.0625 48.460938 24.0625 51.488281 C 24.0625 54.515625 21.597656 56.980469 18.570312 56.980469 Z M 76.664062 43.652344 C 74.015625 43.652344 72.277344 42.292969 72.085938 41.597656 C 72.570312 41.316406 74.109375 41.171875 76.664062 41.171875 C 76.941406 41.171875 77.214844 41.183594 77.488281 41.199219 C 77.597656 41.59375 77.65625 42.003906 77.65625 42.425781 L 77.65625 43.613281 C 77.332031 43.636719 77 43.652344 76.664062 43.652344 Z M 65.132812 56.980469 C 62.105469 56.980469 59.640625 54.515625 59.640625 51.488281 C 59.640625 48.460938 62.105469 45.996094 65.132812 45.996094 C 68.160156 45.996094 70.625 48.460938 70.625 51.488281 C 70.625 54.515625 68.160156 56.980469 65.132812 56.980469 Z M 75.765625 52.535156 L 72.894531 52.535156 C 72.941406 52.191406 72.96875 51.84375 72.96875 51.488281 C 72.96875 50.765625 72.867188 50.066406 72.683594 49.402344 L 77.65625 49.402344 L 77.65625 50.644531 C 77.65625 51.6875 76.808594 52.535156 75.765625 52.535156 Z M 75.765625 52.535156 "/>
<path style=" stroke:none;fill-rule:nonzero;fill:rgb(0%,0%,0%);fill-opacity:1;" d="M 18.570312 47.65625 C 16.457031 47.65625 14.738281 49.375 14.738281 51.488281 C 14.738281 53.601562 16.457031 55.320312 18.570312 55.320312 C 20.683594 55.320312 22.402344 53.601562 22.402344 51.488281 C 22.402344 49.375 20.683594 47.65625 18.570312 47.65625 Z M 18.570312 52.976562 C 17.75 52.976562 17.082031 52.308594 17.082031 51.488281 C 17.082031 50.667969 17.75 50 18.570312 50 C 19.390625 50 20.058594 50.667969 20.058594 51.488281 C 20.058594 52.308594 19.390625 52.976562 18.570312 52.976562 Z M 18.570312 52.976562 "/>
<path style=" stroke:none;fill-rule:nonzero;fill:rgb(0%,0%,0%);fill-opacity:1;" d="M 65.132812 47.65625 C 63.019531 47.65625 61.300781 49.375 61.300781 51.488281 C 61.300781 53.601562 63.019531 55.320312 65.132812 55.320312 C 67.246094 55.320312 68.964844 53.601562 68.964844 51.488281 C 68.964844 49.375 67.246094 47.65625 65.132812 47.65625 Z M 65.132812 52.976562 C 64.3125 52.976562 63.644531 52.308594 63.644531 51.488281 C 63.644531 50.667969 64.3125 50 65.132812 50 C 65.953125 50 66.621094 50.667969 66.621094 51.488281 C 66.621094 52.308594 65.953125 52.976562 65.132812 52.976562 Z M 65.132812 52.976562 "/>
<path style=" stroke:none;fill-rule:nonzero;fill:rgb(0%,0%,0%);fill-opacity:1;" d="M 40 35.730469 C 39.351562 35.730469 38.828125 36.257812 38.828125 36.902344 C 38.828125 37.550781 39.351562 38.074219 40 38.074219 L 40.8125 38.074219 C 41.460938 38.074219 41.984375 37.550781 41.984375 36.902344 C 41.984375 36.257812 41.460938 35.730469 40.8125 35.730469 Z M 40 35.730469 "/>
<path style=" stroke:none;fill-rule:nonzero;fill:rgb(0%,0%,0%);fill-opacity:1;" d="M 22.484375 35.730469 C 21.839844 35.730469 21.3125 36.257812 21.3125 36.902344 C 21.3125 37.550781 21.839844 38.074219 22.484375 38.074219 L 23.296875 38.074219 C 23.945312 38.074219 24.46875 37.550781 24.46875 36.902344 C 24.46875 36.257812 23.945312 35.730469 23.296875 35.730469 Z M 22.484375 35.730469 "/>
</g>
</svg>
