<?xml version="1.0" encoding="UTF-8"?>
<svg xmlns="http://www.w3.org/2000/svg" xmlns:xlink="http://www.w3.org/1999/xlink" width="80px" height="80px" viewBox="0 0 80 80" version="1.1">
<g id="surface1">
<path style=" stroke:none;fill-rule:nonzero;fill:rgb(0%,0%,0%);fill-opacity:1;" d="M 75.554688 8.890625 L 17.777344 8.890625 C 15.324219 8.886719 13.332031 10.878906 13.332031 13.332031 L 13.332031 22.222656 L 4.445312 22.222656 C 1.988281 22.222656 0 24.210938 0 26.667969 L 0 66.667969 C 0 69.121094 1.988281 71.109375 4.445312 71.109375 L 62.222656 71.109375 C 64.675781 71.113281 66.667969 69.121094 66.667969 66.667969 L 66.667969 57.777344 L 75.554688 57.777344 C 78.011719 57.777344 80 55.789062 80 53.332031 L 80 13.332031 C 80 10.878906 78.011719 8.890625 75.554688 8.890625 Z M 60 64.445312 L 6.667969 64.445312 L 6.667969 28.890625 L 13.332031 28.890625 L 13.332031 53.332031 C 13.332031 55.789062 15.324219 57.777344 17.777344 57.777344 L 60 57.777344 Z M 46.667969 48.890625 C 38.074219 48.890625 31.109375 41.925781 31.109375 33.332031 C 31.109375 24.742188 38.074219 17.777344 46.664062 17.777344 C 55.257812 17.777344 62.222656 24.742188 62.222656 33.332031 C 62.234375 37.460938 60.601562 41.425781 57.679688 44.347656 C 54.761719 47.265625 50.796875 48.902344 46.667969 48.890625 Z M 46.667969 48.890625 "/>
<path style=" stroke:none;fill-rule:nonzero;fill:rgb(0%,0%,0%);fill-opacity:1;" d="M 50.71875 34.570312 C 50.65625 34.675781 50.578125 34.773438 50.480469 34.855469 C 50.378906 34.9375 50.261719 35.003906 50.136719 35.054688 C 50.003906 35.105469 49.863281 35.128906 49.722656 35.128906 L 45.46875 35.128906 L 45.234375 37.175781 C 45.175781 37.65625 45.054688 38.125 44.875 38.574219 C 44.691406 38.992188 44.445312 39.378906 44.140625 39.722656 C 44.542969 39.632812 44.949219 39.558594 45.351562 39.503906 C 45.75 39.453125 46.148438 39.425781 46.550781 39.421875 L 52.980469 39.421875 L 52.78125 40.914062 C 52.753906 41.105469 52.691406 41.292969 52.597656 41.460938 C 52.496094 41.644531 52.367188 41.8125 52.21875 41.957031 C 52.058594 42.109375 51.878906 42.234375 51.679688 42.324219 C 51.472656 42.417969 51.246094 42.46875 51.019531 42.46875 L 39.144531 42.46875 L 39.441406 40.230469 C 39.929688 40.15625 40.378906 39.925781 40.726562 39.578125 C 41.019531 39.261719 41.203125 38.792969 41.277344 38.171875 L 41.652344 35.132812 L 39.84375 35.132812 L 40.03125 33.679688 C 40.046875 33.566406 40.089844 33.460938 40.148438 33.367188 C 40.210938 33.257812 40.292969 33.164062 40.390625 33.085938 C 40.492188 33 40.609375 32.929688 40.730469 32.882812 C 40.863281 32.828125 41.003906 32.796875 41.148438 32.800781 L 41.941406 32.800781 L 42.277344 30.054688 C 42.375 29.273438 42.605469 28.515625 42.960938 27.8125 C 43.308594 27.109375 43.785156 26.476562 44.367188 25.949219 C 44.972656 25.402344 45.679688 24.96875 46.445312 24.675781 C 47.304688 24.351562 48.21875 24.195312 49.140625 24.207031 C 49.785156 24.195312 50.429688 24.28125 51.050781 24.457031 C 51.5625 24.605469 52.042969 24.835938 52.480469 25.140625 C 52.878906 25.425781 53.226562 25.78125 53.5 26.1875 C 53.777344 26.605469 54.003906 27.054688 54.179688 27.523438 L 52.566406 28.480469 C 52.261719 28.636719 51.921875 28.714844 51.578125 28.703125 C 51.253906 28.679688 50.953125 28.515625 50.753906 28.257812 C 50.605469 28.074219 50.464844 27.917969 50.335938 27.789062 C 50.21875 27.660156 50.078125 27.550781 49.929688 27.464844 C 49.773438 27.378906 49.605469 27.316406 49.429688 27.285156 C 49.210938 27.246094 48.988281 27.226562 48.765625 27.226562 C 48.09375 27.214844 47.445312 27.476562 46.972656 27.953125 C 46.488281 28.4375 46.191406 29.132812 46.085938 30.035156 L 45.75 32.804688 L 51.015625 32.804688 L 50.839844 34.257812 C 50.820312 34.367188 50.777344 34.472656 50.71875 34.570312 Z M 50.71875 34.570312 "/>
</g>
</svg>
