<?xml version="1.0" encoding="UTF-8"?>
<svg xmlns="http://www.w3.org/2000/svg" xmlns:xlink="http://www.w3.org/1999/xlink" width="80px" height="80px" viewBox="0 0 80 80" version="1.1">
<g id="surface1">
<path style=" stroke:none;fill-rule:nonzero;fill:rgb(0%,0%,0%);fill-opacity:1;" d="M 23.75 72.5 C 23.058594 72.5 22.5 73.058594 22.5 73.75 L 22.5 78.75 C 22.5 79.441406 23.058594 80 23.75 80 C 24.441406 80 25 79.441406 25 78.75 L 25 73.75 C 25 73.058594 24.441406 72.5 23.75 72.5 Z M 23.75 72.5 "/>
<path style=" stroke:none;fill-rule:nonzero;fill:rgb(0%,0%,0%);fill-opacity:1;" d="M 58.75 72.5 C 58.058594 72.5 57.5 73.058594 57.5 73.75 L 57.5 78.75 C 57.5 79.441406 58.058594 80 58.75 80 C 59.441406 80 60 79.441406 60 78.75 L 60 73.75 C 60 73.058594 59.441406 72.5 58.75 72.5 Z M 58.75 72.5 "/>
<path style=" stroke:none;fill-rule:nonzero;fill:rgb(0%,0%,0%);fill-opacity:1;" d="M 26.773438 50.867188 C 24.5 52.488281 22.929688 54.050781 22.867188 54.117188 C 22.378906 54.605469 22.378906 55.394531 22.867188 55.882812 C 23.109375 56.128906 23.429688 56.25 23.75 56.25 C 24.070312 56.25 24.390625 56.128906 24.632812 55.882812 C 24.648438 55.867188 26.128906 54.398438 28.226562 52.90625 C 28.789062 52.503906 28.917969 51.722656 28.515625 51.160156 C 28.117188 50.597656 27.335938 50.46875 26.773438 50.867188 Z M 26.773438 50.867188 "/>
<path style=" stroke:none;fill-rule:nonzero;fill:rgb(0%,0%,0%);fill-opacity:1;" d="M 58.75 56.25 C 59.070312 56.25 59.390625 56.128906 59.632812 55.882812 C 60.121094 55.394531 60.121094 54.605469 59.632812 54.117188 C 59.570312 54.050781 58 52.488281 55.726562 50.867188 C 55.164062 50.46875 54.382812 50.597656 53.980469 51.160156 C 53.582031 51.722656 53.710938 52.503906 54.273438 52.90625 C 56.371094 54.398438 57.851562 55.867188 57.863281 55.882812 C 58.109375 56.128906 58.429688 56.25 58.75 56.25 Z M 58.75 56.25 "/>
<path style=" stroke:none;fill-rule:nonzero;fill:rgb(0%,0%,0%);fill-opacity:1;" d="M 62.292969 48.820312 L 53.597656 46.5 L 52.585938 40.480469 C 53.074219 39.957031 53.535156 39.414062 53.964844 38.84375 C 54.535156 38.085938 54.585938 37.082031 54.179688 36.25 C 55.132812 34.597656 55.757812 32.878906 56.050781 31.109375 C 58.792969 30.378906 60 26.886719 60 25 C 60 23.375 59.363281 22.554688 58.75 22.136719 L 58.75 18.75 C 58.75 14.113281 58.75 0 41.25 0 C 23.75 0 23.75 14.113281 23.75 18.75 L 23.75 22.136719 C 23.136719 22.554688 22.5 23.375 22.5 25 C 22.5 26.886719 23.707031 30.378906 26.453125 31.105469 C 26.746094 32.871094 27.375 34.585938 28.328125 36.230469 C 27.898438 37.074219 27.949219 38.101562 28.539062 38.871094 C 28.972656 39.4375 29.433594 39.96875 29.914062 40.472656 L 28.902344 46.496094 L 20.207031 48.816406 C 14.921875 50.226562 8.75 54.984375 8.75 63.75 L 8.75 78.75 C 8.75 79.441406 9.308594 80 10 80 C 10.691406 80 11.25 79.441406 11.25 78.75 L 11.25 63.75 C 11.25 56.398438 16.421875 52.414062 20.851562 51.234375 L 29.824219 48.839844 C 30.480469 49.207031 31.773438 49.898438 33.398438 50.585938 C 32.011719 53.101562 31.320312 55.8125 31.285156 55.949219 C 31.117188 56.617188 31.527344 57.296875 32.195312 57.460938 C 32.296875 57.488281 32.398438 57.5 32.5 57.5 C 33.0625 57.5 33.570312 57.121094 33.710938 56.550781 C 33.71875 56.523438 34.417969 53.777344 35.765625 51.476562 C 36.332031 51.664062 36.910156 51.832031 37.5 51.980469 L 37.5 78.75 C 37.5 79.441406 38.058594 80 38.75 80 C 39.4375 80 40 79.441406 40 78.75 L 40 52.429688 C 40.421875 52.46875 40.839844 52.5 41.25 52.5 C 41.660156 52.5 42.078125 52.46875 42.5 52.429688 L 42.5 78.75 C 42.5 79.441406 43.058594 80 43.75 80 C 44.441406 80 45 79.441406 45 78.75 L 45 51.980469 C 45.589844 51.832031 46.167969 51.664062 46.734375 51.476562 C 48.078125 53.769531 48.78125 56.523438 48.789062 56.554688 C 48.929688 57.121094 49.441406 57.5 50 57.5 C 50.101562 57.5 50.203125 57.488281 50.304688 57.460938 C 50.972656 57.296875 51.382812 56.617188 51.214844 55.949219 C 51.179688 55.8125 50.488281 53.101562 49.101562 50.585938 C 50.726562 49.898438 52.019531 49.207031 52.675781 48.839844 L 61.648438 51.234375 C 66.078125 52.414062 71.25 56.398438 71.25 63.75 L 71.25 78.75 C 71.25 79.441406 71.808594 80 72.5 80 C 73.191406 80 73.75 79.441406 73.75 78.75 L 73.75 63.75 C 73.75 54.984375 67.578125 50.226562 62.292969 48.820312 Z M 42.5 49.914062 L 42.5 46.15625 C 45.078125 45.820312 47.910156 44.488281 50.390625 42.507812 L 51.121094 46.839844 C 49.582031 47.671875 45.867188 49.511719 42.5 49.914062 Z M 31.378906 46.839844 L 32.113281 42.464844 C 34.765625 44.554688 37.65625 45.808594 40 46.144531 L 40 49.914062 C 36.632812 49.511719 32.917969 47.671875 31.378906 46.839844 Z M 30.882812 17.269531 C 32.972656 14.933594 36.460938 13.75 41.25 13.75 C 46.019531 13.75 49.5 14.925781 51.59375 17.246094 C 53.652344 19.523438 53.789062 22.339844 53.773438 23.28125 L 49.496094 28.628906 C 47.734375 28.292969 43.339844 27.5 41.25 27.5 C 38.246094 27.5 34.566406 28.246094 32.984375 28.605469 L 28.726562 23.28125 C 28.703125 22.339844 28.828125 19.566406 30.882812 17.269531 Z M 41.25 43.75 C 38.382812 43.75 33.585938 41.359375 30.523438 37.355469 C 30.617188 37.226562 30.710938 37.089844 30.804688 36.957031 C 30.8125 36.949219 30.816406 36.9375 30.824219 36.929688 C 32.242188 34.863281 33.128906 32.296875 33.503906 31.050781 C 34.972656 30.71875 38.5 30 41.25 30 C 43.109375 30 47.300781 30.757812 49.007812 31.082031 C 49.390625 32.347656 50.273438 34.898438 51.6875 36.945312 C 51.695312 36.957031 51.703125 36.96875 51.710938 36.976562 C 51.796875 37.101562 51.878906 37.222656 51.96875 37.339844 C 49.171875 41.054688 44.664062 43.75 41.25 43.75 Z M 51.378906 30.28125 L 53.75 27.3125 L 53.75 28.75 C 53.75 30.433594 53.378906 32.078125 52.679688 33.667969 C 52.035156 32.332031 51.597656 31.011719 51.378906 30.28125 Z M 28.75 28.75 L 28.75 27.3125 L 31.121094 30.28125 C 30.90625 31.011719 30.46875 32.328125 29.824219 33.660156 C 29.121094 32.074219 28.75 30.429688 28.75 28.75 Z M 56.25 28.121094 L 56.25 24.472656 C 56.859375 24.171875 57.253906 24.15625 57.339844 24.199219 C 57.363281 24.210938 57.5 24.417969 57.5 25 C 57.5 25.886719 57.03125 27.308594 56.25 28.121094 Z M 41.25 2.5 C 54.546875 2.5 56.25 11.183594 56.25 18.75 L 56.25 21.808594 C 56.234375 21.816406 56.214844 21.816406 56.199219 21.824219 C 56.007812 20.148438 55.382812 17.730469 53.480469 15.605469 C 50.894531 12.714844 46.78125 11.25 41.25 11.25 C 35.71875 11.25 31.605469 12.714844 29.019531 15.601562 C 27.117188 17.730469 26.492188 20.148438 26.304688 21.824219 C 26.285156 21.816406 26.269531 21.816406 26.25 21.808594 L 26.25 18.75 C 26.25 11.183594 27.953125 2.5 41.25 2.5 Z M 25.160156 24.199219 C 25.246094 24.15625 25.640625 24.171875 26.25 24.472656 L 26.25 28.121094 C 25.46875 27.308594 25 25.882812 25 25 C 25 24.417969 25.136719 24.210938 25.160156 24.199219 Z M 25.160156 24.199219 "/>
<path style=" stroke:none;fill-rule:nonzero;fill:rgb(0%,0%,0%);fill-opacity:1;" d="M 8.75 38.75 C 8.75 41.507812 10.992188 43.75 13.75 43.75 C 16.507812 43.75 18.75 41.507812 18.75 38.75 L 18.75 16.25 L 20 16.25 C 20.691406 16.25 21.25 15.691406 21.25 15 C 21.25 14.308594 20.691406 13.75 20 13.75 L 7.5 13.75 C 6.808594 13.75 6.25 14.308594 6.25 15 C 6.25 15.691406 6.808594 16.25 7.5 16.25 L 8.75 16.25 Z M 16.25 16.25 L 16.25 18.75 L 15 18.75 C 14.308594 18.75 13.75 19.308594 13.75 20 C 13.75 20.691406 14.308594 21.25 15 21.25 L 16.25 21.25 L 16.25 23.75 L 15 23.75 C 14.308594 23.75 13.75 24.308594 13.75 25 C 13.75 25.691406 14.308594 26.25 15 26.25 L 16.25 26.25 L 16.25 28.75 L 15 28.75 C 14.308594 28.75 13.75 29.308594 13.75 30 C 13.75 30.691406 14.308594 31.25 15 31.25 L 16.25 31.25 L 16.25 33.75 L 15 33.75 C 14.308594 33.75 13.75 34.308594 13.75 35 C 13.75 35.691406 14.308594 36.25 15 36.25 L 16.25 36.25 L 16.25 38.75 C 16.25 40.128906 15.128906 41.25 13.75 41.25 C 12.371094 41.25 11.25 40.128906 11.25 38.75 L 11.25 16.25 Z M 16.25 16.25 "/>
</g>
</svg>
