<?xml version="1.0" encoding="UTF-8"?>
<svg xmlns="http://www.w3.org/2000/svg" xmlns:xlink="http://www.w3.org/1999/xlink" width="80px" height="80px" viewBox="0 0 80 80" version="1.1">
<g id="surface1">
<path style=" stroke:none;fill-rule:nonzero;fill:rgb(0%,0%,0%);fill-opacity:1;" d="M 76.472656 25.472656 L 66.148438 30.363281 C 70.28125 39.296875 69.011719 50.113281 62.300781 57.878906 L 56.671875 52.253906 L 56.671875 71.828125 L 76.25 71.828125 L 70.421875 66.003906 C 80.628906 54.726562 82.636719 38.652344 76.472656 25.472656 Z M 76.472656 25.472656 "/>
<path style=" stroke:none;fill-rule:nonzero;fill:rgb(0%,0%,0%);fill-opacity:1;" d="M 54.484375 76.472656 L 49.589844 66.148438 C 40.660156 70.285156 29.839844 69.011719 22.074219 62.300781 L 27.703125 56.675781 L 8.125 56.675781 L 8.125 76.25 L 13.953125 70.421875 C 25.226562 80.628906 41.300781 82.636719 54.484375 76.472656 Z M 54.484375 76.472656 "/>
<path style=" stroke:none;fill-rule:nonzero;fill:rgb(0%,0%,0%);fill-opacity:1;" d="M 17.65625 22.074219 L 23.28125 27.703125 L 23.28125 8.125 L 3.703125 8.125 L 9.53125 13.953125 C -0.671875 25.230469 -2.675781 41.304688 3.484375 54.484375 L 13.808594 49.589844 C 9.667969 40.660156 10.945312 29.839844 17.65625 22.074219 Z M 17.65625 22.074219 "/>
<path style=" stroke:none;fill-rule:nonzero;fill:rgb(0%,0%,0%);fill-opacity:1;" d="M 71.828125 23.28125 L 71.828125 3.703125 L 66.003906 9.53125 C 54.722656 -0.671875 38.648438 -2.675781 25.46875 3.484375 L 30.363281 13.808594 C 39.296875 9.671875 50.113281 10.945312 57.878906 17.65625 L 52.253906 23.28125 Z M 71.828125 23.28125 "/>
<path style=" stroke:none;fill-rule:nonzero;fill:rgb(0%,0%,0%);fill-opacity:1;" d="M 55.617188 39.976562 C 55.617188 48.613281 48.613281 55.617188 39.976562 55.617188 C 31.339844 55.617188 24.335938 48.613281 24.335938 39.976562 C 24.335938 31.339844 31.339844 24.335938 39.976562 24.335938 C 48.613281 24.335938 55.617188 31.339844 55.617188 39.976562 Z M 55.617188 39.976562 "/>
</g>
</svg>
