<?xml version="1.0" encoding="UTF-8"?>
<svg xmlns="http://www.w3.org/2000/svg" xmlns:xlink="http://www.w3.org/1999/xlink" width="80px" height="80px" viewBox="0 0 80 80" version="1.1">
<g id="surface1">
<path style=" stroke:none;fill-rule:nonzero;fill:rgb(0%,0%,0%);fill-opacity:1;" d="M 72.5 1.25 L 7.5 1.25 L 7.5 38.75 L 72.5 38.75 Z M 70 3.75 L 70 31.25 L 65 31.25 L 65 26.25 L 52.5 26.25 L 52.5 31.25 L 10 31.25 L 10 3.75 Z M 62.5 31.25 L 55 31.25 L 55 28.75 L 62.5 28.75 Z M 10 36.25 L 10 33.75 L 70 33.75 L 70 36.25 Z M 10 36.25 "/>
<path style=" stroke:none;fill-rule:nonzero;fill:rgb(0%,0%,0%);fill-opacity:1;" d="M 80 46.25 L 72.5 46.25 C 72.496094 44.179688 70.820312 42.503906 68.75 42.5 L 53.75 42.5 C 51.679688 42.503906 50.003906 44.179688 50 46.25 L 42.5 46.25 L 42.5 53.75 L 45 53.75 L 45 73.75 L 47.5 73.75 L 47.5 53.75 L 50.230469 53.75 C 50.757812 55.242188 52.167969 56.246094 53.75 56.25 L 55 56.25 L 55 62.5 L 50 62.5 L 50 70 L 52.5 70 L 52.5 78.75 L 55 78.75 L 55 70 L 67.5 70 L 67.5 78.75 L 70 78.75 L 70 70 L 72.5 70 L 72.5 62.5 L 67.5 62.5 L 67.5 56.25 L 68.75 56.25 C 70.332031 56.246094 71.742188 55.242188 72.269531 53.75 L 75 53.75 L 75 73.75 L 77.5 73.75 L 77.5 53.75 L 80 53.75 Z M 45 48.75 L 50 48.75 L 50 51.25 L 45 51.25 Z M 70 67.5 L 52.5 67.5 L 52.5 65 L 70 65 Z M 65 62.5 L 57.5 62.5 L 57.5 56.25 L 65 56.25 Z M 70 52.5 C 70 53.191406 69.441406 53.75 68.75 53.75 L 53.75 53.75 C 53.058594 53.75 52.5 53.191406 52.5 52.5 L 52.5 46.25 C 52.5 45.558594 53.058594 45 53.75 45 L 68.75 45 C 69.441406 45 70 45.558594 70 46.25 Z M 77.5 51.25 L 72.5 51.25 L 72.5 48.75 L 77.5 48.75 Z M 77.5 51.25 "/>
<path style=" stroke:none;fill-rule:nonzero;fill:rgb(0%,0%,0%);fill-opacity:1;" d="M 26.25 42.5 L 11.25 42.5 C 9.179688 42.503906 7.503906 44.179688 7.5 46.25 L 0 46.25 L 0 53.75 L 2.5 53.75 L 2.5 73.75 L 5 73.75 L 5 53.75 L 7.730469 53.75 C 8.257812 55.242188 9.667969 56.246094 11.25 56.25 L 12.5 56.25 L 12.5 62.5 L 7.5 62.5 L 7.5 70 L 10 70 L 10 78.75 L 12.5 78.75 L 12.5 70 L 25 70 L 25 78.75 L 27.5 78.75 L 27.5 70 L 30 70 L 30 62.5 L 25 62.5 L 25 56.25 L 26.25 56.25 C 27.832031 56.246094 29.242188 55.242188 29.769531 53.75 L 32.5 53.75 L 32.5 73.75 L 35 73.75 L 35 53.75 L 37.5 53.75 L 37.5 46.25 L 30 46.25 C 29.996094 44.179688 28.320312 42.503906 26.25 42.5 Z M 2.5 48.75 L 7.5 48.75 L 7.5 51.25 L 2.5 51.25 Z M 27.5 67.5 L 10 67.5 L 10 65 L 27.5 65 Z M 22.5 62.5 L 15 62.5 L 15 56.25 L 22.5 56.25 Z M 27.5 52.5 C 27.5 53.191406 26.941406 53.75 26.25 53.75 L 11.25 53.75 C 10.558594 53.75 10 53.191406 10 52.5 L 10 46.25 C 10 45.558594 10.558594 45 11.25 45 L 26.25 45 C 26.941406 45 27.5 45.558594 27.5 46.25 Z M 35 48.75 L 35 51.25 L 30 51.25 L 30 48.75 Z M 35 48.75 "/>
</g>
</svg>
