<?xml version="1.0" encoding="UTF-8"?>
<svg xmlns="http://www.w3.org/2000/svg" xmlns:xlink="http://www.w3.org/1999/xlink" width="80px" height="80px" viewBox="0 0 80 80" version="1.1">
<g id="surface1">
<path style=" stroke:none;fill-rule:nonzero;fill:rgb(0%,0%,0%);fill-opacity:1;" d="M 78.4375 32.265625 L 65.625 32.265625 L 65.625 28.957031 C 65.625 28.09375 64.925781 27.394531 64.0625 27.394531 L 30.3125 27.394531 C 29.449219 27.394531 28.75 28.09375 28.75 28.957031 C 28.75 29.820312 29.449219 30.519531 30.3125 30.519531 L 62.5 30.519531 L 62.5 42.5 C 62.5 53.023438 56.882812 62.804688 47.808594 68.125 L 17.816406 68.125 C 8.742188 62.804688 3.125 53.023438 3.125 42.5 L 3.125 30.519531 L 13.59375 30.519531 C 14.457031 30.519531 15.15625 29.820312 15.15625 28.957031 C 15.15625 28.09375 14.457031 27.394531 13.59375 27.394531 L 1.5625 27.394531 C 0.699219 27.394531 0 28.09375 0 28.957031 L 0 42.5 C 0 48.40625 1.585938 54.199219 4.589844 59.246094 C 6.617188 62.652344 9.246094 65.660156 12.320312 68.125 L 1.5625 68.125 C 0.699219 68.125 0 68.824219 0 69.6875 C 0 75.375 4.625 80 10.3125 80 L 59.0625 80 C 64.75 80 69.375 75.375 69.375 69.6875 C 69.375 68.824219 68.675781 68.125 67.8125 68.125 L 53.304688 68.125 C 56.136719 65.855469 58.585938 63.128906 60.539062 60.050781 L 64.949219 60.050781 C 73.246094 60.050781 80 53.300781 80 45 L 80 33.828125 C 80 32.964844 79.300781 32.265625 78.4375 32.265625 Z M 66.078125 71.25 C 65.363281 74.464844 62.488281 76.875 59.0625 76.875 L 10.3125 76.875 C 6.886719 76.875 4.011719 74.464844 3.296875 71.25 Z M 65.625 42.5 L 65.625 41.640625 L 70.625 41.640625 L 70.625 45 C 70.625 48.128906 68.078125 50.675781 64.949219 50.675781 L 64.59375 50.675781 C 65.273438 48.019531 65.625 45.273438 65.625 42.5 Z M 76.875 45 C 76.875 51.578125 71.523438 56.925781 64.949219 56.925781 L 62.289062 56.925781 C 62.789062 55.90625 63.234375 54.863281 63.621094 53.800781 L 64.949219 53.800781 C 69.800781 53.800781 73.75 49.851562 73.75 45 L 73.75 40.078125 C 73.75 39.214844 73.050781 38.515625 72.1875 38.515625 L 65.625 38.515625 L 65.625 35.390625 L 76.875 35.390625 Z M 76.875 45 "/>
<path style=" stroke:none;fill-rule:nonzero;fill:rgb(0%,0%,0%);fill-opacity:1;" d="M 34.304688 8.648438 L 33.492188 7.625 C 32.296875 6.128906 32.296875 4.035156 33.488281 2.535156 C 34.023438 1.859375 33.910156 0.875 33.234375 0.339844 C 32.558594 -0.199219 31.574219 -0.0859375 31.039062 0.589844 C 28.9375 3.238281 28.941406 6.929688 31.046875 9.574219 L 31.859375 10.59375 C 33.417969 12.550781 33.421875 15.289062 31.867188 17.25 L 31.03125 18.300781 C 30.496094 18.976562 30.609375 19.957031 31.285156 20.496094 C 31.574219 20.722656 31.914062 20.832031 32.253906 20.832031 C 32.714844 20.832031 33.171875 20.628906 33.480469 20.242188 L 34.3125 19.191406 C 36.777344 16.085938 36.777344 11.75 34.304688 8.648438 Z M 34.304688 8.648438 "/>
<path style=" stroke:none;fill-rule:nonzero;fill:rgb(0%,0%,0%);fill-opacity:1;" d="M 42.964844 12.160156 L 42.152344 11.140625 C 40.957031 9.640625 40.957031 7.546875 42.148438 6.046875 C 42.683594 5.371094 42.570312 4.386719 41.894531 3.851562 C 41.21875 3.316406 40.238281 3.429688 39.699219 4.105469 C 37.601562 6.75 37.601562 10.445312 39.707031 13.085938 L 40.519531 14.109375 C 42.082031 16.066406 42.082031 18.800781 40.527344 20.761719 L 39.695312 21.8125 C 39.15625 22.488281 39.269531 23.472656 39.945312 24.007812 C 40.234375 24.234375 40.574219 24.347656 40.917969 24.347656 C 41.375 24.347656 41.832031 24.144531 42.140625 23.753906 L 42.972656 22.707031 C 45.441406 19.597656 45.4375 15.261719 42.964844 12.160156 Z M 42.964844 12.160156 "/>
<path style=" stroke:none;fill-rule:nonzero;fill:rgb(0%,0%,0%);fill-opacity:1;" d="M 25.644531 12.160156 L 24.832031 11.140625 C 23.636719 9.640625 23.636719 7.546875 24.828125 6.046875 C 25.363281 5.371094 25.25 4.386719 24.574219 3.851562 C 23.898438 3.316406 22.914062 3.429688 22.378906 4.105469 C 20.277344 6.75 20.28125 10.445312 22.386719 13.085938 L 23.199219 14.109375 C 24.757812 16.066406 24.761719 18.800781 23.203125 20.761719 L 22.371094 21.8125 C 21.835938 22.488281 21.949219 23.472656 22.625 24.007812 C 22.910156 24.234375 23.253906 24.347656 23.59375 24.347656 C 24.054688 24.347656 24.511719 24.144531 24.820312 23.753906 L 25.652344 22.707031 C 28.117188 19.597656 28.113281 15.261719 25.644531 12.160156 Z M 25.644531 12.160156 "/>
<path style=" stroke:none;fill-rule:nonzero;fill:rgb(0%,0%,0%);fill-opacity:1;" d="M 23.480469 27.851562 C 23.191406 27.5625 22.789062 27.394531 22.375 27.394531 C 21.964844 27.394531 21.5625 27.5625 21.273438 27.851562 C 20.980469 28.144531 20.8125 28.546875 20.8125 28.957031 C 20.8125 29.367188 20.980469 29.773438 21.273438 30.0625 C 21.5625 30.355469 21.964844 30.519531 22.375 30.519531 C 22.789062 30.519531 23.191406 30.355469 23.480469 30.0625 C 23.773438 29.773438 23.9375 29.371094 23.9375 28.957031 C 23.9375 28.546875 23.773438 28.144531 23.480469 27.851562 Z M 23.480469 27.851562 "/>
<path style=" stroke:none;fill-rule:nonzero;fill:rgb(0%,0%,0%);fill-opacity:1;" d="M 56.5625 40.9375 C 55.699219 40.9375 55 41.636719 55 42.5 C 55 48.300781 52.648438 54 48.546875 58.136719 C 47.9375 58.75 47.941406 59.738281 48.554688 60.347656 C 48.859375 60.648438 49.257812 60.800781 49.65625 60.800781 C 50.058594 60.800781 50.460938 60.644531 50.765625 60.335938 C 55.441406 55.617188 58.125 49.117188 58.125 42.5 C 58.125 41.636719 57.425781 40.9375 56.5625 40.9375 Z M 56.5625 40.9375 "/>
<path style=" stroke:none;fill-rule:nonzero;fill:rgb(0%,0%,0%);fill-opacity:1;" d="M 45.917969 62.378906 C 45.496094 61.628906 44.542969 61.363281 43.789062 61.785156 L 43.753906 61.804688 C 43.003906 62.230469 42.738281 63.183594 43.160156 63.933594 C 43.449219 64.445312 43.980469 64.730469 44.523438 64.730469 C 44.785156 64.730469 45.046875 64.664062 45.289062 64.527344 L 45.328125 64.507812 C 46.078125 64.082031 46.34375 63.128906 45.917969 62.378906 Z M 45.917969 62.378906 "/>
</g>
</svg>
