<?xml version="1.0" encoding="UTF-8"?>
<svg xmlns="http://www.w3.org/2000/svg" xmlns:xlink="http://www.w3.org/1999/xlink" width="80px" height="80px" viewBox="0 0 80 80" version="1.1">
<g id="surface1">
<path style=" stroke:none;fill-rule:nonzero;fill:rgb(0%,0%,0%);fill-opacity:1;" d="M 79.851562 18.96875 C 79.578125 17.945312 78.90625 17.074219 77.988281 16.542969 C 77.066406 16.011719 75.972656 15.867188 74.949219 16.144531 C 73.921875 16.421875 73.050781 17.089844 72.519531 18.011719 L 71.855469 19.171875 C 71.222656 18.804688 70.410156 19.019531 70.042969 19.652344 L 66.65625 25.421875 L 65.496094 24.753906 C 65.1875 24.578125 64.824219 24.53125 64.480469 24.621094 C 64.136719 24.714844 63.84375 24.941406 63.667969 25.25 C 63.308594 25.886719 63.527344 26.695312 64.164062 27.0625 L 65.320312 27.730469 L 53.992188 47.367188 L 51.191406 54.84375 L 49.859375 57.335938 C 49.078125 58.695312 49.160156 60.382812 50.070312 61.65625 L 47.070312 65.335938 L 46.230469 63.230469 C 45.855469 62.292969 44.976562 61.648438 43.96875 61.570312 C 42.960938 61.488281 41.992188 61.988281 41.472656 62.855469 L 40.992188 63.667969 L 40.539062 58.335938 C 40.4375 57.074219 39.457031 56.0625 38.203125 55.910156 C 36.945312 55.757812 35.753906 56.511719 35.355469 57.710938 L 32.074219 67.546875 C 31.84375 68.246094 32.21875 68.996094 32.914062 69.230469 C 33.042969 69.289062 33.183594 69.324219 33.328125 69.335938 C 33.902344 69.335938 34.410156 68.972656 34.59375 68.429688 L 37.859375 58.589844 L 38.328125 64.003906 C 38.421875 65.15625 39.253906 66.117188 40.382812 66.378906 C 41.511719 66.640625 42.679688 66.144531 43.273438 65.148438 L 43.765625 64.335938 L 44.59375 66.429688 C 44.945312 67.3125 45.738281 67.941406 46.675781 68.082031 C 47.617188 68.21875 48.558594 67.851562 49.152344 67.109375 L 52.257812 63.175781 C 52.601562 63.265625 52.957031 63.3125 53.3125 63.308594 C 54.738281 63.320312 56.066406 62.570312 56.789062 61.335938 L 58.125 59.109375 L 63.203125 52.9375 L 74.652344 33.0625 L 75.8125 33.726562 C 76.125 33.90625 76.347656 34.195312 76.441406 34.542969 C 76.53125 34.882812 76.484375 35.246094 76.308594 35.554688 L 70.976562 44.792969 C 70.773438 45.097656 70.707031 45.46875 70.785156 45.824219 C 70.867188 46.179688 71.089844 46.484375 71.402344 46.671875 C 71.707031 46.851562 72.074219 46.898438 72.417969 46.804688 C 72.757812 46.714844 73.050781 46.488281 73.226562 46.179688 L 78.558594 36.941406 C 79.09375 36.019531 79.234375 34.925781 78.960938 33.902344 C 78.683594 32.875 78.011719 32.003906 77.09375 31.476562 L 75.933594 30.808594 L 79.265625 25.035156 C 79.628906 24.402344 79.417969 23.59375 78.785156 23.222656 L 79.453125 22.0625 C 80 21.128906 80.144531 20.011719 79.851562 18.96875 Z M 74.828125 19.34375 C 75.003906 19.035156 75.296875 18.808594 75.640625 18.71875 C 75.984375 18.632812 76.34375 18.679688 76.652344 18.851562 C 76.960938 19.027344 77.1875 19.320312 77.28125 19.664062 C 77.363281 20.007812 77.316406 20.367188 77.148438 20.675781 L 76.480469 21.835938 L 74.160156 20.503906 Z M 56.65625 56.5625 L 55.992188 56.175781 L 54.015625 55.03125 L 55.910156 49.964844 L 60.109375 52.390625 Z M 52.65625 60.417969 C 52.09375 60.023438 51.921875 59.269531 52.257812 58.671875 L 52.925781 57.511719 L 55.242188 58.84375 L 54.578125 59.988281 C 54.390625 60.3125 54.078125 60.542969 53.710938 60.625 C 53.347656 60.707031 52.964844 60.632812 52.65625 60.417969 Z M 61.628906 50.207031 L 57.015625 47.539062 L 67.683594 29.0625 L 72.292969 31.726562 Z M 73.628906 29.421875 L 69.015625 26.753906 L 71.679688 22.144531 L 76.292969 24.808594 Z M 73.628906 29.421875 "/>
<path style=" stroke:none;fill-rule:nonzero;fill:rgb(0%,0%,0%);fill-opacity:1;" d="M 21.035156 59.75 L 16.316406 64.457031 L 13.492188 61.628906 C 12.972656 61.113281 12.132812 61.113281 11.609375 61.628906 C 11.359375 61.878906 11.21875 62.222656 11.21875 62.578125 C 11.21875 62.929688 11.359375 63.273438 11.609375 63.523438 L 14.4375 66.347656 C 14.9375 66.84375 15.613281 67.121094 16.316406 67.121094 C 17.027344 67.125 17.707031 66.847656 18.210938 66.347656 L 22.917969 61.628906 C 23.367188 61.101562 23.339844 60.3125 22.847656 59.820312 C 22.355469 59.328125 21.566406 59.296875 21.035156 59.75 Z M 21.035156 59.75 "/>
<path style=" stroke:none;fill-rule:nonzero;fill:rgb(0%,0%,0%);fill-opacity:1;" d="M 5.332031 63.335938 C 5.332031 69.59375 10.40625 74.667969 16.664062 74.667969 C 22.921875 74.667969 27.996094 69.59375 27.996094 63.335938 C 27.996094 62.601562 27.398438 62.003906 26.664062 62.003906 C 25.925781 62.003906 25.328125 62.601562 25.328125 63.335938 C 25.328125 68.121094 21.449219 72 16.664062 72 C 11.878906 72 8 68.121094 8 63.335938 C 8 58.550781 11.878906 54.671875 16.664062 54.671875 C 18.539062 54.664062 20.367188 55.273438 21.863281 56.402344 C 22.453125 56.847656 23.289062 56.726562 23.730469 56.136719 C 24.171875 55.546875 24.050781 54.714844 23.460938 54.269531 C 20.027344 51.695312 15.433594 51.28125 11.597656 53.199219 C 7.757812 55.121094 5.332031 59.042969 5.332031 63.335938 Z M 5.332031 63.335938 "/>
<path style=" stroke:none;fill-rule:nonzero;fill:rgb(0%,0%,0%);fill-opacity:1;" d="M 47.992188 10.679688 C 48.726562 10.679688 49.324219 10.082031 49.324219 9.34375 C 49.324219 8.609375 48.726562 8.011719 47.992188 8.011719 L 13.332031 8.011719 C 12.59375 8.011719 11.996094 8.609375 11.996094 9.34375 L 11.996094 14.675781 C 11.996094 15.414062 12.59375 16.011719 13.332031 16.011719 L 47.992188 16.011719 C 48.726562 16.011719 49.324219 15.414062 49.324219 14.675781 C 49.324219 13.941406 48.726562 13.34375 47.992188 13.34375 L 14.664062 13.34375 L 14.664062 10.679688 Z M 47.992188 10.679688 "/>
<path style=" stroke:none;fill-rule:nonzero;fill:rgb(0%,0%,0%);fill-opacity:1;" d="M 17.332031 18.675781 C 16.59375 18.675781 15.996094 19.273438 15.996094 20.011719 C 15.996094 20.746094 16.59375 21.34375 17.332031 21.34375 L 43.992188 21.34375 C 44.730469 21.34375 45.324219 20.746094 45.324219 20.011719 C 45.324219 19.273438 44.730469 18.675781 43.992188 18.675781 Z M 17.332031 18.675781 "/>
<path style=" stroke:none;fill-rule:nonzero;fill:rgb(0%,0%,0%);fill-opacity:1;" d="M 51.992188 28.007812 L 22.664062 28.007812 C 21.925781 28.007812 21.328125 28.605469 21.328125 29.339844 C 21.328125 30.078125 21.925781 30.675781 22.664062 30.675781 L 51.992188 30.675781 C 52.726562 30.675781 53.324219 30.078125 53.324219 29.339844 C 53.324219 28.605469 52.726562 28.007812 51.992188 28.007812 Z M 51.992188 28.007812 "/>
<path style=" stroke:none;fill-rule:nonzero;fill:rgb(0%,0%,0%);fill-opacity:1;" d="M 38.660156 37.339844 C 38.660156 36.605469 38.0625 36.007812 37.328125 36.007812 L 10.664062 36.007812 C 9.929688 36.007812 9.332031 36.605469 9.332031 37.339844 C 9.332031 38.078125 9.929688 38.671875 10.664062 38.671875 L 37.328125 38.671875 C 38.0625 38.671875 38.660156 38.078125 38.660156 37.339844 Z M 38.660156 37.339844 "/>
<path style=" stroke:none;fill-rule:nonzero;fill:rgb(0%,0%,0%);fill-opacity:1;" d="M 51.992188 36.007812 L 42.660156 36.007812 C 41.921875 36.007812 41.328125 36.605469 41.328125 37.339844 C 41.328125 38.078125 41.921875 38.671875 42.660156 38.671875 L 51.992188 38.671875 C 52.726562 38.671875 53.324219 38.078125 53.324219 37.339844 C 53.324219 36.605469 52.726562 36.007812 51.992188 36.007812 Z M 51.992188 36.007812 "/>
<path style=" stroke:none;fill-rule:nonzero;fill:rgb(0%,0%,0%);fill-opacity:1;" d="M 23.996094 45.339844 C 24.730469 45.339844 25.328125 44.742188 25.328125 44.003906 C 25.328125 43.269531 24.730469 42.671875 23.996094 42.671875 L 10.664062 42.671875 C 9.929688 42.671875 9.332031 43.269531 9.332031 44.003906 C 9.332031 44.742188 9.929688 45.339844 10.664062 45.339844 Z M 23.996094 45.339844 "/>
<path style=" stroke:none;fill-rule:nonzero;fill:rgb(0%,0%,0%);fill-opacity:1;" d="M 29.328125 45.339844 L 38.660156 45.339844 C 39.394531 45.339844 39.992188 44.742188 39.992188 44.003906 C 39.992188 43.269531 39.394531 42.671875 38.660156 42.671875 L 29.328125 42.671875 C 28.59375 42.671875 27.996094 43.269531 27.996094 44.003906 C 27.996094 44.742188 28.59375 45.339844 29.328125 45.339844 Z M 29.328125 45.339844 "/>
<path style=" stroke:none;fill-rule:nonzero;fill:rgb(0%,0%,0%);fill-opacity:1;" d="M 59.988281 61.335938 C 59.253906 61.335938 58.65625 61.933594 58.65625 62.667969 L 58.65625 76 C 58.65625 76.738281 58.058594 77.332031 57.324219 77.332031 L 4 77.332031 C 3.261719 77.332031 2.667969 76.738281 2.667969 76 L 2.667969 4.011719 C 2.667969 3.277344 3.261719 2.679688 4 2.679688 L 57.324219 2.679688 C 58.058594 2.679688 58.65625 3.277344 58.65625 4.011719 L 58.65625 29.046875 C 58.65625 29.785156 59.253906 30.382812 59.988281 30.382812 C 60.726562 30.382812 61.324219 29.785156 61.324219 29.046875 L 61.324219 4.011719 C 61.324219 1.804688 59.53125 0.0117188 57.324219 0.0117188 L 4 0.0117188 C 1.789062 0.0117188 0 1.804688 0 4.011719 L 0 76 C 0 78.210938 1.789062 80 4 80 L 57.324219 80 C 59.53125 80 61.324219 78.210938 61.324219 76 L 61.324219 62.667969 C 61.324219 61.933594 60.726562 61.335938 59.988281 61.335938 Z M 59.988281 61.335938 "/>
</g>
</svg>
