<?xml version="1.0" encoding="UTF-8"?>
<svg xmlns="http://www.w3.org/2000/svg" xmlns:xlink="http://www.w3.org/1999/xlink" width="80px" height="80px" viewBox="0 0 80 80" version="1.1">
<g id="surface1">
<path style=" stroke:none;fill-rule:nonzero;fill:rgb(0%,0%,0%);fill-opacity:1;" d="M 55.84375 44.214844 C 58.480469 42.5625 60.792969 40.5 62.730469 38.074219 L 69.851562 38.074219 C 74.140625 38.074219 77.628906 34.585938 77.628906 30.296875 L 77.628906 7.777344 C 77.628906 3.488281 74.140625 0 69.851562 0 L 31.414062 0 C 27.125 0 23.636719 3.488281 23.636719 7.777344 L 23.636719 30.296875 C 23.636719 34.585938 27.125 38.074219 31.414062 38.074219 L 34.085938 38.074219 L 35.875 42.394531 L 31.023438 45.433594 C 30.238281 44.175781 29.683594 43.285156 29.636719 43.210938 C 25.316406 36.3125 16.1875 34.214844 9.289062 38.535156 C 2.394531 42.855469 0.296875 51.980469 4.617188 58.878906 C 7.414062 63.347656 12.230469 65.800781 17.152344 65.800781 C 19.824219 65.800781 22.53125 65.078125 24.960938 63.554688 L 40.585938 53.769531 L 47.675781 70.886719 C 50.027344 76.566406 55.539062 80 61.332031 80 C 63.210938 80 65.121094 79.640625 66.964844 78.875 C 74.480469 75.761719 78.066406 67.109375 74.953125 59.589844 C 73.441406 55.949219 70.605469 53.109375 66.964844 51.601562 C 63.320312 50.09375 59.308594 50.09375 55.664062 51.601562 C 55.582031 51.632812 54.613281 52.039062 53.246094 52.609375 L 51.019531 47.234375 Z M 54.597656 42.226562 L 50.109375 45.039062 L 49.957031 44.671875 L 47.226562 38.074219 L 59.632812 38.074219 C 58.148438 39.667969 56.460938 41.0625 54.597656 42.226562 Z M 69.851562 35.730469 L 46.253906 35.730469 L 39.046875 18.332031 L 75.285156 18.332031 L 75.285156 30.296875 C 75.285156 33.292969 72.847656 35.730469 69.851562 35.730469 Z M 31.414062 2.34375 L 69.851562 2.34375 C 72.847656 2.34375 75.285156 4.78125 75.285156 7.777344 L 75.285156 8.808594 L 65.863281 8.808594 C 65.214844 8.808594 64.691406 9.335938 64.691406 9.980469 C 64.691406 10.628906 65.214844 11.152344 65.863281 11.152344 L 75.285156 11.152344 L 75.285156 15.988281 L 38.078125 15.988281 L 37.109375 13.648438 C 36.9375 13.230469 36.539062 12.953125 36.089844 12.925781 C 35.632812 12.902344 35.214844 13.140625 34.996094 13.535156 C 34.558594 14.339844 34.167969 15.15625 33.8125 15.988281 L 25.980469 15.988281 L 25.980469 11.152344 L 61.183594 11.152344 C 61.828125 11.152344 62.355469 10.628906 62.355469 9.980469 C 62.355469 9.335938 61.828125 8.808594 61.183594 8.808594 L 25.980469 8.808594 L 25.980469 7.777344 C 25.980469 4.78125 28.417969 2.34375 31.414062 2.34375 Z M 25.980469 30.296875 L 25.980469 18.332031 L 32.941406 18.332031 C 31.125 23.976562 31.183594 30.054688 33.164062 35.730469 L 31.414062 35.730469 C 28.417969 35.730469 25.980469 33.292969 25.980469 30.296875 Z M 23.71875 61.570312 C 17.914062 65.203125 10.234375 63.4375 6.601562 57.636719 C 2.96875 51.832031 4.734375 44.15625 10.535156 40.523438 C 12.578125 39.242188 14.855469 38.628906 17.105469 38.628906 C 21.246094 38.628906 25.296875 40.695312 27.652344 44.453125 C 27.707031 44.539062 34.207031 55 34.207031 55 Z M 56.5625 53.765625 C 59.625 52.496094 63.003906 52.496094 66.066406 53.765625 C 69.128906 55.035156 71.515625 57.421875 72.785156 60.488281 C 75.40625 66.8125 72.390625 74.089844 66.066406 76.710938 C 59.742188 79.332031 52.460938 76.316406 49.839844 69.992188 L 45.105469 58.554688 C 45.105469 58.554688 56.464844 53.804688 56.5625 53.765625 Z M 44.207031 56.386719 L 41.402344 49.617188 C 41.152344 49.019531 40.46875 48.734375 39.871094 48.980469 C 39.273438 49.230469 38.988281 49.914062 39.238281 50.511719 L 39.675781 51.574219 L 36.199219 53.753906 C 35.320312 52.34375 33.679688 49.710938 32.257812 47.425781 L 36.785156 44.589844 L 37.445312 46.191406 C 37.691406 46.789062 38.378906 47.074219 38.976562 46.824219 C 39.574219 46.578125 39.859375 45.894531 39.613281 45.292969 L 35.898438 36.324219 C 33.300781 30.058594 33.34375 23.132812 35.945312 16.960938 L 51.082031 53.511719 C 48.601562 54.550781 45.738281 55.746094 44.207031 56.386719 Z M 44.207031 56.386719 "/>
<path style=" stroke:none;fill-rule:nonzero;fill:rgb(0%,0%,0%);fill-opacity:1;" d="M 52.40625 68.929688 C 53.394531 71.308594 55.246094 73.160156 57.625 74.144531 C 58.816406 74.636719 60.0625 74.882812 61.3125 74.882812 C 62.5625 74.882812 63.8125 74.636719 65.003906 74.144531 C 67.382812 73.160156 69.234375 71.304688 70.21875 68.925781 C 71.207031 66.546875 71.207031 63.929688 70.21875 61.550781 C 69.234375 59.171875 67.382812 57.316406 65.003906 56.332031 C 62.625 55.347656 60.003906 55.347656 57.625 56.332031 C 52.714844 58.367188 50.371094 64.019531 52.40625 68.929688 Z M 58.519531 58.496094 C 59.421875 58.125 60.367188 57.9375 61.3125 57.9375 C 62.261719 57.9375 63.207031 58.125 64.105469 58.496094 C 65.90625 59.242188 67.308594 60.644531 68.054688 62.445312 C 68.800781 64.246094 68.800781 66.230469 68.054688 68.03125 C 67.308594 69.832031 65.90625 71.234375 64.105469 71.980469 C 63.195312 72.355469 62.253906 72.535156 61.324219 72.535156 C 58.460938 72.535156 55.734375 70.835938 54.574219 68.03125 C 53.03125 64.316406 54.804688 60.039062 58.519531 58.496094 Z M 58.519531 58.496094 "/>
<path style=" stroke:none;fill-rule:nonzero;fill:rgb(0%,0%,0%);fill-opacity:1;" d="M 19.285156 41.648438 C 16.773438 41.074219 14.191406 41.507812 12.011719 42.875 C 9.828125 44.242188 8.308594 46.375 7.730469 48.886719 C 7.152344 51.394531 7.589844 53.980469 8.957031 56.160156 C 10.324219 58.34375 12.457031 59.863281 14.96875 60.441406 C 15.691406 60.605469 16.421875 60.6875 17.144531 60.6875 C 18.933594 60.6875 20.691406 60.1875 22.242188 59.214844 C 26.746094 56.394531 28.117188 50.433594 25.296875 45.929688 C 23.929688 43.746094 21.792969 42.226562 19.285156 41.648438 Z M 21 57.230469 C 19.347656 58.261719 17.390625 58.59375 15.492188 58.15625 C 13.59375 57.71875 11.976562 56.570312 10.941406 54.917969 C 9.90625 53.265625 9.578125 51.308594 10.015625 49.410156 C 10.453125 47.511719 11.601562 45.894531 13.253906 44.859375 C 14.429688 44.125 15.757812 43.746094 17.113281 43.746094 C 17.660156 43.746094 18.210938 43.808594 18.757812 43.933594 C 20.660156 44.371094 22.273438 45.519531 23.308594 47.171875 C 25.445312 50.582031 24.410156 55.09375 21 57.230469 Z M 21 57.230469 "/>
<path style=" stroke:none;fill-rule:nonzero;fill:rgb(0%,0%,0%);fill-opacity:1;" d="M 42.605469 44.964844 C 43.003906 45.902344 44.378906 45.914062 44.769531 44.964844 C 44.957031 44.519531 44.839844 43.984375 44.484375 43.65625 C 44.105469 43.308594 43.527344 43.25 43.085938 43.511719 C 42.589844 43.808594 42.394531 44.433594 42.605469 44.964844 Z M 42.605469 44.964844 "/>
<path style=" stroke:none;fill-rule:nonzero;fill:rgb(0%,0%,0%);fill-opacity:1;" d="M 49.558594 20.691406 L 44.058594 20.691406 C 43.414062 20.691406 42.886719 21.21875 42.886719 21.863281 C 42.886719 22.511719 43.414062 23.035156 44.058594 23.035156 L 49.558594 23.035156 C 50.207031 23.035156 50.730469 22.511719 50.730469 21.863281 C 50.730469 21.21875 50.207031 20.691406 49.558594 20.691406 Z M 49.558594 20.691406 "/>
<path style=" stroke:none;fill-rule:nonzero;fill:rgb(0%,0%,0%);fill-opacity:1;" d="M 59.148438 20.691406 L 53.652344 20.691406 C 53.003906 20.691406 52.480469 21.21875 52.480469 21.863281 C 52.480469 22.511719 53.003906 23.035156 53.652344 23.035156 L 59.148438 23.035156 C 59.796875 23.035156 60.320312 22.511719 60.320312 21.863281 C 60.320312 21.21875 59.796875 20.691406 59.148438 20.691406 Z M 59.148438 20.691406 "/>
<path style=" stroke:none;fill-rule:nonzero;fill:rgb(0%,0%,0%);fill-opacity:1;" d="M 68.742188 20.691406 L 63.242188 20.691406 C 62.597656 20.691406 62.070312 21.21875 62.070312 21.863281 C 62.070312 22.511719 62.597656 23.035156 63.242188 23.035156 L 68.742188 23.035156 C 69.390625 23.035156 69.914062 22.511719 69.914062 21.863281 C 69.914062 21.21875 69.390625 20.691406 68.742188 20.691406 Z M 68.742188 20.691406 "/>
</g>
</svg>
