<?xml version="1.0" encoding="UTF-8"?>
<svg xmlns="http://www.w3.org/2000/svg" xmlns:xlink="http://www.w3.org/1999/xlink" width="80px" height="80px" viewBox="0 0 80 80" version="1.1">
<g id="surface1">
<path style=" stroke:none;fill-rule:nonzero;fill:rgb(0%,0%,0%);fill-opacity:1;" d="M 30.671875 37.328125 L 49.34375 37.328125 C 51.546875 37.34375 53.328125 35.5625 53.34375 33.359375 C 53.34375 32.359375 52.984375 31.390625 52.296875 30.65625 C 53.78125 29.03125 53.65625 26.515625 52.03125 25.03125 C 51.296875 24.359375 50.328125 23.984375 49.328125 23.984375 L 47.96875 23.984375 C 53.875 19.578125 55.09375 11.234375 50.703125 5.328125 C 46.296875 -0.5625 37.9375 -1.78125 32.03125 2.609375 C 26.125 7 24.90625 15.359375 29.296875 21.265625 C 30.0625 22.296875 30.984375 23.21875 32.03125 24 L 30.65625 24 C 28.453125 23.984375 26.671875 25.765625 26.65625 27.96875 C 26.65625 28.96875 27.015625 29.9375 27.703125 30.671875 C 26.21875 32.296875 26.34375 34.8125 27.96875 36.296875 C 28.703125 36.96875 29.671875 37.34375 30.671875 37.328125 Z M 49.328125 34.671875 L 30.671875 34.671875 C 29.9375 34.671875 29.34375 34.078125 29.34375 33.34375 C 29.34375 32.609375 29.9375 32.015625 30.671875 32.015625 L 49.34375 32.015625 C 50.078125 32.015625 50.671875 32.609375 50.671875 33.34375 C 50.671875 34.078125 50.0625 34.671875 49.328125 34.671875 Z M 29.328125 13.328125 C 29.328125 7.4375 34.109375 2.65625 40 2.65625 C 45.890625 2.65625 50.671875 7.4375 50.671875 13.328125 C 50.671875 19.21875 45.890625 24 40 24 C 34.109375 24 29.34375 19.21875 29.328125 13.328125 Z M 30.671875 26.671875 L 49.34375 26.671875 C 50.078125 26.671875 50.671875 27.265625 50.671875 28 C 50.671875 28.734375 50.078125 29.328125 49.34375 29.328125 L 30.671875 29.328125 C 29.9375 29.328125 29.34375 28.734375 29.34375 28 C 29.34375 27.265625 29.9375 26.671875 30.671875 26.671875 Z M 30.671875 26.671875 "/>
<path style=" stroke:none;fill-rule:nonzero;fill:rgb(0%,0%,0%);fill-opacity:1;" d="M 13.921875 47.140625 L 8.609375 33.53125 C 7.734375 31.234375 5.15625 30.09375 2.859375 30.96875 C 0.734375 31.78125 -0.421875 34.0625 0.15625 36.25 L 4.6875 52.390625 C 5.234375 54.453125 6.75 56.125 8.734375 56.890625 L 22.40625 62.140625 L 18.8125 75.34375 C 18.71875 75.65625 18.671875 76 18.671875 76.328125 C 18.671875 78.359375 20.328125 80 22.359375 80 L 33.671875 80 C 35.703125 80 37.34375 78.34375 37.359375 76.3125 L 37.359375 49.328125 C 37.359375 45.640625 34.375 42.671875 30.6875 42.65625 L 20.15625 42.65625 C 18.171875 42.625 16.4375 44.03125 16.0625 45.984375 C 15.953125 46.65625 16.015625 47.34375 16.234375 47.984375 L 15.15625 47.984375 C 14.609375 48 14.109375 47.65625 13.921875 47.140625 Z M 20 50.671875 L 29.328125 50.671875 C 30.0625 50.671875 30.65625 50.078125 30.65625 49.34375 C 30.65625 48.609375 30.0625 48.015625 29.328125 48.015625 L 20 48.015625 C 19.265625 48.015625 18.671875 47.421875 18.671875 46.6875 C 18.671875 46.609375 18.671875 46.53125 18.6875 46.453125 C 18.84375 45.78125 19.453125 45.328125 20.140625 45.359375 L 30.671875 45.359375 C 32.875 45.359375 34.671875 47.15625 34.671875 49.359375 L 34.671875 76.34375 C 34.671875 76.90625 34.21875 77.359375 33.65625 77.359375 L 22.34375 77.359375 C 21.78125 77.359375 21.328125 76.90625 21.328125 76.34375 C 21.328125 76.25 21.34375 76.15625 21.359375 76.078125 L 25.28125 61.71875 C 25.46875 61.0625 25.109375 60.359375 24.46875 60.125 L 9.6875 54.40625 C 8.484375 53.9375 7.578125 52.9375 7.25 51.6875 L 2.71875 35.5625 C 2.484375 34.609375 3.0625 33.640625 4.015625 33.40625 C 4.890625 33.1875 5.78125 33.65625 6.109375 34.5 L 11.421875 48.109375 C 12.015625 49.65625 13.5 50.671875 15.15625 50.671875 Z M 20 50.671875 "/>
<path style=" stroke:none;fill-rule:nonzero;fill:rgb(0%,0%,0%);fill-opacity:1;" d="M 63.953125 46 C 63.578125 44.046875 61.859375 42.640625 59.859375 42.671875 L 49.328125 42.671875 C 45.640625 42.671875 42.671875 45.65625 42.65625 49.34375 L 42.65625 76.328125 C 42.65625 78.359375 44.3125 80 46.34375 80.015625 L 57.65625 80.015625 C 59.6875 80.015625 61.34375 78.359375 61.34375 76.328125 C 61.34375 76 61.296875 75.671875 61.203125 75.359375 L 57.609375 62.15625 L 71.28125 56.90625 C 73.265625 56.140625 74.765625 54.46875 75.328125 52.421875 L 79.859375 36.265625 C 80.484375 33.890625 79.0625 31.453125 76.6875 30.84375 C 74.5 30.265625 72.21875 31.4375 71.40625 33.546875 L 66.078125 47.171875 C 65.875 47.6875 65.390625 48.03125 64.828125 48.03125 L 63.765625 48.03125 C 64 47.359375 64.0625 46.671875 63.953125 46 Z M 64.828125 50.671875 C 66.484375 50.671875 67.953125 49.65625 68.5625 48.109375 L 73.890625 34.484375 C 74.234375 33.5625 75.265625 33.109375 76.1875 33.453125 C 77.03125 33.765625 77.5 34.671875 77.28125 35.53125 L 72.75 51.6875 C 72.421875 52.921875 71.515625 53.9375 70.3125 54.390625 L 55.515625 60.078125 C 54.875 60.328125 54.53125 61.015625 54.703125 61.671875 L 58.625 76.03125 C 58.765625 76.578125 58.453125 77.125 57.90625 77.28125 C 57.828125 77.296875 57.734375 77.3125 57.640625 77.3125 L 46.328125 77.3125 C 45.765625 77.3125 45.3125 76.859375 45.3125 76.296875 L 45.3125 49.328125 C 45.3125 47.125 47.109375 45.328125 49.3125 45.328125 L 59.84375 45.328125 C 60.53125 45.296875 61.140625 45.765625 61.296875 46.421875 C 61.421875 47.140625 60.9375 47.84375 60.21875 47.96875 C 60.140625 47.984375 60.0625 47.984375 59.984375 47.984375 L 50.65625 47.984375 C 49.921875 47.984375 49.328125 48.578125 49.328125 49.3125 C 49.328125 50.046875 49.921875 50.640625 50.65625 50.640625 L 64.828125 50.640625 Z M 64.828125 50.671875 "/>
<path style=" stroke:none;fill-rule:nonzero;fill:rgb(0%,0%,0%);fill-opacity:1;" d="M 35.578125 14.125 L 37.265625 14.125 C 37.40625 15.34375 37.3125 15.78125 36.34375 17.09375 L 35.3125 18.390625 C 35.03125 18.734375 34.984375 19.21875 35.171875 19.625 C 35.359375 20.03125 35.765625 20.28125 36.21875 20.296875 L 44.3125 20.375 L 44.328125 20.375 C 44.96875 20.375 45.5 19.859375 45.5 19.21875 C 45.5 18.578125 44.984375 18.046875 44.34375 18.03125 L 38.609375 17.984375 C 39.53125 16.640625 39.78125 15.6875 39.640625 14.140625 L 41.25 14.140625 C 41.890625 14.140625 42.421875 13.609375 42.421875 12.96875 C 42.421875 12.328125 41.890625 11.796875 41.25 11.796875 L 39.015625 11.796875 C 38.640625 11.203125 38.015625 10.0625 38.03125 9.140625 C 38.03125 8.546875 38.28125 8.125 38.8125 7.8125 C 39.640625 7.34375 40.984375 7.328125 41.75 7.796875 C 42.359375 8.15625 42.8125 8.671875 42.9375 9.125 C 43.109375 9.75 43.765625 10.109375 44.390625 9.9375 C 45.015625 9.765625 45.375 9.109375 45.203125 8.484375 C 44.90625 7.453125 44.109375 6.484375 42.984375 5.796875 C 41.5 4.890625 39.265625 4.890625 37.6875 5.78125 C 36.40625 6.5 35.703125 7.703125 35.703125 9.140625 C 35.703125 10.09375 36.015625 11.03125 36.359375 11.796875 L 35.578125 11.796875 C 34.9375 11.796875 34.40625 12.328125 34.40625 12.96875 C 34.40625 13.59375 34.921875 14.125 35.578125 14.125 Z M 35.578125 14.125 "/>
</g>
</svg>
