<?xml version="1.0" encoding="UTF-8"?>
<svg xmlns="http://www.w3.org/2000/svg" xmlns:xlink="http://www.w3.org/1999/xlink" width="80px" height="80px" viewBox="0 0 80 80" version="1.1">
<g id="surface1">
<path style=" stroke:none;fill-rule:nonzero;fill:rgb(0%,0%,0%);fill-opacity:1;" d="M 72 10.667969 L 8 10.667969 C 3.582031 10.667969 0 14.25 0 18.667969 L 0 61.332031 C 0 65.75 3.582031 69.332031 8 69.332031 L 72 69.332031 C 76.417969 69.332031 80 65.75 80 61.332031 L 80 18.667969 C 80 14.25 76.417969 10.667969 72 10.667969 Z M 46.757812 42.058594 C 46.652344 42.238281 46.515625 42.398438 46.355469 42.527344 C 46.183594 42.667969 45.992188 42.78125 45.785156 42.859375 C 45.5625 42.945312 45.328125 42.988281 45.09375 42.984375 L 38.015625 42.984375 L 37.621094 46.40625 C 37.527344 47.207031 37.324219 47.992188 37.019531 48.734375 C 36.71875 49.4375 36.308594 50.082031 35.796875 50.648438 C 36.476562 50.492188 37.148438 50.378906 37.816406 50.289062 C 38.480469 50.199219 39.144531 50.152344 39.8125 50.152344 L 50.535156 50.152344 L 50.203125 52.636719 C 50.15625 52.957031 50.050781 53.265625 49.890625 53.546875 C 49.726562 53.855469 49.515625 54.132812 49.265625 54.375 C 49.003906 54.628906 48.699219 54.835938 48.367188 54.984375 C 48.023438 55.144531 47.652344 55.226562 47.273438 55.222656 L 27.476562 55.222656 L 27.96875 51.5 C 28.90625 51.308594 29.621094 50.941406 30.109375 50.40625 C 30.601562 49.867188 30.910156 49.085938 31.03125 48.0625 L 31.65625 42.992188 L 28.636719 42.992188 L 28.949219 40.566406 C 28.980469 40.378906 29.046875 40.203125 29.148438 40.039062 C 29.253906 39.863281 29.390625 39.703125 29.550781 39.570312 C 29.722656 39.429688 29.914062 39.316406 30.121094 39.234375 C 30.339844 39.140625 30.574219 39.09375 30.8125 39.097656 L 32.140625 39.097656 L 32.695312 34.53125 C 32.855469 33.230469 33.238281 31.96875 33.820312 30.796875 C 34.402344 29.625 35.199219 28.570312 36.164062 27.691406 C 37.179688 26.773438 38.355469 26.054688 39.632812 25.570312 C 41.066406 25.027344 42.589844 24.765625 44.125 24.789062 C 45.199219 24.769531 46.277344 24.910156 47.3125 25.203125 C 48.160156 25.445312 48.960938 25.828125 49.6875 26.328125 C 50.355469 26.804688 50.929688 27.398438 51.382812 28.078125 C 51.847656 28.773438 52.226562 29.519531 52.523438 30.304688 L 49.832031 31.898438 C 49.324219 32.15625 48.757812 32.285156 48.1875 32.269531 C 47.664062 32.242188 47.207031 31.992188 46.8125 31.523438 C 46.5625 31.21875 46.328125 30.960938 46.117188 30.742188 C 45.914062 30.53125 45.6875 30.351562 45.433594 30.203125 C 45.175781 30.058594 44.894531 29.957031 44.605469 29.90625 C 44.238281 29.835938 43.871094 29.804688 43.5 29.8125 C 42.375 29.785156 41.292969 30.222656 40.507812 31.023438 C 39.699219 31.828125 39.207031 32.984375 39.027344 34.488281 L 38.46875 39.105469 L 47.246094 39.105469 L 46.953125 41.523438 C 46.921875 41.714844 46.855469 41.894531 46.757812 42.058594 Z M 46.757812 42.058594 "/>
</g>
</svg>
