<?xml version="1.0" encoding="UTF-8"?>
<svg xmlns="http://www.w3.org/2000/svg" xmlns:xlink="http://www.w3.org/1999/xlink" width="80px" height="80px" viewBox="0 0 80 80" version="1.1">
<g id="surface1">
<path style=" stroke:none;fill-rule:nonzero;fill:rgb(0%,0%,0%);fill-opacity:1;" d="M 64.921875 69.675781 L 61.9375 60.714844 C 60.890625 57.585938 58.230469 55.277344 54.984375 54.683594 L 46.359375 53.117188 L 46.359375 52.449219 C 47.859375 51.578125 49.164062 50.410156 50.207031 49.03125 L 52.8125 49.03125 C 54.945312 49.03125 56.683594 47.296875 56.683594 45.160156 L 56.683594 29.675781 C 56.683594 20.429688 49.15625 12.902344 39.90625 12.902344 C 30.660156 12.902344 23.132812 20.429688 23.132812 29.675781 L 23.132812 38.710938 C 23.132812 41.199219 24.902344 43.277344 27.25 43.765625 C 27.972656 47.472656 30.289062 50.609375 33.457031 52.449219 L 33.457031 53.117188 L 24.832031 54.683594 C 21.585938 55.277344 18.921875 57.585938 17.878906 60.714844 L 17.363281 62.265625 L 12.96875 57.871094 C 12.464844 57.367188 12.464844 56.546875 12.96875 56.042969 L 18.066406 50.949219 L 8.5 41.382812 L 2.738281 47.140625 C 1.03125 48.847656 0.09375 51.117188 0.09375 53.527344 C 0.09375 55.941406 1.03125 58.210938 2.738281 59.914062 L 20.175781 77.355469 C 21.882812 79.058594 24.152344 80 26.566406 80 C 28.976562 80 31.246094 79.058594 32.910156 77.390625 L 39.195312 71.632812 L 37.234375 69.675781 Z M 54.101562 45.160156 C 54.101562 45.875 53.523438 46.453125 52.8125 46.453125 L 51.726562 46.453125 C 52.101562 45.597656 52.382812 44.699219 52.566406 43.765625 C 53.121094 43.648438 53.628906 43.429688 54.101562 43.152344 Z M 52.8125 40.929688 L 52.8125 36.488281 C 53.578125 36.933594 54.101562 37.757812 54.101562 38.710938 C 54.101562 39.660156 53.578125 40.484375 52.8125 40.929688 Z M 27.003906 40.929688 C 26.238281 40.484375 25.714844 39.660156 25.714844 38.710938 C 25.714844 37.757812 26.238281 36.933594 27.003906 36.488281 Z M 27.003906 32.257812 L 27.003906 33.730469 C 26.546875 33.851562 26.113281 34.03125 25.714844 34.265625 L 25.714844 29.675781 C 25.714844 21.851562 32.082031 15.484375 39.90625 15.484375 C 47.734375 15.484375 54.101562 21.851562 54.101562 29.675781 L 54.101562 34.265625 C 53.703125 34.03125 53.269531 33.851562 52.8125 33.730469 L 52.8125 32.257812 L 51.519531 32.257812 C 47.707031 32.257812 44.117188 30.773438 41.417969 28.074219 L 39.90625 26.5625 L 38.398438 28.074219 C 35.699219 30.773438 32.109375 32.257812 28.292969 32.257812 Z M 29.585938 41.289062 L 29.585938 34.789062 C 33.460938 34.5 37.074219 32.898438 39.90625 30.203125 C 42.742188 32.898438 46.355469 34.5 50.230469 34.789062 L 50.230469 41.289062 C 50.230469 43.171875 49.714844 44.929688 48.835938 46.453125 L 39.90625 46.453125 L 39.90625 49.03125 L 46.714844 49.03125 C 44.894531 50.632812 42.515625 51.613281 39.90625 51.613281 C 34.214844 51.613281 29.585938 46.980469 29.585938 41.289062 Z M 43.777344 53.597656 L 43.777344 53.660156 L 39.90625 57.53125 L 36.035156 53.660156 L 36.035156 53.597656 C 37.261719 53.984375 38.558594 54.195312 39.90625 54.195312 C 41.257812 54.195312 42.554688 53.984375 43.777344 53.597656 Z M 20.324219 61.53125 C 21.070312 59.296875 22.972656 57.644531 25.292969 57.222656 L 34.3125 55.582031 L 39.90625 61.179688 L 45.503906 55.585938 L 54.519531 57.222656 C 56.839844 57.644531 58.742188 59.296875 59.488281 61.53125 L 61.34375 67.097656 L 34.65625 67.097656 L 29.628906 62.070312 L 24.042969 67.121094 C 23.558594 67.613281 22.707031 67.613281 22.21875 67.121094 L 19.402344 64.304688 Z M 8.496094 45.03125 L 14.414062 50.949219 L 13.011719 52.351562 L 7.097656 46.433594 Z M 31.125 75.53125 C 29.90625 76.746094 28.285156 77.417969 26.5625 77.417969 C 24.839844 77.417969 23.21875 76.746094 22 75.527344 L 4.5625 58.089844 C 3.34375 56.875 2.671875 55.253906 2.671875 53.53125 C 2.671875 51.804688 3.34375 50.1875 4.5625 48.96875 L 5.269531 48.257812 L 11.1875 54.175781 L 11.140625 54.222656 C 9.632812 55.730469 9.632812 58.1875 11.140625 59.695312 L 20.394531 68.949219 C 21.125 69.679688 22.097656 70.082031 23.132812 70.082031 C 24.167969 70.082031 25.140625 69.679688 25.824219 68.996094 L 25.917969 68.910156 L 31.863281 74.851562 Z M 33.769531 73.105469 L 27.835938 67.175781 L 29.542969 65.632812 L 35.460938 71.554688 Z M 33.769531 73.105469 "/>
<path style=" stroke:none;fill-rule:nonzero;fill:rgb(0%,0%,0%);fill-opacity:1;" d="M 76.035156 0 L 57.972656 0 C 55.839844 0 54.101562 1.738281 54.101562 3.871094 L 54.101562 14.195312 C 54.101562 16.328125 55.839844 18.066406 57.972656 18.066406 L 61.417969 18.066406 L 60.085938 25.847656 L 72.535156 18.066406 L 76.035156 18.066406 C 78.171875 18.066406 79.90625 16.328125 79.90625 14.195312 L 79.90625 3.871094 C 79.90625 1.738281 78.171875 0 76.035156 0 Z M 77.328125 14.195312 C 77.328125 14.90625 76.746094 15.484375 76.035156 15.484375 L 71.796875 15.484375 L 63.601562 20.605469 L 64.480469 15.484375 L 57.972656 15.484375 C 57.261719 15.484375 56.683594 14.90625 56.683594 14.195312 L 56.683594 3.871094 C 56.683594 3.160156 57.261719 2.582031 57.972656 2.582031 L 76.035156 2.582031 C 76.746094 2.582031 77.328125 3.160156 77.328125 3.871094 Z M 77.328125 14.195312 "/>
<path style=" stroke:none;fill-rule:nonzero;fill:rgb(0%,0%,0%);fill-opacity:1;" d="M 59.261719 5.160156 L 74.746094 5.160156 L 74.746094 7.742188 L 59.261719 7.742188 Z M 59.261719 5.160156 "/>
<path style=" stroke:none;fill-rule:nonzero;fill:rgb(0%,0%,0%);fill-opacity:1;" d="M 59.261719 10.324219 L 69.585938 10.324219 L 69.585938 12.902344 L 59.261719 12.902344 Z M 59.261719 10.324219 "/>
<path style=" stroke:none;fill-rule:nonzero;fill:rgb(0%,0%,0%);fill-opacity:1;" d="M 72.164062 10.324219 L 74.746094 10.324219 L 74.746094 12.902344 L 72.164062 12.902344 Z M 72.164062 10.324219 "/>
<path style=" stroke:none;fill-rule:nonzero;fill:rgb(0%,0%,0%);fill-opacity:1;" d="M 39.90625 3.871094 C 23.046875 3.871094 8.527344 15.53125 4.75 31.800781 L 2.304688 27.722656 L 0.09375 29.050781 L 4.628906 36.609375 L 12.183594 32.074219 L 10.855469 29.859375 L 7.359375 31.957031 C 11.015625 17.078125 24.398438 6.453125 39.90625 6.453125 C 43.296875 6.453125 46.640625 6.953125 49.847656 7.949219 L 50.613281 5.484375 C 47.15625 4.414062 43.558594 3.871094 39.90625 3.871094 Z M 39.90625 3.871094 "/>
<path style=" stroke:none;fill-rule:nonzero;fill:rgb(0%,0%,0%);fill-opacity:1;" d="M 79.28125 28.570312 L 71.722656 24.035156 L 67.1875 31.59375 L 69.402344 32.921875 L 71.660156 29.15625 C 72.847656 32.636719 73.457031 36.273438 73.457031 40 C 73.457031 47.671875 70.796875 55.175781 65.972656 61.121094 L 67.976562 62.75 C 73.175781 56.34375 76.035156 48.261719 76.035156 40 C 76.035156 36.054688 75.402344 32.199219 74.160156 28.507812 L 77.953125 30.785156 Z M 79.28125 28.570312 "/>
</g>
</svg>
