<?xml version="1.0" encoding="UTF-8"?>
<svg xmlns="http://www.w3.org/2000/svg" xmlns:xlink="http://www.w3.org/1999/xlink" width="80px" height="80px" viewBox="0 0 80 80" version="1.1">
<g id="surface1">
<path style=" stroke:none;fill-rule:nonzero;fill:rgb(0%,0%,0%);fill-opacity:1;" d="M 22.390625 18.714844 C 22.511719 18.726562 22.636719 18.726562 22.761719 18.714844 C 23.070312 18.660156 23.296875 18.402344 23.316406 18.089844 C 23.375 17.777344 23.21875 17.464844 22.933594 17.324219 C 22.730469 17.230469 22.503906 17.183594 22.28125 17.191406 L 20.816406 17.191406 L 20.816406 17.171875 C 20.757812 17.683594 20.757812 18.199219 20.816406 18.710938 Z M 22.390625 18.714844 "/>
<path style=" stroke:none;fill-rule:nonzero;fill:rgb(0%,0%,0%);fill-opacity:1;" d="M 10.660156 36.863281 C 10.542969 36.820312 10.421875 36.804688 10.296875 36.8125 L 8.605469 36.8125 L 8.59375 38.667969 L 10.496094 38.667969 C 10.855469 38.648438 11.148438 38.378906 11.203125 38.023438 C 11.285156 37.796875 11.273438 37.546875 11.171875 37.328125 C 11.070312 37.113281 10.886719 36.945312 10.660156 36.863281 Z M 10.660156 36.863281 "/>
<path style=" stroke:none;fill-rule:nonzero;fill:rgb(0%,0%,0%);fill-opacity:1;" d="M 35.21875 14.722656 C 35.070312 14.625 34.894531 14.578125 34.71875 14.585938 L 33 14.585938 C 32.988281 15.195312 32.988281 15.722656 33 16.234375 L 34.890625 16.234375 C 35.128906 16.234375 35.351562 16.101562 35.457031 15.886719 C 35.710938 15.496094 35.605469 14.976562 35.21875 14.722656 Z M 35.21875 14.722656 "/>
<path style=" stroke:none;fill-rule:nonzero;fill:rgb(0%,0%,0%);fill-opacity:1;" d="M 20.902344 15.960938 L 22.421875 15.960938 C 22.570312 15.953125 22.714844 15.910156 22.847656 15.84375 C 23.074219 15.730469 23.199219 15.488281 23.160156 15.242188 C 23.171875 15.011719 23.03125 14.800781 22.8125 14.726562 C 22.660156 14.667969 22.496094 14.636719 22.332031 14.628906 L 20.800781 14.628906 L 20.8125 15.960938 Z M 20.902344 15.960938 "/>
<path style=" stroke:none;fill-rule:nonzero;fill:rgb(0%,0%,0%);fill-opacity:1;" d="M 79.988281 43.367188 C 79.988281 43.332031 79.980469 43.292969 79.964844 43.261719 L 79.914062 43.148438 C 79.878906 43.058594 79.839844 42.972656 79.792969 42.886719 L 79.550781 42.429688 C 79.273438 41.902344 78.996094 41.375 78.695312 40.855469 C 78.242188 40.082031 77.703125 39.359375 77.089844 38.703125 C 76.578125 38.132812 75.96875 37.65625 75.289062 37.296875 C 74.703125 36.996094 74.046875 36.875 73.394531 36.941406 C 72.292969 37.066406 71.207031 37.285156 70.144531 37.597656 C 69.316406 37.859375 68.503906 38.167969 67.710938 38.519531 L 67.710938 14.882812 C 67.714844 10.054688 63.800781 6.144531 58.976562 6.144531 L 8.738281 6.144531 C 3.910156 6.144531 0 10.054688 0 14.882812 L 0 65.117188 C 0 69.945312 3.910156 73.855469 8.738281 73.855469 L 58.976562 73.855469 C 63.800781 73.855469 67.714844 69.945312 67.710938 65.117188 L 67.710938 49.257812 C 70.480469 47.597656 73.390625 46.179688 76.40625 45.027344 C 77.433594 44.617188 78.496094 44.300781 79.582031 44.089844 L 79.722656 44.089844 C 79.796875 44.089844 79.867188 44.058594 79.917969 44.007812 C 79.972656 43.953125 80 43.882812 79.996094 43.808594 Z M 60.101562 27.222656 C 60.054688 27.117188 59.984375 27.027344 59.894531 26.960938 C 59.664062 26.820312 59.421875 26.703125 59.171875 26.609375 C 58.746094 26.4375 58.308594 26.28125 57.882812 26.109375 C 57.636719 26.003906 57.417969 25.835938 57.25 25.625 C 56.753906 24.964844 56.804688 24.039062 57.371094 23.4375 C 57.570312 23.226562 57.816406 23.0625 58.089844 22.96875 C 58.8125 22.707031 59.613281 22.773438 60.277344 23.15625 C 60.625 23.355469 60.894531 23.667969 61.042969 24.039062 L 61.042969 24.171875 C 61.046875 24.199219 61.046875 24.230469 61.042969 24.257812 L 60.902344 24.335938 L 60.222656 24.5625 C 60.128906 24.609375 60.011719 24.570312 59.960938 24.476562 C 59.640625 24.015625 59.050781 23.828125 58.519531 24.015625 C 58.425781 24.050781 58.339844 24.105469 58.269531 24.171875 C 58.167969 24.253906 58.101562 24.375 58.089844 24.503906 C 58.074219 24.632812 58.113281 24.761719 58.195312 24.863281 C 58.21875 24.890625 58.242188 24.914062 58.269531 24.9375 C 58.40625 25.035156 58.558594 25.117188 58.71875 25.179688 C 59.046875 25.308594 59.382812 25.40625 59.699219 25.539062 C 59.964844 25.640625 60.21875 25.765625 60.464844 25.910156 C 61.335938 26.390625 61.652344 27.488281 61.171875 28.359375 C 61.136719 28.421875 61.097656 28.484375 61.054688 28.542969 C 60.867188 28.796875 60.613281 28.996094 60.320312 29.121094 C 59.550781 29.476562 58.660156 29.476562 57.886719 29.121094 C 57.386719 28.867188 56.996094 28.433594 56.792969 27.90625 C 56.734375 27.835938 56.691406 27.75 56.671875 27.65625 L 57.042969 27.515625 L 57.613281 27.308594 C 57.703125 27.269531 57.808594 27.308594 57.851562 27.394531 C 57.976562 27.582031 58.117188 27.753906 58.277344 27.90625 C 58.6875 28.269531 59.269531 28.355469 59.765625 28.125 C 59.929688 28.050781 60.058594 27.914062 60.121094 27.746094 C 60.1875 27.574219 60.179688 27.386719 60.101562 27.222656 Z M 51.875 26.054688 L 51.875 23.191406 C 51.875 22.929688 51.875 22.917969 52.160156 22.917969 L 52.921875 22.917969 C 53.078125 22.917969 53.109375 22.917969 53.121094 23.105469 C 53.125 23.175781 53.125 23.25 53.121094 23.324219 L 53.121094 27.699219 C 53.121094 28.046875 53.121094 28.046875 53.46875 28.046875 L 56.003906 28.046875 C 56.039062 28.039062 56.078125 28.050781 56.109375 28.070312 C 56.140625 28.09375 56.160156 28.125 56.167969 28.164062 C 56.171875 28.179688 56.171875 28.195312 56.167969 28.210938 L 56.167969 29.0625 C 56.171875 29.105469 56.15625 29.148438 56.121094 29.179688 C 56.089844 29.210938 56.046875 29.222656 56.003906 29.21875 L 52.203125 29.21875 C 51.875 29.21875 51.875 29.21875 51.875 28.878906 Z M 44.796875 28.980469 L 46.984375 23.117188 C 47.019531 22.972656 47.152344 22.878906 47.296875 22.898438 L 48.019531 22.898438 C 48.257812 22.898438 48.257812 22.898438 48.347656 23.117188 L 49 24.835938 L 50.554688 28.898438 C 50.609375 28.996094 50.652344 29.101562 50.683594 29.210938 L 49.6875 29.210938 C 49.554688 29.230469 49.429688 29.144531 49.40625 29.011719 C 49.304688 28.71875 49.1875 28.421875 49.078125 28.128906 C 48.96875 27.832031 48.976562 27.886719 48.738281 27.886719 L 46.742188 27.886719 C 46.492188 27.886719 46.492188 27.886719 46.40625 28.128906 C 46.316406 28.367188 46.1875 28.71875 46.09375 29.011719 C 46.066406 29.132812 45.953125 29.210938 45.828125 29.199219 L 44.734375 29.199219 C 44.722656 29.121094 44.746094 29.039062 44.800781 28.980469 Z M 42.328125 27.398438 L 42.328125 23.125 C 42.328125 23.058594 42.328125 22.917969 42.546875 22.917969 L 43.328125 22.917969 C 43.503906 22.917969 43.527344 22.917969 43.539062 23.136719 C 43.546875 23.355469 43.539062 23.246094 43.539062 23.292969 L 43.539062 28.871094 C 43.539062 29.242188 43.539062 29.242188 43.175781 29.242188 L 42.59375 29.242188 C 42.34375 29.242188 42.332031 29.242188 42.332031 28.96875 Z M 26.015625 13.515625 C 26.015625 13.320312 29.980469 13.460938 30.265625 13.515625 L 30.265625 14.507812 C 30.269531 14.542969 30.265625 14.578125 30.246094 14.609375 C 30.222656 14.636719 30.195312 14.660156 30.160156 14.664062 C 30.144531 14.667969 30.125 14.667969 30.109375 14.664062 L 27.226562 14.664062 L 27.226562 15.976562 L 28.945312 15.976562 C 29.007812 16.359375 29.007812 16.75 28.945312 17.132812 L 27.226562 17.132812 C 27.152344 17.636719 27.152344 18.148438 27.226562 18.652344 L 30.144531 18.652344 C 30.210938 18.644531 30.273438 18.644531 30.339844 18.652344 C 30.339844 18.652344 30.449219 18.707031 30.449219 18.738281 C 30.46875 19.101562 30.46875 19.46875 30.449219 19.832031 L 26.027344 19.800781 Z M 24.507812 22.917969 L 28.394531 22.917969 C 28.429688 22.914062 28.464844 22.925781 28.492188 22.949219 C 28.519531 22.96875 28.535156 23.003906 28.539062 23.039062 C 28.539062 23.046875 28.539062 23.054688 28.539062 23.0625 L 28.539062 23.933594 C 28.539062 23.972656 28.523438 24.007812 28.496094 24.03125 C 28.46875 24.058594 28.433594 24.070312 28.394531 24.066406 L 25.664062 24.066406 C 25.589844 24.058594 25.523438 24.109375 25.507812 24.179688 C 25.507812 24.195312 25.507812 24.214844 25.507812 24.230469 L 25.507812 25.191406 C 25.507812 25.347656 25.507812 25.367188 25.707031 25.367188 L 27.113281 25.367188 C 27.296875 25.367188 27.320312 25.367188 27.328125 25.574219 C 27.339844 25.78125 27.328125 26.054688 27.328125 26.292969 C 27.328125 26.535156 27.328125 26.523438 27.101562 26.523438 L 25.671875 26.523438 C 25.441406 26.523438 25.417969 26.523438 25.417969 26.785156 L 25.417969 27.789062 C 25.417969 28.128906 25.417969 28.039062 25.679688 28.039062 L 28.390625 28.039062 C 28.726562 28.039062 28.726562 28.039062 28.726562 28.367188 L 28.726562 28.992188 C 28.726562 29.203125 28.726562 29.191406 28.53125 29.191406 L 24.578125 29.191406 C 24.25 29.191406 24.25 29.191406 24.25 28.851562 L 24.25 23.171875 C 24.246094 22.941406 24.246094 22.917969 24.507812 22.917969 Z M 19.5625 13.472656 L 22.410156 13.472656 C 22.679688 13.472656 22.945312 13.503906 23.207031 13.570312 C 24.078125 13.800781 24.59375 14.691406 24.367188 15.558594 C 24.347656 15.625 24.328125 15.691406 24.300781 15.753906 C 24.210938 15.988281 24.0625 16.191406 23.863281 16.34375 L 23.667969 16.519531 L 23.824219 16.617188 C 24.257812 16.847656 24.539062 17.285156 24.578125 17.773438 C 24.601562 17.972656 24.601562 18.175781 24.578125 18.375 C 24.425781 19.175781 23.742188 19.765625 22.925781 19.796875 C 22.742188 19.808594 22.554688 19.808594 22.371094 19.796875 L 19.558594 19.796875 C 19.507812 19.609375 19.496094 13.75 19.5625 13.472656 Z M 12.855469 13.527344 L 13.792969 13.527344 C 13.921875 13.511719 14.046875 13.582031 14.105469 13.703125 L 15.40625 15.890625 L 15.5625 16.128906 L 15.71875 15.910156 C 16.15625 15.199219 16.578125 14.503906 17.007812 13.792969 C 17.070312 13.648438 17.21875 13.558594 17.378906 13.574219 L 18.480469 13.574219 L 18.339844 13.835938 L 16.308594 17.1875 C 16.21875 17.324219 16.175781 17.484375 16.175781 17.648438 L 16.175781 19.796875 L 14.953125 19.796875 L 14.953125 17.578125 C 14.953125 17.414062 14.90625 17.257812 14.820312 17.117188 L 12.777344 13.777344 L 12.648438 13.527344 Z M 7.230469 15.066406 C 7.382812 14.589844 7.660156 14.167969 8.039062 13.84375 C 8.484375 13.457031 9.0625 13.253906 9.65625 13.28125 C 10.375 13.257812 11.066406 13.558594 11.542969 14.101562 C 11.714844 14.300781 11.828125 14.546875 11.875 14.804688 L 10.78125 15.296875 C 10.710938 15.210938 10.644531 15.125 10.585938 15.03125 C 10.34375 14.726562 9.964844 14.554688 9.574219 14.574219 C 9.179688 14.597656 8.824219 14.808594 8.617188 15.140625 C 8.4375 15.449219 8.324219 15.792969 8.28125 16.148438 C 8.226562 16.617188 8.257812 17.09375 8.378906 17.554688 C 8.449219 17.804688 8.5625 18.042969 8.71875 18.25 C 9.039062 18.757812 9.710938 18.914062 10.222656 18.59375 C 10.320312 18.53125 10.410156 18.453125 10.484375 18.359375 C 10.609375 18.222656 10.726562 18.078125 10.835938 17.925781 L 11.929688 18.351562 C 11.695312 19.015625 11.179688 19.546875 10.523438 19.804688 C 10.011719 19.953125 9.46875 19.953125 8.960938 19.804688 C 8.347656 19.65625 7.824219 19.257812 7.515625 18.710938 C 7.21875 18.195312 7.042969 17.621094 7 17.03125 C 6.9375 16.367188 7.015625 15.699219 7.230469 15.066406 Z M 7.023438 28.859375 C 7.015625 27.914062 7.011719 26.988281 7.011719 26.074219 L 7.011719 23.261719 C 7.011719 22.921875 7.011719 22.921875 7.351562 22.921875 L 11.128906 22.921875 C 11.304688 22.921875 11.324219 22.921875 11.324219 23.121094 L 11.324219 23.902344 C 11.324219 24.164062 11.324219 24.066406 11.152344 24.078125 L 8.496094 24.078125 C 8.265625 24.078125 8.242188 24.078125 8.242188 24.316406 L 8.242188 25.167969 C 8.242188 25.453125 8.242188 25.386719 8.472656 25.386719 L 9.90625 25.386719 C 9.988281 25.382812 10.0625 25.445312 10.070312 25.527344 L 10.070312 26.382812 C 10.070312 26.65625 10.070312 26.539062 9.863281 26.539062 L 8.640625 26.539062 C 8.222656 26.539062 8.234375 26.539062 8.234375 26.941406 L 8.234375 27.707031 C 8.234375 28.066406 8.234375 28.066406 8.605469 28.066406 L 11.164062 28.066406 C 11.511719 28.066406 11.511719 28.066406 11.511719 28.40625 L 11.511719 29.03125 C 11.511719 29.238281 11.511719 29.203125 11.324219 29.214844 L 7.371094 29.214844 C 7.023438 29.21875 7.023438 29.21875 7.023438 28.859375 Z M 12.179688 39.125 C 11.746094 39.691406 11.0625 40.007812 10.351562 39.976562 L 8.59375 39.976562 L 8.59375 42.554688 L 7.273438 42.554688 L 7.273438 35.523438 L 10.1875 35.523438 C 10.558594 35.511719 10.929688 35.566406 11.28125 35.679688 C 11.933594 35.902344 12.417969 36.453125 12.5625 37.125 C 12.753906 37.8125 12.613281 38.554688 12.179688 39.125 Z M 12.472656 27.921875 C 12.480469 27.839844 12.453125 27.761719 12.394531 27.703125 C 12.441406 27.667969 12.488281 27.640625 12.539062 27.617188 L 13.320312 27.332031 C 13.476562 27.277344 13.476562 27.332031 13.589844 27.429688 C 13.714844 27.617188 13.855469 27.785156 14.015625 27.941406 C 14.417969 28.296875 14.988281 28.371094 15.46875 28.140625 C 15.628906 28.0625 15.75 27.921875 15.804688 27.757812 C 15.863281 27.589844 15.851562 27.40625 15.773438 27.246094 C 15.734375 27.171875 15.679688 27.101562 15.617188 27.046875 C 15.394531 26.882812 15.140625 26.761719 14.875 26.6875 C 14.4375 26.53125 14 26.382812 13.585938 26.183594 C 13.066406 25.976562 12.703125 25.492188 12.648438 24.933594 C 12.515625 24.089844 13.035156 23.28125 13.859375 23.058594 C 14.429688 22.859375 15.050781 22.859375 15.617188 23.058594 C 16.121094 23.25 16.519531 23.648438 16.710938 24.152344 C 16.8125 24.097656 16.832031 24.164062 16.921875 24.296875 L 15.984375 24.601562 C 15.941406 24.617188 15.894531 24.617188 15.851562 24.601562 C 15.8125 24.550781 15.78125 24.5 15.753906 24.445312 C 15.648438 24.285156 15.496094 24.164062 15.316406 24.105469 C 15.027344 24.019531 14.71875 24.019531 14.429688 24.105469 C 14.179688 24.144531 13.984375 24.351562 13.960938 24.605469 C 13.933594 24.78125 14.011719 24.957031 14.160156 25.054688 C 14.289062 25.140625 14.429688 25.214844 14.574219 25.273438 L 15.578125 25.644531 C 15.902344 25.761719 16.207031 25.921875 16.484375 26.125 C 17.117188 26.660156 17.296875 27.558594 16.921875 28.296875 C 16.621094 28.84375 16.085938 29.214844 15.46875 29.304688 C 15.015625 29.410156 14.546875 29.410156 14.09375 29.304688 C 13.363281 29.125 12.761719 28.613281 12.472656 27.921875 Z M 18.695312 42.546875 L 13.992188 42.566406 L 13.992188 35.535156 L 15.335938 35.535156 L 15.335938 41.25 L 18.695312 41.25 C 18.753906 41.679688 18.753906 42.117188 18.695312 42.546875 Z M 18.125 27.820312 C 18.121094 27.800781 18.121094 27.777344 18.125 27.757812 C 18.125 27.734375 18.125 27.714844 18.125 27.691406 L 18.265625 27.617188 L 19 27.34375 C 19.183594 27.277344 19.183594 27.277344 19.3125 27.453125 C 19.394531 27.582031 19.492188 27.707031 19.59375 27.820312 C 19.960938 28.226562 20.53125 28.375 21.046875 28.203125 C 21.320312 28.152344 21.527344 27.929688 21.5625 27.65625 C 21.636719 27.359375 21.496094 27.050781 21.222656 26.914062 C 21.011719 26.800781 20.792969 26.703125 20.570312 26.617188 C 20.140625 26.460938 19.714844 26.304688 19.300781 26.125 C 19.0625 26.023438 18.851562 25.863281 18.6875 25.65625 C 18.183594 25.003906 18.222656 24.078125 18.789062 23.46875 C 19.167969 23.09375 19.671875 22.867188 20.207031 22.835938 C 20.726562 22.789062 21.246094 22.902344 21.695312 23.164062 C 22.058594 23.375 22.339844 23.707031 22.492188 24.101562 C 22.527344 24.15625 22.558594 24.214844 22.589844 24.277344 L 22.390625 24.351562 L 21.964844 24.496094 C 21.847656 24.496094 21.714844 24.601562 21.605469 24.582031 C 21.496094 24.558594 21.464844 24.40625 21.375 24.332031 C 21.285156 24.234375 21.179688 24.152344 21.0625 24.089844 C 20.734375 23.96875 20.367188 23.96875 20.039062 24.089844 C 19.945312 24.125 19.863281 24.175781 19.796875 24.246094 C 19.585938 24.40625 19.546875 24.710938 19.707031 24.921875 C 19.730469 24.953125 19.761719 24.984375 19.796875 25.011719 C 19.925781 25.105469 20.0625 25.183594 20.210938 25.242188 L 21.238281 25.613281 C 21.609375 25.734375 21.953125 25.925781 22.253906 26.167969 C 22.59375 26.457031 22.800781 26.871094 22.824219 27.316406 C 22.886719 27.882812 22.675781 28.445312 22.253906 28.832031 C 22.105469 28.976562 21.933594 29.089844 21.742188 29.171875 C 20.910156 29.546875 19.949219 29.503906 19.152344 29.050781 C 18.671875 28.78125 18.304688 28.34375 18.125 27.820312 Z M 25.453125 35.789062 L 25.453125 39.796875 C 25.464844 40.183594 25.417969 40.566406 25.3125 40.9375 C 25.078125 41.757812 24.410156 42.386719 23.578125 42.578125 C 22.980469 42.722656 22.359375 42.722656 21.765625 42.578125 C 20.664062 42.367188 19.851562 41.429688 19.800781 40.3125 C 19.789062 40.097656 19.789062 39.882812 19.800781 39.667969 L 19.800781 35.53125 C 20.253906 35.46875 20.710938 35.46875 21.164062 35.53125 L 21.164062 39.714844 C 21.144531 39.945312 21.144531 40.175781 21.164062 40.40625 C 21.238281 40.878906 21.609375 41.25 22.082031 41.320312 C 22.445312 41.394531 22.816406 41.394531 23.175781 41.320312 C 23.582031 41.25 23.90625 40.941406 23.996094 40.539062 C 24.054688 40.308594 24.082031 40.070312 24.082031 39.832031 L 24.082031 35.804688 C 24.101562 35.714844 24.109375 35.625 24.105469 35.53125 L 25.449219 35.53125 Z M 30.828125 42.386719 C 29.871094 42.84375 28.75 42.777344 27.859375 42.210938 C 27.335938 41.871094 26.949219 41.355469 26.765625 40.757812 L 27.988281 40.300781 C 28.074219 40.445312 28.144531 40.574219 28.238281 40.695312 C 28.605469 41.253906 29.289062 41.523438 29.941406 41.359375 C 30.089844 41.328125 30.226562 41.273438 30.359375 41.195312 C 30.695312 40.976562 30.789062 40.523438 30.570312 40.183594 C 30.535156 40.128906 30.492188 40.082031 30.445312 40.039062 C 30.273438 39.90625 30.085938 39.796875 29.886719 39.710938 C 29.601562 39.589844 29.296875 39.503906 29.003906 39.398438 C 28.707031 39.292969 28.46875 39.203125 28.222656 39.085938 C 27.898438 38.945312 27.613281 38.726562 27.390625 38.453125 C 26.792969 37.625 26.980469 36.472656 27.804688 35.875 L 27.882812 35.820312 C 28.210938 35.609375 28.585938 35.476562 28.976562 35.4375 C 29.523438 35.347656 30.089844 35.410156 30.601562 35.625 C 31.101562 35.863281 31.492188 36.285156 31.695312 36.804688 L 31.695312 36.9375 C 31.734375 36.964844 31.773438 36.996094 31.804688 37.035156 L 30.625 37.433594 L 30.527344 37.277344 C 30.339844 36.933594 29.980469 36.714844 29.589844 36.707031 C 29.375 36.679688 29.160156 36.679688 28.945312 36.707031 C 28.828125 36.742188 28.71875 36.804688 28.632812 36.894531 C 28.527344 36.980469 28.457031 37.109375 28.445312 37.246094 C 28.429688 37.386719 28.472656 37.523438 28.5625 37.632812 C 28.582031 37.65625 28.605469 37.679688 28.632812 37.703125 C 28.800781 37.820312 28.984375 37.921875 29.179688 37.996094 C 29.472656 38.117188 29.789062 38.203125 30.085938 38.308594 C 30.371094 38.414062 30.652344 38.53125 30.925781 38.667969 C 31.460938 38.902344 31.859375 39.359375 32.019531 39.917969 C 32.328125 40.925781 31.804688 42.003906 30.820312 42.382812 Z M 35.074219 23.296875 L 35.074219 28.90625 C 35.074219 29.265625 35.074219 29.265625 34.714844 29.265625 L 34.265625 29.265625 C 34.078125 29.292969 33.894531 29.195312 33.808594 29.027344 C 33.515625 28.578125 33.207031 28.132812 32.902344 27.695312 L 31.535156 25.671875 L 31.265625 25.238281 L 31.242188 25.257812 L 31.242188 28.929688 C 31.242188 29.265625 31.242188 29.265625 30.902344 29.265625 L 30.257812 29.265625 C 30.085938 29.265625 30.0625 29.265625 30.050781 29.046875 C 30.039062 28.828125 30.050781 28.9375 30.050781 28.890625 L 30.050781 23.300781 C 30.050781 22.929688 30.050781 22.929688 30.421875 22.929688 L 31 22.929688 C 31.117188 22.925781 31.222656 22.984375 31.273438 23.085938 L 31.578125 23.53125 L 33.566406 26.484375 L 33.878906 26.972656 L 33.878906 23.191406 C 33.878906 22.960938 33.878906 22.941406 34.121094 22.941406 L 34.882812 22.941406 C 35.039062 22.941406 35.070312 22.941406 35.082031 23.136719 C 35.09375 23.335938 35.070312 23.246094 35.070312 23.289062 Z M 35.425781 19.617188 C 35.113281 18.960938 34.769531 18.328125 34.464844 17.671875 C 34.40625 17.496094 34.230469 17.390625 34.046875 17.421875 L 33.066406 17.421875 L 33.066406 19.679688 C 32.652344 19.738281 32.230469 19.738281 31.816406 19.679688 C 31.8125 19.605469 31.8125 19.527344 31.816406 19.453125 L 31.816406 13.582031 C 31.792969 13.648438 31.804688 13.582031 31.804688 13.484375 L 34.730469 13.484375 C 34.984375 13.480469 35.238281 13.511719 35.484375 13.570312 C 36.175781 13.71875 36.703125 14.277344 36.804688 14.976562 C 36.957031 15.597656 36.808594 16.253906 36.40625 16.75 C 36.265625 16.921875 36.089844 17.066406 35.890625 17.171875 L 35.664062 17.304688 C 36.054688 18.136719 36.472656 18.953125 36.863281 19.796875 L 35.71875 19.796875 C 35.585938 19.816406 35.460938 19.734375 35.417969 19.609375 Z M 39.304688 24.210938 C 39.300781 24.222656 39.300781 24.234375 39.304688 24.246094 L 39.304688 28.859375 C 39.304688 29.21875 39.304688 29.21875 38.941406 29.21875 L 38.363281 29.21875 L 38.125 29.210938 L 38.125 24.503906 C 38.125 24.078125 38.125 24.097656 37.71875 24.097656 L 36.519531 24.097656 C 36.300781 24.097656 36.289062 24.097656 36.277344 23.867188 C 36.265625 23.640625 36.277344 23.390625 36.277344 23.148438 C 36.277344 22.90625 36.277344 22.917969 36.519531 22.917969 L 40.777344 22.917969 C 41.117188 22.917969 41.117188 22.917969 41.117188 23.257812 L 41.117188 23.859375 C 41.117188 24.054688 41.117188 24.085938 40.886719 24.085938 L 39.46875 24.085938 C 39.429688 24.078125 39.390625 24.085938 39.355469 24.109375 C 39.324219 24.132812 39.304688 24.167969 39.296875 24.203125 Z M 49.109375 67.84375 L 49.109375 68.226562 C 49.109375 68.359375 49.109375 68.445312 48.988281 68.488281 C 48.941406 68.511719 48.882812 68.511719 48.835938 68.492188 C 48.785156 68.46875 48.746094 68.429688 48.726562 68.378906 L 48.191406 67.726562 C 46.738281 65.875 45.445312 63.90625 44.324219 61.839844 C 42.667969 58.8125 41.289062 55.640625 40.195312 52.367188 C 40.132812 52.183594 40.078125 52 40.023438 51.8125 C 39.96875 51.625 40.011719 51.625 39.988281 51.550781 C 39.992188 51.488281 40.027344 51.429688 40.085938 51.40625 C 40.140625 51.386719 40.199219 51.386719 40.25 51.40625 C 40.3125 51.449219 40.367188 51.496094 40.414062 51.550781 C 41.703125 52.804688 43.347656 53.632812 45.125 53.921875 C 46.507812 54.128906 47.921875 54.066406 49.285156 53.734375 C 50.570312 53.449219 51.8125 52.984375 52.96875 52.351562 L 53.066406 52.351562 C 53.152344 52.320312 53.25 52.34375 53.308594 52.417969 C 53.367188 52.484375 53.367188 52.582031 53.308594 52.648438 L 53.253906 52.746094 C 51.867188 54.871094 50.84375 57.210938 50.21875 59.671875 C 49.75 61.429688 49.425781 63.226562 49.257812 65.042969 C 49.167969 65.972656 49.125 66.898438 49.101562 67.839844 Z M 76.210938 44.515625 C 73.113281 45.699219 70.125 47.15625 67.285156 48.867188 C 67.246094 48.871094 67.207031 48.886719 67.171875 48.90625 C 64.6875 50.371094 62.371094 52.097656 60.261719 54.0625 C 57.679688 56.53125 55.34375 59.25 53.292969 62.171875 C 52.042969 63.921875 50.890625 65.738281 49.84375 67.617188 C 49.730469 65.496094 49.925781 63.367188 50.414062 61.304688 C 51.019531 58.660156 51.980469 56.109375 53.273438 53.726562 C 55.222656 50.113281 57.714844 46.820312 60.660156 43.960938 C 62.574219 42.074219 64.785156 40.515625 67.207031 39.351562 L 67.519531 39.195312 C 68.421875 38.777344 69.351562 38.417969 70.300781 38.125 C 71.332031 37.820312 72.386719 37.609375 73.453125 37.488281 C 73.554688 37.480469 73.648438 37.476562 73.75 37.476562 C 74.195312 37.476562 74.636719 37.582031 75.035156 37.789062 C 75.660156 38.113281 76.21875 38.550781 76.6875 39.074219 C 77.273438 39.703125 77.789062 40.394531 78.222656 41.132812 C 78.519531 41.644531 78.792969 42.164062 79.066406 42.6875 L 79.3125 43.15625 C 79.351562 43.226562 79.382812 43.296875 79.414062 43.371094 L 79.445312 43.578125 C 78.339844 43.789062 77.257812 44.105469 76.210938 44.515625 Z M 76.210938 44.515625 "/>
<path style=" stroke:none;fill-rule:nonzero;fill:rgb(0%,0%,0%);fill-opacity:1;" d="M 48.46875 26.75 C 48.265625 26.050781 48.011719 25.371094 47.703125 24.710938 L 46.90625 26.75 C 47.425781 26.824219 47.953125 26.824219 48.46875 26.75 Z M 48.46875 26.75 "/>
</g>
</svg>
