<?xml version="1.0" encoding="UTF-8"?>
<svg xmlns="http://www.w3.org/2000/svg" xmlns:xlink="http://www.w3.org/1999/xlink" width="80px" height="80px" viewBox="0 0 80 80" version="1.1">
<g id="surface1">
<path style=" stroke:none;fill-rule:nonzero;fill:rgb(0%,0%,0%);fill-opacity:1;" d="M 60 80 C 59.78125 80 59.558594 79.957031 59.351562 79.871094 C 58.558594 79.535156 40 71.511719 40 55.121094 L 40 41.191406 C 40 40.472656 40.457031 39.839844 41.132812 39.609375 L 59.464844 33.421875 C 59.8125 33.304688 60.191406 33.304688 60.535156 33.421875 L 78.867188 39.609375 C 79.542969 39.835938 80 40.472656 80 41.191406 L 80 55.121094 C 80 71.511719 61.441406 79.535156 60.648438 79.871094 C 60.441406 79.957031 60.21875 80 60 80 Z M 43.332031 42.390625 L 43.332031 55.121094 C 43.332031 67.734375 56.851562 74.980469 60 76.496094 C 63.148438 74.976562 76.667969 67.699219 76.667969 55.121094 L 76.667969 42.390625 L 60 36.761719 Z M 43.332031 42.390625 "/>
<path style=" stroke:none;fill-rule:nonzero;fill:rgb(0%,0%,0%);fill-opacity:1;" d="M 58.332031 63.332031 C 58.304688 63.332031 58.269531 63.332031 58.242188 63.328125 C 57.765625 63.304688 57.328125 63.078125 57.035156 62.707031 L 50.367188 54.375 C 49.792969 53.652344 49.90625 52.605469 50.625 52.03125 C 51.351562 51.464844 52.394531 51.578125 52.96875 52.289062 L 58.46875 59.167969 L 68.820312 48.820312 C 69.46875 48.171875 70.527344 48.171875 71.175781 48.820312 C 71.828125 49.46875 71.828125 50.527344 71.175781 51.175781 L 59.511719 62.84375 C 59.199219 63.15625 58.773438 63.332031 58.332031 63.332031 Z M 58.332031 63.332031 "/>
<path style=" stroke:none;fill-rule:nonzero;fill:rgb(0%,0%,0%);fill-opacity:1;" d="M 61.667969 26.667969 L 11.667969 26.667969 C 5.234375 26.667969 0 21.433594 0 15 C 0 8.566406 5.234375 3.332031 11.667969 3.332031 L 61.667969 3.332031 C 68.101562 3.332031 73.332031 8.566406 73.332031 15 C 73.332031 21.433594 68.101562 26.667969 61.667969 26.667969 Z M 11.667969 6.667969 C 7.070312 6.667969 3.332031 10.402344 3.332031 15 C 3.332031 19.597656 7.070312 23.332031 11.667969 23.332031 L 61.667969 23.332031 C 66.261719 23.332031 70 19.597656 70 15 C 70 10.402344 66.261719 6.667969 61.667969 6.667969 Z M 11.667969 6.667969 "/>
<path style=" stroke:none;fill-rule:nonzero;fill:rgb(0%,0%,0%);fill-opacity:1;" d="M 15 20 C 12.242188 20 10 17.757812 10 15 C 10 12.242188 12.242188 10 15 10 C 17.757812 10 20 12.242188 20 15 C 20 17.757812 17.757812 20 15 20 Z M 15 13.332031 C 14.082031 13.332031 13.332031 14.082031 13.332031 15 C 13.332031 15.917969 14.082031 16.667969 15 16.667969 C 15.917969 16.667969 16.667969 15.917969 16.667969 15 C 16.667969 14.082031 15.917969 13.332031 15 13.332031 Z M 15 13.332031 "/>
<path style=" stroke:none;fill-rule:nonzero;fill:rgb(0%,0%,0%);fill-opacity:1;" d="M 31.667969 20 C 28.910156 20 26.667969 17.757812 26.667969 15 C 26.667969 12.242188 28.910156 10 31.667969 10 C 34.421875 10 36.667969 12.242188 36.667969 15 C 36.667969 17.757812 34.421875 20 31.667969 20 Z M 31.667969 13.332031 C 30.75 13.332031 30 14.082031 30 15 C 30 15.917969 30.75 16.667969 31.667969 16.667969 C 32.582031 16.667969 33.332031 15.917969 33.332031 15 C 33.332031 14.082031 32.582031 13.332031 31.667969 13.332031 Z M 31.667969 13.332031 "/>
<path style=" stroke:none;fill-rule:nonzero;fill:rgb(0%,0%,0%);fill-opacity:1;" d="M 31.667969 46.667969 L 11.667969 46.667969 C 5.234375 46.667969 0 41.433594 0 35 C 0 31.886719 1.214844 28.960938 3.421875 26.753906 C 5.625 24.546875 8.554688 23.332031 11.667969 23.332031 L 61.667969 23.332031 C 64.273438 23.332031 66.730469 24.171875 68.761719 25.753906 C 69.488281 26.320312 69.617188 27.367188 69.050781 28.09375 C 68.484375 28.816406 67.4375 28.945312 66.710938 28.382812 C 65.269531 27.261719 63.527344 26.667969 61.667969 26.667969 L 11.667969 26.667969 C 9.445312 26.667969 7.351562 27.535156 5.777344 29.109375 C 4.199219 30.683594 3.332031 32.78125 3.332031 35 C 3.332031 39.597656 7.070312 43.332031 11.667969 43.332031 L 31.667969 43.332031 C 32.585938 43.332031 33.332031 44.078125 33.332031 45 C 33.332031 45.921875 32.585938 46.667969 31.667969 46.667969 Z M 31.667969 46.667969 "/>
<path style=" stroke:none;fill-rule:nonzero;fill:rgb(0%,0%,0%);fill-opacity:1;" d="M 15 40 C 12.242188 40 10 37.757812 10 35 C 10 32.242188 12.242188 30 15 30 C 17.757812 30 20 32.242188 20 35 C 20 37.757812 17.757812 40 15 40 Z M 15 33.332031 C 14.082031 33.332031 13.332031 34.082031 13.332031 35 C 13.332031 35.917969 14.082031 36.667969 15 36.667969 C 15.917969 36.667969 16.667969 35.917969 16.667969 35 C 16.667969 34.082031 15.917969 33.332031 15 33.332031 Z M 15 33.332031 "/>
<path style=" stroke:none;fill-rule:nonzero;fill:rgb(0%,0%,0%);fill-opacity:1;" d="M 31.667969 40 C 28.910156 40 26.667969 37.757812 26.667969 35 C 26.667969 32.242188 28.910156 30 31.667969 30 C 34.421875 30 36.667969 32.242188 36.667969 35 C 36.667969 37.757812 34.421875 40 31.667969 40 Z M 31.667969 33.332031 C 30.75 33.332031 30 34.082031 30 35 C 30 35.917969 30.75 36.667969 31.667969 36.667969 C 32.582031 36.667969 33.332031 35.917969 33.332031 35 C 33.332031 34.082031 32.582031 33.332031 31.667969 33.332031 Z M 31.667969 33.332031 "/>
<path style=" stroke:none;fill-rule:nonzero;fill:rgb(0%,0%,0%);fill-opacity:1;" d="M 31.667969 66.667969 L 11.667969 66.667969 C 5.234375 66.667969 0 61.433594 0 55 C 0 51.886719 1.214844 48.960938 3.421875 46.753906 C 5.625 44.546875 8.554688 43.332031 11.667969 43.332031 L 31.667969 43.332031 C 32.585938 43.332031 33.332031 44.078125 33.332031 45 C 33.332031 45.921875 32.585938 46.667969 31.667969 46.667969 L 11.667969 46.667969 C 9.445312 46.667969 7.351562 47.535156 5.777344 49.109375 C 4.199219 50.683594 3.332031 52.78125 3.332031 55 C 3.332031 59.597656 7.070312 63.332031 11.667969 63.332031 L 31.667969 63.332031 C 32.585938 63.332031 33.332031 64.078125 33.332031 65 C 33.332031 65.921875 32.585938 66.667969 31.667969 66.667969 Z M 31.667969 66.667969 "/>
<path style=" stroke:none;fill-rule:nonzero;fill:rgb(0%,0%,0%);fill-opacity:1;" d="M 15 60 C 12.242188 60 10 57.757812 10 55 C 10 52.242188 12.242188 50 15 50 C 17.757812 50 20 52.242188 20 55 C 20 57.757812 17.757812 60 15 60 Z M 15 53.332031 C 14.082031 53.332031 13.332031 54.082031 13.332031 55 C 13.332031 55.917969 14.082031 56.667969 15 56.667969 C 15.917969 56.667969 16.667969 55.917969 16.667969 55 C 16.667969 54.082031 15.917969 53.332031 15 53.332031 Z M 15 53.332031 "/>
<path style=" stroke:none;fill-rule:nonzero;fill:rgb(0%,0%,0%);fill-opacity:1;" d="M 31.667969 60 C 28.910156 60 26.667969 57.757812 26.667969 55 C 26.667969 52.242188 28.910156 50 31.667969 50 C 34.421875 50 36.667969 52.242188 36.667969 55 C 36.667969 57.757812 34.421875 60 31.667969 60 Z M 31.667969 53.332031 C 30.75 53.332031 30 54.082031 30 55 C 30 55.917969 30.75 56.667969 31.667969 56.667969 C 32.582031 56.667969 33.332031 55.917969 33.332031 55 C 33.332031 54.082031 32.582031 53.332031 31.667969 53.332031 Z M 31.667969 53.332031 "/>
</g>
</svg>
