<?xml version="1.0" encoding="UTF-8"?>
<svg xmlns="http://www.w3.org/2000/svg" xmlns:xlink="http://www.w3.org/1999/xlink" width="80px" height="80px" viewBox="0 0 80 80" version="1.1">
<g id="surface1">
<path style=" stroke:none;fill-rule:nonzero;fill:rgb(0%,0%,0%);fill-opacity:1;" d="M 73.21875 11.03125 C 73.875 10.46875 73.9375 9.484375 73.375 8.828125 C 73.078125 8.484375 72.640625 8.28125 72.1875 8.28125 L 65.03125 8.28125 C 58.375 3.09375 49.078125 0 40 0 C 30.5625 0 21 3.359375 14.09375 9.03125 L 11.828125 7.125 C 11.171875 6.5625 10.1875 6.65625 9.625 7.3125 C 9.40625 7.578125 9.28125 7.90625 9.265625 8.25 L 9.015625 14.09375 C 3.359375 20.9375 0 30.5625 0 40 C 0 48.28125 2.609375 56.875 7.046875 63.3125 L 5.4375 64.640625 C 4.765625 65.1875 4.6875 66.171875 5.234375 66.84375 C 5.46875 67.125 5.8125 67.328125 6.171875 67.390625 L 11.125 68.234375 C 18.390625 75.625 29.25 80 40 80 C 50.484375 80 60.875 75.921875 68.0625 69.03125 L 70.78125 70.96875 C 71.484375 71.46875 72.453125 71.3125 72.953125 70.609375 C 73.171875 70.3125 73.265625 69.9375 73.234375 69.5625 L 72.75 63.59375 C 77.296875 57.1875 80 48.40625 80 40 C 80 30.25 76.4375 20.46875 70.421875 13.453125 Z M 13.09375 12.28125 C 13.6875 12.78125 14.5625 12.765625 15.140625 12.25 C 21.546875 6.53125 30.828125 3.125 40 3.125 C 46.828125 3.125 53.796875 5 59.453125 8.28125 L 55.828125 8.28125 C 54.96875 8.28125 54.265625 8.984375 54.265625 9.84375 C 54.265625 9.953125 54.28125 10.078125 54.296875 10.1875 L 54.921875 12.9375 C 50.53125 10.671875 45.1875 9.375 40 9.375 C 32.484375 9.375 25.09375 12.125 20.40625 15.984375 C 19.734375 16.546875 19.640625 17.546875 20.203125 18.21875 C 20.296875 18.328125 20.390625 18.421875 20.5 18.5 L 21.546875 19.296875 L 11.859375 21.1875 L 12.25 11.5625 Z M 63.640625 54.71875 L 55.59375 57.703125 C 54.78125 58 54.375 58.90625 54.671875 59.703125 C 54.78125 60.015625 55 60.28125 55.265625 60.46875 L 57.296875 61.828125 C 52.65625 65.359375 46.21875 67.5 40 67.5 C 33.5 67.5 26.671875 65.140625 22.046875 61.3125 L 21.609375 54.109375 C 21.5625 53.25 20.8125 52.59375 19.953125 52.640625 C 19.5625 52.671875 19.203125 52.828125 18.9375 53.109375 L 16.765625 55.3125 C 14.109375 51.0625 12.5 45.359375 12.5 40 C 12.5 34 14.5 27.640625 17.765625 23.21875 L 25.5625 21.6875 C 26.40625 21.53125 26.96875 20.703125 26.796875 19.859375 C 26.71875 19.484375 26.515625 19.140625 26.203125 18.90625 L 24 17.234375 C 24.0625 17.1875 24.109375 17.140625 24.15625 17.109375 C 28.578125 14.21875 34.484375 12.5 40 12.5 C 45.609375 12.5 51.625 14.25 55.859375 17.109375 L 57.5625 24.65625 C 57.75 25.5 58.59375 26.03125 59.4375 25.828125 C 59.71875 25.765625 59.984375 25.625 60.1875 25.421875 L 62.3125 23.328125 C 65.546875 27.859375 67.5 34.078125 67.5 40 C 67.5 45.140625 66.03125 50.71875 63.640625 54.71875 Z M 10.421875 62.640625 C 5.859375 56.625 3.125 48.15625 3.125 40 C 3.125 32.875 5.1875 25.625 8.796875 19.78125 L 8.65625 23.03125 C 8.625 23.890625 9.296875 24.625 10.15625 24.65625 C 10.28125 24.65625 10.40625 24.65625 10.515625 24.625 L 13.515625 24.03125 C 10.890625 28.6875 9.375 34.40625 9.375 40 C 9.375 46.765625 11.59375 53.765625 15.296875 58.703125 C 15.8125 59.390625 16.796875 59.53125 17.484375 59.015625 C 17.546875 58.96875 17.609375 58.921875 17.65625 58.859375 L 18.6875 57.796875 L 19.21875 66.453125 L 10.046875 64.875 L 10.15625 64.78125 C 10.8125 64.25 10.921875 63.3125 10.421875 62.640625 Z M 69 65.859375 C 68.375 65.265625 67.390625 65.28125 66.796875 65.90625 C 60.15625 72.765625 50.140625 76.875 40 76.875 C 31.78125 76.875 23.390625 74.03125 17.03125 69.25 L 20.640625 69.875 C 21.484375 70.015625 22.296875 69.453125 22.4375 68.59375 C 22.453125 68.46875 22.46875 68.359375 22.453125 68.234375 L 22.28125 65.359375 C 27.265625 68.640625 33.765625 70.609375 39.984375 70.609375 C 47.671875 70.609375 55.703125 67.625 60.953125 62.8125 C 61.59375 62.234375 61.640625 61.234375 61.046875 60.609375 C 60.96875 60.515625 60.859375 60.4375 60.765625 60.359375 L 59.546875 59.546875 L 69 56.03125 L 69.84375 66.453125 Z M 72.328125 58.34375 L 71.953125 53.734375 C 71.890625 52.875 71.125 52.234375 70.265625 52.296875 C 70.125 52.3125 69.984375 52.34375 69.84375 52.390625 L 67.953125 53.09375 C 69.703125 48.9375 70.609375 44.484375 70.625 39.984375 C 70.625 32.75 67.96875 25.078125 63.671875 19.984375 C 63.109375 19.328125 62.125 19.234375 61.46875 19.796875 C 61.4375 19.828125 61.40625 19.84375 61.375 19.875 L 59.984375 21.21875 L 57.78125 11.40625 L 68 11.40625 L 67.21875 12.078125 L 67.125 12.171875 C 66.5 12.765625 66.46875 13.75 67.0625 14.375 C 73.203125 20.890625 76.875 30.46875 76.875 40 C 76.875 46.359375 75.21875 52.9375 72.328125 58.34375 Z M 72.328125 58.34375 "/>
<path style=" stroke:none;fill-rule:nonzero;fill:rgb(0%,0%,0%);fill-opacity:1;" d="M 33.125 42.203125 L 35.78125 42.203125 C 35.984375 44.125 35.859375 44.8125 34.3125 46.890625 L 32.6875 48.9375 C 32.25 49.484375 32.15625 50.25 32.46875 50.875 C 32.765625 51.515625 33.40625 51.921875 34.125 51.921875 L 46.890625 52.03125 L 46.90625 52.03125 C 47.921875 52.03125 48.75 51.21875 48.75 50.203125 C 48.765625 49.1875 47.9375 48.34375 46.921875 48.34375 L 37.875 48.265625 C 39.328125 46.140625 39.71875 44.625 39.5 42.1875 L 42.09375 42.1875 C 43.109375 42.1875 43.9375 41.359375 43.9375 40.34375 C 43.9375 39.328125 43.109375 38.5 42.09375 38.5 L 38.578125 38.5 C 37.984375 37.578125 37.015625 35.765625 37.015625 34.296875 C 37.015625 33.375 37.421875 32.6875 38.265625 32.21875 C 39.578125 31.46875 41.703125 31.453125 42.890625 32.1875 C 43.84375 32.765625 44.5625 33.5625 44.765625 34.28125 C 45.046875 35.265625 46.0625 35.828125 47.046875 35.546875 C 48.03125 35.265625 48.59375 34.25 48.3125 33.265625 C 47.859375 31.65625 46.578125 30.109375 44.8125 29.03125 C 42.46875 27.609375 38.9375 27.59375 36.4375 29 C 34.421875 30.140625 33.3125 32.015625 33.3125 34.296875 L 33.3125 34.3125 C 33.3125 35.8125 33.796875 37.3125 34.359375 38.515625 L 33.125 38.515625 C 32.109375 38.515625 31.28125 39.34375 31.28125 40.359375 C 31.265625 41.375 32.09375 42.203125 33.125 42.203125 Z M 33.125 42.203125 "/>
</g>
</svg>
