<?xml version="1.0" encoding="UTF-8"?>
<svg xmlns="http://www.w3.org/2000/svg" xmlns:xlink="http://www.w3.org/1999/xlink" width="80px" height="80px" viewBox="0 0 80 80" version="1.1">
<g id="surface1">
<path style=" stroke:none;fill-rule:nonzero;fill:rgb(0%,0%,0%);fill-opacity:1;" d="M 18.839844 35.070312 L 9.320312 25.605469 C 8.789062 25.027344 8.789062 24.132812 9.320312 23.554688 L 11.429688 21.5 C 11.675781 21.207031 12.042969 21.039062 12.425781 21.046875 C 12.824219 21.046875 13.207031 21.210938 13.480469 21.5 L 19.867188 27.886719 L 33.546875 14.203125 C 33.820312 13.914062 34.203125 13.75 34.601562 13.75 C 34.984375 13.742188 35.351562 13.910156 35.601562 14.207031 L 37.710938 16.257812 C 38.242188 16.839844 38.242188 17.730469 37.710938 18.3125 L 20.890625 35.070312 C 20.628906 35.359375 20.257812 35.523438 19.867188 35.523438 C 19.476562 35.523438 19.101562 35.359375 18.839844 35.070312 Z M 18.839844 35.070312 "/>
<path style=" stroke:none;fill-rule:nonzero;fill:rgb(0%,0%,0%);fill-opacity:1;" d="M 27.539062 46.582031 C 28.746094 45.441406 30.167969 44.546875 31.71875 43.949219 C 32.070312 43.8125 32.460938 43.746094 32.828125 43.636719 L 4.515625 43.636719 L 4.515625 5.636719 L 42.511719 5.636719 L 42.511719 16.964844 C 43.917969 16.121094 45.4375 15.488281 47.027344 15.089844 L 47.027344 1.121094 L 0 1.121094 L 0 48.152344 L 26.132812 48.152344 C 26.566406 47.597656 27.035156 47.074219 27.539062 46.582031 Z M 27.539062 46.582031 "/>
<path style=" stroke:none;fill-rule:nonzero;fill:rgb(0%,0%,0%);fill-opacity:1;" d="M 40.5625 43.28125 C 43.59375 46.3125 47.25 47.828125 51.539062 47.828125 C 55.824219 47.832031 59.484375 46.316406 62.515625 43.28125 C 65.546875 40.246094 67.0625 36.589844 67.0625 32.304688 C 67.0625 28.019531 65.546875 24.363281 62.515625 21.328125 C 59.484375 18.292969 55.824219 16.777344 51.539062 16.777344 C 47.25 16.777344 43.589844 18.292969 40.5625 21.328125 C 37.527344 24.359375 36.011719 28.015625 36.011719 32.304688 C 36.011719 36.589844 37.527344 40.25 40.5625 43.28125 Z M 40.5625 43.28125 "/>
<path style=" stroke:none;fill-rule:nonzero;fill:rgb(0%,0%,0%);fill-opacity:1;" d="M 26.59375 51.484375 C 25.878906 52.738281 25.296875 54.058594 24.851562 55.429688 C 24.402344 56.867188 24.042969 58.332031 23.78125 59.816406 C 23.515625 61.273438 23.324219 62.742188 23.21875 64.222656 C 23.121094 65.582031 23.074219 66.976562 23.074219 68.40625 C 23.074219 71.640625 24.058594 74.191406 26.027344 76.0625 C 27.996094 77.933594 30.609375 78.871094 33.867188 78.875 L 69.203125 78.875 C 72.464844 78.875 75.078125 77.9375 77.046875 76.0625 C 79.015625 74.1875 80 71.636719 80 68.40625 C 80 66.976562 79.953125 65.582031 79.859375 64.222656 C 79.75 62.746094 79.558594 61.273438 79.292969 59.816406 C 79.035156 58.332031 78.675781 56.867188 78.222656 55.429688 C 77.78125 54.058594 77.199219 52.738281 76.484375 51.484375 C 75.8125 50.277344 74.96875 49.171875 73.976562 48.203125 C 72.976562 47.265625 71.800781 46.53125 70.519531 46.042969 C 69.082031 45.488281 67.550781 45.214844 66.011719 45.234375 C 65.742188 45.234375 65.164062 45.523438 64.273438 46.101562 C 63.382812 46.683594 62.398438 47.328125 61.320312 48.042969 C 60.242188 48.757812 58.800781 49.402344 56.996094 49.984375 C 53.449219 51.144531 49.625 51.144531 46.078125 49.984375 C 44.273438 49.40625 42.832031 48.757812 41.753906 48.042969 C 40.675781 47.328125 39.691406 46.683594 38.800781 46.109375 C 37.910156 45.527344 37.332031 45.238281 37.0625 45.242188 C 35.523438 45.222656 33.992188 45.496094 32.554688 46.046875 C 31.273438 46.539062 30.101562 47.273438 29.097656 48.210938 C 28.109375 49.175781 27.265625 50.277344 26.59375 51.484375 Z M 26.59375 51.484375 "/>
</g>
</svg>
