<?xml version="1.0" encoding="UTF-8"?>
<svg xmlns="http://www.w3.org/2000/svg" xmlns:xlink="http://www.w3.org/1999/xlink" width="80px" height="80px" viewBox="0 0 80 80" version="1.1">
<g id="surface1">
<path style=" stroke:none;fill-rule:nonzero;fill:rgb(0%,0%,0%);fill-opacity:1;" d="M 78.066406 7.292969 C 76.761719 5.988281 75.191406 5.335938 73.355469 5.335938 L 6.667969 5.335938 C 4.835938 5.335938 3.265625 5.988281 1.957031 7.292969 C 0.652344 8.601562 0 10.167969 0 12.003906 L 0 57.351562 C 0 59.1875 0.652344 60.753906 1.957031 62.0625 C 3.265625 63.367188 4.835938 64.019531 6.667969 64.019531 L 29.34375 64.019531 C 29.34375 65.074219 29.121094 66.160156 28.675781 67.269531 C 28.230469 68.382812 27.785156 69.355469 27.34375 70.1875 C 26.898438 71.023438 26.675781 71.632812 26.675781 72.023438 C 26.675781 72.742188 26.9375 73.371094 27.46875 73.898438 C 27.996094 74.425781 28.621094 74.691406 29.34375 74.691406 L 50.683594 74.691406 C 51.40625 74.691406 52.03125 74.425781 52.558594 73.898438 C 53.085938 73.371094 53.351562 72.742188 53.351562 72.023438 C 53.351562 71.660156 53.128906 71.054688 52.683594 70.210938 C 52.238281 69.363281 51.792969 68.375 51.351562 67.25 C 50.90625 66.125 50.683594 65.046875 50.683594 64.019531 L 73.355469 64.019531 C 75.191406 64.019531 76.761719 63.367188 78.066406 62.0625 C 79.371094 60.753906 80.023438 59.1875 80.023438 57.351562 L 80.023438 12.003906 C 80.027344 10.167969 79.371094 8.601562 78.066406 7.292969 Z M 74.691406 46.679688 C 74.691406 47.042969 74.558594 47.355469 74.292969 47.621094 C 74.03125 47.882812 73.71875 48.015625 73.355469 48.015625 L 6.667969 48.015625 C 6.308594 48.015625 5.996094 47.882812 5.730469 47.621094 C 5.46875 47.355469 5.335938 47.042969 5.335938 46.679688 L 5.335938 12.003906 C 5.335938 11.640625 5.46875 11.328125 5.730469 11.066406 C 5.996094 10.800781 6.308594 10.671875 6.667969 10.671875 L 73.355469 10.671875 C 73.71875 10.671875 74.03125 10.800781 74.292969 11.066406 C 74.558594 11.332031 74.691406 11.644531 74.691406 12.003906 Z M 74.691406 46.679688 "/>
</g>
</svg>
