<?xml version="1.0" encoding="UTF-8"?>
<svg xmlns="http://www.w3.org/2000/svg" xmlns:xlink="http://www.w3.org/1999/xlink" width="80px" height="80px" viewBox="0 0 80 80" version="1.1">
<g id="surface1">
<path style=" stroke:none;fill-rule:nonzero;fill:rgb(0%,0%,0%);fill-opacity:1;" d="M 58.332031 36.667969 C 46.386719 36.667969 36.667969 46.386719 36.667969 58.332031 C 36.667969 70.28125 46.386719 80 58.332031 80 C 70.28125 80 80 70.28125 80 58.332031 C 80 46.386719 70.28125 36.667969 58.332031 36.667969 Z M 61.667969 70 C 61.667969 71.839844 60.175781 73.332031 58.332031 73.332031 C 56.488281 73.332031 55 71.839844 55 70 L 55 58.332031 C 55 56.492188 56.488281 55 58.332031 55 C 60.175781 55 61.667969 56.492188 61.667969 58.332031 Z M 58.332031 50 C 56.492188 50 55 48.507812 55 46.667969 C 55 44.828125 56.492188 43.332031 58.332031 43.332031 C 60.171875 43.332031 61.667969 44.828125 61.667969 46.667969 C 61.667969 48.507812 60.171875 50 58.332031 50 Z M 58.332031 50 "/>
<path style=" stroke:none;fill-rule:nonzero;fill:rgb(0%,0%,0%);fill-opacity:1;" d="M 59.933594 0.367188 C 51.300781 -0.898438 43.667969 1.167969 36.667969 6.667969 C 29.667969 1.167969 22.035156 -0.898438 13.398438 0.367188 C 10.5 0.765625 8.332031 3.265625 8.332031 6.132812 L 8.332031 42.699219 C 8.332031 44.332031 9.035156 45.898438 10.265625 47 C 11.5 48.132812 13.199219 48.667969 14.867188 48.464844 C 20.167969 47.867188 25.300781 48.964844 30.035156 51.667969 C 30.265625 51.765625 30.464844 51.898438 30.699219 52.035156 C 30.734375 51.898438 30.765625 51.800781 30.800781 51.667969 C 31.167969 50.132812 31.667969 48.632812 32.300781 47.199219 C 27.734375 44.632812 22.800781 43.300781 17.699219 43.300781 C 16.566406 43.300781 15.464844 43.367188 14.300781 43.5 C 13.933594 43.535156 13.699219 43.367188 13.601562 43.265625 C 13.433594 43.132812 13.332031 42.933594 13.332031 42.699219 L 13.332031 6.132812 C 13.332031 5.734375 13.667969 5.367188 14.101562 5.300781 C 21.632812 4.199219 28.035156 6.066406 34.167969 11.101562 C 34.464844 11.300781 34.734375 11.566406 35.035156 11.800781 C 35.964844 12.632812 37.367188 12.632812 38.300781 11.800781 C 38.601562 11.566406 38.867188 11.300781 39.167969 11.101562 C 45.300781 6.066406 51.699219 4.234375 59.234375 5.300781 C 59.667969 5.367188 60 5.734375 60 6.132812 L 60 30.035156 C 61.699219 30.132812 63.367188 30.398438 65 30.800781 L 65 6.132812 C 65 3.265625 62.832031 0.765625 59.933594 0.367188 Z M 59.933594 0.367188 "/>
<path style=" stroke:none;fill-rule:nonzero;fill:rgb(0%,0%,0%);fill-opacity:1;" d="M 30.800781 51.667969 C 30.765625 51.800781 30.734375 51.898438 30.699219 52.035156 C 30.367188 53.535156 30.132812 55.101562 30.035156 56.667969 L 5.832031 56.667969 C 2.632812 56.667969 0 54.035156 0 50.832031 L 0 12.5 C 0 9.300781 2.601562 6.699219 5.800781 6.667969 L 10 6.667969 C 11.367188 6.667969 12.5 7.765625 12.5 9.167969 C 12.5 10.535156 11.398438 11.667969 10 11.667969 L 5.832031 11.667969 C 5.367188 11.667969 5 12.066406 5 12.5 L 5 50.832031 C 5 51.300781 5.367188 51.667969 5.832031 51.667969 Z M 30.800781 51.667969 "/>
<path style=" stroke:none;fill-rule:nonzero;fill:rgb(0%,0%,0%);fill-opacity:1;" d="M 73.332031 12.5 L 73.332031 34.300781 C 71.765625 33.332031 70.101562 32.5 68.332031 31.832031 L 68.332031 12.5 C 68.332031 12.035156 67.964844 11.667969 67.5 11.667969 L 63.332031 11.667969 C 61.964844 11.667969 60.832031 10.535156 60.832031 9.167969 C 60.832031 7.800781 61.964844 6.667969 63.332031 6.667969 L 67.5 6.667969 C 70.699219 6.667969 73.332031 9.300781 73.332031 12.5 Z M 73.332031 12.5 "/>
<path style=" stroke:none;fill-rule:nonzero;fill:rgb(0%,0%,0%);fill-opacity:1;" d="M 39.167969 10 L 39.167969 37.5 C 37.234375 39.265625 35.535156 41.300781 34.167969 43.566406 L 34.167969 10 C 34.167969 8.632812 35.300781 7.5 36.667969 7.5 C 38.035156 7.5 39.167969 8.632812 39.167969 10 Z M 39.167969 10 "/>
</g>
</svg>
