<?xml version="1.0" encoding="UTF-8"?>
<svg xmlns="http://www.w3.org/2000/svg" xmlns:xlink="http://www.w3.org/1999/xlink" width="80px" height="80px" viewBox="0 0 80 80" version="1.1">
<g id="surface1">
<path style=" stroke:none;fill-rule:nonzero;fill:rgb(0%,0%,0%);fill-opacity:1;" d="M 79.941406 17.234375 C 79.941406 17.144531 80.003906 17.054688 80 16.964844 L 55.585938 40.488281 L 79.96875 63.257812 C 79.984375 63.097656 79.941406 62.933594 79.941406 62.765625 Z M 79.941406 17.234375 "/>
<path style=" stroke:none;fill-rule:nonzero;fill:rgb(0%,0%,0%);fill-opacity:1;" d="M 51.859375 44.105469 L 41.894531 53.695312 C 41.390625 54.179688 40.738281 54.425781 40.085938 54.425781 C 39.449219 54.425781 38.808594 54.191406 38.308594 53.722656 L 28.371094 44.460938 L 3.828125 68.121094 C 4.421875 68.335938 5.0625 68.5 5.734375 68.5 L 74.4375 68.5 C 75.433594 68.5 76.367188 68.195312 77.179688 67.746094 Z M 51.859375 44.105469 "/>
<path style=" stroke:none;fill-rule:nonzero;fill:rgb(0%,0%,0%);fill-opacity:1;" d="M 40.058594 48.226562 L 77.316406 12.335938 C 76.472656 11.835938 75.492188 11.5 74.4375 11.5 L 5.734375 11.5 C 4.363281 11.5 3.109375 12.03125 2.128906 12.84375 Z M 40.058594 48.226562 "/>
<path style=" stroke:none;fill-rule:nonzero;fill:rgb(0%,0%,0%);fill-opacity:1;" d="M 0 18.109375 L 0 62.765625 C 0 63.277344 0.117188 63.773438 0.246094 64.246094 L 24.484375 40.902344 Z M 0 18.109375 "/>
</g>
</svg>
