<?xml version="1.0" encoding="UTF-8"?>
<svg xmlns="http://www.w3.org/2000/svg" xmlns:xlink="http://www.w3.org/1999/xlink" width="80px" height="80px" viewBox="0 0 80 80" version="1.1">
<g id="surface1">
<path style=" stroke:none;fill-rule:nonzero;fill:rgb(0%,0%,0%);fill-opacity:1;" d="M 40 23.59375 L 11.71875 23.59375 C 10.425781 23.59375 9.375 24.644531 9.375 25.9375 C 9.375 34.96875 16.855469 42.34375 25.9375 42.34375 C 34.984375 42.34375 42.34375 34.984375 42.34375 25.9375 C 42.34375 24.644531 41.292969 23.59375 40 23.59375 Z M 25.9375 37.65625 C 20.203125 37.65625 15.40625 33.625 14.300781 28.28125 L 37.421875 28.28125 C 36.332031 33.625 31.597656 37.65625 25.9375 37.65625 Z M 25.9375 37.65625 "/>
<path style=" stroke:none;fill-rule:nonzero;fill:rgb(0%,0%,0%);fill-opacity:1;" d="M 16.5625 18.90625 L 21.25 18.90625 C 22.542969 18.90625 23.59375 17.855469 23.59375 16.5625 C 23.59375 15.269531 22.542969 14.21875 21.25 14.21875 L 16.5625 14.21875 C 15.269531 14.21875 14.21875 15.269531 14.21875 16.5625 C 14.21875 17.855469 15.269531 18.90625 16.5625 18.90625 Z M 16.5625 18.90625 "/>
<path style=" stroke:none;fill-rule:nonzero;fill:rgb(0%,0%,0%);fill-opacity:1;" d="M 30.625 18.90625 L 35.3125 18.90625 C 36.605469 18.90625 37.65625 17.855469 37.65625 16.5625 C 37.65625 15.269531 36.605469 14.21875 35.3125 14.21875 L 30.625 14.21875 C 29.332031 14.21875 28.28125 15.269531 28.28125 16.5625 C 28.28125 17.855469 29.332031 18.90625 30.625 18.90625 Z M 30.625 18.90625 "/>
<path style=" stroke:none;fill-rule:nonzero;fill:rgb(0%,0%,0%);fill-opacity:1;" d="M 54.0625 28.28125 C 53.238281 28.28125 52.417969 28.324219 51.601562 28.398438 C 51.675781 27.589844 51.71875 26.769531 51.71875 25.9375 C 51.71875 11.636719 40.152344 0 25.9375 0 C 11.683594 0 0 11.6875 0 25.9375 C 0 40.152344 11.636719 51.71875 25.9375 51.71875 C 26.769531 51.71875 27.589844 51.675781 28.398438 51.601562 C 28.324219 52.417969 28.28125 53.238281 28.28125 54.0625 C 28.28125 68.363281 39.847656 80 54.0625 80 C 68.316406 80 80 68.3125 80 54.0625 C 80 39.847656 68.363281 28.28125 54.0625 28.28125 Z M 4.6875 25.9375 C 4.6875 14.21875 14.21875 4.6875 25.9375 4.6875 C 37.570312 4.6875 47.03125 14.21875 47.03125 25.9375 C 47.03125 37.570312 37.570312 47.03125 25.9375 47.03125 C 14.21875 47.03125 4.6875 37.570312 4.6875 25.9375 Z M 54.0625 75.3125 C 42.429688 75.3125 32.96875 65.78125 32.96875 54.0625 C 32.96875 52.921875 33.0625 51.78125 33.242188 50.664062 C 41.59375 48.191406 48.191406 41.59375 50.664062 33.242188 C 51.78125 33.0625 52.921875 32.96875 54.0625 32.96875 C 65.78125 32.96875 75.3125 42.429688 75.3125 54.0625 C 75.3125 65.78125 65.78125 75.3125 54.0625 75.3125 Z M 54.0625 75.3125 "/>
<path style=" stroke:none;fill-rule:nonzero;fill:rgb(0%,0%,0%);fill-opacity:1;" d="M 54.0625 56.40625 C 49.410156 56.40625 44.957031 58.398438 41.84375 61.875 C 40.980469 62.835938 41.0625 64.320312 42.023438 65.183594 C 42.988281 66.046875 44.472656 65.964844 45.335938 65 C 47.558594 62.519531 50.742188 61.09375 54.0625 61.09375 C 57.382812 61.09375 60.566406 62.519531 62.789062 65 C 63.652344 65.960938 65.132812 66.050781 66.101562 65.183594 C 67.0625 64.320312 67.144531 62.835938 66.28125 61.875 C 63.167969 58.398438 58.714844 56.40625 54.0625 56.40625 Z M 54.0625 56.40625 "/>
<path style=" stroke:none;fill-rule:nonzero;fill:rgb(0%,0%,0%);fill-opacity:1;" d="M 44.6875 51.71875 L 49.375 51.71875 C 50.667969 51.71875 51.71875 50.667969 51.71875 49.375 C 51.71875 48.082031 50.667969 47.03125 49.375 47.03125 L 44.6875 47.03125 C 43.394531 47.03125 42.34375 48.082031 42.34375 49.375 C 42.34375 50.667969 43.394531 51.71875 44.6875 51.71875 Z M 44.6875 51.71875 "/>
<path style=" stroke:none;fill-rule:nonzero;fill:rgb(0%,0%,0%);fill-opacity:1;" d="M 58.75 51.71875 L 63.4375 51.71875 C 64.730469 51.71875 65.78125 50.667969 65.78125 49.375 C 65.78125 48.082031 64.730469 47.03125 63.4375 47.03125 L 58.75 47.03125 C 57.457031 47.03125 56.40625 48.082031 56.40625 49.375 C 56.40625 50.667969 57.457031 51.71875 58.75 51.71875 Z M 58.75 51.71875 "/>
</g>
</svg>
