<?xml version="1.0" encoding="UTF-8"?>
<svg xmlns="http://www.w3.org/2000/svg" xmlns:xlink="http://www.w3.org/1999/xlink" width="80px" height="80px" viewBox="0 0 80 80" version="1.1">
<g id="surface1">
<path style=" stroke:none;fill-rule:nonzero;fill:rgb(0%,0%,0%);fill-opacity:1;" d="M 21.25 37.8125 C 9.617188 37.8125 0.15625 47.273438 0.15625 58.90625 C 0.15625 70.539062 9.617188 80 21.25 80 C 32.882812 80 42.34375 70.539062 42.34375 58.90625 C 42.34375 47.273438 32.882812 37.8125 21.25 37.8125 Z M 30.5625 56.34375 L 19.625 67.28125 C 19.167969 67.738281 18.570312 67.96875 17.96875 67.96875 C 17.367188 67.96875 16.769531 67.738281 16.3125 67.28125 L 11.625 62.59375 C 10.707031 61.679688 10.707031 60.195312 11.625 59.28125 C 12.539062 58.363281 14.023438 58.363281 14.9375 59.28125 L 17.96875 62.308594 L 27.25 53.03125 C 28.164062 52.113281 29.648438 52.113281 30.5625 53.03125 C 31.480469 53.945312 31.480469 55.429688 30.5625 56.34375 Z M 30.5625 56.34375 "/>
<path style=" stroke:none;fill-rule:nonzero;fill:rgb(0%,0%,0%);fill-opacity:1;" d="M 61.875 20.3125 C 60.582031 20.3125 59.53125 19.261719 59.53125 17.96875 L 59.53125 0 L 25.9375 0 C 22.058594 0 18.90625 3.152344 18.90625 7.03125 L 18.90625 33.234375 C 19.679688 33.164062 20.460938 33.125 21.25 33.125 C 29.238281 33.125 36.390625 36.777344 41.121094 42.5 L 66.5625 42.5 C 67.855469 42.5 68.90625 43.550781 68.90625 44.84375 C 68.90625 46.136719 67.855469 47.1875 66.5625 47.1875 L 44.210938 47.1875 C 45.675781 50.046875 46.621094 53.214844 46.921875 56.5625 L 66.5625 56.5625 C 67.855469 56.5625 68.90625 57.613281 68.90625 58.90625 C 68.90625 60.199219 67.855469 61.25 66.5625 61.25 L 46.921875 61.25 C 46.222656 68.992188 42.085938 75.753906 36.054688 80 L 72.8125 80 C 76.691406 80 79.84375 76.847656 79.84375 72.96875 L 79.84375 20.3125 Z M 66.5625 33.125 L 32.1875 33.125 C 30.894531 33.125 29.84375 32.074219 29.84375 30.78125 C 29.84375 29.488281 30.894531 28.4375 32.1875 28.4375 L 66.5625 28.4375 C 67.855469 28.4375 68.90625 29.488281 68.90625 30.78125 C 68.90625 32.074219 67.855469 33.125 66.5625 33.125 Z M 66.5625 33.125 "/>
<path style=" stroke:none;fill-rule:nonzero;fill:rgb(0%,0%,0%);fill-opacity:1;" d="M 64.21875 1.371094 L 64.21875 15.625 L 78.46875 15.625 Z M 64.21875 1.371094 "/>
</g>
</svg>
