<?xml version="1.0" encoding="UTF-8"?>
<svg xmlns="http://www.w3.org/2000/svg" xmlns:xlink="http://www.w3.org/1999/xlink" width="80px" height="80px" viewBox="0 0 80 80" version="1.1">
<g id="surface1">
<path style=" stroke:none;fill-rule:nonzero;fill:rgb(0%,0%,0%);fill-opacity:1;" d="M 66.285156 33.488281 L 61.585938 33.488281 L 61.585938 21.722656 C 61.585938 9.746094 51.839844 0 39.863281 0 C 27.886719 0 18.140625 9.746094 18.140625 21.722656 L 18.140625 33.488281 L 13.441406 33.488281 C 12.53125 33.488281 11.789062 34.226562 11.789062 35.136719 L 11.789062 78.078125 C 11.789062 78.988281 12.53125 79.726562 13.441406 79.726562 L 66.285156 79.726562 C 67.195312 79.726562 67.9375 78.988281 67.9375 78.078125 L 67.9375 35.136719 C 67.9375 34.226562 67.199219 33.488281 66.285156 33.488281 Z M 36.253906 61.195312 C 35.179688 60.191406 34.589844 58.828125 34.589844 57.355469 C 34.589844 54.449219 36.953125 52.082031 39.863281 52.082031 C 42.769531 52.082031 45.136719 54.445312 45.136719 57.355469 C 45.136719 58.828125 44.546875 60.191406 43.472656 61.195312 C 43.140625 61.507812 42.949219 61.945312 42.949219 62.402344 L 42.949219 67.996094 C 42.949219 69.695312 41.566406 71.082031 39.863281 71.082031 C 38.160156 71.082031 36.773438 69.695312 36.773438 67.996094 L 36.773438 62.402344 C 36.777344 61.945312 36.585938 61.507812 36.253906 61.195312 Z M 39.863281 11.707031 C 45.382812 11.707031 49.875 16.199219 49.875 21.722656 L 49.875 33.488281 L 29.851562 33.488281 L 29.851562 21.722656 C 29.851562 16.203125 34.34375 11.707031 39.863281 11.707031 Z M 39.863281 11.707031 "/>
</g>
</svg>
