<?xml version="1.0" encoding="UTF-8"?>
<svg xmlns="http://www.w3.org/2000/svg" xmlns:xlink="http://www.w3.org/1999/xlink" width="80px" height="80px" viewBox="0 0 80 80" version="1.1">
<g id="surface1">
<path style=" stroke:none;fill-rule:nonzero;fill:rgb(0%,0%,0%);fill-opacity:1;" d="M 53.679688 69.867188 C 52.789062 69.867188 52.34375 70.621094 52.253906 71.421875 L 54.878906 71.421875 C 54.878906 71.378906 54.878906 71.355469 54.878906 71.3125 C 54.898438 70.578125 54.5 69.867188 53.679688 69.867188 Z M 53.679688 69.867188 "/>
<path style=" stroke:none;fill-rule:nonzero;fill:rgb(0%,0%,0%);fill-opacity:1;" d="M 39.277344 69.867188 C 38.390625 69.867188 37.945312 70.621094 37.855469 71.421875 L 40.476562 71.421875 C 40.476562 71.378906 40.476562 71.355469 40.476562 71.3125 C 40.5 70.578125 40.078125 69.867188 39.277344 69.867188 Z M 39.277344 69.867188 "/>
<path style=" stroke:none;fill-rule:nonzero;fill:rgb(0%,0%,0%);fill-opacity:1;" d="M 29.679688 69.84375 C 28.523438 69.84375 28.035156 70.957031 28.035156 71.976562 C 28.035156 73 28.476562 74.132812 29.632812 74.132812 C 30.789062 74.132812 31.253906 73 31.253906 71.976562 C 31.253906 70.957031 30.832031 69.84375 29.679688 69.84375 Z M 29.679688 69.84375 "/>
<path style=" stroke:none;fill-rule:nonzero;fill:rgb(0%,0%,0%);fill-opacity:1;" d="M 0.945312 63 L 0.945312 80 L 79.054688 80 L 79.054688 63 Z M 20.121094 71.753906 C 19.898438 71.753906 19.679688 71.753906 19.457031 71.753906 L 19.457031 74.734375 L 18.410156 74.734375 L 18.410156 66.910156 C 18.921875 66.820312 19.410156 66.753906 19.921875 66.753906 C 21.035156 66.753906 22.078125 66.933594 22.609375 68.023438 C 22.789062 68.378906 22.878906 68.753906 22.878906 69.15625 C 22.898438 70.867188 21.765625 71.753906 20.121094 71.753906 Z M 26.65625 70.023438 C 26.476562 69.976562 26.320312 69.976562 26.144531 69.976562 C 25.632812 70 25.1875 70.265625 24.921875 70.710938 L 24.921875 74.734375 L 23.945312 74.734375 L 23.945312 69.265625 L 24.722656 69.265625 L 24.832031 69.820312 C 25.167969 69.378906 25.679688 69.109375 26.234375 69.109375 C 26.410156 69.109375 26.589844 69.132812 26.746094 69.199219 Z M 29.65625 74.890625 C 27.921875 74.890625 27.011719 73.621094 27.011719 71.976562 C 27.011719 70.378906 28.011719 69.089844 29.699219 69.089844 C 31.390625 69.089844 32.34375 70.378906 32.34375 71.976562 C 32.34375 73.578125 31.367188 74.890625 29.65625 74.890625 Z M 35.144531 74.890625 C 34.433594 74.890625 33.988281 74.601562 33.746094 74.066406 C 33.632812 73.800781 33.589844 73.378906 33.589844 72.6875 L 33.589844 69.933594 L 32.789062 69.933594 L 32.789062 69.265625 L 33.589844 69.265625 L 33.589844 68.222656 L 34.566406 67.84375 L 34.566406 69.265625 L 36.101562 69.265625 L 36.101562 69.910156 L 34.566406 69.910156 L 34.566406 72.734375 C 34.542969 73.042969 34.589844 73.355469 34.679688 73.644531 C 34.765625 73.933594 35.054688 74.109375 35.367188 74.089844 C 35.722656 74.066406 36.078125 73.910156 36.367188 73.6875 L 36.523438 74.398438 C 36.101562 74.710938 35.632812 74.890625 35.144531 74.890625 Z M 41.476562 72.199219 C 40.988281 72.222656 40.523438 72.199219 40.078125 72.199219 L 37.855469 72.199219 C 37.898438 73.199219 38.457031 74.109375 39.542969 74.109375 C 40.1875 74.109375 40.8125 73.890625 41.300781 73.464844 L 41.410156 74.265625 C 40.832031 74.6875 40.121094 74.910156 39.410156 74.910156 C 37.679688 74.910156 36.789062 73.601562 36.789062 71.976562 C 36.789062 70.421875 37.679688 69.109375 39.367188 69.109375 C 39.789062 69.109375 40.210938 69.222656 40.542969 69.464844 C 41.253906 69.933594 41.523438 70.6875 41.523438 71.535156 C 41.523438 71.734375 41.5 71.976562 41.476562 72.199219 Z M 44.945312 74.890625 C 43.320312 74.890625 42.234375 73.667969 42.234375 72.066406 C 42.234375 70.355469 43.34375 69.089844 45.078125 69.089844 C 45.679688 69.066406 46.253906 69.265625 46.746094 69.601562 L 46.542969 70.355469 C 46.121094 70.042969 45.632812 69.890625 45.101562 69.867188 C 43.945312 69.867188 43.253906 70.84375 43.253906 71.933594 C 43.253906 73.023438 43.832031 74.109375 45.054688 74.109375 C 45.609375 74.109375 46.144531 73.933594 46.609375 73.621094 L 46.789062 74.355469 C 46.253906 74.710938 45.609375 74.890625 44.945312 74.890625 Z M 49.566406 74.890625 C 48.855469 74.890625 48.410156 74.601562 48.167969 74.066406 C 48.054688 73.800781 48.011719 73.378906 48.011719 72.6875 L 48.011719 69.933594 L 47.210938 69.933594 L 47.210938 69.265625 L 48.011719 69.265625 L 48.011719 68.222656 L 48.988281 67.84375 L 48.988281 69.265625 L 50.523438 69.265625 L 50.523438 69.910156 L 48.988281 69.910156 L 48.988281 72.734375 C 48.964844 73.042969 49.011719 73.355469 49.101562 73.644531 C 49.1875 73.933594 49.476562 74.109375 49.789062 74.089844 C 50.144531 74.066406 50.5 73.910156 50.789062 73.6875 L 50.945312 74.398438 C 50.523438 74.710938 50.054688 74.890625 49.566406 74.890625 Z M 55.878906 72.199219 C 55.390625 72.222656 54.921875 72.199219 54.476562 72.199219 L 52.253906 72.199219 C 52.300781 73.199219 52.855469 74.109375 53.945312 74.109375 C 54.589844 74.109375 55.210938 73.890625 55.699219 73.464844 L 55.8125 74.265625 C 55.234375 74.6875 54.523438 74.910156 53.8125 74.910156 C 52.078125 74.910156 51.1875 73.601562 51.1875 71.976562 C 51.1875 70.421875 52.078125 69.109375 53.765625 69.109375 C 54.1875 69.109375 54.609375 69.222656 54.964844 69.464844 C 55.679688 69.933594 55.945312 70.6875 55.945312 71.535156 C 55.921875 71.734375 55.921875 71.976562 55.878906 72.199219 Z M 61.457031 74.734375 L 60.699219 74.734375 L 60.589844 74.246094 C 60.167969 74.644531 59.589844 74.867188 59.011719 74.890625 C 57.542969 74.890625 56.632812 73.667969 56.632812 72.042969 C 56.632812 70.3125 57.855469 69.109375 59.167969 69.109375 C 59.632812 69.109375 60.101562 69.246094 60.5 69.511719 L 60.5 66.578125 L 61.476562 66.578125 L 61.476562 74.734375 Z M 61.457031 74.734375 "/>
<path style=" stroke:none;fill-rule:nonzero;fill:rgb(0%,0%,0%);fill-opacity:1;" d="M 20.167969 67.644531 C 19.945312 67.644531 19.722656 67.644531 19.476562 67.667969 L 19.476562 70.84375 C 19.699219 70.84375 19.921875 70.867188 20.144531 70.867188 C 21.210938 70.867188 21.8125 70.3125 21.8125 69.246094 C 21.8125 68.179688 21.234375 67.644531 20.167969 67.644531 Z M 20.167969 67.644531 "/>
<path style=" stroke:none;fill-rule:nonzero;fill:rgb(0%,0%,0%);fill-opacity:1;" d="M 59.253906 69.933594 C 58.523438 69.933594 57.65625 70.578125 57.65625 72 C 57.65625 73.332031 58.253906 74.089844 59.144531 74.089844 C 59.65625 74.089844 60.121094 73.867188 60.476562 73.511719 L 60.476562 70.332031 C 60.121094 70.066406 59.699219 69.933594 59.253906 69.933594 Z M 59.253906 69.933594 "/>
<path style=" stroke:none;fill-rule:nonzero;fill:rgb(0%,0%,0%);fill-opacity:1;" d="M 9.632812 42.957031 C 10.34375 43.265625 11.121094 43.398438 11.898438 43.378906 C 16.457031 43.378906 20.054688 40.464844 22.609375 34.753906 L 25.523438 27.6875 L 30.121094 27.6875 L 31.144531 25.6875 L 26.234375 25.6875 L 26.410156 25.246094 C 28.078125 21.246094 30.234375 19.199219 32.8125 19.199219 C 33.523438 19.246094 34.234375 19.421875 34.898438 19.710938 L 36.433594 17.398438 C 35.589844 17.042969 34.699219 16.867188 33.789062 16.84375 C 29.234375 16.84375 25.632812 19.753906 23.078125 25.488281 L 22.988281 25.6875 L 14.566406 25.6875 L 13.542969 27.6875 L 22.167969 27.6875 L 21.054688 30.332031 L 11.078125 30.332031 L 10.054688 32.3125 L 20.320312 32.3125 L 19.210938 35 C 17.542969 39 15.410156 41.042969 12.878906 41.042969 C 12.167969 41 11.476562 40.820312 10.832031 40.535156 Z M 9.632812 42.957031 "/>
<path style=" stroke:none;fill-rule:nonzero;fill:rgb(0%,0%,0%);fill-opacity:1;" d="M 61.101562 28.464844 C 60.457031 27.800781 59.589844 27.421875 58.679688 27.398438 C 58.121094 27.378906 57.589844 27.535156 57.121094 27.84375 C 56.699219 28.109375 56.433594 28.554688 56.410156 29.042969 C 56.390625 29.378906 56.5 29.710938 56.722656 29.976562 C 57.078125 30.332031 57.5 30.621094 57.945312 30.84375 L 59.542969 31.734375 C 60.011719 31.976562 60.390625 32.332031 60.632812 32.800781 C 60.855469 33.246094 60.964844 33.734375 60.921875 34.222656 C 60.898438 35.488281 60.277344 36.667969 59.277344 37.421875 C 58.253906 38.222656 56.988281 38.601562 55.476562 38.601562 C 54.234375 38.621094 53.011719 38.265625 51.945312 37.601562 L 53.234375 35.464844 C 53.609375 35.820312 54.035156 36.109375 54.5 36.3125 C 54.945312 36.535156 55.457031 36.667969 55.964844 36.6875 C 56.609375 36.710938 57.234375 36.511719 57.746094 36.109375 C 58.210938 35.734375 58.5 35.179688 58.523438 34.578125 C 58.542969 34.246094 58.433594 33.933594 58.210938 33.6875 C 57.855469 33.332031 57.457031 33.042969 57.011719 32.800781 L 55.390625 31.890625 C 54.921875 31.621094 54.542969 31.246094 54.300781 30.777344 C 54.078125 30.332031 53.964844 29.84375 53.988281 29.355469 C 54.035156 28.222656 54.589844 27.179688 55.523438 26.535156 C 56.523438 25.800781 57.722656 25.421875 58.945312 25.464844 C 59.855469 25.464844 60.964844 25.753906 62.234375 26.332031 Z M 61.101562 28.464844 "/>
<path style=" stroke:none;fill-rule:nonzero;fill:rgb(0%,0%,0%);fill-opacity:1;" d="M 51.1875 28.066406 C 50.65625 27.621094 49.898438 27.398438 48.945312 27.398438 C 47.542969 27.378906 46.1875 28.023438 45.320312 29.132812 C 44.34375 30.332031 43.789062 31.820312 43.746094 33.355469 C 43.679688 34.378906 43.921875 35.199219 44.476562 35.800781 C 44.945312 36.378906 45.65625 36.710938 46.410156 36.710938 C 47.609375 36.6875 48.765625 36.332031 49.765625 35.644531 L 49.390625 37.957031 C 48.300781 38.421875 47.144531 38.644531 45.964844 38.644531 C 44.410156 38.644531 43.234375 38.199219 42.457031 37.3125 C 41.679688 36.421875 41.320312 35.246094 41.410156 33.753906 C 41.542969 31.355469 42.320312 29.378906 43.722656 27.84375 C 45.035156 26.355469 46.921875 25.511719 48.898438 25.535156 C 50.121094 25.535156 51.054688 25.753906 51.722656 26.15625 Z M 51.1875 28.066406 "/>
<path style=" stroke:none;fill-rule:nonzero;fill:rgb(0%,0%,0%);fill-opacity:1;" d="M 39.167969 28.464844 C 38.523438 27.800781 37.65625 27.398438 36.722656 27.398438 C 36.167969 27.378906 35.632812 27.535156 35.167969 27.84375 C 34.746094 28.109375 34.476562 28.554688 34.457031 29.042969 C 34.433594 29.378906 34.542969 29.710938 34.765625 29.976562 C 35.121094 30.332031 35.523438 30.621094 35.988281 30.84375 L 37.589844 31.734375 C 38.054688 31.976562 38.433594 32.332031 38.679688 32.800781 C 38.898438 33.246094 39.011719 33.734375 38.964844 34.222656 C 38.945312 35.488281 38.320312 36.667969 37.320312 37.421875 C 36.300781 38.222656 35.035156 38.601562 33.523438 38.601562 C 32.277344 38.621094 31.054688 38.265625 29.988281 37.601562 L 31.277344 35.464844 C 31.65625 35.820312 32.078125 36.109375 32.542969 36.3125 C 32.988281 36.535156 33.5 36.667969 34.011719 36.6875 C 34.65625 36.710938 35.277344 36.511719 35.789062 36.109375 C 36.253906 35.734375 36.542969 35.179688 36.566406 34.578125 C 36.589844 34.246094 36.476562 33.933594 36.253906 33.6875 C 35.898438 33.332031 35.5 33.042969 35.054688 32.800781 L 33.433594 31.890625 C 32.964844 31.621094 32.589844 31.246094 32.34375 30.777344 C 32.121094 30.332031 32.011719 29.84375 32.035156 29.355469 C 32.078125 28.222656 32.632812 27.179688 33.566406 26.535156 C 34.566406 25.800781 35.765625 25.421875 36.988281 25.464844 C 37.898438 25.464844 39.011719 25.753906 40.277344 26.332031 Z M 39.167969 28.464844 "/>
<path style=" stroke:none;fill-rule:nonzero;fill:rgb(0%,0%,0%);fill-opacity:1;" d="M 43.078125 8.511719 C 42.234375 8.511719 41.390625 8.535156 40.523438 8.578125 C 38.054688 8.667969 35.589844 8.933594 33.167969 9.398438 C 30.699219 9.84375 28.277344 10.554688 25.964844 11.511719 C 24.765625 12 23.632812 12.601562 22.566406 13.3125 C 22.011719 13.6875 21.5 14.089844 21.011719 14.535156 C 20.5 15 20.054688 15.511719 19.65625 16.066406 C 19.234375 16.644531 18.921875 17.3125 18.722656 18 C 18.523438 18.710938 18.457031 19.445312 18.542969 20.15625 C 18.632812 20.84375 18.8125 21.535156 19.121094 22.15625 C 19.144531 22.222656 19.1875 22.289062 19.210938 22.355469 C 19.253906 22.421875 19.34375 22.464844 19.433594 22.464844 C 19.589844 22.464844 19.722656 22.332031 19.722656 22.179688 C 19.722656 22.132812 19.722656 22.109375 19.699219 22.066406 C 19.679688 22 19.632812 21.933594 19.609375 21.867188 C 19.390625 21.289062 19.234375 20.667969 19.210938 20.042969 C 19.167969 19.421875 19.253906 18.820312 19.457031 18.246094 C 19.65625 17.667969 19.964844 17.132812 20.34375 16.644531 C 21.101562 15.6875 22.035156 14.890625 23.101562 14.265625 C 24.144531 13.644531 25.234375 13.109375 26.367188 12.667969 C 27.5 12.222656 28.65625 11.867188 29.832031 11.554688 C 31.011719 11.246094 32.1875 11 33.390625 10.800781 C 35.765625 10.398438 38.1875 10.15625 40.589844 10.066406 C 43.011719 9.976562 45.433594 10 47.832031 10.109375 C 49.035156 10.15625 50.234375 10.265625 51.433594 10.378906 C 52.632812 10.488281 53.8125 10.667969 55.011719 10.890625 C 57.390625 11.289062 59.722656 11.976562 61.921875 12.957031 C 63.035156 13.464844 64.078125 14.089844 65.054688 14.820312 C 65.542969 15.199219 66.011719 15.601562 66.433594 16.042969 C 66.878906 16.488281 67.277344 16.976562 67.632812 17.488281 C 68.367188 18.535156 68.921875 19.6875 69.277344 20.933594 C 69.632812 22.199219 69.789062 23.488281 69.765625 24.800781 C 69.699219 27.421875 69.101562 30.023438 68.011719 32.398438 C 67.476562 33.578125 66.878906 34.710938 66.167969 35.800781 C 65.476562 36.867188 64.722656 37.867188 63.878906 38.820312 C 63.078125 39.753906 62.1875 40.644531 61.253906 41.464844 C 60.789062 41.867188 60.320312 42.265625 59.855469 42.644531 C 59.390625 43.023438 58.878906 43.378906 58.390625 43.710938 C 56.457031 45.023438 54.300781 46.042969 52.054688 46.6875 L 51.65625 46.800781 C 51.542969 46.820312 51.34375 46.890625 51.234375 46.910156 C 50.964844 46.976562 50.679688 47.023438 50.410156 47.066406 C 49.855469 47.15625 49.300781 47.222656 48.746094 47.265625 C 48.1875 47.289062 47.632812 47.289062 47.078125 47.265625 C 46.523438 47.246094 45.964844 47.179688 45.390625 47.089844 C 43.101562 46.667969 40.878906 45.910156 38.8125 44.820312 C 36.65625 43.710938 34.589844 42.378906 32.679688 40.890625 L 32.65625 40.867188 C 32.632812 40.867188 32.632812 40.84375 32.632812 40.84375 C 32.589844 40.820312 32.542969 40.800781 32.5 40.800781 C 32.367188 40.800781 32.277344 40.890625 32.277344 41.023438 C 32.277344 41.066406 32.300781 41.109375 32.320312 41.15625 C 33.945312 43.246094 36.1875 45.332031 38.898438 47.199219 L 38.878906 47.179688 C 40.699219 48.421875 42.722656 49.332031 44.855469 49.867188 C 45.5 50.023438 46.144531 50.132812 46.789062 50.199219 C 47.457031 50.265625 48.101562 50.3125 48.765625 50.289062 C 49.433594 50.265625 50.101562 50.222656 50.746094 50.109375 C 51.078125 50.042969 51.410156 50 51.722656 49.910156 C 51.921875 49.867188 52.011719 49.84375 52.1875 49.800781 L 52.679688 49.667969 C 55.234375 48.890625 57.609375 47.644531 59.699219 46 C 61.832031 44.332031 63.679688 42.332031 65.210938 40.109375 C 65.988281 39 66.679688 37.820312 67.300781 36.621094 C 67.921875 35.398438 68.476562 34.15625 68.921875 32.867188 C 69.765625 30.464844 70.234375 27.933594 70.253906 25.378906 L 70.253906 25.289062 C 70.253906 25.132812 70.253906 24.976562 70.253906 24.820312 C 70.234375 23.464844 70.035156 22.109375 69.65625 20.800781 C 69.277344 19.535156 68.699219 18.3125 67.945312 17.222656 C 67.210938 16.15625 66.320312 15.222656 65.320312 14.398438 C 64.34375 13.601562 63.277344 12.910156 62.167969 12.332031 C 59.964844 11.199219 57.609375 10.355469 55.1875 9.800781 C 53.988281 9.511719 52.765625 9.289062 51.566406 9.089844 C 50.367188 8.890625 49.121094 8.777344 47.898438 8.667969 C 46.679688 8.554688 45.457031 8.511719 44.210938 8.488281 C 43.878906 8.488281 43.542969 8.488281 43.210938 8.488281 Z M 43.078125 8.511719 "/>
</g>
</svg>
