<?xml version="1.0" encoding="UTF-8"?>
<svg xmlns="http://www.w3.org/2000/svg" xmlns:xlink="http://www.w3.org/1999/xlink" width="80px" height="80px" viewBox="0 0 80 80" version="1.1">
<g id="surface1">
<path style=" stroke:none;fill-rule:nonzero;fill:rgb(0%,0%,0%);fill-opacity:1;" d="M 17.347656 36.234375 L 20.636719 38.039062 L 22.4375 41.335938 C 22.773438 41.957031 23.421875 42.34375 24.128906 42.34375 C 24.835938 42.34375 25.484375 41.957031 25.820312 41.335938 L 27.621094 38.039062 L 30.90625 36.234375 C 31.527344 35.894531 31.910156 35.246094 31.910156 34.539062 C 31.910156 33.835938 31.527344 33.1875 30.90625 32.847656 L 27.621094 31.042969 L 25.820312 27.742188 C 25.484375 27.121094 24.835938 26.738281 24.128906 26.738281 C 23.421875 26.738281 22.773438 27.121094 22.4375 27.742188 L 20.636719 31.042969 L 17.347656 32.847656 C 16.730469 33.1875 16.347656 33.835938 16.347656 34.539062 C 16.347656 35.246094 16.730469 35.894531 17.347656 36.234375 Z M 21.871094 33.039062 C 22.195312 32.859375 22.460938 32.59375 22.636719 32.269531 L 24.128906 29.535156 L 25.621094 32.269531 C 25.796875 32.59375 26.0625 32.859375 26.386719 33.039062 L 29.121094 34.539062 L 26.386719 36.042969 C 26.0625 36.21875 25.796875 36.484375 25.621094 36.808594 L 24.128906 39.542969 L 22.636719 36.808594 C 22.460938 36.484375 22.195312 36.21875 21.871094 36.042969 L 19.136719 34.539062 Z M 21.871094 33.039062 "/>
<path style=" stroke:none;fill-rule:nonzero;fill:rgb(0%,0%,0%);fill-opacity:1;" d="M 67.753906 48.550781 C 67.421875 48.082031 66.878906 47.796875 66.300781 47.796875 C 65.722656 47.796875 65.179688 48.082031 64.847656 48.550781 L 61.8125 52.863281 C 61.378906 53.476562 61.378906 54.300781 61.8125 54.914062 L 64.847656 59.226562 C 65.183594 59.699219 65.722656 59.980469 66.300781 59.980469 C 66.878906 59.980469 67.421875 59.699219 67.753906 59.226562 L 70.789062 54.914062 C 71.222656 54.300781 71.222656 53.476562 70.789062 52.863281 Z M 66.300781 57.21875 L 63.957031 53.890625 L 66.300781 50.5625 L 68.644531 53.890625 Z M 66.300781 57.21875 "/>
<path style=" stroke:none;fill-rule:nonzero;fill:rgb(0%,0%,0%);fill-opacity:1;" d="M 46.605469 9.613281 L 43.566406 5.304688 C 43.234375 4.832031 42.691406 4.550781 42.117188 4.550781 C 41.539062 4.550781 40.996094 4.832031 40.664062 5.304688 L 37.625 9.613281 C 37.195312 10.226562 37.195312 11.050781 37.625 11.664062 L 40.664062 15.976562 C 40.996094 16.449219 41.539062 16.730469 42.117188 16.730469 C 42.691406 16.730469 43.234375 16.449219 43.566406 15.976562 L 46.605469 11.664062 C 47.039062 11.050781 47.039062 10.226562 46.605469 9.613281 Z M 42.117188 13.96875 L 39.769531 10.640625 L 42.117188 7.3125 L 44.460938 10.640625 Z M 42.117188 13.96875 "/>
<path style=" stroke:none;fill-rule:nonzero;fill:rgb(0%,0%,0%);fill-opacity:1;" d="M 61.785156 30.933594 L 56.089844 22.855469 C 55.660156 22.242188 54.957031 21.875 54.207031 21.875 C 53.460938 21.875 52.757812 22.242188 52.324219 22.855469 L 46.632812 30.933594 C 46.070312 31.730469 46.070312 32.800781 46.632812 33.597656 L 52.324219 41.675781 C 52.757812 42.289062 53.460938 42.652344 54.207031 42.652344 C 54.957031 42.652344 55.660156 42.289062 56.089844 41.675781 L 61.785156 33.597656 C 62.347656 32.800781 62.347656 31.730469 61.785156 30.933594 Z M 54.207031 40.277344 L 48.5625 32.265625 L 54.207031 24.25 L 59.855469 32.265625 Z M 54.207031 40.277344 "/>
<path style=" stroke:none;fill-rule:nonzero;fill:rgb(0%,0%,0%);fill-opacity:1;" d="M 71.742188 0 L 36.675781 0 C 34.359375 0 32.480469 1.886719 32.480469 4.207031 L 32.480469 6.066406 L 30.628906 6.066406 C 28.316406 6.066406 26.433594 7.953125 26.433594 10.273438 L 26.433594 14.539062 C 25.675781 14.453125 24.90625 14.410156 24.128906 14.410156 C 18.648438 14.410156 13.679688 16.621094 10.054688 20.203125 C 10.015625 20.234375 9.976562 20.269531 9.941406 20.304688 C 9.902344 20.339844 9.867188 20.378906 9.835938 20.421875 C 6.269531 24.058594 4.0625 29.046875 4.0625 34.539062 C 4.0625 40.035156 6.269531 45.019531 9.835938 48.65625 C 9.867188 48.699219 9.902344 48.738281 9.941406 48.777344 C 9.976562 48.8125 10.015625 48.84375 10.054688 48.875 C 11.433594 50.238281 13.011719 51.40625 14.738281 52.328125 L 14.632812 52.328125 C 12.261719 52.328125 10.335938 54.253906 10.335938 56.625 L 10.335938 75.703125 C 10.335938 78.074219 12.261719 80 14.632812 80 L 33.625 80 C 35.996094 80 37.921875 78.074219 37.921875 75.703125 L 37.921875 70.597656 L 65.695312 70.597656 C 68.007812 70.597656 69.890625 68.710938 69.890625 66.390625 L 69.890625 64.53125 L 71.742188 64.53125 C 74.054688 64.53125 75.9375 62.644531 75.9375 60.324219 L 75.9375 4.207031 C 75.9375 1.886719 74.054688 0 71.742188 0 Z M 28.777344 10.273438 C 28.777344 9.246094 29.609375 8.410156 30.628906 8.410156 L 32.480469 8.410156 L 32.480469 16.234375 C 31.300781 15.691406 30.0625 15.261719 28.777344 14.953125 Z M 25.300781 16.792969 C 29.308594 17.054688 32.957031 18.660156 35.800781 21.167969 L 32.960938 24.019531 C 30.851562 22.234375 28.203125 21.078125 25.300781 20.828125 Z M 34.613281 43.402344 C 36.394531 41.285156 37.550781 38.628906 37.796875 35.710938 L 41.8125 35.710938 C 41.550781 39.734375 39.949219 43.394531 37.457031 46.253906 Z M 35.800781 47.914062 C 32.957031 50.417969 29.308594 52.023438 25.300781 52.289062 L 25.300781 48.25 C 28.203125 48.003906 30.851562 46.84375 32.960938 45.0625 Z M 37.796875 33.367188 C 37.550781 30.453125 36.394531 27.792969 34.613281 25.675781 L 37.457031 22.828125 C 39.949219 25.683594 41.550781 29.34375 41.8125 33.367188 Z M 35.503906 34.539062 C 35.503906 40.835938 30.398438 45.957031 24.128906 45.957031 C 17.855469 45.957031 12.753906 40.835938 12.753906 34.539062 C 12.753906 28.246094 17.855469 23.121094 24.128906 23.121094 C 30.398438 23.121094 35.503906 28.246094 35.503906 34.539062 Z M 22.957031 16.792969 L 22.957031 20.828125 C 20.054688 21.078125 17.40625 22.234375 15.296875 24.019531 L 12.457031 21.167969 C 15.300781 18.660156 18.949219 17.054688 22.957031 16.792969 Z M 10.800781 22.828125 L 13.640625 25.675781 C 11.863281 27.792969 10.707031 30.453125 10.460938 33.367188 L 6.445312 33.367188 C 6.707031 29.34375 8.304688 25.683594 10.800781 22.828125 Z M 6.445312 35.710938 L 10.460938 35.710938 C 10.707031 38.628906 11.863281 41.285156 13.640625 43.402344 L 10.800781 46.253906 C 8.304688 43.394531 6.707031 39.734375 6.445312 35.710938 Z M 12.457031 47.914062 L 15.296875 45.0625 C 17.40625 46.84375 20.054688 48.003906 22.957031 48.25 L 22.957031 52.289062 C 18.949219 52.023438 15.300781 50.417969 12.457031 47.914062 Z M 35.578125 75.703125 C 35.578125 76.78125 34.703125 77.65625 33.625 77.65625 L 14.632812 77.65625 C 13.554688 77.65625 12.679688 76.78125 12.679688 75.703125 L 12.679688 56.625 C 12.679688 55.546875 13.554688 54.671875 14.632812 54.671875 L 33.625 54.671875 C 34.703125 54.671875 35.578125 55.546875 35.578125 56.625 Z M 73.59375 60.324219 C 73.59375 61.351562 72.761719 62.1875 71.742188 62.1875 L 48.199219 62.1875 C 47.554688 62.1875 47.027344 62.710938 47.027344 63.359375 C 47.027344 64.003906 47.554688 64.53125 48.199219 64.53125 L 67.546875 64.53125 L 67.546875 66.390625 C 67.546875 67.417969 66.71875 68.253906 65.695312 68.253906 L 37.921875 68.253906 L 37.921875 64.53125 L 43.589844 64.53125 C 44.238281 64.53125 44.761719 64.003906 44.761719 63.359375 C 44.761719 62.710938 44.238281 62.1875 43.589844 62.1875 L 37.921875 62.1875 L 37.921875 56.625 C 37.921875 54.253906 35.996094 52.328125 33.625 52.328125 L 33.519531 52.328125 C 35.246094 51.40625 36.824219 50.238281 38.203125 48.875 C 38.242188 48.84375 38.28125 48.8125 38.316406 48.777344 C 38.355469 48.738281 38.390625 48.699219 38.421875 48.65625 C 41.988281 45.019531 44.195312 40.035156 44.195312 34.539062 C 44.195312 29.046875 41.988281 24.058594 38.421875 20.421875 C 38.390625 20.378906 38.355469 20.339844 38.316406 20.304688 C 38.28125 20.265625 38.242188 20.234375 38.203125 20.203125 C 37.179688 19.191406 36.046875 18.289062 34.824219 17.511719 L 34.824219 4.207031 C 34.824219 3.179688 35.652344 2.34375 36.675781 2.34375 L 71.742188 2.34375 C 72.761719 2.34375 73.59375 3.179688 73.59375 4.207031 Z M 73.59375 60.324219 "/>
<path style=" stroke:none;fill-rule:nonzero;fill:rgb(0%,0%,0%);fill-opacity:1;" d="M 30.175781 56.496094 C 29.253906 56.496094 28.390625 56.855469 27.742188 57.507812 C 26.402344 58.851562 26.402344 61.039062 27.742188 62.382812 C 28.390625 63.03125 29.253906 63.390625 30.175781 63.390625 C 31.09375 63.390625 31.957031 63.03125 32.609375 62.378906 C 33.945312 61.039062 33.945312 58.851562 32.609375 57.507812 C 31.957031 56.855469 31.09375 56.496094 30.175781 56.496094 Z M 30.949219 60.726562 C 30.742188 60.933594 30.464844 61.046875 30.175781 61.046875 C 29.882812 61.046875 29.609375 60.933594 29.402344 60.726562 C 28.972656 60.296875 28.972656 59.59375 29.402344 59.164062 C 29.609375 58.957031 29.882812 58.839844 30.175781 58.839844 C 30.46875 58.839844 30.742188 58.957031 30.949219 59.164062 C 31.378906 59.59375 31.378906 60.296875 30.949219 60.726562 Z M 30.949219 60.726562 "/>
<path style=" stroke:none;fill-rule:nonzero;fill:rgb(0%,0%,0%);fill-opacity:1;" d="M 30.175781 69.296875 C 29.253906 69.296875 28.390625 69.65625 27.742188 70.308594 C 26.402344 71.652344 26.402344 73.835938 27.742188 75.179688 C 28.390625 75.832031 29.253906 76.191406 30.175781 76.191406 C 31.09375 76.191406 31.957031 75.832031 32.609375 75.179688 C 33.945312 73.839844 33.945312 71.652344 32.609375 70.308594 C 31.957031 69.65625 31.09375 69.296875 30.175781 69.296875 Z M 30.949219 73.527344 C 30.742188 73.734375 30.464844 73.847656 30.175781 73.847656 C 29.882812 73.847656 29.609375 73.734375 29.402344 73.527344 C 28.972656 73.09375 28.972656 72.394531 29.402344 71.964844 C 29.609375 71.757812 29.882812 71.640625 30.175781 71.640625 C 30.464844 71.640625 30.742188 71.757812 30.949219 71.964844 C 31.378906 72.394531 31.378906 73.09375 30.949219 73.527344 Z M 30.949219 73.527344 "/>
<path style=" stroke:none;fill-rule:nonzero;fill:rgb(0%,0%,0%);fill-opacity:1;" d="M 18.082031 69.296875 C 17.164062 69.296875 16.300781 69.65625 15.648438 70.308594 C 14.3125 71.652344 14.3125 73.835938 15.648438 75.179688 C 16.300781 75.832031 17.164062 76.191406 18.082031 76.191406 C 19 76.191406 19.867188 75.832031 20.515625 75.179688 C 21.855469 73.835938 21.855469 71.652344 20.515625 70.308594 C 19.867188 69.65625 19 69.296875 18.082031 69.296875 Z M 18.855469 73.527344 C 18.648438 73.734375 18.375 73.847656 18.082031 73.847656 C 17.789062 73.847656 17.515625 73.734375 17.308594 73.527344 C 16.878906 73.09375 16.878906 72.394531 17.308594 71.964844 C 17.515625 71.757812 17.789062 71.640625 18.082031 71.640625 C 18.375 71.640625 18.648438 71.757812 18.855469 71.964844 C 19.285156 72.394531 19.285156 73.09375 18.855469 73.527344 Z M 18.855469 73.527344 "/>
<path style=" stroke:none;fill-rule:nonzero;fill:rgb(0%,0%,0%);fill-opacity:1;" d="M 26.5625 63.726562 C 25.914062 63.074219 25.046875 62.714844 24.128906 62.714844 C 23.210938 62.714844 22.34375 63.074219 21.695312 63.726562 C 20.355469 65.070312 20.355469 67.257812 21.695312 68.597656 C 22.34375 69.25 23.210938 69.609375 24.128906 69.609375 C 25.046875 69.609375 25.914062 69.25 26.5625 68.597656 C 27.902344 67.257812 27.902344 65.070312 26.5625 63.726562 Z M 24.902344 66.945312 C 24.695312 67.152344 24.421875 67.265625 24.128906 67.265625 C 23.835938 67.265625 23.5625 67.152344 23.355469 66.945312 C 22.925781 66.515625 22.925781 65.8125 23.355469 65.382812 C 23.5625 65.175781 23.835938 65.058594 24.128906 65.058594 C 24.421875 65.058594 24.695312 65.175781 24.902344 65.382812 C 25.332031 65.8125 25.332031 66.515625 24.902344 66.945312 Z M 24.902344 66.945312 "/>
<path style=" stroke:none;fill-rule:nonzero;fill:rgb(0%,0%,0%);fill-opacity:1;" d="M 18.082031 63.390625 C 19 63.390625 19.867188 63.03125 20.515625 62.378906 C 21.855469 61.039062 21.855469 58.851562 20.515625 57.507812 C 19.867188 56.855469 19.003906 56.496094 18.082031 56.496094 C 17.164062 56.496094 16.300781 56.855469 15.648438 57.507812 C 14.3125 58.851562 14.3125 61.039062 15.648438 62.382812 C 16.300781 63.03125 17.164062 63.390625 18.082031 63.390625 Z M 17.308594 59.164062 C 17.515625 58.957031 17.789062 58.839844 18.082031 58.839844 C 18.375 58.839844 18.648438 58.957031 18.855469 59.164062 C 19.285156 59.59375 19.285156 60.296875 18.855469 60.726562 C 18.648438 60.933594 18.375 61.046875 18.082031 61.046875 C 17.789062 61.046875 17.515625 60.933594 17.308594 60.726562 C 16.878906 60.296875 16.878906 59.59375 17.308594 59.164062 Z M 17.308594 59.164062 "/>
</g>
</svg>
