<?xml version="1.0" encoding="UTF-8"?>
<svg xmlns="http://www.w3.org/2000/svg" xmlns:xlink="http://www.w3.org/1999/xlink" width="80px" height="80px" viewBox="0 0 80 80" version="1.1">
<g id="surface1">
<path style=" stroke:none;fill-rule:nonzero;fill:rgb(0%,0%,0%);fill-opacity:1;" d="M 77.261719 52.84375 L 72.894531 52.84375 C 73 50.957031 72.96875 47.550781 71.726562 45.175781 L 71.726562 22.089844 L 72.121094 22.089844 C 73.632812 22.089844 74.859375 20.863281 74.859375 19.351562 L 74.859375 14.597656 C 74.859375 13.085938 73.632812 11.855469 72.121094 11.855469 L 66.40625 11.855469 C 66.59375 8.953125 66.617188 2.410156 63.207031 0.441406 C 61.355469 -0.625 58.929688 0.238281 56 3.011719 C 54.59375 4.339844 53.417969 5.773438 52.847656 6.5 L 47.699219 6.5 C 47.132812 5.773438 45.957031 4.339844 44.550781 3.011719 C 41.617188 0.238281 39.195312 -0.625 37.34375 0.441406 C 33.933594 2.410156 33.953125 8.953125 34.144531 11.855469 L 28.867188 11.855469 C 27.355469 11.855469 26.128906 13.085938 26.128906 14.597656 L 26.128906 19.351562 C 26.128906 20.863281 27.355469 22.089844 28.867188 22.089844 L 29.261719 22.089844 L 29.261719 32.859375 L 24.742188 32.859375 C 24.171875 32.109375 22.988281 30.628906 21.578125 29.257812 C 18.632812 26.390625 16.195312 25.5 14.335938 26.609375 C 10.933594 28.640625 10.96875 35.429688 11.160156 38.394531 L 2.738281 38.394531 C 1.230469 38.394531 0 39.621094 0 41.132812 L 0 45.90625 C 0 47.394531 1.191406 48.605469 2.664062 48.644531 L 2.664062 54.582031 C 2.664062 55.230469 3.191406 55.757812 3.839844 55.757812 C 4.488281 55.757812 5.015625 55.230469 5.015625 54.582031 L 5.015625 48.648438 L 22.972656 48.648438 L 22.972656 77.652344 L 6.1875 77.652344 C 5.539062 77.652344 5.015625 77.125 5.015625 76.476562 L 5.015625 59.277344 C 5.015625 58.628906 4.488281 58.105469 3.839844 58.105469 C 3.191406 58.105469 2.664062 58.628906 2.664062 59.277344 L 2.664062 76.476562 C 2.664062 78.417969 4.246094 80 6.1875 80 L 73.894531 80 C 75.839844 80 77.417969 78.417969 77.417969 76.476562 L 77.417969 62.261719 C 78.855469 62.179688 80 60.988281 80 59.53125 L 80 55.582031 C 80 54.074219 78.769531 52.84375 77.261719 52.84375 Z M 22.972656 46.296875 L 2.738281 46.296875 C 2.523438 46.296875 2.347656 46.121094 2.347656 45.90625 L 2.347656 41.132812 C 2.347656 40.917969 2.523438 40.742188 2.738281 40.742188 L 22.972656 40.742188 Z M 22.976562 38.390625 L 13.519531 38.394531 C 13.460938 37.453125 13.40625 35.984375 13.507812 34.445312 C 13.707031 31.355469 14.429688 29.289062 15.539062 28.625 C 15.691406 28.535156 15.867188 28.492188 16.0625 28.492188 C 17.753906 28.492188 20.945312 31.660156 22.976562 34.414062 Z M 70.546875 52.84375 L 63.386719 52.84375 L 63.386719 48.859375 C 64.609375 47.386719 66.800781 45.296875 68.25 45.160156 C 68.558594 45.128906 68.773438 45.195312 68.980469 45.375 C 70.414062 46.621094 70.699219 50.257812 70.546875 52.84375 Z M 54.601562 8.066406 C 56.863281 5.089844 60.5625 1.628906 62.035156 2.476562 C 63.972656 3.59375 64.300781 8.445312 64.054688 11.855469 L 54.601562 11.855469 Z M 54.601562 14.207031 L 72.121094 14.207031 C 72.335938 14.207031 72.511719 14.382812 72.511719 14.597656 L 72.511719 19.351562 C 72.511719 19.566406 72.335938 19.742188 72.121094 19.742188 L 54.601562 19.742188 Z M 48.292969 8.847656 L 52.253906 8.847656 L 52.253906 11.855469 L 48.292969 11.855469 Z M 48.292969 14.207031 L 52.253906 14.207031 L 52.253906 19.742188 L 48.292969 19.742188 Z M 51.863281 40.742188 C 52.078125 40.742188 52.253906 40.917969 52.253906 41.132812 L 52.253906 43.464844 C 51.609375 43.125 50.945312 42.886719 50.292969 42.824219 C 49.347656 42.730469 48.484375 43.003906 47.792969 43.601562 C 47.011719 44.28125 46.476562 45.238281 46.109375 46.300781 L 31.628906 46.300781 L 31.628906 40.742188 Z M 43.445312 38.394531 C 43.632812 35.429688 43.667969 28.640625 40.265625 26.609375 C 38.40625 25.5 35.96875 26.390625 33.023438 29.257812 C 32.515625 29.753906 32.039062 30.257812 31.609375 30.742188 L 31.609375 22.089844 L 45.945312 22.089844 L 45.945312 38.394531 Z M 36.492188 8.074219 C 36.691406 5.101562 37.410156 3.113281 38.515625 2.476562 C 39.988281 1.628906 43.6875 5.089844 45.945312 8.066406 L 45.945312 11.855469 L 36.503906 11.855469 C 36.445312 10.949219 36.394531 9.546875 36.492188 8.074219 Z M 28.867188 19.742188 C 28.652344 19.742188 28.476562 19.566406 28.476562 19.351562 L 28.476562 14.597656 C 28.476562 14.382812 28.652344 14.207031 28.867188 14.207031 L 45.945312 14.207031 L 45.945312 19.742188 Z M 25.324219 35.207031 L 29.28125 35.207031 L 29.28125 38.390625 L 25.324219 38.390625 Z M 29.28125 77.652344 L 25.320312 77.652344 L 25.320312 48.648438 L 29.28125 48.648438 Z M 29.28125 46.296875 L 25.320312 46.296875 L 25.320312 40.742188 L 29.28125 40.742188 Z M 31.628906 34.417969 C 33.894531 31.34375 37.601562 27.753906 39.0625 28.625 C 41.015625 29.792969 41.34375 34.851562 41.09375 38.394531 L 31.628906 38.394531 Z M 31.628906 77.652344 L 31.628906 48.648438 L 45.570312 48.648438 C 45.347656 50.222656 45.363281 51.777344 45.421875 52.84375 L 41.054688 52.84375 C 39.546875 52.84375 38.316406 54.074219 38.316406 55.582031 L 38.316406 59.527344 C 38.316406 60.988281 39.460938 62.179688 40.898438 62.261719 L 40.898438 76.476562 C 40.898438 76.890625 40.96875 77.285156 41.101562 77.652344 Z M 54.929688 77.652344 L 44.421875 77.652344 C 43.773438 77.652344 43.246094 77.125 43.246094 76.476562 L 43.246094 62.269531 L 54.929688 62.269531 Z M 54.929688 59.921875 L 41.054688 59.921875 C 40.839844 59.921875 40.664062 59.746094 40.664062 59.527344 L 40.664062 55.582031 C 40.664062 55.367188 40.839844 55.191406 41.054688 55.191406 L 54.929688 55.191406 Z M 54.929688 52.84375 L 47.769531 52.84375 C 47.617188 50.257812 47.902344 46.621094 49.335938 45.375 C 49.542969 45.195312 49.761719 45.128906 50.066406 45.160156 C 51.515625 45.296875 53.707031 47.386719 54.929688 48.859375 Z M 54.601562 45.148438 L 54.601562 32.023438 C 54.601562 31.375 54.078125 30.847656 53.429688 30.847656 C 52.78125 30.847656 52.253906 31.375 52.253906 32.023438 L 52.253906 38.394531 L 48.292969 38.394531 L 48.292969 22.089844 L 52.253906 22.089844 L 52.253906 27.328125 C 52.253906 27.976562 52.78125 28.5 53.429688 28.5 C 54.078125 28.5 54.601562 27.976562 54.601562 27.328125 L 54.601562 22.089844 L 69.378906 22.089844 L 69.378906 42.957031 C 68.957031 42.824219 68.5 42.777344 68.027344 42.824219 C 65.441406 43.070312 62.671875 46.070312 61.65625 47.269531 L 56.660156 47.269531 C 56.234375 46.765625 55.5 45.949219 54.601562 45.148438 Z M 57.277344 52.84375 L 57.277344 49.621094 L 61.039062 49.621094 L 61.039062 52.84375 Z M 61.039062 55.191406 L 61.039062 59.921875 L 57.277344 59.921875 L 57.277344 55.191406 Z M 75.070312 76.476562 C 75.070312 77.125 74.542969 77.652344 73.894531 77.652344 L 63.386719 77.652344 L 63.386719 72.308594 C 63.386719 71.660156 62.863281 71.132812 62.214844 71.132812 C 61.5625 71.132812 61.039062 71.660156 61.039062 72.308594 L 61.039062 77.652344 L 57.277344 77.652344 L 57.277344 62.269531 L 61.039062 62.269531 L 61.039062 67.613281 C 61.039062 68.261719 61.5625 68.785156 62.214844 68.785156 C 62.863281 68.785156 63.386719 68.261719 63.386719 67.613281 L 63.386719 62.269531 L 75.070312 62.269531 Z M 77.652344 59.527344 C 77.652344 59.746094 77.476562 59.921875 77.261719 59.921875 L 63.386719 59.921875 L 63.386719 55.191406 L 77.261719 55.191406 C 77.476562 55.191406 77.652344 55.367188 77.652344 55.582031 Z M 77.652344 59.527344 "/>
</g>
</svg>
