<?xml version="1.0" encoding="UTF-8"?>
<svg xmlns="http://www.w3.org/2000/svg" xmlns:xlink="http://www.w3.org/1999/xlink" width="80px" height="80px" viewBox="0 0 80 80" version="1.1">
<g id="surface1">
<path style=" stroke:none;fill-rule:nonzero;fill:rgb(0%,0%,0%);fill-opacity:1;" d="M 2.9375 37.121094 L 36.59375 37.121094 L 36.59375 27.167969 L 43.40625 27.167969 L 43.40625 37.121094 L 77.058594 37.121094 L 77.058594 17.070312 L 63.964844 17.070312 C 66.449219 12.15625 66.070312 6.527344 62.566406 3.023438 C 60.617188 1.074219 57.910156 0 54.945312 0 C 51.160156 0 47.273438 1.710938 44.289062 4.699219 C 41.492188 7.492188 40.398438 12.035156 40 15.867188 C 39.601562 12.035156 38.507812 7.492188 35.710938 4.699219 C 32.726562 1.710938 28.839844 0 25.054688 0 C 22.089844 0 19.382812 1.074219 17.433594 3.023438 C 15.125 5.332031 14.0625 8.699219 14.515625 12.265625 C 14.722656 13.910156 15.234375 15.535156 16.015625 17.070312 L 2.9375 17.070312 Z M 49.355469 9.761719 C 50.980469 8.132812 53.074219 7.160156 54.945312 7.160156 C 55.691406 7.160156 56.738281 7.320312 57.503906 8.085938 C 59.226562 9.8125 58.445312 13.621094 55.828125 16.238281 C 54.546875 17.519531 51.171875 18.402344 46.996094 18.585938 C 47.160156 15.15625 47.859375 11.253906 49.355469 9.761719 Z M 22.496094 8.085938 C 23.261719 7.320312 24.308594 7.160156 25.054688 7.160156 C 26.925781 7.160156 29.019531 8.132812 30.644531 9.761719 C 32.152344 11.269531 32.851562 15.132812 33.007812 18.585938 C 28.832031 18.402344 25.453125 17.519531 24.171875 16.238281 C 22.761719 14.828125 21.832031 13.054688 21.617188 11.367188 C 21.515625 10.570312 21.496094 9.085938 22.496094 8.085938 Z M 36.59375 43.476562 L 36.59375 80 L 8.042969 80 L 8.042969 43.476562 Z M 43.40625 80 L 43.40625 43.476562 L 71.957031 43.476562 L 71.957031 80 Z M 43.40625 80 "/>
</g>
</svg>
