<?xml version="1.0" encoding="UTF-8"?>
<svg xmlns="http://www.w3.org/2000/svg" xmlns:xlink="http://www.w3.org/1999/xlink" width="80px" height="80px" viewBox="0 0 80 80" version="1.1">
<g id="surface1">
<path style=" stroke:none;fill-rule:nonzero;fill:rgb(0%,0%,0%);fill-opacity:1;" d="M 69.089844 0 L 80 0 L 80 80 L 69.089844 80 Z M 69.089844 0 "/>
<path style=" stroke:none;fill-rule:nonzero;fill:rgb(0%,0%,0%);fill-opacity:1;" d="M 47.273438 25.453125 L 58.183594 25.453125 L 58.183594 80 L 47.273438 80 Z M 47.273438 25.453125 "/>
<path style=" stroke:none;fill-rule:nonzero;fill:rgb(0%,0%,0%);fill-opacity:1;" d="M 25.453125 50.910156 L 36.363281 50.910156 L 36.363281 80 L 25.453125 80 Z M 25.453125 50.910156 "/>
<path style=" stroke:none;fill-rule:nonzero;fill:rgb(0%,0%,0%);fill-opacity:1;" d="M 3.636719 65.453125 L 14.546875 65.453125 L 14.546875 80 L 3.636719 80 Z M 3.636719 65.453125 "/>
<path style=" stroke:none;fill-rule:nonzero;fill:rgb(0%,0%,0%);fill-opacity:1;" d="M 18.179688 0 C 8.140625 0 0 8.140625 0 18.183594 C 0 28.226562 8.140625 36.367188 18.183594 36.367188 C 28.222656 36.363281 36.363281 28.222656 36.363281 18.179688 C 36.378906 13.355469 34.46875 8.722656 31.054688 5.308594 C 27.640625 1.894531 23.007812 -0.015625 18.179688 0 Z M 22.835938 19.601562 C 22.761719 19.726562 22.667969 19.835938 22.554688 19.925781 C 22.4375 20.023438 22.308594 20.101562 22.164062 20.15625 C 22.015625 20.210938 21.855469 20.242188 21.695312 20.242188 L 16.8125 20.242188 L 16.542969 22.59375 C 16.480469 23.144531 16.339844 23.683594 16.132812 24.195312 C 15.921875 24.675781 15.640625 25.121094 15.289062 25.511719 C 15.753906 25.410156 16.21875 25.324219 16.679688 25.261719 C 17.136719 25.203125 17.59375 25.171875 18.054688 25.171875 L 25.433594 25.171875 L 25.207031 26.875 C 25.171875 27.09375 25.101562 27.304688 24.992188 27.5 C 24.878906 27.710938 24.730469 27.902344 24.558594 28.070312 C 24.375 28.242188 24.164062 28.386719 23.933594 28.492188 C 23.695312 28.597656 23.4375 28.648438 23.175781 28.648438 L 9.5625 28.648438 L 9.90625 26.09375 C 10.550781 25.960938 11.042969 25.710938 11.378906 25.34375 C 11.714844 24.980469 11.929688 24.441406 12.003906 23.726562 L 12.433594 20.238281 L 10.359375 20.238281 L 10.574219 18.570312 C 10.59375 18.441406 10.640625 18.320312 10.710938 18.207031 C 10.78125 18.085938 10.875 17.976562 10.988281 17.886719 C 11.105469 17.789062 11.238281 17.710938 11.378906 17.652344 C 11.527344 17.589844 11.6875 17.558594 11.847656 17.558594 L 12.761719 17.558594 L 13.144531 14.410156 C 13.257812 13.515625 13.523438 12.644531 13.925781 11.839844 C 14.328125 11.035156 14.875 10.308594 15.539062 9.703125 C 16.238281 9.074219 17.046875 8.578125 17.925781 8.242188 C 18.914062 7.871094 19.960938 7.6875 21.015625 7.703125 C 21.757812 7.6875 22.5 7.785156 23.210938 7.988281 C 23.796875 8.15625 24.351562 8.421875 24.851562 8.769531 C 25.308594 9.09375 25.707031 9.503906 26.019531 9.972656 C 26.335938 10.453125 26.597656 10.964844 26.800781 11.503906 L 24.949219 12.597656 C 24.597656 12.777344 24.207031 12.863281 23.816406 12.855469 C 23.441406 12.824219 23.097656 12.640625 22.871094 12.34375 C 22.699219 12.136719 22.539062 11.953125 22.390625 11.804688 C 22.253906 11.65625 22.097656 11.535156 21.921875 11.433594 C 21.746094 11.332031 21.554688 11.261719 21.351562 11.226562 C 21.101562 11.179688 20.847656 11.15625 20.59375 11.160156 C 19.820312 11.140625 19.074219 11.445312 18.53125 11.996094 C 17.976562 12.550781 17.636719 13.347656 17.515625 14.382812 L 17.128906 17.558594 L 23.171875 17.558594 L 22.96875 19.226562 C 22.949219 19.359375 22.902344 19.484375 22.835938 19.601562 Z M 22.835938 19.601562 "/>
</g>
</svg>
