<?xml version="1.0" encoding="UTF-8"?>
<svg xmlns="http://www.w3.org/2000/svg" xmlns:xlink="http://www.w3.org/1999/xlink" width="80px" height="80px" viewBox="0 0 80 80" version="1.1">
<g id="surface1">
<path style=" stroke:none;fill-rule:nonzero;fill:rgb(0%,0%,0%);fill-opacity:1;" d="M 53.785156 43.242188 L 46.972656 40.214844 C 46.492188 40.003906 46.183594 39.523438 46.183594 39 L 46.183594 37.128906 C 48.46875 35.304688 49.941406 32.5 49.941406 29.351562 L 49.941406 26.722656 C 50.695312 26.304688 51.191406 25.5 51.191406 24.597656 L 51.191406 24.34375 C 51.191406 18.863281 46.734375 14.402344 41.253906 14.402344 L 38.746094 14.402344 C 33.265625 14.402344 28.808594 18.863281 28.808594 24.34375 L 28.808594 26.660156 C 28.808594 27.453125 29.148438 28.171875 29.742188 28.628906 C 29.84375 28.707031 29.949219 28.777344 30.0625 28.835938 L 30.0625 29.351562 C 30.0625 32.5 31.53125 35.304688 33.816406 37.128906 L 33.816406 38.996094 C 33.816406 39.523438 33.507812 40.003906 33.027344 40.214844 L 26.21875 43.242188 C 23.988281 44.234375 22.546875 46.453125 22.546875 48.890625 L 22.546875 64.425781 C 22.546875 65.070312 23.070312 65.597656 23.71875 65.597656 C 24.363281 65.597656 24.890625 65.070312 24.890625 64.425781 L 24.890625 48.890625 C 24.890625 48.757812 24.898438 48.621094 24.914062 48.488281 L 28.050781 51.625 C 28.539062 52.117188 28.808594 52.765625 28.808594 53.457031 L 28.808594 64.425781 C 28.808594 65.070312 29.332031 65.597656 29.980469 65.597656 C 30.628906 65.597656 31.152344 65.070312 31.152344 64.425781 L 31.152344 53.457031 C 31.152344 52.136719 30.640625 50.902344 29.707031 49.96875 L 25.96875 46.230469 C 26.304688 45.878906 26.707031 45.589844 27.167969 45.382812 L 33.863281 42.410156 L 38.828125 47.375 L 38.828125 64.425781 C 38.828125 65.070312 39.351562 65.597656 40 65.597656 C 40.648438 65.597656 41.171875 65.070312 41.171875 64.425781 L 41.171875 47.375 L 46.136719 42.410156 L 52.832031 45.382812 C 53.292969 45.589844 53.695312 45.878906 54.035156 46.230469 L 50.292969 49.96875 C 49.363281 50.902344 48.847656 52.136719 48.847656 53.457031 L 48.847656 64.425781 C 48.847656 65.070312 49.375 65.597656 50.019531 65.597656 C 50.667969 65.597656 51.191406 65.070312 51.191406 64.425781 L 51.191406 53.457031 C 51.191406 52.765625 51.460938 52.117188 51.949219 51.625 L 55.085938 48.488281 C 55.101562 48.621094 55.113281 48.757812 55.113281 48.890625 L 55.113281 64.425781 C 55.113281 65.070312 55.636719 65.597656 56.285156 65.597656 C 56.929688 65.597656 57.457031 65.070312 57.457031 64.425781 L 57.457031 48.890625 C 57.453125 46.453125 56.015625 44.234375 53.785156 43.242188 Z M 40 45.230469 L 35.644531 40.875 C 35.976562 40.316406 36.160156 39.671875 36.160156 39 L 36.160156 38.519531 C 37.34375 39.019531 38.640625 39.292969 40 39.292969 C 41.359375 39.292969 42.65625 39.019531 43.839844 38.519531 L 43.839844 39 C 43.839844 39.671875 44.023438 40.316406 44.355469 40.875 Z M 40 36.949219 C 35.8125 36.949219 32.40625 33.542969 32.40625 29.351562 L 32.40625 28.828125 C 33.136719 28.535156 33.847656 28.074219 34.53125 27.445312 C 35.007812 27.007812 35.039062 26.265625 34.597656 25.789062 C 34.160156 25.3125 33.417969 25.285156 32.941406 25.722656 C 32.355469 26.261719 31.769531 26.613281 31.203125 26.761719 C 31.1875 26.765625 31.179688 26.765625 31.171875 26.765625 C 31.164062 26.75 31.152344 26.714844 31.152344 26.660156 L 31.152344 24.34375 C 31.152344 20.15625 34.558594 16.746094 38.746094 16.746094 L 41.253906 16.746094 C 45.441406 16.746094 48.847656 20.15625 48.847656 24.34375 L 48.847656 24.597656 C 48.847656 24.636719 48.824219 24.667969 48.796875 24.675781 C 41.777344 26.0625 38.257812 23.449219 37.070312 22.261719 C 36.613281 21.804688 35.871094 21.804688 35.414062 22.261719 C 34.957031 22.71875 34.957031 23.460938 35.414062 23.917969 C 39.054688 27.558594 44.363281 27.625 47.597656 27.234375 L 47.597656 29.351562 C 47.597656 33.542969 44.1875 36.949219 40 36.949219 Z M 40 36.949219 "/>
<path style=" stroke:none;fill-rule:nonzero;fill:rgb(0%,0%,0%);fill-opacity:1;" d="M 21.132812 36.867188 L 21.132812 34.363281 C 21.132812 31.304688 19.542969 28.613281 17.148438 27.066406 C 17.296875 26.59375 17.375 26.09375 17.375 25.597656 C 17.375 22.878906 15.164062 20.667969 12.445312 20.667969 C 9.726562 20.667969 7.515625 22.878906 7.515625 25.597656 C 7.515625 26.101562 7.589844 26.59375 7.738281 27.066406 C 5.347656 28.613281 3.757812 31.304688 3.757812 34.363281 L 3.757812 36.867188 C 3.757812 39.828125 5.246094 42.445312 7.515625 44.015625 L 7.515625 46.59375 C 7.515625 47.101562 7.234375 47.558594 6.777344 47.785156 L 2.726562 49.8125 C 1.042969 50.652344 0 52.34375 0 54.222656 L 0 64.425781 C 0 65.070312 0.523438 65.597656 1.171875 65.597656 C 1.820312 65.597656 2.34375 65.070312 2.34375 64.425781 L 2.34375 54.726562 L 4.253906 56.636719 C 4.742188 57.125 5.011719 57.773438 5.011719 58.464844 L 5.011719 64.425781 C 5.011719 65.070312 5.535156 65.597656 6.183594 65.597656 C 6.828125 65.597656 7.355469 65.070312 7.355469 64.425781 L 7.355469 58.464844 C 7.355469 57.148438 6.839844 55.910156 5.910156 54.980469 L 3.253906 52.324219 C 3.242188 52.308594 3.226562 52.300781 3.214844 52.285156 C 3.378906 52.140625 3.566406 52.011719 3.773438 51.910156 L 7.828125 49.882812 C 8.035156 49.777344 8.226562 49.65625 8.40625 49.519531 L 11.273438 52.382812 L 11.273438 64.425781 C 11.273438 65.070312 11.796875 65.597656 12.445312 65.597656 C 13.089844 65.597656 13.617188 65.070312 13.617188 64.425781 L 13.617188 52.382812 L 16.480469 49.519531 C 16.660156 49.65625 16.855469 49.777344 17.0625 49.882812 L 18.179688 50.441406 C 18.347656 50.523438 18.527344 50.566406 18.703125 50.566406 C 19.132812 50.566406 19.546875 50.328125 19.753906 49.917969 C 20.042969 49.339844 19.808594 48.632812 19.230469 48.34375 L 18.109375 47.785156 C 17.65625 47.558594 17.375 47.101562 17.375 46.59375 L 17.375 44.015625 C 19.640625 42.449219 21.132812 39.828125 21.132812 36.867188 Z M 12.445312 23.011719 C 13.871094 23.011719 15.03125 24.171875 15.03125 25.597656 C 15.03125 25.753906 15.015625 25.90625 14.988281 26.058594 C 14.183594 25.808594 13.328125 25.675781 12.445312 25.675781 C 11.5625 25.675781 10.707031 25.808594 9.902344 26.054688 C 9.875 25.90625 9.859375 25.753906 9.859375 25.597656 C 9.859375 24.171875 11.019531 23.011719 12.445312 23.011719 Z M 12.445312 28.019531 C 15.941406 28.019531 18.789062 30.867188 18.789062 34.363281 L 18.789062 34.789062 C 13.910156 36.28125 11 32.570312 10.878906 32.40625 C 10.671875 32.136719 10.363281 31.964844 10.023438 31.941406 C 9.683594 31.917969 9.351562 32.042969 9.109375 32.28125 C 7.992188 33.402344 6.898438 33.941406 6.105469 34.199219 C 6.191406 30.777344 9 28.019531 12.445312 28.019531 Z M 12.445312 50.242188 L 9.738281 47.535156 C 9.816406 47.230469 9.859375 46.917969 9.859375 46.59375 L 9.859375 45.164062 C 10.675781 45.417969 11.542969 45.554688 12.445312 45.554688 C 13.34375 45.554688 14.214844 45.417969 15.03125 45.164062 L 15.03125 46.59375 C 15.03125 46.917969 15.074219 47.230469 15.152344 47.535156 Z M 12.445312 43.210938 C 8.945312 43.210938 6.101562 40.367188 6.101562 36.867188 L 6.101562 36.625 C 7.035156 36.410156 8.421875 35.910156 9.867188 34.75 C 10.378906 35.230469 11.109375 35.824219 12.039062 36.332031 C 13.140625 36.933594 14.660156 37.488281 16.519531 37.488281 C 17.222656 37.488281 17.980469 37.40625 18.777344 37.21875 C 18.597656 40.554688 15.824219 43.210938 12.445312 43.210938 Z M 12.445312 43.210938 "/>
<path style=" stroke:none;fill-rule:nonzero;fill:rgb(0%,0%,0%);fill-opacity:1;" d="M 77.273438 47.308594 L 70.71875 44.027344 C 70.261719 43.800781 69.980469 43.34375 69.980469 42.835938 L 69.980469 41.175781 C 71.515625 39.8125 72.484375 37.824219 72.484375 35.617188 L 72.484375 34.28125 C 72.511719 34.28125 72.539062 34.28125 72.566406 34.28125 C 73.214844 34.28125 73.738281 33.757812 73.738281 33.109375 L 73.738281 30.605469 C 73.738281 26.507812 70.402344 23.171875 66.304688 23.171875 L 63.796875 23.171875 C 59.699219 23.171875 56.363281 26.507812 56.363281 30.605469 L 56.363281 33.109375 C 56.363281 33.757812 56.886719 34.28125 57.535156 34.28125 C 57.546875 34.28125 57.574219 34.28125 57.617188 34.28125 L 57.617188 35.617188 C 57.617188 37.824219 58.585938 39.8125 60.121094 41.175781 L 60.121094 42.835938 C 60.121094 43.34375 59.839844 43.800781 59.382812 44.027344 C 58.804688 44.316406 58.570312 45.019531 58.859375 45.601562 C 59.066406 46.011719 59.480469 46.25 59.910156 46.25 C 60.085938 46.25 60.265625 46.207031 60.433594 46.125 C 60.640625 46.019531 60.832031 45.898438 61.011719 45.761719 L 63.878906 48.628906 L 63.878906 64.425781 C 63.878906 65.070312 64.402344 65.597656 65.050781 65.597656 C 65.699219 65.597656 66.222656 65.070312 66.222656 64.425781 L 66.222656 48.625 L 69.085938 45.761719 C 69.269531 45.898438 69.460938 46.019531 69.667969 46.125 L 76.015625 49.296875 L 74.089844 51.222656 C 73.160156 52.152344 72.644531 53.390625 72.644531 54.707031 L 72.644531 64.425781 C 72.644531 65.070312 73.171875 65.597656 73.816406 65.597656 C 74.464844 65.597656 74.988281 65.070312 74.988281 64.425781 L 74.988281 54.707031 C 74.988281 54.015625 75.257812 53.367188 75.746094 52.878906 L 77.570312 51.054688 C 77.625 51.269531 77.65625 51.488281 77.65625 51.714844 L 77.65625 64.425781 C 77.65625 65.070312 78.179688 65.597656 78.828125 65.597656 C 79.476562 65.597656 80 65.070312 80 64.425781 L 80 51.714844 C 80 49.835938 78.957031 48.148438 77.273438 47.308594 Z M 58.707031 31.699219 L 58.707031 30.605469 C 58.707031 27.800781 60.992188 25.515625 63.796875 25.515625 L 66.304688 25.515625 C 69.109375 25.515625 71.394531 27.800781 71.394531 30.605469 L 71.394531 31.90625 C 66.300781 31.632812 63.226562 29.652344 63.195312 29.632812 C 62.996094 29.5 62.769531 29.433594 62.546875 29.433594 C 62.242188 29.433594 61.945312 29.550781 61.71875 29.777344 C 60.59375 30.898438 59.496094 31.4375 58.707031 31.699219 Z M 65.050781 46.484375 L 62.34375 43.777344 C 62.421875 43.472656 62.464844 43.160156 62.464844 42.835938 L 62.464844 42.585938 C 63.269531 42.886719 64.140625 43.050781 65.050781 43.050781 C 65.960938 43.050781 66.832031 42.886719 67.636719 42.585938 L 67.636719 42.835938 C 67.636719 43.160156 67.679688 43.472656 67.757812 43.777344 Z M 65.050781 40.707031 C 62.242188 40.707031 59.960938 38.421875 59.960938 35.617188 L 59.960938 33.726562 C 60.78125 33.398438 61.738281 32.878906 62.710938 32.046875 C 63.941406 32.6875 66.515625 33.796875 70.140625 34.160156 L 70.140625 35.617188 C 70.140625 38.421875 67.859375 40.707031 65.050781 40.707031 Z M 65.050781 40.707031 "/>
</g>
</svg>
