<?xml version="1.0" encoding="UTF-8"?>
<svg xmlns="http://www.w3.org/2000/svg" xmlns:xlink="http://www.w3.org/1999/xlink" width="80px" height="80px" viewBox="0 0 80 80" version="1.1">
<g id="surface1">
<path style=" stroke:none;fill-rule:nonzero;fill:rgb(0%,0%,0%);fill-opacity:1;" d="M 70.34375 1.828125 C 67.3125 -1.21875 62.875 -0.140625 60 2.78125 L 36.65625 26.09375 L 29.53125 28 C 28.34375 28.359375 27.65625 29.609375 28 30.796875 C 28.125 31.203125 28.34375 31.5625 28.65625 31.84375 L 32.796875 36 C 33.640625 36.921875 35.0625 37 36 36.15625 C 36.3125 35.875 36.53125 35.515625 36.65625 35.125 L 38.421875 28.390625 L 47.875 25.71875 C 49.265625 25.3125 50.78125 25.703125 51.8125 26.734375 L 61.84375 36.78125 C 63.40625 38.34375 65.9375 38.34375 67.5 36.796875 C 67.5 36.796875 67.5 36.796875 67.515625 36.78125 L 78.828125 25.46875 C 80.390625 23.90625 80.390625 21.375 78.828125 19.8125 L 73.171875 14.15625 C 69.953125 10.859375 73.75 5.234375 70.34375 1.828125 Z M 34.34375 33.65625 L 31.03125 30.34375 L 35.53125 29.15625 Z M 77.015625 23.515625 L 65.6875 34.828125 C 65.171875 35.34375 64.328125 35.34375 63.8125 34.828125 L 53.703125 24.796875 C 52.453125 23.546875 50.75 22.84375 48.984375 22.84375 C 47.65625 22.84375 47.3125 23.0625 41.921875 24.59375 L 60.921875 5.59375 L 76.921875 21.59375 C 77.453125 22.09375 77.484375 22.9375 76.984375 23.484375 C 76.96875 23.5 76.96875 23.515625 76.953125 23.515625 Z M 62.875 3.796875 C 64.734375 2.46875 66.875 2.109375 68.453125 3.71875 C 69.671875 4.9375 69.0625 7.390625 69.078125 10 Z M 62.875 3.796875 "/>
<path style=" stroke:none;fill-rule:nonzero;fill:rgb(0%,0%,0%);fill-opacity:1;" d="M 25.328125 41.328125 C 26.046875 41.328125 26.09375 41.125 28.9375 38.28125 C 29.453125 37.765625 29.453125 36.90625 28.9375 36.390625 C 28.421875 35.875 27.5625 35.875 27.046875 36.390625 L 24.375 39.0625 C 23.859375 39.578125 23.84375 40.421875 24.359375 40.953125 C 24.625 41.1875 24.96875 41.328125 25.328125 41.328125 Z M 25.328125 41.328125 "/>
<path style=" stroke:none;fill-rule:nonzero;fill:rgb(0%,0%,0%);fill-opacity:1;" d="M 30.671875 40 L 30.671875 41.328125 C 30.671875 42.0625 31.265625 42.65625 32 42.65625 C 32.734375 42.65625 33.328125 42.0625 33.328125 41.328125 L 33.328125 40 C 33.328125 39.265625 32.734375 38.671875 32 38.671875 C 31.265625 38.671875 30.671875 39.265625 30.671875 40 Z M 30.671875 40 "/>
<path style=" stroke:none;fill-rule:nonzero;fill:rgb(0%,0%,0%);fill-opacity:1;" d="M 26.671875 33.328125 C 26.671875 32.59375 26.078125 32 25.34375 32 L 24.015625 32 C 23.28125 32.03125 22.703125 32.640625 22.734375 33.375 C 22.765625 34.078125 23.328125 34.640625 24.015625 34.65625 L 25.34375 34.65625 C 26.0625 34.671875 26.671875 34.0625 26.671875 33.328125 Z M 26.671875 33.328125 "/>
<path style=" stroke:none;fill-rule:nonzero;fill:rgb(0%,0%,0%);fill-opacity:1;" d="M 80 65.65625 C 79.984375 64.71875 79.203125 63.984375 78.265625 64 C 77.984375 64 77.703125 64.078125 77.453125 64.234375 C 75.265625 65.546875 73.40625 67.34375 72 69.484375 L 72 62.15625 C 73.5 60.96875 74.671875 57.9375 74.671875 54.671875 L 74.671875 53.34375 C 74.796875 52 73.796875 50.796875 72.453125 50.671875 L 68.90625 50.671875 C 67.5625 50.796875 66.5625 51.984375 66.671875 53.328125 C 66.671875 53.328125 66.671875 53.34375 66.671875 53.34375 L 66.671875 54.671875 C 66.671875 57.9375 67.828125 60.96875 69.34375 62.15625 L 69.34375 69.484375 C 67.9375 67.34375 66.078125 65.546875 63.890625 64.234375 C 63.078125 63.765625 62.046875 64.03125 61.578125 64.84375 C 61.4375 65.09375 61.359375 65.375 61.34375 65.65625 C 61.453125 71.8125 63.265625 75.328125 65.265625 77.34375 L 53.59375 77.34375 C 56.09375 74.9375 58.546875 70.390625 58.671875 61.75 C 58.65625 60.78125 57.875 60.015625 56.90625 60.015625 C 56.59375 60.015625 56.28125 60.109375 56 60.28125 C 53.203125 62.15625 50.90625 64.6875 49.328125 67.671875 L 49.328125 55.671875 C 51.921875 54 53.453125 51.09375 53.328125 48 L 53.328125 42.671875 C 53.328125 41.203125 52.140625 40 50.671875 40 C 50.671875 40 50.671875 40 50.65625 40 L 45.328125 40 C 43.859375 40 42.65625 41.1875 42.65625 42.671875 L 42.65625 48 C 42.546875 51.078125 44.0625 53.984375 46.65625 55.640625 L 46.65625 67.640625 C 45.078125 64.671875 42.78125 62.125 39.984375 60.25 C 39.171875 59.734375 38.09375 60 37.578125 60.8125 C 37.40625 61.078125 37.3125 61.390625 37.3125 61.71875 C 37.453125 70.359375 39.890625 74.90625 42.390625 77.3125 L 22.390625 77.3125 C 26.71875 74 31.71875 66.640625 31.921875 49.984375 C 31.9375 48.890625 31.0625 47.984375 29.96875 47.96875 C 29.5625 47.96875 29.15625 48.078125 28.828125 48.3125 C 23.578125 52.21875 19.578125 57.5625 17.3125 63.71875 L 17.3125 31.71875 C 19.453125 30.9375 20.25 28.6875 20.296875 26.390625 C 21.40625 27.578125 22.921875 28.296875 24.546875 28.421875 C 26.703125 28.40625 28.4375 26.65625 28.4375 24.5 C 28.4375 24.25 28.40625 24 28.359375 23.765625 C 28.046875 22.4375 27.375 21.234375 26.40625 20.28125 C 27.765625 20.3125 29.09375 19.9375 30.25 19.234375 C 33.28125 17.125 32.578125 11.8125 26.40625 11.65625 C 30.609375 7.234375 27.453125 2.921875 23.734375 3.65625 C 22.421875 3.96875 21.21875 4.640625 20.265625 5.609375 C 20.28125 4.25 19.90625 2.921875 19.203125 1.765625 C 17.140625 -1.328125 11.828125 -0.59375 11.6875 5.578125 C 7.265625 1.359375 2.953125 4.546875 3.6875 8.25 C 4 9.5625 4.671875 10.765625 5.640625 11.71875 C 4.28125 11.703125 2.953125 12.078125 1.796875 12.78125 C -1.203125 14.84375 -0.59375 20.1875 5.640625 20.328125 C 4.671875 21.28125 3.984375 22.484375 3.6875 23.8125 C 3.015625 27.453125 7.28125 30.71875 11.75 26.484375 C 11.75 28.765625 12.578125 31.015625 14.734375 31.8125 L 14.734375 63.8125 C 12.453125 57.625 8.421875 52.25 3.109375 48.34375 C 2.203125 47.71875 0.96875 47.953125 0.34375 48.859375 C 0.109375 49.203125 -0.015625 49.59375 0 50.015625 C 0.234375 66.671875 5.203125 74.03125 9.53125 77.328125 L 1.328125 77.328125 C 0.59375 77.359375 0.015625 77.96875 0.046875 78.703125 C 0.078125 79.40625 0.640625 79.96875 1.328125 79.984375 L 78.65625 79.984375 C 79.390625 79.953125 79.96875 79.34375 79.9375 78.609375 C 79.90625 77.90625 79.34375 77.34375 78.65625 77.328125 L 76.0625 77.328125 C 78.078125 75.3125 79.890625 71.8125 80 65.65625 Z M 77.234375 67.609375 C 76.640625 74 73.875 76.203125 72.09375 76.9375 C 72.484375 73.28125 74.34375 69.90625 77.234375 67.609375 Z M 69.328125 53.328125 L 72 53.328125 L 72 54.65625 C 72.0625 56.4375 71.59375 58.203125 70.671875 59.71875 C 69.734375 58.203125 69.28125 56.4375 69.34375 54.65625 Z M 64.109375 67.609375 C 67 69.90625 68.84375 73.265625 69.25 76.9375 C 67.484375 76.1875 64.6875 73.984375 64.109375 67.609375 Z M 55.9375 63.609375 C 55.34375 73.171875 51.53125 76.0625 49.40625 76.9375 C 49.6875 71.78125 52.078125 66.96875 56 63.609375 Z M 45.328125 48 L 45.328125 42.671875 L 50.65625 42.671875 L 50.65625 48 C 50.8125 50.125 49.78125 52.171875 47.984375 53.328125 C 46.203125 52.171875 45.1875 50.125 45.328125 48 Z M 40.0625 63.625 C 43.96875 67 46.328125 71.8125 46.59375 76.953125 C 44.46875 76.078125 40.65625 73.1875 40.0625 63.625 Z M 29.328125 51.375 C 28.65625 71.5625 20.6875 76 17.328125 77.0625 C 17.90625 62.015625 25.921875 54.0625 29.328125 51.375 Z M 25.421875 25.421875 C 25.125 25.734375 24.6875 25.859375 24.265625 25.75 C 22.671875 25.203125 21.359375 24.046875 20.609375 22.53125 C 21.34375 21.984375 22 21.34375 22.546875 20.59375 C 24.0625 21.34375 25.203125 22.65625 25.765625 24.25 C 25.875 24.6875 25.734375 25.125 25.421875 25.421875 Z M 28.75 14.953125 C 29.328125 15.3125 29.515625 16.078125 29.15625 16.65625 C 29.0625 16.8125 28.921875 16.953125 28.75 17.0625 C 27.234375 17.796875 25.484375 17.90625 23.890625 17.375 C 24.046875 16.46875 24.046875 15.53125 23.890625 14.625 C 25.484375 14.09375 27.234375 14.203125 28.75 14.953125 Z M 24.265625 6.234375 C 24.9375 6.078125 25.59375 6.484375 25.765625 7.15625 C 25.8125 7.34375 25.8125 7.546875 25.765625 7.734375 C 25.21875 9.328125 24.0625 10.640625 22.546875 11.390625 C 22 10.65625 21.359375 10 20.609375 9.453125 C 21.359375 7.9375 22.671875 6.796875 24.265625 6.234375 Z M 14.9375 3.25 C 15.296875 2.671875 16.0625 2.484375 16.640625 2.84375 C 16.796875 2.9375 16.9375 3.078125 17.046875 3.25 C 17.765625 4.78125 17.875 6.515625 17.34375 8.125 C 16.4375 7.96875 15.5 7.96875 14.59375 8.125 C 14.078125 6.515625 14.203125 4.765625 14.9375 3.25 Z M 6.578125 6.578125 C 6.875 6.265625 7.3125 6.140625 7.734375 6.25 C 9.328125 6.796875 10.640625 7.953125 11.390625 9.46875 C 10.640625 10 10 10.640625 9.453125 11.390625 C 7.9375 10.640625 6.796875 9.328125 6.234375 7.734375 C 6.125 7.3125 6.265625 6.875 6.578125 6.578125 Z M 5.828125 14.328125 C 6.609375 14.34375 7.375 14.453125 8.125 14.65625 C 7.96875 15.5625 7.96875 16.5 8.125 17.40625 C 6.515625 17.9375 4.78125 17.828125 3.265625 17.09375 C 2.109375 16.265625 2.40625 14.328125 5.828125 14.328125 Z M 7.734375 25.765625 C 7.0625 25.921875 6.40625 25.515625 6.25 24.84375 C 6.203125 24.65625 6.203125 24.453125 6.25 24.265625 C 6.796875 22.671875 7.953125 21.359375 9.46875 20.609375 C 10.015625 21.34375 10.65625 22 11.40625 22.546875 C 10.640625 24.0625 9.328125 25.203125 7.734375 25.765625 Z M 11.171875 18.28125 C 11.125 18.203125 11.078125 18.140625 11.015625 18.0625 C 11.03125 17.96875 11.03125 17.890625 11.015625 17.796875 C 10.609375 16.640625 10.609375 15.359375 11.015625 14.203125 C 11.015625 14.125 11.015625 14.046875 11.015625 13.984375 C 11.5625 12.78125 12.5 11.78125 13.6875 11.171875 C 13.765625 11.125 13.828125 11.078125 13.890625 11.03125 C 15.15625 10.609375 16.515625 10.609375 17.765625 11.03125 C 17.859375 11.046875 17.9375 11.046875 18.03125 11.03125 C 18.65625 11.359375 19.21875 11.765625 19.734375 12.25 C 20.21875 12.765625 20.640625 13.359375 20.953125 14 C 21.171875 14.65625 21.3125 15.328125 21.34375 16.015625 C 21.3125 16.71875 21.1875 17.40625 21 18.078125 C 20.671875 18.703125 20.265625 19.265625 19.78125 19.78125 C 19.265625 20.25 18.6875 20.65625 18.078125 21 C 17.984375 20.984375 17.90625 20.984375 17.8125 21 C 16.65625 21.421875 15.375 21.421875 14.21875 21 C 14.125 20.984375 14.046875 20.984375 13.953125 21 C 13.890625 20.9375 13.8125 20.890625 13.734375 20.84375 C 12.609375 20.296875 11.703125 19.390625 11.171875 18.28125 Z M 14.671875 23.875 C 15.578125 24.03125 16.515625 24.03125 17.421875 23.875 C 17.953125 25.484375 17.84375 27.21875 17.109375 28.734375 C 16.75 29.3125 15.984375 29.5 15.40625 29.140625 C 15.25 29.046875 15.109375 28.90625 15 28.734375 C 14.25 27.234375 14.140625 25.484375 14.671875 23.875 Z M 2.671875 51.375 C 6.046875 54.046875 14.078125 62.046875 14.671875 77.046875 C 11.328125 76 3.328125 71.40625 2.671875 51.375 Z M 2.671875 51.375 "/>
<path style=" stroke:none;fill-rule:nonzero;fill:rgb(0%,0%,0%);fill-opacity:1;" d="M 60.953125 25.890625 L 62.265625 24.578125 C 63.3125 25.421875 63.59375 25.828125 63.859375 27.625 L 64.0625 29.453125 C 64.125 29.9375 64.453125 30.359375 64.921875 30.53125 C 65.390625 30.703125 65.90625 30.578125 66.265625 30.234375 L 72.65625 23.96875 L 72.671875 23.953125 C 73.171875 23.453125 73.171875 22.640625 72.6875 22.125 C 72.1875 21.609375 71.359375 21.609375 70.859375 22.109375 L 66.34375 26.546875 C 66 24.78125 65.453125 23.828125 64.140625 22.734375 L 65.421875 21.453125 C 65.921875 20.953125 65.921875 20.125 65.421875 19.625 C 64.921875 19.125 64.09375 19.125 63.59375 19.625 L 61.84375 21.375 C 61.09375 21.21875 59.703125 20.796875 58.984375 20.0625 C 58.515625 19.609375 58.390625 19.0625 58.5625 18.40625 C 58.84375 17.390625 59.890625 16.328125 60.84375 16.09375 C 61.609375 15.90625 62.359375 15.953125 62.8125 16.203125 C 63.4375 16.546875 64.21875 16.328125 64.578125 15.703125 C 64.921875 15.078125 64.703125 14.296875 64.078125 13.9375 C 63.046875 13.359375 61.65625 13.234375 60.234375 13.578125 C 58.359375 14.03125 56.609375 15.78125 56.078125 17.71875 C 55.640625 19.28125 56.03125 20.765625 57.15625 21.890625 C 57.90625 22.640625 58.875 23.140625 59.75 23.453125 L 59.140625 24.0625 C 58.640625 24.5625 58.640625 25.390625 59.140625 25.890625 C 59.640625 26.390625 60.4375 26.390625 60.953125 25.890625 Z M 60.953125 25.890625 "/>
</g>
</svg>
