<?xml version="1.0" encoding="UTF-8"?>
<svg xmlns="http://www.w3.org/2000/svg" xmlns:xlink="http://www.w3.org/1999/xlink" width="80px" height="80px" viewBox="0 0 80 80" version="1.1">
<g id="surface1">
<path style=" stroke:none;fill-rule:nonzero;fill:rgb(0%,0%,0%);fill-opacity:1;" d="M 11.199219 47.523438 L 0 47.523438 L 0 24.332031 L 11.199219 24.332031 Z M 15.886719 43.804688 L 15.886719 28.050781 L 21.734375 28.050781 L 30.828125 18.957031 L 44.148438 18.957031 L 53.519531 28.332031 L 51.382812 30.46875 C 49.003906 32.851562 45.109375 32.871094 42.699219 30.519531 L 38.625 26.609375 L 21.429688 43.804688 Z M 58.265625 43.804688 L 42.835938 59.234375 C 41.671875 60.398438 40.121094 61.042969 38.472656 61.042969 C 36.820312 61.042969 35.269531 60.398438 34.105469 59.234375 L 23.367188 48.496094 L 38.695312 33.171875 L 39.433594 33.882812 C 43.667969 38.011719 50.511719 37.96875 54.695312 33.785156 L 60.382812 28.050781 L 64.113281 28.050781 L 64.113281 43.804688 Z M 80 47.523438 L 68.800781 47.523438 L 68.800781 24.332031 L 80 24.332031 Z M 80 47.523438 "/>
</g>
</svg>
