<?xml version="1.0" encoding="UTF-8"?>
<svg xmlns="http://www.w3.org/2000/svg" xmlns:xlink="http://www.w3.org/1999/xlink" width="80px" height="80px" viewBox="0 0 80 80" version="1.1">
<g id="surface1">
<path style=" stroke:none;fill-rule:nonzero;fill:rgb(0%,0%,0%);fill-opacity:1;" d="M 40 0 C 27.6875 0 17.671875 10.015625 17.671875 22.332031 C 17.671875 25.6875 20.394531 28.414062 23.753906 28.414062 C 27.109375 28.414062 29.832031 25.6875 29.832031 22.332031 C 29.832031 16.722656 34.394531 12.160156 40 12.160156 C 45.605469 12.160156 50.167969 16.722656 50.167969 22.332031 C 50.167969 27.9375 45.605469 32.496094 40 32.496094 C 36.640625 32.496094 33.917969 35.222656 33.917969 38.578125 L 33.917969 52.304688 C 33.917969 55.664062 36.640625 58.386719 40 58.386719 C 43.359375 58.386719 46.082031 55.664062 46.082031 52.304688 L 46.082031 43.816406 C 55.445312 41.164062 62.328125 32.535156 62.328125 22.332031 C 62.328125 10.015625 52.3125 0 40 0 Z M 40 0 "/>
<path style=" stroke:none;fill-rule:nonzero;fill:rgb(0%,0%,0%);fill-opacity:1;" d="M 40 62.988281 C 35.300781 62.988281 31.492188 66.796875 31.492188 71.496094 C 31.492188 76.191406 35.300781 80 40 80 C 44.699219 80 48.507812 76.191406 48.507812 71.496094 C 48.507812 66.796875 44.699219 62.988281 40 62.988281 Z M 40 62.988281 "/>
</g>
</svg>
