<?xml version="1.0" encoding="UTF-8"?>
<svg xmlns="http://www.w3.org/2000/svg" xmlns:xlink="http://www.w3.org/1999/xlink" width="80px" height="80px" viewBox="0 0 80 80" version="1.1">
<g id="surface1">
<path style=" stroke:none;fill-rule:nonzero;fill:rgb(0%,0%,0%);fill-opacity:1;" d="M 16.414062 26.371094 L 0 26.371094 L 0 74.730469 L 16.414062 74.730469 Z M 10.84375 58.023438 L 5.570312 58.023438 L 5.570312 53.335938 L 10.84375 53.335938 Z M 10.84375 47.472656 L 5.570312 47.472656 L 5.570312 42.785156 L 10.84375 42.785156 Z M 5.570312 36.921875 L 5.570312 32.234375 L 10.84375 32.234375 L 10.84375 36.921875 Z M 5.570312 36.921875 "/>
<path style=" stroke:none;fill-rule:nonzero;fill:rgb(0%,0%,0%);fill-opacity:1;" d="M 63.585938 74.730469 L 80 74.730469 L 80 26.371094 L 63.585938 26.371094 Z M 69.15625 32.234375 L 74.429688 32.234375 L 74.429688 36.921875 L 69.15625 36.921875 Z M 69.15625 42.785156 L 74.429688 42.785156 L 74.429688 47.472656 L 69.15625 47.472656 Z M 74.429688 53.335938 L 74.429688 58.023438 L 69.15625 58.023438 L 69.15625 53.335938 Z M 74.429688 53.335938 "/>
<path style=" stroke:none;fill-rule:nonzero;fill:rgb(0%,0%,0%);fill-opacity:1;" d="M 31.792969 68.574219 L 37.65625 68.574219 L 37.65625 74.730469 L 31.792969 74.730469 Z M 31.792969 68.574219 "/>
<path style=" stroke:none;fill-rule:nonzero;fill:rgb(0%,0%,0%);fill-opacity:1;" d="M 42.34375 68.574219 L 48.207031 68.574219 L 48.207031 74.730469 L 42.34375 74.730469 Z M 42.34375 68.574219 "/>
<path style=" stroke:none;fill-rule:nonzero;fill:rgb(0%,0%,0%);fill-opacity:1;" d="M 21.101562 74.730469 L 27.105469 74.730469 L 27.105469 63.886719 L 52.894531 63.886719 L 52.894531 74.730469 L 58.898438 74.730469 L 58.898438 5.269531 L 21.101562 5.269531 Z M 42.636719 58.023438 L 37.363281 58.023438 L 37.363281 53.335938 L 42.636719 53.335938 Z M 42.636719 47.472656 L 37.363281 47.472656 L 37.363281 42.785156 L 42.636719 42.785156 Z M 42.636719 36.921875 L 37.363281 36.921875 L 37.363281 32.234375 L 42.636719 32.234375 Z M 53.1875 58.023438 L 47.914062 58.023438 L 47.914062 53.335938 L 53.1875 53.335938 Z M 53.1875 47.472656 L 47.914062 47.472656 L 47.914062 42.785156 L 53.1875 42.785156 Z M 53.1875 36.921875 L 47.914062 36.921875 L 47.914062 32.234375 L 53.1875 32.234375 Z M 32.085938 16.414062 L 37.65625 16.414062 L 37.65625 10.84375 L 42.34375 10.84375 L 42.34375 16.414062 L 47.914062 16.414062 L 47.914062 21.101562 L 42.34375 21.101562 L 42.34375 26.671875 L 37.65625 26.671875 L 37.65625 21.101562 L 32.085938 21.101562 Z M 26.8125 32.234375 L 32.085938 32.234375 L 32.085938 36.921875 L 26.8125 36.921875 Z M 26.8125 42.785156 L 32.085938 42.785156 L 32.085938 47.472656 L 26.8125 47.472656 Z M 26.8125 53.335938 L 32.085938 53.335938 L 32.085938 58.023438 L 26.8125 58.023438 Z M 26.8125 53.335938 "/>
</g>
</svg>
