<?xml version="1.0" encoding="UTF-8"?>
<svg xmlns="http://www.w3.org/2000/svg" xmlns:xlink="http://www.w3.org/1999/xlink" width="80px" height="80px" viewBox="0 0 80 80" version="1.1">
<g id="surface1">
<path style=" stroke:none;fill-rule:nonzero;fill:rgb(0%,0%,0%);fill-opacity:1;" d="M 78.734375 31.667969 L 72 25.886719 L 72 10.980469 C 72 9.507812 70.804688 8.3125 69.332031 8.3125 L 61.332031 8.3125 C 59.859375 8.3125 58.667969 9.507812 58.667969 10.980469 L 58.667969 14.449219 L 43.75 1.648438 C 41.566406 -0.132812 38.433594 -0.132812 36.25 1.648438 L 1.265625 31.667969 C -0.273438 32.984375 -0.078125 34.0625 0.171875 34.59375 C 0.390625 35.070312 1.019531 35.832031 2.726562 35.992188 C 2.972656 36.023438 3.222656 36.039062 3.46875 36.035156 L 5.34375 36.035156 L 5.34375 80.3125 L 74.667969 80.3125 L 74.667969 35.992188 L 76.53125 36.035156 C 76.773438 36.039062 77.019531 36.023438 77.261719 35.992188 C 78.96875 35.835938 79.597656 35.070312 79.832031 34.59375 C 80.078125 34.0625 80.273438 32.984375 78.734375 31.667969 Z M 26.667969 72.3125 C 19.300781 72.3125 13.332031 66.34375 13.332031 58.980469 C 13.332031 51.613281 19.300781 45.644531 26.667969 45.644531 C 34.03125 45.644531 40 51.613281 40 58.980469 C 40.011719 62.519531 38.609375 65.917969 36.105469 68.417969 C 33.605469 70.921875 30.207031 72.324219 26.667969 72.3125 Z M 30.667969 60.199219 C 30.605469 60.304688 30.523438 60.402344 30.429688 60.480469 C 30.328125 60.5625 30.214844 60.628906 30.09375 60.675781 C 29.960938 60.726562 29.820312 60.75 29.679688 60.75 L 25.492188 60.75 L 25.257812 62.773438 C 25.203125 63.246094 25.082031 63.710938 24.902344 64.152344 C 24.722656 64.566406 24.480469 64.949219 24.179688 65.285156 C 24.578125 65.195312 24.976562 65.128906 25.375 65.070312 C 25.765625 65.015625 26.160156 64.988281 26.554688 64.988281 L 32.90625 64.988281 L 32.707031 66.460938 C 32.679688 66.648438 32.617188 66.832031 32.523438 67 C 32.425781 67.179688 32.300781 67.347656 32.148438 67.488281 C 31.996094 67.640625 31.816406 67.761719 31.617188 67.851562 C 31.414062 67.945312 31.191406 67.992188 30.96875 67.992188 L 19.25 67.992188 L 19.546875 65.78125 C 20.027344 65.707031 20.472656 65.480469 20.816406 65.140625 C 21.105469 64.828125 21.285156 64.363281 21.359375 63.746094 L 21.726562 60.746094 L 19.9375 60.746094 L 20.125 59.3125 C 20.140625 59.199219 20.179688 59.09375 20.238281 59 C 20.300781 58.894531 20.382812 58.800781 20.476562 58.722656 C 20.582031 58.636719 20.695312 58.570312 20.816406 58.519531 C 20.945312 58.464844 21.085938 58.4375 21.226562 58.441406 L 22.007812 58.441406 L 22.34375 55.738281 C 22.4375 54.96875 22.664062 54.21875 23.011719 53.527344 C 23.355469 52.832031 23.824219 52.210938 24.394531 51.6875 C 24.996094 51.144531 25.691406 50.71875 26.449219 50.429688 C 27.296875 50.109375 28.199219 49.949219 29.105469 49.960938 C 29.742188 49.953125 30.378906 50.035156 30.992188 50.207031 C 31.496094 50.355469 31.96875 50.582031 32.398438 50.882812 C 32.792969 51.164062 33.132812 51.515625 33.40625 51.917969 C 33.675781 52.328125 33.902344 52.773438 34.078125 53.234375 L 32.484375 54.171875 C 32.183594 54.328125 31.847656 54.402344 31.511719 54.394531 C 31.1875 54.367188 30.890625 54.207031 30.695312 53.953125 C 30.546875 53.773438 30.410156 53.617188 30.285156 53.484375 C 30.164062 53.359375 30.03125 53.253906 29.882812 53.171875 C 29.726562 53.085938 29.5625 53.027344 29.390625 52.992188 C 29.175781 52.953125 28.953125 52.933594 28.734375 52.9375 C 28.070312 52.921875 27.429688 53.179688 26.964844 53.65625 C 26.488281 54.136719 26.199219 54.820312 26.09375 55.710938 L 25.765625 58.445312 L 30.960938 58.445312 L 30.789062 59.878906 C 30.769531 59.992188 30.726562 60.101562 30.667969 60.199219 Z M 30.667969 60.199219 "/>
</g>
</svg>
