<?xml version="1.0" encoding="UTF-8"?>
<svg xmlns="http://www.w3.org/2000/svg" xmlns:xlink="http://www.w3.org/1999/xlink" width="80px" height="80px" viewBox="0 0 80 80" version="1.1">
<g id="surface1">
<path style=" stroke:none;fill-rule:nonzero;fill:rgb(0%,0%,0%);fill-opacity:1;" d="M 79.148438 49.675781 C 77.628906 47.441406 74.5625 46.847656 72.320312 48.355469 L 62.109375 55.1875 L 62.082031 33.921875 L 65.628906 37.246094 C 66.382812 37.949219 67.363281 38.339844 68.398438 38.339844 C 68.398438 38.339844 68.402344 38.339844 68.402344 38.339844 C 69.519531 38.339844 70.59375 37.871094 71.355469 37.058594 C 72.097656 36.265625 72.484375 35.238281 72.449219 34.152344 C 72.414062 33.070312 71.960938 32.070312 71.167969 31.328125 L 64.445312 25.027344 C 63.984375 24.597656 63.261719 24.621094 62.832031 25.082031 C 62.398438 25.542969 62.421875 26.265625 62.882812 26.695312 L 69.609375 32.996094 C 69.953125 33.316406 70.152344 33.757812 70.167969 34.230469 C 70.183594 34.699219 70.011719 35.152344 69.691406 35.496094 C 69.351562 35.855469 68.894531 36.054688 68.398438 36.054688 C 67.945312 36.054688 67.519531 35.886719 67.1875 35.578125 L 40.488281 10.566406 C 40.046875 10.152344 39.363281 10.152344 38.925781 10.566406 L 12.292969 35.65625 C 11.949219 35.976562 11.5 36.148438 11.027344 36.136719 C 10.554688 36.121094 10.117188 35.921875 9.792969 35.578125 C 9.46875 35.234375 9.296875 34.785156 9.3125 34.3125 C 9.324219 33.839844 9.523438 33.402344 9.867188 33.078125 L 38.488281 6.117188 C 39.167969 5.476562 40.230469 5.476562 40.910156 6.113281 L 57.65625 21.800781 C 58.117188 22.230469 58.839844 22.207031 59.269531 21.746094 C 59.703125 21.285156 59.679688 20.5625 59.21875 20.132812 L 42.472656 4.445312 C 40.914062 2.984375 38.476562 2.988281 36.921875 4.453125 L 27.761719 13.085938 L 27.757812 11.546875 C 27.757812 11.058594 27.566406 10.605469 27.222656 10.261719 C 26.878906 9.917969 26.425781 9.730469 25.941406 9.730469 C 25.941406 9.730469 25.9375 9.730469 25.9375 9.730469 L 19.382812 9.742188 C 18.898438 9.742188 18.441406 9.929688 18.101562 10.273438 C 17.757812 10.617188 17.570312 11.074219 17.570312 11.558594 L 17.589844 22.667969 L 8.300781 31.417969 C 7.511719 32.160156 7.0625 33.164062 7.027344 34.246094 C 6.996094 35.328125 7.386719 36.359375 8.128906 37.144531 C 8.871094 37.933594 9.878906 38.386719 10.960938 38.417969 C 11 38.417969 11.042969 38.417969 11.082031 38.417969 C 12.121094 38.417969 13.101562 38.03125 13.859375 37.316406 L 17.398438 33.984375 L 17.414062 44.027344 C 16.269531 43.863281 15.109375 43.773438 13.945312 43.773438 L 11.992188 43.773438 L 11.992188 43.089844 C 11.992188 40.789062 10.121094 38.921875 7.824219 38.921875 L 4.167969 38.921875 C 1.871094 38.921875 0 40.789062 0 43.089844 L 0 60.984375 C 0 61.613281 0.511719 62.125 1.140625 62.125 C 1.773438 62.125 2.285156 61.613281 2.285156 60.984375 L 2.285156 43.089844 C 2.285156 42.050781 3.128906 41.203125 4.167969 41.203125 L 7.824219 41.203125 C 8.863281 41.203125 9.707031 42.050781 9.707031 43.089844 L 9.707031 70.128906 C 9.707031 71.167969 8.863281 72.015625 7.824219 72.015625 L 4.167969 72.015625 C 3.128906 72.015625 2.285156 71.167969 2.285156 70.128906 L 2.285156 68.132812 C 2.285156 67.5 1.773438 66.988281 1.140625 66.988281 C 0.511719 66.988281 0 67.5 0 68.132812 L 0 70.128906 C 0 72.429688 1.871094 74.300781 4.167969 74.300781 L 7.824219 74.300781 C 10.121094 74.300781 11.992188 72.429688 11.992188 70.128906 L 11.992188 69.976562 L 28.714844 76.308594 C 28.746094 76.320312 28.777344 76.328125 28.808594 76.339844 C 29.535156 76.542969 30.261719 76.648438 30.980469 76.648438 C 31.367188 76.648438 31.753906 76.617188 32.132812 76.554688 L 56.710938 73.015625 C 56.714844 73.011719 56.722656 73.011719 56.726562 73.011719 C 58.816406 72.675781 60.789062 71.792969 62.425781 70.457031 C 62.441406 70.445312 62.457031 70.433594 62.46875 70.421875 L 78.34375 56.140625 C 80.195312 54.5 80.539062 51.722656 79.148438 49.675781 Z M 25.472656 12.015625 L 25.480469 15.234375 L 19.867188 20.519531 L 19.855469 12.023438 Z M 39.710938 12.964844 L 59.792969 31.78125 L 59.828125 56.714844 L 56.59375 58.878906 L 53.171875 58.6875 L 53.082031 57.777344 C 52.761719 54.574219 50.398438 52 47.273438 51.382812 L 47.25 36.550781 C 47.25 35.410156 46.324219 34.484375 45.183594 34.484375 L 34.296875 34.5 C 33.746094 34.5 33.226562 34.71875 32.839844 35.109375 C 32.449219 35.5 32.234375 36.019531 32.234375 36.570312 L 32.253906 49.503906 C 30.097656 49.011719 28.039062 48.199219 26.113281 47.070312 C 25.875 46.929688 25.632812 46.796875 25.386719 46.664062 C 25.292969 46.613281 25.195312 46.5625 25.097656 46.515625 C 24.949219 46.4375 24.800781 46.359375 24.652344 46.285156 C 24.53125 46.222656 24.410156 46.167969 24.289062 46.109375 C 24.160156 46.050781 24.035156 45.988281 23.90625 45.929688 C 23.773438 45.871094 23.640625 45.8125 23.507812 45.757812 C 23.386719 45.703125 23.269531 45.652344 23.144531 45.601562 C 23.011719 45.546875 22.875 45.492188 22.738281 45.4375 C 22.613281 45.390625 22.492188 45.34375 22.371094 45.296875 C 22.234375 45.246094 22.101562 45.199219 21.964844 45.152344 C 21.835938 45.105469 21.707031 45.0625 21.578125 45.019531 C 21.449219 44.976562 21.316406 44.933594 21.1875 44.890625 C 21.046875 44.847656 20.90625 44.804688 20.765625 44.761719 C 20.644531 44.726562 20.523438 44.691406 20.398438 44.65625 C 20.242188 44.613281 20.082031 44.570312 19.921875 44.53125 C 19.847656 44.511719 19.773438 44.488281 19.695312 44.472656 L 19.679688 31.835938 Z M 44.988281 51.097656 L 35.4375 50 L 34.539062 49.894531 L 34.519531 36.785156 L 44.96875 36.769531 Z M 76.824219 54.4375 L 60.960938 68.703125 C 59.640625 69.777344 58.054688 70.484375 56.375 70.753906 L 31.8125 74.296875 C 31.804688 74.296875 31.800781 74.296875 31.796875 74.296875 L 31.777344 74.300781 C 31.035156 74.417969 30.257812 74.367188 29.472656 74.152344 L 11.992188 67.53125 L 11.992188 46.058594 L 13.945312 46.058594 C 15.609375 46.058594 17.261719 46.25 18.871094 46.621094 C 18.929688 46.636719 18.988281 46.652344 19.046875 46.664062 C 19.246094 46.714844 19.445312 46.761719 19.640625 46.816406 C 19.65625 46.820312 19.675781 46.824219 19.691406 46.828125 C 19.886719 46.882812 20.082031 46.941406 20.277344 47 C 20.3125 47.011719 20.347656 47.019531 20.382812 47.03125 C 20.59375 47.09375 20.800781 47.164062 21.003906 47.234375 C 21.027344 47.238281 21.046875 47.246094 21.066406 47.253906 C 21.496094 47.402344 21.921875 47.5625 22.339844 47.738281 C 22.363281 47.75 22.386719 47.757812 22.410156 47.769531 C 22.617188 47.855469 22.824219 47.945312 23.03125 48.039062 C 23.035156 48.042969 23.042969 48.046875 23.046875 48.046875 C 23.246094 48.140625 23.445312 48.234375 23.640625 48.332031 C 23.664062 48.34375 23.6875 48.355469 23.710938 48.367188 C 23.902344 48.464844 24.09375 48.5625 24.285156 48.664062 C 24.320312 48.683594 24.355469 48.703125 24.390625 48.722656 C 24.582031 48.828125 24.773438 48.933594 24.960938 49.042969 C 27.679688 50.632812 30.636719 51.664062 33.753906 52.101562 C 33.761719 52.105469 33.773438 52.105469 33.78125 52.105469 L 46.578125 53.582031 C 46.648438 53.589844 46.71875 53.601562 46.789062 53.613281 C 48.671875 53.96875 50.15625 55.359375 50.65625 57.171875 C 50.730469 57.441406 50.78125 57.71875 50.808594 58.003906 L 50.859375 58.515625 L 26.882812 56.414062 C 26.253906 56.359375 25.699219 56.824219 25.644531 57.453125 C 25.589844 58.082031 26.054688 58.632812 26.683594 58.6875 L 52.03125 60.910156 C 52.039062 60.910156 52.042969 60.910156 52.050781 60.910156 C 52.054688 60.910156 52.0625 60.914062 52.066406 60.914062 L 56.847656 61.179688 C 56.871094 61.183594 56.890625 61.183594 56.914062 61.183594 C 56.9375 61.183594 56.957031 61.179688 56.980469 61.179688 C 57.007812 61.175781 57.03125 61.175781 57.058594 61.171875 C 57.089844 61.167969 57.125 61.160156 57.15625 61.152344 C 57.179688 61.148438 57.207031 61.144531 57.230469 61.136719 C 57.265625 61.125 57.300781 61.113281 57.335938 61.097656 C 57.355469 61.089844 57.375 61.085938 57.394531 61.074219 C 57.445312 61.050781 57.5 61.023438 57.546875 60.988281 L 61.605469 58.273438 L 73.589844 50.253906 C 74.796875 49.441406 76.441406 49.761719 77.261719 50.960938 C 78.007812 52.058594 77.820312 53.550781 76.824219 54.4375 Z M 76.824219 54.4375 "/>
</g>
</svg>
