<?xml version="1.0" encoding="UTF-8"?>
<svg xmlns="http://www.w3.org/2000/svg" xmlns:xlink="http://www.w3.org/1999/xlink" width="80px" height="80px" viewBox="0 0 80 80" version="1.1">
<g id="surface1">
<path style=" stroke:none;fill-rule:nonzero;fill:rgb(0%,0%,0%);fill-opacity:1;" d="M 74.667969 0 L 5.332031 0 C 2.386719 0 0 2.386719 0 5.332031 L 0 74.667969 C 0 77.613281 2.386719 80 5.332031 80 L 74.667969 80 C 77.613281 80 80 77.613281 80 74.667969 L 80 5.332031 C 80 2.386719 77.613281 0 74.667969 0 Z M 8 16 L 34.667969 16 L 34.667969 24 L 8 24 Z M 72 64 L 8 64 L 8 56 L 72 56 Z M 72 48 L 8 48 L 8 40 L 72 40 Z M 72 48 "/>
</g>
</svg>
