<?xml version="1.0" encoding="UTF-8"?>
<svg xmlns="http://www.w3.org/2000/svg" xmlns:xlink="http://www.w3.org/1999/xlink" width="80px" height="80px" viewBox="0 0 80 80" version="1.1">
<g id="surface1">
<path style=" stroke:none;fill-rule:nonzero;fill:rgb(0%,0%,0%);fill-opacity:1;" d="M 74.667969 10.667969 L 5.332031 10.667969 C 2.386719 10.667969 0 13.054688 0 16 L 0 64 C 0 66.945312 2.386719 69.332031 5.332031 69.332031 L 74.667969 69.332031 C 77.613281 69.332031 80 66.945312 80 64 L 80 16 C 80 13.054688 77.613281 10.667969 74.667969 10.667969 Z M 40 61.332031 L 8 61.332031 L 8 18.667969 L 40 18.667969 Z M 72 61.332031 L 48 61.332031 L 48 53.332031 L 72 53.332031 Z M 72 45.332031 L 48 45.332031 L 48 37.332031 L 72 37.332031 Z M 72 45.332031 "/>
</g>
</svg>
