<?xml version="1.0" encoding="UTF-8"?>
<svg xmlns="http://www.w3.org/2000/svg" xmlns:xlink="http://www.w3.org/1999/xlink" width="80px" height="80px" viewBox="0 0 80 80" version="1.1">
<g id="surface1">
<path style=" stroke:none;fill-rule:nonzero;fill:rgb(0%,0%,0%);fill-opacity:1;" d="M 40.105469 0 C 17.957031 0 0 17.953125 0 40.105469 C 0 62.253906 17.957031 80.207031 40.105469 80.207031 C 62.253906 80.207031 80.207031 62.253906 80.207031 40.105469 C 80.207031 17.953125 62.253906 0 40.105469 0 Z M 45.992188 66.882812 C 45.992188 67.574219 45.433594 68.132812 44.742188 68.132812 L 35.464844 68.132812 C 34.773438 68.132812 34.214844 67.574219 34.214844 66.882812 L 34.214844 31.523438 C 34.214844 30.832031 34.773438 30.273438 35.464844 30.273438 L 44.746094 30.273438 C 45.433594 30.273438 45.996094 30.832031 45.996094 31.523438 L 45.996094 66.882812 Z M 40.105469 26.65625 C 36.082031 26.65625 32.8125 23.386719 32.8125 19.363281 C 32.8125 15.34375 36.082031 12.074219 40.105469 12.074219 C 44.125 12.074219 47.394531 15.34375 47.394531 19.363281 C 47.394531 23.386719 44.125 26.65625 40.105469 26.65625 Z M 40.105469 26.65625 "/>
</g>
</svg>
