<?xml version="1.0" encoding="UTF-8"?>
<svg xmlns="http://www.w3.org/2000/svg" xmlns:xlink="http://www.w3.org/1999/xlink" width="80px" height="80px" viewBox="0 0 80 80" version="1.1">
<g id="surface1">
<path style=" stroke:none;fill-rule:nonzero;fill:rgb(0%,0%,0%);fill-opacity:1;" d="M 71.667969 26.5 C 71.550781 7.183594 50.550781 -6.382812 32.601562 3.066406 C 31.390625 2.003906 29.597656 1.953125 28.332031 2.949219 C 28.195312 1.277344 26.792969 -0.00390625 25.117188 0 L 21.550781 0 C 19.871094 -0.00390625 18.472656 1.277344 18.332031 2.949219 C 17.035156 1.914062 15.171875 1.992188 13.964844 3.132812 L 11.464844 5.648438 C 10.285156 6.832031 10.203125 8.722656 11.285156 10 C 9.613281 10.140625 8.328125 11.539062 8.332031 13.214844 L 8.332031 16.785156 C 8.328125 18.460938 9.613281 19.859375 11.285156 20 C 10.796875 20.585938 10.527344 21.320312 10.515625 22.082031 C 10.515625 23.75 11.367188 24.265625 13.984375 26.882812 C 15.191406 28.023438 17.050781 28.101562 18.351562 27.066406 C 18.398438 30.285156 19.023438 33.46875 20.199219 36.464844 C 23.816406 45.667969 29.851562 46.265625 31.601562 58.035156 C 29.628906 59.890625 29.496094 62.980469 31.300781 65 C 29.988281 66.464844 29.660156 68.566406 30.457031 70.363281 C 31.253906 72.160156 33.03125 73.324219 35 73.332031 L 36.832031 73.332031 C 37.621094 77.21875 41.035156 80.007812 45 80.007812 C 48.964844 80.007812 52.378906 77.21875 53.167969 73.332031 L 55 73.332031 C 56.96875 73.324219 58.746094 72.160156 59.542969 70.363281 C 60.339844 68.566406 60.011719 66.464844 58.699219 65 C 60.496094 62.960938 60.332031 59.859375 58.332031 58.015625 C 60.550781 43.714844 71.75 43.183594 71.667969 26.5 Z M 16.265625 24.433594 L 13.898438 22.066406 C 14.753906 21.144531 14.992188 19.8125 14.511719 18.652344 C 14.03125 17.492188 12.921875 16.714844 11.667969 16.667969 L 11.667969 13.332031 C 12.921875 13.285156 14.03125 12.507812 14.511719 11.347656 C 14.992188 10.1875 14.753906 8.855469 13.898438 7.933594 L 16.265625 5.566406 C 17.1875 6.421875 18.519531 6.660156 19.683594 6.179688 C 20.84375 5.699219 21.617188 4.589844 21.667969 3.332031 L 25 3.332031 C 25.050781 4.589844 25.824219 5.699219 26.984375 6.179688 C 28.144531 6.660156 29.480469 6.421875 30.398438 5.566406 L 32.765625 7.933594 C 31.914062 8.855469 31.675781 10.1875 32.152344 11.347656 C 32.632812 12.507812 33.746094 13.285156 35 13.332031 L 35 16.667969 C 33.746094 16.714844 32.632812 17.492188 32.152344 18.652344 C 31.675781 19.8125 31.914062 21.144531 32.765625 22.066406 L 30.398438 24.433594 C 29.480469 23.578125 28.144531 23.339844 26.984375 23.820312 C 25.824219 24.300781 25.050781 25.410156 25 26.667969 L 21.667969 26.667969 C 21.617188 25.410156 20.84375 24.300781 19.683594 23.820312 C 18.519531 23.339844 17.1875 23.578125 16.265625 24.433594 Z M 40.285156 73.332031 L 49.714844 73.332031 C 49.011719 75.335938 47.121094 76.675781 45 76.675781 C 42.878906 76.675781 40.988281 75.335938 40.285156 73.332031 Z M 55 70 L 35 70 C 34.078125 70 33.332031 69.253906 33.332031 68.332031 C 33.332031 67.414062 34.078125 66.667969 35 66.667969 L 55 66.667969 C 55.921875 66.667969 56.667969 67.414062 56.667969 68.332031 C 56.667969 69.253906 55.921875 70 55 70 Z M 55 63.332031 L 35 63.332031 C 34.078125 63.332031 33.332031 62.585938 33.332031 61.667969 C 33.332031 60.746094 34.078125 60 35 60 L 55 60 C 55.921875 60 56.667969 60.746094 56.667969 61.667969 C 56.667969 62.585938 55.921875 63.332031 55 63.332031 Z M 35 56.667969 L 35 36.464844 L 45 35.214844 L 45 56.667969 Z M 47.765625 32.082031 C 47.148438 31.515625 46.699219 31.648438 45 31.867188 L 45 25 L 55 25 L 55 56.667969 L 48.332031 56.667969 C 48.332031 31.5 48.582031 32.785156 47.765625 32.082031 Z M 58.332031 48.082031 L 58.332031 23.332031 C 58.332031 22.414062 57.585938 21.667969 56.667969 21.667969 L 43.332031 21.667969 C 42.414062 21.667969 41.667969 22.414062 41.667969 23.332031 L 41.667969 32.285156 L 33.132812 33.332031 C 32.292969 33.433594 31.660156 34.152344 31.667969 35 L 31.667969 47.898438 C 28.234375 41.617188 23.332031 39.566406 21.933594 30 L 25.117188 30 C 26.792969 30.003906 28.195312 28.722656 28.332031 27.050781 C 29.632812 28.085938 31.492188 28.007812 32.699219 26.867188 L 35.214844 24.351562 C 36.394531 23.164062 36.464844 21.273438 35.382812 20 C 37.054688 19.859375 38.339844 18.460938 38.332031 16.785156 L 38.332031 13.214844 C 38.339844 11.539062 37.054688 10.140625 35.382812 10 C 36.515625 8.675781 36.382812 6.691406 35.082031 5.535156 C 42.296875 2.214844 50.695312 2.769531 57.40625 7.011719 C 64.121094 11.25 68.230469 18.59375 68.332031 26.535156 C 68.375 32.234375 66.316406 37.753906 62.550781 42.035156 C 60.925781 43.886719 59.511719 45.917969 58.332031 48.082031 Z M 58.332031 48.082031 "/>
<path style=" stroke:none;fill-rule:nonzero;fill:rgb(0%,0%,0%);fill-opacity:1;" d="M 30 15 C 30 11.316406 27.015625 8.332031 23.332031 8.332031 C 19.652344 8.332031 16.667969 11.316406 16.667969 15 C 16.667969 18.683594 19.652344 21.667969 23.332031 21.667969 C 27.015625 21.667969 30 18.683594 30 15 Z M 23.332031 18.332031 C 21.492188 18.332031 20 16.839844 20 15 C 20 13.160156 21.492188 11.667969 23.332031 11.667969 C 25.175781 11.667969 26.667969 13.160156 26.667969 15 C 26.667969 16.839844 25.175781 18.332031 23.332031 18.332031 Z M 23.332031 18.332031 "/>
</g>
</svg>
