<?xml version="1.0" encoding="UTF-8"?>
<svg xmlns="http://www.w3.org/2000/svg" xmlns:xlink="http://www.w3.org/1999/xlink" width="80px" height="80px" viewBox="0 0 80 80" version="1.1">
<g id="surface1">
<path style=" stroke:none;fill-rule:nonzero;fill:rgb(0%,0%,0%);fill-opacity:1;" d="M 75.4375 52.664062 L 75.4375 48.359375 C 75.4375 44.351562 72.175781 41.085938 68.164062 41.085938 L 40.304688 41.085938 C 39.65625 41.085938 39.132812 41.613281 39.132812 42.261719 C 39.132812 42.910156 39.65625 43.433594 40.304688 43.433594 L 68.164062 43.433594 C 70.882812 43.433594 73.089844 45.644531 73.089844 48.363281 L 73.089844 52.664062 C 70.488281 53.207031 68.53125 55.515625 68.53125 58.277344 L 68.53125 62.636719 L 31.011719 62.636719 L 31.011719 58.277344 C 31.011719 55.515625 29.054688 53.207031 26.453125 52.664062 L 26.453125 48.363281 C 26.453125 45.644531 28.664062 43.433594 31.378906 43.433594 L 35.609375 43.433594 C 36.257812 43.433594 36.785156 42.910156 36.785156 42.261719 C 36.785156 41.613281 36.257812 41.085938 35.609375 41.085938 L 31.378906 41.085938 C 27.367188 41.085938 24.105469 44.351562 24.105469 48.359375 L 24.105469 52.664062 C 21.503906 53.207031 19.542969 55.515625 19.542969 58.277344 L 19.542969 75 C 19.542969 75.648438 20.070312 76.171875 20.71875 76.171875 L 56.933594 76.171875 C 57.582031 76.171875 58.109375 75.648438 58.109375 75 C 58.109375 74.351562 57.582031 73.824219 56.933594 73.824219 L 31.011719 73.824219 L 31.011719 64.984375 L 68.53125 64.984375 L 68.53125 73.824219 L 61.628906 73.824219 C 60.980469 73.824219 60.457031 74.351562 60.457031 75 C 60.457031 75.648438 60.980469 76.171875 61.628906 76.171875 L 78.824219 76.171875 C 79.472656 76.171875 80 75.648438 80 75 L 80 58.277344 C 80 55.515625 78.039062 53.207031 75.4375 52.664062 Z M 21.890625 58.277344 C 21.890625 56.410156 23.410156 54.890625 25.277344 54.890625 C 27.144531 54.890625 28.664062 56.410156 28.664062 58.277344 L 28.664062 73.824219 L 21.890625 73.824219 Z M 77.652344 73.824219 L 70.878906 73.824219 L 70.878906 58.277344 C 70.878906 56.410156 72.398438 54.890625 74.265625 54.890625 C 76.132812 54.890625 77.652344 56.410156 77.652344 58.277344 Z M 77.652344 73.824219 "/>
<path style=" stroke:none;fill-rule:nonzero;fill:rgb(0%,0%,0%);fill-opacity:1;" d="M 29.917969 32.707031 C 29.976562 33.300781 30.492188 33.765625 31.085938 33.765625 L 68.457031 33.765625 C 69.09375 33.765625 69.628906 33.230469 69.628906 32.59375 L 69.628906 5 C 69.628906 4.363281 69.09375 3.828125 68.457031 3.828125 L 61.628906 3.828125 C 60.980469 3.828125 60.457031 4.351562 60.457031 5 C 60.457031 5.648438 60.980469 6.175781 61.628906 6.175781 L 65.621094 6.175781 L 63.449219 8.347656 L 36.09375 8.347656 L 33.921875 6.175781 L 56.933594 6.175781 C 57.582031 6.175781 58.105469 5.648438 58.105469 5 C 58.105469 4.351562 57.582031 3.828125 56.933594 3.828125 L 31.085938 3.828125 C 30.449219 3.828125 29.914062 4.363281 29.914062 5 L 29.914062 32.59375 C 29.914062 32.632812 29.914062 32.671875 29.917969 32.707031 Z M 33.921875 31.417969 L 36.09375 29.246094 L 63.449219 29.246094 L 65.621094 31.417969 Z M 62.761719 26.898438 L 52.089844 26.898438 L 50.132812 24.722656 L 56.480469 17.671875 C 56.859375 17.253906 57.53125 17.257812 57.90625 17.675781 L 62.761719 23.015625 Z M 48.933594 26.898438 L 36.785156 26.898438 L 36.785156 26.039062 L 41.921875 20.332031 C 42.210938 20.011719 42.730469 20.007812 43.023438 20.332031 Z M 67.28125 7.835938 L 67.28125 29.757812 L 65.109375 27.585938 L 65.109375 10.007812 Z M 62.761719 19.523438 L 59.648438 16.101562 C 58.355469 14.664062 56.03125 14.664062 54.738281 16.101562 L 48.554688 22.96875 L 44.765625 18.761719 C 44.183594 18.113281 43.347656 17.738281 42.472656 17.738281 C 41.605469 17.738281 40.757812 18.117188 40.175781 18.761719 L 36.785156 22.53125 L 36.785156 10.695312 L 62.761719 10.695312 Z M 34.433594 10.007812 L 34.433594 27.585938 L 32.261719 29.757812 L 32.261719 7.835938 Z M 34.433594 10.007812 "/>
<path style=" stroke:none;fill-rule:nonzero;fill:rgb(0%,0%,0%);fill-opacity:1;" d="M 13.234375 69.59375 L 12.082031 69.59375 L 12.082031 28.957031 L 15.097656 28.957031 L 15.097656 42.242188 C 15.097656 42.890625 15.621094 43.417969 16.269531 43.417969 C 16.917969 43.417969 17.445312 42.890625 17.445312 42.242188 L 17.445312 28.957031 L 20.640625 28.957031 C 21.382812 28.957031 21.949219 28.246094 21.785156 27.519531 L 17.667969 9.511719 C 17.546875 8.976562 17.070312 8.597656 16.523438 8.597656 L 5.292969 8.597656 C 4.742188 8.597656 4.269531 8.976562 4.144531 9.511719 L 0.0273438 27.519531 C -0.136719 28.246094 0.429688 28.957031 1.171875 28.957031 L 9.734375 28.957031 L 9.734375 69.59375 L 8.582031 69.59375 C 5.699219 69.59375 3.351562 71.941406 3.351562 74.824219 L 3.351562 75 C 3.351562 75.648438 3.878906 76.171875 4.527344 76.171875 L 17.289062 76.171875 C 17.9375 76.171875 18.460938 75.648438 18.460938 75 L 18.460938 74.824219 C 18.460938 71.941406 16.117188 69.59375 13.234375 69.59375 Z M 6.226562 10.945312 L 15.585938 10.945312 L 19.167969 26.609375 L 2.644531 26.609375 Z M 5.878906 73.824219 C 6.285156 72.726562 7.34375 71.941406 8.582031 71.941406 L 13.234375 71.941406 C 14.472656 71.941406 15.527344 72.726562 15.933594 73.824219 Z M 5.878906 73.824219 "/>
<path style=" stroke:none;fill-rule:nonzero;fill:rgb(0%,0%,0%);fill-opacity:1;" d="M 48.554688 18.609375 C 50.382812 18.609375 51.871094 17.121094 51.871094 15.292969 C 51.871094 13.464844 50.382812 11.976562 48.554688 11.976562 C 46.726562 11.976562 45.238281 13.464844 45.238281 15.292969 C 45.238281 17.121094 46.726562 18.609375 48.554688 18.609375 Z M 48.554688 14.328125 C 49.085938 14.328125 49.523438 14.761719 49.523438 15.292969 C 49.523438 15.828125 49.085938 16.261719 48.554688 16.261719 C 48.019531 16.261719 47.585938 15.828125 47.585938 15.292969 C 47.585938 14.761719 48.019531 14.328125 48.554688 14.328125 Z M 48.554688 14.328125 "/>
</g>
</svg>
