<?xml version="1.0" encoding="UTF-8"?>
<svg xmlns="http://www.w3.org/2000/svg" xmlns:xlink="http://www.w3.org/1999/xlink" width="80px" height="80px" viewBox="0 0 80 80" version="1.1">
<g id="surface1">
<path style=" stroke:none;fill-rule:nonzero;fill:rgb(0%,0%,0%);fill-opacity:1;" d="M 63.671875 15.671875 L 61.8125 13.8125 C 60.609375 12.609375 59.953125 11.015625 59.953125 9.328125 L 59.953125 7.15625 C 61.40625 6.671875 62.453125 5.28125 62.453125 3.671875 C 62.453125 1.640625 60.796875 0 58.78125 0 L 21.21875 0 C 19.1875 0 17.546875 1.65625 17.546875 3.671875 C 17.546875 5.296875 18.59375 6.671875 20.046875 7.15625 L 20.046875 9.328125 C 20.046875 11.015625 19.390625 12.609375 18.1875 13.8125 L 16.328125 15.671875 C 14.6875 17.3125 13.78125 19.5 13.78125 21.8125 L 13.78125 65.046875 C 13.78125 65.6875 14.3125 66.21875 14.953125 66.21875 C 15.59375 66.21875 16.125 65.6875 16.125 65.046875 L 16.125 21.8125 C 16.125 20.125 16.78125 18.53125 17.984375 17.328125 L 19.84375 15.46875 C 21.484375 13.828125 22.390625 11.640625 22.390625 9.328125 L 22.390625 7.359375 L 50.03125 7.359375 C 50.671875 7.359375 51.203125 6.828125 51.203125 6.1875 C 51.203125 5.546875 50.671875 5.015625 50.03125 5.015625 L 21.21875 5.015625 C 20.484375 5.015625 19.890625 4.421875 19.890625 3.6875 C 19.890625 2.953125 20.484375 2.359375 21.21875 2.359375 L 58.796875 2.359375 C 59.53125 2.359375 60.125 2.953125 60.125 3.6875 C 60.125 4.421875 59.53125 5.015625 58.796875 5.015625 L 55.046875 5.015625 C 54.40625 5.015625 53.875 5.546875 53.875 6.1875 C 53.875 6.828125 54.40625 7.359375 55.046875 7.359375 L 57.625 7.359375 L 57.625 9.34375 C 57.625 11.671875 58.53125 13.84375 60.171875 15.484375 L 62.03125 17.34375 C 63.234375 18.546875 63.890625 20.140625 63.890625 21.828125 L 63.890625 73.828125 C 63.890625 75.9375 62.171875 77.671875 60.046875 77.671875 L 19.953125 77.671875 C 17.84375 77.671875 16.109375 75.953125 16.109375 73.828125 L 16.109375 70.078125 C 16.109375 69.4375 15.578125 68.90625 14.9375 68.90625 C 14.296875 68.90625 13.765625 69.4375 13.765625 70.078125 L 13.765625 73.828125 C 13.765625 77.234375 16.53125 80.015625 19.953125 80.015625 L 60.03125 80.015625 C 63.4375 80.015625 66.21875 77.25 66.21875 73.828125 L 66.21875 21.8125 C 66.21875 19.5 65.3125 17.3125 63.671875 15.671875 Z M 63.671875 15.671875 "/>
<path style=" stroke:none;fill-rule:nonzero;fill:rgb(0%,0%,0%);fill-opacity:1;" d="M 19.953125 62.625 C 19.3125 62.625 18.78125 63.15625 18.78125 63.796875 L 18.78125 68.8125 C 18.78125 69.453125 19.3125 69.984375 19.953125 69.984375 L 21.28125 69.984375 L 21.28125 73.828125 C 21.28125 74.46875 21.8125 75 22.453125 75 L 52.515625 75 C 53.15625 75 53.6875 74.46875 53.6875 73.828125 L 53.6875 69.984375 L 60.03125 69.984375 C 60.671875 69.984375 61.203125 69.453125 61.203125 68.8125 L 61.203125 63.796875 C 61.203125 63.15625 60.671875 62.625 60.03125 62.625 L 58.703125 62.625 L 58.703125 58.78125 C 58.703125 58.140625 58.171875 57.609375 57.53125 57.609375 L 54.953125 57.609375 L 54.953125 53.765625 C 54.953125 53.125 54.421875 52.59375 53.78125 52.59375 L 49.9375 52.59375 L 49.9375 48.75 C 49.9375 48.109375 49.40625 47.578125 48.765625 47.578125 L 39.796875 47.578125 C 39.25 44.734375 36.734375 42.5625 33.734375 42.5625 C 30.328125 42.5625 27.546875 45.328125 27.546875 48.75 C 27.546875 50.203125 28.046875 51.53125 28.890625 52.59375 L 23.71875 52.59375 C 23.078125 52.59375 22.546875 53.125 22.546875 53.765625 L 22.546875 58.78125 C 22.546875 59.421875 23.078125 59.953125 23.71875 59.953125 L 26.296875 59.953125 L 26.296875 62.625 Z M 21.125 64.96875 L 28.796875 64.96875 L 28.796875 67.640625 L 21.125 67.640625 Z M 34.90625 54.953125 L 42.578125 54.953125 L 42.578125 57.625 L 34.90625 57.625 Z M 38.671875 59.953125 L 46.34375 59.953125 L 46.34375 62.625 L 38.671875 62.625 Z M 41.171875 67.640625 L 41.171875 64.96875 L 48.84375 64.96875 L 48.84375 67.640625 Z M 38.828125 64.96875 L 38.828125 67.640625 L 31.15625 67.640625 L 31.15625 64.96875 Z M 23.640625 69.984375 L 31.3125 69.984375 L 31.3125 72.65625 L 23.640625 72.65625 Z M 33.65625 69.984375 L 41.328125 69.984375 L 41.328125 72.65625 L 33.65625 72.65625 Z M 51.359375 72.640625 L 43.6875 72.640625 L 43.6875 69.96875 L 51.359375 69.96875 Z M 58.875 67.640625 L 51.203125 67.640625 L 51.203125 64.96875 L 58.875 64.96875 Z M 56.359375 62.625 L 48.6875 62.625 L 48.6875 59.953125 L 56.359375 59.953125 Z M 52.609375 57.609375 L 44.9375 57.609375 L 44.9375 54.9375 L 52.609375 54.9375 Z M 47.59375 52.609375 L 39.921875 52.609375 L 39.921875 49.9375 L 47.59375 49.9375 Z M 29.90625 48.765625 C 29.90625 46.65625 31.625 44.921875 33.75 44.921875 C 35.875 44.921875 37.59375 46.640625 37.59375 48.765625 C 37.59375 50.890625 35.875 52.609375 33.75 52.609375 C 31.625 52.609375 29.90625 50.890625 29.90625 48.765625 Z M 24.890625 54.953125 L 32.5625 54.953125 L 32.5625 57.625 L 24.890625 57.625 Z M 28.640625 59.953125 L 36.3125 59.953125 L 36.3125 62.625 L 28.640625 62.625 Z M 28.640625 59.953125 "/>
<path style=" stroke:none;fill-rule:nonzero;fill:rgb(0%,0%,0%);fill-opacity:1;" d="M 46.265625 42.421875 C 49.671875 42.421875 52.453125 39.65625 52.453125 36.234375 C 52.453125 32.8125 49.6875 30.046875 46.265625 30.046875 C 42.84375 30.046875 40.078125 32.8125 40.078125 36.234375 C 40.078125 39.65625 42.859375 42.421875 46.265625 42.421875 Z M 46.265625 32.40625 C 48.375 32.40625 50.109375 34.125 50.109375 36.25 C 50.109375 38.375 48.390625 40.09375 46.265625 40.09375 C 44.140625 40.09375 42.421875 38.375 42.421875 36.25 C 42.421875 34.125 44.140625 32.40625 46.265625 32.40625 Z M 46.265625 32.40625 "/>
<path style=" stroke:none;fill-rule:nonzero;fill:rgb(0%,0%,0%);fill-opacity:1;" d="M 33.59375 18.5625 C 31.140625 21.015625 30.578125 24.296875 32.3125 26.03125 C 33 26.71875 33.90625 27.03125 34.921875 27.03125 C 36.5 27.03125 38.296875 26.234375 39.78125 24.75 C 42.234375 22.296875 42.796875 19.015625 41.0625 17.28125 C 39.328125 15.546875 36.046875 16.109375 33.59375 18.5625 Z M 39.65625 20.515625 C 39.46875 21.390625 38.90625 22.328125 38.125 23.109375 C 37.34375 23.890625 36.40625 24.4375 35.53125 24.640625 C 34.84375 24.796875 34.28125 24.703125 33.96875 24.390625 C 33.296875 23.71875 33.6875 21.796875 35.25 20.234375 C 36.3125 19.171875 37.5625 18.640625 38.453125 18.640625 C 38.859375 18.640625 39.1875 18.75 39.40625 18.953125 C 39.71875 19.25 39.8125 19.828125 39.65625 20.515625 Z M 39.65625 20.515625 "/>
</g>
</svg>
