<?xml version="1.0" encoding="UTF-8"?>
<svg xmlns="http://www.w3.org/2000/svg" xmlns:xlink="http://www.w3.org/1999/xlink" width="80px" height="80px" viewBox="0 0 80 80" version="1.1">
<g id="surface1">
<path style=" stroke:none;fill-rule:nonzero;fill:rgb(0%,0%,0%);fill-opacity:1;" d="M 60 13.332031 L 62.667969 13.332031 L 62.667969 16 L 60 16 Z M 60 13.332031 "/>
<path style=" stroke:none;fill-rule:nonzero;fill:rgb(0%,0%,0%);fill-opacity:1;" d="M 54.667969 13.332031 L 57.332031 13.332031 L 57.332031 16 L 54.667969 16 Z M 54.667969 13.332031 "/>
<path style=" stroke:none;fill-rule:nonzero;fill:rgb(0%,0%,0%);fill-opacity:1;" d="M 49.332031 13.332031 L 52 13.332031 L 52 16 L 49.332031 16 Z M 49.332031 13.332031 "/>
<path style=" stroke:none;fill-rule:nonzero;fill:rgb(0%,0%,0%);fill-opacity:1;" d="M 17.332031 13.332031 L 20 13.332031 L 20 16 L 17.332031 16 Z M 17.332031 13.332031 "/>
<path style=" stroke:none;fill-rule:nonzero;fill:rgb(0%,0%,0%);fill-opacity:1;" d="M 42.667969 73.332031 L 37.332031 73.332031 C 36.597656 73.332031 36 73.929688 36 74.667969 C 36 75.402344 36.597656 76 37.332031 76 L 42.667969 76 C 43.402344 76 44 75.402344 44 74.667969 C 44 73.929688 43.402344 73.332031 42.667969 73.332031 Z M 42.667969 73.332031 "/>
<path style=" stroke:none;fill-rule:nonzero;fill:rgb(0%,0%,0%);fill-opacity:1;" d="M 76 40 L 74.667969 40 L 74.667969 30.667969 C 74.660156 26.988281 71.679688 24.003906 68 24 L 68 6.667969 C 67.996094 2.988281 65.011719 0.00390625 61.332031 0 L 18.667969 0 C 14.988281 0.00390625 12.003906 2.988281 12 6.667969 L 12 29.332031 L 14.667969 29.332031 L 14.667969 10.667969 L 65.332031 10.667969 L 65.332031 24 L 62.667969 24 C 60.851562 24 59.117188 24.746094 57.867188 26.058594 C 50.476562 16.589844 36.980469 14.527344 27.101562 21.359375 C 17.222656 28.191406 14.390625 41.546875 20.644531 51.804688 C 26.898438 62.058594 40.066406 65.65625 50.667969 60 L 50.667969 65.332031 C 50.667969 66.070312 51.261719 66.667969 52 66.667969 L 65.332031 66.667969 L 65.332031 69.332031 L 14.667969 69.332031 L 14.667969 50.667969 L 12 50.667969 L 12 73.332031 C 12.003906 77.011719 14.988281 79.996094 18.667969 80 L 61.332031 80 C 65.011719 79.996094 67.996094 77.011719 68 73.332031 L 68 66.667969 L 78.667969 66.667969 C 79.402344 66.667969 80 66.070312 80 65.332031 L 80 44 C 80 41.792969 78.207031 40 76 40 Z M 14.667969 8 L 14.667969 6.667969 C 14.667969 4.457031 16.457031 2.667969 18.667969 2.667969 L 61.332031 2.667969 C 63.542969 2.667969 65.332031 4.457031 65.332031 6.667969 L 65.332031 8 Z M 61.332031 77.332031 L 18.667969 77.332031 C 16.457031 77.332031 14.667969 75.542969 14.667969 73.332031 L 14.667969 72 L 65.332031 72 L 65.332031 73.332031 C 65.332031 75.542969 63.542969 77.332031 61.332031 77.332031 Z M 62.667969 26.667969 L 68 26.667969 C 70.207031 26.667969 72 28.457031 72 30.667969 L 72 40 L 70.667969 40 L 70.667969 30.667969 C 70.667969 29.195312 69.472656 28 68 28 L 62.667969 28 C 61.195312 28 60 29.195312 60 30.667969 L 60 40 L 58.667969 40 L 58.667969 30.667969 C 58.667969 28.457031 60.457031 26.667969 62.667969 26.667969 Z M 68 40 L 62.667969 40 L 62.667969 30.667969 L 68 30.667969 Z M 47.972656 38.667969 C 47.910156 36.355469 47.621094 34.054688 47.105469 31.800781 C 48.3125 31.261719 49.449219 30.582031 50.5 29.78125 C 52.839844 32.1875 54.285156 35.324219 54.59375 38.667969 Z M 34.695312 38.667969 C 34.757812 36.667969 35.007812 34.675781 35.433594 32.722656 C 38.425781 33.535156 41.574219 33.535156 44.566406 32.722656 C 44.992188 34.675781 45.242188 36.667969 45.304688 38.667969 Z M 45.304688 41.332031 C 45.242188 43.332031 44.992188 45.324219 44.566406 47.277344 C 41.574219 46.464844 38.425781 46.464844 35.433594 47.277344 C 35.007812 45.324219 34.757812 43.332031 34.695312 41.332031 Z M 46.347656 29.226562 C 45.980469 28.171875 45.511719 27.15625 44.941406 26.195312 C 46.179688 26.636719 47.351562 27.246094 48.425781 28 C 47.769531 28.464844 47.074219 28.875 46.347656 29.226562 Z M 43.835938 30.160156 C 41.324219 30.839844 38.675781 30.839844 36.164062 30.160156 C 37.199219 27.164062 38.644531 25.332031 40 25.332031 C 41.355469 25.332031 42.800781 27.164062 43.835938 30.15625 Z M 33.652344 29.226562 C 32.925781 28.875 32.230469 28.464844 31.574219 28 C 32.648438 27.242188 33.820312 26.636719 35.058594 26.195312 C 34.488281 27.15625 34.019531 28.171875 33.652344 29.226562 Z M 29.5 29.78125 C 30.550781 30.582031 31.6875 31.261719 32.894531 31.800781 C 32.378906 34.054688 32.089844 36.355469 32.027344 38.667969 L 25.40625 38.667969 C 25.714844 35.324219 27.160156 32.1875 29.5 29.78125 Z M 32.027344 41.332031 C 32.089844 43.644531 32.378906 45.945312 32.894531 48.199219 C 31.6875 48.738281 30.550781 49.417969 29.5 50.21875 C 27.160156 47.8125 25.714844 44.675781 25.40625 41.332031 Z M 33.652344 50.773438 C 34.019531 51.828125 34.488281 52.84375 35.058594 53.804688 C 33.820312 53.363281 32.648438 52.753906 31.574219 52 C 32.230469 51.535156 32.925781 51.125 33.652344 50.773438 Z M 36.164062 49.839844 C 38.675781 49.160156 41.324219 49.160156 43.835938 49.839844 C 42.800781 52.835938 41.355469 54.667969 40 54.667969 C 38.644531 54.667969 37.199219 52.835938 36.164062 49.84375 Z M 46.347656 50.773438 C 47.074219 51.125 47.769531 51.535156 48.425781 52 C 47.351562 52.757812 46.179688 53.363281 44.941406 53.804688 C 45.511719 52.84375 45.980469 51.828125 46.347656 50.773438 Z M 50.667969 44 L 50.667969 50.039062 C 50.609375 50.097656 50.550781 50.152344 50.492188 50.210938 C 49.445312 49.414062 48.308594 48.738281 47.105469 48.199219 C 47.621094 45.945312 47.910156 43.644531 47.972656 41.332031 L 51.703125 41.332031 C 51.039062 42.0625 50.667969 43.011719 50.667969 44 Z M 40 60 C 30.511719 60.003906 22.328125 53.335938 20.410156 44.042969 C 18.492188 34.753906 23.363281 25.390625 32.078125 21.636719 C 40.789062 17.878906 50.941406 20.761719 56.382812 28.535156 C 56.136719 29.21875 56.007812 29.941406 56 30.667969 L 56 33.386719 C 53.160156 26.507812 46.242188 22.207031 38.816406 22.707031 C 31.390625 23.207031 25.109375 28.390625 23.214844 35.589844 C 21.320312 42.789062 24.234375 50.394531 30.453125 54.484375 C 36.671875 58.574219 44.808594 58.238281 50.667969 53.648438 L 50.667969 56.914062 C 47.472656 58.929688 43.777344 60 40 60 Z M 77.332031 64 L 53.332031 64 L 53.332031 44 C 53.332031 43.261719 53.929688 42.667969 54.667969 42.667969 L 76 42.667969 C 76.738281 42.667969 77.332031 43.261719 77.332031 44 Z M 77.332031 64 "/>
<path style=" stroke:none;fill-rule:nonzero;fill:rgb(0%,0%,0%);fill-opacity:1;" d="M 69.332031 49.332031 C 69.339844 47.351562 67.890625 45.660156 65.929688 45.363281 C 63.96875 45.066406 62.089844 46.253906 61.507812 48.152344 C 60.929688 50.046875 61.824219 52.082031 63.617188 52.933594 L 61.402344 59.582031 C 61.269531 59.988281 61.335938 60.433594 61.585938 60.78125 C 61.835938 61.128906 62.238281 61.332031 62.667969 61.332031 L 68 61.332031 C 68.429688 61.332031 68.832031 61.128906 69.082031 60.777344 C 69.332031 60.433594 69.398438 59.984375 69.265625 59.578125 L 67.050781 52.933594 C 68.441406 52.273438 69.328125 50.871094 69.332031 49.332031 Z M 65.332031 48 C 66.070312 48 66.667969 48.597656 66.667969 49.332031 C 66.667969 50.070312 66.070312 50.667969 65.332031 50.667969 C 64.597656 50.667969 64 50.070312 64 49.332031 C 64 48.597656 64.597656 48 65.332031 48 Z M 64.519531 58.667969 L 65.332031 56.214844 L 66.148438 58.667969 Z M 64.519531 58.667969 "/>
<path style=" stroke:none;fill-rule:nonzero;fill:rgb(0%,0%,0%);fill-opacity:1;" d="M 0 33.332031 L 2.667969 33.332031 L 2.667969 36 L 0 36 Z M 0 33.332031 "/>
<path style=" stroke:none;fill-rule:nonzero;fill:rgb(0%,0%,0%);fill-opacity:1;" d="M 4 33.332031 L 16 33.332031 L 16 36 L 4 36 Z M 4 33.332031 "/>
<path style=" stroke:none;fill-rule:nonzero;fill:rgb(0%,0%,0%);fill-opacity:1;" d="M 0 38.667969 L 2.667969 38.667969 L 2.667969 41.332031 L 0 41.332031 Z M 0 38.667969 "/>
<path style=" stroke:none;fill-rule:nonzero;fill:rgb(0%,0%,0%);fill-opacity:1;" d="M 4 38.667969 L 16 38.667969 L 16 41.332031 L 4 41.332031 Z M 4 38.667969 "/>
<path style=" stroke:none;fill-rule:nonzero;fill:rgb(0%,0%,0%);fill-opacity:1;" d="M 0 44 L 2.667969 44 L 2.667969 46.667969 L 0 46.667969 Z M 0 44 "/>
<path style=" stroke:none;fill-rule:nonzero;fill:rgb(0%,0%,0%);fill-opacity:1;" d="M 4 44 L 16 44 L 16 46.667969 L 4 46.667969 Z M 4 44 "/>
</g>
</svg>
