<?xml version="1.0" encoding="UTF-8"?>
<svg xmlns="http://www.w3.org/2000/svg" xmlns:xlink="http://www.w3.org/1999/xlink" width="80px" height="80px" viewBox="0 0 80 80" version="1.1">
<g id="surface1">
<path style=" stroke:none;fill-rule:nonzero;fill:rgb(0%,0%,0%);fill-opacity:1;" d="M 75.3125 0 C 59.316406 0 40 11.484375 40 25.746094 C 40 25.828125 40.023438 26.066406 40.035156 26.152344 C 40.058594 26.960938 40.617188 27.65625 41.402344 27.855469 C 42.183594 28.054688 43.011719 27.714844 43.417969 27.011719 C 48.203125 18.855469 55.214844 12.582031 64.863281 7.832031 C 65.757812 7.386719 66.863281 7.785156 67.296875 8.660156 C 67.511719 9.097656 67.542969 9.589844 67.386719 10.050781 C 67.230469 10.511719 66.90625 10.882812 66.46875 11.09375 C 55.625 16.4375 48.339844 23.785156 44.183594 33.550781 C 44.117188 33.648438 44.03125 33.730469 43.984375 33.847656 C 41.375 40.132812 40.035156 47.59375 40 56.019531 C 39.359375 54.328125 38.601562 52.722656 37.785156 51.15625 C 39.230469 48.9375 40 46.523438 40 43.925781 C 40 29.667969 20.683594 18.183594 4.6875 18.183594 C 2.105469 18.183594 0 20.285156 0 22.871094 C 0 38.867188 11.484375 58.183594 25.746094 58.183594 C 29.257812 58.183594 32.4375 56.808594 35.230469 54.179688 C 38.417969 60.898438 40 68.789062 40 78.183594 C 40 79.1875 40.8125 80 41.816406 80 C 42.824219 80 43.636719 79.1875 43.636719 78.183594 L 43.636719 56.363281 C 43.636719 49.246094 44.65625 42.945312 46.5625 37.484375 C 48.910156 39.144531 51.484375 40 54.253906 40 C 68.515625 40 80 20.683594 80 4.6875 C 80 2.105469 77.894531 0 75.3125 0 Z M 75.3125 0 "/>
</g>
</svg>
