<?xml version="1.0" encoding="UTF-8"?>
<svg xmlns="http://www.w3.org/2000/svg" xmlns:xlink="http://www.w3.org/1999/xlink" width="80px" height="80px" viewBox="0 0 80 80" version="1.1">
<g id="surface1">
<path style=" stroke:none;fill-rule:nonzero;fill:rgb(0%,0%,0%);fill-opacity:1;" d="M 25.828125 26.480469 L 32.070312 31.015625 L 29.683594 38.355469 C 29.324219 39.464844 29.703125 40.625 30.644531 41.3125 C 31.117188 41.65625 31.660156 41.828125 32.203125 41.828125 C 32.742188 41.828125 33.285156 41.65625 33.757812 41.3125 L 40 36.777344 L 46.242188 41.3125 C 47.1875 42 48.410156 42 49.355469 41.3125 C 50.296875 40.628906 50.675781 39.464844 50.316406 38.355469 L 47.929688 31.015625 L 54.171875 26.480469 C 55.117188 25.792969 55.496094 24.632812 55.132812 23.519531 C 54.773438 22.410156 53.785156 21.691406 52.617188 21.691406 L 44.902344 21.691406 L 42.515625 14.355469 C 42.15625 13.242188 41.167969 12.523438 40 12.523438 C 38.832031 12.523438 37.84375 13.242188 37.484375 14.355469 L 35.097656 21.691406 L 27.382812 21.691406 C 26.214844 21.691406 25.226562 22.410156 24.863281 23.519531 C 24.503906 24.632812 24.882812 25.792969 25.828125 26.480469 Z M 27.09375 24.246094 C 27.140625 24.105469 27.234375 24.035156 27.382812 24.035156 L 35.949219 24.035156 C 36.457031 24.035156 36.90625 23.710938 37.066406 23.226562 L 39.710938 15.078125 C 39.757812 14.9375 39.855469 14.867188 40 14.867188 C 40.144531 14.867188 40.242188 14.9375 40.289062 15.078125 L 42.933594 23.226562 C 43.09375 23.710938 43.542969 24.035156 44.050781 24.035156 L 52.617188 24.035156 C 52.765625 24.035156 52.859375 24.105469 52.90625 24.246094 C 52.949219 24.382812 52.914062 24.496094 52.796875 24.582031 L 45.863281 29.621094 C 45.453125 29.917969 45.28125 30.445312 45.4375 30.929688 L 48.085938 39.078125 C 48.132812 39.21875 48.09375 39.332031 47.976562 39.417969 C 47.859375 39.503906 47.738281 39.503906 47.621094 39.417969 L 40.6875 34.378906 C 40.484375 34.230469 40.242188 34.15625 40 34.15625 C 39.757812 34.15625 39.515625 34.230469 39.3125 34.378906 L 32.378906 39.417969 C 32.261719 39.503906 32.140625 39.503906 32.023438 39.417969 C 31.90625 39.332031 31.867188 39.21875 31.914062 39.078125 L 34.5625 30.929688 C 34.71875 30.449219 34.546875 29.917969 34.136719 29.621094 L 27.203125 24.582031 C 27.085938 24.496094 27.050781 24.382812 27.09375 24.246094 Z M 27.09375 24.246094 "/>
<path style=" stroke:none;fill-rule:nonzero;fill:rgb(0%,0%,0%);fill-opacity:1;" d="M 70.890625 32.910156 L 64.96875 26.988281 L 64.96875 2.425781 C 64.96875 1.085938 63.882812 0 62.546875 0 L 17.453125 0 C 16.117188 0 15.03125 1.085938 15.03125 2.425781 L 15.03125 26.988281 L 9.109375 32.910156 C 8.890625 33.128906 8.769531 33.425781 8.769531 33.738281 L 8.769531 76.324219 C 8.769531 78.351562 10.417969 80 12.445312 80 L 67.554688 80 C 69.582031 80 71.230469 78.351562 71.230469 76.324219 L 71.230469 33.738281 C 71.230469 33.425781 71.109375 33.128906 70.890625 32.910156 Z M 68.886719 76 L 49.171875 56.28125 L 68.886719 36.566406 Z M 67.230469 77.65625 L 12.769531 77.65625 L 36.398438 54.023438 C 38.386719 52.039062 41.613281 52.039062 43.597656 54.023438 Z M 17.453125 2.34375 L 62.546875 2.34375 C 62.589844 2.34375 62.625 2.378906 62.625 2.425781 L 62.625 32.484375 C 62.625 33.132812 63.152344 33.65625 63.796875 33.65625 C 64.445312 33.65625 64.96875 33.132812 64.96875 32.484375 L 64.96875 30.304688 L 68.402344 33.738281 L 47.515625 54.625 L 45.257812 52.367188 C 42.359375 49.46875 37.640625 49.46875 34.742188 52.367188 L 11.113281 76 L 11.113281 36.566406 L 28.007812 53.460938 C 28.234375 53.691406 28.535156 53.804688 28.835938 53.804688 C 29.132812 53.804688 29.433594 53.691406 29.664062 53.460938 C 30.121094 53.003906 30.121094 52.261719 29.664062 51.804688 L 17.375 39.515625 L 17.375 2.425781 C 17.375 2.378906 17.410156 2.34375 17.453125 2.34375 Z M 15.03125 30.304688 L 15.03125 37.171875 L 11.597656 33.738281 Z M 15.03125 30.304688 "/>
</g>
</svg>
