<?xml version="1.0" encoding="UTF-8"?>
<svg xmlns="http://www.w3.org/2000/svg" xmlns:xlink="http://www.w3.org/1999/xlink" width="80px" height="80px" viewBox="0 0 80 80" version="1.1">
<g id="surface1">
<path style=" stroke:none;fill-rule:nonzero;fill:rgb(0%,0%,0%);fill-opacity:1;" d="M 68.265625 11.699219 C 52.671875 -3.898438 27.296875 -3.898438 11.699219 11.699219 C -3.898438 27.292969 -3.898438 52.671875 11.699219 68.265625 C 27.292969 83.863281 52.667969 83.863281 68.265625 68.265625 C 83.863281 52.671875 83.863281 27.292969 68.265625 11.699219 Z M 69.398438 58.601562 L 59.414062 48.621094 C 61.832031 43.167969 61.84375 36.910156 59.464844 31.449219 L 69.457031 21.460938 C 76.566406 32.773438 76.554688 47.300781 69.398438 58.601562 Z M 28.578125 51.386719 C 22.285156 45.097656 22.285156 34.867188 28.578125 28.578125 C 34.867188 22.285156 45.09375 22.285156 51.386719 28.578125 C 57.679688 34.867188 57.679688 45.09375 51.386719 51.386719 C 45.09375 57.671875 34.863281 57.667969 28.578125 51.386719 Z M 58.507812 10.503906 L 48.511719 20.5 C 43.050781 18.109375 36.792969 18.128906 31.34375 20.546875 L 21.359375 10.558594 C 32.664062 3.410156 47.191406 3.394531 58.507812 10.503906 Z M 10.449219 21.546875 L 20.449219 31.546875 C 18.125 36.953125 18.140625 43.113281 20.5 48.511719 L 10.507812 58.5 C 3.433594 47.246094 3.417969 32.824219 10.449219 21.546875 Z M 21.453125 69.457031 L 31.445312 59.464844 C 36.84375 61.820312 43.007812 61.84375 48.414062 59.515625 L 58.414062 69.515625 C 47.136719 76.546875 32.710938 76.53125 21.453125 69.457031 Z M 21.453125 69.457031 "/>
</g>
</svg>
