<?xml version="1.0" encoding="UTF-8"?>
<svg xmlns="http://www.w3.org/2000/svg" xmlns:xlink="http://www.w3.org/1999/xlink" width="80px" height="80px" viewBox="0 0 80 80" version="1.1">
<g id="surface1">
<path style=" stroke:none;fill-rule:nonzero;fill:rgb(0%,0%,0%);fill-opacity:1;" d="M 62.703125 27.945312 C 62.066406 27.945312 61.429688 27.980469 60.796875 28.050781 C 55.9375 16.183594 44.386719 8.433594 31.5625 8.4375 C 14.132812 8.4375 0 22.566406 0 40 C 0 57.433594 14.132812 71.5625 31.5625 71.5625 C 37.308594 71.570312 42.949219 70.003906 47.867188 67.03125 C 49.332031 68.796875 51.382812 69.972656 53.648438 70.351562 C 56.164062 70.785156 58.75 70.195312 60.828125 68.71875 C 62.910156 67.238281 64.320312 64.992188 64.742188 62.476562 L 64.75 62.417969 C 73.84375 61.339844 80.523438 53.359375 79.980469 44.214844 C 79.4375 35.070312 71.863281 27.9375 62.703125 27.941406 Z M 62.703125 27.945312 "/>
<path style=" stroke:none;fill-rule:nonzero;fill:rgb(100%,100%,100%);fill-opacity:1;" d="M 7.949219 35.808594 L 9.320312 35.808594 L 11.417969 26.757812 L 9.867188 26.757812 L 10.195312 25.28125 L 14.976562 25.28125 L 14.628906 26.757812 L 13.078125 26.757812 L 10.960938 35.820312 L 14.703125 35.820312 L 15.121094 34.0625 L 16.710938 34.0625 L 15.960938 37.292969 L 7.601562 37.292969 Z M 7.949219 35.808594 "/>
<path style=" stroke:none;fill-rule:nonzero;fill:rgb(100%,100%,100%);fill-opacity:1;" d="M 17.292969 35.828125 C 17.304688 35.539062 17.347656 35.25 17.421875 34.96875 L 18.515625 30.773438 L 17.03125 30.773438 L 17.378906 29.421875 L 20.46875 29.421875 L 19.007812 34.988281 C 18.929688 35.25 18.886719 35.519531 18.882812 35.789062 C 18.882812 36.136719 19.0625 36.339844 19.351562 36.339844 C 19.714844 36.339844 20.046875 36.0625 20.429688 35.0625 L 21.140625 35.316406 C 20.671875 36.878906 19.898438 37.414062 18.929688 37.414062 C 17.875 37.414062 17.292969 36.777344 17.292969 35.828125 Z M 18.828125 27.03125 C 18.828125 26.449219 19.300781 25.972656 19.882812 25.972656 C 20.273438 25.957031 20.636719 26.15625 20.835938 26.492188 C 21.035156 26.824219 21.035156 27.238281 20.835938 27.574219 C 20.636719 27.90625 20.273438 28.105469 19.882812 28.089844 C 19.300781 28.089844 18.828125 27.617188 18.828125 27.03125 Z M 18.828125 27.03125 "/>
<path style=" stroke:none;fill-rule:nonzero;fill:rgb(100%,100%,100%);fill-opacity:1;" d="M 22.382812 30.78125 L 21.015625 30.78125 L 21.363281 29.429688 L 23.773438 29.429688 L 24.6875 35.679688 C 26.09375 34.167969 27.113281 32.617188 27.425781 31.410156 C 26.914062 31.246094 26.597656 30.734375 26.679688 30.203125 C 26.761719 29.671875 27.214844 29.28125 27.753906 29.277344 C 28.445312 29.277344 28.957031 29.804688 28.957031 30.683594 C 28.957031 32.34375 27.238281 34.972656 24.6875 37.507812 L 23.648438 37.507812 Z M 22.382812 30.78125 "/>
<path style=" stroke:none;fill-rule:nonzero;fill:rgb(100%,100%,100%);fill-opacity:1;" d="M 29.886719 35.828125 C 29.894531 35.539062 29.9375 35.25 30.011719 34.96875 L 31.105469 30.773438 L 29.628906 30.773438 L 29.972656 29.421875 L 33.058594 29.421875 L 31.597656 34.988281 C 31.519531 35.25 31.476562 35.519531 31.46875 35.789062 C 31.46875 36.136719 31.652344 36.339844 31.9375 36.339844 C 32.304688 36.339844 32.632812 36.0625 33.015625 35.0625 L 33.726562 35.316406 C 33.257812 36.878906 32.488281 37.414062 31.519531 37.414062 C 30.46875 37.414062 29.886719 36.777344 29.886719 35.828125 Z M 31.417969 27.03125 C 31.417969 26.445312 31.890625 25.972656 32.476562 25.972656 C 33.0625 25.972656 33.535156 26.449219 33.535156 27.035156 C 33.535156 27.617188 33.0625 28.09375 32.476562 28.09375 C 31.890625 28.089844 31.417969 27.617188 31.417969 27.03125 Z M 31.417969 27.03125 "/>
<path style=" stroke:none;fill-rule:nonzero;fill:rgb(100%,100%,100%);fill-opacity:1;" d="M 39.15625 35.84375 C 39.164062 35.542969 39.207031 35.242188 39.28125 34.953125 L 39.957031 32.578125 C 40.039062 32.320312 40.085938 32.050781 40.085938 31.777344 C 40.085938 31.082031 39.617188 30.625 38.898438 30.625 C 37.933594 30.625 37.023438 31.449219 36.617188 33.015625 L 35.5625 37.289062 L 33.953125 37.289062 L 35.597656 30.78125 L 34.136719 30.78125 L 34.484375 29.429688 L 37.296875 29.429688 L 36.875 31.265625 C 37.5 30.171875 38.519531 29.292969 39.59375 29.292969 C 40.796875 29.292969 41.730469 30.117188 41.730469 31.523438 C 41.71875 31.953125 41.652344 32.382812 41.53125 32.796875 L 40.855469 35.117188 C 40.796875 35.324219 40.761719 35.539062 40.742188 35.753906 C 40.742188 36.121094 40.925781 36.339844 41.238281 36.339844 C 41.546875 36.339844 41.894531 36.0625 42.257812 35.0625 L 42.96875 35.3125 C 42.550781 36.734375 41.800781 37.410156 40.835938 37.410156 C 39.757812 37.414062 39.15625 36.757812 39.15625 35.84375 Z M 39.15625 35.84375 "/>
<path style=" stroke:none;fill-rule:nonzero;fill:rgb(100%,100%,100%);fill-opacity:1;" d="M 42.878906 40.023438 C 42.582031 39.769531 42.414062 39.394531 42.421875 39.003906 C 42.421875 38.363281 42.859375 37.925781 43.425781 37.925781 C 43.6875 37.925781 43.9375 38.03125 44.117188 38.214844 C 44.300781 38.402344 44.398438 38.652344 44.394531 38.914062 C 44.394531 39.074219 44.355469 39.234375 44.28125 39.382812 C 44.6875 39.589844 45.140625 39.6875 45.597656 39.671875 C 46.34375 39.671875 46.875 39.472656 47.332031 39.015625 C 47.75 38.617188 48.007812 37.976562 48.207031 37.117188 L 48.554688 35.640625 C 47.878906 36.589844 46.929688 37.191406 45.851562 37.191406 C 44.082031 37.191406 42.988281 35.929688 42.988281 34.035156 C 42.988281 31.480469 44.757812 29.273438 47.148438 29.273438 C 48.265625 29.253906 49.257812 29.984375 49.574219 31.058594 L 50.070312 29.382812 L 51.546875 29.382812 L 49.671875 37.484375 C 49.433594 38.542969 49.105469 39.328125 48.519531 39.929688 C 47.828125 40.605469 46.914062 40.933594 45.636719 40.933594 C 44.539062 40.9375 43.351562 40.5 42.878906 40.023438 Z M 49.246094 32.5625 C 49.246094 31.394531 48.480469 30.6875 47.347656 30.6875 C 45.816406 30.6875 44.648438 32.148438 44.648438 33.933594 C 44.648438 35.101562 45.414062 35.832031 46.507812 35.832031 C 48.078125 35.828125 49.246094 34.257812 49.246094 32.5625 Z M 49.246094 32.5625 "/>
<path style=" stroke:none;fill-rule:nonzero;fill:rgb(100%,100%,100%);fill-opacity:1;" d="M 18.023438 40.476562 L 16.726562 40.476562 L 17.074219 39 L 21.492188 39 L 21.164062 40.476562 L 19.648438 40.476562 L 20.011719 48.03125 L 24.464844 40.3125 L 25.246094 40.3125 L 26.578125 48.066406 L 30.265625 40.476562 L 28.804688 40.476562 L 29.132812 39 L 33.566406 39 L 33.21875 40.476562 L 32.070312 40.476562 L 26.613281 51.132812 L 25.71875 51.132812 L 24.277344 43.488281 L 19.660156 51.132812 L 18.785156 51.152344 Z M 18.023438 40.476562 "/>
<path style=" stroke:none;fill-rule:nonzero;fill:rgb(100%,100%,100%);fill-opacity:1;" d="M 30.324219 48.015625 C 30.324219 45.332031 32.183594 42.996094 34.464844 42.996094 C 35.652344 42.996094 36.546875 43.851562 36.820312 44.855469 L 37.332031 43.101562 L 38.828125 43.101562 L 37.441406 48.707031 C 37.359375 48.96875 37.308594 49.238281 37.292969 49.507812 C 37.292969 49.855469 37.460938 50.054688 37.761719 50.054688 C 38.066406 50.054688 38.417969 49.78125 38.785156 48.78125 L 39.496094 49.035156 C 39.027344 50.597656 38.199219 51.132812 37.324219 51.132812 C 36.386719 51.132812 35.808594 50.496094 35.808594 49.546875 L 35.808594 49.453125 C 35.132812 50.390625 34.1875 51.152344 32.996094 51.152344 C 31.4375 51.152344 30.324219 49.929688 30.324219 48.015625 Z M 36.453125 46.335938 C 36.453125 45.164062 35.871094 44.398438 34.667969 44.398438 C 33.132812 44.398438 31.984375 46.0625 31.984375 47.828125 C 31.984375 48.980469 32.550781 49.78125 33.644531 49.78125 C 35.25 49.78125 36.453125 48.050781 36.453125 46.335938 Z M 36.453125 46.335938 "/>
<path style=" stroke:none;fill-rule:nonzero;fill:rgb(100%,100%,100%);fill-opacity:1;" d="M 39.6875 53.75 C 39.390625 53.492188 39.222656 53.121094 39.230469 52.726562 C 39.230469 52.089844 39.671875 51.648438 40.234375 51.648438 C 40.496094 51.648438 40.746094 51.753906 40.925781 51.941406 C 41.109375 52.125 41.207031 52.375 41.203125 52.636719 C 41.207031 52.800781 41.167969 52.960938 41.09375 53.105469 C 41.5 53.3125 41.949219 53.414062 42.40625 53.398438 C 43.15625 53.398438 43.683594 53.195312 44.140625 52.738281 C 44.5625 52.335938 44.816406 51.699219 45.015625 50.84375 L 45.363281 49.363281 C 44.6875 50.3125 43.738281 50.914062 42.664062 50.914062 C 40.890625 50.914062 39.796875 49.65625 39.796875 47.757812 C 39.796875 45.203125 41.566406 42.996094 43.957031 42.996094 C 45.078125 42.976562 46.070312 43.710938 46.382812 44.785156 L 46.875 43.101562 L 48.351562 43.101562 L 46.476562 51.207031 C 46.242188 52.265625 45.914062 53.050781 45.328125 53.652344 C 44.632812 54.328125 43.722656 54.65625 42.445312 54.65625 C 41.34375 54.65625 40.15625 54.21875 39.6875 53.75 Z M 46.058594 46.285156 C 46.058594 45.117188 45.289062 44.410156 44.160156 44.410156 C 42.625 44.410156 41.457031 45.871094 41.457031 47.660156 C 41.457031 48.828125 42.226562 49.558594 43.320312 49.558594 C 44.886719 49.546875 46.054688 47.976562 46.054688 46.28125 Z M 46.058594 46.285156 "/>
<path style=" stroke:none;fill-rule:nonzero;fill:rgb(100%,100%,100%);fill-opacity:1;" d="M 49.90625 47.574219 L 49.90625 47.847656 C 49.90625 49.035156 50.851562 49.820312 52.277344 49.820312 C 53.117188 49.820312 53.882812 49.636719 54.867188 49.109375 L 54.554688 50.605469 C 53.734375 51.007812 53.058594 51.152344 51.945312 51.152344 C 50.070312 51.152344 48.332031 49.964844 48.332031 47.8125 C 48.332031 45.148438 50.304688 42.996094 52.640625 42.996094 C 54.554688 42.996094 55.816406 44.089844 55.816406 45.933594 C 55.808594 46.492188 55.707031 47.046875 55.523438 47.574219 Z M 50.125 46.425781 L 54.21875 46.425781 C 54.289062 46.207031 54.328125 45.980469 54.328125 45.75 C 54.328125 44.929688 53.78125 44.328125 52.648438 44.328125 C 51.515625 44.328125 50.542969 45.183594 50.125 46.425781 Z M 50.125 46.425781 "/>
<path style=" stroke:none;fill-rule:nonzero;fill:rgb(100%,100%,100%);fill-opacity:1;" d="M 27.21875 61.640625 L 27.960938 61.640625 L 29.109375 56.667969 L 28.28125 56.667969 L 28.386719 56.222656 L 32.59375 56.222656 L 32.28125 57.550781 L 31.789062 57.550781 L 31.996094 56.667969 L 29.617188 56.667969 L 29.109375 58.871094 L 31.050781 58.871094 L 30.953125 59.316406 L 29.011719 59.316406 L 28.46875 61.640625 L 30.84375 61.640625 L 31.050781 60.757812 L 31.539062 60.757812 L 31.238281 62.085938 L 27.113281 62.085938 Z M 27.21875 61.640625 "/>
<path style=" stroke:none;fill-rule:nonzero;fill:rgb(100%,100%,100%);fill-opacity:1;" d="M 33.054688 58.75 L 32.34375 58.75 L 32.449219 58.339844 L 33.59375 58.339844 L 33.351562 59.242188 C 33.71875 58.652344 34.179688 58.269531 34.6875 58.269531 C 35.269531 58.269531 35.640625 58.617188 35.660156 59.207031 C 36.023438 58.636719 36.515625 58.269531 37.003906 58.269531 C 37.269531 58.253906 37.523438 58.351562 37.714844 58.539062 C 37.902344 58.722656 38.003906 58.976562 37.992188 59.242188 C 37.984375 59.441406 37.949219 59.636719 37.886719 59.828125 L 37.503906 61.140625 C 37.472656 61.257812 37.449219 61.378906 37.441406 61.503906 C 37.4375 61.578125 37.460938 61.65625 37.515625 61.710938 C 37.566406 61.769531 37.640625 61.800781 37.71875 61.796875 C 37.914062 61.796875 38.066406 61.621094 38.234375 61.210938 L 38.511719 61.296875 C 38.332031 61.824219 38.066406 62.136719 37.65625 62.136719 C 37.480469 62.152344 37.304688 62.089844 37.175781 61.96875 C 37.046875 61.847656 36.976562 61.679688 36.976562 61.503906 C 36.988281 61.363281 37.011719 61.226562 37.050781 61.09375 L 37.433594 59.765625 C 37.484375 59.601562 37.515625 59.429688 37.523438 59.257812 C 37.53125 59.097656 37.472656 58.945312 37.359375 58.832031 C 37.246094 58.71875 37.09375 58.660156 36.933594 58.671875 C 36.398438 58.671875 35.730469 59.25 35.453125 60.308594 L 34.984375 62.082031 L 34.515625 62.082031 L 35.113281 59.765625 C 35.167969 59.601562 35.195312 59.429688 35.203125 59.257812 C 35.210938 59.097656 35.148438 58.945312 35.035156 58.832031 C 34.921875 58.71875 34.765625 58.660156 34.605469 58.671875 C 34.082031 58.671875 33.367188 59.257812 33.109375 60.300781 L 32.664062 62.082031 L 32.195312 62.082031 Z M 33.054688 58.75 "/>
<path style=" stroke:none;fill-rule:nonzero;fill:rgb(100%,100%,100%);fill-opacity:1;" d="M 37.953125 63.421875 L 38.53125 63.421875 L 39.65625 58.75 L 38.941406 58.75 L 39.039062 58.339844 L 40.1875 58.339844 L 40.019531 59.0625 C 40.324219 58.632812 40.769531 58.269531 41.355469 58.269531 C 42.167969 58.269531 42.800781 58.882812 42.800781 59.847656 C 42.800781 61.15625 41.828125 62.152344 40.804688 62.152344 C 40.179688 62.152344 39.671875 61.804688 39.511719 61.253906 L 39.003906 63.417969 L 39.824219 63.417969 L 39.726562 63.828125 L 37.851562 63.828125 Z M 42.300781 59.902344 C 42.300781 59.164062 41.917969 58.691406 41.277344 58.691406 C 40.386719 58.691406 39.679688 59.742188 39.679688 60.617188 C 39.679688 61.265625 40.101562 61.738281 40.796875 61.738281 C 41.675781 61.738281 42.300781 60.828125 42.300781 59.902344 Z M 42.300781 59.902344 "/>
<path style=" stroke:none;fill-rule:nonzero;fill:rgb(100%,100%,100%);fill-opacity:1;" d="M 43.351562 61.507812 C 43.363281 61.378906 43.382812 61.253906 43.414062 61.132812 L 44.617188 55.976562 L 43.90625 55.976562 L 44.003906 55.566406 L 45.171875 55.566406 L 43.871094 61.136719 C 43.839844 61.257812 43.820312 61.382812 43.808594 61.507812 C 43.800781 61.585938 43.828125 61.660156 43.878906 61.71875 C 43.933594 61.773438 44.007812 61.804688 44.085938 61.804688 C 44.28125 61.804688 44.429688 61.625 44.601562 61.214844 L 44.878906 61.304688 C 44.699219 61.832031 44.429688 62.140625 44.023438 62.140625 C 43.847656 62.15625 43.675781 62.09375 43.546875 61.972656 C 43.417969 61.851562 43.347656 61.683594 43.351562 61.507812 Z M 43.351562 61.507812 "/>
<path style=" stroke:none;fill-rule:nonzero;fill:rgb(100%,100%,100%);fill-opacity:1;" d="M 45.265625 60.554688 C 45.265625 59.367188 46.183594 58.273438 47.386719 58.273438 C 48.375 58.273438 48.949219 59.003906 48.949219 59.875 C 48.949219 61.0625 48.03125 62.15625 46.828125 62.15625 C 45.84375 62.15625 45.265625 61.425781 45.265625 60.554688 Z M 48.484375 59.867188 C 48.484375 59.15625 48 58.691406 47.359375 58.691406 C 46.453125 58.691406 45.738281 59.5625 45.738281 60.566406 C 45.738281 61.277344 46.21875 61.742188 46.859375 61.742188 C 47.769531 61.738281 48.484375 60.867188 48.484375 59.867188 Z M 48.484375 59.867188 "/>
<path style=" stroke:none;fill-rule:nonzero;fill:rgb(100%,100%,100%);fill-opacity:1;" d="M 48.214844 63.421875 C 48.210938 63.320312 48.25 63.21875 48.320312 63.144531 C 48.390625 63.070312 48.484375 63.023438 48.589844 63.023438 C 48.8125 63.023438 48.945312 63.179688 48.960938 63.429688 L 49.007812 63.429688 C 49.222656 63.429688 49.703125 63.09375 50.53125 62.078125 L 49.863281 58.75 L 49.167969 58.75 L 49.265625 58.339844 L 50.28125 58.339844 L 50.878906 61.621094 C 51.589844 60.695312 52.304688 59.6875 52.429688 59.09375 C 52.222656 59.042969 52.070312 58.859375 52.0625 58.648438 C 52.070312 58.429688 52.25 58.261719 52.464844 58.265625 C 52.703125 58.265625 52.902344 58.441406 52.902344 58.789062 C 52.902344 59.4375 52.359375 60.3125 50.984375 62.058594 C 49.863281 63.492188 49.273438 63.859375 48.75 63.859375 C 48.480469 63.867188 48.214844 63.679688 48.214844 63.421875 Z M 48.214844 63.421875 "/>
<path style=" stroke:none;fill-rule:nonzero;fill:rgb(100%,100%,100%);fill-opacity:1;" d="M 53.550781 60.339844 C 53.542969 60.421875 53.542969 60.496094 53.542969 60.578125 C 53.542969 61.359375 54.167969 61.746094 54.804688 61.746094 C 55.242188 61.746094 55.667969 61.628906 56.035156 61.398438 L 55.9375 61.875 C 55.566406 62.070312 55.152344 62.164062 54.734375 62.148438 C 53.871094 62.148438 53.085938 61.589844 53.085938 60.585938 C 53.085938 59.320312 54.074219 58.273438 55.179688 58.273438 C 56.027344 58.273438 56.542969 58.804688 56.542969 59.597656 C 56.535156 59.851562 56.480469 60.101562 56.386719 60.335938 Z M 53.640625 59.949219 L 56.027344 59.949219 C 56.074219 59.808594 56.097656 59.664062 56.097656 59.519531 C 56.097656 59.101562 55.8125 58.691406 55.136719 58.691406 C 54.457031 58.691406 53.871094 59.226562 53.640625 59.949219 Z M 53.640625 59.949219 "/>
<path style=" stroke:none;fill-rule:nonzero;fill:rgb(100%,100%,100%);fill-opacity:1;" d="M 57.789062 58.75 L 57.078125 58.75 L 57.183594 58.339844 L 58.335938 58.339844 L 58.085938 59.355469 C 58.585938 58.671875 59.003906 58.269531 59.351562 58.269531 C 59.644531 58.269531 59.804688 58.4375 59.804688 58.660156 C 59.804688 58.894531 59.621094 59.089844 59.386719 59.097656 C 59.199219 59.105469 59.035156 58.976562 58.992188 58.796875 C 58.414062 59.183594 58 59.769531 57.828125 60.445312 L 57.417969 62.082031 L 56.949219 62.082031 Z M 57.789062 58.75 "/>
<path style=" stroke:none;fill-rule:nonzero;fill:rgb(100%,100%,100%);fill-opacity:1;" d="M 16.90625 18.140625 L 16.28125 18.140625 L 16.386719 17.695312 L 18.1875 17.695312 L 18.082031 18.140625 L 17.34375 18.140625 L 17.46875 22.738281 L 19.902344 18.453125 L 20.117188 18.453125 L 20.605469 22.746094 L 23.027344 18.140625 L 22.316406 18.140625 L 22.421875 17.695312 L 24.21875 17.695312 L 24.113281 18.140625 L 23.523438 18.140625 L 20.59375 23.65625 L 20.3125 23.65625 L 19.796875 19.492188 L 17.390625 23.65625 L 17.105469 23.65625 Z M 16.90625 18.140625 "/>
<path style=" stroke:none;fill-rule:nonzero;fill:rgb(100%,100%,100%);fill-opacity:1;" d="M 23.4375 21.8125 C 23.429688 21.890625 23.425781 21.972656 23.429688 22.050781 C 23.429688 22.832031 24.0625 23.21875 24.695312 23.21875 C 25.128906 23.21875 25.554688 23.097656 25.921875 22.871094 L 25.816406 23.351562 C 25.445312 23.546875 25.03125 23.640625 24.613281 23.628906 C 23.75 23.628906 22.964844 23.066406 22.964844 22.066406 C 22.964844 20.800781 23.953125 19.75 25.058594 19.75 C 25.90625 19.75 26.421875 20.28125 26.421875 21.078125 C 26.414062 21.332031 26.359375 21.582031 26.265625 21.816406 Z M 23.527344 21.417969 L 25.914062 21.417969 C 25.960938 21.28125 25.984375 21.136719 25.984375 20.992188 C 25.984375 20.570312 25.699219 20.164062 25.023438 20.164062 C 24.347656 20.164062 23.765625 20.695312 23.53125 21.417969 Z M 23.527344 21.417969 "/>
<path style=" stroke:none;fill-rule:nonzero;fill:rgb(100%,100%,100%);fill-opacity:1;" d="M 28.351562 22.078125 C 28.351562 20.804688 29.277344 19.742188 30.355469 19.742188 C 31.03125 19.742188 31.476562 20.117188 31.585938 20.714844 L 31.808594 19.769531 L 32.277344 19.769531 L 31.582031 22.621094 C 31.546875 22.738281 31.527344 22.859375 31.519531 22.976562 C 31.511719 23.054688 31.539062 23.128906 31.589844 23.1875 C 31.644531 23.242188 31.71875 23.273438 31.796875 23.273438 C 31.992188 23.273438 32.140625 23.09375 32.3125 22.683594 L 32.585938 22.773438 C 32.410156 23.296875 32.140625 23.609375 31.734375 23.609375 C 31.324219 23.609375 31.074219 23.359375 31.074219 23.015625 L 31.074219 22.859375 C 30.742188 23.292969 30.28125 23.625 29.738281 23.625 C 28.921875 23.628906 28.351562 23.039062 28.351562 22.078125 Z M 31.40625 21.285156 C 31.40625 20.617188 31.050781 20.164062 30.375 20.164062 C 29.472656 20.164062 28.851562 21.101562 28.851562 22.070312 C 28.851562 22.765625 29.1875 23.210938 29.828125 23.210938 C 30.800781 23.210938 31.40625 22.121094 31.40625 21.285156 Z M 31.40625 21.285156 "/>
<path style=" stroke:none;fill-rule:nonzero;fill:rgb(100%,100%,100%);fill-opacity:1;" d="M 33.777344 20.226562 L 33.0625 20.226562 L 33.171875 19.816406 L 34.320312 19.816406 L 34.070312 20.832031 C 34.570312 20.144531 34.988281 19.738281 35.335938 19.738281 C 35.628906 19.738281 35.789062 19.90625 35.789062 20.128906 C 35.789062 20.363281 35.605469 20.558594 35.371094 20.566406 C 35.183594 20.574219 35.019531 20.445312 34.976562 20.265625 C 34.398438 20.652344 33.984375 21.238281 33.8125 21.910156 L 33.402344 23.550781 L 32.933594 23.550781 Z M 33.777344 20.226562 "/>
<path style=" stroke:none;fill-rule:nonzero;fill:rgb(100%,100%,100%);fill-opacity:1;" d="M 36.082031 21.8125 C 36.074219 21.890625 36.074219 21.96875 36.074219 22.050781 C 36.074219 22.832031 36.699219 23.21875 37.339844 23.21875 C 37.773438 23.21875 38.199219 23.097656 38.570312 22.871094 L 38.460938 23.351562 C 38.089844 23.546875 37.675781 23.640625 37.257812 23.628906 C 36.394531 23.628906 35.609375 23.066406 35.609375 22.066406 C 35.609375 20.800781 36.601562 19.75 37.703125 19.75 C 38.550781 19.75 39.066406 20.28125 39.066406 21.078125 C 39.058594 21.332031 39.007812 21.582031 38.910156 21.816406 Z M 36.171875 21.417969 L 38.558594 21.417969 C 38.605469 21.28125 38.628906 21.136719 38.632812 20.992188 C 38.632812 20.570312 38.34375 20.164062 37.667969 20.164062 C 36.992188 20.164062 36.40625 20.695312 36.171875 21.417969 Z M 36.171875 21.417969 "/>
<path style=" stroke:none;fill-rule:nonzero;fill:rgb(100%,100%,100%);fill-opacity:1;" d="M 40.992188 22.078125 C 40.992188 20.804688 41.917969 19.742188 42.996094 19.742188 C 43.671875 19.742188 44.117188 20.117188 44.226562 20.714844 L 44.449219 19.769531 L 44.917969 19.769531 L 44.21875 22.621094 C 44.1875 22.738281 44.164062 22.859375 44.15625 22.976562 C 44.148438 23.054688 44.175781 23.128906 44.230469 23.1875 C 44.28125 23.242188 44.355469 23.273438 44.433594 23.273438 C 44.628906 23.273438 44.78125 23.09375 44.949219 22.683594 L 45.226562 22.773438 C 45.046875 23.296875 44.78125 23.609375 44.371094 23.609375 C 43.960938 23.609375 43.710938 23.359375 43.710938 23.015625 L 43.710938 22.859375 C 43.382812 23.292969 42.917969 23.625 42.375 23.625 C 41.5625 23.628906 40.992188 23.039062 40.992188 22.078125 Z M 44.046875 21.285156 C 44.046875 20.617188 43.691406 20.164062 43.015625 20.164062 C 42.113281 20.164062 41.488281 21.101562 41.488281 22.070312 C 41.488281 22.765625 41.828125 23.210938 42.46875 23.210938 C 43.4375 23.210938 44.046875 22.121094 44.046875 21.285156 Z M 44.046875 21.285156 "/>
</g>
</svg>
