<?xml version="1.0" encoding="UTF-8"?>
<svg xmlns="http://www.w3.org/2000/svg" xmlns:xlink="http://www.w3.org/1999/xlink" width="80px" height="80px" viewBox="0 0 80 80" version="1.1">
<g id="surface1">
<path style=" stroke:none;fill-rule:nonzero;fill:rgb(0%,0%,0%);fill-opacity:1;" d="M 78.683594 49.429688 L 73.410156 49.429688 C 72.683594 49.429688 72.09375 50.019531 72.09375 50.746094 L 58.914062 50.746094 C 58.566406 50.746094 58.230469 50.882812 57.984375 51.132812 L 50.558594 58.554688 L 24.425781 54.011719 C 23.171875 53.792969 21.890625 54.136719 20.914062 54.957031 C 19.941406 55.777344 19.382812 56.980469 19.382812 58.253906 C 19.382812 59.777344 20.199219 61.203125 21.515625 61.972656 L 50.265625 78.742188 C 50.9375 79.132812 51.683594 79.332031 52.433594 79.332031 C 53.09375 79.332031 53.753906 79.179688 54.363281 78.875 L 68.449219 71.832031 L 72.09375 71.832031 C 72.09375 72.558594 72.683594 73.148438 73.410156 73.148438 L 78.683594 73.148438 C 79.410156 73.148438 80 72.558594 80 71.832031 L 80 50.746094 C 80 50.019531 79.410156 49.429688 78.683594 49.429688 Z M 72.09375 69.195312 L 68.140625 69.195312 C 67.933594 69.195312 67.734375 69.242188 67.550781 69.332031 L 53.183594 76.519531 C 52.675781 76.769531 52.078125 76.75 51.59375 76.46875 L 22.847656 59.699219 C 22.335938 59.398438 22.015625 58.84375 22.015625 58.253906 C 22.015625 57.757812 22.234375 57.292969 22.613281 56.972656 C 22.992188 56.65625 23.484375 56.523438 23.976562 56.605469 L 48.28125 60.832031 L 47.214844 61.902344 C 46.261719 62.855469 45.738281 64.121094 45.738281 65.46875 C 45.738281 68.25 48 70.511719 50.78125 70.511719 C 52.128906 70.511719 53.394531 69.988281 54.347656 69.035156 L 61.164062 62.21875 L 59.300781 60.355469 L 52.484375 67.171875 C 52.035156 67.621094 51.417969 67.878906 50.78125 67.878906 C 49.453125 67.878906 48.371094 66.796875 48.371094 65.46875 C 48.371094 64.824219 48.625 64.21875 49.078125 63.761719 L 59.460938 53.382812 L 72.09375 53.382812 Z M 77.363281 70.511719 L 74.730469 70.511719 L 74.730469 52.0625 L 77.363281 52.0625 Z M 77.363281 70.511719 "/>
<path style=" stroke:none;fill-rule:nonzero;fill:rgb(0%,0%,0%);fill-opacity:1;" d="M 47.054688 20.4375 C 42.695312 20.4375 39.148438 23.984375 39.148438 28.34375 C 39.148438 32.703125 42.695312 36.25 47.054688 36.25 C 51.414062 36.25 54.960938 32.703125 54.960938 28.34375 C 54.960938 23.984375 51.414062 20.4375 47.054688 20.4375 Z M 47.054688 33.613281 C 44.148438 33.613281 41.785156 31.25 41.785156 28.34375 C 41.785156 25.4375 44.148438 23.070312 47.054688 23.070312 C 49.960938 23.070312 52.324219 25.4375 52.324219 28.34375 C 52.324219 31.25 49.960938 33.613281 47.054688 33.613281 Z M 47.054688 33.613281 "/>
<path style=" stroke:none;fill-rule:nonzero;fill:rgb(0%,0%,0%);fill-opacity:1;" d="M 72.09375 0.667969 L 22.015625 0.667969 C 21.289062 0.667969 20.699219 1.261719 20.699219 1.988281 L 20.699219 12.53125 L 10.15625 12.53125 C 9.804688 12.53125 9.472656 12.667969 9.226562 12.914062 L 0 22.140625 L 1.863281 24.003906 L 10.703125 15.164062 L 20.699219 15.164062 L 20.699219 23.070312 L 14.109375 23.070312 L 14.109375 25.707031 L 31.242188 25.707031 C 32.695312 25.707031 33.875 26.890625 33.875 28.34375 C 33.875 29.046875 33.601562 29.707031 33.101562 30.207031 C 32.605469 30.703125 31.941406 30.980469 31.242188 30.980469 L 22.015625 30.980469 C 21.839844 30.980469 21.667969 31.015625 21.507812 31.082031 C 21.347656 31.148438 21.203125 31.246094 21.082031 31.367188 L 17.132812 35.320312 L 18.996094 37.183594 L 20.699219 35.476562 L 20.699219 42.839844 L 0.933594 42.839844 L 0.933594 45.476562 L 72.09375 45.476562 C 72.820312 45.476562 73.410156 44.882812 73.410156 44.15625 L 73.410156 1.988281 C 73.410156 1.261719 72.820312 0.667969 72.09375 0.667969 Z M 23.335938 13.847656 L 27.121094 13.847656 C 26.644531 15.699219 25.183594 17.15625 23.335938 17.636719 Z M 23.335938 42.839844 L 23.335938 39.050781 C 25.183594 39.53125 26.644531 40.988281 27.121094 42.839844 Z M 70.773438 42.839844 L 66.988281 42.839844 C 67.464844 40.988281 68.925781 39.53125 70.773438 39.050781 Z M 70.773438 36.367188 C 67.472656 36.925781 64.863281 39.535156 64.304688 42.839844 L 29.804688 42.839844 C 29.246094 39.535156 26.636719 36.925781 23.335938 36.367188 L 23.335938 33.613281 L 31.242188 33.613281 C 32.644531 33.613281 33.96875 33.066406 34.964844 32.070312 C 35.964844 31.074219 36.511719 29.75 36.511719 28.34375 C 36.511719 25.4375 34.148438 23.070312 31.242188 23.070312 L 23.335938 23.070312 L 23.335938 20.316406 C 26.636719 19.761719 29.246094 17.152344 29.804688 13.847656 L 64.304688 13.847656 C 64.863281 17.152344 67.472656 19.757812 70.773438 20.316406 Z M 70.773438 17.636719 C 68.925781 17.15625 67.464844 15.699219 66.988281 13.847656 L 70.773438 13.847656 Z M 70.773438 11.210938 L 23.335938 11.210938 L 23.335938 8.578125 L 70.773438 8.578125 Z M 70.773438 5.941406 L 23.335938 5.941406 L 23.335938 3.304688 L 70.773438 3.304688 Z M 70.773438 5.941406 "/>
</g>
</svg>
