<?xml version="1.0" encoding="UTF-8"?>
<svg xmlns="http://www.w3.org/2000/svg" xmlns:xlink="http://www.w3.org/1999/xlink" width="80px" height="80px" viewBox="0 0 80 80" version="1.1">
<g id="surface1">
<path style=" stroke:none;fill-rule:nonzero;fill:rgb(0%,0%,0%);fill-opacity:1;" d="M 74.507812 71.371094 C 65.996094 71.371094 56.59375 71.371094 53.941406 71.371094 L 53.941406 66.390625 L 72.875 66.390625 C 71.285156 61.550781 69.878906 57.273438 69.875 57.261719 C 68.289062 57.261719 62.726562 57.261719 55.589844 57.261719 C 51.300781 61.351562 47.339844 65.113281 43.785156 69.984375 L 40 75.175781 L 36.214844 69.980469 C 32.628906 65.070312 28.578125 61.242188 24.410156 57.261719 C 16.167969 57.261719 10.132812 57.261719 10.125 57.261719 C 10.101562 57.335938 8.703125 61.585938 7.125 66.390625 L 26.058594 66.390625 L 26.058594 71.371094 C 22.402344 71.371094 13.175781 71.371094 5.492188 71.371094 C 3.988281 75.941406 2.691406 79.886719 2.65625 80 L 77.34375 80 C 77.308594 79.890625 76.011719 75.941406 74.507812 71.371094 Z M 74.507812 71.371094 "/>
<path style=" stroke:none;fill-rule:nonzero;fill:rgb(0%,0%,0%);fill-opacity:1;" d="M 40 67.21875 C 51.300781 51.730469 67.386719 45.753906 67.386719 27.386719 C 67.386719 11.691406 55.691406 0 40 0 C 24.3125 0 12.613281 11.691406 12.613281 27.386719 C 12.613281 45.753906 28.707031 51.734375 40 67.21875 Z M 40 20.945312 C 44.113281 20.945312 47.46875 24.300781 47.46875 28.414062 C 47.46875 32.527344 44.113281 35.882812 40 35.882812 C 35.886719 35.882812 32.53125 32.527344 32.53125 28.414062 C 32.53125 24.300781 35.886719 20.945312 40 20.945312 Z M 40 20.945312 "/>
</g>
</svg>
