<?xml version="1.0" encoding="UTF-8"?>
<svg xmlns="http://www.w3.org/2000/svg" xmlns:xlink="http://www.w3.org/1999/xlink" width="80px" height="80px" viewBox="0 0 80 80" version="1.1">
<g id="surface1">
<path style=" stroke:none;fill-rule:nonzero;fill:rgb(0%,0%,0%);fill-opacity:1;" d="M 75.898438 13.332031 L 4.101562 13.332031 C 1.847656 13.332031 0 15.179688 0 17.4375 L 0 62.5625 C 0 64.820312 1.847656 66.667969 4.101562 66.667969 L 75.898438 66.667969 C 78.152344 66.667969 80 64.820312 80 62.5625 L 80 17.4375 C 80 15.179688 78.152344 13.332031 75.898438 13.332031 Z M 74.359375 16.410156 L 42.359375 40.410156 C 41.785156 40.847656 40.902344 41.121094 40 41.117188 C 39.097656 41.121094 38.214844 40.847656 37.640625 40.410156 L 5.640625 16.410156 Z M 57.265625 41.992188 L 74.703125 63.53125 C 74.71875 63.554688 74.742188 63.570312 74.757812 63.589844 L 5.242188 63.589844 C 5.257812 63.570312 5.28125 63.554688 5.296875 63.53125 L 22.734375 41.992188 C 23.269531 41.332031 23.167969 40.363281 22.503906 39.828125 C 21.84375 39.296875 20.875 39.398438 20.34375 40.058594 L 3.078125 61.386719 L 3.078125 18.332031 L 35.792969 42.871094 C 37.023438 43.789062 38.519531 44.191406 40 44.195312 C 41.476562 44.191406 42.972656 43.789062 44.203125 42.871094 L 76.921875 18.332031 L 76.921875 61.386719 L 59.65625 40.058594 C 59.121094 39.398438 58.152344 39.296875 57.496094 39.828125 C 56.832031 40.363281 56.730469 41.332031 57.265625 41.992188 Z M 57.265625 41.992188 "/>
</g>
</svg>
