<?xml version="1.0" encoding="UTF-8"?>
<svg xmlns="http://www.w3.org/2000/svg" xmlns:xlink="http://www.w3.org/1999/xlink" width="80px" height="80px" viewBox="0 0 80 80" version="1.1">
<g id="surface1">
<path style=" stroke:none;fill-rule:nonzero;fill:rgb(0%,0%,0%);fill-opacity:1;" d="M 60.992188 45.054688 L 55.761719 43.890625 L 53.539062 40.554688 C 53.347656 40.265625 53.039062 40.066406 52.691406 40.015625 C 52.34375 39.960938 51.992188 40.054688 51.71875 40.273438 L 51.675781 40.308594 L 51.023438 37.691406 C 52.878906 35.507812 54.277344 32.835938 54.78125 29.859375 C 57.535156 29.144531 58.75 25.640625 58.75 23.75 C 58.75 22.125 58.113281 21.304688 57.5 20.886719 L 57.5 17.5 C 57.5 6.703125 50.796875 0 40 0 C 35.113281 0 33.132812 1.382812 29.46875 5.015625 C 22.5 5.390625 22.5 13.238281 22.5 17.5 L 22.5 20.886719 C 21.886719 21.304688 21.25 22.125 21.25 23.75 C 21.25 25.636719 22.460938 29.136719 25.210938 29.859375 C 25.710938 32.914062 27.128906 35.554688 28.976562 37.691406 L 28.320312 40.304688 L 28.28125 40.273438 C 28.007812 40.054688 27.652344 39.960938 27.308594 40.015625 C 26.960938 40.070312 26.65625 40.265625 26.460938 40.558594 L 24.238281 43.890625 L 18.957031 45.070312 C 12.949219 46.671875 8.75 52.132812 8.75 58.355469 L 8.75 78.75 C 8.75 79.441406 9.308594 80 10 80 C 10.691406 80 11.25 79.441406 11.25 78.75 L 11.25 58.355469 C 11.25 53.972656 13.800781 50.050781 17.617188 48.21875 L 16.382812 50.691406 C 16.171875 51.113281 16.214844 51.621094 16.5 52 L 19.058594 55.410156 L 16.460938 59.304688 C 16.089844 59.863281 16.226562 60.621094 16.769531 61.011719 L 38.75 76.890625 L 38.75 78.75 C 38.75 79.441406 39.308594 80 40 80 C 40.691406 80 41.25 79.441406 41.25 78.75 L 41.25 76.890625 L 63.234375 61.011719 C 63.777344 60.621094 63.914062 59.863281 63.539062 59.304688 L 60.941406 55.410156 L 63.5 52 C 63.785156 51.621094 63.828125 51.113281 63.617188 50.691406 L 62.386719 48.230469 C 66.214844 50.078125 68.75 53.984375 68.75 58.355469 L 68.75 78.75 C 68.75 79.441406 69.308594 80 70 80 C 70.691406 80 71.25 79.441406 71.25 78.75 L 71.25 58.355469 C 71.25 52.132812 67.050781 46.671875 60.992188 45.054688 Z M 40 52.851562 L 41.554688 54.09375 L 40.476562 56.25 L 39.523438 56.25 L 38.445312 54.09375 Z M 39.859375 58.75 L 40.140625 58.75 L 41.796875 72.859375 C 41.21875 73.515625 40.617188 74.109375 40 74.640625 C 39.378906 74.109375 38.78125 73.515625 38.203125 72.859375 Z M 36.449219 55.691406 L 37.464844 57.726562 L 36.019531 70.003906 C 32.058594 64.117188 29.273438 55.957031 27.707031 50.519531 L 32.765625 57.015625 C 32.96875 57.28125 33.269531 57.453125 33.605469 57.492188 C 33.652344 57.496094 33.703125 57.5 33.75 57.5 C 34.03125 57.5 34.308594 57.402344 34.53125 57.226562 Z M 42.535156 57.726562 L 43.550781 55.691406 L 45.46875 57.226562 C 45.691406 57.402344 45.96875 57.5 46.25 57.5 C 46.296875 57.5 46.347656 57.496094 46.394531 57.492188 C 46.730469 57.453125 47.03125 57.28125 47.234375 57.015625 L 52.292969 50.515625 C 50.730469 55.953125 47.941406 64.117188 43.980469 70.007812 Z M 53.460938 44.945312 L 46.042969 54.484375 L 42 51.25 L 52.21875 43.078125 Z M 50.289062 21.25 C 49.496094 20.871094 47.53125 20 46.25 20 C 43.203125 20 41.570312 20.757812 40.828125 21.25 L 39.171875 21.25 C 38.429688 20.757812 36.796875 20 33.75 20 C 32.46875 20 30.503906 20.871094 29.710938 21.25 L 29.335938 21.25 C 30.53125 19.863281 31.828125 17.910156 32.308594 15.59375 C 34.589844 16.328125 37.855469 16.554688 41.269531 16.792969 C 44.863281 17.046875 49.335938 17.355469 50.363281 18.382812 C 50.863281 18.882812 51.460938 20.09375 51.941406 21.25 Z M 48.457031 23.171875 L 48.136719 24.144531 C 47.964844 24.65625 47.484375 25 46.949219 25 L 43.402344 25 L 42.757812 23.066406 C 43.375 22.804688 44.46875 22.5 46.25 22.5 C 46.703125 22.5 47.628906 22.824219 48.457031 23.171875 Z M 37.246094 23.0625 L 36.597656 25 L 33.050781 25 C 32.511719 25 32.035156 24.65625 31.863281 24.144531 L 31.539062 23.171875 C 32.367188 22.824219 33.296875 22.5 33.75 22.5 C 35.535156 22.5 36.636719 22.808594 37.246094 23.0625 Z M 55 26.871094 L 55 23.222656 C 55.609375 22.917969 56 22.902344 56.089844 22.949219 C 56.113281 22.960938 56.25 23.167969 56.25 23.75 C 56.25 24.636719 55.78125 26.058594 55 26.871094 Z M 30 7.5 C 30.332031 7.5 30.648438 7.367188 30.882812 7.132812 C 34.640625 3.378906 35.929688 2.5 40 2.5 C 49.390625 2.5 55 8.109375 55 17.5 L 55 20.566406 C 54.8125 20.613281 54.625 20.660156 54.429688 20.734375 C 53.914062 19.421875 53.058594 17.542969 52.132812 16.617188 C 50.445312 14.925781 46.273438 14.636719 41.441406 14.300781 C 37.71875 14.039062 33.496094 13.746094 31.941406 12.710938 C 31.558594 12.453125 31.066406 12.429688 30.660156 12.648438 C 30.253906 12.863281 30 13.289062 30 13.75 C 30 17.066406 27.351562 19.855469 26.117188 20.976562 C 25.734375 20.785156 25.363281 20.660156 25 20.566406 L 25 17.5 C 25 12.230469 25.382812 7.5 30 7.5 Z M 23.910156 22.949219 C 23.996094 22.902344 24.390625 22.917969 25 23.222656 L 25 26.871094 C 24.21875 26.058594 23.75 24.632812 23.75 23.75 C 23.75 23.167969 23.886719 22.960938 23.910156 22.949219 Z M 27.5 23.75 L 29.097656 23.75 L 29.492188 24.9375 C 30.007812 26.46875 31.433594 27.5 33.050781 27.5 L 36.597656 27.5 C 37.675781 27.5 38.628906 26.8125 38.96875 25.792969 L 39.648438 23.75 L 40.347656 23.75 L 41.027344 25.789062 C 41.371094 26.8125 42.324219 27.5 43.402344 27.5 L 46.949219 27.5 C 48.566406 27.5 49.996094 26.46875 50.507812 24.933594 L 50.902344 23.75 L 52.5 23.75 L 52.5 27.5 C 52.5 34.667969 45.355469 41.25 40 41.25 C 35.722656 41.25 27.5 35.445312 27.5 27.5 Z M 31.039062 39.742188 C 34.046875 42.304688 37.550781 43.75 40 43.75 C 42.710938 43.75 46.09375 42.261719 48.964844 39.765625 L 49.53125 42.023438 L 40 49.648438 L 30.46875 42.023438 Z M 27.785156 43.078125 L 38 51.25 L 33.957031 54.484375 L 26.539062 44.945312 Z M 23.539062 53.195312 C 23.921875 52.621094 23.769531 51.84375 23.195312 51.460938 C 22.617188 51.074219 21.84375 51.234375 21.460938 51.804688 L 20.527344 53.203125 L 18.964844 51.117188 L 20.925781 47.1875 L 24.054688 46.492188 C 24.917969 50.160156 27.765625 61.113281 32.71875 69.449219 L 19.207031 59.691406 Z M 59.472656 53.203125 L 58.539062 51.808594 C 58.15625 51.234375 57.382812 51.078125 56.804688 51.460938 C 56.230469 51.84375 56.078125 52.621094 56.460938 53.195312 L 60.792969 59.695312 L 47.28125 69.449219 C 52.234375 61.117188 55.082031 50.164062 55.945312 46.492188 L 59.070312 47.1875 L 61.035156 51.117188 Z M 59.472656 53.203125 "/>
<path style=" stroke:none;fill-rule:nonzero;fill:rgb(0%,0%,0%);fill-opacity:1;" d="M 57.5 70 C 56.808594 70 56.25 70.558594 56.25 71.25 L 56.25 78.75 C 56.25 79.441406 56.808594 80 57.5 80 C 58.191406 80 58.75 79.441406 58.75 78.75 L 58.75 71.25 C 58.75 70.558594 58.191406 70 57.5 70 Z M 57.5 70 "/>
<path style=" stroke:none;fill-rule:nonzero;fill:rgb(0%,0%,0%);fill-opacity:1;" d="M 22.5 70 C 21.808594 70 21.25 70.558594 21.25 71.25 L 21.25 78.75 C 21.25 79.441406 21.808594 80 22.5 80 C 23.191406 80 23.75 79.441406 23.75 78.75 L 23.75 71.25 C 23.75 70.558594 23.191406 70 22.5 70 Z M 22.5 70 "/>
<path style=" stroke:none;fill-rule:nonzero;fill:rgb(0%,0%,0%);fill-opacity:1;" d="M 52.5 75 L 47.5 75 C 46.808594 75 46.25 75.558594 46.25 76.25 C 46.25 76.941406 46.808594 77.5 47.5 77.5 L 52.5 77.5 C 53.191406 77.5 53.75 76.941406 53.75 76.25 C 53.75 75.558594 53.191406 75 52.5 75 Z M 52.5 75 "/>
</g>
</svg>
