<svg id="svg4593" height="512" viewBox="0 0 16.933333 16.933334" width="512" xmlns="http://www.w3.org/2000/svg" xmlns:svg="http://www.w3.org/2000/svg"><clipPath id="clipPath5337"><path id="rect5339" d="m34.774 274.321h35.435v25.702h-35.435z"/></clipPath><clipPath id="clipPath4542"><path id="rect4544" d="m-535.214-48.848h501.574v185.586h-501.574z"/></clipPath><clipPath id="clipPath11017"><path id="rect11019" d="m36.669 153.503h29.654v28.999h-29.654z" transform="rotate(-90)" vector-effect="none"/></clipPath><clipPath id="clipPath11444"><path id="rect11446" d="m-143.933 265.779h28.84v29.104h-28.84z" transform="rotate(-90)" vector-effect="none"/></clipPath><clipPath id="clipPath11781"><rect id="rect11783" height="32.411" rx=".634" transform="rotate(-90)" width="32.941" x="-145.124" y="181.377"/></clipPath><clipPath id="clipPath11499"><path id="rect11501" d="m-551.399-9.261h16.064v16.347h-16.064z" vector-effect="none"/></clipPath><g id="layer1" transform="translate(0 -280.067)"><g id="g20571" transform="translate(-.419)"><g id="g21530" transform="translate(0 -.181)"><path id="path6867" d="m41.875 2.8730469-31.9003906 15.0820311h-2.9707032c-3.3067014 0-6.0019531 2.693291-6.0019531 6v31.75c0 3.306671 2.6952517 6.001953 6.0019531 6.001953h7.6679688c1.40329 0 1.417472-2 0-2h-7.6679688c-2.2332975 0-4.0019531-1.768706-4.0019531-4.001953v-31.75c0-2.233323 1.7686556-4 4.0019531-4 16.6587768.000076 33.3488658 0 49.9960938 0 2.2333 0 4.001953 1.766677 4.001953 4v31.75c0 2.233247-1.768653 4.001953-4.001953 4.001953h-37.265625c-1.467308 0-1.258476 2 0 2h37.265625c3.306701 0 6.001953-2.695282 6.001953-6.001953v-31.75c0-3.306709-2.695252-6-6.001953-6h-22.025391l15.107422-7.089844 1.976563 4.183594c.588166 1.31777 2.403126.581971 1.896484-.669922-1.363238-2.890431-2.722514-5.7596043-4.085937-8.6406248-1.355645-3.2826298-5.020858-4.1709625-7.994141-2.8652343zm6.185547 3.7128906 1.167969 2.4707031-18.958985 8.8984374h-15.615234l28.078125-13.2734374c2.30424-.9727649 4.523911.028791 5.328125 1.9042969zm-38.5468751 17.2519535c-1.6447026 0-2.9980469 1.353347-2.9980469 2.998047v4.929687c0 1.644699 1.3533443 2.998047 2.9980469 2.998047h4.9238281c1.644703 0 3.003906-1.353348 3.003906-2.998047v-4.929687c0-1.6447-1.359203-2.998047-3.003906-2.998047zm0 2.001953h4.9238281c.571298 0 1.003906.42478 1.003906.996094v4.929687c0 .571313-.432608.998047-1.003906.998047h-4.9238281c-.5712972 0-.9980469-.426734-.9980469-.998047v-4.929687c0-.571314.4267497-.996094.9980469-.996094zm-1.9980469 12.394531c-.5001231.0046-1 .375924-1 1.099609v1.314454c0 1.333644 2 1.333644 2 0v-1.314454c0-.742034-.4998769-1.104196-1-1.099609zm3.792969 0c-.500123.0046-1.001953.375924-1.001953 1.099609v1.314454c0 1.333644 2.001953 1.333644 2.001953 0v-1.314454c0-.742034-.499877-1.104196-1-1.099609zm3.791015 0c-.500123.0046-1 .375924-1 1.099609v1.314454c0 1.333644 2 1.333644 2 0v-1.314454c0-.742034-.499877-1.104196-1-1.099609zm3.791016 0c-.500123.0046-1 .375924-1 1.099609v1.314454c0 1.333644 2 1.333644 2 0v-1.314454c0-.742034-.499877-1.104196-1-1.099609zm7.357422 0c-.500123.0046-1 .375924-1 1.099609v1.314454c0 1.333644 2 1.333644 2 0v-1.314454c0-.742034-.499877-1.104196-1-1.099609zm3.791015 0c-.500123.0046-.999999.375924-1 1.099609v1.314454c0 1.333644 2 1.333644 2 0v-1.314454c0-.742034-.499876-1.104196-1-1.099609zm3.792969 0c-.500123.0046-1.001953.375924-1.001953 1.099609v1.314454c0 1.333644 2.001953 1.333644 2.001953 0v-1.314454c0-.742034-.499877-1.104196-1-1.099609zm3.791016 0c-.500124.0046-1 .375924-1 1.099609v1.314454c0 1.333644 2 1.333644 2 0v-1.314454c0-.742034-.499876-1.104196-1-1.099609zm7.355469 0c-.500124.0046-1 .375924-1 1.099609v1.314454c0 1.333644 2.001953 1.333644 2.001953 0v-1.314454c0-.742034-.50183-1.104196-1.001953-1.099609zm3.792968 0c-.500122.0046-1 .375924-1 1.099609v1.314454c0 1.333644 2 1.333644 2 0v-1.314454c0-.742034-.499877-1.104196-1-1.099609zm3.791016 0c-.500123.0046-1 .375924-1 1.099609v1.314454c0 1.333644 2 1.333644 2 0v-1.314454c0-.742034-.499877-1.104196-1-1.099609zm3.791016 0c-.500124.0046-1 .375924-1 1.099609v1.314454c0 1.333644 2.001953 1.333644 2.001953 0v-1.314454c0-.742034-.50183-1.104196-1.001953-1.099609zm-12.027344 6.109375c-3.05444 0-5.550781 2.498271-5.550781 5.552734 0 3.054426 2.496341 5.550782 5.550781 5.550782.966096 0 1.874816-.251368 2.667969-.689454.787804.431093 1.6821.689454 2.638671.689454 3.054441 0 5.552735-2.496356 5.552735-5.550782 0-3.054463-2.498294-5.552734-5.552735-5.552734-.956337 0-1.851048.258511-2.638671.689453-.792957-.437934-1.702213-.689453-2.667969-.689453zm0 2.001953c1.973563 0 3.550781 1.577225 3.550781 3.550781s-1.577218 3.550782-3.550781 3.550782c-1.97356 0-3.550781-1.577226-3.550781-3.550782s1.577221-3.550781 3.550781-3.550781zm5.30664 0c1.97356 0 3.550782 1.577225 3.550782 3.550781s-1.577222 3.550782-3.550782 3.550782c-.329121 0-.644768-.05048-.945312-.134766.741978-.944088 1.189453-2.128557 1.189453-3.416016 0-1.287496-.447475-2.47388-1.189453-3.417968.300737-.08391.615923-.132813.945312-.132813zm-40.9843745 1.240235c-1.2394193 0-1.143914 1.973818.1035156 1.992187h6.8730469c1.445751.122079 1.445751-2.11438 0-1.992187zm.1035156 4.371093c-1.3636038-.03061-1.3636038 2.030615 0 2h16.3730469c1.363604.03061 1.363604-2.030615 0-2z" fill="rgb(0,0,0)" transform="matrix(.265 0 0 .265 .419 280.248)" font-variant-ligatures="normal" font-variant-position="normal" font-variant-caps="normal" font-variant-numeric="normal" font-variant-alternates="normal" font-feature-settings="normal" text-indent="0" text-align="start" text-decoration-line="none" text-decoration-style="solid" text-decoration-color="rgb(0,0,0)" text-transform="none" text-orientation="mixed" white-space="normal" shape-padding="0" isolation="auto" mix-blend-mode="normal" solid-color="rgb(0,0,0)" solid-opacity="1" vector-effect="none"/></g></g></g></svg>