<?xml version="1.0" encoding="UTF-8"?>
<svg xmlns="http://www.w3.org/2000/svg" xmlns:xlink="http://www.w3.org/1999/xlink" width="80px" height="80px" viewBox="0 0 80 80" version="1.1">
<g id="surface1">
<path style=" stroke:none;fill-rule:nonzero;fill:rgb(0%,0%,0%);fill-opacity:1;" d="M 76.007812 19.789062 L 74.117188 11.199219 C 73.800781 9.761719 72.945312 8.535156 71.703125 7.746094 C 70.464844 6.953125 68.992188 6.691406 67.554688 7.007812 L 10.753906 19.503906 L 5.789062 19.503906 C 2.597656 19.503906 0 22.101562 0 25.292969 L 0 50.367188 C 0 51.230469 0.710938 51.929688 1.570312 51.929688 C 2.433594 51.929688 3.128906 51.230469 3.128906 50.367188 C 3.128906 50.324219 3.128906 50.28125 3.125 50.242188 L 3.125 25.292969 C 3.125 23.824219 4.320312 22.628906 5.789062 22.628906 L 74.210938 22.628906 C 75.679688 22.628906 76.875 23.824219 76.875 25.292969 L 76.875 62.855469 L 1.5625 62.855469 C 0.699219 62.855469 0 63.554688 0 64.417969 L 0 67.535156 C 0 68.613281 0.296875 69.625 0.8125 70.488281 C 0.824219 70.503906 0.832031 70.519531 0.839844 70.535156 C 0.84375 70.539062 0.84375 70.542969 0.847656 70.546875 C 1.867188 72.210938 3.699219 73.320312 5.789062 73.320312 L 74.210938 73.320312 C 76.191406 73.320312 77.945312 72.320312 78.988281 70.800781 C 78.996094 70.789062 79.003906 70.777344 79.007812 70.769531 C 79.011719 70.761719 79.015625 70.757812 79.019531 70.753906 C 79.636719 69.832031 80 68.726562 80 67.535156 L 80 25.292969 C 80 22.726562 78.320312 20.546875 76.007812 19.789062 Z M 68.226562 10.058594 C 69.511719 9.777344 70.78125 10.589844 71.0625 11.871094 L 72.742188 19.503906 L 25.296875 19.503906 Z M 76.875 67.535156 C 76.875 67.964844 76.769531 68.367188 76.589844 68.726562 C 76.152344 69.597656 75.25 70.195312 74.210938 70.195312 L 5.789062 70.195312 C 4.75 70.195312 3.847656 69.597656 3.410156 68.726562 C 3.230469 68.367188 3.125 67.964844 3.125 67.535156 L 3.125 65.980469 L 76.875 65.980469 Z M 76.875 67.535156 "/>
<path style=" stroke:none;fill-rule:nonzero;fill:rgb(0%,0%,0%);fill-opacity:1;" d="M 30.289062 47.199219 C 29.425781 47.199219 28.726562 47.898438 28.726562 48.761719 C 28.726562 49.625 29.425781 50.324219 30.289062 50.324219 L 39.132812 50.324219 C 39.996094 50.324219 40.695312 49.625 40.695312 48.761719 C 40.695312 47.898438 39.996094 47.199219 39.132812 47.199219 Z M 30.289062 47.199219 "/>
<path style=" stroke:none;fill-rule:nonzero;fill:rgb(0%,0%,0%);fill-opacity:1;" d="M 54.230469 50.324219 C 55.09375 50.324219 55.792969 49.625 55.792969 48.761719 C 55.792969 47.898438 55.09375 47.199219 54.230469 47.199219 L 45.382812 47.199219 C 44.519531 47.199219 43.820312 47.898438 43.820312 48.761719 C 43.820312 49.625 44.519531 50.324219 45.382812 50.324219 Z M 54.230469 50.324219 "/>
<path style=" stroke:none;fill-rule:nonzero;fill:rgb(0%,0%,0%);fill-opacity:1;" d="M 69.324219 47.199219 L 60.480469 47.199219 C 59.617188 47.199219 58.917969 47.898438 58.917969 48.761719 C 58.917969 49.625 59.617188 50.324219 60.480469 50.324219 L 69.324219 50.324219 C 70.1875 50.324219 70.886719 49.625 70.886719 48.761719 C 70.886719 47.898438 70.1875 47.199219 69.324219 47.199219 Z M 69.324219 47.199219 "/>
<path style=" stroke:none;fill-rule:nonzero;fill:rgb(0%,0%,0%);fill-opacity:1;" d="M 39.640625 55.800781 C 39.640625 56.664062 40.339844 57.363281 41.203125 57.363281 L 69.324219 57.363281 C 70.1875 57.363281 70.886719 56.664062 70.886719 55.800781 C 70.886719 54.9375 70.1875 54.238281 69.324219 54.238281 L 41.203125 54.238281 C 40.339844 54.238281 39.640625 54.9375 39.640625 55.800781 Z M 39.640625 55.800781 "/>
<path style=" stroke:none;fill-rule:nonzero;fill:rgb(0%,0%,0%);fill-opacity:1;" d="M 8.839844 43.121094 C 9.121094 43.605469 9.636719 43.902344 10.195312 43.902344 L 14.882812 43.902344 L 17.226562 47.960938 C 17.507812 48.445312 18.023438 48.742188 18.582031 48.742188 C 19.136719 48.742188 19.652344 48.445312 19.933594 47.960938 L 22.277344 43.902344 L 26.964844 43.902344 C 27.523438 43.902344 28.039062 43.605469 28.320312 43.121094 C 28.597656 42.636719 28.597656 42.042969 28.320312 41.558594 L 25.976562 37.5 L 28.320312 33.4375 C 28.597656 32.953125 28.597656 32.359375 28.320312 31.875 C 28.039062 31.390625 27.523438 31.09375 26.964844 31.09375 L 22.277344 31.09375 L 19.933594 27.035156 C 19.652344 26.550781 19.136719 26.253906 18.582031 26.253906 C 18.023438 26.253906 17.507812 26.550781 17.226562 27.035156 L 14.882812 31.09375 L 10.195312 31.09375 C 9.636719 31.09375 9.121094 31.390625 8.839844 31.875 C 8.5625 32.359375 8.5625 32.953125 8.839844 33.4375 L 11.183594 37.496094 L 8.839844 41.558594 C 8.5625 42.042969 8.5625 42.636719 8.839844 43.121094 Z M 14.34375 36.714844 L 12.898438 34.21875 L 15.785156 34.21875 C 16.34375 34.21875 16.859375 33.921875 17.136719 33.4375 L 18.578125 30.941406 L 20.023438 33.4375 C 20.300781 33.921875 20.816406 34.21875 21.375 34.21875 L 24.257812 34.21875 L 22.816406 36.714844 C 22.539062 37.199219 22.539062 37.796875 22.816406 38.277344 L 24.257812 40.777344 L 21.375 40.777344 C 20.816406 40.777344 20.300781 41.074219 20.023438 41.558594 L 18.578125 44.054688 L 17.136719 41.558594 C 16.859375 41.074219 16.34375 40.777344 15.785156 40.777344 L 12.898438 40.777344 L 14.34375 38.277344 C 14.621094 37.796875 14.621094 37.199219 14.34375 36.714844 Z M 14.34375 36.714844 "/>
<path style=" stroke:none;fill-rule:nonzero;fill:rgb(0%,0%,0%);fill-opacity:1;" d="M 71.160156 28.929688 C 71.160156 28.066406 70.460938 27.367188 69.597656 27.367188 L 41.59375 27.367188 C 40.730469 27.367188 40.03125 28.066406 40.03125 28.929688 L 40.03125 36.8125 C 40.03125 37.675781 40.730469 38.375 41.59375 38.375 L 69.597656 38.375 C 70.460938 38.375 71.160156 37.675781 71.160156 36.8125 Z M 68.035156 35.25 L 43.15625 35.25 L 43.15625 30.492188 L 68.035156 30.492188 Z M 68.035156 35.25 "/>
<path style=" stroke:none;fill-rule:nonzero;fill:rgb(0%,0%,0%);fill-opacity:1;" d="M 0.265625 58.621094 C 0.628906 59.179688 1.339844 59.4375 1.980469 59.257812 C 2.636719 59.078125 3.105469 58.476562 3.125 57.792969 C 3.160156 56.402344 1.398438 55.664062 0.433594 56.675781 C -0.0664062 57.199219 -0.136719 58.019531 0.265625 58.621094 Z M 0.265625 58.621094 "/>
</g>
</svg>
