<?xml version="1.0" encoding="UTF-8"?>
<svg xmlns="http://www.w3.org/2000/svg" xmlns:xlink="http://www.w3.org/1999/xlink" width="80px" height="80px" viewBox="0 0 80 80" version="1.1">
<g id="surface1">
<path style=" stroke:none;fill-rule:nonzero;fill:rgb(0%,0%,0%);fill-opacity:1;" d="M 50.046875 24.625 L 51.140625 19.234375 C 50.921875 19.1875 50.703125 19.078125 50.546875 18.90625 C 50.0625 19.453125 49.015625 20.375 48.09375 20.375 L 47.984375 20.375 C 47.71875 20.375 47.4375 20.265625 47.28125 20.109375 C 47.5 19.84375 47.5 19.453125 47.28125 19.234375 L 47.234375 19.1875 L 47.234375 19.234375 C 47.234375 19.34375 47.1875 19.5 47.078125 19.5625 L 46.96875 19.5625 C 46.859375 19.5625 46.75 19.515625 46.703125 19.40625 C 46.65625 19.296875 46.59375 19.1875 46.59375 19.078125 L 46.59375 18.859375 L 46.8125 18.90625 L 46.859375 18.90625 C 46.96875 18.90625 47.015625 18.796875 47.078125 18.6875 C 47.078125 18.53125 47.03125 18.421875 46.921875 18.359375 L 46.703125 18.3125 C 46.703125 18.265625 46.75 18.15625 46.8125 18.046875 C 46.921875 17.890625 47.03125 17.71875 47.25 17.71875 L 47.296875 17.71875 C 47.40625 17.71875 47.515625 17.765625 47.5625 17.875 C 47.609375 17.984375 47.671875 18.09375 47.671875 18.25 C 47.671875 18.296875 47.671875 18.359375 47.625 18.40625 C 47.625 18.453125 47.671875 18.453125 47.734375 18.453125 C 47.84375 18.453125 47.953125 18.40625 48.0625 18.34375 C 48.21875 18.234375 48.328125 18.078125 48.390625 17.90625 C 48.390625 17.859375 48.4375 17.796875 48.4375 17.75 C 48.546875 17.3125 48.390625 16.828125 48.109375 16.546875 C 47.953125 16.390625 47.78125 16.328125 47.5625 16.328125 C 47.34375 16.328125 47.1875 16.4375 47.015625 16.546875 C 46.75 16.765625 46.640625 17.09375 46.46875 17.421875 L 46.46875 17.46875 C 46.421875 17.625 46.359375 17.796875 46.3125 17.953125 C 46.3125 18.0625 46.265625 18.109375 46.265625 18.21875 L 46.15625 18.21875 C 46.15625 18.109375 46.203125 18.0625 46.203125 17.953125 C 46.25 17.796875 46.3125 17.625 46.359375 17.46875 C 46.515625 17.09375 46.6875 16.765625 46.84375 16.375 C 46.953125 16.15625 47.0625 15.890625 47.0625 15.609375 C 47.0625 15.390625 47.0625 15.125 46.953125 14.90625 C 46.84375 14.578125 46.40625 13.265625 46.40625 13.265625 C 46.40625 13.265625 45.640625 14.296875 45.484375 14.515625 C 45.375 14.671875 45.265625 14.890625 45.265625 15.109375 C 45.21875 15.375 45.265625 15.65625 45.3125 15.921875 C 45.359375 16.359375 45.46875 16.734375 45.53125 17.171875 L 45.53125 17.984375 L 45.421875 17.984375 L 45.421875 17.125 C 45.375 16.75 45.3125 16.359375 45.09375 16.09375 C 44.984375 15.875 44.828125 15.71875 44.609375 15.609375 C 44.5 15.5625 44.390625 15.5625 44.28125 15.5625 C 44.171875 15.5625 44.125 15.5625 44.015625 15.609375 C 43.6875 15.71875 43.421875 16.09375 43.421875 16.59375 L 43.421875 16.75 C 43.421875 16.96875 43.53125 17.1875 43.640625 17.296875 C 43.75 17.453125 43.96875 17.5625 44.078125 17.5625 L 44.125 17.5625 L 44.125 17.40625 C 44.125 17.296875 44.171875 17.1875 44.28125 17.078125 C 44.328125 17.03125 44.390625 17.03125 44.4375 17.03125 C 44.484375 17.03125 44.546875 17.03125 44.59375 17.078125 C 44.8125 17.1875 44.921875 17.40625 44.96875 17.625 C 45.015625 17.734375 45.015625 17.84375 45.015625 17.890625 L 44.796875 17.84375 L 44.75 17.84375 C 44.640625 17.84375 44.59375 17.953125 44.53125 18.0625 C 44.53125 18.21875 44.578125 18.328125 44.6875 18.390625 L 44.90625 18.4375 C 44.90625 18.484375 44.859375 18.546875 44.859375 18.65625 C 44.8125 18.765625 44.75 18.875 44.703125 18.921875 C 44.65625 18.96875 44.59375 18.96875 44.546875 18.96875 C 44.4375 18.96875 44.390625 18.921875 44.328125 18.859375 C 44.21875 18.75 44.21875 18.640625 44.28125 18.484375 L 44.28125 18.4375 L 44.21875 18.4375 C 43.953125 18.546875 43.84375 18.875 44.0625 19.25 C 43.84375 19.296875 43.625 19.296875 43.40625 19.296875 L 43.03125 19.296875 C 41.671875 19.140625 40.84375 17.875 40.578125 17.171875 C 40.53125 17.21875 40.421875 17.21875 40.359375 17.21875 L 40.140625 17.21875 C 39.984375 17.21875 39.8125 17.171875 39.703125 17.109375 C 39.4375 17.765625 38.671875 19.078125 37.25 19.234375 L 36.875 19.234375 C 36.609375 19.234375 36.390625 19.1875 36.21875 19.1875 C 36.4375 18.8125 36.328125 18.484375 36.0625 18.375 L 36.015625 18.375 L 36.015625 18.421875 C 36.015625 18.53125 36.015625 18.6875 35.96875 18.796875 C 35.921875 18.84375 35.8125 18.90625 35.75 18.90625 C 35.703125 18.90625 35.640625 18.90625 35.59375 18.859375 C 35.546875 18.8125 35.484375 18.703125 35.4375 18.59375 C 35.390625 18.484375 35.390625 18.4375 35.390625 18.375 L 35.546875 18.328125 C 35.65625 18.28125 35.765625 18.171875 35.703125 18 C 35.703125 17.890625 35.59375 17.78125 35.484375 17.78125 L 35.4375 17.78125 L 35.21875 17.828125 C 35.21875 17.78125 35.21875 17.671875 35.265625 17.5625 C 35.3125 17.34375 35.421875 17.125 35.640625 17.015625 C 35.6875 17.015625 35.75 16.96875 35.75 16.96875 C 35.796875 16.96875 35.859375 16.96875 35.90625 17.015625 C 36.015625 17.0625 36.0625 17.171875 36.0625 17.34375 L 36.0625 17.5 C 36.171875 17.5 36.4375 17.28125 36.5 17.234375 C 36.546875 17.125 36.65625 16.859375 36.71875 16.6875 L 36.71875 16.53125 C 36.71875 16.09375 36.5 15.65625 36.125 15.546875 C 36.015625 15.5 35.96875 15.5 35.859375 15.5 C 35.75 15.5 35.640625 15.5 35.53125 15.546875 C 35.3125 15.65625 35.203125 15.8125 35.046875 16.03125 C 34.890625 16.359375 34.78125 16.734375 34.71875 17.0625 L 34.71875 17.109375 C 34.71875 17.265625 34.671875 17.484375 34.671875 17.65625 L 34.671875 17.921875 L 34.5625 17.921875 C 34.5625 17.8125 34.5625 17.765625 34.515625 17.65625 L 34.515625 17.109375 C 34.5625 16.671875 34.671875 16.296875 34.734375 15.859375 C 34.78125 15.59375 34.78125 15.3125 34.78125 15.046875 C 34.734375 14.828125 34.671875 14.609375 34.5625 14.453125 C 34.40625 14.1875 33.640625 13.203125 33.640625 13.203125 C 33.640625 13.203125 33.15625 14.515625 33.09375 14.84375 C 33.046875 15.0625 32.984375 15.328125 32.984375 15.546875 C 33.03125 15.8125 33.09375 16.03125 33.203125 16.3125 C 33.359375 16.640625 33.578125 17.015625 33.6875 17.40625 C 33.734375 17.5625 33.796875 17.734375 33.84375 17.890625 C 33.84375 18 33.890625 18.046875 33.890625 18.15625 L 33.78125 18.15625 C 33.78125 18.109375 33.734375 18 33.734375 17.890625 C 33.6875 17.734375 33.625 17.5625 33.578125 17.40625 L 33.578125 17.359375 C 33.421875 17.03125 33.3125 16.703125 33.03125 16.484375 C 32.875 16.328125 32.703125 16.265625 32.484375 16.265625 C 32.265625 16.265625 32.109375 16.375 31.9375 16.484375 C 31.671875 16.75 31.5 17.25 31.609375 17.6875 C 31.609375 17.734375 31.65625 17.796875 31.65625 17.84375 C 31.703125 18 31.875 18.171875 31.984375 18.28125 C 32.09375 18.328125 32.203125 18.390625 32.3125 18.390625 C 32.359375 18.390625 32.421875 18.390625 32.421875 18.34375 C 32.421875 18.296875 32.375 18.234375 32.375 18.1875 C 32.375 18.03125 32.375 17.921875 32.484375 17.8125 C 32.53125 17.703125 32.640625 17.65625 32.75 17.65625 L 32.796875 17.65625 C 33.015625 17.65625 33.171875 17.8125 33.234375 17.984375 C 33.28125 18.09375 33.34375 18.203125 33.34375 18.25 L 33.125 18.296875 C 33.015625 18.34375 32.90625 18.453125 32.96875 18.625 C 32.96875 18.734375 33.078125 18.84375 33.1875 18.84375 L 33.234375 18.84375 L 33.453125 18.796875 L 33.453125 19.015625 C 33.453125 19.125 33.40625 19.28125 33.34375 19.34375 C 33.296875 19.453125 33.1875 19.5 33.078125 19.5 L 32.96875 19.5 C 32.859375 19.453125 32.859375 19.34375 32.8125 19.171875 L 32.8125 19.125 C 32.765625 19.125 32.765625 19.125 32.765625 19.171875 C 32.546875 19.390625 32.546875 19.765625 32.765625 20.046875 C 32.546875 20.15625 32.328125 20.265625 32.0625 20.265625 L 31.953125 20.265625 C 31.078125 20.265625 29.984375 19.34375 29.5 18.796875 C 29.34375 18.953125 29.125 19.125 28.90625 19.125 L 30 24.515625 C 33.21875 23.265625 36.546875 22.609375 40.03125 22.609375 C 43.515625 22.71875 46.890625 23.375 50.046875 24.625 "/>
<path style=" stroke:none;fill-rule:nonzero;fill:rgb(0%,0%,0%);fill-opacity:1;" d="M 40.03125 23.4375 C 36.59375 23.4375 33.328125 24.09375 30.171875 25.34375 C 30.125 25.34375 30.0625 25.390625 30.015625 25.390625 C 29.96875 25.390625 29.90625 25.4375 29.859375 25.4375 C 29.421875 25.703125 29.203125 26.25 29.421875 26.796875 C 29.578125 27.234375 30.015625 27.453125 30.40625 27.453125 C 30.5625 27.453125 30.671875 27.453125 30.84375 27.40625 C 33.78125 26.203125 36.890625 25.609375 40.046875 25.609375 C 43.265625 25.609375 46.375 26.203125 49.25 27.40625 C 49.359375 27.453125 49.515625 27.453125 49.6875 27.453125 C 50.125 27.453125 50.5 27.1875 50.71875 26.796875 C 50.9375 26.3125 50.71875 25.703125 50.28125 25.4375 C 50.234375 25.390625 50.171875 25.390625 50.125 25.390625 C 50.078125 25.390625 50.015625 25.34375 49.96875 25.34375 C 46.78125 24.03125 43.453125 23.4375 40.03125 23.4375 "/>
<path style=" stroke:none;fill-rule:nonzero;fill:rgb(0%,0%,0%);fill-opacity:1;" d="M 40.03125 26.96875 C 52.671875 26.96875 62.96875 37.21875 62.96875 49.90625 C 62.96875 62.546875 52.71875 72.84375 40.03125 72.84375 C 27.390625 72.84375 17.09375 62.59375 17.09375 49.90625 C 17.09375 48.21875 17.25 46.53125 17.640625 44.953125 C 17.640625 44.90625 17.6875 44.84375 17.6875 44.796875 L 17.6875 44.75 C 17.6875 44.703125 17.734375 44.59375 17.734375 44.53125 C 20.140625 34.4375 29.234375 26.96875 40.03125 26.96875 M 18.28125 40.765625 C 17.03125 43.65625 16.421875 46.765625 16.421875 49.96875 C 16.421875 53.125 17.015625 56.234375 18.28125 59.171875 C 19.484375 62 21.171875 64.515625 23.34375 66.6875 C 25.53125 68.875 28.03125 70.5625 30.859375 71.75 C 33.75 73 36.859375 73.609375 40.0625 73.609375 C 43.28125 73.609375 46.328125 73.015625 49.265625 71.75 C 52.09375 70.546875 54.609375 68.859375 56.78125 66.6875 C 58.96875 64.5 60.65625 62 61.84375 59.171875 C 63.09375 56.28125 63.703125 53.171875 63.703125 49.96875 C 63.703125 46.8125 63.109375 43.703125 61.84375 40.765625 C 60.640625 37.9375 58.953125 35.421875 56.78125 33.25 C 54.609375 31.0625 52.09375 29.375 49.265625 28.1875 C 46.375 26.9375 43.265625 26.328125 40.0625 26.328125 C 36.84375 26.328125 33.734375 26.921875 30.796875 28.1875 C 27.96875 29.390625 25.453125 31.078125 23.28125 33.25 C 21.171875 35.421875 19.421875 37.921875 18.28125 40.765625 "/>
<path style=" stroke:none;fill-rule:nonzero;fill:rgb(0%,0%,0%);fill-opacity:1;" d="M 38.875 77.171875 C 38.875 78.703125 40.078125 80 40.078125 80 C 40.078125 80 41.28125 78.75 41.28125 77.171875 C 41.28125 75.640625 40.078125 74.34375 40.078125 74.34375 C 40.078125 74.34375 38.875 75.578125 38.875 77.171875 "/>
<path style=" stroke:none;fill-rule:nonzero;fill:rgb(0%,0%,0%);fill-opacity:1;" d="M 36.09375 74.65625 C 34.734375 75.421875 34.1875 77.046875 34.1875 77.046875 C 34.1875 77.046875 35.875 77.484375 37.234375 76.71875 C 38.59375 75.953125 39.140625 74.328125 39.140625 74.328125 C 39.140625 74.328125 37.46875 73.890625 36.09375 74.65625 "/>
<path style=" stroke:none;fill-rule:nonzero;fill:rgb(0%,0%,0%);fill-opacity:1;" d="M 35.609375 73.953125 C 35.609375 73.953125 34.03125 73.296875 32.5625 73.84375 C 31.09375 74.390625 30.328125 75.921875 30.328125 75.921875 C 30.328125 75.921875 31.90625 76.578125 33.375 76.03125 C 34.796875 75.484375 35.609375 73.953125 35.609375 73.953125 "/>
<path style=" stroke:none;fill-rule:nonzero;fill:rgb(0%,0%,0%);fill-opacity:1;" d="M 32.171875 73.03125 C 32.171875 73.03125 30.703125 72.15625 29.171875 72.484375 C 27.640625 72.8125 26.671875 74.234375 26.671875 74.234375 C 26.671875 74.234375 28.140625 75.109375 29.671875 74.78125 C 31.140625 74.4375 32.171875 73.03125 32.171875 73.03125 "/>
<path style=" stroke:none;fill-rule:nonzero;fill:rgb(0%,0%,0%);fill-opacity:1;" d="M 28.90625 71.65625 C 28.90625 71.65625 27.59375 70.5625 26.015625 70.671875 C 24.484375 70.78125 23.296875 72.03125 23.296875 72.03125 C 23.296875 72.03125 24.609375 73.125 26.1875 73.015625 C 27.703125 72.921875 28.90625 71.65625 28.90625 71.65625 "/>
<path style=" stroke:none;fill-rule:nonzero;fill:rgb(0%,0%,0%);fill-opacity:1;" d="M 23.140625 68.390625 C 21.609375 68.28125 20.25 69.3125 20.25 69.3125 C 20.25 69.3125 21.390625 70.5625 22.96875 70.734375 C 24.5 70.84375 25.859375 69.8125 25.859375 69.8125 C 25.859375 69.8125 24.71875 68.5625 23.140625 68.390625 "/>
<path style=" stroke:none;fill-rule:nonzero;fill:rgb(0%,0%,0%);fill-opacity:1;" d="M 23.140625 67.515625 C 23.140625 67.515625 22.15625 66.09375 20.6875 65.71875 C 19.15625 65.390625 17.6875 66.203125 17.6875 66.203125 C 17.6875 66.203125 18.671875 67.625 20.140625 68 C 21.609375 68.390625 23.140625 67.515625 23.140625 67.515625 "/>
<path style=" stroke:none;fill-rule:nonzero;fill:rgb(0%,0%,0%);fill-opacity:1;" d="M 20.734375 64.90625 C 20.734375 64.90625 19.96875 63.375 18.546875 62.78125 C 17.125 62.234375 15.5 62.828125 15.5 62.828125 C 15.5 62.828125 16.265625 64.359375 17.6875 64.953125 C 19.15625 65.5625 20.734375 64.90625 20.734375 64.90625 "/>
<path style=" stroke:none;fill-rule:nonzero;fill:rgb(0%,0%,0%);fill-opacity:1;" d="M 18.78125 61.96875 C 18.78125 61.96875 18.296875 60.328125 16.921875 59.578125 C 15.5625 58.8125 13.921875 59.203125 13.921875 59.203125 C 13.921875 59.203125 14.40625 60.84375 15.78125 61.59375 C 17.078125 62.34375 18.78125 61.96875 18.78125 61.96875 "/>
<path style=" stroke:none;fill-rule:nonzero;fill:rgb(0%,0%,0%);fill-opacity:1;" d="M 14.296875 57.9375 C 15.5 58.921875 17.234375 58.75 17.234375 58.75 C 17.234375 58.75 16.96875 57.0625 15.765625 56.078125 C 14.5625 55.09375 12.828125 55.265625 12.828125 55.265625 C 12.828125 55.265625 13.109375 57 14.296875 57.9375 "/>
<path style=" stroke:none;fill-rule:nonzero;fill:rgb(0%,0%,0%);fill-opacity:1;" d="M 16.21875 55.375 C 16.21875 55.375 16.21875 53.625 15.125 52.546875 C 14.03125 51.40625 12.34375 51.296875 12.34375 51.296875 C 12.34375 51.296875 12.34375 53.046875 13.4375 54.125 C 14.53125 55.265625 16.21875 55.375 16.21875 55.375 "/>
<path style=" stroke:none;fill-rule:nonzero;fill:rgb(0%,0%,0%);fill-opacity:1;" d="M 15.671875 51.828125 C 15.671875 51.828125 15.890625 50.140625 15.015625 48.828125 C 14.140625 47.578125 12.453125 47.1875 12.453125 47.1875 C 12.453125 47.1875 12.234375 48.875 13.109375 50.1875 C 13.984375 51.5 15.671875 51.828125 15.671875 51.828125 "/>
<path style=" stroke:none;fill-rule:nonzero;fill:rgb(0%,0%,0%);fill-opacity:1;" d="M 15.671875 48.28125 C 15.671875 48.28125 16.15625 46.640625 15.453125 45.234375 C 14.75 43.875 13.109375 43.265625 13.109375 43.265625 C 13.109375 43.265625 12.625 44.90625 13.328125 46.3125 C 14.03125 47.6875 15.671875 48.28125 15.671875 48.28125 "/>
<path style=" stroke:none;fill-rule:nonzero;fill:rgb(0%,0%,0%);fill-opacity:1;" d="M 16.15625 44.796875 C 16.15625 44.796875 16.859375 43.21875 16.375 41.75 C 15.890625 40.28125 14.359375 39.46875 14.359375 39.46875 C 14.359375 39.46875 13.65625 41.046875 14.140625 42.515625 C 14.625 43.984375 16.15625 44.796875 16.15625 44.796875 "/>
<path style=" stroke:none;fill-rule:nonzero;fill:rgb(0%,0%,0%);fill-opacity:1;" d="M 17.140625 41.359375 C 17.140625 41.359375 18.0625 39.890625 17.796875 38.359375 C 17.53125 36.828125 16.15625 35.796875 16.15625 35.796875 C 16.15625 35.796875 15.234375 37.21875 15.5 38.796875 C 15.78125 40.328125 17.140625 41.359375 17.140625 41.359375 "/>
<path style=" stroke:none;fill-rule:nonzero;fill:rgb(0%,0%,0%);fill-opacity:1;" d="M 18.65625 38.140625 C 18.65625 38.140625 19.796875 36.828125 19.75 35.3125 C 19.703125 33.78125 18.5 32.53125 18.5 32.53125 C 18.5 32.53125 17.359375 33.84375 17.40625 35.359375 C 17.40625 36.953125 18.65625 38.140625 18.65625 38.140625 "/>
<path style=" stroke:none;fill-rule:nonzero;fill:rgb(0%,0%,0%);fill-opacity:1;" d="M 22.046875 32.53125 C 22.203125 31 21.171875 29.59375 21.171875 29.59375 C 21.171875 29.59375 19.859375 30.734375 19.703125 32.265625 C 19.546875 33.796875 20.515625 35.203125 20.515625 35.203125 C 20.515625 35.203125 21.875 34.0625 22.046875 32.53125 "/>
<path style=" stroke:none;fill-rule:nonzero;fill:rgb(0%,0%,0%);fill-opacity:1;" d="M 24.765625 30.078125 C 25.140625 28.546875 24.328125 27.078125 24.328125 27.078125 C 24.328125 27.078125 22.859375 28 22.46875 29.46875 C 22.09375 31 22.90625 32.46875 22.90625 32.46875 C 22.90625 32.46875 24.390625 31.609375 24.765625 30.078125 "/>
<path style=" stroke:none;fill-rule:nonzero;fill:rgb(0%,0%,0%);fill-opacity:1;" d="M 27.8125 28.125 C 28.40625 26.703125 27.8125 25.078125 27.8125 25.078125 C 27.8125 25.078125 26.234375 25.78125 25.625 27.203125 C 25.03125 28.625 25.578125 30.25 25.578125 30.25 C 25.578125 30.25 27.21875 29.53125 27.8125 28.125 "/>
<path style=" stroke:none;fill-rule:nonzero;fill:rgb(0%,0%,0%);fill-opacity:1;" d="M 43.953125 74.65625 C 42.59375 73.890625 40.90625 74.328125 40.90625 74.328125 C 40.90625 74.328125 41.453125 75.96875 42.8125 76.71875 C 44.171875 77.484375 45.859375 77.046875 45.859375 77.046875 C 45.859375 77.046875 45.3125 75.359375 43.953125 74.65625 "/>
<path style=" stroke:none;fill-rule:nonzero;fill:rgb(0%,0%,0%);fill-opacity:1;" d="M 47.5 73.78125 C 46.03125 73.234375 44.453125 73.890625 44.453125 73.890625 C 44.453125 73.890625 45.21875 75.421875 46.6875 75.96875 C 48.15625 76.515625 49.734375 75.859375 49.734375 75.859375 C 49.734375 75.859375 48.90625 74.328125 47.5 73.78125 "/>
<path style=" stroke:none;fill-rule:nonzero;fill:rgb(0%,0%,0%);fill-opacity:1;" d="M 50.875 72.484375 C 49.34375 72.15625 47.875 73.03125 47.875 73.03125 C 47.875 73.03125 48.859375 74.453125 50.375 74.78125 C 51.890625 75.109375 53.375 74.234375 53.375 74.234375 C 53.375 74.234375 52.390625 72.8125 50.875 72.484375 "/>
<path style=" stroke:none;fill-rule:nonzero;fill:rgb(0%,0%,0%);fill-opacity:1;" d="M 54.03125 70.6875 C 52.5 70.578125 51.140625 71.671875 51.140625 71.671875 C 51.140625 71.671875 52.34375 72.921875 53.859375 73.03125 C 55.390625 73.140625 56.75 72.046875 56.75 72.046875 C 56.75 72.046875 55.5625 70.734375 54.03125 70.6875 "/>
<path style=" stroke:none;fill-rule:nonzero;fill:rgb(0%,0%,0%);fill-opacity:1;" d="M 56.859375 68.390625 C 55.328125 68.5 54.140625 69.8125 54.140625 69.8125 C 54.140625 69.8125 55.5 70.84375 57.03125 70.734375 C 58.5625 70.625 59.75 69.3125 59.75 69.3125 C 59.75 69.3125 58.4375 68.28125 56.859375 68.390625 "/>
<path style=" stroke:none;fill-rule:nonzero;fill:rgb(0%,0%,0%);fill-opacity:1;" d="M 59.375 65.78125 C 57.84375 66.109375 56.921875 67.578125 56.921875 67.578125 C 56.921875 67.578125 58.390625 68.453125 59.921875 68.0625 C 61.453125 67.734375 62.375 66.265625 62.375 66.265625 C 62.375 66.265625 60.890625 65.390625 59.375 65.78125 "/>
<path style=" stroke:none;fill-rule:nonzero;fill:rgb(0%,0%,0%);fill-opacity:1;" d="M 61.4375 62.78125 C 59.96875 63.328125 59.25 64.90625 59.25 64.90625 C 59.25 64.90625 60.828125 65.5625 62.296875 64.953125 C 63.765625 64.40625 64.484375 62.828125 64.484375 62.828125 C 64.484375 62.828125 62.921875 62.234375 61.4375 62.78125 "/>
<path style=" stroke:none;fill-rule:nonzero;fill:rgb(0%,0%,0%);fill-opacity:1;" d="M 63.125 59.5625 C 61.765625 60.328125 61.265625 61.953125 61.265625 61.953125 C 61.265625 61.953125 62.953125 62.328125 64.265625 61.578125 C 65.625 60.8125 66.125 59.1875 66.125 59.1875 C 66.125 59.1875 64.4375 58.75 63.125 59.5625 "/>
<path style=" stroke:none;fill-rule:nonzero;fill:rgb(0%,0%,0%);fill-opacity:1;" d="M 64.28125 56.078125 C 63.078125 57.0625 62.8125 58.75 62.8125 58.75 C 62.8125 58.75 64.5 58.90625 65.75 57.9375 C 66.953125 56.953125 67.21875 55.265625 67.21875 55.265625 C 67.21875 55.265625 65.46875 55.15625 64.28125 56.078125 "/>
<path style=" stroke:none;fill-rule:nonzero;fill:rgb(0%,0%,0%);fill-opacity:1;" d="M 64.875 52.53125 C 63.78125 53.671875 63.78125 55.359375 63.78125 55.359375 C 63.78125 55.359375 65.46875 55.25 66.5625 54.109375 C 67.65625 52.96875 67.65625 51.28125 67.65625 51.28125 C 67.65625 51.28125 65.96875 51.390625 64.875 52.53125 "/>
<path style=" stroke:none;fill-rule:nonzero;fill:rgb(0%,0%,0%);fill-opacity:1;" d="M 64.984375 48.890625 C 64.109375 50.140625 64.328125 51.890625 64.328125 51.890625 C 64.328125 51.890625 66.015625 51.5625 66.890625 50.25 C 67.765625 49 67.546875 47.25 67.546875 47.25 C 67.546875 47.25 65.90625 47.625 64.984375 48.890625 "/>
<path style=" stroke:none;fill-rule:nonzero;fill:rgb(0%,0%,0%);fill-opacity:1;" d="M 64.609375 45.234375 C 63.90625 46.59375 64.390625 48.28125 64.390625 48.28125 C 64.390625 48.28125 66.03125 47.6875 66.734375 46.3125 C 67.4375 44.9375 66.953125 43.265625 66.953125 43.265625 C 66.953125 43.265625 65.3125 43.875 64.609375 45.234375 "/>
<path style=" stroke:none;fill-rule:nonzero;fill:rgb(0%,0%,0%);fill-opacity:1;" d="M 63.84375 44.796875 C 63.84375 44.796875 65.375 43.984375 65.859375 42.515625 C 66.34375 41.046875 65.640625 39.46875 65.640625 39.46875 C 65.640625 39.46875 64.109375 40.28125 63.625 41.75 C 63.140625 43.21875 63.84375 44.796875 63.84375 44.796875 "/>
<path style=" stroke:none;fill-rule:nonzero;fill:rgb(0%,0%,0%);fill-opacity:1;" d="M 62.859375 41.359375 C 62.859375 41.359375 64.21875 40.328125 64.5 38.796875 C 64.765625 37.265625 63.84375 35.796875 63.84375 35.796875 C 63.84375 35.796875 62.484375 36.828125 62.203125 38.359375 C 61.9375 39.953125 62.859375 41.359375 62.859375 41.359375 "/>
<path style=" stroke:none;fill-rule:nonzero;fill:rgb(0%,0%,0%);fill-opacity:1;" d="M 61.390625 38.140625 C 61.390625 38.140625 62.59375 36.9375 62.640625 35.359375 C 62.6875 33.828125 61.546875 32.53125 61.546875 32.53125 C 61.546875 32.53125 60.34375 33.734375 60.296875 35.3125 C 60.25 36.84375 61.390625 38.140625 61.390625 38.140625 "/>
<path style=" stroke:none;fill-rule:nonzero;fill:rgb(0%,0%,0%);fill-opacity:1;" d="M 59.421875 35.15625 C 59.421875 35.15625 60.453125 33.796875 60.234375 32.21875 C 60.078125 30.6875 58.765625 29.546875 58.765625 29.546875 C 58.765625 29.546875 57.734375 30.90625 57.890625 32.484375 C 58.125 34.0625 59.421875 35.15625 59.421875 35.15625 "/>
<path style=" stroke:none;fill-rule:nonzero;fill:rgb(0%,0%,0%);fill-opacity:1;" d="M 57.078125 32.53125 C 57.078125 32.53125 57.890625 31 57.515625 29.53125 C 57.140625 28 55.65625 27.140625 55.65625 27.140625 C 55.65625 27.140625 54.84375 28.671875 55.21875 30.140625 C 55.671875 31.609375 57.078125 32.53125 57.078125 32.53125 "/>
<path style=" stroke:none;fill-rule:nonzero;fill:rgb(0%,0%,0%);fill-opacity:1;" d="M 52.1875 25.0625 C 52.1875 25.0625 51.59375 26.703125 52.234375 28.109375 C 52.828125 29.53125 54.421875 30.234375 54.421875 30.234375 C 54.421875 30.234375 55.015625 28.59375 54.375 27.1875 C 53.765625 25.71875 52.1875 25.0625 52.1875 25.0625 "/>
<path style=" stroke:none;fill-rule:nonzero;fill:rgb(0%,0%,0%);fill-opacity:1;" d="M 49.1875 61.859375 C 49.1875 61.859375 49.234375 61.859375 49.1875 61.859375 M 49.078125 61.796875 C 49.125 61.796875 49.125 61.796875 49.078125 61.796875 L 49.125 61.796875 L 49.078125 61.796875 M 47.828125 61.421875 C 47.875 61.421875 47.875 61.421875 47.828125 61.421875 M 30.8125 61.859375 C 30.875 61.859375 30.875 61.859375 30.8125 61.859375 C 30.875 61.859375 30.8125 61.859375 30.8125 61.859375 M 50.703125 58.046875 C 50.4375 57.34375 50.15625 56.625 50.15625 56.625 C 50.15625 56.625 49.0625 57.328125 48.515625 57.65625 C 47.96875 57.984375 47.09375 58.53125 46.4375 59.296875 C 45.78125 60.0625 45.296875 61.203125 45.296875 61.203125 L 45.84375 61.203125 C 46.171875 61.203125 46.609375 61.203125 47.15625 61.3125 L 47.203125 61.3125 C 47.25 61.3125 47.359375 61.359375 47.421875 61.359375 L 47.515625 61.359375 C 47.515625 61.359375 47.359375 63.15625 45.765625 64.84375 C 45.4375 65.21875 44.734375 65.765625 44.296875 66.046875 C 44.03125 66.265625 43.75 66.375 43.421875 66.53125 L 43.09375 66.53125 C 41.84375 66.53125 40.8125 65.609375 40.8125 64.453125 L 40.8125 56.828125 C 40.484375 56.828125 40.15625 56.875 39.828125 56.875 C 39.5 56.875 39.171875 56.875 38.84375 56.828125 L 38.84375 64.453125 C 38.84375 65.59375 37.8125 66.53125 36.5625 66.53125 L 36.234375 66.53125 C 35.96875 66.375 35.640625 66.265625 35.359375 66.046875 C 35.03125 65.828125 34.546875 65.453125 34.21875 65.125 L 33.890625 64.796875 C 32.359375 63.046875 32.140625 61.3125 32.140625 61.3125 L 32.234375 61.3125 C 32.28125 61.3125 32.390625 61.265625 32.453125 61.265625 L 32.5 61.265625 C 33.046875 61.15625 33.484375 61.15625 33.8125 61.15625 L 34.359375 61.15625 C 34.359375 61.15625 33.875 60.015625 33.21875 59.25 C 32.5625 58.484375 31.6875 57.9375 31.140625 57.609375 C 30.59375 57.28125 29.5 56.578125 29.5 56.578125 C 29.5 56.578125 29.234375 57.28125 28.953125 58 C 28.6875 58.703125 28.25 59.359375 28.078125 60.671875 C 27.921875 61.984375 28.1875 63.015625 28.1875 63.015625 C 28.1875 63.015625 28.890625 62.53125 29.984375 62.03125 C 29.984375 62.03125 30.03125 62.03125 30.03125 61.984375 C 30.03125 61.984375 30.078125 61.984375 30.078125 61.9375 L 30.3125 61.9375 C 30.359375 62.203125 30.859375 64.828125 32.109375 66.34375 L 32.15625 66.390625 C 32.265625 66.5 32.375 66.65625 32.53125 66.765625 C 32.96875 67.140625 33.671875 67.75 34.546875 68.34375 C 35.53125 69.046875 36.734375 69.765625 37.59375 70.421875 C 38.84375 71.34375 39.5 72.0625 39.5 72.0625 C 39.5 72.0625 40.15625 71.359375 41.40625 70.421875 C 42.28125 69.765625 43.484375 69 44.515625 68.34375 C 45.390625 67.75 46.09375 67.140625 46.53125 66.765625 C 46.578125 66.71875 46.640625 66.65625 46.6875 66.65625 L 46.953125 66.390625 C 47 66.34375 47 66.28125 47.0625 66.234375 C 47.171875 66.125 47.21875 65.96875 47.328125 65.796875 C 47.375 65.6875 47.4375 65.640625 47.484375 65.53125 C 47.640625 65.265625 47.8125 64.9375 47.921875 64.609375 L 47.921875 64.53125 C 48.078125 64.15625 48.1875 63.765625 48.296875 63.4375 C 48.40625 63.109375 48.453125 62.84375 48.515625 62.5625 C 48.5625 62.234375 48.625 62.015625 48.625 61.96875 L 48.8125 61.96875 C 48.8125 61.96875 48.859375 61.96875 48.859375 62.015625 L 48.90625 62.015625 C 50 62.5 50.703125 63 50.703125 63 C 50.703125 63 51.03125 61.96875 50.8125 60.65625 C 51.421875 59.40625 50.984375 58.75 50.703125 58.046875 "/>
<path style=" stroke:none;fill-rule:nonzero;fill:rgb(0%,0%,0%);fill-opacity:1;" d="M 38.5625 32.921875 C 38.1875 32.546875 37.96875 32.046875 37.96875 31.5 C 37.96875 30.953125 38.1875 30.46875 38.5625 30.078125 C 38.9375 29.703125 39.4375 29.484375 39.984375 29.484375 C 40.53125 29.484375 41.015625 29.703125 41.40625 30.078125 C 41.78125 30.453125 42 30.953125 42 31.5 C 42 32.046875 41.78125 32.53125 41.40625 32.921875 C 41.296875 33.03125 41.140625 33.1875 40.96875 33.25 C 40.96875 32.703125 40.53125 32.265625 39.984375 32.265625 C 39.4375 32.265625 39 32.703125 39 33.25 L 39 33.296875 C 38.890625 33.1875 38.71875 33.078125 38.5625 32.921875 M 39.046875 38.03125 L 39.046875 42.34375 C 39.375 42.5 39.703125 42.671875 40.03125 42.828125 C 40.359375 42.671875 40.6875 42.5 41.015625 42.34375 L 41.015625 38.03125 L 43.734375 38.03125 L 50.984375 36.890625 L 50.984375 35.203125 L 41.015625 35.203125 L 41.015625 34.65625 C 42.375 34.21875 43.359375 32.96875 43.359375 31.4375 C 43.359375 29.578125 41.828125 28.109375 40.03125 28.109375 C 38.171875 28.109375 36.703125 29.578125 36.703125 31.4375 C 36.703125 32.96875 37.6875 34.21875 39.046875 34.65625 L 39.046875 35.203125 L 29.078125 35.203125 L 29.078125 36.890625 L 36.328125 38.03125 Z M 39.046875 38.03125 "/>
<path style=" stroke:none;fill-rule:nonzero;fill:rgb(0%,0%,0%);fill-opacity:1;" d="M 40.796875 43.21875 C 40.84375 43.265625 40.953125 43.265625 41.015625 43.328125 C 41.828125 43.765625 42.65625 44.140625 43.40625 44.578125 C 44.0625 44.25 44.828125 43.875 45.6875 43.59375 C 49.34375 41.578125 52.234375 40 52.4375 39.890625 C 53.140625 39.515625 54.125 38.859375 54.78125 38.3125 C 55.109375 38.046875 55.484375 37.65625 55.8125 37.328125 C 56.140625 37 56.40625 36.671875 56.40625 36.671875 L 56.78125 36.234375 L 56.234375 36.28125 C 56.234375 36.28125 55.796875 36.328125 55.359375 36.390625 C 54.921875 36.4375 54.328125 36.609375 54 36.71875 C 53.234375 36.984375 52.09375 37.421875 51.390625 37.8125 C 51.0625 37.96875 46.375 40.375 41.03125 43.09375 C 40.953125 43.15625 40.84375 43.21875 40.796875 43.21875 "/>
<path style=" stroke:none;fill-rule:nonzero;fill:rgb(0%,0%,0%);fill-opacity:1;" d="M 29.34375 55.640625 C 29.5 55.640625 29.71875 55.59375 29.890625 55.53125 C 30.15625 55.375 30.328125 55.15625 30.4375 54.875 C 30.546875 54.59375 30.484375 54.28125 30.390625 54 C 30.171875 53.625 29.84375 53.40625 29.40625 53.40625 C 29.296875 53.40625 29.1875 53.40625 29.140625 53.453125 L 28.921875 53.015625 L 28.875 52.90625 C 29.46875 52.578125 31.21875 51.59375 33.453125 50.40625 C 32.6875 50.296875 31.984375 50.1875 31.265625 49.921875 C 30.5625 49.703125 29.953125 49.4375 29.40625 49.109375 L 27.609375 50.03125 C 27.5 50.078125 27.453125 50.140625 27.390625 50.140625 L 27.125 49.65625 C 27.28125 49.546875 27.390625 49.328125 27.453125 49.171875 C 27.5625 48.90625 27.5 48.578125 27.34375 48.296875 C 27.125 47.921875 26.75 47.703125 26.359375 47.703125 C 26.203125 47.703125 25.984375 47.75 25.8125 47.8125 C 25.546875 47.96875 25.375 48.1875 25.265625 48.46875 C 25.15625 48.734375 25.21875 49.0625 25.3125 49.34375 L 26.1875 50.921875 L 26.078125 50.921875 C 25.96875 50.921875 25.859375 50.96875 25.75 51.03125 C 25.640625 51.078125 25.59375 51.140625 25.484375 51.25 C 25.484375 51.25 25.4375 51.296875 25.4375 51.359375 L 25.3125 51.359375 C 25.203125 51.359375 25.09375 51.40625 25.046875 51.46875 C 24.9375 51.515625 24.890625 51.578125 24.78125 51.6875 C 24.78125 51.734375 24.734375 51.734375 24.734375 51.796875 L 24.625 51.796875 C 24.515625 51.796875 24.40625 51.84375 24.296875 51.90625 C 24.1875 51.953125 24.140625 52.015625 24.03125 52.125 C 24.03125 52.171875 23.984375 52.171875 23.984375 52.234375 L 23.875 52.234375 C 23.765625 52.234375 23.65625 52.28125 23.609375 52.34375 C 23.5 52.390625 23.390625 52.453125 23.34375 52.5625 L 23.296875 52.609375 L 23.140625 52.609375 C 23.03125 52.609375 22.921875 52.65625 22.875 52.71875 C 22.765625 52.765625 22.71875 52.828125 22.609375 52.9375 C 22.609375 52.984375 22.5625 52.984375 22.5625 52.984375 L 22.40625 52.984375 C 22.296875 52.984375 22.1875 53.03125 22.140625 53.09375 C 22.03125 53.140625 21.984375 53.203125 21.875 53.3125 C 21.875 53.359375 21.828125 53.359375 21.828125 53.359375 L 21.671875 53.359375 C 21.5625 53.359375 21.453125 53.40625 21.40625 53.46875 C 21.296875 53.515625 21.25 53.578125 21.140625 53.6875 L 21.09375 53.734375 L 20.9375 53.734375 C 20.828125 53.78125 20.71875 53.78125 20.671875 53.84375 C 20.625 53.90625 20.515625 53.953125 20.453125 54 L 20.296875 54 C 19.921875 54 19.53125 54.21875 19.265625 54.484375 C 19 54.75 18.890625 55.140625 18.890625 55.578125 C 18.9375 56.390625 19.59375 57 20.359375 57 L 20.46875 57 C 20.953125 57 21.390625 56.734375 21.671875 56.296875 C 21.78125 56.25 21.828125 56.1875 21.890625 56.078125 L 22.046875 56.078125 C 22.09375 56.078125 22.203125 56.03125 22.265625 56.03125 C 22.328125 56.03125 22.375 55.984375 22.421875 55.984375 C 22.53125 55.9375 22.578125 55.875 22.640625 55.765625 L 22.796875 55.765625 C 22.84375 55.765625 22.953125 55.71875 23.015625 55.71875 C 23.078125 55.71875 23.125 55.671875 23.171875 55.609375 C 23.28125 55.5625 23.328125 55.5 23.390625 55.390625 L 23.546875 55.390625 C 23.59375 55.390625 23.703125 55.34375 23.765625 55.34375 C 23.828125 55.34375 23.875 55.296875 23.921875 55.234375 C 24.03125 55.1875 24.078125 55.125 24.140625 55.015625 L 24.296875 55.015625 C 24.34375 55.015625 24.453125 54.96875 24.515625 54.96875 C 24.578125 54.96875 24.625 54.921875 24.671875 54.921875 C 24.78125 54.875 24.828125 54.8125 24.890625 54.703125 L 25.046875 54.703125 C 25.09375 54.703125 25.203125 54.65625 25.265625 54.65625 C 25.328125 54.65625 25.375 54.609375 25.421875 54.546875 C 25.53125 54.5 25.578125 54.4375 25.640625 54.328125 L 25.796875 54.328125 C 25.84375 54.328125 25.953125 54.28125 26.015625 54.28125 C 26.078125 54.28125 26.125 54.234375 26.171875 54.234375 C 26.28125 54.1875 26.328125 54.078125 26.390625 54.015625 L 26.546875 54.015625 C 26.59375 54.015625 26.703125 53.96875 26.765625 53.96875 C 26.8125 53.96875 26.875 53.921875 26.921875 53.921875 C 27.03125 53.875 27.078125 53.8125 27.140625 53.703125 L 27.296875 53.703125 C 27.34375 53.703125 27.453125 53.65625 27.515625 53.65625 C 27.5625 53.65625 27.5625 53.65625 27.5625 53.609375 L 27.9375 54.3125 L 28.375 55.125 C 28.53125 55.421875 28.90625 55.640625 29.34375 55.640625 "/>
<path style=" stroke:none;fill-rule:nonzero;fill:rgb(0%,0%,0%);fill-opacity:1;" d="M 24.171875 37.328125 C 24.5 37.65625 24.9375 38.03125 25.203125 38.3125 C 25.859375 38.796875 26.84375 39.515625 27.546875 39.890625 C 27.765625 40 30.109375 41.3125 33.265625 43.046875 C 34.796875 43.3125 36.15625 43.75 37.25 44.296875 C 37.359375 44.34375 37.515625 44.40625 37.625 44.515625 C 37.734375 44.5625 37.84375 44.625 38 44.734375 C 38.375 44.953125 38.703125 45.171875 38.984375 45.390625 C 39.25 45.609375 39.46875 45.828125 39.640625 46.046875 C 39.796875 46 40.015625 46 40.1875 46 C 40.453125 46 40.734375 46.046875 40.890625 46.109375 C 41.21875 45.890625 41.8125 45.515625 42.578125 45.125 C 42.03125 44.859375 41.484375 44.53125 40.890625 44.25 C 40.5625 44.09375 40.234375 43.921875 39.90625 43.765625 C 39.796875 43.71875 39.640625 43.65625 39.53125 43.546875 C 39.421875 43.5 39.265625 43.4375 39.15625 43.328125 C 39.109375 43.28125 39 43.21875 38.9375 43.21875 C 33.65625 40.5 28.90625 38.09375 28.578125 37.875 C 27.875 37.5 26.78125 37.0625 25.96875 36.78125 C 25.59375 36.671875 25.046875 36.515625 24.609375 36.453125 C 24.125 36.40625 23.734375 36.34375 23.734375 36.34375 L 23.1875 36.296875 L 23.515625 36.734375 C 23.625 36.671875 23.84375 37 24.171875 37.328125 "/>
<path style=" stroke:none;fill-rule:nonzero;fill:rgb(0%,0%,0%);fill-opacity:1;" d="M 59.921875 54.28125 L 59.765625 54.28125 C 59.71875 54.234375 59.609375 54.171875 59.546875 54.125 C 59.5 54.078125 59.390625 54.015625 59.28125 54.015625 L 59.125 54.015625 C 59.125 53.96875 59.078125 53.96875 59.078125 53.96875 C 59.03125 53.859375 58.921875 53.8125 58.8125 53.75 C 58.703125 53.703125 58.59375 53.640625 58.546875 53.640625 L 58.390625 53.640625 L 58.34375 53.59375 C 58.296875 53.484375 58.1875 53.4375 58.078125 53.375 C 57.96875 53.328125 57.859375 53.265625 57.8125 53.265625 L 57.65625 53.265625 C 57.65625 53.21875 57.609375 53.21875 57.609375 53.21875 C 57.5625 53.109375 57.453125 53.0625 57.34375 53 C 57.234375 52.953125 57.125 52.890625 57.015625 52.890625 L 56.90625 52.890625 C 56.90625 52.84375 56.859375 52.84375 56.859375 52.84375 C 56.8125 52.734375 56.703125 52.6875 56.59375 52.625 C 56.484375 52.578125 56.375 52.515625 56.265625 52.515625 L 56.15625 52.515625 L 56.109375 52.46875 C 56.0625 52.359375 55.953125 52.3125 55.84375 52.25 C 55.734375 52.203125 55.625 52.140625 55.515625 52.140625 L 55.40625 52.140625 C 55.40625 52.09375 55.359375 52.09375 55.359375 52.03125 C 55.3125 51.921875 55.203125 51.875 55.09375 51.8125 C 54.984375 51.765625 54.875 51.703125 54.828125 51.703125 L 54.71875 51.703125 C 54.71875 51.65625 54.671875 51.65625 54.671875 51.59375 C 54.625 51.484375 54.515625 51.4375 54.40625 51.375 C 54.296875 51.328125 54.1875 51.265625 54.078125 51.265625 L 53.96875 51.265625 L 54.84375 49.6875 C 55 49.421875 55 49.140625 54.890625 48.8125 C 54.78125 48.546875 54.625 48.328125 54.34375 48.15625 C 54.1875 48.046875 54.015625 48.046875 53.796875 48.046875 C 53.359375 48.046875 52.984375 48.265625 52.8125 48.640625 C 52.65625 48.90625 52.65625 49.1875 52.765625 49.515625 C 52.8125 49.734375 52.921875 49.890625 53.09375 50 L 52.828125 50.484375 C 52.78125 50.4375 52.671875 50.4375 52.609375 50.375 L 50.21875 49.125 C 49.671875 49.5 49.078125 49.828125 48.09375 50.109375 C 48.09375 50.15625 48.140625 50.265625 48.140625 50.328125 C 48.140625 50.59375 48.09375 50.921875 47.8125 51.25 C 49.5625 52.234375 50.921875 52.9375 51.40625 53.21875 L 51.296875 53.375 L 51.078125 53.703125 C 50.96875 53.703125 50.921875 53.65625 50.8125 53.65625 C 50.375 53.65625 50 53.875 49.828125 54.25 C 49.671875 54.515625 49.671875 54.796875 49.71875 55.125 C 49.828125 55.390625 49.984375 55.609375 50.265625 55.78125 C 50.421875 55.890625 50.59375 55.890625 50.8125 55.890625 C 51.25 55.890625 51.625 55.671875 51.796875 55.296875 L 52.171875 54.53125 L 52.546875 53.828125 L 52.59375 53.875 C 52.703125 53.921875 52.75 53.921875 52.8125 53.921875 L 52.96875 53.921875 C 53.015625 54.03125 53.125 54.078125 53.1875 54.140625 C 53.234375 54.1875 53.296875 54.1875 53.34375 54.1875 C 53.453125 54.234375 53.5 54.234375 53.5625 54.234375 L 53.71875 54.234375 C 53.765625 54.34375 53.875 54.390625 53.9375 54.453125 C 53.984375 54.453125 54.046875 54.5 54.09375 54.5 C 54.140625 54.546875 54.25 54.546875 54.3125 54.546875 L 54.46875 54.546875 C 54.515625 54.65625 54.625 54.703125 54.6875 54.765625 C 54.734375 54.8125 54.796875 54.8125 54.84375 54.8125 C 54.890625 54.859375 55 54.859375 55.0625 54.859375 L 55.21875 54.859375 C 55.265625 54.96875 55.375 55.015625 55.4375 55.078125 C 55.484375 55.125 55.546875 55.125 55.59375 55.125 C 55.640625 55.171875 55.75 55.171875 55.8125 55.171875 L 55.96875 55.171875 C 56.015625 55.28125 56.078125 55.328125 56.1875 55.390625 C 56.234375 55.4375 56.296875 55.4375 56.34375 55.5 C 56.390625 55.5625 56.5 55.546875 56.5625 55.546875 L 56.71875 55.546875 C 56.765625 55.65625 56.828125 55.703125 56.9375 55.765625 C 56.984375 55.8125 57.046875 55.8125 57.09375 55.875 C 57.140625 55.9375 57.25 55.921875 57.3125 55.921875 L 57.46875 55.921875 C 57.515625 56.03125 57.578125 56.078125 57.6875 56.140625 C 57.734375 56.1875 57.796875 56.1875 57.84375 56.1875 C 57.890625 56.234375 58 56.234375 58.0625 56.234375 L 58.21875 56.234375 C 58.265625 56.34375 58.375 56.390625 58.4375 56.453125 C 58.703125 56.828125 59.140625 57.109375 59.640625 57.15625 L 59.6875 57.15625 C 60.453125 57.15625 61.109375 56.5625 61.15625 55.734375 C 61.15625 55.359375 61.046875 54.96875 60.78125 54.640625 C 60.6875 54.4375 60.296875 54.28125 59.921875 54.28125 "/>
<path style=" stroke:none;fill-rule:nonzero;fill:rgb(0%,0%,0%);fill-opacity:1;" d="M 29.34375 48.34375 C 29.453125 48.390625 29.5625 48.453125 29.71875 48.5625 C 29.828125 48.609375 29.984375 48.671875 30.09375 48.78125 C 30.46875 49 30.90625 49.15625 31.40625 49.328125 C 32.5 49.703125 33.59375 49.8125 34.453125 49.8125 L 35.15625 49.8125 C 35.484375 49.8125 35.75 49.765625 35.96875 49.765625 C 36.234375 49.71875 36.40625 49.71875 36.40625 49.71875 L 36.734375 51.25 L 34.453125 54.359375 C 34.453125 54.359375 35.375 56 39.03125 56.265625 C 39.359375 56.265625 39.6875 56.3125 40.015625 56.3125 C 40.34375 56.3125 40.71875 56.3125 41 56.265625 C 44.65625 56 45.40625 54.359375 45.40625 54.359375 L 42.515625 51.796875 L 43.0625 50.4375 C 42.953125 50.4375 42.84375 50.390625 42.734375 50.390625 C 42.40625 50.390625 42.140625 50.4375 41.96875 50.5 L 41.71875 50.5 L 41.5 50.453125 C 41.546875 50.453125 41.609375 50.40625 41.71875 50.34375 C 41.828125 50.296875 41.9375 50.234375 42.09375 50.125 C 42.421875 49.96875 42.859375 49.796875 43.125 49.859375 C 43.171875 49.859375 43.234375 49.90625 43.34375 49.90625 C 43.5 49.953125 43.671875 50.015625 43.828125 50.0625 C 44.046875 50.109375 44.203125 50.21875 44.53125 50.28125 L 44.640625 50.28125 C 44.859375 50.328125 45.015625 50.328125 45.078125 50.328125 C 45.234375 50.328125 45.296875 50.28125 45.734375 50.28125 L 45.953125 50.28125 C 46.875 50.328125 46.828125 50.765625 46.828125 50.765625 C 46.875 50.71875 46.984375 50.65625 47.046875 50.609375 C 47.3125 50.34375 47.375 50.125 47.3125 49.90625 C 47.265625 49.796875 47.203125 49.6875 47.09375 49.578125 C 46.984375 49.46875 46.875 49.359375 46.765625 49.3125 C 46.65625 49.203125 46.546875 49.203125 46.546875 49.203125 C 46.765625 48.609375 44.96875 48.328125 44.203125 48.109375 C 43.71875 48 42.625 47.515625 41.8125 47.125 C 41.546875 47.015625 41.328125 46.90625 41.15625 46.796875 L 41.109375 46.796875 C 41 46.75 40.953125 46.75 40.953125 46.6875 C 40.90625 46.6875 40.84375 46.640625 40.796875 46.640625 C 40.640625 46.59375 40.46875 46.53125 40.25 46.53125 C 40.09375 46.53125 39.984375 46.53125 39.8125 46.578125 C 39.59375 46.625 39.375 46.6875 39.375 46.6875 C 39.375 46.6875 39.265625 46.46875 39 46.203125 C 38.953125 46.15625 38.890625 46.09375 38.84375 46.046875 C 38.515625 45.71875 38.03125 45.390625 37.265625 45.015625 C 37.15625 44.96875 37 44.90625 36.890625 44.859375 C 36.78125 44.8125 36.625 44.75 36.515625 44.703125 C 36.296875 44.59375 36.03125 44.484375 35.75 44.4375 C 35.3125 44.28125 34.765625 44.109375 34.21875 44 C 33.84375 43.890625 33.453125 43.84375 33.015625 43.734375 C 32.140625 43.578125 31.109375 43.40625 29.96875 43.359375 C 28.9375 43.3125 27.953125 43.25 27.03125 43.25 C 21.03125 43.25 18.046875 44.78125 18.046875 44.78125 C 18.046875 44.78125 20.984375 45.21875 24.15625 46.03125 C 26.671875 46.546875 27.921875 47.515625 29.34375 48.34375 "/>
<path style=" stroke:none;fill-rule:nonzero;fill:rgb(0%,0%,0%);fill-opacity:1;" d="M 50.59375 43.15625 C 48.953125 43.265625 47.375 43.703125 45.96875 44.25 C 45.3125 44.46875 44.71875 44.734375 44.171875 45.015625 C 44.0625 45.0625 43.90625 45.125 43.796875 45.171875 C 43.6875 45.21875 43.53125 45.28125 43.421875 45.390625 C 42.4375 45.9375 41.671875 46.375 41.34375 46.59375 L 41.5 46.640625 L 41.546875 46.640625 C 41.8125 46.75 43.734375 47.34375 44.4375 47.515625 C 44.546875 47.515625 44.65625 47.5625 44.765625 47.5625 C 45.90625 47.78125 46.84375 48.046875 47.15625 48.59375 C 47.203125 48.640625 47.203125 48.703125 47.203125 48.8125 C 47.3125 48.921875 47.46875 49.03125 47.578125 49.140625 C 48.34375 48.984375 48.9375 48.703125 49.375 48.4375 C 49.484375 48.390625 49.59375 48.28125 49.703125 48.21875 C 49.8125 48.171875 49.921875 48.0625 50.03125 48 C 50.6875 47.515625 51.28125 46.90625 52.484375 46.46875 C 56.03125 45.046875 61.90625 44.34375 61.90625 44.34375 C 61.90625 44.34375 56.625 43.140625 51.984375 43.140625 C 51.53125 43.109375 51.09375 43.109375 50.59375 43.15625 "/>
<path style=" stroke:none;fill-rule:nonzero;fill:rgb(0%,0%,0%);fill-opacity:1;" d="M 41.171875 2.1875 C 41.171875 2.40625 41.125 2.5625 41.015625 2.734375 C 41.453125 2.953125 41.890625 3.21875 42.21875 3.5 L 42.21875 0.8125 C 41.890625 1.078125 41.453125 1.40625 41.015625 1.578125 C 41.109375 1.796875 41.171875 1.96875 41.171875 2.1875 "/>
<path style=" stroke:none;fill-rule:nonzero;fill:rgb(0%,0%,0%);fill-opacity:1;" d="M 40.03125 1.09375 C 40.25 1.09375 40.40625 1.140625 40.578125 1.25 C 40.796875 0.765625 41.125 0.328125 41.390625 0 L 38.71875 0 C 38.984375 0.328125 39.3125 0.765625 39.484375 1.203125 C 39.640625 1.140625 39.859375 1.09375 40.03125 1.09375 "/>
<path style=" stroke:none;fill-rule:nonzero;fill:rgb(0%,0%,0%);fill-opacity:1;" d="M 38.9375 2.1875 C 38.9375 1.96875 38.984375 1.8125 39.09375 1.640625 C 38.65625 1.484375 38.21875 1.15625 37.890625 0.875 L 37.890625 3.546875 C 38.21875 3.21875 38.65625 2.953125 39.09375 2.734375 C 39 2.5625 38.9375 2.390625 38.9375 2.1875 "/>
<path style=" stroke:none;fill-rule:nonzero;fill:rgb(0%,0%,0%);fill-opacity:1;" d="M 41.390625 4.359375 C 41.125 4.03125 40.796875 3.59375 40.625 3.15625 C 40.46875 3.265625 40.25 3.3125 40.078125 3.3125 C 39.859375 3.3125 39.703125 3.265625 39.53125 3.15625 C 39.3125 3.59375 39.046875 4.03125 38.765625 4.359375 Z M 41.390625 4.359375 "/>
<path style=" stroke:none;fill-rule:nonzero;fill:rgb(0%,0%,0%);fill-opacity:1;" d="M 39.59375 2.890625 C 39.703125 3 39.859375 3.046875 40.078125 3.046875 C 40.234375 3.046875 40.40625 3 40.5625 2.890625 C 40.671875 2.84375 40.71875 2.734375 40.78125 2.671875 C 40.828125 2.515625 40.890625 2.34375 40.890625 2.1875 C 40.890625 2.03125 40.84375 1.859375 40.734375 1.703125 C 40.6875 1.59375 40.578125 1.546875 40.515625 1.484375 C 40.40625 1.375 40.25 1.328125 40.03125 1.328125 C 39.875 1.328125 39.703125 1.375 39.546875 1.484375 C 39.4375 1.53125 39.390625 1.640625 39.328125 1.703125 C 39.28125 1.859375 39.21875 2.03125 39.21875 2.1875 C 39.21875 2.34375 39.265625 2.515625 39.375 2.671875 C 39.421875 2.71875 39.484375 2.828125 39.59375 2.890625 "/>
<path style=" stroke:none;fill-rule:nonzero;fill:rgb(0%,0%,0%);fill-opacity:1;" d="M 39.59375 9.59375 C 39.703125 9.703125 39.859375 9.75 40.078125 9.75 C 40.234375 9.75 40.40625 9.703125 40.5625 9.59375 C 40.671875 9.546875 40.71875 9.4375 40.78125 9.375 C 40.890625 9.265625 40.9375 9.109375 40.9375 8.890625 C 40.9375 8.734375 40.890625 8.5625 40.78125 8.40625 C 40.734375 8.296875 40.625 8.25 40.5625 8.1875 C 40.453125 8.078125 40.296875 8.03125 40.078125 8.03125 C 39.921875 8.03125 39.75 8.078125 39.59375 8.1875 C 39.484375 8.234375 39.4375 8.34375 39.375 8.40625 C 39.265625 8.5625 39.21875 8.734375 39.21875 8.953125 C 39.21875 9.109375 39.265625 9.28125 39.375 9.4375 C 39.421875 9.484375 39.484375 9.53125 39.59375 9.59375 "/>
<path style=" stroke:none;fill-rule:nonzero;fill:rgb(0%,0%,0%);fill-opacity:1;" d="M 39.59375 11.390625 C 39.703125 11.5 39.859375 11.546875 40.078125 11.546875 C 40.234375 11.546875 40.40625 11.5 40.5625 11.390625 C 40.671875 11.34375 40.71875 11.234375 40.78125 11.171875 C 40.890625 11.0625 40.9375 10.90625 40.9375 10.6875 C 40.9375 10.53125 40.890625 10.359375 40.78125 10.203125 C 40.734375 10.09375 40.625 10.046875 40.5625 9.984375 C 40.453125 9.875 40.296875 9.828125 40.078125 9.828125 C 39.921875 9.828125 39.75 9.875 39.59375 9.984375 C 39.484375 10.03125 39.4375 10.140625 39.375 10.203125 C 39.265625 10.359375 39.21875 10.53125 39.21875 10.6875 C 39.21875 10.84375 39.265625 11.015625 39.375 11.171875 C 39.421875 11.21875 39.484375 11.328125 39.59375 11.390625 "/>
<path style=" stroke:none;fill-rule:nonzero;fill:rgb(0%,0%,0%);fill-opacity:1;" d="M 39.59375 13.140625 C 39.703125 13.25 39.859375 13.296875 40.078125 13.296875 C 40.234375 13.296875 40.40625 13.25 40.5625 13.140625 C 40.671875 13.09375 40.71875 13.03125 40.78125 12.921875 C 40.890625 12.8125 40.9375 12.65625 40.9375 12.4375 C 40.9375 12.28125 40.890625 12.109375 40.78125 12 C 40.734375 11.890625 40.625 11.84375 40.5625 11.78125 C 40.453125 11.671875 40.296875 11.625 40.078125 11.625 C 39.921875 11.625 39.75 11.671875 39.59375 11.78125 C 39.484375 11.828125 39.4375 11.890625 39.375 12 C 39.265625 12.109375 39.21875 12.265625 39.21875 12.4375 C 39.21875 12.59375 39.265625 12.765625 39.375 12.921875 C 39.421875 13.03125 39.484375 13.078125 39.59375 13.140625 "/>
<path style=" stroke:none;fill-rule:nonzero;fill:rgb(0%,0%,0%);fill-opacity:1;" d="M 28.25 18.75 C 28.359375 18.859375 28.515625 18.90625 28.734375 18.90625 C 28.890625 18.90625 29.0625 18.859375 29.21875 18.75 C 29.328125 18.703125 29.375 18.59375 29.4375 18.53125 C 29.546875 18.421875 29.59375 18.265625 29.59375 18.046875 C 29.59375 17.890625 29.546875 17.71875 29.4375 17.5625 C 29.390625 17.453125 29.28125 17.40625 29.21875 17.34375 C 29.109375 17.234375 28.953125 17.1875 28.734375 17.1875 C 28.578125 17.1875 28.40625 17.234375 28.25 17.34375 C 28.140625 17.390625 28.09375 17.5 28.03125 17.5625 C 27.921875 17.671875 27.875 17.828125 27.875 18.046875 C 27.875 18.203125 27.921875 18.375 28.03125 18.53125 C 28.09375 18.640625 28.140625 18.6875 28.25 18.75 "/>
<path style=" stroke:none;fill-rule:nonzero;fill:rgb(0%,0%,0%);fill-opacity:1;" d="M 39.59375 16.84375 C 39.703125 16.953125 39.859375 17 40.078125 17 C 40.234375 17 40.40625 16.953125 40.5625 16.84375 C 40.671875 16.796875 40.71875 16.6875 40.78125 16.625 C 40.890625 16.515625 40.9375 16.359375 40.9375 16.140625 C 40.9375 15.984375 40.890625 15.8125 40.78125 15.65625 C 40.734375 15.546875 40.625 15.5 40.5625 15.4375 C 40.40625 15.328125 40.296875 15.28125 40.078125 15.28125 C 39.921875 15.28125 39.75 15.328125 39.59375 15.4375 C 39.484375 15.484375 39.4375 15.59375 39.375 15.65625 C 39.265625 15.8125 39.21875 15.984375 39.21875 16.140625 C 39.21875 16.296875 39.265625 16.46875 39.375 16.625 C 39.421875 16.671875 39.484375 16.734375 39.59375 16.84375 "/>
<path style=" stroke:none;fill-rule:nonzero;fill:rgb(0%,0%,0%);fill-opacity:1;" d="M 40.03125 8.015625 C 41.015625 8.015625 41.828125 7.203125 41.828125 6.21875 C 41.828125 5.234375 41.015625 4.421875 40.03125 4.421875 C 39.046875 4.421875 38.234375 5.234375 38.234375 6.21875 C 38.234375 7.203125 39.046875 8.015625 40.03125 8.015625 "/>
<path style=" stroke:none;fill-rule:nonzero;fill:rgb(0%,0%,0%);fill-opacity:1;" d="M 28.25 14.984375 C 27.8125 13.625 26.125 10.515625 28.578125 8.34375 C 29.390625 7.640625 30.59375 7.203125 31.578125 7.203125 C 32.28125 7.203125 33.265625 7.421875 34.1875 7.75 C 35.828125 8.296875 36.859375 8.625 38.765625 8.625 L 38.765625 9.5 C 36.6875 9.5 35.609375 9.171875 33.921875 8.578125 C 33.15625 8.3125 32.28125 8.09375 31.6875 8.09375 C 30.703125 8.09375 29.828125 8.421875 29.1875 9.015625 C 27.609375 10.375 28.15625 12.234375 28.859375 14.078125 C 28.96875 14.296875 29.015625 14.515625 29.078125 14.734375 Z M 28.25 14.984375 "/>
<path style=" stroke:none;fill-rule:nonzero;fill:rgb(0%,0%,0%);fill-opacity:1;" d="M 37.296875 17.8125 C 37.734375 17.4375 38.546875 16.9375 39.046875 16.71875 C 39 16.609375 38.9375 16.5 38.890625 16.390625 C 38.84375 16.0625 38.890625 15.796875 39.046875 15.578125 C 38.5625 15.359375 37.734375 14.8125 37.296875 14.4375 Z M 37.296875 17.8125 "/>
<path style=" stroke:none;fill-rule:nonzero;fill:rgb(0%,0%,0%);fill-opacity:1;" d="M 42.8125 17.8125 L 42.8125 14.4375 C 42.375 14.8125 41.5625 15.359375 41.0625 15.578125 C 41.109375 15.6875 41.171875 15.796875 41.21875 15.953125 C 41.265625 16.21875 41.21875 16.546875 41.0625 16.765625 C 41.546875 16.953125 42.375 17.4375 42.8125 17.8125 "/>
<path style=" stroke:none;fill-rule:nonzero;fill:rgb(0%,0%,0%);fill-opacity:1;" d="M 39.421875 15.15625 C 39.53125 15.109375 39.640625 15.046875 39.796875 15 L 40.015625 15 C 40.234375 15 40.453125 15.046875 40.609375 15.15625 C 40.828125 14.671875 41.3125 13.84375 41.703125 13.40625 L 38.328125 13.40625 C 38.71875 13.78125 39.265625 14.65625 39.421875 15.15625 "/>
<path style=" stroke:none;fill-rule:nonzero;fill:rgb(0%,0%,0%);fill-opacity:1;" d="M 28.46875 16.953125 L 28.6875 16.953125 C 28.84375 16.953125 28.953125 17 29.125 17 C 29.28125 16.40625 29.78125 15.25 30.046875 14.71875 L 27.859375 15.484375 Z M 28.46875 16.953125 "/>
<path style=" stroke:none;fill-rule:nonzero;fill:rgb(0%,0%,0%);fill-opacity:1;" d="M 31.46875 19.1875 L 30.765625 15.859375 C 30.609375 16.296875 29.953125 17 29.515625 17.328125 C 29.625 17.484375 29.734375 17.65625 29.78125 17.875 C 29.828125 18.09375 29.828125 18.3125 29.734375 18.46875 C 30.265625 18.53125 31.140625 18.90625 31.46875 19.1875 "/>
<path style=" stroke:none;fill-rule:nonzero;fill:rgb(0%,0%,0%);fill-opacity:1;" d="M 36.8125 6.65625 C 36.703125 6.765625 36.59375 6.875 36.484375 7.03125 C 36.4375 7.1875 36.4375 7.359375 36.4375 7.515625 C 36.4375 7.625 36.484375 7.734375 36.546875 7.78125 C 36.65625 7.890625 36.765625 8 36.921875 8.109375 C 37.078125 8.15625 37.25 8.15625 37.40625 8.15625 C 37.515625 8.15625 37.625 8.109375 37.734375 8.046875 C 37.84375 7.9375 37.953125 7.828125 38.0625 7.671875 C 38.109375 7.515625 38.109375 7.34375 38.109375 7.1875 C 38.109375 7.078125 38.0625 6.96875 38 6.921875 C 37.890625 6.8125 37.78125 6.703125 37.625 6.59375 C 37.46875 6.546875 37.296875 6.546875 37.140625 6.546875 C 37.03125 6.546875 36.921875 6.546875 36.8125 6.65625 "/>
<path style=" stroke:none;fill-rule:nonzero;fill:rgb(0%,0%,0%);fill-opacity:1;" d="M 35.171875 6.046875 C 35.015625 6.09375 34.84375 6.15625 34.734375 6.265625 C 34.625 6.375 34.578125 6.53125 34.515625 6.703125 L 34.515625 7.03125 C 34.5625 7.1875 34.625 7.359375 34.734375 7.46875 C 34.84375 7.578125 35 7.6875 35.171875 7.6875 L 35.5 7.6875 C 35.65625 7.640625 35.828125 7.578125 35.9375 7.46875 C 36.046875 7.359375 36.15625 7.203125 36.15625 7.03125 L 36.15625 6.703125 C 36.109375 6.546875 36.046875 6.375 35.9375 6.265625 C 35.828125 6.15625 35.671875 6.046875 35.5 6.046875 L 35.171875 6.046875 "/>
<path style=" stroke:none;fill-rule:nonzero;fill:rgb(0%,0%,0%);fill-opacity:1;" d="M 33.21875 5.34375 C 33.0625 5.390625 32.953125 5.5 32.84375 5.671875 C 32.734375 5.828125 32.6875 6 32.6875 6.15625 C 32.6875 6.265625 32.6875 6.375 32.734375 6.484375 C 32.78125 6.640625 32.890625 6.75 33.0625 6.859375 C 33.21875 6.96875 33.390625 6.96875 33.546875 6.96875 C 33.65625 6.96875 33.765625 6.96875 33.875 6.921875 C 34.03125 6.875 34.140625 6.765625 34.25 6.59375 C 34.359375 6.4375 34.40625 6.265625 34.359375 6.109375 C 34.359375 6 34.3125 5.890625 34.3125 5.78125 C 34.265625 5.625 34.15625 5.515625 33.984375 5.40625 C 33.828125 5.296875 33.65625 5.296875 33.5 5.296875 C 33.375 5.28125 33.265625 5.28125 33.21875 5.34375 "/>
<path style=" stroke:none;fill-rule:nonzero;fill:rgb(0%,0%,0%);fill-opacity:1;" d="M 30.921875 5.28125 C 30.8125 5.390625 30.703125 5.546875 30.65625 5.71875 C 30.609375 5.875 30.609375 6.046875 30.65625 6.203125 C 30.703125 6.3125 30.765625 6.421875 30.8125 6.46875 C 30.921875 6.578125 31.078125 6.6875 31.25 6.734375 C 31.40625 6.78125 31.578125 6.78125 31.734375 6.734375 C 31.84375 6.6875 31.953125 6.625 32 6.578125 C 32.109375 6.46875 32.21875 6.359375 32.265625 6.140625 C 32.3125 5.984375 32.3125 5.8125 32.265625 5.65625 C 32.21875 5.546875 32.15625 5.4375 32.109375 5.390625 C 32 5.28125 31.890625 5.171875 31.671875 5.125 C 31.515625 5.078125 31.34375 5.078125 31.1875 5.125 C 31.140625 5.171875 31.03125 5.234375 30.921875 5.28125 "/>
<path style=" stroke:none;fill-rule:nonzero;fill:rgb(0%,0%,0%);fill-opacity:1;" d="M 28.859375 5.9375 C 28.75 6.046875 28.703125 6.203125 28.75 6.421875 C 28.75 6.578125 28.796875 6.75 28.90625 6.90625 C 28.953125 7.015625 29.0625 7.0625 29.125 7.125 C 29.234375 7.234375 29.390625 7.234375 29.609375 7.234375 C 29.765625 7.234375 29.9375 7.1875 30.09375 7.078125 C 30.203125 7.03125 30.25 6.921875 30.3125 6.859375 C 30.421875 6.75 30.421875 6.59375 30.421875 6.375 C 30.421875 6.21875 30.375 6.046875 30.265625 5.9375 C 30.21875 5.828125 30.109375 5.78125 30.046875 5.71875 C 29.9375 5.609375 29.78125 5.5625 29.5625 5.5625 C 29.40625 5.5625 29.234375 5.609375 29.125 5.71875 C 29.015625 5.71875 28.90625 5.828125 28.859375 5.9375 "/>
<path style=" stroke:none;fill-rule:nonzero;fill:rgb(0%,0%,0%);fill-opacity:1;" d="M 26.890625 7.296875 C 26.84375 7.453125 26.890625 7.625 26.9375 7.78125 C 26.984375 7.9375 27.09375 8.046875 27.265625 8.15625 C 27.375 8.203125 27.484375 8.265625 27.59375 8.265625 C 27.75 8.3125 27.921875 8.265625 28.078125 8.21875 C 28.234375 8.171875 28.34375 8.0625 28.453125 7.890625 C 28.5 7.78125 28.5625 7.671875 28.5625 7.5625 C 28.609375 7.40625 28.5625 7.234375 28.515625 7.078125 C 28.46875 6.921875 28.359375 6.8125 28.1875 6.703125 C 28.078125 6.65625 27.96875 6.59375 27.859375 6.59375 C 27.703125 6.546875 27.53125 6.59375 27.375 6.640625 C 27.21875 6.6875 27.109375 6.796875 27 6.96875 C 26.953125 7.078125 26.890625 7.1875 26.890625 7.296875 "/>
<path style=" stroke:none;fill-rule:nonzero;fill:rgb(0%,0%,0%);fill-opacity:1;" d="M 25.640625 9.203125 C 25.640625 9.359375 25.75 9.53125 25.859375 9.640625 C 25.96875 9.75 26.125 9.859375 26.296875 9.859375 L 26.625 9.859375 C 26.78125 9.8125 26.953125 9.75 27.0625 9.640625 C 27.171875 9.53125 27.28125 9.375 27.28125 9.203125 L 27.28125 8.875 C 27.234375 8.71875 27.171875 8.546875 27.0625 8.4375 C 26.953125 8.328125 26.796875 8.21875 26.625 8.21875 L 26.296875 8.21875 C 26.140625 8.21875 25.96875 8.328125 25.859375 8.4375 C 25.75 8.546875 25.640625 8.703125 25.640625 8.875 L 25.640625 9.203125 "/>
<path style=" stroke:none;fill-rule:nonzero;fill:rgb(0%,0%,0%);fill-opacity:1;" d="M 25.203125 11.390625 C 25.3125 11.5 25.421875 11.65625 25.578125 11.71875 C 25.734375 11.765625 25.90625 11.828125 26.0625 11.765625 C 26.171875 11.765625 26.28125 11.71875 26.390625 11.65625 C 26.5 11.546875 26.65625 11.4375 26.71875 11.28125 C 26.78125 11.125 26.828125 10.953125 26.765625 10.796875 C 26.765625 10.6875 26.71875 10.578125 26.65625 10.46875 C 26.546875 10.3125 26.4375 10.203125 26.28125 10.140625 C 26.125 10.09375 25.953125 10.03125 25.796875 10.09375 C 25.6875 10.09375 25.578125 10.140625 25.46875 10.203125 C 25.3125 10.3125 25.203125 10.421875 25.140625 10.578125 C 25.09375 10.734375 25.03125 10.90625 25.09375 11.0625 C 25.140625 11.21875 25.140625 11.328125 25.203125 11.390625 "/>
<path style=" stroke:none;fill-rule:nonzero;fill:rgb(0%,0%,0%);fill-opacity:1;" d="M 25.703125 13.625 C 25.8125 13.734375 25.96875 13.78125 26.140625 13.78125 C 26.296875 13.78125 26.46875 13.734375 26.625 13.671875 C 26.734375 13.625 26.78125 13.5625 26.84375 13.453125 C 26.953125 13.34375 27 13.1875 27 13.015625 C 27 12.84375 26.953125 12.6875 26.890625 12.53125 C 26.84375 12.421875 26.78125 12.375 26.671875 12.3125 C 26.5625 12.203125 26.40625 12.15625 26.234375 12.15625 C 26.078125 12.15625 25.90625 12.203125 25.75 12.265625 C 25.640625 12.3125 25.59375 12.375 25.53125 12.484375 C 25.421875 12.59375 25.375 12.75 25.375 12.921875 C 25.375 13.09375 25.421875 13.25 25.484375 13.40625 C 25.53125 13.515625 25.59375 13.5625 25.703125 13.625 "/>
<path style=" stroke:none;fill-rule:nonzero;fill:rgb(0%,0%,0%);fill-opacity:1;" d="M 26.34375 15.53125 C 26.453125 15.640625 26.609375 15.6875 26.828125 15.6875 C 26.984375 15.6875 27.15625 15.640625 27.3125 15.53125 C 27.421875 15.484375 27.46875 15.375 27.53125 15.3125 C 27.640625 15.203125 27.6875 15.046875 27.6875 14.828125 C 27.6875 14.671875 27.640625 14.5 27.53125 14.34375 C 27.484375 14.234375 27.375 14.1875 27.3125 14.125 C 27.203125 14.015625 27.046875 13.96875 26.828125 13.96875 C 26.671875 13.96875 26.5 14.015625 26.34375 14.125 C 26.234375 14.171875 26.1875 14.28125 26.125 14.34375 C 26.015625 14.453125 25.96875 14.609375 25.96875 14.828125 C 25.96875 14.984375 26.015625 15.15625 26.125 15.3125 C 26.1875 15.375 26.234375 15.484375 26.34375 15.53125 "/>
<path style=" stroke:none;fill-rule:nonzero;fill:rgb(0%,0%,0%);fill-opacity:1;" d="M 51.859375 18.75 C 51.75 18.859375 51.59375 18.90625 51.375 18.90625 C 51.21875 18.90625 51.046875 18.859375 50.890625 18.75 C 50.78125 18.703125 50.734375 18.59375 50.671875 18.53125 C 50.5625 18.421875 50.515625 18.265625 50.515625 18.046875 C 50.515625 17.890625 50.5625 17.71875 50.671875 17.5625 C 50.71875 17.453125 50.828125 17.40625 50.890625 17.34375 C 51 17.234375 51.15625 17.1875 51.375 17.1875 C 51.53125 17.1875 51.703125 17.234375 51.859375 17.34375 C 51.96875 17.390625 52.015625 17.5 52.078125 17.5625 C 52.1875 17.671875 52.234375 17.828125 52.234375 18.046875 C 52.234375 18.203125 52.1875 18.375 52.078125 18.53125 C 52.015625 18.640625 51.953125 18.6875 51.859375 18.75 "/>
<path style=" stroke:none;fill-rule:nonzero;fill:rgb(0%,0%,0%);fill-opacity:1;" d="M 51.796875 14.984375 C 52.234375 13.625 53.921875 10.515625 51.421875 8.34375 C 50.609375 7.640625 49.40625 7.203125 48.421875 7.203125 C 47.71875 7.203125 46.734375 7.421875 45.8125 7.75 C 44.171875 8.296875 43.140625 8.625 41.234375 8.625 L 41.234375 9.5 C 43.3125 9.5 44.390625 9.171875 46.078125 8.578125 C 46.84375 8.3125 47.765625 8.09375 48.421875 8.09375 C 49.1875 8.09375 50.21875 8.421875 50.875 9.015625 C 52.453125 10.375 51.90625 12.234375 51.203125 14.078125 C 51.09375 14.296875 51.046875 14.515625 50.984375 14.734375 Z M 51.796875 14.984375 "/>
<path style=" stroke:none;fill-rule:nonzero;fill:rgb(0%,0%,0%);fill-opacity:1;" d="M 51.640625 16.953125 L 51.421875 16.953125 C 51.265625 16.953125 51.15625 17 50.984375 17 C 50.828125 16.40625 50.328125 15.25 50.0625 14.71875 L 52.25 15.484375 Z M 51.640625 16.953125 "/>
<path style=" stroke:none;fill-rule:nonzero;fill:rgb(0%,0%,0%);fill-opacity:1;" d="M 48.578125 19.1875 L 49.28125 15.859375 C 49.4375 16.296875 50.09375 17 50.53125 17.328125 C 50.421875 17.484375 50.3125 17.65625 50.265625 17.875 C 50.21875 18.09375 50.21875 18.3125 50.3125 18.46875 C 49.78125 18.53125 48.96875 18.90625 48.578125 19.1875 "/>
<path style=" stroke:none;fill-rule:nonzero;fill:rgb(0%,0%,0%);fill-opacity:1;" d="M 43.296875 6.65625 C 43.40625 6.765625 43.515625 6.875 43.625 7.03125 C 43.671875 7.1875 43.671875 7.359375 43.671875 7.515625 C 43.671875 7.625 43.625 7.734375 43.5625 7.78125 C 43.453125 7.890625 43.34375 8 43.1875 8.109375 C 43.03125 8.15625 42.859375 8.15625 42.703125 8.15625 C 42.59375 8.15625 42.484375 8.109375 42.4375 8.046875 C 42.328125 7.9375 42.21875 7.828125 42.109375 7.671875 C 42.0625 7.515625 42.0625 7.34375 42.0625 7.1875 C 42.0625 7.078125 42.109375 6.96875 42.171875 6.921875 C 42.28125 6.8125 42.390625 6.703125 42.546875 6.59375 C 42.703125 6.546875 42.875 6.546875 43.03125 6.546875 C 43.078125 6.546875 43.1875 6.546875 43.296875 6.65625 "/>
<path style=" stroke:none;fill-rule:nonzero;fill:rgb(0%,0%,0%);fill-opacity:1;" d="M 44.875 6.046875 C 45.03125 6.09375 45.203125 6.15625 45.3125 6.265625 C 45.421875 6.375 45.53125 6.53125 45.53125 6.703125 L 45.53125 7.03125 C 45.484375 7.1875 45.421875 7.359375 45.3125 7.46875 C 45.203125 7.578125 45.046875 7.6875 44.875 7.6875 L 44.546875 7.6875 C 44.390625 7.640625 44.21875 7.578125 44.109375 7.46875 C 44 7.359375 43.890625 7.203125 43.890625 7.03125 L 43.890625 6.703125 C 43.9375 6.546875 44 6.375 44.109375 6.265625 C 44.21875 6.15625 44.375 6.046875 44.546875 6.046875 L 44.875 6.046875 "/>
<path style=" stroke:none;fill-rule:nonzero;fill:rgb(0%,0%,0%);fill-opacity:1;" d="M 46.890625 5.34375 C 47.046875 5.390625 47.15625 5.5 47.265625 5.671875 C 47.375 5.828125 47.375 6 47.375 6.15625 C 47.375 6.265625 47.375 6.375 47.328125 6.484375 C 47.28125 6.640625 47.171875 6.75 47 6.859375 C 46.84375 6.96875 46.671875 6.96875 46.515625 6.96875 C 46.40625 6.96875 46.296875 6.96875 46.1875 6.921875 C 46.03125 6.875 45.921875 6.765625 45.8125 6.59375 C 45.765625 6.4375 45.765625 6.265625 45.765625 6.109375 C 45.765625 6 45.765625 5.890625 45.8125 5.78125 C 45.859375 5.625 45.96875 5.515625 46.140625 5.40625 C 46.296875 5.296875 46.46875 5.296875 46.625 5.296875 C 46.671875 5.28125 46.78125 5.28125 46.890625 5.34375 "/>
<path style=" stroke:none;fill-rule:nonzero;fill:rgb(0%,0%,0%);fill-opacity:1;" d="M 49.125 5.28125 C 49.234375 5.390625 49.34375 5.546875 49.390625 5.71875 C 49.4375 5.875 49.4375 6.046875 49.390625 6.203125 C 49.34375 6.3125 49.28125 6.421875 49.234375 6.46875 C 49.125 6.578125 49.015625 6.6875 48.796875 6.734375 C 48.640625 6.78125 48.46875 6.78125 48.3125 6.734375 C 48.203125 6.6875 48.09375 6.625 48.046875 6.578125 C 47.9375 6.46875 47.828125 6.359375 47.78125 6.140625 C 47.734375 5.984375 47.734375 5.8125 47.78125 5.65625 C 47.828125 5.546875 47.890625 5.4375 47.9375 5.390625 C 48.046875 5.28125 48.203125 5.171875 48.375 5.125 C 48.546875 5.078125 48.703125 5.078125 48.859375 5.125 C 48.96875 5.171875 49.078125 5.234375 49.125 5.28125 "/>
<path style=" stroke:none;fill-rule:nonzero;fill:rgb(0%,0%,0%);fill-opacity:1;" d="M 51.25 5.9375 C 51.359375 6.046875 51.359375 6.203125 51.359375 6.421875 C 51.359375 6.578125 51.3125 6.75 51.203125 6.90625 C 51.15625 7.015625 51.046875 7.0625 50.984375 7.125 C 50.875 7.234375 50.71875 7.234375 50.5 7.234375 C 50.34375 7.234375 50.171875 7.1875 50.0625 7.078125 C 49.953125 7.03125 49.90625 6.921875 49.84375 6.859375 C 49.734375 6.75 49.6875 6.59375 49.734375 6.375 C 49.734375 6.21875 49.78125 6.046875 49.890625 5.9375 C 49.9375 5.828125 50.046875 5.78125 50.109375 5.71875 C 50.21875 5.609375 50.375 5.5625 50.59375 5.5625 C 50.75 5.5625 50.921875 5.609375 51.078125 5.71875 C 51.09375 5.71875 51.203125 5.828125 51.25 5.9375 "/>
<path style=" stroke:none;fill-rule:nonzero;fill:rgb(0%,0%,0%);fill-opacity:1;" d="M 53.21875 7.296875 C 53.265625 7.453125 53.21875 7.625 53.171875 7.78125 C 53.125 7.9375 53.015625 8.046875 52.84375 8.15625 C 52.734375 8.203125 52.6875 8.265625 52.578125 8.265625 C 52.421875 8.3125 52.25 8.265625 52.09375 8.21875 C 51.9375 8.171875 51.828125 8.0625 51.71875 7.890625 C 51.671875 7.78125 51.609375 7.671875 51.609375 7.5625 C 51.5625 7.40625 51.609375 7.234375 51.65625 7.078125 C 51.703125 6.921875 51.8125 6.8125 51.984375 6.703125 C 52.09375 6.65625 52.203125 6.59375 52.25 6.59375 C 52.40625 6.546875 52.578125 6.59375 52.734375 6.640625 C 52.890625 6.6875 53 6.796875 53.109375 6.96875 C 53.15625 7.078125 53.15625 7.1875 53.21875 7.296875 "/>
<path style=" stroke:none;fill-rule:nonzero;fill:rgb(0%,0%,0%);fill-opacity:1;" d="M 54.46875 9.203125 C 54.421875 9.359375 54.359375 9.53125 54.25 9.640625 C 54.140625 9.75 53.984375 9.859375 53.8125 9.859375 L 53.484375 9.859375 C 53.328125 9.8125 53.15625 9.75 53.046875 9.640625 C 52.9375 9.53125 52.828125 9.375 52.828125 9.203125 C 52.828125 9.09375 52.78125 8.984375 52.828125 8.875 C 52.875 8.71875 52.9375 8.546875 53.046875 8.4375 C 53.15625 8.328125 53.3125 8.21875 53.484375 8.21875 L 53.8125 8.21875 C 53.96875 8.21875 54.140625 8.328125 54.25 8.4375 C 54.359375 8.546875 54.46875 8.703125 54.46875 8.875 L 54.46875 9.203125 "/>
<path style=" stroke:none;fill-rule:nonzero;fill:rgb(0%,0%,0%);fill-opacity:1;" d="M 54.84375 11.390625 C 54.734375 11.5 54.625 11.65625 54.46875 11.71875 C 54.3125 11.765625 54.140625 11.828125 53.984375 11.765625 C 53.875 11.765625 53.765625 11.71875 53.65625 11.65625 C 53.546875 11.546875 53.390625 11.4375 53.328125 11.28125 C 53.265625 11.125 53.21875 10.953125 53.28125 10.796875 C 53.28125 10.6875 53.328125 10.578125 53.390625 10.46875 C 53.5 10.3125 53.609375 10.203125 53.765625 10.140625 C 53.921875 10.09375 54.09375 10.03125 54.25 10.09375 C 54.359375 10.09375 54.46875 10.140625 54.578125 10.203125 C 54.6875 10.3125 54.84375 10.421875 54.90625 10.578125 C 54.96875 10.734375 55.015625 10.90625 54.953125 11.0625 C 54.953125 11.21875 54.90625 11.328125 54.84375 11.390625 "/>
<path style=" stroke:none;fill-rule:nonzero;fill:rgb(0%,0%,0%);fill-opacity:1;" d="M 54.40625 13.625 C 54.296875 13.734375 54.140625 13.78125 53.96875 13.78125 C 53.796875 13.78125 53.640625 13.734375 53.484375 13.671875 C 53.375 13.625 53.328125 13.5625 53.265625 13.453125 C 53.15625 13.34375 53.109375 13.1875 53.109375 13.015625 C 53.109375 12.84375 53.15625 12.6875 53.21875 12.53125 C 53.265625 12.421875 53.328125 12.375 53.4375 12.3125 C 53.546875 12.203125 53.703125 12.15625 53.875 12.15625 C 54.03125 12.15625 54.203125 12.203125 54.359375 12.265625 C 54.46875 12.3125 54.515625 12.375 54.578125 12.484375 C 54.6875 12.59375 54.734375 12.75 54.734375 12.921875 C 54.734375 13.09375 54.6875 13.25 54.625 13.40625 C 54.578125 13.515625 54.515625 13.5625 54.40625 13.625 "/>
<path style=" stroke:none;fill-rule:nonzero;fill:rgb(0%,0%,0%);fill-opacity:1;" d="M 53.765625 15.53125 C 53.65625 15.640625 53.5 15.6875 53.28125 15.6875 C 53.125 15.6875 52.953125 15.640625 52.796875 15.53125 C 52.6875 15.484375 52.640625 15.375 52.578125 15.3125 C 52.46875 15.203125 52.421875 15.046875 52.421875 14.828125 C 52.421875 14.671875 52.46875 14.5 52.578125 14.34375 C 52.625 14.234375 52.734375 14.1875 52.796875 14.125 C 52.90625 14.015625 53.0625 13.96875 53.28125 13.96875 C 53.4375 13.96875 53.609375 14.015625 53.765625 14.125 C 53.875 14.171875 53.921875 14.28125 53.984375 14.34375 C 54.09375 14.453125 54.140625 14.609375 54.140625 14.828125 C 54.140625 14.984375 54.09375 15.15625 53.984375 15.3125 C 53.921875 15.375 53.8125 15.484375 53.765625 15.53125 "/>
</g>
</svg>
