<?xml version="1.0" encoding="UTF-8"?>
<svg xmlns="http://www.w3.org/2000/svg" xmlns:xlink="http://www.w3.org/1999/xlink" width="80px" height="80px" viewBox="0 0 80 80" version="1.1">
<g id="surface1">
<path style=" stroke:none;fill-rule:nonzero;fill:rgb(0%,0%,0%);fill-opacity:1;" d="M 62.8125 80 L 17.1875 80 C 16.929688 80 16.71875 79.789062 16.71875 79.53125 L 16.71875 0.46875 C 16.71875 0.210938 16.929688 0 17.1875 0 L 62.8125 0 C 63.070312 0 63.28125 0.210938 63.28125 0.46875 L 63.28125 79.53125 C 63.28125 79.789062 63.070312 80 62.8125 80 Z M 52.710938 6.421875 L 49.476562 6.421875 L 49.476562 7.882812 C 49.46875 10.507812 47.347656 12.628906 44.726562 12.636719 L 35.273438 12.636719 C 32.652344 12.628906 30.53125 10.503906 30.523438 7.882812 L 30.523438 6.421875 L 27.289062 6.421875 C 24.488281 6.433594 22.21875 8.699219 22.210938 11.5 L 22.210938 68.5 C 22.21875 71.300781 24.488281 73.566406 27.289062 73.578125 L 52.710938 73.578125 C 55.511719 73.566406 57.78125 71.300781 57.789062 68.5 L 57.789062 11.5 C 57.78125 8.699219 55.511719 6.433594 52.710938 6.421875 Z M 52.710938 6.421875 "/>
<path style=" stroke:none;fill-rule:nonzero;fill:rgb(0%,0%,0%);fill-opacity:1;" d="M 40 52.683594 C 47.003906 52.683594 52.683594 47.003906 52.683594 40 C 52.683594 32.996094 47.003906 27.316406 40 27.316406 C 32.996094 27.316406 27.316406 32.996094 27.316406 40 C 27.308594 43.367188 28.640625 46.597656 31.019531 48.980469 C 33.402344 51.359375 36.632812 52.691406 40 52.683594 Z M 42.933594 40.894531 C 42.886719 40.972656 42.828125 41.042969 42.757812 41.101562 C 42.683594 41.160156 42.601562 41.210938 42.511719 41.242188 C 42.414062 41.28125 42.3125 41.300781 42.210938 41.296875 L 39.136719 41.296875 L 38.96875 42.78125 C 38.925781 43.128906 38.839844 43.46875 38.707031 43.792969 C 38.578125 44.097656 38.398438 44.375 38.175781 44.621094 C 38.46875 44.554688 38.761719 44.503906 39.054688 44.464844 C 39.339844 44.425781 39.628906 44.40625 39.921875 44.40625 L 44.574219 44.40625 L 44.429688 45.484375 C 44.410156 45.625 44.363281 45.757812 44.296875 45.882812 C 44.222656 46.015625 44.128906 46.132812 44.019531 46.238281 C 43.90625 46.351562 43.773438 46.441406 43.628906 46.503906 C 43.480469 46.574219 43.316406 46.609375 43.152344 46.609375 L 34.558594 46.609375 L 34.773438 44.992188 C 35.128906 44.9375 35.457031 44.773438 35.710938 44.523438 C 35.949219 44.230469 36.089844 43.875 36.109375 43.503906 L 36.382812 41.300781 L 35.070312 41.300781 L 35.203125 40.25 C 35.21875 40.167969 35.246094 40.09375 35.289062 40.023438 C 35.335938 39.945312 35.394531 39.875 35.464844 39.820312 C 35.539062 39.757812 35.621094 39.707031 35.710938 39.671875 C 35.808594 39.632812 35.910156 39.609375 36.011719 39.613281 L 36.585938 39.613281 L 36.832031 37.625 C 36.902344 37.0625 37.066406 36.511719 37.320312 36.003906 C 37.570312 35.496094 37.917969 35.039062 38.335938 34.65625 C 38.777344 34.257812 39.285156 33.945312 39.839844 33.734375 C 40.464844 33.5 41.125 33.386719 41.789062 33.394531 C 42.257812 33.386719 42.722656 33.449219 43.171875 33.574219 C 43.542969 33.683594 43.890625 33.847656 44.207031 34.070312 C 44.496094 34.273438 44.746094 34.53125 44.945312 34.828125 C 45.144531 35.128906 45.308594 35.453125 45.4375 35.792969 L 44.269531 36.484375 C 44.046875 36.597656 43.800781 36.648438 43.554688 36.640625 C 43.320312 36.625 43.101562 36.503906 42.957031 36.316406 C 42.851562 36.1875 42.75 36.070312 42.65625 35.976562 C 42.570312 35.882812 42.46875 35.804688 42.359375 35.742188 C 42.25 35.679688 42.125 35.636719 42 35.613281 C 41.839844 35.582031 41.679688 35.570312 41.519531 35.570312 C 41.035156 35.558594 40.5625 35.75 40.222656 36.097656 C 39.871094 36.449219 39.65625 36.949219 39.578125 37.601562 L 39.335938 39.605469 L 43.148438 39.605469 L 43.019531 40.65625 C 43.007812 40.742188 42.976562 40.820312 42.933594 40.894531 Z M 42.933594 40.894531 "/>
</g>
</svg>
