<?xml version="1.0" encoding="UTF-8"?>
<svg xmlns="http://www.w3.org/2000/svg" xmlns:xlink="http://www.w3.org/1999/xlink" width="80px" height="80px" viewBox="0 0 80 80" version="1.1">
<g id="surface1">
<path style=" stroke:none;fill-rule:nonzero;fill:rgb(0%,0%,0%);fill-opacity:1;" d="M 80 38.082031 C 79.851562 37.101562 79.816406 37.300781 73.117188 32.917969 C 79.066406 10.566406 78.933594 11.867188 78.449219 11.015625 C 77.964844 10.167969 78.832031 10.617188 60 5.566406 L 60 1.667969 C 60 0.746094 59.253906 0 58.332031 0 L 21.667969 0 C 20.746094 0 20 0.746094 20 1.667969 L 20 5.566406 L 2.566406 10.234375 C 2.136719 10.347656 1.769531 10.625 1.546875 11.011719 C 1.324219 11.398438 1.265625 11.855469 1.382812 12.285156 L 6.917969 32.917969 C 0.351562 37.199219 0.25 37.066406 0.0507812 37.917969 C 0 38.332031 0 36.484375 0 73.332031 C 0 77.015625 2.984375 80 6.667969 80 L 73.332031 80 C 77.015625 80 80 77.015625 80 73.332031 C 80 35.398438 80 38.417969 80 38.082031 Z M 56.75 54.398438 L 76.75 41.417969 C 76.75 76.265625 76.75 73.515625 76.632812 74.183594 Z M 75.285156 38.332031 L 70.851562 41.214844 L 72.167969 36.300781 Z M 75 13.035156 C 74.132812 16.265625 78.117188 1.367188 66.667969 43.949219 L 60 48.332031 L 60 15.917969 L 63.851562 16.949219 C 63.980469 18.449219 64.769531 19.816406 66 20.683594 L 63.765625 29.015625 C 63.527344 29.910156 64.058594 30.828125 64.949219 31.066406 C 65.84375 31.304688 66.761719 30.777344 67 29.882812 L 69.582031 20.234375 C 69.699219 19.796875 69.628906 19.328125 69.394531 18.941406 C 69.160156 18.554688 68.777344 18.28125 68.332031 18.183594 C 67.90625 18.066406 67.542969 17.785156 67.324219 17.398438 C 67.105469 17.015625 67.050781 16.558594 67.167969 16.132812 C 67.285156 15.703125 67.222656 15.246094 67.003906 14.863281 C 66.78125 14.476562 66.414062 14.195312 65.984375 14.082031 L 60 12.464844 L 60 9.015625 Z M 56.667969 3.332031 L 56.667969 50.464844 L 40 61.351562 L 23.332031 50.464844 L 23.332031 3.332031 Z M 3.449219 74.183594 C 3.332031 73.515625 3.332031 76.214844 3.332031 41.417969 L 23.332031 54.398438 Z M 20 9.015625 L 20 12.464844 L 13.949219 14.132812 C 13.519531 14.246094 13.152344 14.527344 12.929688 14.910156 C 12.710938 15.296875 12.648438 15.753906 12.765625 16.183594 C 12.984375 17.035156 12.503906 17.910156 11.667969 18.183594 C 10.78125 18.417969 10.25 19.328125 10.484375 20.214844 L 13 29.867188 C 13.238281 30.757812 14.15625 31.289062 15.050781 31.050781 C 15.941406 30.8125 16.472656 29.894531 16.234375 29 L 14 20.667969 C 15.230469 19.800781 16.019531 18.433594 16.148438 16.933594 L 20 15.917969 L 20 48.332031 L 13.332031 43.949219 C 12.066406 39.25 6.300781 17.734375 5 13.035156 Z M 9.148438 41.214844 L 4.714844 38.332031 L 7.832031 36.300781 Z M 5.816406 76.550781 L 26.101562 56.25 C 39.566406 65.050781 39.617188 65.582031 40.917969 64.734375 L 53.898438 56.25 L 74.183594 76.550781 C 73.332031 76.765625 6.5 76.667969 5.816406 76.550781 Z M 5.816406 76.550781 "/>
<path style=" stroke:none;fill-rule:nonzero;fill:rgb(0%,0%,0%);fill-opacity:1;" d="M 30 21.667969 L 30 13.050781 C 31.425781 12.546875 32.546875 11.425781 33.050781 10 L 46.949219 10 C 47.453125 11.425781 48.574219 12.546875 50 13.050781 L 50 21.667969 C 50 22.585938 50.746094 23.332031 51.667969 23.332031 C 52.585938 23.332031 53.332031 22.585938 53.332031 21.667969 L 53.332031 11.667969 C 53.332031 10.746094 52.585938 10 51.667969 10 C 50.746094 10 50 9.253906 50 8.332031 C 50 7.414062 49.253906 6.667969 48.332031 6.667969 L 31.667969 6.667969 C 30.746094 6.667969 30 7.414062 30 8.332031 C 30 9.253906 29.253906 10 28.332031 10 C 27.414062 10 26.667969 10.746094 26.667969 11.667969 L 26.667969 21.667969 C 26.667969 22.585938 27.414062 23.332031 28.332031 23.332031 C 29.253906 23.332031 30 22.585938 30 21.667969 Z M 30 21.667969 "/>
<path style=" stroke:none;fill-rule:nonzero;fill:rgb(0%,0%,0%);fill-opacity:1;" d="M 40 50 C 47.363281 50 53.332031 44.03125 53.332031 36.667969 C 53.332031 29.304688 47.363281 23.332031 40 23.332031 C 32.636719 23.332031 26.667969 29.304688 26.667969 36.667969 C 26.667969 44.03125 32.636719 50 40 50 Z M 40 26.667969 C 45.523438 26.667969 50 31.144531 50 36.667969 C 50 42.191406 45.523438 46.667969 40 46.667969 C 34.476562 46.667969 30 42.191406 30 36.667969 C 30 31.144531 34.476562 26.667969 40 26.667969 Z M 40 26.667969 "/>
<path style=" stroke:none;fill-rule:nonzero;fill:rgb(0%,0%,0%);fill-opacity:1;" d="M 39.367188 15.132812 C 38.589844 15.453125 38.171875 16.296875 38.390625 17.105469 C 38.605469 17.914062 39.390625 18.4375 40.222656 18.328125 C 41.050781 18.214844 41.671875 17.503906 41.667969 16.667969 C 41.664062 16.113281 41.386719 15.59375 40.925781 15.289062 C 40.464844 14.980469 39.878906 14.921875 39.367188 15.132812 Z M 39.367188 15.132812 "/>
</g>
</svg>
