<?xml version="1.0" encoding="UTF-8"?>
<svg xmlns="http://www.w3.org/2000/svg" xmlns:xlink="http://www.w3.org/1999/xlink" width="80px" height="80px" viewBox="0 0 80 80" version="1.1">
<g id="surface1">
<path style=" stroke:none;fill-rule:nonzero;fill:rgb(0%,0%,0%);fill-opacity:1;" d="M 48.355469 17.921875 C 52.058594 20.246094 54.65625 24.175781 55.132812 28.738281 C 56.640625 29.445312 58.320312 29.851562 60.097656 29.851562 C 66.589844 29.851562 71.847656 24.589844 71.847656 18.101562 C 71.847656 11.609375 66.589844 6.347656 60.097656 6.347656 C 53.667969 6.351562 48.453125 11.515625 48.355469 17.921875 Z M 40.65625 41.984375 C 47.148438 41.984375 52.40625 36.722656 52.40625 30.230469 C 52.40625 23.742188 47.144531 18.480469 40.65625 18.480469 C 34.164062 18.480469 28.902344 23.742188 28.902344 30.234375 C 28.902344 36.722656 34.164062 41.984375 40.65625 41.984375 Z M 45.640625 42.785156 L 35.667969 42.785156 C 27.371094 42.785156 20.621094 49.535156 20.621094 57.832031 L 20.621094 70.027344 L 20.652344 70.21875 L 21.492188 70.480469 C 29.410156 72.957031 36.289062 73.78125 41.953125 73.78125 C 53.011719 73.78125 59.421875 70.628906 59.816406 70.425781 L 60.601562 70.03125 L 60.683594 70.03125 L 60.683594 57.832031 C 60.6875 49.535156 53.9375 42.785156 45.640625 42.785156 Z M 65.085938 30.652344 L 55.1875 30.652344 C 55.082031 34.613281 53.390625 38.175781 50.71875 40.742188 C 58.09375 42.933594 63.488281 49.773438 63.488281 57.851562 L 63.488281 61.609375 C 73.261719 61.25 78.890625 58.480469 79.261719 58.296875 L 80.046875 57.898438 L 80.128906 57.898438 L 80.128906 45.699219 C 80.128906 37.402344 73.378906 30.652344 65.085938 30.652344 Z M 20.035156 29.851562 C 22.335938 29.851562 24.472656 29.183594 26.285156 28.039062 C 26.859375 24.28125 28.875 21 31.753906 18.761719 C 31.765625 18.542969 31.785156 18.324219 31.785156 18.101562 C 31.785156 11.613281 26.523438 6.351562 20.035156 6.351562 C 13.542969 6.351562 8.28125 11.613281 8.28125 18.101562 C 8.28125 24.589844 13.542969 29.851562 20.035156 29.851562 Z M 30.589844 40.742188 C 27.929688 38.191406 26.246094 34.644531 26.121094 30.710938 C 25.753906 30.683594 25.390625 30.652344 25.019531 30.652344 L 15.046875 30.652344 C 6.75 30.652344 0 37.402344 0 45.699219 L 0 57.894531 L 0.03125 58.085938 L 0.871094 58.347656 C 7.222656 60.332031 12.890625 61.246094 17.816406 61.535156 L 17.816406 57.851562 C 17.816406 49.773438 23.210938 42.9375 30.589844 40.742188 Z M 30.589844 40.742188 "/>
</g>
</svg>
