<?xml version="1.0" encoding="UTF-8"?>
<svg xmlns="http://www.w3.org/2000/svg" xmlns:xlink="http://www.w3.org/1999/xlink" width="80px" height="80px" viewBox="0 0 80 80" version="1.1">
<g id="surface1">
<path style=" stroke:none;fill-rule:nonzero;fill:rgb(0%,0%,0%);fill-opacity:1;" d="M 78.75 14.179688 L 74.820312 12.148438 C 66.121094 7.714844 55.828125 7.714844 47.132812 12.152344 L 41.960938 14.828125 L 41.960938 71.347656 L 45.339844 69.601562 C 55.160156 64.589844 66.789062 64.589844 76.613281 69.597656 C 77.332031 69.972656 78.191406 69.945312 78.886719 69.523438 C 79.578125 69.105469 80 68.355469 80 67.542969 L 80 16.234375 C 80.003906 15.371094 79.519531 14.574219 78.75 14.179688 Z M 78.75 14.179688 "/>
<path style=" stroke:none;fill-rule:nonzero;fill:rgb(0%,0%,0%);fill-opacity:1;" d="M 5.171875 12.152344 L 1.25 14.179688 C 0.480469 14.574219 -0.00390625 15.371094 0 16.234375 L 0 67.542969 C 0 68.351562 0.421875 69.101562 1.113281 69.523438 C 1.800781 69.941406 2.660156 69.972656 3.378906 69.601562 C 13.199219 64.589844 24.828125 64.589844 34.652344 69.597656 L 38.039062 71.347656 L 38.039062 14.828125 L 32.859375 12.148438 C 24.160156 7.714844 13.867188 7.714844 5.171875 12.152344 Z M 5.171875 12.152344 "/>
</g>
</svg>
