<?xml version="1.0" encoding="UTF-8"?>
<svg xmlns="http://www.w3.org/2000/svg" xmlns:xlink="http://www.w3.org/1999/xlink" width="80px" height="80px" viewBox="0 0 80 80" version="1.1">
<g id="surface1">
<path style=" stroke:none;fill-rule:nonzero;fill:rgb(0%,0%,0%);fill-opacity:1;" d="M 79.210938 0.207031 C 78.722656 -0.0742188 78.125 -0.0664062 77.640625 0.21875 L 49.007812 17.148438 C 48.265625 17.589844 48.019531 18.546875 48.460938 19.289062 C 48.898438 20.03125 49.855469 20.277344 50.597656 19.839844 L 71.144531 7.691406 L 32.875 47.394531 L 13.84375 41.574219 L 38.683594 26.886719 C 39.425781 26.445312 39.671875 25.488281 39.230469 24.746094 C 38.792969 24.003906 37.835938 23.757812 37.09375 24.195312 L 9.203125 40.6875 C 8.671875 41 8.375 41.601562 8.449219 42.214844 C 8.523438 42.832031 8.949219 43.34375 9.542969 43.527344 L 32.273438 50.480469 L 42.300781 68.730469 C 42.308594 68.75 42.320312 68.765625 42.332031 68.78125 C 42.5 69.058594 42.75 69.289062 43.0625 69.417969 C 43.257812 69.5 43.464844 69.542969 43.667969 69.542969 C 44.070312 69.542969 44.464844 69.386719 44.761719 69.097656 L 56.292969 57.828125 L 77.980469 64.460938 C 78.128906 64.507812 78.285156 64.53125 78.4375 64.53125 C 78.769531 64.53125 79.09375 64.425781 79.367188 64.226562 C 79.765625 63.929688 80 63.464844 80 62.96875 L 80 1.5625 C 80 1 79.699219 0.484375 79.210938 0.207031 Z M 42.386719 51.441406 C 42.203125 51.703125 42.105469 52.015625 42.105469 52.332031 L 42.105469 61.890625 L 35.261719 49.425781 L 65.558594 17.988281 Z M 45.230469 64.265625 L 45.230469 54.445312 L 52.886719 56.785156 Z M 76.875 60.855469 L 46.171875 51.464844 L 76.875 7.140625 Z M 76.875 60.855469 "/>
<path style=" stroke:none;fill-rule:nonzero;fill:rgb(0%,0%,0%);fill-opacity:1;" d="M 25.691406 54.308594 C 25.082031 53.699219 24.089844 53.699219 23.480469 54.308594 L 8.894531 68.894531 C 8.285156 69.503906 8.285156 70.496094 8.894531 71.105469 C 9.199219 71.410156 9.601562 71.5625 10 71.5625 C 10.398438 71.5625 10.800781 71.410156 11.105469 71.105469 L 25.691406 56.519531 C 26.300781 55.910156 26.300781 54.917969 25.691406 54.308594 Z M 25.691406 54.308594 "/>
<path style=" stroke:none;fill-rule:nonzero;fill:rgb(0%,0%,0%);fill-opacity:1;" d="M 6.261719 73.738281 C 5.652344 73.128906 4.660156 73.128906 4.050781 73.738281 L 0.457031 77.332031 C -0.152344 77.941406 -0.152344 78.933594 0.457031 79.542969 C 0.761719 79.847656 1.164062 80 1.5625 80 C 1.960938 80 2.363281 79.847656 2.667969 79.542969 L 6.261719 75.949219 C 6.871094 75.339844 6.871094 74.347656 6.261719 73.738281 Z M 6.261719 73.738281 "/>
<path style=" stroke:none;fill-rule:nonzero;fill:rgb(0%,0%,0%);fill-opacity:1;" d="M 22.289062 77.242188 C 22 76.949219 21.59375 76.78125 21.183594 76.78125 C 20.773438 76.78125 20.371094 76.949219 20.078125 77.242188 C 19.789062 77.53125 19.621094 77.933594 19.621094 78.34375 C 19.621094 78.757812 19.789062 79.160156 20.078125 79.449219 C 20.371094 79.742188 20.773438 79.90625 21.183594 79.90625 C 21.59375 79.90625 22 79.742188 22.289062 79.449219 C 22.578125 79.160156 22.746094 78.757812 22.746094 78.34375 C 22.746094 77.933594 22.578125 77.53125 22.289062 77.242188 Z M 22.289062 77.242188 "/>
<path style=" stroke:none;fill-rule:nonzero;fill:rgb(0%,0%,0%);fill-opacity:1;" d="M 33.914062 65.613281 C 33.304688 65.003906 32.316406 65.003906 31.703125 65.613281 L 23.980469 73.339844 C 23.367188 73.949219 23.367188 74.941406 23.980469 75.550781 C 24.285156 75.855469 24.683594 76.007812 25.082031 76.007812 C 25.484375 76.007812 25.882812 75.855469 26.1875 75.550781 L 33.914062 67.824219 C 34.523438 67.214844 34.523438 66.226562 33.914062 65.613281 Z M 33.914062 65.613281 "/>
<path style=" stroke:none;fill-rule:nonzero;fill:rgb(0%,0%,0%);fill-opacity:1;" d="M 60.578125 65.023438 C 59.96875 64.410156 58.980469 64.410156 58.367188 65.023438 L 50.621094 72.769531 C 50.011719 73.378906 50.011719 74.367188 50.621094 74.976562 C 50.925781 75.285156 51.328125 75.4375 51.726562 75.4375 C 52.125 75.4375 52.527344 75.285156 52.832031 74.976562 L 60.578125 67.230469 C 61.1875 66.621094 61.1875 65.632812 60.578125 65.023438 Z M 60.578125 65.023438 "/>
<path style=" stroke:none;fill-rule:nonzero;fill:rgb(0%,0%,0%);fill-opacity:1;" d="M 44.296875 21.296875 C 44.007812 21.007812 43.601562 20.839844 43.191406 20.839844 C 42.78125 20.839844 42.378906 21.007812 42.085938 21.296875 C 41.796875 21.589844 41.628906 21.992188 41.628906 22.40625 C 41.628906 22.816406 41.796875 23.21875 42.085938 23.507812 C 42.378906 23.800781 42.78125 23.964844 43.191406 23.964844 C 43.601562 23.964844 44.007812 23.800781 44.296875 23.507812 C 44.585938 23.21875 44.753906 22.816406 44.753906 22.40625 C 44.753906 21.992188 44.585938 21.589844 44.296875 21.296875 Z M 44.296875 21.296875 "/>
</g>
</svg>
