<?xml version="1.0" encoding="UTF-8"?>
<svg xmlns="http://www.w3.org/2000/svg" xmlns:xlink="http://www.w3.org/1999/xlink" width="80px" height="80px" viewBox="0 0 80 80" version="1.1">
<g id="surface1">
<path style=" stroke:none;fill-rule:nonzero;fill:rgb(0%,0%,0%);fill-opacity:1;" d="M 28.9375 29.566406 L 29.960938 29.566406 C 30.609375 29.566406 31.132812 29.042969 31.132812 28.394531 C 31.132812 27.746094 30.609375 27.222656 29.960938 27.222656 L 29.621094 27.222656 L 29.621094 24.792969 C 29.621094 24.144531 29.09375 23.621094 28.449219 23.621094 C 27.800781 23.621094 27.277344 24.144531 27.277344 24.792969 L 27.277344 27.90625 C 27.277344 28.820312 28.019531 29.566406 28.9375 29.566406 Z M 28.9375 29.566406 "/>
<path style=" stroke:none;fill-rule:nonzero;fill:rgb(0%,0%,0%);fill-opacity:1;" d="M 34.371094 33.515625 C 34.714844 32.96875 34.554688 32.242188 34.007812 31.898438 C 33.457031 31.550781 32.734375 31.714844 32.390625 32.261719 C 31.730469 33.304688 30.292969 33.976562 28.722656 33.976562 C 27.160156 33.976562 25.71875 33.304688 25.058594 32.261719 C 24.714844 31.714844 23.988281 31.550781 23.441406 31.898438 C 22.894531 32.242188 22.734375 32.96875 23.078125 33.515625 C 24.175781 35.246094 26.339844 36.320312 28.722656 36.320312 C 31.113281 36.320312 33.273438 35.246094 34.371094 33.515625 Z M 34.371094 33.515625 "/>
<path style=" stroke:none;fill-rule:nonzero;fill:rgb(0%,0%,0%);fill-opacity:1;" d="M 35.851562 24.484375 C 36.496094 24.484375 37.023438 23.960938 37.023438 23.3125 L 37.023438 21.894531 C 37.023438 21.25 36.496094 20.722656 35.851562 20.722656 C 35.203125 20.722656 34.679688 21.25 34.679688 21.894531 L 34.679688 23.3125 C 34.679688 23.960938 35.203125 24.484375 35.851562 24.484375 Z M 35.851562 24.484375 "/>
<path style=" stroke:none;fill-rule:nonzero;fill:rgb(0%,0%,0%);fill-opacity:1;" d="M 21.597656 20.722656 C 20.949219 20.722656 20.425781 21.25 20.425781 21.894531 L 20.425781 23.3125 C 20.425781 23.960938 20.949219 24.484375 21.597656 24.484375 C 22.246094 24.484375 22.769531 23.960938 22.769531 23.3125 L 22.769531 21.894531 C 22.769531 21.25 22.246094 20.722656 21.597656 20.722656 Z M 21.597656 20.722656 "/>
<path style=" stroke:none;fill-rule:nonzero;fill:rgb(0%,0%,0%);fill-opacity:1;" d="M 58.0625 48.394531 L 58.84375 48.394531 C 59.488281 48.394531 60.015625 47.871094 60.015625 47.222656 C 60.015625 46.582031 59.5 46.0625 58.863281 46.050781 L 58.863281 44.488281 C 58.863281 43.839844 58.339844 43.316406 57.691406 43.316406 C 57.042969 43.316406 56.519531 43.839844 56.519531 44.488281 L 56.519531 46.851562 C 56.519531 47.699219 57.210938 48.394531 58.0625 48.394531 Z M 58.0625 48.394531 "/>
<path style=" stroke:none;fill-rule:nonzero;fill:rgb(0%,0%,0%);fill-opacity:1;" d="M 62.425781 51.261719 C 62.773438 50.714844 62.609375 49.988281 62.0625 49.644531 C 61.515625 49.296875 60.792969 49.460938 60.445312 50.007812 C 59.996094 50.71875 58.996094 51.179688 57.902344 51.179688 C 56.808594 51.179688 55.808594 50.71875 55.359375 50.007812 C 55.011719 49.460938 54.289062 49.296875 53.742188 49.644531 C 53.195312 49.988281 53.03125 50.714844 53.378906 51.261719 C 54.261719 52.65625 55.996094 53.523438 57.902344 53.523438 C 59.808594 53.523438 61.542969 52.65625 62.425781 51.261719 Z M 62.425781 51.261719 "/>
<path style=" stroke:none;fill-rule:nonzero;fill:rgb(0%,0%,0%);fill-opacity:1;" d="M 63.3125 44.535156 C 63.960938 44.535156 64.484375 44.011719 64.484375 43.363281 L 64.484375 42.675781 C 64.484375 42.027344 63.960938 41.503906 63.3125 41.503906 C 62.664062 41.503906 62.140625 42.027344 62.140625 42.675781 L 62.140625 43.363281 C 62.140625 44.011719 62.664062 44.535156 63.3125 44.535156 Z M 63.3125 44.535156 "/>
<path style=" stroke:none;fill-rule:nonzero;fill:rgb(0%,0%,0%);fill-opacity:1;" d="M 53.664062 43.363281 L 53.664062 42.675781 C 53.664062 42.027344 53.136719 41.503906 52.492188 41.503906 C 51.84375 41.503906 51.320312 42.027344 51.320312 42.675781 L 51.320312 43.363281 C 51.320312 44.011719 51.84375 44.535156 52.492188 44.535156 C 53.136719 44.535156 53.664062 44.011719 53.664062 43.363281 Z M 53.664062 43.363281 "/>
<path style=" stroke:none;fill-rule:nonzero;fill:rgb(0%,0%,0%);fill-opacity:1;" d="M 77.011719 64.332031 C 76.566406 63.863281 75.824219 63.84375 75.355469 64.292969 C 74.886719 64.738281 74.867188 65.480469 75.3125 65.949219 C 76.6875 67.390625 77.648438 69.582031 77.648438 71.277344 L 77.648438 77.65625 L 73.765625 77.65625 L 73.765625 73.671875 C 73.765625 73.023438 73.242188 72.5 72.59375 72.5 C 71.945312 72.5 71.421875 73.023438 71.421875 73.671875 L 71.421875 77.65625 L 44.382812 77.65625 L 44.382812 73.671875 C 44.382812 73.023438 43.855469 72.5 43.210938 72.5 C 42.5625 72.5 42.039062 73.023438 42.039062 73.671875 L 42.039062 77.65625 L 38.15625 77.65625 L 38.15625 71.277344 C 38.15625 69.15625 39.628906 66.378906 41.386719 65.171875 C 43.1875 64.261719 45.070312 63.5 46.996094 62.898438 C 48.953125 64.957031 53.015625 66.25 57.71875 66.25 C 62.429688 66.25 66.59375 64.894531 68.515625 62.808594 C 68.53125 62.8125 70.171875 63.339844 70.953125 63.640625 C 71.554688 63.871094 72.234375 63.566406 72.464844 62.960938 C 72.695312 62.355469 72.386719 61.691406 71.785156 61.449219 C 70.191406 60.800781 66.109375 59.75 64.984375 59.539062 C 64.167969 59.390625 63.488281 58.816406 63.574219 57.375 C 66.039062 56.726562 68.269531 55.347656 69.960938 53.402344 C 71.980469 51.078125 73.09375 48.101562 73.09375 45.019531 L 73.09375 36.847656 C 73.09375 36.179688 73.035156 35.5 72.914062 34.832031 C 73.109375 34.027344 72.957031 33.171875 72.472656 32.476562 C 72.332031 32.273438 72.167969 32.09375 71.988281 31.933594 C 69.941406 27.613281 65.421875 25.007812 60.636719 25.421875 L 55.164062 25.421875 C 52.78125 25.21875 50.398438 25.769531 48.359375 26.96875 L 48.359375 14.734375 C 48.359375 10.601562 46.609375 6.636719 43.5625 3.851562 C 40.511719 1.066406 36.402344 -0.3125 32.289062 0.0585938 C 31.101562 0.167969 29.910156 0.28125 28.714844 0.296875 C 27.523438 0.3125 26.34375 0.167969 25.15625 0.0585938 C 21.042969 -0.3125 16.9375 1.066406 13.886719 3.851562 C 10.835938 6.636719 9.085938 10.601562 9.085938 14.734375 L 9.085938 48.070312 C 7.925781 48.554688 6.785156 49.085938 5.660156 49.65625 C 2.167969 51.425781 0 54.960938 0 58.875 L 0 60.378906 C 0 61.027344 0.523438 61.550781 1.171875 61.550781 C 1.820312 61.550781 2.34375 61.027344 2.34375 60.378906 L 2.34375 58.875 C 2.34375 55.847656 4.019531 53.113281 6.71875 51.746094 C 9.214844 50.476562 11.808594 49.433594 14.476562 48.613281 C 16.902344 51.316406 22.351562 53.085938 28.480469 53.085938 C 34.726562 53.085938 40.210938 51.269531 42.585938 48.5 C 42.628906 48.511719 42.667969 48.523438 42.710938 48.535156 L 42.710938 55.371094 C 42.710938 56.707031 43.800781 57.796875 45.140625 57.796875 L 52.230469 57.796875 C 52.230469 58.621094 51.625 59.335938 50.820312 59.539062 C 43.003906 61.523438 40.179688 63.15625 40.140625 63.183594 C 37.714844 64.800781 35.8125 68.355469 35.8125 71.277344 L 35.8125 77.65625 L 10.980469 77.65625 L 10.980469 65.480469 C 10.980469 64.835938 10.453125 64.308594 9.808594 64.308594 C 9.160156 64.308594 8.636719 64.835938 8.636719 65.480469 L 8.636719 77.65625 L 2.34375 77.65625 L 2.34375 65.835938 C 2.34375 65.1875 1.820312 64.664062 1.171875 64.664062 C 0.523438 64.664062 0 65.1875 0 65.835938 L 0 77.8125 C 0 79.019531 0.980469 80 2.1875 80 L 77.804688 80 C 79.011719 80 79.992188 79.019531 79.992188 77.8125 L 79.992188 71.277344 C 79.992188 68.996094 78.796875 66.207031 77.011719 64.332031 Z M 52.132812 54.128906 C 50.476562 52.863281 48.503906 50.644531 48.503906 47.246094 L 48.476562 39.726562 C 51.246094 40.058594 57.828125 40.304688 61.207031 35.851562 L 61.511719 35.839844 C 61.640625 35.949219 63.78125 36.984375 64.558594 37.121094 C 65.269531 38.066406 66.765625 39.636719 67.324219 39.933594 L 67.300781 47.25 C 67.300781 50.644531 65.328125 52.863281 63.671875 54.128906 C 61.625 55.695312 59.253906 56.441406 57.902344 56.480469 C 56.550781 56.441406 54.179688 55.695312 52.132812 54.128906 Z M 57.902344 32.796875 L 59.246094 29.597656 C 59.410156 29.210938 59.953125 29.121094 60.234375 29.433594 L 62.066406 31.46875 L 61.210938 33.507812 C 61.210938 33.507812 58.472656 33.617188 58.472656 33.617188 C 58.058594 33.636719 57.734375 33.195312 57.902344 32.796875 Z M 67.296875 33.671875 C 67.296875 33.671875 70.035156 33.558594 70.035156 33.558594 C 70.460938 33.535156 70.769531 33.992188 70.605469 34.378906 L 69.257812 37.578125 C 69.09375 37.972656 68.558594 38.058594 68.273438 37.742188 L 66.4375 35.707031 Z M 69.664062 40.832031 C 70.28125 40.953125 70.75 41.496094 70.75 42.148438 L 70.75 43.339844 C 70.75 43.996094 70.273438 44.546875 69.652344 44.660156 Z M 64.371094 34.582031 L 63.460938 34.199219 L 64.136719 32.59375 L 65.046875 32.976562 Z M 69.082031 50.679688 C 69.433594 49.664062 69.644531 48.289062 69.644531 47.019531 C 69.972656 46.996094 70.292969 46.933594 70.589844 46.832031 C 70.351562 48.203125 69.835938 49.511719 69.082031 50.679688 Z M 68.839844 31.261719 L 66.992188 31.335938 C 66.867188 31.230469 66.71875 31.136719 66.558594 31.070312 L 64.441406 30.179688 C 64.28125 30.109375 64.113281 30.070312 63.945312 30.054688 C 63.945312 30.054688 61.886719 27.769531 61.84375 27.726562 C 64.609375 27.792969 67.171875 29.105469 68.839844 31.261719 Z M 55.007812 27.761719 C 55.042969 27.765625 57.699219 27.765625 57.699219 27.765625 C 57.441406 28.027344 57.234375 28.339844 57.085938 28.691406 L 55.742188 31.886719 C 55.347656 32.820312 55.457031 33.871094 56.035156 34.699219 C 56.460938 35.3125 57.089844 35.730469 57.792969 35.890625 C 54.613281 38.054688 49.832031 37.574219 48.210938 37.324219 C 47.683594 37.246094 47.15625 37.398438 46.753906 37.746094 C 46.527344 37.941406 46.355469 38.191406 46.25 38.464844 C 45.828125 38.484375 45.425781 38.570312 45.054688 38.714844 L 45.054688 36.847656 C 45.054688 34.320312 46.113281 31.890625 47.964844 30.167969 C 47.976562 30.15625 47.992188 30.144531 48.003906 30.132812 C 48.011719 30.125 48.019531 30.117188 48.027344 30.109375 C 49.914062 28.386719 52.460938 27.53125 55.007812 27.761719 Z M 37.964844 44.980469 C 36.722656 44.753906 35.824219 43.667969 35.824219 42.402344 L 35.824219 41.066406 C 36.550781 40.65625 37.273438 40.183594 37.972656 39.648438 C 40.640625 37.613281 43.816406 34.453125 43.816406 27.765625 L 43.820312 27.765625 C 44.59375 27.765625 45.378906 27.566406 46.015625 27.222656 L 46.015625 28.792969 C 43.910156 30.929688 42.710938 33.832031 42.710938 36.847656 L 42.710938 46.09375 C 41.144531 45.648438 39.554688 45.273438 37.964844 44.980469 Z M 20.898438 37.785156 C 18.652344 36.070312 15.976562 33.054688 15.976562 28.425781 L 15.933594 17.746094 C 18.328125 17.363281 23.960938 16.042969 28.722656 11.757812 C 33.484375 16.042969 39.117188 17.363281 41.515625 17.746094 L 41.472656 28.429688 C 41.472656 33.054688 38.796875 36.070312 36.550781 37.785156 C 33.78125 39.902344 30.558594 40.910156 28.722656 40.960938 C 26.886719 40.910156 23.664062 39.902344 20.898438 37.785156 Z M 46.015625 23.28125 C 46.015625 24.460938 45.007812 25.421875 43.828125 25.421875 L 43.851562 19.574219 C 45.03125 19.574219 46.015625 20.535156 46.015625 21.714844 Z M 45.054688 42.148438 C 45.054688 41.5 45.519531 40.953125 46.136719 40.832031 L 46.148438 44.660156 C 45.527344 44.542969 45.054688 43.996094 45.054688 43.339844 Z M 15.46875 5.582031 C 18.03125 3.242188 21.488281 2.078125 24.945312 2.394531 C 26.203125 2.507812 27.460938 2.652344 28.722656 2.660156 C 29.988281 2.671875 31.246094 2.507812 32.503906 2.394531 C 35.960938 2.078125 39.414062 3.242188 41.980469 5.582031 C 44.546875 7.925781 46.015625 11.257812 46.015625 14.734375 L 46.015625 17.773438 C 45.378906 17.429688 44.652344 17.230469 43.878906 17.230469 L 43.859375 17.230469 L 43.859375 17.128906 C 43.863281 16.308594 43.253906 15.613281 42.441406 15.511719 C 40.707031 15.292969 34.675781 14.226562 29.851562 9.601562 C 29.21875 9 28.230469 9 27.597656 9.601562 C 22.773438 14.226562 16.742188 15.292969 15.007812 15.511719 C 14.195312 15.613281 13.585938 16.308594 13.585938 17.128906 L 13.589844 17.230469 C 12.8125 17.230469 12.066406 17.429688 11.429688 17.773438 L 11.429688 14.734375 C 11.429688 11.257812 12.902344 7.925781 15.46875 5.582031 Z M 11.429688 21.714844 C 11.429688 20.535156 12.417969 19.574219 13.597656 19.574219 L 13.621094 25.421875 C 12.441406 25.421875 11.429688 24.460938 11.429688 23.28125 Z M 11.429688 27.222656 C 12.066406 27.566406 12.855469 27.765625 13.628906 27.765625 L 13.632812 27.765625 C 13.632812 34.296875 16.808594 37.613281 19.472656 39.648438 C 20.171875 40.183594 20.898438 40.65625 21.625 41.066406 L 21.625 42.402344 C 21.625 43.667969 20.722656 44.753906 19.484375 44.980469 C 16.738281 45.488281 14.046875 46.214844 11.429688 47.160156 Z M 28.480469 50.742188 C 23.148438 50.742188 19.222656 49.414062 17.144531 47.878906 C 18.058594 47.65625 18.980469 47.457031 19.90625 47.285156 C 22.261719 46.851562 23.96875 44.59375 23.96875 42.195312 C 25.765625 42.917969 27.453125 43.277344 28.699219 43.304688 C 28.707031 43.304688 28.714844 43.304688 28.722656 43.304688 C 28.730469 43.304688 28.742188 43.304688 28.75 43.304688 C 29.996094 43.277344 31.679688 42.917969 33.480469 42.195312 C 33.480469 44.59375 35.1875 46.851562 37.539062 47.285156 C 38.347656 47.433594 39.152344 47.605469 39.953125 47.792969 C 37.464844 49.734375 32.636719 50.742188 28.480469 50.742188 Z M 45.054688 55.371094 L 45.054688 46.773438 C 45.398438 46.910156 45.769531 46.992188 46.160156 47.019531 C 46.160156 50.917969 48.144531 53.804688 50.046875 55.453125 L 45.140625 55.453125 C 45.09375 55.453125 45.054688 55.417969 45.054688 55.371094 Z M 51.246094 61.84375 C 53.089844 61.503906 54.453125 59.953125 54.566406 58.109375 C 55.824219 58.574219 56.992188 58.804688 57.878906 58.824219 C 57.886719 58.824219 57.894531 58.824219 57.902344 58.824219 C 57.910156 58.824219 57.917969 58.824219 57.925781 58.824219 C 58.8125 58.804688 59.980469 58.574219 61.238281 58.109375 C 61.351562 59.953125 62.710938 61.503906 64.558594 61.84375 C 64.945312 61.917969 65.335938 61.996094 65.726562 62.082031 C 64.074219 63.101562 61.253906 63.90625 57.71875 63.90625 C 54.269531 63.90625 51.484375 63.128906 49.816406 62.140625 C 50.292969 62.03125 50.769531 61.933594 51.246094 61.84375 Z M 51.246094 61.84375 "/>
</g>
</svg>
