<?xml version="1.0" encoding="UTF-8"?>
<svg xmlns="http://www.w3.org/2000/svg" xmlns:xlink="http://www.w3.org/1999/xlink" width="80px" height="80px" viewBox="0 0 80 80" version="1.1">
<g id="surface1">
<path style=" stroke:none;fill-rule:nonzero;fill:rgb(0%,0%,0%);fill-opacity:1;" d="M 60.609375 8.785156 L 59.929688 8.785156 L 59.929688 4.285156 C 59.929688 2.972656 59.34375 1.75 58.316406 0.933594 C 57.289062 0.117188 55.96875 -0.183594 54.6875 0.109375 L 16.640625 8.839844 C 16.636719 8.839844 16.636719 8.839844 16.632812 8.84375 C 15.070312 9.121094 13.882812 10.488281 13.882812 12.128906 L 13.882812 31.59375 C 13.882812 32.242188 14.40625 32.765625 15.058594 32.765625 C 15.707031 32.765625 16.230469 32.242188 16.230469 31.59375 L 16.230469 12.128906 C 16.230469 11.582031 16.675781 11.136719 17.222656 11.136719 L 45.730469 11.136719 C 46.378906 11.136719 46.90625 10.609375 46.90625 9.960938 C 46.90625 9.3125 46.378906 8.785156 45.730469 8.785156 L 27.375 8.785156 L 55.214844 2.398438 C 55.792969 2.265625 56.390625 2.402344 56.851562 2.769531 C 57.316406 3.140625 57.582031 3.691406 57.582031 4.285156 L 57.582031 8.785156 L 50.429688 8.785156 C 49.78125 8.785156 49.253906 9.3125 49.253906 9.960938 C 49.253906 10.609375 49.78125 11.136719 50.429688 11.136719 L 60.609375 11.136719 C 62.351562 11.136719 63.769531 12.554688 63.769531 14.296875 L 63.769531 62.828125 C 63.769531 63.476562 64.292969 64 64.941406 64 C 65.59375 64 66.117188 63.476562 66.117188 62.828125 L 66.117188 14.296875 C 66.117188 11.257812 63.644531 8.785156 60.609375 8.785156 Z M 60.609375 8.785156 "/>
<path style=" stroke:none;fill-rule:nonzero;fill:rgb(0%,0%,0%);fill-opacity:1;" d="M 64.941406 66.347656 C 64.292969 66.347656 63.769531 66.875 63.769531 67.523438 L 63.769531 74.492188 C 63.769531 76.234375 62.351562 77.652344 60.609375 77.652344 L 17.222656 77.652344 C 16.675781 77.652344 16.230469 77.207031 16.230469 76.660156 L 16.230469 36.289062 C 16.230469 35.640625 15.703125 35.117188 15.054688 35.117188 C 14.40625 35.117188 13.882812 35.640625 13.882812 36.289062 L 13.882812 76.660156 C 13.882812 78.5 15.382812 80 17.222656 80 L 60.609375 80 C 63.644531 80 66.117188 77.527344 66.117188 74.492188 L 66.117188 67.523438 C 66.117188 66.875 65.59375 66.347656 64.941406 66.347656 Z M 64.941406 66.347656 "/>
<path style=" stroke:none;fill-rule:nonzero;fill:rgb(0%,0%,0%);fill-opacity:1;" d="M 39.953125 52.25 C 48.171875 52.25 54.859375 45.5625 54.859375 37.34375 C 54.859375 29.125 48.171875 22.4375 39.953125 22.4375 C 31.734375 22.4375 25.046875 29.125 25.046875 37.34375 C 25.046875 45.5625 31.734375 52.25 39.953125 52.25 Z M 39.953125 49.898438 C 38.78125 49.898438 37.234375 47.457031 36.429688 43.320312 L 43.480469 43.320312 C 42.671875 47.457031 41.125 49.898438 39.953125 49.898438 Z M 43.9375 49.25 C 44.234375 48.71875 44.507812 48.128906 44.757812 47.472656 C 45.226562 46.246094 45.601562 44.839844 45.867188 43.320312 L 50.996094 43.320312 C 49.488281 46.089844 46.96875 48.230469 43.9375 49.25 Z M 52.511719 37.34375 C 52.511719 38.605469 52.320312 39.824219 51.972656 40.972656 L 46.191406 40.972656 C 46.308594 39.800781 46.371094 38.582031 46.371094 37.34375 C 46.371094 36.222656 46.320312 35.121094 46.222656 34.054688 L 52.070312 34.054688 C 52.355469 35.101562 52.511719 36.203125 52.511719 37.34375 Z M 51.167969 31.707031 L 45.925781 31.707031 C 45.65625 30.054688 45.261719 28.53125 44.757812 27.214844 C 44.507812 26.558594 44.234375 25.964844 43.9375 25.4375 C 47.089844 26.496094 49.6875 28.769531 51.167969 31.707031 Z M 39.953125 24.785156 C 41.15625 24.785156 42.757812 27.363281 43.542969 31.707031 L 36.363281 31.707031 C 37.152344 27.363281 38.75 24.785156 39.953125 24.785156 Z M 43.867188 34.054688 C 43.96875 35.082031 44.023438 36.179688 44.023438 37.34375 C 44.023438 38.636719 43.953125 39.847656 43.832031 40.972656 L 36.074219 40.972656 C 35.953125 39.847656 35.882812 38.636719 35.882812 37.34375 C 35.882812 36.179688 35.941406 35.082031 36.039062 34.054688 Z M 35.96875 25.4375 C 35.675781 25.964844 35.398438 26.558594 35.148438 27.214844 C 34.644531 28.53125 34.253906 30.054688 33.980469 31.707031 L 28.738281 31.707031 C 30.21875 28.769531 32.816406 26.496094 35.96875 25.4375 Z M 27.398438 37.34375 C 27.398438 36.203125 27.550781 35.101562 27.835938 34.054688 L 33.683594 34.054688 C 33.585938 35.121094 33.535156 36.222656 33.535156 37.34375 C 33.535156 38.582031 33.597656 39.800781 33.714844 40.972656 L 27.933594 40.972656 C 27.585938 39.824219 27.398438 38.605469 27.398438 37.34375 Z M 34.039062 43.320312 C 34.308594 44.839844 34.679688 46.246094 35.148438 47.472656 C 35.398438 48.128906 35.675781 48.722656 35.96875 49.25 C 32.941406 48.230469 30.417969 46.089844 28.914062 43.320312 Z M 34.039062 43.320312 "/>
<path style=" stroke:none;fill-rule:nonzero;fill:rgb(0%,0%,0%);fill-opacity:1;" d="M 26.222656 59.53125 L 53.777344 59.53125 C 54.425781 59.53125 54.953125 59.007812 54.953125 58.359375 C 54.953125 57.710938 54.425781 57.183594 53.777344 57.183594 L 26.222656 57.183594 C 25.574219 57.183594 25.046875 57.710938 25.046875 58.359375 C 25.046875 59.007812 25.574219 59.53125 26.222656 59.53125 Z M 26.222656 59.53125 "/>
<path style=" stroke:none;fill-rule:nonzero;fill:rgb(0%,0%,0%);fill-opacity:1;" d="M 31.425781 64 C 30.777344 64 30.25 64.527344 30.25 65.175781 C 30.25 65.824219 30.777344 66.347656 31.425781 66.347656 L 48.574219 66.347656 C 49.226562 66.347656 49.75 65.824219 49.75 65.175781 C 49.75 64.527344 49.226562 64 48.574219 64 Z M 31.425781 64 "/>
</g>
</svg>
