<?xml version="1.0" encoding="UTF-8"?>
<svg xmlns="http://www.w3.org/2000/svg" xmlns:xlink="http://www.w3.org/1999/xlink" width="80px" height="80px" viewBox="0 0 80 80" version="1.1">
<g id="surface1">
<path style=" stroke:none;fill-rule:nonzero;fill:rgb(0%,0%,0%);fill-opacity:1;" d="M 8.0625 80 L 72.0625 80 C 74.273438 80 76.0625 78.210938 76.0625 76 L 76.0625 60 C 76.0625 57.792969 74.273438 56 72.0625 56 L 49.042969 56 L 52.164062 53.667969 C 60.460938 47.75 65.390625 38.191406 65.394531 28 L 65.394531 6.667969 C 65.394531 6.160156 65.109375 5.699219 64.65625 5.472656 C 56.9375 1.933594 48.554688 0.0703125 40.0625 0 C 31.570312 0.0703125 23.1875 1.933594 15.464844 5.472656 C 15.015625 5.699219 14.730469 6.160156 14.730469 6.667969 L 14.730469 28 C 14.734375 38.191406 19.664062 47.75 27.960938 53.667969 L 31.082031 56 L 8.0625 56 C 5.851562 56 4.0625 57.792969 4.0625 60 L 4.0625 76 C 4.0625 78.210938 5.851562 80 8.0625 80 Z M 17.394531 28 L 17.394531 7.519531 C 24.558594 4.421875 32.261719 2.773438 40.0625 2.667969 C 47.863281 2.773438 55.566406 4.421875 62.730469 7.519531 L 62.730469 28 C 62.714844 37.347656 58.183594 46.113281 50.566406 51.53125 L 40.863281 58.78125 C 40.386719 59.132812 39.738281 59.132812 39.261719 58.78125 L 29.558594 51.53125 C 21.941406 46.113281 17.410156 37.347656 17.394531 28 Z M 6.730469 60 C 6.730469 59.265625 7.324219 58.667969 8.0625 58.667969 L 34.648438 58.667969 L 37.664062 60.917969 C 39.089844 61.976562 41.039062 61.976562 42.464844 60.917969 L 45.472656 58.667969 L 72.0625 58.667969 C 72.800781 58.667969 73.394531 59.265625 73.394531 60 L 73.394531 76 C 73.394531 76.738281 72.800781 77.332031 72.0625 77.332031 L 8.0625 77.332031 C 7.324219 77.332031 6.730469 76.738281 6.730469 76 Z M 6.730469 60 "/>
<path style=" stroke:none;fill-rule:nonzero;fill:rgb(0%,0%,0%);fill-opacity:1;" d="M 10.40625 67.960938 L 13.789062 68.808594 L 10.996094 72.535156 C 10.554688 73.121094 10.671875 73.957031 11.261719 74.398438 C 11.851562 74.84375 12.6875 74.722656 13.128906 74.132812 L 16.0625 70.222656 L 18.996094 74.132812 C 19.4375 74.722656 20.273438 74.84375 20.863281 74.398438 C 21.453125 73.957031 21.570312 73.121094 21.128906 72.535156 L 18.328125 68.800781 L 21.714844 67.953125 C 22.179688 67.839844 22.546875 67.488281 22.679688 67.027344 C 22.8125 66.566406 22.6875 66.070312 22.355469 65.726562 C 22.023438 65.386719 21.53125 65.246094 21.066406 65.367188 L 17.394531 66.292969 L 17.394531 62.667969 C 17.394531 61.929688 16.796875 61.332031 16.0625 61.332031 C 15.324219 61.332031 14.730469 61.929688 14.730469 62.667969 L 14.730469 66.292969 L 11.054688 65.375 C 10.589844 65.253906 10.097656 65.390625 9.765625 65.734375 C 9.429688 66.078125 9.304688 66.574219 9.4375 67.035156 C 9.570312 67.492188 9.941406 67.847656 10.40625 67.960938 Z M 10.40625 67.960938 "/>
<path style=" stroke:none;fill-rule:nonzero;fill:rgb(0%,0%,0%);fill-opacity:1;" d="M 26.40625 67.960938 L 29.789062 68.808594 L 26.992188 72.539062 C 26.546875 73.128906 26.667969 73.964844 27.257812 74.40625 C 27.847656 74.847656 28.683594 74.730469 29.125 74.140625 L 32.0625 70.222656 L 34.996094 74.132812 C 35.4375 74.722656 36.273438 74.84375 36.863281 74.398438 C 37.453125 73.957031 37.570312 73.121094 37.128906 72.535156 L 34.328125 68.800781 L 37.714844 67.953125 C 38.179688 67.839844 38.546875 67.488281 38.679688 67.027344 C 38.8125 66.566406 38.691406 66.070312 38.355469 65.726562 C 38.023438 65.386719 37.53125 65.246094 37.066406 65.367188 L 33.394531 66.292969 L 33.394531 62.667969 C 33.394531 61.929688 32.800781 61.332031 32.0625 61.332031 C 31.328125 61.332031 30.730469 61.929688 30.730469 62.667969 L 30.730469 66.292969 L 27.054688 65.375 C 26.339844 65.199219 25.625 65.632812 25.445312 66.34375 C 25.265625 67.054688 25.695312 67.777344 26.40625 67.960938 Z M 26.40625 67.960938 "/>
<path style=" stroke:none;fill-rule:nonzero;fill:rgb(0%,0%,0%);fill-opacity:1;" d="M 42.40625 67.960938 L 45.789062 68.808594 L 42.992188 72.539062 C 42.703125 72.921875 42.644531 73.425781 42.832031 73.863281 C 43.019531 74.300781 43.425781 74.605469 43.898438 74.664062 C 44.371094 74.71875 44.839844 74.519531 45.125 74.140625 L 48.0625 70.222656 L 50.996094 74.132812 C 51.28125 74.515625 51.75 74.714844 52.222656 74.65625 C 52.695312 74.601562 53.101562 74.296875 53.289062 73.855469 C 53.476562 73.417969 53.414062 72.914062 53.128906 72.535156 L 50.328125 68.800781 L 53.714844 67.953125 C 54.179688 67.839844 54.546875 67.488281 54.679688 67.027344 C 54.8125 66.566406 54.6875 66.070312 54.355469 65.726562 C 54.023438 65.386719 53.53125 65.246094 53.066406 65.367188 L 49.394531 66.292969 L 49.394531 62.667969 C 49.394531 61.929688 48.800781 61.332031 48.0625 61.332031 C 47.324219 61.332031 46.730469 61.929688 46.730469 62.667969 L 46.730469 66.292969 L 43.054688 65.375 C 42.339844 65.199219 41.621094 65.632812 41.445312 66.34375 C 41.265625 67.054688 41.695312 67.777344 42.40625 67.960938 Z M 42.40625 67.960938 "/>
<path style=" stroke:none;fill-rule:nonzero;fill:rgb(0%,0%,0%);fill-opacity:1;" d="M 58.40625 67.960938 L 61.789062 68.808594 L 58.992188 72.539062 C 58.703125 72.921875 58.644531 73.425781 58.832031 73.863281 C 59.019531 74.300781 59.425781 74.605469 59.898438 74.664062 C 60.371094 74.71875 60.839844 74.519531 61.125 74.140625 L 64.0625 70.222656 L 66.996094 74.132812 C 67.28125 74.515625 67.75 74.714844 68.222656 74.65625 C 68.695312 74.601562 69.101562 74.296875 69.289062 73.855469 C 69.476562 73.417969 69.414062 72.914062 69.128906 72.535156 L 66.328125 68.800781 L 69.714844 67.953125 C 70.425781 67.769531 70.851562 67.050781 70.675781 66.339844 C 70.496094 65.628906 69.777344 65.195312 69.066406 65.367188 L 65.394531 66.292969 L 65.394531 62.667969 C 65.394531 61.929688 64.796875 61.332031 64.0625 61.332031 C 63.328125 61.332031 62.730469 61.929688 62.730469 62.667969 L 62.730469 66.292969 L 59.054688 65.375 C 58.589844 65.253906 58.097656 65.390625 57.765625 65.734375 C 57.429688 66.078125 57.304688 66.574219 57.4375 67.035156 C 57.570312 67.492188 57.941406 67.847656 58.40625 67.960938 Z M 58.40625 67.960938 "/>
<path style=" stroke:none;fill-rule:nonzero;fill:rgb(0%,0%,0%);fill-opacity:1;" d="M 42.28125 53.457031 L 48.863281 49.066406 C 56.292969 43.515625 60.0625 36.425781 60.0625 28 L 60.0625 10.667969 C 60.0625 10.136719 59.75 9.65625 59.261719 9.441406 C 47.046875 3.988281 33.085938 3.988281 20.871094 9.441406 C 20.382812 9.652344 20.0625 10.132812 20.0625 10.667969 L 20.0625 28 C 20.0625 36.425781 23.832031 43.515625 31.261719 49.066406 L 31.320312 49.109375 L 37.839844 53.453125 C 39.183594 54.355469 40.9375 54.355469 42.28125 53.453125 Z M 32.832031 46.910156 C 26.128906 41.890625 22.730469 35.527344 22.730469 28 L 22.730469 11.550781 C 33.800781 6.816406 46.324219 6.816406 57.394531 11.550781 L 57.394531 28 C 57.394531 35.539062 53.984375 41.910156 47.324219 46.890625 L 40.804688 51.238281 C 40.355469 51.539062 39.769531 51.539062 39.320312 51.238281 Z M 32.832031 46.910156 "/>
<path style=" stroke:none;fill-rule:nonzero;fill:rgb(0%,0%,0%);fill-opacity:1;" d="M 49.394531 36 L 49.394531 28 C 49.390625 26.3125 48.320312 24.808594 46.730469 24.246094 L 46.730469 22.667969 C 46.730469 18.984375 43.746094 16 40.0625 16 C 36.378906 16 33.394531 18.984375 33.394531 22.667969 L 33.394531 24.246094 C 31.804688 24.808594 30.734375 26.3125 30.730469 28 L 30.730469 36 C 30.730469 38.210938 32.519531 40 34.730469 40 L 45.394531 40 C 47.605469 40 49.394531 38.210938 49.394531 36 Z M 36.0625 22.667969 C 36.0625 20.457031 37.851562 18.667969 40.0625 18.667969 C 42.273438 18.667969 44.0625 20.457031 44.0625 22.667969 L 44.0625 24 L 36.0625 24 Z M 33.394531 36 L 33.394531 28 C 33.394531 27.265625 33.992188 26.667969 34.730469 26.667969 L 45.394531 26.667969 C 46.132812 26.667969 46.730469 27.265625 46.730469 28 L 46.730469 36 C 46.730469 36.738281 46.132812 37.332031 45.394531 37.332031 L 34.730469 37.332031 C 33.992188 37.332031 33.394531 36.738281 33.394531 36 Z M 33.394531 36 "/>
<path style=" stroke:none;fill-rule:nonzero;fill:rgb(0%,0%,0%);fill-opacity:1;" d="M 40.0625 29.332031 C 39.328125 29.332031 38.730469 29.929688 38.730469 30.667969 L 38.730469 33.332031 C 38.730469 34.070312 39.328125 34.667969 40.0625 34.667969 C 40.800781 34.667969 41.394531 34.070312 41.394531 33.332031 L 41.394531 30.667969 C 41.394531 29.929688 40.800781 29.332031 40.0625 29.332031 Z M 40.0625 29.332031 "/>
</g>
</svg>
