<?xml version="1.0" encoding="UTF-8"?>
<svg xmlns="http://www.w3.org/2000/svg" xmlns:xlink="http://www.w3.org/1999/xlink" width="80px" height="80px" viewBox="0 0 80 80" version="1.1">
<g id="surface1">
<path style=" stroke:none;fill-rule:nonzero;fill:rgb(0%,0%,0%);fill-opacity:1;" d="M 40 3.75 C 31.167969 3.746094 22.640625 6.96875 16.019531 12.8125 C 15.503906 13.269531 15.453125 14.058594 15.910156 14.578125 C 16.371094 15.097656 17.160156 15.144531 17.675781 14.6875 C 31.285156 2.695312 51.9375 3.609375 64.433594 16.753906 C 76.929688 29.902344 76.789062 50.578125 64.121094 63.554688 C 51.453125 76.535156 30.785156 77.171875 17.339844 64.996094 C 3.894531 52.824219 2.484375 32.195312 14.144531 18.304688 C 14.589844 17.777344 14.523438 16.988281 13.996094 16.542969 C 13.464844 16.097656 12.675781 16.167969 12.234375 16.695312 C 1.304688 29.714844 0.890625 48.578125 11.238281 62.0625 C 21.582031 75.550781 39.910156 80.035156 55.316406 72.855469 C 70.722656 65.671875 79.066406 48.75 75.390625 32.15625 C 71.710938 15.5625 56.996094 3.75 40 3.75 Z M 40 3.75 "/>
<path style=" stroke:none;fill-rule:nonzero;fill:rgb(0%,0%,0%);fill-opacity:1;" d="M 60.980469 59.699219 C 61.503906 60.148438 62.292969 60.089844 62.742188 59.566406 C 71.9375 48.875 72.449219 33.222656 63.96875 21.957031 C 55.484375 10.691406 40.304688 6.851562 27.488281 12.734375 C 14.671875 18.613281 7.679688 32.628906 10.691406 46.402344 C 13.699219 60.179688 25.898438 70 40 70 C 46.789062 70.027344 53.378906 67.722656 58.675781 63.476562 C 59.054688 63.210938 59.257812 62.753906 59.199219 62.296875 C 59.140625 61.835938 58.828125 61.445312 58.394531 61.28125 C 57.960938 61.121094 57.472656 61.214844 57.125 61.523438 C 52.269531 65.414062 46.222656 67.527344 40 67.5 C 27.074219 67.5 15.894531 58.496094 13.132812 45.867188 C 10.375 33.242188 16.785156 20.394531 28.53125 15.003906 C 40.28125 9.613281 54.199219 13.132812 61.972656 23.460938 C 69.746094 33.789062 69.277344 48.136719 60.847656 57.933594 C 60.398438 58.457031 60.457031 59.246094 60.980469 59.699219 Z M 60.980469 59.699219 "/>
<path style=" stroke:none;fill-rule:nonzero;fill:rgb(0%,0%,0%);fill-opacity:1;" d="M 32.5 26.25 C 33.878906 26.25 35 27.371094 35 28.75 C 35 29.441406 35.558594 30 36.25 30 C 36.941406 30 37.5 29.441406 37.5 28.75 C 37.5 25.988281 35.261719 23.75 32.5 23.75 C 29.738281 23.75 27.5 25.988281 27.5 28.75 L 27.5 51.25 C 27.5 54.011719 29.738281 56.25 32.5 56.25 C 35.261719 56.25 37.5 54.011719 37.5 51.25 L 37.5 33.75 C 37.5 33.058594 36.941406 32.5 36.25 32.5 C 35.558594 32.5 35 33.058594 35 33.75 L 35 51.25 C 35 52.628906 33.878906 53.75 32.5 53.75 C 31.121094 53.75 30 52.628906 30 51.25 L 30 28.75 C 30 27.371094 31.121094 26.25 32.5 26.25 Z M 32.5 26.25 "/>
<path style=" stroke:none;fill-rule:nonzero;fill:rgb(0%,0%,0%);fill-opacity:1;" d="M 47.5 53.75 C 46.121094 53.75 45 52.628906 45 51.25 C 45 50.558594 44.441406 50 43.75 50 C 43.058594 50 42.5 50.558594 42.5 51.25 C 42.5 54.011719 44.738281 56.25 47.5 56.25 C 50.261719 56.25 52.5 54.011719 52.5 51.25 L 52.5 28.75 C 52.5 25.988281 50.261719 23.75 47.5 23.75 C 44.738281 23.75 42.5 25.988281 42.5 28.75 L 42.5 46.25 C 42.5 46.941406 43.058594 47.5 43.75 47.5 C 44.441406 47.5 45 46.941406 45 46.25 L 45 28.75 C 45 27.371094 46.121094 26.25 47.5 26.25 C 48.878906 26.25 50 27.371094 50 28.75 L 50 51.25 C 50 52.628906 48.878906 53.75 47.5 53.75 Z M 47.5 53.75 "/>
</g>
</svg>
