<?xml version="1.0" encoding="UTF-8"?>
<svg xmlns="http://www.w3.org/2000/svg" xmlns:xlink="http://www.w3.org/1999/xlink" width="80px" height="80px" viewBox="0 0 80 80" version="1.1">
<g id="surface1">
<path style=" stroke:none;fill-rule:nonzero;fill:rgb(0%,0%,0%);fill-opacity:1;" d="M 1.761719 69.753906 L 69.753906 1.757812 L 78.238281 10.242188 L 10.246094 78.238281 Z M 1.761719 69.753906 "/>
<path style=" stroke:none;fill-rule:nonzero;fill:rgb(0%,0%,0%);fill-opacity:1;" d="M 61.175781 42.355469 C 50.796875 42.355469 42.351562 50.796875 42.351562 61.175781 C 42.351562 71.558594 50.796875 80 61.175781 80 C 71.554688 80 80 71.558594 80 61.175781 C 80 50.796875 71.554688 42.355469 61.175781 42.355469 Z M 61.175781 68 C 57.414062 68 54.351562 64.941406 54.351562 61.179688 C 54.351562 57.417969 57.414062 54.355469 61.175781 54.355469 C 64.9375 54.355469 68 57.414062 68 61.179688 C 68 64.941406 64.9375 68 61.175781 68 Z M 61.175781 68 "/>
<path style=" stroke:none;fill-rule:nonzero;fill:rgb(0%,0%,0%);fill-opacity:1;" d="M 18.824219 37.644531 C 29.203125 37.644531 37.644531 29.199219 37.644531 18.824219 C 37.644531 8.441406 29.203125 0 18.824219 0 C 8.445312 0 0 8.441406 0 18.824219 C 0 29.203125 8.445312 37.644531 18.824219 37.644531 Z M 18.824219 12 C 22.585938 12 25.644531 15.0625 25.644531 18.824219 C 25.644531 22.582031 22.585938 25.644531 18.824219 25.644531 C 15.0625 25.644531 12 22.585938 12 18.824219 C 12 15.0625 15.0625 12 18.824219 12 Z M 18.824219 12 "/>
</g>
</svg>
