<?xml version="1.0" encoding="UTF-8"?>
<svg xmlns="http://www.w3.org/2000/svg" xmlns:xlink="http://www.w3.org/1999/xlink" width="80px" height="80px" viewBox="0 0 80 80" version="1.1">
<g id="surface1">
<path style=" stroke:none;fill-rule:nonzero;fill:rgb(0%,0%,0%);fill-opacity:1;" d="M 70.667969 32 L 69.332031 32 L 69.332031 13.332031 C 69.332031 5.96875 63.363281 0 56 0 C 48.636719 0 42.667969 5.96875 42.667969 13.332031 L 42.667969 33.332031 C 42.667969 34.070312 43.261719 34.667969 44 34.667969 L 70.667969 34.667969 C 74.347656 34.671875 77.328125 37.652344 77.332031 41.332031 L 77.332031 73.332031 C 77.332031 75.027344 76.261719 76.539062 74.667969 77.105469 L 74.667969 66.667969 C 74.664062 64.234375 73.019531 62.113281 70.667969 61.503906 L 70.667969 44 L 68 44 L 68 61.332031 L 61.332031 61.332031 C 59.570312 61.332031 57.921875 62.207031 56.929688 63.664062 L 53.792969 46.429688 C 53.402344 44.25 51.503906 42.667969 49.292969 42.667969 L 29.332031 42.667969 L 29.332031 45.332031 L 49.292969 45.332031 C 50.214844 45.335938 51.007812 45.996094 51.167969 46.90625 L 55.734375 72 L 13.113281 72 L 8.550781 46.910156 C 8.417969 46.1875 8.898438 45.488281 9.625 45.355469 C 9.707031 45.339844 9.785156 45.332031 9.867188 45.332031 L 17.332031 45.332031 L 17.332031 42.667969 L 9.867188 42.667969 C 7.65625 42.667969 5.863281 44.460938 5.863281 46.671875 C 5.863281 46.910156 5.886719 47.148438 5.929688 47.386719 L 10.667969 73.453125 L 10.667969 78.667969 C 10.667969 79.402344 11.261719 80 12 80 L 73.332031 80 C 77.011719 79.996094 79.996094 77.011719 80 73.332031 L 80 41.332031 C 79.996094 36.179688 75.820312 32.003906 70.667969 32 Z M 56 2.667969 C 61.371094 2.675781 65.902344 6.671875 66.582031 12 L 45.417969 12 C 46.097656 6.671875 50.628906 2.675781 56 2.667969 Z M 66.664062 15.144531 C 66.632812 16.617188 65.71875 17.925781 64.34375 18.457031 C 63.507812 18.769531 62.578125 18.730469 61.769531 18.34375 C 61.304688 18.125 60.894531 17.804688 60.566406 17.40625 Z M 57.40625 17.121094 C 57.59375 17.667969 57.855469 18.1875 58.183594 18.667969 L 53.816406 18.667969 C 54.144531 18.1875 54.40625 17.667969 54.59375 17.121094 C 54.828125 16.4375 54.476562 15.691406 53.796875 15.4375 L 51.714844 14.667969 L 60.285156 14.667969 L 58.203125 15.4375 C 57.523438 15.691406 57.171875 16.4375 57.40625 17.121094 Z M 51.433594 17.40625 C 51.105469 17.804688 50.695312 18.125 50.230469 18.34375 C 49.421875 18.730469 48.492188 18.769531 47.65625 18.457031 C 46.28125 17.921875 45.367188 16.617188 45.335938 15.144531 Z M 66.667969 32 L 45.332031 32 L 45.332031 21.332031 L 48.746094 21.332031 C 48.765625 21.332031 48.789062 21.335938 48.8125 21.335938 C 48.828125 21.335938 48.847656 21.332031 48.863281 21.332031 L 63.128906 21.332031 C 63.148438 21.332031 63.167969 21.335938 63.1875 21.335938 C 63.214844 21.335938 63.238281 21.332031 63.261719 21.332031 L 66.667969 21.332031 Z M 56 77.332031 L 13.332031 77.332031 L 13.332031 74.667969 L 56 74.667969 Z M 72 77.332031 L 58.667969 77.332031 L 58.667969 74.667969 L 72 74.667969 Z M 72 72 L 58.667969 72 L 58.667969 66.667969 C 58.667969 65.195312 59.863281 64 61.332031 64 L 69.332031 64 C 70.804688 64 72 65.195312 72 66.667969 Z M 72 72 "/>
<path style=" stroke:none;fill-rule:nonzero;fill:rgb(0%,0%,0%);fill-opacity:1;" d="M 54.351562 25.332031 L 52 25.332031 L 52 28 L 54.351562 28 C 56.519531 27.996094 58.65625 27.492188 60.597656 26.527344 L 59.402344 24.140625 C 57.835938 24.921875 56.105469 25.332031 54.351562 25.332031 Z M 54.351562 25.332031 "/>
<path style=" stroke:none;fill-rule:nonzero;fill:rgb(0%,0%,0%);fill-opacity:1;" d="M 13.011719 56.273438 L 15.628906 55.765625 L 17.996094 67.992188 L 15.375 68.5 Z M 13.011719 56.273438 "/>
<path style=" stroke:none;fill-rule:nonzero;fill:rgb(0%,0%,0%);fill-opacity:1;" d="M 12.027344 50.910156 L 14.652344 50.433594 L 15.136719 53.101562 L 12.515625 53.578125 Z M 12.027344 50.910156 "/>
<path style=" stroke:none;fill-rule:nonzero;fill:rgb(0%,0%,0%);fill-opacity:1;" d="M 25.773438 48.992188 C 26.320312 49.484375 27.164062 49.4375 27.65625 48.890625 C 27.980469 48.535156 28.082031 48.035156 27.929688 47.578125 L 24.515625 37.332031 L 34.667969 37.332031 C 37.609375 37.328125 39.996094 34.945312 40 32 L 40 5.332031 C 39.996094 2.390625 37.609375 0.00390625 34.667969 0 L 5.332031 0 C 2.390625 0.00390625 0.00390625 2.390625 0 5.332031 L 0 32 C 0.00390625 34.945312 2.390625 37.328125 5.332031 37.332031 L 12.820312 37.332031 Z M 13.332031 2.667969 L 16 2.667969 L 16 20.667969 C 16 23.980469 18.6875 26.667969 22 26.667969 C 25.3125 26.667969 28 23.980469 28 20.667969 L 28 18.667969 C 28 17.929688 27.402344 17.332031 26.667969 17.332031 L 25.394531 17.332031 L 30.667969 10.550781 L 30.667969 20.667969 C 30.667969 25.453125 26.785156 29.332031 22 29.332031 C 17.214844 29.332031 13.332031 25.453125 13.332031 20.667969 Z M 2.667969 32 L 2.667969 5.332031 C 2.667969 3.863281 3.863281 2.667969 5.332031 2.667969 L 10.667969 2.667969 L 10.667969 20.667969 C 10.667969 26.925781 15.742188 32 22 32 C 28.257812 32 33.332031 26.925781 33.332031 20.667969 L 33.332031 6.667969 C 33.332031 5.929688 32.738281 5.332031 32 5.332031 C 31.589844 5.332031 31.199219 5.523438 30.949219 5.847656 L 21.613281 17.847656 C 21.164062 18.429688 21.265625 19.265625 21.847656 19.71875 C 22.082031 19.902344 22.371094 20 22.667969 20 L 25.332031 20 L 25.332031 20.667969 C 25.332031 22.507812 23.839844 24 22 24 C 20.160156 24 18.667969 22.507812 18.667969 20.667969 L 18.667969 2.667969 L 34.667969 2.667969 C 36.136719 2.667969 37.332031 3.863281 37.332031 5.332031 L 37.332031 32 C 37.332031 33.472656 36.136719 34.664062 34.667969 34.667969 L 22.667969 34.667969 C 21.929688 34.667969 21.332031 35.261719 21.332031 36 C 21.332031 36.144531 21.355469 36.285156 21.402344 36.421875 L 23.804688 43.628906 L 14.226562 35.007812 C 13.980469 34.789062 13.664062 34.667969 13.332031 34.667969 L 5.332031 34.667969 C 3.863281 34.664062 2.667969 33.472656 2.667969 32 Z M 2.667969 32 "/>
</g>
</svg>
