<?xml version="1.0" encoding="UTF-8"?>
<svg xmlns="http://www.w3.org/2000/svg" xmlns:xlink="http://www.w3.org/1999/xlink" width="80px" height="80px" viewBox="0 0 80 80" version="1.1">
<g id="surface1">
<path style=" stroke:none;fill-rule:nonzero;fill:rgb(0%,0%,0%);fill-opacity:1;" d="M 73.683594 52.671875 C 68.75 52.671875 63.914062 51.902344 59.335938 50.390625 C 57.097656 49.621094 54.558594 50.214844 53.089844 51.714844 L 44.007812 58.574219 C 33.585938 53.011719 26.917969 46.34375 21.433594 36 L 28.105469 27.132812 C 29.785156 25.453125 30.386719 22.992188 29.667969 20.691406 C 28.144531 16.078125 27.367188 11.242188 27.367188 6.316406 C 27.367188 2.832031 24.535156 0 21.050781 0 L 6.316406 0 C 2.832031 0 0 2.832031 0 6.316406 C 0 46.941406 33.058594 80 73.683594 80 C 77.167969 80 80 77.167969 80 73.683594 L 80 58.988281 C 80 55.507812 77.167969 52.671875 73.683594 52.671875 Z M 73.683594 52.671875 "/>
</g>
</svg>
