<?xml version="1.0" encoding="UTF-8"?>
<svg xmlns="http://www.w3.org/2000/svg" xmlns:xlink="http://www.w3.org/1999/xlink" width="80px" height="80px" viewBox="0 0 80 80" version="1.1">
<g id="surface1">
<path style=" stroke:none;fill-rule:nonzero;fill:rgb(0%,0%,0%);fill-opacity:1;" d="M 72.964844 47.589844 L 60.464844 42.589844 C 60.121094 42.453125 59.730469 42.472656 59.402344 42.648438 C 59.078125 42.828125 58.847656 43.140625 58.773438 43.503906 L 58.570312 44.515625 L 55.761719 43.890625 L 53.539062 40.554688 C 53.347656 40.265625 53.039062 40.066406 52.691406 40.015625 C 52.347656 39.960938 51.992188 40.054688 51.71875 40.273438 L 51.675781 40.308594 L 51.023438 37.691406 C 52.878906 35.507812 54.277344 32.835938 54.78125 29.859375 C 57.535156 29.144531 58.75 25.640625 58.75 23.75 C 58.75 22.125 58.113281 21.304688 57.5 20.886719 L 57.5 17.5 C 57.5 6.703125 50.796875 0 40 0 C 35.113281 0 33.132812 1.382812 29.46875 5.015625 C 22.5 5.390625 22.5 13.238281 22.5 17.5 L 22.5 20.886719 C 21.886719 21.304688 21.25 22.125 21.25 23.75 C 21.25 25.636719 22.460938 29.136719 25.210938 29.859375 C 25.710938 32.914062 27.128906 35.554688 28.976562 37.691406 L 28.320312 40.304688 L 28.28125 40.273438 C 28.007812 40.054688 27.652344 39.960938 27.308594 40.015625 C 26.960938 40.070312 26.65625 40.265625 26.460938 40.558594 L 24.238281 43.890625 L 21.429688 44.515625 L 21.226562 43.503906 C 21.152344 43.140625 20.921875 42.828125 20.597656 42.652344 C 20.269531 42.472656 19.878906 42.453125 19.535156 42.589844 L 7.035156 47.589844 C 6.476562 47.8125 6.15625 48.40625 6.273438 48.996094 L 7.523438 55.246094 C 7.597656 55.609375 7.828125 55.921875 8.15625 56.101562 C 8.339844 56.199219 8.546875 56.25 8.75 56.25 C 8.808594 56.25 8.863281 56.226562 8.921875 56.21875 C 8.8125 56.921875 8.75 57.632812 8.75 58.355469 L 8.75 78.75 C 8.75 79.441406 9.308594 80 10 80 C 10.691406 80 11.25 79.441406 11.25 78.75 L 11.25 58.355469 C 11.25 57.265625 11.414062 56.195312 11.722656 55.160156 L 21.714844 51.160156 C 22.273438 50.9375 22.59375 50.347656 22.476562 49.753906 L 21.917969 46.96875 L 24.5 46.394531 L 32.761719 57.019531 C 32.96875 57.28125 33.269531 57.453125 33.601562 57.492188 C 33.652344 57.496094 33.703125 57.5 33.75 57.5 C 34.03125 57.5 34.308594 57.402344 34.53125 57.226562 L 36.449219 55.691406 L 37.464844 57.726562 L 35.007812 78.605469 C 34.929688 79.289062 35.417969 79.910156 36.105469 79.992188 C 36.152344 79.996094 36.203125 80 36.25 80 C 36.875 80 37.417969 79.53125 37.492188 78.894531 L 39.859375 58.75 L 40.140625 58.75 L 42.507812 78.894531 C 42.582031 79.53125 43.125 80 43.75 80 C 43.796875 80 43.847656 79.996094 43.894531 79.992188 C 44.582031 79.910156 45.070312 79.289062 44.992188 78.605469 L 42.535156 57.726562 L 43.550781 55.691406 L 45.46875 57.226562 C 45.691406 57.402344 45.96875 57.5 46.25 57.5 C 46.296875 57.5 46.347656 57.496094 46.394531 57.492188 C 46.730469 57.453125 47.03125 57.28125 47.234375 57.015625 L 55.5 46.390625 L 58.082031 46.96875 L 57.523438 49.753906 C 57.40625 50.34375 57.726562 50.9375 58.285156 51.160156 L 68.277344 55.15625 C 68.585938 56.195312 68.75 57.265625 68.75 58.355469 L 68.75 78.75 C 68.75 79.441406 69.308594 80 70 80 C 70.691406 80 71.25 79.441406 71.25 78.75 L 71.25 58.355469 C 71.25 57.632812 71.1875 56.921875 71.078125 56.21875 C 71.136719 56.226562 71.191406 56.25 71.25 56.25 C 71.453125 56.25 71.660156 56.199219 71.847656 56.097656 C 72.171875 55.921875 72.402344 55.609375 72.476562 55.246094 L 73.726562 48.996094 C 73.84375 48.40625 73.523438 47.8125 72.964844 47.589844 Z M 15.132812 47.042969 L 15.886719 50.800781 L 14.3125 51.429688 L 13.558594 47.671875 Z M 11.199219 48.617188 L 11.949219 52.375 L 9.679688 53.28125 L 8.929688 49.523438 Z M 18.246094 49.855469 L 17.492188 46.097656 L 19.070312 45.46875 L 19.820312 49.222656 Z M 55 26.871094 L 55 23.222656 C 55.609375 22.917969 56 22.902344 56.089844 22.949219 C 56.113281 22.960938 56.25 23.167969 56.25 23.75 C 56.25 24.636719 55.78125 26.058594 55 26.871094 Z M 30 7.5 C 30.332031 7.5 30.648438 7.367188 30.882812 7.132812 C 34.640625 3.378906 35.929688 2.5 40 2.5 C 49.390625 2.5 55 8.109375 55 17.5 L 55 20.566406 C 54.8125 20.613281 54.625 20.660156 54.429688 20.734375 C 53.914062 19.421875 53.058594 17.542969 52.132812 16.617188 C 50.445312 14.925781 46.273438 14.636719 41.441406 14.300781 C 37.71875 14.039062 33.496094 13.746094 31.941406 12.710938 C 31.558594 12.453125 31.066406 12.429688 30.660156 12.648438 C 30.253906 12.863281 30 13.289062 30 13.75 C 30 17.066406 27.351562 19.855469 26.117188 20.976562 C 25.734375 20.785156 25.363281 20.660156 25 20.566406 L 25 17.5 C 25 12.230469 25.382812 7.5 30 7.5 Z M 23.910156 22.949219 C 23.996094 22.902344 24.390625 22.917969 25 23.222656 L 25 26.871094 C 24.21875 26.058594 23.75 24.632812 23.75 23.75 C 23.75 23.167969 23.886719 22.960938 23.910156 22.949219 Z M 27.5 23.09375 C 28.675781 22.085938 31.542969 19.304688 32.308594 15.59375 C 34.589844 16.328125 37.859375 16.554688 41.269531 16.792969 C 44.863281 17.046875 49.339844 17.355469 50.367188 18.382812 C 51.089844 19.109375 52.027344 21.34375 52.5 22.710938 L 52.5 27.5 C 52.5 35.074219 44.898438 41.25 40 41.25 C 35.722656 41.25 27.5 35.445312 27.5 27.5 Z M 31.039062 39.742188 C 34.046875 42.304688 37.550781 43.75 40 43.75 C 42.710938 43.75 46.09375 42.261719 48.964844 39.765625 L 49.53125 42.023438 L 40 49.648438 L 30.46875 42.023438 Z M 33.957031 54.484375 L 26.539062 44.945312 L 27.78125 43.078125 L 38 51.25 Z M 40.476562 56.25 L 39.523438 56.25 L 38.445312 54.09375 L 40 52.851562 L 41.554688 54.09375 Z M 46.042969 54.484375 L 42 51.25 L 52.21875 43.078125 L 53.460938 44.945312 Z M 68.050781 52.375 L 68.800781 48.617188 L 71.070312 49.523438 L 70.320312 53.28125 Z M 65.6875 51.429688 L 64.113281 50.796875 L 64.867188 47.042969 L 66.441406 47.671875 Z M 60.929688 45.46875 L 62.507812 46.097656 L 61.753906 49.855469 L 60.179688 49.226562 Z M 60.929688 45.46875 "/>
<path style=" stroke:none;fill-rule:nonzero;fill:rgb(0%,0%,0%);fill-opacity:1;" d="M 22.5 70 C 21.808594 70 21.25 70.558594 21.25 71.25 L 21.25 78.75 C 21.25 79.441406 21.808594 80 22.5 80 C 23.191406 80 23.75 79.441406 23.75 78.75 L 23.75 71.25 C 23.75 70.558594 23.191406 70 22.5 70 Z M 22.5 70 "/>
<path style=" stroke:none;fill-rule:nonzero;fill:rgb(0%,0%,0%);fill-opacity:1;" d="M 57.5 70 C 56.808594 70 56.25 70.558594 56.25 71.25 L 56.25 78.75 C 56.25 79.441406 56.808594 80 57.5 80 C 58.191406 80 58.75 79.441406 58.75 78.75 L 58.75 71.25 C 58.75 70.558594 58.191406 70 57.5 70 Z M 57.5 70 "/>
<path style=" stroke:none;fill-rule:nonzero;fill:rgb(0%,0%,0%);fill-opacity:1;" d="M 52.5 70 L 48.75 70 C 48.058594 70 47.5 70.558594 47.5 71.25 C 47.5 71.941406 48.058594 72.5 48.75 72.5 L 52.5 72.5 C 53.191406 72.5 53.75 71.941406 53.75 71.25 C 53.75 70.558594 53.191406 70 52.5 70 Z M 52.5 70 "/>
</g>
</svg>
