<?xml version="1.0" encoding="UTF-8"?>
<svg xmlns="http://www.w3.org/2000/svg" xmlns:xlink="http://www.w3.org/1999/xlink" width="80px" height="80px" viewBox="0 0 80 80" version="1.1">
<g id="surface1">
<path style=" stroke:none;fill-rule:nonzero;fill:rgb(0%,0%,0%);fill-opacity:1;" d="M 40.152344 6.25 C 39.289062 6.246094 38.585938 6.941406 38.578125 7.800781 C 38.570312 8.664062 39.265625 9.371094 40.128906 9.375 C 40.992188 9.382812 41.695312 8.6875 41.703125 7.824219 C 41.710938 6.964844 41.015625 6.257812 40.152344 6.25 Z M 40.152344 6.25 "/>
<path style=" stroke:none;fill-rule:nonzero;fill:rgb(0%,0%,0%);fill-opacity:1;" d="M 40.082031 15.625 C 34.050781 15.582031 29.109375 20.449219 29.0625 26.480469 C 29.015625 32.511719 33.886719 37.453125 39.917969 37.5 C 39.945312 37.5 39.972656 37.5 40 37.5 C 45.996094 37.5 50.890625 32.648438 50.9375 26.644531 C 50.984375 20.613281 46.113281 15.671875 40.082031 15.625 Z M 40 34.375 C 39.980469 34.375 39.960938 34.375 39.941406 34.375 C 35.632812 34.34375 32.15625 30.8125 32.1875 26.503906 C 32.21875 22.214844 35.71875 18.75 40 18.75 C 40.019531 18.75 40.039062 18.75 40.058594 18.75 C 44.367188 18.78125 47.84375 22.3125 47.8125 26.621094 C 47.78125 30.910156 44.28125 34.375 40 34.375 Z M 40 34.375 "/>
<path style=" stroke:none;fill-rule:nonzero;fill:rgb(0%,0%,0%);fill-opacity:1;" d="M 46.816406 7.4375 C 46.003906 7.148438 45.109375 7.574219 44.824219 8.386719 C 44.535156 9.199219 44.960938 10.09375 45.773438 10.382812 C 52.65625 12.820312 57.242188 19.375 57.1875 26.691406 C 57.179688 27.554688 57.875 28.261719 58.738281 28.265625 C 58.742188 28.265625 58.746094 28.265625 58.75 28.265625 C 59.609375 28.265625 60.304688 27.574219 60.3125 26.714844 C 60.378906 18.066406 54.953125 10.320312 46.816406 7.4375 Z M 46.816406 7.4375 "/>
<path style=" stroke:none;fill-rule:nonzero;fill:rgb(0%,0%,0%);fill-opacity:1;" d="M 49.585938 58.820312 C 59.980469 45.441406 66.476562 38.464844 66.5625 26.761719 C 66.671875 12.035156 54.722656 0 39.996094 0 C 25.445312 0 13.546875 11.785156 13.4375 26.363281 C 13.347656 38.386719 19.964844 45.351562 30.429688 58.816406 C 20.019531 60.371094 13.4375 64.28125 13.4375 69.0625 C 13.4375 72.265625 16.398438 75.140625 21.773438 77.15625 C 26.667969 78.988281 33.140625 80 40 80 C 46.859375 80 53.332031 78.988281 58.226562 77.15625 C 63.601562 75.140625 66.5625 72.265625 66.5625 69.0625 C 66.5625 64.285156 59.988281 60.375 49.585938 58.820312 Z M 16.5625 26.386719 C 16.660156 13.523438 27.15625 3.125 39.996094 3.125 C 52.992188 3.125 63.535156 13.75 63.4375 26.738281 C 63.355469 37.855469 56.464844 44.703125 45.46875 59.039062 C 43.507812 61.59375 41.707031 64.011719 40.003906 66.375 C 38.300781 64.007812 36.535156 61.636719 34.546875 59.039062 C 23.09375 44.101562 16.476562 37.769531 16.5625 26.386719 Z M 40 76.875 C 26.585938 76.875 16.5625 72.75 16.5625 69.0625 C 16.5625 66.328125 22.554688 62.871094 32.628906 61.675781 C 34.855469 64.597656 36.808594 67.253906 38.722656 69.964844 C 39.015625 70.378906 39.492188 70.625 40 70.625 C 40.507812 70.625 40.980469 70.378906 41.273438 69.964844 C 43.171875 67.289062 45.175781 64.570312 47.386719 61.679688 C 57.449219 62.875 63.4375 66.328125 63.4375 69.0625 C 63.4375 72.75 53.414062 76.875 40 76.875 Z M 40 76.875 "/>
</g>
</svg>
