<?xml version="1.0" encoding="UTF-8"?>
<svg xmlns="http://www.w3.org/2000/svg" xmlns:xlink="http://www.w3.org/1999/xlink" width="80px" height="80px" viewBox="0 0 80 80" version="1.1">
<g id="surface1">
<path style=" stroke:none;fill-rule:nonzero;fill:rgb(0%,0%,0%);fill-opacity:1;" d="M 77.667969 43.820312 C 76.414062 43.15625 74.90625 43.144531 73.640625 43.785156 L 68.707031 46.277344 C 72.378906 41.757812 74.582031 36 74.582031 29.734375 C 74.582031 15.234375 62.785156 3.4375 48.285156 3.4375 C 33.78125 3.4375 21.984375 15.234375 21.984375 29.734375 C 21.984375 33.605469 22.824219 37.378906 24.4375 40.832031 C 24.195312 40.75 23.957031 40.671875 23.722656 40.605469 C 22.605469 40.28125 20.496094 40.140625 15.128906 42.605469 C 14.097656 43.078125 13.125 43.566406 12.308594 43.996094 L 12.308594 41.046875 C 12.308594 40.179688 11.605469 39.476562 10.738281 39.476562 L 1.570312 39.476562 C 0.703125 39.476562 0 40.179688 0 41.046875 L 0 75.054688 C 0 75.921875 0.703125 76.625 1.570312 76.625 L 10.738281 76.625 C 11.605469 76.625 12.308594 75.921875 12.308594 75.054688 L 12.308594 72.289062 L 31.367188 72.289062 C 32.234375 72.289062 32.9375 71.585938 32.9375 70.722656 C 32.9375 69.851562 32.234375 69.148438 31.367188 69.148438 L 12.308594 69.148438 L 12.308594 47.5625 C 16.371094 45.257812 21.335938 43.183594 22.855469 43.621094 C 23.839844 43.90625 25.015625 44.425781 26.261719 44.976562 C 28.9375 46.160156 32.265625 47.628906 35.992188 47.789062 C 41.046875 48.003906 45.769531 49.675781 46.4375 50.507812 C 46.824219 51.207031 46.945312 52.546875 46.839844 53.269531 L 28.417969 53.269531 C 26.066406 53.269531 24.78125 54.257812 24.117188 55.085938 C 22.46875 57.140625 23.046875 60.015625 23.121094 60.339844 C 23.308594 61.183594 24.148438 61.722656 24.992188 61.535156 C 25.839844 61.347656 26.375 60.511719 26.1875 59.664062 C 26.09375 59.222656 25.964844 57.792969 26.570312 57.046875 C 26.699219 56.886719 27.085938 56.410156 28.417969 56.410156 L 47.617188 56.410156 C 47.621094 56.410156 47.621094 56.410156 47.625 56.410156 C 47.625 56.410156 47.628906 56.410156 47.628906 56.410156 L 49.242188 56.410156 C 53.429688 56.410156 57.613281 55.414062 61.347656 53.523438 L 75.054688 46.585938 C 75.417969 46.402344 75.84375 46.40625 76.199219 46.597656 C 76.605469 46.8125 76.859375 47.234375 76.859375 47.695312 L 76.859375 49.886719 C 76.859375 50.28125 76.667969 50.660156 76.347656 50.890625 L 59.378906 63.1875 C 57.25 64.730469 54.75 65.757812 52.148438 66.164062 L 43.570312 67.519531 C 42.710938 67.65625 42.128906 68.460938 42.261719 69.316406 C 42.386719 70.089844 43.050781 70.644531 43.8125 70.644531 C 43.894531 70.644531 43.976562 70.636719 44.058594 70.625 L 52.636719 69.265625 C 55.722656 68.785156 58.691406 67.5625 61.21875 65.730469 L 78.1875 53.4375 C 79.324219 52.613281 80 51.285156 80 49.886719 L 80 47.695312 C 80 46.066406 79.105469 44.582031 77.667969 43.820312 Z M 9.167969 73.484375 L 3.140625 73.484375 L 3.140625 42.617188 L 9.167969 42.617188 Z M 43.972656 45.96875 C 41.535156 45.242188 38.675781 44.757812 36.125 44.652344 C 33.628906 44.542969 31.28125 43.707031 29.136719 42.800781 C 29.101562 42.726562 29.0625 42.65625 29.015625 42.585938 C 26.472656 38.777344 25.125 34.335938 25.125 29.734375 C 25.125 16.964844 35.515625 6.578125 48.285156 6.578125 C 61.050781 6.578125 71.441406 16.964844 71.441406 29.734375 C 71.441406 41.917969 61.984375 51.933594 50.023438 52.828125 L 50.023438 42.160156 C 50.027344 42.082031 50.027344 41.941406 50.023438 41.746094 L 50.023438 37.792969 C 54.421875 37.773438 58.074219 36.492188 60.894531 33.96875 C 66.070312 29.332031 66.453125 22.230469 66.46875 21.929688 C 66.492188 21.46875 66.308594 21.023438 65.96875 20.707031 C 65.632812 20.394531 65.171875 20.242188 64.71875 20.296875 C 55.222656 21.414062 50.875 25.632812 48.898438 28.976562 C 47.644531 31.101562 47.167969 33.144531 46.988281 34.523438 C 45.945312 33.417969 44.675781 32.511719 43.238281 31.890625 L 36.652344 29.050781 C 36.554688 29.007812 36.453125 28.976562 36.351562 28.957031 C 36.128906 28.910156 36.027344 28.882812 35.957031 28.867188 C 35.703125 28.804688 35.605469 28.789062 35.039062 28.722656 C 34.578125 28.667969 34.121094 28.820312 33.785156 29.132812 C 33.449219 29.449219 33.265625 29.894531 33.285156 30.355469 C 33.296875 30.605469 33.621094 36.59375 37.988281 40.503906 C 40.3125 42.582031 43.300781 43.664062 46.882812 43.730469 L 46.882812 47.085938 C 46.09375 46.6875 45.121094 46.316406 43.972656 45.96875 Z M 50.140625 34.652344 C 50.304688 33.613281 50.6875 32.121094 51.601562 30.574219 C 53.699219 27.023438 57.546875 24.722656 63.050781 23.71875 C 62.613281 25.816406 61.519531 29.191406 58.800781 31.628906 C 56.601562 33.597656 53.695312 34.609375 50.140625 34.652344 Z M 46.738281 40.589844 C 44.027344 40.5 41.800781 39.691406 40.101562 38.179688 C 38.21875 36.503906 37.292969 34.238281 36.84375 32.554688 L 41.992188 34.777344 C 44.449219 35.835938 46.226562 38.03125 46.738281 40.589844 Z M 46.738281 40.589844 "/>
<path style=" stroke:none;fill-rule:nonzero;fill:rgb(0%,0%,0%);fill-opacity:1;" d="M 38.445312 68.9375 L 38.402344 68.910156 C 37.675781 68.4375 36.703125 68.648438 36.230469 69.375 C 35.757812 70.101562 35.964844 71.074219 36.695312 71.546875 L 36.738281 71.574219 C 37.003906 71.746094 37.296875 71.828125 37.589844 71.828125 C 38.105469 71.828125 38.609375 71.574219 38.910156 71.109375 C 39.382812 70.382812 39.175781 69.410156 38.445312 68.9375 Z M 38.445312 68.9375 "/>
<path style=" stroke:none;fill-rule:nonzero;fill:rgb(0%,0%,0%);fill-opacity:1;" d="M 33.792969 22.34375 C 33.824219 22.253906 36.703125 13.703125 45.734375 12.867188 C 46.597656 12.785156 47.234375 12.023438 47.152344 11.15625 C 47.074219 10.292969 46.3125 9.660156 45.445312 9.738281 C 40.859375 10.164062 36.871094 12.308594 33.914062 15.941406 C 31.703125 18.660156 30.84375 21.261719 30.808594 21.371094 C 30.539062 22.195312 30.992188 23.082031 31.816406 23.351562 C 31.976562 23.402344 32.140625 23.425781 32.300781 23.425781 C 32.964844 23.425781 33.578125 23.003906 33.792969 22.34375 Z M 33.792969 22.34375 "/>
<path style=" stroke:none;fill-rule:nonzero;fill:rgb(0%,0%,0%);fill-opacity:1;" d="M 50.796875 13.003906 L 50.839844 13.03125 C 51.105469 13.203125 51.398438 13.285156 51.691406 13.285156 C 52.207031 13.285156 52.710938 13.03125 53.011719 12.566406 C 53.484375 11.839844 53.277344 10.867188 52.546875 10.394531 L 52.503906 10.367188 C 51.777344 9.894531 50.804688 10.105469 50.332031 10.832031 C 49.863281 11.558594 50.070312 12.53125 50.796875 13.003906 Z M 50.796875 13.003906 "/>
</g>
</svg>
