<?xml version="1.0" encoding="UTF-8"?>
<svg xmlns="http://www.w3.org/2000/svg" xmlns:xlink="http://www.w3.org/1999/xlink" width="80px" height="80px" viewBox="0 0 80 80" version="1.1">
<g id="surface1">
<path style=" stroke:none;fill-rule:nonzero;fill:rgb(0%,0%,0%);fill-opacity:1;" d="M 73.683594 0 L 6.316406 0 C 2.828125 0 0 2.828125 0 6.316406 L 0 73.683594 C 0 77.171875 2.828125 80 6.316406 80 L 73.683594 80 C 77.171875 80 80 77.171875 80 73.683594 L 80 6.316406 C 80 2.828125 77.171875 0 73.683594 0 Z M 39.101562 37.589844 L 47.863281 37.589844 L 47.863281 45.011719 L 39.441406 45.011719 L 39.585938 48.214844 C 39.585938 50.394531 39.023438 52.101562 37.898438 53.34375 L 55.269531 53.34375 L 55.269531 61.050781 L 24.738281 61.050781 L 24.738281 53.34375 L 27.671875 53.34375 C 28.757812 53.058594 29.328125 52.074219 29.390625 50.394531 L 29.414062 48.878906 L 29.273438 45.011719 L 24.625 45.011719 L 24.625 37.589844 L 29.027344 37.589844 L 28.851562 31.394531 C 28.851562 27.496094 30.015625 24.445312 32.347656 22.242188 C 34.675781 20.039062 37.835938 18.941406 41.820312 18.949219 C 46.085938 18.949219 49.417969 20.042969 51.820312 22.230469 C 54.222656 24.421875 55.417969 27.390625 55.40625 31.136719 L 45.953125 31.136719 C 45.953125 28.148438 44.65625 26.652344 42.070312 26.652344 C 41.148438 26.632812 40.273438 27.0625 39.730469 27.808594 C 39.136719 28.585938 38.84375 29.773438 38.84375 31.394531 Z M 39.101562 37.589844 "/>
</g>
</svg>
