<?xml version="1.0" encoding="UTF-8"?>
<svg xmlns="http://www.w3.org/2000/svg" xmlns:xlink="http://www.w3.org/1999/xlink" width="80px" height="80px" viewBox="0 0 80 80" version="1.1">
<g id="surface1">
<path style=" stroke:none;fill-rule:nonzero;fill:rgb(0%,0%,0%);fill-opacity:1;" d="M 40 59.6875 C 34.011719 59.6875 28.402344 58.042969 23.59375 55.183594 L 23.59375 80 L 40 65.234375 L 56.40625 80 L 56.40625 55.183594 C 51.597656 58.042969 45.988281 59.6875 40 59.6875 Z M 40 59.6875 "/>
<path style=" stroke:none;fill-rule:nonzero;fill:rgb(0%,0%,0%);fill-opacity:1;" d="M 40 14.0625 C 32.589844 14.0625 26.5625 20.089844 26.5625 27.5 C 26.5625 34.910156 32.589844 40.9375 40 40.9375 C 47.410156 40.9375 53.4375 34.910156 53.4375 27.5 C 53.4375 20.089844 47.410156 14.0625 40 14.0625 Z M 40 14.0625 "/>
<path style=" stroke:none;fill-rule:nonzero;fill:rgb(0%,0%,0%);fill-opacity:1;" d="M 40 0 C 24.835938 0 12.5 12.335938 12.5 27.5 C 12.5 42.664062 24.835938 55 40 55 C 55.164062 55 67.5 42.664062 67.5 27.5 C 67.5 12.335938 55.164062 0 40 0 Z M 40 45.625 C 30.007812 45.625 21.875 37.496094 21.875 27.5 C 21.875 17.503906 30.007812 9.375 40 9.375 C 49.992188 9.375 58.125 17.503906 58.125 27.5 C 58.125 37.496094 49.992188 45.625 40 45.625 Z M 40 45.625 "/>
</g>
</svg>
