<?xml version="1.0" encoding="UTF-8"?>
<svg xmlns="http://www.w3.org/2000/svg" xmlns:xlink="http://www.w3.org/1999/xlink" width="80px" height="80px" viewBox="0 0 80 80" version="1.1">
<g id="surface1">
<path style=" stroke:none;fill-rule:nonzero;fill:rgb(0%,0%,0%);fill-opacity:1;" d="M 80 66.808594 L 80 57.0625 L 76.265625 56.109375 C 76.242188 56.046875 76.214844 55.980469 76.1875 55.917969 L 78.152344 52.609375 L 71.261719 45.714844 L 67.949219 47.679688 C 67.886719 47.65625 67.824219 47.628906 67.761719 47.601562 L 66.808594 43.871094 L 57.0625 43.871094 L 56.109375 47.605469 C 56.046875 47.628906 55.980469 47.65625 55.917969 47.683594 L 52.609375 45.71875 L 45.714844 52.609375 L 47.679688 55.921875 C 47.65625 55.984375 47.628906 56.046875 47.601562 56.109375 L 43.871094 57.0625 L 43.871094 66.808594 L 47.605469 67.761719 C 47.628906 67.824219 47.65625 67.890625 47.683594 67.949219 L 45.71875 71.261719 L 52.609375 78.15625 L 55.921875 76.191406 C 55.984375 76.214844 56.046875 76.242188 56.109375 76.269531 L 57.0625 80 L 66.808594 80 L 67.761719 76.265625 C 67.824219 76.242188 67.890625 76.214844 67.949219 76.1875 L 71.261719 78.152344 L 78.15625 71.261719 L 76.191406 67.949219 C 76.214844 67.886719 76.242188 67.824219 76.269531 67.761719 Z M 74.914062 70.855469 L 70.855469 74.914062 L 68.097656 73.277344 L 67.476562 73.574219 C 67.078125 73.761719 66.667969 73.933594 66.246094 74.082031 L 65.597656 74.3125 L 64.804688 77.417969 L 59.066406 77.417969 L 58.273438 74.3125 L 57.625 74.082031 C 57.203125 73.933594 56.792969 73.765625 56.394531 73.574219 L 55.773438 73.277344 L 53.015625 74.914062 L 48.960938 70.855469 L 50.597656 68.097656 L 50.300781 67.476562 C 50.109375 67.078125 49.9375 66.667969 49.789062 66.246094 L 49.558594 65.597656 L 46.453125 64.804688 L 46.453125 59.066406 L 49.558594 58.273438 L 49.789062 57.625 C 49.9375 57.203125 50.105469 56.792969 50.296875 56.394531 L 50.59375 55.773438 L 48.957031 53.015625 L 53.015625 48.960938 L 55.773438 50.597656 L 56.394531 50.300781 C 56.792969 50.109375 57.203125 49.9375 57.625 49.789062 L 58.273438 49.558594 L 59.066406 46.453125 L 64.804688 46.453125 L 65.597656 49.558594 L 66.246094 49.789062 C 66.667969 49.9375 67.078125 50.105469 67.476562 50.296875 L 68.097656 50.59375 L 70.855469 48.957031 L 74.910156 53.015625 L 73.273438 55.773438 L 73.570312 56.394531 C 73.761719 56.792969 73.933594 57.203125 74.082031 57.625 L 74.3125 58.273438 L 77.417969 59.066406 L 77.417969 64.804688 L 74.3125 65.597656 L 74.082031 66.246094 C 73.933594 66.667969 73.765625 67.078125 73.574219 67.476562 L 73.277344 68.097656 Z M 74.914062 70.855469 "/>
<path style=" stroke:none;fill-rule:nonzero;fill:rgb(0%,0%,0%);fill-opacity:1;" d="M 61.933594 51.613281 C 56.242188 51.613281 51.613281 56.242188 51.613281 61.933594 C 51.613281 67.628906 56.242188 72.257812 61.933594 72.257812 C 67.628906 72.257812 72.257812 67.628906 72.257812 61.933594 C 72.257812 56.242188 67.628906 51.613281 61.933594 51.613281 Z M 61.933594 69.675781 C 57.664062 69.675781 54.195312 66.207031 54.195312 61.933594 C 54.195312 57.664062 57.664062 54.195312 61.933594 54.195312 C 66.207031 54.195312 69.675781 57.664062 69.675781 61.933594 C 69.675781 66.207031 66.207031 69.675781 61.933594 69.675781 Z M 61.933594 69.675781 "/>
<path style=" stroke:none;fill-rule:nonzero;fill:rgb(0%,0%,0%);fill-opacity:1;" d="M 61.933594 56.773438 C 59.089844 56.773438 56.773438 59.089844 56.773438 61.933594 C 56.773438 64.78125 59.089844 67.097656 61.933594 67.097656 C 64.78125 67.097656 67.097656 64.78125 67.097656 61.933594 C 67.097656 59.089844 64.78125 56.773438 61.933594 56.773438 Z M 61.933594 64.515625 C 60.511719 64.515625 59.355469 63.359375 59.355469 61.933594 C 59.355469 60.511719 60.511719 59.355469 61.933594 59.355469 C 63.359375 59.355469 64.515625 60.511719 64.515625 61.933594 C 64.515625 63.359375 63.359375 64.515625 61.933594 64.515625 Z M 61.933594 64.515625 "/>
<path style=" stroke:none;fill-rule:nonzero;fill:rgb(0%,0%,0%);fill-opacity:1;" d="M 32.675781 21.847656 C 33.109375 23.113281 33.863281 24.230469 34.839844 25.109375 L 34.839844 26.203125 L 28.703125 28.503906 C 26.199219 29.441406 24.515625 31.871094 24.515625 34.542969 L 24.515625 41.289062 L 55.484375 41.289062 L 55.484375 34.542969 C 55.484375 31.871094 53.800781 29.441406 51.296875 28.503906 L 45.160156 26.203125 L 45.160156 25.109375 C 46.136719 24.234375 46.890625 23.117188 47.324219 21.847656 C 49.753906 21.429688 51.613281 19.320312 51.613281 16.773438 L 51.613281 11.613281 C 51.613281 5.210938 46.402344 0 40 0 C 33.597656 0 28.386719 5.210938 28.386719 11.613281 L 28.386719 16.773438 C 28.386719 19.320312 30.246094 21.429688 32.675781 21.847656 Z M 42.582031 26.738281 L 40 31.039062 L 37.417969 26.738281 L 37.417969 26.644531 C 38.226562 26.933594 39.09375 27.097656 40 27.097656 C 40.90625 27.097656 41.773438 26.933594 42.582031 26.644531 Z M 35.574219 28.683594 L 38.175781 33.015625 L 35.59375 34.308594 L 33.921875 29.300781 Z M 52.902344 34.542969 L 52.902344 38.710938 L 27.097656 38.710938 L 27.097656 34.542969 C 27.097656 32.9375 28.105469 31.484375 29.609375 30.917969 L 31.503906 30.210938 L 34.085938 37.949219 L 40 34.992188 L 45.914062 37.949219 L 48.496094 30.210938 L 50.390625 30.921875 C 51.894531 31.484375 52.902344 32.9375 52.902344 34.542969 Z M 46.078125 29.300781 L 44.40625 34.308594 L 41.824219 33.019531 L 44.425781 28.683594 Z M 40 24.515625 C 37.152344 24.515625 34.839844 22.203125 34.839844 19.355469 L 34.839844 14.105469 C 36.726562 13.90625 38.511719 13.21875 40 12.046875 C 41.488281 13.21875 43.273438 13.90625 45.160156 14.105469 L 45.160156 19.355469 C 45.160156 22.203125 42.847656 24.515625 40 24.515625 Z M 47.742188 18.996094 L 47.742188 14.554688 C 48.511719 15 49.03125 15.824219 49.03125 16.777344 C 49.03125 17.726562 48.511719 18.546875 47.742188 18.996094 Z M 40 2.582031 C 44.980469 2.582031 49.03125 6.632812 49.03125 11.613281 L 49.03125 12.332031 C 48.269531 11.886719 47.394531 11.613281 46.453125 11.613281 L 46.230469 11.613281 C 44.21875 11.613281 42.332031 10.832031 40.914062 9.410156 L 40 8.496094 L 39.085938 9.410156 C 37.667969 10.832031 35.78125 11.613281 33.769531 11.613281 L 33.546875 11.613281 C 32.605469 11.613281 31.730469 11.886719 30.96875 12.332031 L 30.96875 11.613281 C 30.96875 6.632812 35.019531 2.582031 40 2.582031 Z M 32.257812 14.550781 L 32.257812 18.996094 C 31.488281 18.546875 30.96875 17.722656 30.96875 16.773438 C 30.96875 15.820312 31.488281 15 32.257812 14.550781 Z M 32.257812 14.550781 "/>
<path style=" stroke:none;fill-rule:nonzero;fill:rgb(0%,0%,0%);fill-opacity:1;" d="M 0 80 L 25.804688 80 L 25.804688 46.453125 L 0 46.453125 Z M 2.582031 49.03125 L 23.226562 49.03125 L 23.226562 77.417969 L 2.582031 77.417969 Z M 2.582031 49.03125 "/>
<path style=" stroke:none;fill-rule:nonzero;fill:rgb(0%,0%,0%);fill-opacity:1;" d="M 5.160156 51.613281 L 20.644531 51.613281 L 20.644531 54.195312 L 5.160156 54.195312 Z M 5.160156 51.613281 "/>
<path style=" stroke:none;fill-rule:nonzero;fill:rgb(0%,0%,0%);fill-opacity:1;" d="M 5.160156 56.773438 L 7.742188 56.773438 L 7.742188 59.355469 L 5.160156 59.355469 Z M 5.160156 56.773438 "/>
<path style=" stroke:none;fill-rule:nonzero;fill:rgb(0%,0%,0%);fill-opacity:1;" d="M 10.324219 56.773438 L 20.644531 56.773438 L 20.644531 59.355469 L 10.324219 59.355469 Z M 10.324219 56.773438 "/>
<path style=" stroke:none;fill-rule:nonzero;fill:rgb(0%,0%,0%);fill-opacity:1;" d="M 5.160156 61.933594 L 20.644531 61.933594 L 20.644531 64.515625 L 5.160156 64.515625 Z M 5.160156 61.933594 "/>
<path style=" stroke:none;fill-rule:nonzero;fill:rgb(0%,0%,0%);fill-opacity:1;" d="M 5.160156 67.097656 L 20.644531 67.097656 L 20.644531 69.675781 L 5.160156 69.675781 Z M 5.160156 67.097656 "/>
<path style=" stroke:none;fill-rule:nonzero;fill:rgb(0%,0%,0%);fill-opacity:1;" d="M 18.066406 72.257812 L 20.644531 72.257812 L 20.644531 74.839844 L 18.066406 74.839844 Z M 18.066406 72.257812 "/>
<path style=" stroke:none;fill-rule:nonzero;fill:rgb(0%,0%,0%);fill-opacity:1;" d="M 5.160156 72.257812 L 15.484375 72.257812 L 15.484375 74.839844 L 5.160156 74.839844 Z M 5.160156 72.257812 "/>
<path style=" stroke:none;fill-rule:nonzero;fill:rgb(0%,0%,0%);fill-opacity:1;" d="M 34.460938 57.6875 L 32.636719 55.863281 L 26.5625 61.933594 L 32.636719 68.007812 L 34.460938 66.183594 L 31.503906 63.226562 L 41.289062 63.226562 L 41.289062 60.644531 L 31.503906 60.644531 Z M 34.460938 57.6875 "/>
<path style=" stroke:none;fill-rule:nonzero;fill:rgb(0%,0%,0%);fill-opacity:1;" d="M 14.195312 20.644531 C 14.195312 19.933594 14.773438 19.355469 15.484375 19.355469 L 21.402344 19.355469 L 18.441406 22.3125 L 20.265625 24.136719 L 26.339844 18.066406 L 20.265625 11.992188 L 18.441406 13.816406 L 21.402344 16.773438 L 15.484375 16.773438 C 13.351562 16.773438 11.613281 18.511719 11.613281 20.644531 L 11.613281 43.871094 L 14.195312 43.871094 Z M 14.195312 20.644531 "/>
<path style=" stroke:none;fill-rule:nonzero;fill:rgb(0%,0%,0%);fill-opacity:1;" d="M 61.933594 20.644531 L 61.933594 36.886719 L 58.976562 33.925781 L 57.152344 35.75 L 63.226562 41.824219 L 69.300781 35.75 L 67.476562 33.925781 L 64.515625 36.886719 L 64.515625 20.644531 C 64.515625 18.511719 62.777344 16.773438 60.644531 16.773438 L 54.195312 16.773438 L 54.195312 19.355469 L 60.644531 19.355469 C 61.355469 19.355469 61.933594 19.933594 61.933594 20.644531 Z M 61.933594 20.644531 "/>
</g>
</svg>
