<?xml version="1.0" encoding="UTF-8"?>
<svg xmlns="http://www.w3.org/2000/svg" xmlns:xlink="http://www.w3.org/1999/xlink" width="80px" height="80px" viewBox="0 0 80 80" version="1.1">
<g id="surface1">
<path style=" stroke:none;fill-rule:nonzero;fill:rgb(0%,0%,0%);fill-opacity:1;" d="M 3.046875 49.265625 L 3.046875 51.128906 C 2.382812 51.296875 1.890625 51.894531 1.890625 52.609375 L 1.890625 58.101562 C 1.449219 58.308594 1.140625 58.757812 1.140625 59.28125 L 1.140625 78.699219 C 1.140625 79.417969 1.726562 80 2.441406 80 L 17.945312 80 C 18.660156 80 19.246094 79.417969 19.246094 78.699219 L 19.246094 59.28125 C 19.246094 58.757812 18.9375 58.308594 18.496094 58.101562 L 18.496094 52.609375 C 18.496094 51.894531 18.003906 51.296875 17.339844 51.128906 L 17.339844 49.261719 C 17.339844 48.316406 17.648438 47.402344 18.207031 46.6875 C 18.554688 46.242188 18.867188 45.761719 19.136719 45.265625 L 26.144531 33.132812 C 26.726562 32.117188 26.378906 30.820312 25.367188 30.234375 C 24.277344 29.605469 23.003906 29.4375 21.789062 29.761719 C 21.269531 29.902344 20.785156 30.125 20.355469 30.417969 L 20.355469 29.429688 C 20.355469 28.78125 19.832031 28.257812 19.183594 28.257812 C 18.535156 28.257812 18.011719 28.78125 18.011719 29.429688 L 18.011719 33.535156 L 17.554688 34.328125 C 15.832031 33.820312 13.925781 34.273438 12.613281 35.585938 C 10.667969 37.53125 10.667969 40.695312 12.613281 42.640625 C 13.070312 43.097656 13.8125 43.097656 14.269531 42.640625 C 14.726562 42.183594 14.726562 41.441406 14.269531 40.984375 C 13.238281 39.953125 13.238281 38.273438 14.269531 37.242188 C 15.117188 36.394531 16.429688 36.222656 17.464844 36.824219 C 18.023438 37.148438 18.742188 36.957031 19.066406 36.394531 C 19.191406 36.179688 20.828125 33.347656 20.953125 33.132812 C 21.269531 32.582031 21.78125 32.1875 22.394531 32.023438 C 22.933594 31.878906 23.496094 31.929688 24 32.160156 C 16.949219 44.367188 17.097656 44.117188 17.082031 44.140625 C 16.875 44.527344 16.632812 44.898438 16.359375 45.246094 C 15.480469 46.371094 15 47.796875 15 49.261719 L 14.996094 51.085938 L 5.386719 51.085938 L 5.386719 49.265625 C 5.386719 47.804688 4.902344 46.375 4.015625 45.234375 C 2.941406 43.851562 2.375 42.195312 2.375 40.441406 L 2.375 24.488281 C 2.375 23.894531 2.855469 23.414062 3.449219 23.414062 C 4.042969 23.414062 4.527344 23.894531 4.527344 24.488281 L 4.527344 31.5625 C 4.527344 32.207031 5.050781 32.730469 5.699219 32.730469 C 6.34375 32.730469 6.871094 32.207031 6.871094 31.5625 L 6.871094 21.488281 C 6.871094 20.894531 7.351562 20.410156 7.945312 20.410156 C 8.539062 20.410156 9.023438 20.894531 9.023438 21.488281 L 9.023438 31.5625 C 9.023438 32.207031 9.546875 32.730469 10.195312 32.730469 C 10.839844 32.730469 11.363281 32.207031 11.363281 31.5625 L 11.363281 18.804688 C 11.363281 18.210938 11.847656 17.726562 12.441406 17.726562 C 13.035156 17.726562 13.519531 18.210938 13.519531 18.804688 L 13.519531 31.5625 C 13.519531 32.207031 14.042969 32.730469 14.6875 32.730469 C 15.335938 32.730469 15.859375 32.207031 15.859375 31.5625 L 15.859375 21.488281 C 15.859375 20.894531 16.34375 20.410156 16.9375 20.410156 C 17.53125 20.410156 18.011719 20.894531 18.011719 21.488281 L 18.011719 23.964844 C 18.011719 24.613281 18.535156 25.136719 19.183594 25.136719 C 19.832031 25.136719 20.355469 24.613281 20.355469 23.964844 L 20.355469 21.488281 C 20.355469 19.601562 18.820312 18.066406 16.9375 18.066406 C 16.542969 18.066406 16.167969 18.132812 15.816406 18.257812 C 15.554688 16.628906 14.140625 15.382812 12.441406 15.382812 C 10.742188 15.382812 9.328125 16.628906 9.066406 18.257812 C 8.714844 18.132812 8.339844 18.066406 7.945312 18.066406 C 6.140625 18.066406 4.660156 19.472656 4.535156 21.246094 C 4.195312 21.132812 3.828125 21.070312 3.449219 21.070312 C 1.566406 21.070312 0.03125 22.605469 0.03125 24.488281 L 0.03125 40.441406 C 0.03125 42.71875 0.769531 44.875 2.167969 46.671875 C 2.734375 47.402344 3.046875 48.324219 3.046875 49.265625 Z M 16.15625 53.429688 L 16.15625 57.980469 L 4.230469 57.980469 L 4.230469 53.429688 Z M 16.902344 77.65625 L 3.484375 77.65625 L 3.484375 60.320312 L 16.902344 60.320312 Z M 16.902344 77.65625 "/>
<path style=" stroke:none;fill-rule:nonzero;fill:rgb(0%,0%,0%);fill-opacity:1;" d="M 43.707031 2.683594 C 43.3125 2.683594 42.9375 2.75 42.585938 2.871094 C 42.324219 1.246094 40.910156 0 39.210938 0 C 37.511719 0 36.097656 1.246094 35.835938 2.871094 C 35.484375 2.75 35.109375 2.683594 34.714844 2.683594 C 32.910156 2.683594 31.429688 4.089844 31.304688 5.863281 C 30.964844 5.75 30.601562 5.6875 30.21875 5.6875 C 28.335938 5.6875 26.800781 7.21875 26.800781 9.105469 L 26.800781 25.054688 C 26.800781 27.335938 27.539062 29.492188 28.9375 31.285156 C 29.503906 32.015625 29.816406 32.9375 29.816406 33.878906 L 29.816406 35.746094 C 29.152344 35.910156 28.660156 36.511719 28.660156 37.222656 L 28.660156 42.71875 C 28.21875 42.925781 27.910156 43.375 27.910156 43.894531 L 27.910156 52.394531 C 27.910156 53.042969 28.4375 53.566406 29.082031 53.566406 C 29.730469 53.566406 30.253906 53.042969 30.253906 52.394531 L 30.253906 44.9375 L 43.671875 44.9375 L 43.671875 77.65625 L 30.253906 77.65625 L 30.253906 57.859375 C 30.253906 57.214844 29.730469 56.691406 29.082031 56.691406 C 28.4375 56.691406 27.910156 57.214844 27.910156 57.859375 L 27.910156 78.699219 C 27.910156 79.417969 28.496094 80 29.210938 80 L 44.714844 80 C 45.429688 80 46.015625 79.417969 46.015625 78.699219 L 46.015625 43.894531 C 46.015625 43.375 45.707031 42.925781 45.265625 42.71875 L 45.265625 37.222656 C 45.265625 36.511719 44.773438 35.910156 44.109375 35.746094 L 44.109375 33.878906 C 44.109375 32.933594 44.417969 32.019531 44.976562 31.304688 C 45.324219 30.855469 45.636719 30.378906 45.90625 29.882812 L 52.914062 17.746094 C 53.496094 16.734375 53.148438 15.433594 52.136719 14.851562 C 51.046875 14.21875 49.773438 14.054688 48.558594 14.378906 C 48.039062 14.519531 47.554688 14.738281 47.125 15.03125 L 47.125 6.101562 C 47.125 4.21875 45.589844 2.683594 43.707031 2.683594 Z M 42.925781 38.042969 L 42.925781 42.59375 L 31.003906 42.59375 L 31.003906 38.042969 Z M 50.769531 16.777344 C 43.722656 28.984375 43.863281 28.734375 43.855469 28.753906 C 43.644531 29.144531 43.402344 29.515625 43.132812 29.863281 C 42.253906 30.988281 41.769531 32.414062 41.769531 33.878906 L 41.769531 35.703125 L 32.160156 35.703125 L 32.15625 33.878906 C 32.15625 32.417969 31.671875 30.988281 30.785156 29.851562 C 29.710938 28.46875 29.144531 26.8125 29.144531 25.054688 L 29.144531 9.105469 C 29.144531 8.511719 29.628906 8.027344 30.21875 8.027344 C 30.8125 8.027344 31.296875 8.511719 31.296875 9.105469 L 31.296875 16.175781 C 31.296875 16.824219 31.820312 17.347656 32.46875 17.347656 C 33.113281 17.347656 33.640625 16.824219 33.640625 16.175781 L 33.640625 6.101562 C 33.640625 5.507812 34.121094 5.027344 34.714844 5.027344 C 35.308594 5.027344 35.792969 5.507812 35.792969 6.101562 L 35.792969 16.175781 C 35.792969 16.824219 36.316406 17.347656 36.964844 17.347656 C 37.609375 17.347656 38.132812 16.824219 38.132812 16.175781 L 38.132812 3.417969 C 38.132812 2.824219 38.617188 2.34375 39.210938 2.34375 C 39.804688 2.34375 40.289062 2.824219 40.289062 3.417969 L 40.289062 16.175781 C 40.289062 16.824219 40.8125 17.347656 41.457031 17.347656 C 42.105469 17.347656 42.628906 16.824219 42.628906 16.175781 L 42.628906 6.101562 C 42.628906 5.507812 43.113281 5.027344 43.707031 5.027344 C 44.300781 5.027344 44.78125 5.507812 44.78125 6.101562 L 44.78125 18.152344 L 44.324219 18.945312 C 42.601562 18.4375 40.695312 18.890625 39.382812 20.203125 C 38.441406 21.144531 37.921875 22.398438 37.921875 23.730469 C 37.921875 25.0625 38.441406 26.3125 39.382812 27.253906 C 39.839844 27.710938 40.582031 27.710938 41.039062 27.253906 C 41.496094 26.796875 41.496094 26.054688 41.039062 25.597656 C 40.539062 25.101562 40.265625 24.433594 40.265625 23.730469 C 40.265625 23.023438 40.539062 22.359375 41.039062 21.859375 C 41.886719 21.011719 43.199219 20.839844 44.234375 21.4375 C 44.503906 21.59375 44.824219 21.636719 45.125 21.554688 C 45.421875 21.476562 45.679688 21.28125 45.835938 21.011719 C 45.964844 20.785156 47.59375 17.972656 47.722656 17.746094 C 48.339844 16.679688 49.667969 16.269531 50.769531 16.777344 Z M 50.769531 16.777344 "/>
<path style=" stroke:none;fill-rule:nonzero;fill:rgb(0%,0%,0%);fill-opacity:1;" d="M 65.980469 17.726562 C 64.28125 17.726562 62.867188 18.972656 62.605469 20.597656 C 62.253906 20.476562 61.878906 20.410156 61.484375 20.410156 C 59.679688 20.410156 58.199219 21.816406 58.074219 23.589844 C 57.734375 23.476562 57.371094 23.414062 56.992188 23.414062 C 55.105469 23.414062 53.574219 24.945312 53.574219 26.832031 L 53.574219 32.1875 C 53.574219 32.835938 54.097656 33.359375 54.742188 33.359375 C 55.390625 33.359375 55.914062 32.835938 55.914062 32.1875 L 55.914062 26.832031 C 55.914062 26.238281 56.398438 25.753906 56.992188 25.753906 C 57.585938 25.753906 58.066406 26.238281 58.066406 26.832031 L 58.066406 33.902344 C 58.066406 34.550781 58.589844 35.074219 59.238281 35.074219 C 59.886719 35.074219 60.410156 34.550781 60.410156 33.902344 L 60.410156 23.828125 C 60.410156 23.234375 60.890625 22.75 61.484375 22.75 C 62.078125 22.75 62.5625 23.234375 62.5625 23.828125 L 62.5625 33.902344 C 62.5625 34.550781 63.085938 35.074219 63.734375 35.074219 C 64.378906 35.074219 64.90625 34.550781 64.90625 33.902344 L 64.90625 21.144531 C 64.90625 20.550781 65.386719 20.066406 65.980469 20.066406 C 66.574219 20.066406 67.058594 20.550781 67.058594 21.144531 L 67.058594 33.902344 C 67.058594 34.550781 67.582031 35.074219 68.226562 35.074219 C 68.875 35.074219 69.398438 34.550781 69.398438 33.902344 L 69.398438 23.828125 C 69.398438 23.234375 69.882812 22.75 70.476562 22.75 C 71.070312 22.75 71.550781 23.234375 71.550781 23.828125 L 71.550781 35.878906 L 71.09375 36.671875 C 69.371094 36.164062 67.464844 36.617188 66.152344 37.929688 C 64.207031 39.875 64.207031 43.039062 66.152344 44.980469 C 66.609375 45.4375 67.351562 45.4375 67.808594 44.980469 C 68.265625 44.523438 68.265625 43.78125 67.808594 43.324219 C 66.777344 42.292969 66.777344 40.617188 67.808594 39.585938 C 68.65625 38.738281 69.96875 38.566406 71.003906 39.164062 C 71.5625 39.488281 72.28125 39.296875 72.605469 38.738281 C 72.738281 38.511719 74.359375 35.699219 74.492188 35.472656 C 75.109375 34.40625 76.4375 33.996094 77.539062 34.503906 C 70.492188 46.710938 70.636719 46.457031 70.625 46.480469 C 70.414062 46.867188 70.171875 47.242188 69.902344 47.589844 C 69.023438 48.714844 68.539062 50.140625 68.539062 51.605469 L 68.539062 53.429688 L 58.929688 53.429688 L 58.929688 51.605469 C 58.929688 50.144531 58.441406 48.714844 57.554688 47.574219 C 56.480469 46.195312 55.914062 44.535156 55.914062 42.78125 L 55.914062 37.652344 C 55.914062 37.007812 55.390625 36.484375 54.742188 36.484375 C 54.097656 36.484375 53.570312 37.007812 53.570312 37.652344 L 53.570312 42.78125 C 53.570312 45.0625 54.308594 47.21875 55.707031 49.011719 C 56.273438 49.742188 56.585938 50.664062 56.585938 51.605469 L 56.585938 53.472656 C 55.921875 53.636719 55.429688 54.238281 55.429688 54.949219 L 55.429688 60.445312 C 54.988281 60.652344 54.679688 61.101562 54.679688 61.621094 L 54.679688 78.699219 C 54.679688 79.417969 55.265625 80 55.984375 80 L 71.484375 80 C 72.203125 80 72.785156 79.417969 72.785156 78.699219 L 72.785156 61.621094 C 72.785156 61.101562 72.476562 60.652344 72.035156 60.445312 L 72.035156 54.949219 C 72.035156 54.238281 71.542969 53.636719 70.878906 53.472656 L 70.878906 51.605469 C 70.878906 50.660156 71.1875 49.746094 71.746094 49.027344 C 72.097656 48.582031 72.410156 48.105469 72.675781 47.605469 L 79.683594 35.472656 C 80.269531 34.457031 79.921875 33.164062 78.90625 32.578125 C 77.289062 31.644531 75.34375 31.777344 73.894531 32.761719 L 73.894531 23.828125 C 73.894531 21.941406 72.359375 20.410156 70.476562 20.410156 C 70.082031 20.410156 69.707031 20.476562 69.355469 20.597656 C 69.09375 18.972656 67.679688 17.726562 65.980469 17.726562 Z M 57.773438 60.320312 L 57.773438 55.769531 L 69.695312 55.769531 L 69.695312 60.320312 Z M 70.441406 77.65625 L 57.023438 77.65625 L 57.023438 62.664062 L 70.441406 62.664062 Z M 70.441406 77.65625 "/>
</g>
</svg>
