<?xml version="1.0" encoding="UTF-8"?>
<svg xmlns="http://www.w3.org/2000/svg" xmlns:xlink="http://www.w3.org/1999/xlink" width="80px" height="80px" viewBox="0 0 80 80" version="1.1">
<g id="surface1">
<path style=" stroke:none;fill-rule:nonzero;fill:rgb(0%,0%,0%);fill-opacity:1;" d="M 36.25 60 C 35.558594 60 35 59.441406 35 58.75 L 35 53.75 C 35 53.058594 35.558594 52.5 36.25 52.5 C 36.941406 52.5 37.5 53.058594 37.5 53.75 L 37.5 58.75 C 37.5 59.441406 36.941406 60 36.25 60 Z M 36.25 60 "/>
<path style=" stroke:none;fill-rule:nonzero;fill:rgb(0%,0%,0%);fill-opacity:1;" d="M 18.75 8.75 C 18.75 9.441406 18.191406 10 17.5 10 C 16.808594 10 16.25 9.441406 16.25 8.75 C 16.25 8.058594 16.808594 7.5 17.5 7.5 C 18.191406 7.5 18.75 8.058594 18.75 8.75 Z M 18.75 8.75 "/>
<path style=" stroke:none;fill-rule:nonzero;fill:rgb(0%,0%,0%);fill-opacity:1;" d="M 25 8.75 C 25 9.441406 24.441406 10 23.75 10 C 23.058594 10 22.5 9.441406 22.5 8.75 C 22.5 8.058594 23.058594 7.5 23.75 7.5 C 24.441406 7.5 25 8.058594 25 8.75 Z M 25 8.75 "/>
<path style=" stroke:none;fill-rule:nonzero;fill:rgb(0%,0%,0%);fill-opacity:1;" d="M 31.25 8.75 C 31.25 9.441406 30.691406 10 30 10 C 29.308594 10 28.75 9.441406 28.75 8.75 C 28.75 8.058594 29.308594 7.5 30 7.5 C 30.691406 7.5 31.25 8.058594 31.25 8.75 Z M 31.25 8.75 "/>
<path style=" stroke:none;fill-rule:nonzero;fill:rgb(0%,0%,0%);fill-opacity:1;" d="M 43.085938 34.375 C 42.886719 34.375 42.6875 34.324219 42.511719 34.226562 L 40.011719 32.914062 L 37.511719 34.226562 C 37.109375 34.421875 36.632812 34.386719 36.261719 34.136719 C 35.867188 33.855469 35.671875 33.367188 35.761719 32.886719 L 36.25 30.085938 L 34.125 28.136719 C 33.78125 27.804688 33.65625 27.304688 33.804688 26.847656 C 33.953125 26.394531 34.351562 26.066406 34.824219 26 L 37.625 25.601562 L 38.875 23.101562 C 39.082031 22.667969 39.519531 22.394531 40 22.394531 C 40.480469 22.394531 40.917969 22.667969 41.125 23.101562 L 42.375 25.601562 L 45.175781 26 C 45.648438 26.066406 46.046875 26.394531 46.195312 26.847656 C 46.34375 27.304688 46.21875 27.804688 45.875 28.136719 L 43.835938 30.113281 L 44.324219 32.914062 C 44.417969 33.390625 44.222656 33.878906 43.824219 34.164062 C 43.605469 34.304688 43.347656 34.378906 43.085938 34.375 Z M 40 30.25 C 40.203125 30.246094 40.40625 30.292969 40.585938 30.386719 L 41.425781 30.835938 L 41.25 29.886719 C 41.171875 29.46875 41.316406 29.039062 41.625 28.75 L 42.3125 28.074219 L 41.363281 27.9375 C 40.957031 27.875 40.605469 27.621094 40.425781 27.25 L 40 26.4375 L 39.574219 27.289062 C 39.394531 27.65625 39.042969 27.914062 38.636719 27.976562 L 37.6875 28.113281 L 38.375 28.789062 C 38.667969 29.074219 38.804688 29.484375 38.738281 29.886719 L 38.574219 30.835938 L 39.414062 30.386719 C 39.59375 30.292969 39.796875 30.246094 40 30.25 Z M 40 30.25 "/>
<path style=" stroke:none;fill-rule:nonzero;fill:rgb(0%,0%,0%);fill-opacity:1;" d="M 26.835938 34.375 C 26.636719 34.375 26.4375 34.324219 26.261719 34.226562 L 23.761719 32.914062 L 21.261719 34.226562 C 20.859375 34.421875 20.382812 34.386719 20.011719 34.136719 C 19.617188 33.855469 19.421875 33.367188 19.511719 32.886719 L 20 30.085938 L 17.875 28.136719 C 17.53125 27.804688 17.40625 27.304688 17.554688 26.847656 C 17.703125 26.394531 18.101562 26.066406 18.574219 26 L 21.375 25.601562 L 22.625 23.101562 C 22.832031 22.667969 23.269531 22.394531 23.75 22.394531 C 24.230469 22.394531 24.667969 22.667969 24.875 23.101562 L 26.125 25.601562 L 28.925781 26 C 29.398438 26.066406 29.796875 26.394531 29.945312 26.847656 C 30.09375 27.304688 29.96875 27.804688 29.625 28.136719 L 27.585938 30.113281 L 28.074219 32.914062 C 28.167969 33.390625 27.972656 33.878906 27.574219 34.164062 C 27.359375 34.308594 27.097656 34.382812 26.835938 34.375 Z M 23.75 30.25 C 23.953125 30.246094 24.15625 30.292969 24.335938 30.386719 L 25.175781 30.835938 L 25 29.886719 C 24.921875 29.46875 25.066406 29.039062 25.375 28.75 L 26.0625 28.074219 L 25.113281 27.9375 C 24.707031 27.875 24.355469 27.621094 24.175781 27.25 L 23.75 26.4375 L 23.324219 27.289062 C 23.144531 27.65625 22.792969 27.914062 22.386719 27.976562 L 21.4375 28.113281 L 22.125 28.789062 C 22.417969 29.074219 22.554688 29.484375 22.488281 29.886719 L 22.324219 30.835938 L 23.164062 30.386719 C 23.34375 30.292969 23.546875 30.246094 23.75 30.25 Z M 23.75 30.25 "/>
<path style=" stroke:none;fill-rule:nonzero;fill:rgb(0%,0%,0%);fill-opacity:1;" d="M 59.335938 34.375 C 59.136719 34.375 58.9375 34.324219 58.761719 34.226562 L 56.261719 32.914062 L 53.761719 34.226562 C 53.34375 34.445312 52.835938 34.414062 52.449219 34.136719 C 52.054688 33.855469 51.859375 33.367188 51.949219 32.886719 L 52.4375 30.085938 L 50.375 28.136719 C 50.03125 27.804688 49.90625 27.304688 50.054688 26.847656 C 50.203125 26.394531 50.601562 26.066406 51.074219 26 L 53.875 25.601562 L 55.125 23.101562 C 55.332031 22.667969 55.769531 22.394531 56.25 22.394531 C 56.730469 22.394531 57.167969 22.667969 57.375 23.101562 L 58.625 25.601562 L 61.425781 26 C 61.898438 26.066406 62.296875 26.394531 62.445312 26.847656 C 62.59375 27.304688 62.46875 27.804688 62.125 28.136719 L 60.085938 30.113281 L 60.574219 32.914062 C 60.667969 33.390625 60.472656 33.878906 60.074219 34.164062 C 59.855469 34.304688 59.597656 34.378906 59.335938 34.375 Z M 56.25 30.25 C 56.453125 30.246094 56.65625 30.292969 56.835938 30.386719 L 57.675781 30.835938 L 57.5 29.886719 C 57.421875 29.46875 57.566406 29.039062 57.875 28.75 L 58.5625 28.074219 L 57.613281 27.9375 C 57.207031 27.875 56.855469 27.621094 56.675781 27.25 L 56.25 26.4375 L 55.824219 27.289062 C 55.644531 27.65625 55.292969 27.914062 54.886719 27.976562 L 53.9375 28.113281 L 54.625 28.789062 C 54.917969 29.074219 55.054688 29.484375 54.988281 29.886719 L 54.824219 30.835938 L 55.664062 30.386719 C 55.84375 30.292969 56.046875 30.246094 56.25 30.25 Z M 56.25 30.25 "/>
<path style=" stroke:none;fill-rule:nonzero;fill:rgb(0%,0%,0%);fill-opacity:1;" d="M 68.75 15 L 11.25 15 C 10.558594 15 10 14.441406 10 13.75 C 10 13.058594 10.558594 12.5 11.25 12.5 L 68.75 12.5 C 69.441406 12.5 70 13.058594 70 13.75 C 70 14.441406 69.441406 15 68.75 15 Z M 68.75 15 "/>
<path style=" stroke:none;fill-rule:nonzero;fill:rgb(0%,0%,0%);fill-opacity:1;" d="M 36.25 77.5 C 36.003906 77.503906 35.765625 77.429688 35.5625 77.289062 C 30.535156 73.949219 27.507812 68.320312 27.5 62.289062 L 27.5 51.25 C 27.496094 49.257812 29.050781 47.613281 31.039062 47.5 C 32.460938 47.453125 33.859375 47.894531 35 48.75 L 35 40.800781 C 34.960938 38.507812 36.648438 36.546875 38.925781 36.25 C 40.160156 36.121094 41.394531 36.527344 42.3125 37.359375 C 43.234375 38.195312 43.757812 39.382812 43.75 40.625 L 43.75 47.925781 C 45.75 46.945312 48.167969 47.667969 49.300781 49.585938 C 50.425781 48.75 51.890625 48.511719 53.222656 48.953125 C 54.558594 49.394531 55.59375 50.457031 56 51.800781 C 56.78125 51.355469 57.679688 51.164062 58.574219 51.25 C 60.851562 51.546875 62.539062 53.507812 62.5 55.800781 L 62.5 61.25 C 62.5 61.941406 61.941406 62.5 61.25 62.5 C 60.558594 62.5 60 61.941406 60 61.25 L 60 55.800781 C 60.027344 54.796875 59.316406 53.921875 58.324219 53.75 C 57.792969 53.691406 57.265625 53.863281 56.867188 54.222656 C 56.472656 54.582031 56.246094 55.089844 56.25 55.625 C 56.25 56.316406 55.691406 56.875 55 56.875 C 54.308594 56.875 53.75 56.316406 53.75 55.625 L 53.75 53.300781 C 53.777344 52.296875 53.066406 51.421875 52.074219 51.25 C 51.542969 51.199219 51.011719 51.371094 50.613281 51.726562 C 50.222656 52.085938 50 52.59375 50 53.125 C 50 53.816406 49.441406 54.375 48.75 54.375 C 48.058594 54.375 47.5 53.816406 47.5 53.125 L 47.5 52.050781 C 47.527344 51.046875 46.816406 50.171875 45.824219 50 C 45.292969 49.941406 44.765625 50.113281 44.367188 50.472656 C 43.972656 50.832031 43.746094 51.339844 43.75 51.875 C 43.75 52.566406 43.191406 53.125 42.5 53.125 C 41.808594 53.125 41.25 52.566406 41.25 51.875 L 41.25 40.625 C 41.25 40.09375 41.027344 39.585938 40.636719 39.226562 C 40.238281 38.871094 39.707031 38.699219 39.175781 38.75 C 38.183594 38.921875 37.472656 39.796875 37.5 40.800781 L 37.5 53.75 C 37.5 54.441406 36.941406 55 36.25 55 C 35.558594 55 35 54.441406 35 53.75 C 35 52.734375 34.589844 51.761719 33.859375 51.054688 C 33.128906 50.347656 32.140625 49.964844 31.125 50 C 30.484375 50.0625 29.996094 50.605469 30 51.25 L 30 62.238281 C 29.996094 67.449219 32.601562 72.320312 36.9375 75.210938 C 37.390625 75.519531 37.59375 76.085938 37.4375 76.609375 C 37.28125 77.136719 36.796875 77.496094 36.25 77.5 Z M 36.25 77.5 "/>
<path style=" stroke:none;fill-rule:nonzero;fill:rgb(0%,0%,0%);fill-opacity:1;" d="M 53.75 77.5 C 53.203125 77.496094 52.71875 77.136719 52.5625 76.609375 C 52.40625 76.085938 52.609375 75.519531 53.0625 75.210938 C 56.320312 73.035156 58.640625 69.710938 59.5625 65.898438 C 59.75 65.253906 60.410156 64.871094 61.0625 65.035156 C 61.714844 65.195312 62.125 65.84375 61.988281 66.5 C 60.929688 70.910156 58.253906 74.757812 54.488281 77.289062 C 54.273438 77.4375 54.011719 77.515625 53.75 77.5 Z M 53.75 77.5 "/>
<path style=" stroke:none;fill-rule:nonzero;fill:rgb(0%,0%,0%);fill-opacity:1;" d="M 36.25 50 L 15 50 C 12.238281 50 10 47.761719 10 45 L 10 41.25 C 10 40.558594 10.558594 40 11.25 40 C 11.941406 40 12.5 40.558594 12.5 41.25 L 12.5 45 C 12.5 46.378906 13.621094 47.5 15 47.5 L 36.25 47.5 C 36.941406 47.5 37.5 48.058594 37.5 48.75 C 37.5 49.441406 36.941406 50 36.25 50 Z M 36.25 50 "/>
<path style=" stroke:none;fill-rule:nonzero;fill:rgb(0%,0%,0%);fill-opacity:1;" d="M 65 50 L 42.5 50 C 41.808594 50 41.25 49.441406 41.25 48.75 C 41.25 48.058594 41.808594 47.5 42.5 47.5 L 65 47.5 C 66.378906 47.5 67.5 46.378906 67.5 45 L 67.5 7.5 C 67.5 6.121094 66.378906 5 65 5 L 15 5 C 13.621094 5 12.5 6.121094 12.5 7.5 L 12.5 30 C 12.5 30.691406 11.941406 31.25 11.25 31.25 C 10.558594 31.25 10 30.691406 10 30 L 10 7.5 C 10 4.738281 12.238281 2.5 15 2.5 L 65 2.5 C 67.761719 2.5 70 4.738281 70 7.5 L 70 45 C 70 47.761719 67.761719 50 65 50 Z M 65 50 "/>
<path style=" stroke:none;fill-rule:nonzero;fill:rgb(0%,0%,0%);fill-opacity:1;" d="M 11.25 37.5 C 10.558594 37.5 10 36.941406 10 36.25 L 10 35 C 10 34.308594 10.558594 33.75 11.25 33.75 C 11.941406 33.75 12.5 34.308594 12.5 35 L 12.5 36.25 C 12.5 36.941406 11.941406 37.5 11.25 37.5 Z M 11.25 37.5 "/>
</g>
</svg>
