<?xml version="1.0" encoding="UTF-8"?>
<svg xmlns="http://www.w3.org/2000/svg" xmlns:xlink="http://www.w3.org/1999/xlink" width="80px" height="80px" viewBox="0 0 80 80" version="1.1">
<g id="surface1">
<path style=" stroke:none;fill-rule:nonzero;fill:rgb(0%,0%,0%);fill-opacity:1;" d="M 30.625 20 C 29.765625 20 29.0625 20.703125 29.0625 21.5625 C 29.0625 22.421875 29.765625 23.125 30.625 23.125 C 31.484375 23.125 32.1875 22.421875 32.1875 21.5625 C 32.1875 21.140625 32.015625 20.75 31.734375 20.453125 C 31.4375 20.171875 31.046875 20 30.625 20 Z M 30.625 20 "/>
<path style=" stroke:none;fill-rule:nonzero;fill:rgb(0%,0%,0%);fill-opacity:1;" d="M 27.671875 36.34375 C 27.6875 32.71875 24.765625 29.765625 21.140625 29.75 C 17.984375 29.734375 15.25 31.96875 14.65625 35.078125 C 14.46875 35.921875 15 36.75 15.84375 36.9375 C 16.6875 37.125 17.515625 36.59375 17.703125 35.75 C 17.703125 35.71875 17.71875 35.703125 17.71875 35.671875 C 18.09375 33.8125 19.90625 32.59375 21.765625 32.96875 C 23.625 33.34375 24.84375 35.15625 24.46875 37.015625 C 24.15625 38.625 22.734375 39.78125 21.109375 39.78125 C 20.25 39.78125 19.546875 40.484375 19.546875 41.34375 C 19.546875 42.203125 20.25 42.90625 21.109375 42.90625 C 23.015625 42.90625 24.546875 44.453125 24.546875 46.34375 C 24.546875 48.25 23 49.78125 21.109375 49.78125 C 19.40625 49.78125 17.953125 48.515625 17.71875 46.828125 C 17.703125 46.671875 17.6875 46.5 17.6875 46.34375 C 17.6875 45.484375 16.984375 44.78125 16.125 44.78125 C 15.265625 44.78125 14.5625 45.484375 14.5625 46.34375 C 14.5625 46.65625 14.578125 46.953125 14.625 47.265625 C 15.125 50.859375 18.453125 53.359375 22.046875 52.84375 C 25.640625 52.34375 28.140625 49.015625 27.625 45.421875 C 27.40625 43.828125 26.59375 42.375 25.375 41.34375 C 26.828125 40.09375 27.671875 38.265625 27.671875 36.34375 Z M 27.671875 36.34375 "/>
<path style=" stroke:none;fill-rule:nonzero;fill:rgb(0%,0%,0%);fill-opacity:1;" d="M 61.25 39.4375 L 61.25 14.0625 C 61.25 9.75 57.75 6.25 53.4375 6.25 L 49.375 6.25 L 49.375 5 C 49.375 2.234375 47.140625 0 44.375 0 C 41.609375 0 39.375 2.234375 39.375 5 L 39.375 6.25 L 21.875 6.25 L 21.875 5 C 21.875 2.234375 19.640625 0 16.875 0 C 14.109375 0 11.875 2.234375 11.875 5 L 11.875 6.25 L 7.8125 6.25 C 3.5 6.25 0 9.75 0 14.0625 L 0 57.953125 C 0 62.265625 3.5 65.765625 7.8125 65.765625 L 40.3125 65.765625 C 42.984375 74.234375 50.8125 79.984375 59.6875 80 C 70.890625 80 80 70.890625 80 59.6875 C 80 49.015625 71.71875 40.234375 61.25 39.4375 Z M 42.5 5 C 42.5 3.96875 43.34375 3.125 44.375 3.125 C 45.40625 3.125 46.25 3.96875 46.25 5 L 46.25 10.625 C 46.25 11.65625 45.40625 12.5 44.375 12.5 C 43.34375 12.5 42.5 11.65625 42.5 10.625 Z M 16.875 3.125 C 17.90625 3.125 18.75 3.96875 18.75 5 L 18.75 10.625 C 18.75 11.65625 17.90625 12.5 16.875 12.5 C 15.84375 12.5 15 11.65625 15 10.625 L 15 5 C 15 3.96875 15.84375 3.125 16.875 3.125 Z M 7.8125 62.640625 C 5.21875 62.640625 3.125 60.546875 3.125 57.953125 L 3.125 23.125 L 23.59375 23.125 C 24.453125 23.125 25.15625 22.421875 25.15625 21.5625 C 25.15625 20.703125 24.453125 20 23.59375 20 L 3.125 20 L 3.125 14.0625 C 3.125 11.46875 5.21875 9.375 7.8125 9.375 L 11.875 9.375 L 11.875 10.625 C 11.875 13.390625 14.109375 15.625 16.875 15.625 C 19.640625 15.625 21.875 13.390625 21.875 10.625 L 21.875 9.375 L 39.375 9.375 L 39.375 10.625 C 39.375 13.390625 41.609375 15.625 44.375 15.625 C 47.140625 15.625 49.375 13.390625 49.375 10.625 L 49.375 9.375 L 53.4375 9.375 C 56.03125 9.375 58.125 11.46875 58.125 14.0625 L 58.125 20 L 37.65625 20 C 36.796875 20 36.09375 20.703125 36.09375 21.5625 C 36.09375 22.421875 36.796875 23.125 37.65625 23.125 L 58.125 23.125 L 58.125 39.4375 C 53.921875 39.765625 49.9375 41.390625 46.703125 44.078125 L 46.703125 36.890625 C 46.765625 32.953125 43.625 29.71875 39.6875 29.65625 C 35.75 29.59375 32.515625 32.734375 32.453125 36.671875 C 32.453125 36.75 32.453125 36.8125 32.453125 36.890625 L 32.453125 45.78125 C 32.453125 49.71875 35.640625 52.90625 39.578125 52.90625 C 39.90625 52.90625 40.234375 52.875 40.5625 52.828125 C 39.765625 55.03125 39.375 57.34375 39.375 59.6875 C 39.375 60.671875 39.453125 61.65625 39.59375 62.640625 Z M 39.578125 49.78125 C 37.375 49.78125 35.578125 47.984375 35.578125 45.78125 L 35.578125 36.890625 C 35.53125 34.6875 37.28125 32.859375 39.5 32.8125 C 41.703125 32.765625 43.53125 34.515625 43.578125 36.734375 C 43.578125 36.78125 43.578125 36.84375 43.578125 36.890625 L 43.578125 45.78125 C 43.578125 47.984375 41.78125 49.78125 39.578125 49.78125 Z M 59.6875 76.875 C 50.1875 76.875 42.5 69.1875 42.5 59.6875 C 42.5 50.1875 50.1875 42.5 59.6875 42.5 C 69.1875 42.5 76.875 50.1875 76.875 59.6875 C 76.859375 69.171875 69.171875 76.859375 59.6875 76.875 Z M 59.6875 76.875 "/>
<path style=" stroke:none;fill-rule:nonzero;fill:rgb(0%,0%,0%);fill-opacity:1;" d="M 54.640625 61.625 L 56.59375 61.625 C 56.75 63.03125 56.65625 63.53125 55.515625 65.0625 L 54.328125 66.5625 C 54 66.96875 53.9375 67.515625 54.171875 67.984375 C 54.390625 68.453125 54.859375 68.75 55.375 68.75 L 64.734375 68.828125 L 64.75 68.828125 C 65.5 68.828125 66.09375 68.234375 66.109375 67.484375 C 66.109375 66.734375 65.515625 66.125 64.765625 66.125 L 58.140625 66.0625 C 59.203125 64.5 59.484375 63.390625 59.328125 61.609375 L 61.234375 61.609375 C 61.984375 61.609375 62.59375 61 62.59375 60.25 C 62.59375 59.5 61.984375 58.890625 61.234375 58.890625 L 58.65625 58.890625 C 58.21875 58.21875 57.5 56.890625 57.515625 55.8125 C 57.515625 55.125 57.8125 54.625 58.421875 54.28125 C 59.390625 53.734375 60.9375 53.71875 61.8125 54.25 C 62.515625 54.671875 63.03125 55.265625 63.1875 55.78125 C 63.390625 56.5 64.140625 56.921875 64.859375 56.71875 C 65.578125 56.515625 66 55.765625 65.796875 55.046875 C 65.453125 53.859375 64.53125 52.734375 63.234375 51.9375 C 61.515625 50.890625 58.9375 50.875 57.09375 51.921875 C 55.609375 52.75 54.796875 54.140625 54.8125 55.8125 C 54.8125 56.921875 55.171875 58.015625 55.578125 58.890625 L 54.671875 58.890625 C 53.921875 58.890625 53.3125 59.5 53.3125 60.25 C 53.28125 61.015625 53.890625 61.625 54.640625 61.625 Z M 54.640625 61.625 "/>
</g>
</svg>
