<?xml version="1.0" encoding="UTF-8"?>
<svg xmlns="http://www.w3.org/2000/svg" xmlns:xlink="http://www.w3.org/1999/xlink" width="80px" height="80px" viewBox="0 0 80 80" version="1.1">
<g id="surface1">
<path style=" stroke:none;fill-rule:nonzero;fill:rgb(0%,0%,0%);fill-opacity:1;" d="M 76.015625 39.972656 L 72.382812 39.519531 C 71.28125 36.820312 69.695312 34.320312 67.726562 32.160156 L 70.394531 20.855469 C 70.503906 20.390625 70.394531 19.902344 70.097656 19.527344 C 69.800781 19.152344 69.351562 18.933594 68.875 18.933594 L 68.53125 18.933594 C 68.53125 18.933594 68.527344 18.933594 68.527344 18.933594 C 64.097656 18.933594 60.105469 21.722656 58.535156 25.808594 C 57.421875 25.367188 56.28125 25.003906 55.117188 24.730469 C 54.277344 24.53125 53.4375 25.050781 53.238281 25.890625 C 53.039062 26.730469 53.558594 27.570312 54.398438 27.769531 C 58.375 28.710938 61.921875 30.722656 64.71875 33.511719 C 64.824219 33.664062 64.949219 33.796875 65.097656 33.902344 C 67.136719 36.042969 68.75 38.609375 69.792969 41.484375 C 69.996094 42.039062 70.488281 42.429688 71.070312 42.503906 L 75.625 43.074219 C 76.339844 43.164062 76.875 43.769531 76.875 44.488281 L 76.875 52.367188 C 76.875 53.085938 76.339844 53.691406 75.625 53.78125 L 71.402344 54.3125 C 70.796875 54.386719 70.289062 54.808594 70.105469 55.394531 C 68.855469 59.398438 66.472656 62.9375 63.222656 65.628906 C 62.863281 65.925781 62.65625 66.367188 62.65625 66.832031 L 62.65625 75.46875 C 62.65625 76.246094 62.027344 76.875 61.25 76.875 L 52.1875 76.875 C 51.414062 76.875 50.78125 76.246094 50.78125 75.46875 L 50.78125 72.175781 C 50.78125 71.316406 50.082031 70.613281 49.21875 70.613281 L 36.09375 70.613281 C 35.230469 70.613281 34.53125 71.316406 34.53125 72.175781 L 34.53125 75.46875 C 34.53125 76.246094 33.898438 76.875 33.125 76.875 L 24.0625 76.875 C 23.285156 76.875 22.65625 76.246094 22.65625 75.46875 L 22.65625 69.371094 C 22.65625 68.796875 22.339844 68.269531 21.839844 67.996094 C 14.824219 64.191406 10.46875 56.871094 10.46875 48.902344 C 10.46875 36.929688 20.210938 27.1875 32.183594 27.1875 L 34.140625 27.1875 C 35.003906 27.1875 35.703125 26.488281 35.703125 25.625 C 35.703125 24.761719 35.003906 24.0625 34.140625 24.0625 L 32.183594 24.0625 C 20.582031 24.0625 10.816406 32.054688 8.097656 42.820312 L 6.953125 42.820312 C 4.84375 42.820312 3.125 41.101562 3.125 38.992188 C 3.125 36.882812 4.84375 35.164062 6.953125 35.164062 C 7.816406 35.164062 8.515625 34.464844 8.515625 33.601562 C 8.515625 32.738281 7.816406 32.039062 6.953125 32.039062 C 3.121094 32.039062 0 35.15625 0 38.992188 C 0 42.824219 3.121094 45.945312 6.953125 45.945312 L 7.519531 45.945312 C 7.40625 46.914062 7.34375 47.902344 7.34375 48.902344 C 7.34375 57.707031 11.988281 65.8125 19.53125 70.28125 L 19.53125 75.46875 C 19.53125 77.96875 21.5625 80 24.0625 80 L 33.125 80 C 35.621094 80 37.65625 77.96875 37.65625 75.46875 L 37.65625 73.738281 L 47.65625 73.738281 L 47.65625 75.46875 C 47.65625 77.96875 49.691406 80 52.1875 80 L 61.25 80 C 63.75 80 65.78125 77.96875 65.78125 75.46875 L 65.78125 67.554688 C 68.953125 64.761719 71.347656 61.242188 72.765625 57.289062 L 76.011719 56.882812 C 78.285156 56.597656 80 54.65625 80 52.367188 L 80 44.488281 C 80 42.199219 78.285156 40.257812 76.015625 39.972656 Z M 65.101562 29.675781 C 63.933594 28.722656 62.6875 27.875 61.375 27.152344 C 62.238281 24.671875 64.34375 22.824219 66.855469 22.25 Z M 65.101562 29.675781 "/>
<path style=" stroke:none;fill-rule:nonzero;fill:rgb(0%,0%,0%);fill-opacity:1;" d="M 62.199219 39.675781 C 61.90625 39.386719 61.503906 39.21875 61.09375 39.21875 C 60.683594 39.21875 60.28125 39.386719 59.988281 39.675781 C 59.699219 39.96875 59.53125 40.371094 59.53125 40.78125 C 59.53125 41.191406 59.699219 41.59375 59.988281 41.886719 C 60.28125 42.175781 60.683594 42.34375 61.09375 42.34375 C 61.503906 42.34375 61.90625 42.175781 62.199219 41.886719 C 62.488281 41.59375 62.65625 41.191406 62.65625 40.78125 C 62.65625 40.371094 62.488281 39.96875 62.199219 39.675781 Z M 62.199219 39.675781 "/>
<path style=" stroke:none;fill-rule:nonzero;fill:rgb(0%,0%,0%);fill-opacity:1;" d="M 45.820312 9.113281 C 44.957031 9.113281 44.257812 9.8125 44.257812 10.675781 L 44.257812 16.875 C 44.257812 17.738281 44.957031 18.4375 45.820312 18.4375 C 46.683594 18.4375 47.382812 17.738281 47.382812 16.875 L 47.382812 10.675781 C 47.382812 9.8125 46.683594 9.113281 45.820312 9.113281 Z M 45.820312 9.113281 "/>
<path style=" stroke:none;fill-rule:nonzero;fill:rgb(0%,0%,0%);fill-opacity:1;" d="M 46.921875 3.902344 C 46.632812 3.613281 46.230469 3.445312 45.820312 3.445312 C 45.40625 3.445312 45.003906 3.613281 44.714844 3.902344 C 44.421875 4.195312 44.257812 4.597656 44.257812 5.007812 C 44.257812 5.421875 44.421875 5.820312 44.714844 6.113281 C 45.003906 6.402344 45.40625 6.570312 45.820312 6.570312 C 46.230469 6.570312 46.632812 6.402344 46.921875 6.113281 C 47.214844 5.820312 47.382812 5.417969 47.382812 5.007812 C 47.382812 4.597656 47.214844 4.195312 46.921875 3.902344 Z M 46.921875 3.902344 "/>
<path style=" stroke:none;fill-rule:nonzero;fill:rgb(0%,0%,0%);fill-opacity:1;" d="M 33.125 0 C 32.261719 0 31.5625 0.699219 31.5625 1.5625 L 31.5625 4.21875 C 31.5625 5.082031 32.261719 5.78125 33.125 5.78125 C 33.988281 5.78125 34.6875 5.082031 34.6875 4.21875 L 34.6875 1.5625 C 34.6875 0.699219 33.988281 0 33.125 0 Z M 33.125 0 "/>
<path style=" stroke:none;fill-rule:nonzero;fill:rgb(0%,0%,0%);fill-opacity:1;" d="M 17.804688 48.902344 C 17.804688 48.039062 17.101562 47.339844 16.242188 47.339844 C 15.378906 47.339844 14.679688 48.039062 14.679688 48.902344 L 14.679688 48.984375 C 14.683594 49.84375 15.382812 50.535156 16.242188 50.535156 C 16.242188 50.535156 16.246094 50.535156 16.25 50.535156 C 17.113281 50.53125 17.808594 49.828125 17.804688 48.964844 Z M 17.804688 48.902344 "/>
<path style=" stroke:none;fill-rule:nonzero;fill:rgb(0%,0%,0%);fill-opacity:1;" d="M 24.71875 61.195312 C 22.003906 59.542969 19.882812 57.003906 18.75 54.042969 C 18.441406 53.238281 17.535156 52.835938 16.730469 53.144531 C 15.925781 53.453125 15.523438 54.355469 15.832031 55.164062 C 17.210938 58.765625 19.789062 61.855469 23.09375 63.863281 C 23.347656 64.019531 23.628906 64.09375 23.90625 64.09375 C 24.433594 64.09375 24.949219 63.824219 25.242188 63.34375 C 25.691406 62.605469 25.457031 61.644531 24.71875 61.195312 Z M 24.71875 61.195312 "/>
<path style=" stroke:none;fill-rule:nonzero;fill:rgb(0%,0%,0%);fill-opacity:1;" d="M 33.125 7.507812 C 29.507812 7.507812 26.5625 10.453125 26.5625 14.070312 C 26.5625 17.6875 29.507812 20.632812 33.125 20.632812 C 36.742188 20.632812 39.6875 17.6875 39.6875 14.070312 C 39.6875 10.453125 36.742188 7.507812 33.125 7.507812 Z M 33.125 17.507812 C 31.230469 17.507812 29.6875 15.964844 29.6875 14.070312 C 29.6875 12.175781 31.230469 10.632812 33.125 10.632812 C 35.019531 10.632812 36.5625 12.175781 36.5625 14.070312 C 36.5625 15.964844 35.019531 17.507812 33.125 17.507812 Z M 33.125 17.507812 "/>
<path style=" stroke:none;fill-rule:nonzero;fill:rgb(0%,0%,0%);fill-opacity:1;" d="M 52.8125 33.125 L 51.40625 33.125 C 52.023438 32.125 52.382812 30.945312 52.382812 29.6875 C 52.382812 26.070312 49.4375 23.125 45.820312 23.125 C 42.199219 23.125 39.257812 26.070312 39.257812 29.6875 C 39.257812 30.945312 39.613281 32.125 40.230469 33.125 L 32.5 33.125 C 31.636719 33.125 30.9375 33.824219 30.9375 34.6875 C 30.9375 35.550781 31.636719 36.25 32.5 36.25 L 52.8125 36.25 C 53.675781 36.25 54.375 35.550781 54.375 34.6875 C 54.375 33.824219 53.675781 33.125 52.8125 33.125 Z M 45.820312 33.125 C 43.921875 33.125 42.382812 31.582031 42.382812 29.6875 C 42.382812 27.792969 43.921875 26.25 45.820312 26.25 C 47.714844 26.25 49.257812 27.792969 49.257812 29.6875 C 49.257812 31.582031 47.714844 33.125 45.820312 33.125 Z M 45.820312 33.125 "/>
</g>
</svg>
