<?xml version="1.0" encoding="UTF-8"?>
<svg xmlns="http://www.w3.org/2000/svg" xmlns:xlink="http://www.w3.org/1999/xlink" width="80px" height="80px" viewBox="0 0 80 80" version="1.1">
<g id="surface1">
<path style=" stroke:none;fill-rule:nonzero;fill:rgb(0%,0%,0%);fill-opacity:1;" d="M 71.425781 41.964844 L 69.027344 41.964844 C 67.4375 37.203125 64.347656 33.003906 60.210938 29.730469 C 60.203125 29.570312 60.179688 29.414062 60.140625 29.261719 C 59.28125 26.285156 60.34375 23.554688 61.59375 21.605469 C 62.472656 20.25 61.339844 18.480469 59.703125 18.679688 C 56.039062 19.125 53.519531 20.445312 51.78125 21.917969 C 50.589844 22.929688 49.746094 24.289062 49.367188 25.804688 C 46.746094 36.429688 36.96875 44.359375 25.277344 44.359375 C 19.851562 44.367188 14.570312 42.613281 10.226562 39.359375 C 7.941406 44.1875 7.394531 49.65625 8.675781 54.84375 C 8.675781 54.871094 8.683594 54.898438 8.691406 54.925781 C 9.152344 56.777344 9.835938 58.566406 10.734375 60.25 C 11.898438 62.730469 13.625 65.625 15.953125 67.988281 C 19.351562 71.414062 19.921875 75.644531 20.007812 77.464844 L 20.007812 78.375 C 20.082031 79.292969 20.847656 79.996094 21.765625 80 L 32.546875 80 C 33.515625 80.011719 34.308594 79.234375 34.320312 78.265625 L 34.320312 75.648438 C 35.90625 75.855469 37.5 75.960938 39.101562 75.960938 C 40.351562 75.960938 41.605469 75.898438 42.851562 75.765625 L 42.851562 78.242188 C 42.859375 79.210938 43.65625 79.988281 44.625 79.980469 L 55.40625 79.980469 C 56.375 79.988281 57.167969 79.210938 57.179688 78.242188 L 57.179688 75.632812 C 57.195312 74.773438 57.5 71.320312 60.828125 68.375 C 60.945312 68.273438 61.0625 68.175781 61.179688 68.0625 C 61.214844 68.03125 61.25 68.011719 61.28125 67.980469 C 64.984375 64.753906 67.734375 60.71875 69.15625 56.222656 L 71.40625 56.222656 C 73.1875 56.238281 74.644531 54.8125 74.664062 53.03125 L 74.664062 45.140625 C 74.6875 43.40625 73.234375 41.964844 71.425781 41.964844 Z M 57.96875 42.527344 C 56.53125 42.503906 55.382812 41.324219 55.398438 39.886719 C 55.417969 38.449219 56.589844 37.296875 58.027344 37.304688 C 59.464844 37.3125 60.625 38.480469 60.625 39.914062 C 60.605469 41.367188 59.421875 42.535156 57.96875 42.527344 Z M 57.96875 42.527344 "/>
<path style=" stroke:none;fill-rule:nonzero;fill:rgb(0%,0%,0%);fill-opacity:1;" d="M 24 37.335938 C 34.308594 37.332031 42.667969 28.976562 42.664062 18.667969 C 42.664062 8.355469 34.308594 0 23.996094 0 C 13.6875 0 5.332031 8.359375 5.332031 18.667969 C 5.316406 23.621094 7.277344 28.378906 10.78125 31.882812 C 14.285156 35.386719 19.042969 37.351562 24 37.335938 Z M 28.316406 19.992188 C 28.25 20.109375 28.164062 20.214844 28.058594 20.304688 C 27.949219 20.394531 27.828125 20.464844 27.695312 20.515625 C 27.554688 20.566406 27.402344 20.59375 27.253906 20.59375 L 22.730469 20.59375 L 22.476562 22.78125 C 22.417969 23.292969 22.289062 23.792969 22.09375 24.269531 C 21.902344 24.71875 21.640625 25.128906 21.3125 25.492188 C 21.746094 25.394531 22.175781 25.320312 22.601562 25.261719 C 23.027344 25.203125 23.453125 25.175781 23.878906 25.175781 L 30.730469 25.175781 L 30.515625 26.761719 C 30.488281 26.96875 30.421875 27.164062 30.320312 27.34375 C 30.210938 27.542969 30.078125 27.71875 29.914062 27.875 C 29.746094 28.035156 29.554688 28.167969 29.339844 28.265625 C 29.121094 28.367188 28.882812 28.421875 28.640625 28.421875 L 16 28.421875 L 16.3125 26.039062 C 16.828125 25.957031 17.308594 25.714844 17.679688 25.34375 C 17.992188 25.007812 18.1875 24.507812 18.265625 23.84375 L 18.664062 20.605469 L 16.738281 20.605469 L 16.9375 19.058594 C 16.957031 18.9375 17 18.824219 17.0625 18.71875 C 17.132812 18.605469 17.21875 18.507812 17.320312 18.421875 C 17.429688 18.332031 17.554688 18.257812 17.6875 18.203125 C 17.824219 18.144531 17.976562 18.117188 18.128906 18.117188 L 18.976562 18.117188 L 19.332031 15.195312 C 19.433594 14.367188 19.679688 13.558594 20.050781 12.808594 C 20.421875 12.0625 20.929688 11.390625 21.546875 10.828125 C 22.195312 10.242188 22.945312 9.78125 23.761719 9.46875 C 24.679688 9.125 25.652344 8.953125 26.632812 8.96875 C 27.316406 8.957031 28.003906 9.046875 28.664062 9.234375 C 29.207031 9.390625 29.71875 9.636719 30.183594 9.960938 C 30.609375 10.261719 30.976562 10.640625 31.269531 11.078125 C 31.5625 11.523438 31.808594 12 31.996094 12.5 L 30.277344 13.515625 C 29.953125 13.683594 29.589844 13.765625 29.226562 13.753906 C 28.878906 13.730469 28.558594 13.558594 28.34375 13.285156 C 28.1875 13.09375 28.03125 12.925781 27.902344 12.785156 C 27.773438 12.648438 27.628906 12.535156 27.46875 12.441406 C 27.300781 12.347656 27.125 12.28125 26.9375 12.25 C 26.703125 12.207031 26.46875 12.1875 26.230469 12.1875 C 25.511719 12.171875 24.820312 12.453125 24.320312 12.960938 C 23.804688 13.484375 23.492188 14.222656 23.382812 15.175781 L 23.023438 18.125 L 28.632812 18.125 L 28.445312 19.671875 C 28.421875 19.785156 28.378906 19.886719 28.316406 19.984375 Z M 28.316406 19.992188 "/>
</g>
</svg>
