<?xml version="1.0" encoding="UTF-8"?>
<svg xmlns="http://www.w3.org/2000/svg" xmlns:xlink="http://www.w3.org/1999/xlink" width="80px" height="80px" viewBox="0 0 80 80" version="1.1">
<g id="surface1">
<path style=" stroke:none;fill-rule:nonzero;fill:rgb(0%,0%,0%);fill-opacity:1;" d="M 5.683594 32.859375 L 5.683594 56.953125 C 5.683594 57.601562 6.207031 58.125 6.855469 58.125 C 7.5 58.125 8.027344 57.601562 8.027344 56.953125 L 8.027344 32.859375 C 9.828125 32.539062 11.382812 31.5 12.378906 30.046875 C 13.585938 31.808594 15.613281 32.964844 17.902344 32.964844 C 20.195312 32.964844 22.21875 31.808594 23.425781 30.046875 C 24.636719 31.808594 26.660156 32.964844 28.953125 32.964844 C 31.242188 32.964844 33.269531 31.808594 34.476562 30.046875 C 35.683594 31.808594 37.707031 32.964844 40 32.964844 C 42.289062 32.964844 44.316406 31.808594 45.523438 30.046875 C 46.730469 31.808594 48.757812 32.964844 51.046875 32.964844 C 53.339844 32.964844 55.363281 31.808594 56.574219 30.046875 C 57.78125 31.808594 59.804688 32.964844 62.097656 32.964844 C 64.386719 32.964844 66.414062 31.808594 67.621094 30.046875 C 68.617188 31.5 70.171875 32.539062 71.972656 32.859375 L 71.972656 37.265625 C 71.972656 37.914062 72.496094 38.4375 73.144531 38.4375 C 73.792969 38.4375 74.316406 37.914062 74.316406 37.265625 L 74.316406 32.859375 C 77.453125 32.304688 79.84375 29.5625 79.84375 26.269531 L 79.84375 23.269531 L 79.839844 23.269531 C 79.839844 23.085938 79.800781 22.90625 79.714844 22.738281 L 69.386719 2.371094 C 68.644531 0.910156 67.164062 0 65.523438 0 L 51.667969 0 C 51.664062 0 51.664062 0 51.660156 0 L 28.339844 0 C 28.335938 0 28.335938 0 28.332031 0 L 14.476562 0 C 12.835938 0 11.355469 0.910156 10.613281 2.371094 L 0.285156 22.738281 C 0.199219 22.90625 0.160156 23.085938 0.160156 23.269531 L 0.15625 23.269531 L 0.15625 26.269531 C 0.15625 29.5625 2.546875 32.304688 5.683594 32.859375 Z M 6.855469 30.621094 C 4.453125 30.621094 2.5 28.667969 2.5 26.269531 L 2.5 24.441406 L 11.207031 24.441406 L 11.207031 26.269531 C 11.207031 28.667969 9.253906 30.621094 6.855469 30.621094 Z M 26.859375 2.34375 L 22.484375 22.097656 L 14.050781 22.097656 L 21.25 2.34375 Z M 34.945312 2.34375 L 33.390625 22.097656 L 24.886719 22.097656 L 29.261719 2.34375 Z M 42.703125 2.34375 L 44.257812 22.097656 L 35.742188 22.097656 L 37.296875 2.34375 Z M 50.738281 2.34375 L 55.113281 22.097656 L 46.609375 22.097656 L 45.054688 2.34375 Z M 58.75 2.34375 L 65.949219 22.097656 L 57.515625 22.097656 L 53.140625 2.34375 Z M 17.902344 30.621094 C 15.503906 30.621094 13.550781 28.667969 13.550781 26.269531 L 13.550781 24.441406 L 22.253906 24.441406 L 22.253906 26.269531 C 22.253906 28.667969 20.300781 30.621094 17.902344 30.621094 Z M 28.953125 30.621094 C 26.550781 30.621094 24.597656 28.667969 24.597656 26.269531 L 24.597656 24.441406 L 33.304688 24.441406 L 33.304688 26.269531 C 33.304688 28.667969 31.351562 30.621094 28.953125 30.621094 Z M 40 30.621094 C 37.601562 30.621094 35.648438 28.667969 35.648438 26.269531 L 35.648438 24.441406 L 44.351562 24.441406 L 44.351562 26.269531 C 44.351562 28.667969 42.398438 30.621094 40 30.621094 Z M 51.046875 30.621094 C 48.648438 30.621094 46.695312 28.667969 46.695312 26.269531 L 46.695312 24.441406 L 55.402344 24.441406 L 55.402344 26.269531 C 55.402344 28.667969 53.449219 30.621094 51.046875 30.621094 Z M 62.097656 30.621094 C 59.699219 30.621094 57.746094 28.667969 57.746094 26.269531 L 57.746094 24.441406 L 66.449219 24.441406 L 66.449219 26.269531 C 66.449219 28.667969 64.496094 30.621094 62.097656 30.621094 Z M 73.144531 30.621094 C 70.746094 30.621094 68.792969 28.667969 68.792969 26.269531 L 68.792969 24.441406 L 77.5 24.441406 L 77.5 26.269531 C 77.5 28.667969 75.546875 30.621094 73.144531 30.621094 Z M 67.296875 3.429688 L 76.761719 22.097656 L 68.441406 22.097656 L 61.246094 2.34375 L 65.523438 2.34375 C 66.277344 2.34375 66.957031 2.761719 67.296875 3.429688 Z M 12.703125 3.429688 C 13.042969 2.761719 13.722656 2.34375 14.476562 2.34375 L 18.753906 2.34375 L 11.558594 22.097656 L 3.238281 22.097656 Z M 12.703125 3.429688 "/>
<path style=" stroke:none;fill-rule:nonzero;fill:rgb(0%,0%,0%);fill-opacity:1;" d="M 35.894531 39.460938 C 35.25 39.460938 34.722656 39.984375 34.722656 40.632812 L 34.722656 67.78125 C 34.722656 68.425781 35.25 68.953125 35.894531 68.953125 L 68.09375 68.953125 C 68.742188 68.953125 69.265625 68.425781 69.265625 67.78125 L 69.265625 40.632812 C 69.265625 39.984375 68.742188 39.460938 68.09375 39.460938 Z M 37.066406 41.804688 L 66.921875 41.804688 L 66.921875 61.558594 L 37.066406 61.558594 Z M 66.921875 66.609375 L 37.066406 66.609375 L 37.066406 63.902344 L 66.921875 63.902344 Z M 66.921875 66.609375 "/>
<path style=" stroke:none;fill-rule:nonzero;fill:rgb(0%,0%,0%);fill-opacity:1;" d="M 25.792969 52.246094 C 25.148438 52.246094 24.621094 52.769531 24.621094 53.417969 L 24.621094 59.730469 C 24.621094 60.378906 25.148438 60.902344 25.792969 60.902344 C 26.441406 60.902344 26.964844 60.378906 26.964844 59.730469 L 26.964844 53.417969 C 26.964844 52.769531 26.441406 52.246094 25.792969 52.246094 Z M 25.792969 52.246094 "/>
<path style=" stroke:none;fill-rule:nonzero;fill:rgb(0%,0%,0%);fill-opacity:1;" d="M 77.25 72.605469 L 74.316406 72.605469 L 74.316406 42.734375 C 74.316406 42.085938 73.792969 41.5625 73.144531 41.5625 C 72.5 41.5625 71.972656 42.085938 71.972656 42.734375 L 71.972656 72.605469 L 32.015625 72.605469 L 32.015625 40.632812 C 32.015625 39.984375 31.492188 39.460938 30.84375 39.460938 L 11.90625 39.460938 C 11.257812 39.460938 10.734375 39.984375 10.734375 40.632812 L 10.734375 72.605469 L 8.027344 72.605469 L 8.027344 62.421875 C 8.027344 61.773438 7.5 61.25 6.855469 61.25 C 6.207031 61.25 5.683594 61.773438 5.683594 62.421875 L 5.683594 72.605469 L 2.75 72.605469 C 1.234375 72.605469 0 73.839844 0 75.355469 L 0 77.25 C 0 78.765625 1.234375 80 2.75 80 L 63.46875 80 C 64.113281 80 64.640625 79.476562 64.640625 78.828125 C 64.640625 78.179688 64.113281 77.65625 63.46875 77.65625 L 2.75 77.65625 C 2.527344 77.65625 2.34375 77.472656 2.34375 77.25 L 2.34375 75.355469 C 2.34375 75.132812 2.527344 74.949219 2.75 74.949219 L 77.25 74.949219 C 77.472656 74.949219 77.65625 75.132812 77.65625 75.355469 L 77.65625 77.25 C 77.65625 77.472656 77.472656 77.65625 77.25 77.65625 L 68.9375 77.65625 C 68.289062 77.65625 67.765625 78.179688 67.765625 78.828125 C 67.765625 79.476562 68.289062 80 68.9375 80 L 77.25 80 C 78.765625 80 80 78.765625 80 77.25 L 80 75.355469 C 80 73.839844 78.765625 72.605469 77.25 72.605469 Z M 13.078125 41.804688 L 29.671875 41.804688 L 29.671875 72.605469 L 13.078125 72.605469 Z M 13.078125 41.804688 "/>
<path style=" stroke:none;fill-rule:nonzero;fill:rgb(0%,0%,0%);fill-opacity:1;" d="M 59.9375 47.914062 L 54.574219 45.703125 C 54.105469 45.511719 53.566406 45.640625 53.238281 46.023438 L 51.695312 47.824219 L 49.234375 47.824219 C 45.976562 47.824219 43.328125 50.476562 43.328125 53.730469 L 43.328125 56.574219 C 43.328125 57.21875 43.851562 57.746094 44.5 57.746094 L 59.492188 57.746094 C 60.140625 57.746094 60.664062 57.21875 60.664062 56.574219 L 60.664062 48.996094 C 60.664062 48.523438 60.378906 48.09375 59.9375 47.914062 Z M 58.320312 55.402344 L 45.671875 55.402344 L 45.671875 53.730469 C 45.671875 51.765625 47.269531 50.167969 49.234375 50.167969 L 52.234375 50.167969 C 52.574219 50.167969 52.898438 50.019531 53.121094 49.757812 L 54.464844 48.195312 L 58.320312 49.78125 Z M 58.320312 55.402344 "/>
</g>
</svg>
