<?xml version="1.0" encoding="UTF-8"?>
<svg xmlns="http://www.w3.org/2000/svg" xmlns:xlink="http://www.w3.org/1999/xlink" width="80px" height="80px" viewBox="0 0 80 80" version="1.1">
<g id="surface1">
<path style=" stroke:none;fill-rule:nonzero;fill:rgb(0%,0%,0%);fill-opacity:1;" d="M 59.972656 40.148438 C 59.972656 29.109375 51.023438 20.15625 39.984375 20.15625 C 28.941406 20.15625 19.992188 29.109375 19.992188 40.148438 C 19.992188 51.191406 28.941406 60.140625 39.984375 60.140625 C 51.019531 60.128906 59.960938 51.183594 59.972656 40.148438 Z M 30.652344 54.726562 L 30.652344 52.144531 C 30.644531 49.257812 32.507812 46.699219 35.257812 45.820312 L 38.757812 54.003906 C 38.96875 54.492188 39.449219 54.808594 39.984375 54.808594 C 40.515625 54.808594 40.996094 54.492188 41.207031 54.003906 L 44.707031 45.820312 C 47.457031 46.699219 49.320312 49.257812 49.3125 52.144531 L 49.3125 54.726562 C 43.632812 58.390625 36.332031 58.390625 30.652344 54.726562 Z M 38.011719 45.480469 L 41.953125 45.480469 L 39.984375 50.085938 Z M 51.976562 52.621094 L 51.976562 52.144531 C 51.964844 46.996094 47.796875 42.828125 42.648438 42.816406 L 37.316406 42.816406 C 32.171875 42.828125 28.003906 46.996094 27.988281 52.144531 L 27.988281 52.621094 C 22.882812 47.726562 21.269531 40.21875 23.90625 33.65625 C 26.546875 27.09375 32.910156 22.792969 39.984375 22.792969 C 47.054688 22.792969 53.417969 27.09375 56.058594 33.65625 C 58.695312 40.21875 57.082031 47.726562 51.976562 52.621094 Z M 51.976562 52.621094 "/>
<path style=" stroke:none;fill-rule:nonzero;fill:rgb(0%,0%,0%);fill-opacity:1;" d="M 46.648438 36.152344 L 46.648438 34.816406 C 47.382812 34.816406 47.980469 34.222656 47.980469 33.484375 L 47.980469 32.152344 C 47.976562 28.472656 44.996094 25.492188 41.316406 25.488281 L 38.648438 25.488281 C 34.972656 25.492188 31.992188 28.472656 31.984375 32.152344 L 31.984375 33.484375 C 31.984375 34.222656 32.582031 34.816406 33.320312 34.816406 L 33.320312 36.152344 C 33.320312 39.832031 36.300781 42.816406 39.984375 42.816406 C 43.664062 42.816406 46.648438 39.832031 46.648438 36.152344 Z M 38.648438 28.152344 L 41.316406 28.152344 C 43.523438 28.152344 45.3125 29.945312 45.3125 32.152344 L 40.296875 32.152344 L 37.914062 30.960938 C 37.398438 30.703125 36.78125 30.804688 36.375 31.210938 L 35.433594 32.152344 L 34.652344 32.152344 C 34.652344 29.945312 36.441406 28.152344 38.648438 28.152344 Z M 39.984375 40.148438 C 37.773438 40.148438 35.984375 38.359375 35.984375 36.152344 L 35.984375 34.816406 C 36.339844 34.816406 36.675781 34.675781 36.925781 34.425781 L 37.582031 33.773438 L 39.386719 34.679688 C 39.570312 34.769531 39.777344 34.816406 39.984375 34.816406 L 43.980469 34.816406 L 43.980469 36.152344 C 43.980469 38.359375 42.191406 40.148438 39.984375 40.148438 Z M 39.984375 40.148438 "/>
<path style=" stroke:none;fill-rule:nonzero;fill:rgb(0%,0%,0%);fill-opacity:1;" d="M 79.964844 40.148438 C 79.960938 37.570312 78.109375 35.363281 75.570312 34.914062 C 74.714844 29.035156 72.402344 23.460938 68.84375 18.703125 C 70.339844 16.589844 70.09375 13.703125 68.257812 11.878906 C 66.398438 10.109375 63.566406 9.871094 61.4375 11.296875 C 56.679688 7.734375 51.101562 5.421875 45.21875 4.5625 C 44.773438 2.019531 42.566406 0.167969 39.984375 0.167969 C 37.402344 0.167969 35.191406 2.019531 34.746094 4.5625 C 28.863281 5.417969 23.285156 7.734375 18.527344 11.296875 C 16.398438 9.871094 13.5625 10.109375 11.707031 11.878906 C 9.871094 13.707031 9.621094 16.589844 11.121094 18.703125 C 7.5625 23.460938 5.25 29.035156 4.398438 34.914062 C 1.855469 35.359375 0 37.566406 0 40.148438 C 0 42.730469 1.855469 44.941406 4.398438 45.386719 C 5.253906 51.265625 7.566406 56.835938 11.125 61.59375 C 9.628906 63.707031 9.875 66.59375 11.707031 68.425781 C 13.539062 70.257812 16.421875 70.5 18.539062 69.007812 C 23.296875 72.566406 28.867188 74.878906 34.746094 75.734375 C 35.191406 78.277344 37.402344 80.132812 39.984375 80.132812 C 42.566406 80.132812 44.773438 78.277344 45.21875 75.734375 C 51.097656 74.878906 56.671875 72.566406 61.429688 69.007812 C 63.542969 70.507812 66.429688 70.261719 68.261719 68.429688 C 70.09375 66.597656 70.339844 63.710938 68.839844 61.597656 C 72.402344 56.839844 74.714844 51.265625 75.570312 45.386719 C 78.109375 44.933594 79.960938 42.730469 79.964844 40.148438 Z M 77.300781 40.148438 C 77.300781 41.621094 76.109375 42.816406 74.636719 42.816406 C 73.164062 42.816406 71.96875 41.621094 71.96875 40.148438 C 71.96875 38.675781 73.164062 37.484375 74.636719 37.484375 C 76.109375 37.484375 77.300781 38.675781 77.300781 40.148438 Z M 64.488281 12.980469 C 65.566406 12.980469 66.535156 13.628906 66.949219 14.625 C 67.363281 15.621094 67.132812 16.769531 66.371094 17.53125 C 65.316406 18.539062 63.65625 18.539062 62.601562 17.53125 C 61.839844 16.769531 61.613281 15.621094 62.027344 14.625 C 62.4375 13.628906 63.410156 12.980469 64.488281 12.980469 Z M 39.984375 2.832031 C 41.457031 2.832031 42.648438 4.023438 42.648438 5.496094 C 42.648438 6.96875 41.457031 8.164062 39.984375 8.164062 C 38.511719 8.164062 37.316406 6.96875 37.316406 5.496094 C 37.316406 4.023438 38.511719 2.832031 39.984375 2.832031 Z M 13.59375 13.761719 C 14.261719 13.066406 15.253906 12.789062 16.1875 13.035156 C 17.117188 13.277344 17.847656 14.003906 18.089844 14.9375 C 18.335938 15.867188 18.054688 16.859375 17.363281 17.53125 C 16.308594 18.535156 14.648438 18.535156 13.59375 17.53125 C 12.554688 16.488281 12.554688 14.800781 13.59375 13.761719 Z M 2.664062 40.148438 C 2.664062 38.675781 3.859375 37.484375 5.332031 37.484375 C 6.804688 37.484375 7.996094 38.675781 7.996094 40.148438 C 7.996094 41.621094 6.804688 42.816406 5.332031 42.816406 C 3.859375 42.816406 2.664062 41.621094 2.664062 40.148438 Z M 13.59375 66.539062 C 12.554688 65.496094 12.554688 63.808594 13.59375 62.769531 C 14.632812 61.726562 16.324219 61.726562 17.363281 62.769531 C 18.40625 63.808594 18.40625 65.496094 17.363281 66.539062 C 16.308594 67.546875 14.648438 67.546875 13.59375 66.539062 Z M 39.984375 77.46875 C 38.511719 77.46875 37.316406 76.273438 37.316406 74.800781 C 37.316406 73.328125 38.511719 72.136719 39.984375 72.136719 C 41.457031 72.136719 42.648438 73.328125 42.648438 74.800781 C 42.648438 76.273438 41.457031 77.46875 39.984375 77.46875 Z M 39.984375 69.46875 C 37.714844 69.476562 35.699219 70.921875 34.964844 73.070312 C 29.636719 72.265625 24.589844 70.171875 20.257812 66.96875 C 21.269531 64.933594 20.863281 62.480469 19.246094 60.882812 C 17.617188 59.335938 15.210938 58.941406 13.175781 59.890625 C 9.964844 55.558594 7.867188 50.5 7.0625 45.167969 C 9.214844 44.441406 10.667969 42.421875 10.667969 40.148438 C 10.667969 37.875 9.214844 35.855469 7.0625 35.128906 C 7.863281 29.804688 9.960938 24.753906 13.164062 20.425781 C 15.199219 21.429688 17.648438 21.027344 19.253906 19.421875 C 20.859375 17.816406 21.265625 15.367188 20.257812 13.332031 C 24.589844 10.125 29.636719 8.03125 34.964844 7.230469 C 35.691406 9.382812 37.710938 10.832031 39.984375 10.832031 C 42.257812 10.832031 44.273438 9.382812 45.003906 7.230469 C 50.328125 8.03125 55.378906 10.125 59.707031 13.332031 C 58.707031 15.367188 59.109375 17.8125 60.714844 19.417969 C 62.320312 21.019531 64.765625 21.425781 66.800781 20.425781 C 70.007812 24.753906 72.101562 29.804688 72.902344 35.128906 C 70.75 35.855469 69.300781 37.875 69.300781 40.148438 C 69.300781 42.421875 70.75 44.441406 72.902344 45.167969 C 72.097656 50.503906 69.996094 55.558594 66.78125 59.890625 C 64.746094 58.945312 62.339844 59.335938 60.714844 60.882812 C 59.097656 62.480469 58.691406 64.933594 59.699219 66.96875 C 55.371094 70.171875 50.328125 72.265625 45.003906 73.070312 C 44.269531 70.921875 42.253906 69.476562 39.984375 69.46875 Z M 66.371094 66.539062 C 65.316406 67.546875 63.65625 67.546875 62.601562 66.539062 C 61.5625 65.496094 61.5625 63.808594 62.601562 62.769531 C 63.644531 61.726562 65.332031 61.726562 66.371094 62.769531 C 67.414062 63.808594 67.414062 65.496094 66.371094 66.539062 Z M 66.371094 66.539062 "/>
</g>
</svg>
