<?xml version="1.0" encoding="UTF-8"?>
<svg xmlns="http://www.w3.org/2000/svg" xmlns:xlink="http://www.w3.org/1999/xlink" width="80px" height="80px" viewBox="0 0 80 80" version="1.1">
<g id="surface1">
<path style=" stroke:none;fill-rule:nonzero;fill:rgb(0%,0%,0%);fill-opacity:1;" d="M 76.484375 8.984375 L 64.949219 8.984375 C 64.300781 8.984375 63.777344 9.507812 63.777344 10.15625 C 63.777344 10.804688 64.300781 11.328125 64.949219 11.328125 L 76.484375 11.328125 C 77.128906 11.328125 77.65625 11.855469 77.65625 12.5 C 77.65625 12.8125 77.535156 13.105469 77.308594 13.328125 C 77.089844 13.550781 76.796875 13.671875 76.484375 13.671875 L 28.984375 13.671875 L 28.984375 11.328125 L 60 11.328125 C 60.648438 11.328125 61.171875 10.804688 61.171875 10.15625 C 61.171875 9.507812 60.648438 8.984375 60 8.984375 L 28.984375 8.984375 L 28.984375 7.03125 C 28.984375 5.523438 27.757812 4.296875 26.25 4.296875 L 15.3125 4.296875 C 13.804688 4.296875 12.578125 5.523438 12.578125 7.03125 L 12.578125 8.984375 L 3.515625 8.984375 C 2.574219 8.984375 1.691406 9.351562 1.03125 10.011719 C 0.367188 10.675781 0 11.558594 0 12.5 C 0 14.4375 1.578125 16.015625 3.515625 16.015625 L 12.578125 16.015625 L 12.578125 17.96875 C 12.578125 19.476562 13.804688 20.703125 15.3125 20.703125 L 26.25 20.703125 C 27.757812 20.703125 28.984375 19.476562 28.984375 17.96875 L 28.984375 16.015625 L 76.484375 16.015625 C 77.425781 16.015625 78.308594 15.648438 78.96875 14.988281 C 79.632812 14.324219 80 13.441406 80 12.5 C 80 10.5625 78.421875 8.984375 76.484375 8.984375 Z M 12.578125 13.671875 L 3.515625 13.671875 C 2.871094 13.671875 2.34375 13.144531 2.34375 12.5 C 2.34375 12.1875 2.464844 11.894531 2.691406 11.671875 C 2.910156 11.449219 3.203125 11.328125 3.515625 11.328125 L 12.578125 11.328125 Z M 26.640625 17.96875 C 26.640625 18.179688 26.460938 18.359375 26.25 18.359375 L 15.3125 18.359375 C 15.101562 18.359375 14.921875 18.179688 14.921875 17.96875 L 14.921875 7.03125 C 14.921875 6.820312 15.101562 6.640625 15.3125 6.640625 L 26.25 6.640625 C 26.460938 6.640625 26.640625 6.820312 26.640625 7.03125 Z M 26.640625 17.96875 "/>
<path style=" stroke:none;fill-rule:nonzero;fill:rgb(0%,0%,0%);fill-opacity:1;" d="M 76.484375 42.421875 L 58.863281 42.421875 L 58.863281 37.421875 L 59.375 37.421875 C 60.882812 37.421875 62.109375 36.195312 62.109375 34.6875 L 62.109375 32.734375 L 76.484375 32.734375 C 77.425781 32.734375 78.308594 32.367188 78.96875 31.707031 C 79.632812 31.042969 80 30.160156 80 29.21875 C 80 27.28125 78.421875 25.703125 76.484375 25.703125 L 62.109375 25.703125 L 62.109375 23.75 C 62.109375 22.242188 60.882812 21.015625 59.375 21.015625 L 48.4375 21.015625 C 46.929688 21.015625 45.703125 22.242188 45.703125 23.75 L 45.703125 25.703125 L 3.515625 25.703125 C 2.574219 25.703125 1.691406 26.070312 1.03125 26.730469 C 0.367188 27.394531 0 28.277344 0 29.21875 C 0 31.15625 1.578125 32.734375 3.515625 32.734375 L 9.980469 32.734375 C 10.628906 32.734375 11.152344 32.210938 11.152344 31.5625 C 11.152344 30.914062 10.628906 30.390625 9.980469 30.390625 L 3.515625 30.390625 C 2.871094 30.390625 2.34375 29.863281 2.34375 29.21875 C 2.34375 28.90625 2.464844 28.613281 2.691406 28.390625 C 2.910156 28.167969 3.203125 28.046875 3.515625 28.046875 L 45.703125 28.046875 L 45.703125 30.390625 L 15.039062 30.390625 C 14.390625 30.390625 13.867188 30.914062 13.867188 31.5625 C 13.867188 32.210938 14.390625 32.734375 15.039062 32.734375 L 45.703125 32.734375 L 45.703125 34.6875 C 45.703125 36.195312 46.929688 37.421875 48.4375 37.421875 L 49.832031 37.421875 L 49.8125 42.421875 L 34.027344 42.421875 L 34.027344 40.46875 C 34.027344 38.960938 32.800781 37.734375 31.292969 37.734375 L 20.355469 37.734375 C 18.847656 37.734375 17.621094 38.960938 17.621094 40.46875 L 17.621094 42.421875 L 3.515625 42.421875 C 2.574219 42.421875 1.691406 42.789062 1.03125 43.449219 C 0.367188 44.113281 0 44.996094 0 45.9375 C 0 47.875 1.578125 49.453125 3.515625 49.453125 L 17.621094 49.453125 L 17.621094 51.40625 C 17.621094 52.914062 18.847656 54.140625 20.355469 54.140625 L 31.292969 54.140625 C 32.800781 54.140625 34.027344 52.914062 34.027344 51.40625 L 34.027344 49.453125 L 43.882812 49.453125 C 43.453125 50.179688 43.203125 51.023438 43.203125 51.925781 L 43.203125 54.972656 C 43.203125 55.621094 43.726562 56.144531 44.375 56.144531 C 45.023438 56.144531 45.546875 55.621094 45.546875 54.972656 L 45.546875 51.925781 C 45.546875 50.617188 46.554688 49.53125 47.8125 49.453125 L 48.144531 49.453125 C 48.652344 49.496094 49.046875 49.714844 49.371094 50.136719 C 49.769531 50.65625 50.457031 50.863281 51.078125 50.652344 C 51.703125 50.441406 52.125 49.859375 52.128906 49.199219 L 52.132812 48.289062 C 52.132812 48.285156 52.132812 48.285156 52.132812 48.28125 C 52.132812 48.277344 52.132812 48.277344 52.132812 48.273438 L 52.183594 36.261719 C 52.183594 36.257812 52.183594 36.253906 52.183594 36.25 C 52.183594 36.246094 52.183594 36.242188 52.183594 36.238281 L 52.199219 32.554688 C 52.199219 31.359375 53.167969 30.390625 54.359375 30.390625 C 54.9375 30.390625 55.480469 30.617188 55.886719 31.023438 C 56.296875 31.433594 56.519531 31.976562 56.519531 32.554688 L 56.519531 43.246094 C 56.519531 45.257812 58.15625 46.898438 60.171875 46.898438 L 67.007812 46.898438 C 69.734375 46.898438 71.953125 49.117188 71.953125 51.847656 L 71.953125 67.316406 C 71.953125 68.0625 71.347656 68.671875 70.597656 68.671875 L 51.503906 68.671875 C 48.21875 68.671875 45.546875 65.996094 45.546875 62.707031 L 45.546875 60 C 45.546875 59.351562 45.023438 58.828125 44.375 58.828125 C 43.726562 58.828125 43.203125 59.351562 43.203125 60 L 43.203125 62.707031 C 43.203125 66.964844 46.417969 70.480469 50.542969 70.957031 L 50.542969 73.933594 C 50.542969 74.910156 51.339844 75.703125 52.316406 75.703125 L 69.867188 75.703125 C 70.84375 75.703125 71.636719 74.910156 71.636719 73.933594 L 71.636719 70.867188 C 73.171875 70.414062 74.296875 68.996094 74.296875 67.316406 L 74.296875 51.847656 C 74.296875 51.007812 74.152344 50.203125 73.890625 49.453125 L 76.484375 49.453125 C 77.425781 49.453125 78.308594 49.085938 78.96875 48.425781 C 79.632812 47.761719 80 46.878906 80 45.9375 C 80 44 78.421875 42.421875 76.484375 42.421875 Z M 62.109375 28.046875 L 76.484375 28.046875 C 77.128906 28.046875 77.65625 28.574219 77.65625 29.21875 C 77.65625 29.53125 77.535156 29.824219 77.308594 30.046875 C 77.089844 30.269531 76.796875 30.390625 76.484375 30.390625 L 62.109375 30.390625 Z M 17.621094 47.109375 L 3.515625 47.109375 C 2.871094 47.109375 2.34375 46.582031 2.34375 45.9375 C 2.34375 45.625 2.464844 45.332031 2.691406 45.109375 C 2.910156 44.886719 3.203125 44.765625 3.515625 44.765625 L 17.621094 44.765625 Z M 31.683594 51.40625 C 31.683594 51.617188 31.503906 51.796875 31.292969 51.796875 L 20.355469 51.796875 C 20.144531 51.796875 19.964844 51.617188 19.964844 51.40625 L 19.964844 48.292969 C 19.964844 48.289062 19.964844 48.285156 19.964844 48.28125 C 19.964844 48.277344 19.964844 48.273438 19.964844 48.269531 L 19.964844 43.605469 C 19.964844 43.601562 19.964844 43.597656 19.964844 43.59375 C 19.964844 43.589844 19.964844 43.585938 19.964844 43.582031 L 19.964844 40.46875 C 19.964844 40.257812 20.144531 40.078125 20.355469 40.078125 L 31.292969 40.078125 C 31.503906 40.078125 31.683594 40.257812 31.683594 40.46875 Z M 49.792969 47.109375 L 48.191406 47.109375 C 48.082031 47.105469 47.972656 47.101562 47.859375 47.101562 C 47.8125 47.105469 47.765625 47.105469 47.71875 47.109375 L 34.027344 47.109375 L 34.027344 44.765625 L 49.800781 44.765625 Z M 57.542969 29.367188 C 56.695312 28.515625 55.5625 28.046875 54.359375 28.046875 C 51.878906 28.046875 49.855469 30.066406 49.855469 32.546875 L 49.84375 35.078125 L 48.4375 35.078125 C 48.226562 35.078125 48.046875 34.898438 48.046875 34.6875 L 48.046875 23.75 C 48.046875 23.539062 48.226562 23.359375 48.4375 23.359375 L 59.375 23.359375 C 59.585938 23.359375 59.765625 23.539062 59.765625 23.75 L 59.765625 34.6875 C 59.765625 34.898438 59.585938 35.078125 59.375 35.078125 L 58.863281 35.078125 L 58.863281 32.554688 C 58.863281 31.351562 58.394531 30.21875 57.542969 29.367188 Z M 69.292969 73.359375 L 52.886719 73.359375 L 52.886719 71.015625 L 69.292969 71.015625 Z M 77.308594 46.765625 C 77.089844 46.988281 76.796875 47.109375 76.484375 47.109375 L 72.542969 47.109375 C 71.566406 45.972656 70.25 45.136719 68.75 44.765625 L 76.484375 44.765625 C 77.128906 44.765625 77.65625 45.292969 77.65625 45.9375 C 77.65625 46.25 77.535156 46.542969 77.308594 46.765625 Z M 77.308594 46.765625 "/>
</g>
</svg>
