<?xml version="1.0" encoding="UTF-8"?>
<svg xmlns="http://www.w3.org/2000/svg" xmlns:xlink="http://www.w3.org/1999/xlink" width="80px" height="80px" viewBox="0 0 80 80" version="1.1">
<g id="surface1">
<path style=" stroke:none;fill-rule:nonzero;fill:rgb(0%,0%,0%);fill-opacity:1;" d="M 72.96875 19.0625 L 51.875 19.0625 L 51.875 7.03125 C 51.875 3.152344 48.722656 0 44.84375 0 L 7.03125 0 C 3.152344 0 0 3.152344 0 7.03125 L 0 72.96875 C 0 76.847656 3.152344 80 7.03125 80 L 44.84375 80 C 48.722656 80 51.875 76.847656 51.875 72.96875 L 51.875 59.878906 L 59.878906 51.875 L 72.96875 51.875 C 76.847656 51.875 80 48.722656 80 44.84375 L 80 26.09375 C 80 22.214844 76.847656 19.0625 72.96875 19.0625 Z M 4.6875 7.03125 C 4.6875 5.738281 5.738281 4.6875 7.03125 4.6875 L 44.84375 4.6875 C 46.136719 4.6875 47.1875 5.738281 47.1875 7.03125 L 47.1875 9.375 L 4.6875 9.375 Z M 47.1875 72.96875 C 47.1875 74.261719 46.136719 75.3125 44.84375 75.3125 L 7.03125 75.3125 C 5.738281 75.3125 4.6875 74.261719 4.6875 72.96875 L 4.6875 65.9375 L 47.1875 65.9375 Z M 47.1875 61.25 L 4.6875 61.25 L 4.6875 14.0625 L 47.1875 14.0625 L 47.1875 19.0625 L 44.84375 19.0625 C 40.964844 19.0625 37.8125 22.214844 37.8125 26.09375 L 37.8125 44.84375 C 37.8125 48.722656 40.964844 51.875 44.84375 51.875 L 47.1875 51.875 C 47.1875 52.953125 47.1875 60.238281 47.1875 61.25 Z M 75.3125 44.84375 C 75.3125 46.136719 74.261719 47.1875 72.96875 47.1875 L 58.90625 47.1875 C 58.285156 47.1875 57.6875 47.433594 57.25 47.875 L 51.875 53.246094 L 51.875 49.53125 C 51.875 48.238281 50.824219 47.1875 49.53125 47.1875 L 44.84375 47.1875 C 43.550781 47.1875 42.5 46.136719 42.5 44.84375 L 42.5 26.09375 C 42.5 24.800781 43.550781 23.75 44.84375 23.75 L 72.96875 23.75 C 74.261719 23.75 75.3125 24.800781 75.3125 26.09375 Z M 75.3125 44.84375 "/>
<path style=" stroke:none;fill-rule:nonzero;fill:rgb(0%,0%,0%);fill-opacity:1;" d="M 68.28125 28.4375 L 49.53125 28.4375 C 48.238281 28.4375 47.1875 29.488281 47.1875 30.78125 C 47.1875 32.074219 48.238281 33.125 49.53125 33.125 L 68.28125 33.125 C 69.574219 33.125 70.625 32.074219 70.625 30.78125 C 70.625 29.488281 69.574219 28.4375 68.28125 28.4375 Z M 68.28125 28.4375 "/>
<path style=" stroke:none;fill-rule:nonzero;fill:rgb(0%,0%,0%);fill-opacity:1;" d="M 58.90625 37.8125 L 49.53125 37.8125 C 48.238281 37.8125 47.1875 38.863281 47.1875 40.15625 C 47.1875 41.449219 48.238281 42.5 49.53125 42.5 L 58.90625 42.5 C 60.199219 42.5 61.25 41.449219 61.25 40.15625 C 61.25 38.863281 60.199219 37.8125 58.90625 37.8125 Z M 58.90625 37.8125 "/>
</g>
</svg>
