<?xml version="1.0" encoding="UTF-8"?>
<svg xmlns="http://www.w3.org/2000/svg" xmlns:xlink="http://www.w3.org/1999/xlink" width="80px" height="80px" viewBox="0 0 80 80" version="1.1">
<g id="surface1">
<path style=" stroke:none;fill-rule:nonzero;fill:rgb(0%,0%,0%);fill-opacity:1;" d="M 60.992188 45.054688 L 55.761719 43.890625 L 53.539062 40.554688 C 53.351562 40.273438 53.058594 40.082031 52.726562 40.019531 C 52.386719 39.957031 52.046875 40.035156 51.773438 40.230469 L 51.675781 40.300781 C 51.523438 39.675781 51.3125 38.832031 51.023438 37.6875 C 52.878906 35.503906 54.273438 32.835938 54.777344 29.859375 C 57.535156 29.144531 58.75 25.640625 58.75 23.75 C 58.75 22.125 58.113281 21.304688 57.5 20.886719 L 57.5 17.5 C 57.5 7.851562 49.648438 0 40 0 C 30.351562 0 22.5 7.851562 22.5 17.5 L 22.5 20.886719 C 21.886719 21.304688 21.25 22.125 21.25 23.75 C 21.25 25.636719 22.460938 29.136719 25.210938 29.859375 C 25.710938 32.914062 27.128906 35.550781 28.976562 37.691406 C 28.6875 38.835938 28.476562 39.679688 28.320312 40.300781 L 28.226562 40.234375 C 27.949219 40.039062 27.613281 39.957031 27.273438 40.023438 C 26.941406 40.082031 26.648438 40.277344 26.460938 40.558594 L 24.238281 43.890625 L 18.957031 45.070312 C 12.949219 46.671875 8.75 52.132812 8.75 58.355469 L 8.75 78.75 C 8.75 79.441406 9.308594 80 10 80 C 10.691406 80 11.25 79.441406 11.25 78.75 L 11.25 74.515625 C 14.246094 73.722656 15.8125 72.203125 15.882812 72.132812 C 16.371094 71.648438 16.367188 70.863281 15.886719 70.375 C 15.40625 69.890625 14.617188 69.882812 14.125 70.359375 C 14.113281 70.371094 13.132812 71.28125 11.25 71.910156 L 11.25 65.515625 C 12.050781 65.738281 12.742188 65.855469 13.320312 65.851562 C 14.917969 65.851562 15.71875 65.109375 16.117188 64.308594 C 16.210938 64.125 16.273438 64.078125 16.273438 64.078125 C 16.382812 64.035156 16.773438 64.109375 17.011719 64.152344 C 18.03125 64.339844 20.160156 64.726562 21.183594 61.644531 C 21.355469 61.140625 21.863281 59.609375 20.957031 58.445312 C 19.972656 57.171875 18.144531 57.304688 16.386719 57.429688 C 15.910156 57.464844 15.4375 57.5 15 57.5 C 14.589844 57.5 13.832031 57.226562 13.167969 56.984375 C 12.585938 56.773438 11.992188 56.558594 11.417969 56.433594 C 12.15625 52.171875 15.308594 48.628906 19.550781 47.496094 L 24.273438 46.441406 L 28.859375 56.757812 C 29.039062 57.167969 29.425781 57.449219 29.875 57.492188 C 29.917969 57.496094 29.957031 57.5 30 57.5 C 30.402344 57.5 30.78125 57.308594 31.015625 56.976562 L 36.058594 49.917969 L 38.75 55.296875 L 38.75 78.75 C 38.75 79.441406 39.308594 80 40 80 C 40.691406 80 41.25 79.441406 41.25 78.75 L 41.25 65.777344 C 42.207031 65.726562 43.128906 65.695312 44 65.695312 C 48.960938 65.695312 49.546875 63.078125 49.609375 62.28125 C 49.777344 60.136719 47.710938 57.910156 45.191406 57.515625 C 44.351562 57.382812 43.667969 57.890625 43.007812 58.375 C 42.347656 58.859375 41.808594 59.203125 41.25 59.304688 L 41.25 55.296875 L 43.941406 49.917969 L 48.984375 56.976562 C 49.21875 57.308594 49.597656 57.5 50 57.5 C 50.042969 57.5 50.082031 57.496094 50.125 57.492188 C 50.574219 57.449219 50.960938 57.167969 51.140625 56.757812 L 55.726562 46.441406 L 60.398438 47.484375 C 65.148438 48.75 68.503906 52.960938 68.730469 57.832031 C 68.601562 57.898438 68.480469 57.96875 68.367188 58.035156 C 67.816406 58.363281 67.132812 58.769531 65.195312 58.769531 C 61.71875 58.769531 61.222656 60.753906 60.925781 61.9375 C 60.820312 62.355469 60.734375 62.710938 60.558594 62.886719 C 59.78125 63.660156 60 64.390625 60.132812 64.671875 C 60.449219 65.351562 61.011719 65.570312 62.125 65.570312 C 62.796875 65.570312 63.664062 65.492188 64.800781 65.390625 C 65.933594 65.289062 67.277344 65.167969 68.75 65.09375 L 68.75 71.101562 C 67.6875 71.429688 67.164062 71.078125 67.105469 71.027344 C 66.609375 70.574219 65.84375 70.582031 65.367188 71.058594 C 64.878906 71.546875 64.878906 72.339844 65.367188 72.828125 C 65.800781 73.261719 66.683594 73.746094 67.914062 73.746094 C 68.175781 73.746094 68.457031 73.710938 68.75 73.664062 L 68.75 78.75 C 68.75 79.441406 69.308594 80 70 80 C 70.691406 80 71.25 79.441406 71.25 78.75 L 71.25 58.355469 C 71.25 52.132812 67.050781 46.671875 60.992188 45.054688 Z M 15 60 C 15.492188 60 16.027344 59.960938 16.566406 59.921875 C 17.3125 59.867188 18.699219 59.765625 18.96875 59.945312 C 18.96875 59.945312 19.042969 60.171875 18.816406 60.855469 C 18.472656 61.878906 18.394531 61.867188 17.460938 61.691406 C 16.617188 61.539062 14.867188 61.222656 13.882812 63.191406 C 13.785156 63.386719 12.992188 63.527344 11.25 62.902344 L 11.25 58.972656 C 11.617188 59.082031 12.015625 59.226562 12.316406 59.335938 C 13.21875 59.660156 14.152344 60 15 60 Z M 55 26.871094 L 55 23.222656 C 55.609375 22.917969 56 22.902344 56.089844 22.949219 C 56.113281 22.960938 56.25 23.167969 56.25 23.75 C 56.25 24.636719 55.78125 26.058594 55 26.871094 Z M 40 2.5 C 48.269531 2.5 55 9.230469 55 17.5 L 55 20.558594 C 54.757812 20.621094 54.511719 20.699219 54.257812 20.804688 C 53.660156 19.773438 53.082031 18.964844 52.59375 18.285156 C 51.171875 16.308594 50.460938 15.316406 51.226562 11.496094 C 51.304688 11.085938 51.179688 10.660156 50.882812 10.367188 L 49.632812 9.117188 C 49.296875 8.78125 48.804688 8.664062 48.355469 8.8125 C 48.320312 8.828125 44.742188 10 40 10 C 35.285156 10 31.679688 8.828125 31.644531 8.8125 C 31.191406 8.664062 30.699219 8.785156 30.367188 9.117188 L 29.117188 10.367188 C 28.820312 10.660156 28.691406 11.085938 28.773438 11.496094 C 29.539062 15.316406 28.828125 16.308594 27.40625 18.285156 C 26.917969 18.964844 26.339844 19.773438 25.742188 20.804688 C 25.488281 20.699219 25.242188 20.621094 25 20.558594 L 25 17.5 C 25 9.230469 31.730469 2.5 40 2.5 Z M 23.910156 22.949219 C 23.996094 22.902344 24.390625 22.917969 25 23.222656 L 25 26.871094 C 24.21875 26.058594 23.75 24.632812 23.75 23.75 C 23.75 23.167969 23.886719 22.960938 23.910156 22.949219 Z M 27.5 22.8125 C 28.171875 21.519531 28.839844 20.574219 29.4375 19.742188 C 30.910156 17.691406 32.085938 16.050781 31.347656 11.671875 L 31.609375 11.410156 C 32.988281 11.785156 36.125 12.5 40 12.5 C 43.875 12.5 47.011719 11.785156 48.390625 11.410156 L 48.652344 11.667969 C 47.914062 16.050781 49.089844 17.691406 50.5625 19.742188 C 51.160156 20.574219 51.828125 21.519531 52.5 22.8125 L 52.5 27.5 C 52.5 34.898438 45.078125 41.25 40 41.25 C 35.722656 41.25 27.5 35.445312 27.5 27.5 Z M 31.039062 39.738281 C 34.046875 42.304688 37.550781 43.75 40 43.75 C 42.714844 43.75 46.097656 42.261719 48.96875 39.765625 C 49.21875 40.773438 49.382812 41.429688 49.488281 41.863281 L 43.023438 46.484375 C 43.007812 46.492188 43 46.511719 42.988281 46.519531 C 42.921875 46.574219 42.871094 46.640625 42.816406 46.703125 C 42.761719 46.765625 42.703125 46.824219 42.664062 46.898438 C 42.65625 46.914062 42.640625 46.921875 42.632812 46.941406 L 42.351562 47.5 L 37.648438 47.5 L 37.367188 46.941406 C 37.359375 46.925781 37.34375 46.914062 37.332031 46.898438 C 37.292969 46.828125 37.234375 46.765625 37.179688 46.703125 C 37.125 46.640625 37.078125 46.574219 37.011719 46.523438 C 36.996094 46.511719 36.992188 46.492188 36.976562 46.484375 L 30.511719 41.863281 C 30.617188 41.425781 30.78125 40.761719 31.039062 39.738281 Z M 40 52.203125 L 38.898438 50 L 41.101562 50 Z M 30.253906 53.742188 L 26.421875 45.121094 L 27.824219 43.015625 L 34.507812 47.789062 Z M 44.492188 60.386719 C 44.65625 60.265625 44.867188 60.109375 45.007812 60.023438 C 46.3125 60.320312 47.167969 61.425781 47.117188 62.085938 C 47.074219 62.636719 46.09375 63.195312 44 63.195312 C 43.125 63.195312 42.203125 63.226562 41.25 63.273438 L 41.25 61.84375 C 42.664062 61.734375 43.761719 60.925781 44.492188 60.386719 Z M 49.746094 53.742188 L 45.492188 47.789062 L 52.175781 43.015625 L 53.578125 45.121094 Z M 64.578125 62.898438 C 64.128906 62.9375 63.65625 62.980469 63.226562 63.015625 C 63.273438 62.851562 63.3125 62.691406 63.351562 62.542969 C 63.59375 61.5625 63.671875 61.265625 65.195312 61.265625 C 66.949219 61.265625 68.015625 60.976562 68.75 60.652344 L 68.75 62.589844 C 67.183594 62.667969 65.761719 62.792969 64.578125 62.898438 Z M 64.578125 62.898438 "/>
<path style=" stroke:none;fill-rule:nonzero;fill:rgb(0%,0%,0%);fill-opacity:1;" d="M 57.5 66.25 C 56.808594 66.25 56.25 66.808594 56.25 67.5 L 56.25 78.75 C 56.25 79.441406 56.808594 80 57.5 80 C 58.191406 80 58.75 79.441406 58.75 78.75 L 58.75 67.5 C 58.75 66.808594 58.191406 66.25 57.5 66.25 Z M 57.5 66.25 "/>
<path style=" stroke:none;fill-rule:nonzero;fill:rgb(0%,0%,0%);fill-opacity:1;" d="M 33.75 68.75 C 33.046875 68.75 32.746094 68.480469 32.132812 67.867188 C 31.453125 67.183594 30.515625 66.25 28.75 66.25 C 26.121094 66.25 25.722656 67.859375 25.527344 68.632812 C 25.484375 68.816406 25.421875 69.058594 25.367188 69.117188 C 24.984375 69.496094 24.34375 69.71875 23.75 69.847656 L 23.75 67.5 C 23.75 66.808594 23.191406 66.25 22.5 66.25 C 21.808594 66.25 21.25 66.808594 21.25 67.5 L 21.25 78.75 C 21.25 79.441406 21.808594 80 22.5 80 C 23.191406 80 23.75 79.441406 23.75 78.75 L 23.75 76.652344 C 24.242188 76.738281 24.8125 76.800781 25.472656 76.800781 C 26.519531 76.800781 27.761719 76.644531 29.144531 76.183594 C 30.066406 75.878906 30.550781 75.601562 30.90625 75.398438 C 31.371094 75.132812 31.605469 75 33.75 75 C 34.726562 75 35.476562 74.796875 36.039062 74.375 C 36.644531 73.921875 36.980469 73.246094 36.980469 72.472656 C 36.980469 70.734375 35.261719 68.75 33.75 68.75 Z M 33.75 72.5 C 31.195312 72.5 30.570312 72.710938 29.664062 73.230469 C 29.359375 73.40625 29.042969 73.585938 28.355469 73.816406 C 26.226562 74.523438 24.613281 74.324219 23.75 74.105469 L 23.75 72.390625 C 24.765625 72.234375 26.171875 71.847656 27.132812 70.882812 C 27.679688 70.335938 27.835938 69.703125 27.953125 69.238281 C 27.988281 69.097656 28.042969 68.882812 28.058594 68.847656 C 28.058594 68.84375 28.210938 68.75 28.75 68.75 C 29.453125 68.75 29.753906 69.019531 30.367188 69.632812 C 31.035156 70.300781 31.949219 71.214844 33.652344 71.25 C 33.972656 71.410156 34.4375 72.070312 34.480469 72.40625 C 34.371094 72.445312 34.140625 72.5 33.75 72.5 Z M 33.75 72.5 "/>
<path style=" stroke:none;fill-rule:nonzero;fill:rgb(0%,0%,0%);fill-opacity:1;" d="M 46.941406 73.882812 C 45.398438 74.648438 44.675781 74.140625 44.601562 74.082031 C 44.109375 73.625 43.34375 73.636719 42.867188 74.113281 C 42.378906 74.605469 42.378906 75.394531 42.867188 75.882812 C 43.300781 76.316406 44.183594 76.800781 45.410156 76.800781 C 46.171875 76.800781 47.0625 76.613281 48.058594 76.117188 C 50.464844 74.914062 50.980469 75.246094 51.617188 75.882812 C 52.105469 76.371094 52.894531 76.371094 53.382812 75.882812 C 53.871094 75.390625 53.871094 74.601562 53.382812 74.113281 C 51.476562 72.207031 49.425781 72.640625 46.941406 73.882812 Z M 46.941406 73.882812 "/>
</g>
</svg>
