<?xml version="1.0" encoding="UTF-8"?>
<svg xmlns="http://www.w3.org/2000/svg" xmlns:xlink="http://www.w3.org/1999/xlink" width="80px" height="80px" viewBox="0 0 80 80" version="1.1">
<g id="surface1">
<path style=" stroke:none;fill-rule:nonzero;fill:rgb(0%,0%,0%);fill-opacity:1;" d="M 61.164062 37.554688 C 56.292969 40.867188 48.667969 44.816406 40 44.816406 C 31.332031 44.816406 23.707031 40.867188 18.835938 37.554688 C 18.300781 37.191406 17.570312 37.332031 17.207031 37.867188 C 16.84375 38.402344 16.980469 39.128906 17.515625 39.492188 C 22.660156 42.992188 30.734375 47.160156 40 47.160156 C 49.265625 47.160156 57.339844 42.992188 62.484375 39.492188 C 63.019531 39.128906 63.15625 38.402344 62.792969 37.867188 C 62.429688 37.332031 61.699219 37.191406 61.164062 37.554688 Z M 61.164062 37.554688 "/>
<path style=" stroke:none;fill-rule:nonzero;fill:rgb(0%,0%,0%);fill-opacity:1;" d="M 75.269531 0.625 L 4.730469 0.625 C 2.121094 0.625 0 2.746094 0 5.355469 L 0 60.214844 C 0 62.820312 2.121094 64.945312 4.730469 64.945312 L 33.082031 64.945312 L 31.25 70.671875 L 26.804688 70.671875 C 24.058594 70.671875 21.824219 72.90625 21.824219 75.652344 L 21.824219 77.183594 C 21.824219 78.472656 22.871094 79.519531 24.160156 79.519531 L 55.839844 79.519531 C 57.128906 79.519531 58.175781 78.472656 58.175781 77.183594 L 58.175781 75.652344 C 58.175781 72.90625 55.941406 70.671875 53.199219 70.671875 L 48.75 70.671875 L 46.917969 64.945312 L 75.269531 64.945312 C 77.878906 64.945312 80 62.820312 80 60.214844 L 80 5.355469 C 80 2.746094 77.878906 0.625 75.269531 0.625 Z M 4.730469 2.96875 L 75.269531 2.96875 C 76.585938 2.96875 77.65625 4.039062 77.65625 5.355469 L 77.65625 53.984375 L 2.34375 53.984375 L 2.34375 5.355469 C 2.34375 4.039062 3.414062 2.96875 4.730469 2.96875 Z M 55.832031 75.652344 L 55.839844 77.175781 L 24.167969 77.183594 L 24.167969 75.652344 C 24.167969 74.199219 25.347656 73.015625 26.804688 73.015625 L 53.195312 73.015625 C 54.652344 73.015625 55.832031 74.199219 55.832031 75.652344 Z M 46.289062 70.671875 L 33.710938 70.671875 L 35.542969 64.945312 L 44.457031 64.945312 Z M 75.269531 62.601562 L 4.730469 62.601562 C 3.414062 62.601562 2.34375 61.53125 2.34375 60.214844 L 2.34375 56.328125 L 77.65625 56.328125 L 77.65625 60.214844 C 77.65625 61.53125 76.585938 62.601562 75.269531 62.601562 Z M 75.269531 62.601562 "/>
<path style=" stroke:none;fill-rule:nonzero;fill:rgb(0%,0%,0%);fill-opacity:1;" d="M 6.789062 51.566406 C 7.433594 51.566406 7.960938 51.039062 7.960938 50.394531 L 7.960938 8.324219 L 72.039062 8.324219 L 72.039062 50.386719 C 72.039062 51.03125 72.566406 51.558594 73.210938 51.558594 C 73.859375 51.558594 74.382812 51.03125 74.382812 50.386719 L 74.382812 7.78125 C 74.382812 6.789062 73.574219 5.980469 72.582031 5.980469 L 7.417969 5.980469 C 6.425781 5.980469 5.617188 6.789062 5.617188 7.78125 L 5.617188 50.394531 C 5.617188 51.039062 6.140625 51.566406 6.789062 51.566406 Z M 6.789062 51.566406 "/>
<path style=" stroke:none;fill-rule:nonzero;fill:rgb(0%,0%,0%);fill-opacity:1;" d="M 63.839844 28.800781 C 60.367188 25.785156 51.085938 18.769531 40 18.769531 C 28.914062 18.769531 19.632812 25.785156 16.160156 28.800781 C 15.605469 29.28125 15.289062 29.976562 15.289062 30.710938 C 15.289062 31.441406 15.605469 32.136719 16.160156 32.617188 C 19.632812 35.632812 28.914062 42.648438 40 42.648438 C 51.085938 42.648438 60.367188 35.632812 63.839844 32.617188 C 64.394531 32.136719 64.710938 31.441406 64.710938 30.710938 C 64.710938 29.976562 64.394531 29.28125 63.839844 28.800781 Z M 17.632812 30.710938 C 17.632812 30.671875 17.644531 30.617188 17.695312 30.570312 C 19.574219 28.941406 23.242188 26.074219 27.972656 23.921875 C 26.8125 25.972656 26.183594 28.308594 26.183594 30.710938 C 26.183594 33.109375 26.8125 35.445312 27.972656 37.496094 C 23.242188 35.347656 19.574219 32.476562 17.695312 30.847656 C 17.644531 30.800781 17.632812 30.746094 17.632812 30.710938 Z M 32.179688 39.09375 C 29.859375 36.929688 28.527344 33.886719 28.527344 30.710938 C 28.527344 27.53125 29.859375 24.492188 32.179688 22.324219 C 34.625 21.582031 37.257812 21.113281 40 21.113281 C 42.742188 21.113281 45.375 21.582031 47.820312 22.324219 C 50.140625 24.492188 51.472656 27.53125 51.472656 30.710938 C 51.472656 33.886719 50.140625 36.929688 47.820312 39.09375 C 45.375 39.835938 42.742188 40.304688 40 40.304688 C 37.257812 40.304688 34.625 39.835938 32.179688 39.09375 Z M 62.304688 30.847656 C 60.425781 32.476562 56.757812 35.347656 52.027344 37.496094 C 53.1875 35.445312 53.816406 33.109375 53.816406 30.710938 C 53.816406 28.308594 53.1875 25.972656 52.027344 23.921875 C 56.757812 26.074219 60.425781 28.941406 62.304688 30.570312 C 62.355469 30.617188 62.367188 30.671875 62.367188 30.710938 C 62.367188 30.746094 62.355469 30.800781 62.304688 30.847656 Z M 62.304688 30.847656 "/>
<path style=" stroke:none;fill-rule:nonzero;fill:rgb(0%,0%,0%);fill-opacity:1;" d="M 40 23.515625 C 36.03125 23.515625 32.804688 26.742188 32.804688 30.710938 C 32.804688 34.675781 36.03125 37.902344 40 37.902344 C 43.96875 37.902344 47.195312 34.675781 47.195312 30.710938 C 47.195312 26.742188 43.96875 23.515625 40 23.515625 Z M 40 35.558594 C 37.324219 35.558594 35.148438 33.382812 35.148438 30.710938 C 35.148438 28.035156 37.324219 25.859375 40 25.859375 C 42.675781 25.859375 44.851562 28.035156 44.851562 30.710938 C 44.851562 33.382812 42.675781 35.558594 40 35.558594 Z M 40 35.558594 "/>
</g>
</svg>
