<?xml version="1.0" encoding="UTF-8"?>
<svg xmlns="http://www.w3.org/2000/svg" xmlns:xlink="http://www.w3.org/1999/xlink" width="80px" height="80px" viewBox="0 0 80 80" version="1.1">
<g id="surface1">
<path style=" stroke:none;fill-rule:nonzero;fill:rgb(0%,0%,0%);fill-opacity:1;" d="M 56.472656 42.082031 C 52.613281 38.078125 47.195312 34.601562 39.417969 31.144531 C 26.246094 25.289062 21.765625 16.5625 21.578125 16.191406 C 21.480469 15.996094 21.429688 15.777344 21.429688 15.554688 C 21.429688 10.898438 19.457031 8.328125 18.414062 7.289062 C 14.335938 9.964844 14.285156 15.496094 14.285156 15.554688 C 14.285156 16.167969 13.890625 16.714844 13.308594 16.910156 C 9.636719 18.132812 6.195312 20.628906 3.628906 23.929688 C 1.355469 26.851562 0 30.128906 0 32.695312 C 0 33.007812 0 33.65625 1.585938 34.328125 C 2.910156 34.890625 4.828125 35.238281 6.683594 35.578125 C 10.917969 36.347656 15.714844 37.21875 15.714844 41.269531 C 15.714844 46.152344 10.765625 49.910156 7.816406 51.714844 C 7.398438 51.976562 7.144531 52.4375 7.144531 52.929688 L 7.144531 61.269531 C 7.144531 62.058594 7.78125 62.695312 8.570312 62.695312 C 9.359375 62.695312 10 62.058594 10 61.269531 L 10 59.839844 C 10.003906 57.472656 11.917969 55.554688 14.285156 55.554688 L 21.773438 55.554688 C 22.402344 53.640625 24.101562 49.796875 28.09375 47.484375 C 32.085938 45.167969 37.207031 45.023438 43.308594 47.054688 C 44.058594 47.304688 44.460938 48.113281 44.210938 48.863281 C 43.964844 49.613281 43.152344 50.015625 42.40625 49.765625 C 37.128906 48.007812 32.804688 48.066406 29.554688 49.9375 C 25.308594 52.382812 24.265625 57.21875 24.257812 57.269531 C 24.253906 57.273438 24.253906 57.285156 24.25 57.292969 C 23.167969 62.171875 23.910156 66.503906 26.457031 70.167969 C 27.585938 71.816406 29.035156 73.226562 30.710938 74.316406 C 31.398438 74.707031 31.632812 75.582031 31.238281 76.265625 C 30.984375 76.710938 30.511719 76.984375 30 76.984375 L 22.855469 76.984375 C 22.066406 76.984375 21.429688 77.621094 21.429688 78.410156 C 21.429688 79.199219 22.066406 79.839844 22.855469 79.839844 L 52.441406 79.839844 C 53.148438 79.363281 55.035156 77.96875 57.003906 75.445312 C 59.289062 72.515625 62.164062 67.40625 62.863281 59.710938 C 63.476562 52.953125 61.386719 47.183594 56.472656 42.082031 Z M 10 26.984375 C 9.210938 26.984375 8.570312 26.34375 8.570312 25.554688 C 8.570312 24.765625 9.210938 24.125 10 24.125 C 10.789062 24.125 11.429688 24.765625 11.429688 25.554688 C 11.429688 26.34375 10.789062 26.984375 10 26.984375 Z M 10 26.984375 "/>
<path style=" stroke:none;fill-rule:nonzero;fill:rgb(0%,0%,0%);fill-opacity:1;" d="M 55.03125 18.238281 C 48.839844 14.859375 45.042969 10.832031 43.746094 6.265625 C 43.175781 4.277344 43.121094 2.175781 43.582031 0.160156 C 40.605469 0.75 35.296875 2.359375 31.917969 6.625 C 29.078125 10.210938 28.105469 15.023438 29.019531 20.9375 C 31.617188 23.40625 35.367188 26.21875 40.582031 28.535156 C 52.128906 33.667969 67.296875 42.507812 65.707031 59.96875 C 64.78125 70.171875 60.410156 76.34375 57.175781 79.589844 C 61.328125 79.0625 67.726562 77.476562 72.644531 72.785156 C 77.527344 68.132812 80 61.371094 80 52.695312 C 80 44.847656 77.820312 38.242188 73.339844 32.503906 C 69.363281 27.414062 63.542969 22.878906 55.03125 18.238281 Z M 55.03125 18.238281 "/>
</g>
</svg>
