<?xml version="1.0" encoding="UTF-8"?>
<svg xmlns="http://www.w3.org/2000/svg" xmlns:xlink="http://www.w3.org/1999/xlink" width="80px" height="80px" viewBox="0 0 80 80" version="1.1">
<g id="surface1">
<path style=" stroke:none;fill-rule:nonzero;fill:rgb(0%,0%,0%);fill-opacity:1;" d="M 64.101562 28.019531 C 61.5 28.019531 59.382812 30.136719 59.382812 32.738281 C 59.382812 35.339844 61.5 37.457031 64.101562 37.457031 C 66.703125 37.457031 68.820312 35.339844 68.820312 32.738281 C 68.820312 30.136719 66.703125 28.019531 64.101562 28.019531 Z M 64.101562 35.109375 C 62.792969 35.109375 61.730469 34.046875 61.730469 32.738281 C 61.730469 31.429688 62.792969 30.367188 64.101562 30.367188 C 65.410156 30.367188 66.472656 31.429688 66.472656 32.738281 C 66.472656 34.046875 65.410156 35.109375 64.101562 35.109375 Z M 64.101562 35.109375 "/>
<path style=" stroke:none;fill-rule:nonzero;fill:rgb(0%,0%,0%);fill-opacity:1;" d="M 64.101562 22.261719 C 63.453125 22.261719 62.929688 22.789062 62.929688 23.4375 C 62.929688 24.085938 63.453125 24.609375 64.101562 24.609375 C 68.585938 24.609375 72.230469 28.257812 72.230469 32.738281 C 72.230469 36.5 69.664062 39.671875 66.191406 40.59375 C 65.863281 40.679688 65.53125 40.746094 65.199219 40.792969 C 65.175781 40.796875 65.148438 40.796875 65.125 40.800781 C 64.972656 40.820312 64.820312 40.835938 64.667969 40.847656 C 64.652344 40.847656 64.636719 40.847656 64.617188 40.851562 C 64.273438 40.871094 63.929688 40.871094 63.585938 40.851562 C 63.566406 40.847656 63.550781 40.847656 63.535156 40.847656 C 63.382812 40.835938 63.230469 40.820312 63.078125 40.800781 C 63.054688 40.796875 63.027344 40.796875 63.003906 40.792969 C 62.671875 40.746094 62.339844 40.679688 62.011719 40.59375 C 58.539062 39.667969 55.972656 36.5 55.972656 32.738281 C 55.972656 30.035156 57.3125 27.515625 59.558594 25.996094 C 59.925781 25.75 60.316406 25.527344 60.722656 25.34375 C 61.308594 25.074219 61.570312 24.378906 61.300781 23.789062 C 61.03125 23.199219 60.332031 22.941406 59.742188 23.210938 C 59.222656 23.449219 58.71875 23.730469 58.242188 24.050781 C 55.351562 26.007812 53.625 29.253906 53.625 32.738281 C 53.625 37.253906 56.496094 41.113281 60.511719 42.582031 L 60.511719 59.332031 C 60.511719 66.769531 54.460938 72.820312 47.023438 72.820312 C 39.585938 72.820312 33.53125 66.769531 33.53125 59.332031 L 33.53125 49.277344 C 39.8125 48.125 45.347656 43.894531 49.59375 36.988281 C 50.445312 35.605469 50.242188 33.867188 49.210938 32.714844 C 53.402344 24.558594 55.285156 16.863281 54.128906 12.472656 C 53.269531 9.214844 50.335938 6.628906 45.625 4.964844 C 45.542969 3.898438 44.933594 2.808594 43.855469 1.835938 C 42.8125 0.894531 41.492188 0.207031 40.402344 0.0429688 C 38.097656 -0.304688 35.90625 1.539062 35.507812 4.15625 C 35.320312 5.386719 35.554688 6.613281 36.167969 7.613281 C 36.816406 8.675781 37.8125 9.359375 38.964844 9.53125 C 39.179688 9.566406 39.40625 9.582031 39.644531 9.582031 C 40.621094 9.582031 41.769531 9.316406 42.792969 8.839844 C 43.726562 8.410156 44.449219 7.851562 44.933594 7.210938 C 47.8125 8.238281 51.0625 10.046875 51.859375 13.070312 C 52.621094 15.964844 51.816406 22.5 47.160156 31.574219 C 46.683594 31.488281 46.1875 31.5 45.703125 31.617188 C 44.769531 31.839844 43.976562 32.410156 43.476562 33.226562 C 39.726562 39.328125 35.171875 42.421875 29.941406 42.421875 C 24.710938 42.421875 20.160156 39.328125 16.410156 33.226562 C 15.617188 31.9375 14.132812 31.328125 12.722656 31.574219 C 8.066406 22.5 7.265625 15.964844 8.027344 13.070312 C 8.820312 10.050781 12.058594 8.246094 14.949219 7.210938 C 15.433594 7.851562 16.160156 8.410156 17.089844 8.839844 C 18.113281 9.316406 19.261719 9.582031 20.238281 9.582031 C 20.476562 9.582031 20.707031 9.566406 20.917969 9.53125 C 22.074219 9.359375 23.066406 8.675781 23.71875 7.613281 C 24.328125 6.613281 24.5625 5.386719 24.375 4.15625 C 23.980469 1.539062 21.785156 -0.304688 19.480469 0.0429688 C 18.394531 0.207031 17.070312 0.894531 16.027344 1.835938 C 14.953125 2.808594 14.34375 3.898438 14.261719 4.964844 C 9.550781 6.628906 6.617188 9.210938 5.757812 12.472656 C 4.601562 16.859375 6.480469 24.558594 10.671875 32.714844 C 9.644531 33.867188 9.441406 35.605469 10.292969 36.988281 C 14.535156 43.894531 20.074219 48.125 26.351562 49.277344 L 26.351562 55.023438 C 26.351562 55.671875 26.878906 56.195312 27.527344 56.195312 C 28.171875 56.195312 28.699219 55.671875 28.699219 55.023438 L 28.699219 48.273438 C 28.699219 47.683594 28.261719 47.183594 27.675781 47.109375 C 21.703125 46.339844 16.382812 42.414062 12.289062 35.757812 C 11.933594 35.179688 12.113281 34.417969 12.691406 34.054688 C 12.695312 34.050781 12.699219 34.050781 12.703125 34.046875 C 12.71875 34.039062 12.734375 34.027344 12.75 34.019531 C 13.328125 33.703125 14.0625 33.890625 14.410156 34.457031 C 18.617188 41.300781 23.84375 44.769531 29.941406 44.769531 C 36.042969 44.769531 41.269531 41.300781 45.476562 34.457031 C 45.648438 34.175781 45.921875 33.976562 46.246094 33.898438 C 46.546875 33.828125 46.855469 33.871094 47.125 34.015625 C 47.144531 34.027344 47.164062 34.039062 47.183594 34.050781 C 47.1875 34.050781 47.191406 34.054688 47.195312 34.054688 C 47.773438 34.417969 47.953125 35.179688 47.59375 35.761719 C 43.503906 42.414062 38.183594 46.339844 32.210938 47.109375 C 31.625 47.1875 31.1875 47.683594 31.1875 48.273438 L 31.1875 59.332031 C 31.1875 68.0625 38.289062 75.167969 47.023438 75.167969 C 55.753906 75.167969 62.859375 68.0625 62.859375 59.332031 L 62.859375 43.140625 C 62.890625 43.144531 62.921875 43.148438 62.957031 43.152344 C 63.003906 43.15625 63.046875 43.160156 63.09375 43.164062 C 63.238281 43.179688 63.378906 43.191406 63.523438 43.199219 C 63.558594 43.199219 63.59375 43.203125 63.628906 43.203125 C 63.78125 43.210938 63.929688 43.214844 64.082031 43.214844 C 64.089844 43.214844 64.09375 43.214844 64.101562 43.214844 C 64.109375 43.214844 64.113281 43.214844 64.121094 43.214844 C 64.269531 43.214844 64.421875 43.210938 64.574219 43.203125 C 64.609375 43.203125 64.644531 43.199219 64.679688 43.199219 C 64.824219 43.191406 64.964844 43.179688 65.109375 43.164062 C 65.15625 43.160156 65.199219 43.15625 65.246094 43.152344 C 65.28125 43.148438 65.3125 43.144531 65.34375 43.140625 L 65.34375 59.328125 C 65.34375 64.019531 63.566406 68.484375 60.339844 71.902344 C 59.894531 72.375 59.914062 73.117188 60.386719 73.5625 C 60.613281 73.777344 60.902344 73.882812 61.191406 73.882812 C 61.503906 73.882812 61.8125 73.757812 62.042969 73.515625 C 65.6875 69.660156 67.691406 64.621094 67.691406 59.328125 L 67.691406 42.582031 C 71.707031 41.113281 74.578125 37.253906 74.578125 32.738281 C 74.578125 26.960938 69.878906 22.261719 64.101562 22.261719 Z M 43.277344 5.332031 C 43.109375 6.449219 40.535156 7.398438 39.316406 7.210938 C 38.859375 7.140625 38.453125 6.847656 38.167969 6.386719 C 37.84375 5.859375 37.726562 5.191406 37.828125 4.503906 C 38.027344 3.191406 39.046875 2.210938 40.050781 2.363281 C 40.566406 2.441406 41.480469 2.855469 42.28125 3.578125 C 42.96875 4.195312 43.347656 4.867188 43.277344 5.332031 Z M 17.601562 3.578125 C 18.402344 2.855469 19.320312 2.441406 19.832031 2.363281 C 19.902344 2.351562 19.972656 2.347656 20.042969 2.347656 C 20.976562 2.347656 21.871094 3.28125 22.058594 4.507812 C 22.160156 5.191406 22.039062 5.859375 21.714844 6.386719 C 21.433594 6.847656 21.027344 7.140625 20.570312 7.210938 C 19.351562 7.398438 16.777344 6.449219 16.609375 5.332031 C 16.539062 4.867188 16.917969 4.195312 17.601562 3.578125 Z M 17.601562 3.578125 "/>
<path style=" stroke:none;fill-rule:nonzero;fill:rgb(0%,0%,0%);fill-opacity:1;" d="M 59.21875 74.574219 C 58.84375 74.046875 58.113281 73.921875 57.582031 74.296875 C 54.480469 76.492188 50.828125 77.652344 47.023438 77.652344 C 36.917969 77.652344 28.699219 69.433594 28.699219 59.328125 C 28.699219 58.683594 28.171875 58.15625 27.527344 58.15625 C 26.878906 58.15625 26.351562 58.683594 26.351562 59.328125 C 26.351562 70.726562 35.625 80 47.023438 80 C 51.316406 80 55.4375 78.691406 58.9375 76.210938 C 59.46875 75.835938 59.59375 75.105469 59.21875 74.574219 Z M 59.21875 74.574219 "/>
</g>
</svg>
