<?xml version="1.0" encoding="UTF-8"?>
<svg xmlns="http://www.w3.org/2000/svg" xmlns:xlink="http://www.w3.org/1999/xlink" width="80px" height="80px" viewBox="0 0 80 80" version="1.1">
<g id="surface1">
<path style=" stroke:none;fill-rule:nonzero;fill:rgb(0%,0%,0%);fill-opacity:1;" d="M 79.847656 43.695312 C 79.128906 36.46875 75.898438 29.660156 70.757812 24.515625 C 66.363281 20.121094 60.980469 17.296875 55.320312 16.042969 L 55.320312 12.070312 C 57.632812 11.496094 59.351562 9.402344 59.351562 6.917969 C 59.351562 3.988281 56.96875 1.601562 54.039062 1.601562 L 42.789062 1.601562 C 39.859375 1.601562 37.476562 3.988281 37.476562 6.917969 C 37.476562 9.402344 39.195312 11.496094 41.507812 12.070312 L 41.507812 16.050781 C 35.863281 17.3125 30.503906 20.132812 26.121094 24.515625 C 25.160156 25.476562 24.277344 26.480469 23.46875 27.527344 C 23.425781 27.523438 23.386719 27.519531 23.347656 27.519531 L 12.214844 27.519531 C 11.351562 27.519531 10.652344 28.222656 10.652344 29.082031 C 10.652344 29.945312 11.351562 30.644531 12.214844 30.644531 L 21.339844 30.644531 C 20.195312 32.5625 19.269531 34.578125 18.566406 36.652344 L 1.5625 36.652344 C 0.699219 36.652344 0 37.351562 0 38.214844 C 0 39.078125 0.699219 39.777344 1.5625 39.777344 L 17.683594 39.777344 C 17.234375 41.753906 16.976562 43.765625 16.910156 45.78125 L 10 45.78125 C 9.136719 45.78125 8.4375 46.484375 8.4375 47.34375 C 8.4375 48.207031 9.136719 48.90625 10 48.90625 L 16.960938 48.90625 C 17.089844 50.929688 17.417969 52.941406 17.933594 54.914062 L 7.8125 54.914062 C 6.949219 54.914062 6.25 55.613281 6.25 56.476562 C 6.25 57.339844 6.949219 58.039062 7.8125 58.039062 L 18.933594 58.039062 C 20.464844 62.09375 22.859375 65.894531 26.121094 69.152344 C 31.269531 74.300781 38.085938 77.53125 45.320312 78.246094 C 46.351562 78.347656 47.382812 78.398438 48.414062 78.398438 C 54.511719 78.398438 60.53125 76.632812 65.640625 73.304688 C 66.363281 72.835938 66.566406 71.867188 66.097656 71.144531 C 65.625 70.421875 64.65625 70.214844 63.933594 70.6875 C 52.753906 77.96875 37.78125 76.394531 28.328125 66.945312 C 17.242188 55.855469 17.242188 37.816406 28.328125 26.726562 C 39.417969 15.636719 57.457031 15.636719 68.546875 26.726562 C 77.984375 36.164062 79.566406 51.125 72.308594 62.300781 C 71.839844 63.023438 72.046875 63.992188 72.769531 64.460938 C 73.492188 64.933594 74.460938 64.726562 74.929688 64.003906 C 78.808594 58.03125 80.554688 50.820312 79.847656 43.695312 Z M 40.601562 6.917969 C 40.601562 5.710938 41.582031 4.730469 42.789062 4.730469 L 54.039062 4.730469 C 55.246094 4.730469 56.226562 5.710938 56.226562 6.917969 C 56.226562 8.121094 55.246094 9.105469 54.039062 9.105469 L 42.789062 9.105469 C 41.582031 9.105469 40.601562 8.121094 40.601562 6.917969 Z M 44.632812 15.515625 L 44.632812 12.230469 L 52.195312 12.230469 L 52.195312 15.507812 C 49.683594 15.210938 47.144531 15.210938 44.632812 15.515625 Z M 44.632812 15.515625 "/>
<path style=" stroke:none;fill-rule:nonzero;fill:rgb(0%,0%,0%);fill-opacity:1;" d="M 69.652344 66.484375 C 69.238281 66.484375 68.839844 66.652344 68.546875 66.941406 C 68.257812 67.234375 68.089844 67.636719 68.089844 68.046875 C 68.089844 68.457031 68.257812 68.863281 68.546875 69.152344 C 68.839844 69.445312 69.242188 69.609375 69.652344 69.609375 C 70.0625 69.609375 70.464844 69.445312 70.757812 69.152344 C 71.046875 68.863281 71.214844 68.457031 71.214844 68.046875 C 71.214844 67.636719 71.046875 67.234375 70.757812 66.941406 C 70.464844 66.652344 70.0625 66.484375 69.652344 66.484375 Z M 69.652344 66.484375 "/>
<path style=" stroke:none;fill-rule:nonzero;fill:rgb(0%,0%,0%);fill-opacity:1;" d="M 48.4375 22.59375 C 35.074219 22.59375 24.199219 33.46875 24.199219 46.835938 C 24.199219 60.199219 35.074219 71.074219 48.4375 71.074219 C 61.804688 71.074219 72.675781 60.199219 72.675781 46.835938 C 72.675781 33.46875 61.804688 22.59375 48.4375 22.59375 Z M 48.4375 67.949219 C 36.796875 67.949219 27.324219 58.476562 27.324219 46.835938 C 27.324219 35.191406 36.796875 25.71875 48.4375 25.71875 C 60.082031 25.71875 69.550781 35.191406 69.550781 46.835938 C 69.550781 58.476562 60.082031 67.949219 48.4375 67.949219 Z M 48.4375 67.949219 "/>
<path style=" stroke:none;fill-rule:nonzero;fill:rgb(0%,0%,0%);fill-opacity:1;" d="M 58.324219 34.742188 L 50.582031 42.480469 C 49.9375 42.160156 49.207031 41.980469 48.4375 41.980469 C 47.667969 41.980469 46.941406 42.160156 46.292969 42.480469 L 42.828125 39.015625 C 42.21875 38.40625 41.230469 38.40625 40.621094 39.015625 C 40.011719 39.625 40.011719 40.617188 40.621094 41.226562 L 44.082031 44.691406 C 43.761719 45.335938 43.582031 46.066406 43.582031 46.835938 C 43.582031 49.511719 45.761719 51.691406 48.4375 51.691406 C 51.117188 51.691406 53.292969 49.511719 53.292969 46.835938 C 53.292969 46.066406 53.113281 45.335938 52.792969 44.691406 L 60.304688 37.179688 L 60.53125 36.949219 C 61.140625 36.339844 61.140625 35.351562 60.53125 34.742188 C 59.921875 34.132812 58.933594 34.132812 58.324219 34.742188 Z M 48.4375 48.566406 C 47.484375 48.566406 46.707031 47.789062 46.707031 46.835938 C 46.707031 45.878906 47.484375 45.105469 48.4375 45.105469 C 49.390625 45.105469 50.167969 45.878906 50.167969 46.835938 C 50.167969 47.789062 49.390625 48.566406 48.4375 48.566406 Z M 48.4375 48.566406 "/>
<path style=" stroke:none;fill-rule:nonzero;fill:rgb(0%,0%,0%);fill-opacity:1;" d="M 65.144531 45.292969 L 63.695312 45.292969 C 62.835938 45.292969 62.132812 45.992188 62.132812 46.855469 C 62.132812 47.71875 62.835938 48.417969 63.695312 48.417969 L 65.144531 48.417969 C 66.007812 48.417969 66.707031 47.71875 66.707031 46.855469 C 66.707031 45.992188 66.007812 45.292969 65.144531 45.292969 Z M 65.144531 45.292969 "/>
<path style=" stroke:none;fill-rule:nonzero;fill:rgb(0%,0%,0%);fill-opacity:1;" d="M 33.179688 45.253906 L 31.730469 45.253906 C 30.871094 45.253906 30.167969 45.953125 30.167969 46.816406 C 30.167969 47.679688 30.871094 48.378906 31.730469 48.378906 L 33.179688 48.378906 C 34.042969 48.378906 34.742188 47.679688 34.742188 46.816406 C 34.742188 45.953125 34.042969 45.253906 33.179688 45.253906 Z M 33.179688 45.253906 "/>
<path style=" stroke:none;fill-rule:nonzero;fill:rgb(0%,0%,0%);fill-opacity:1;" d="M 48.457031 33.136719 C 49.320312 33.136719 50.019531 32.4375 50.019531 31.574219 L 50.019531 30.128906 C 50.019531 29.265625 49.320312 28.566406 48.457031 28.566406 C 47.59375 28.566406 46.894531 29.265625 46.894531 30.128906 L 46.894531 31.574219 C 46.894531 32.4375 47.59375 33.136719 48.457031 33.136719 Z M 48.457031 33.136719 "/>
<path style=" stroke:none;fill-rule:nonzero;fill:rgb(0%,0%,0%);fill-opacity:1;" d="M 48.417969 60.53125 C 47.554688 60.53125 46.855469 61.230469 46.855469 62.09375 L 46.855469 63.542969 C 46.855469 64.402344 47.554688 65.105469 48.417969 65.105469 C 49.28125 65.105469 49.980469 64.402344 49.980469 63.542969 L 49.980469 62.09375 C 49.980469 61.230469 49.28125 60.53125 48.417969 60.53125 Z M 48.417969 60.53125 "/>
<path style=" stroke:none;fill-rule:nonzero;fill:rgb(0%,0%,0%);fill-opacity:1;" d="M 1.5625 54.914062 C 1.152344 54.914062 0.75 55.082031 0.457031 55.371094 C 0.167969 55.660156 0 56.066406 0 56.476562 C 0 56.886719 0.167969 57.289062 0.457031 57.582031 C 0.75 57.871094 1.152344 58.039062 1.5625 58.039062 C 1.972656 58.039062 2.375 57.871094 2.667969 57.582031 C 2.957031 57.289062 3.125 56.886719 3.125 56.476562 C 3.125 56.066406 2.957031 55.660156 2.667969 55.371094 C 2.375 55.082031 1.972656 54.914062 1.5625 54.914062 Z M 1.5625 54.914062 "/>
</g>
</svg>
