<?xml version="1.0" encoding="UTF-8"?>
<svg xmlns="http://www.w3.org/2000/svg" xmlns:xlink="http://www.w3.org/1999/xlink" width="80px" height="80px" viewBox="0 0 80 80" version="1.1">
<g id="surface1">
<path style=" stroke:none;fill-rule:nonzero;fill:rgb(0%,0%,0%);fill-opacity:1;" d="M 63.316406 33.96875 L 63.316406 17.785156 L 51.785156 17.785156 L 51.785156 7.597656 L 28.214844 7.597656 L 28.214844 17.785156 L 16.683594 17.785156 L 16.683594 72.402344 L 63.316406 72.402344 L 63.316406 56.921875 L 52.550781 52.179688 L 61.019531 32.957031 Z M 37.542969 50.902344 L 22.976562 44.605469 L 26.585938 36.25 L 41.15625 42.542969 Z M 47.097656 17.785156 L 32.902344 17.785156 L 32.902344 12.285156 L 47.097656 12.285156 Z M 47.097656 17.785156 "/>
<path style=" stroke:none;fill-rule:nonzero;fill:rgb(0%,0%,0%);fill-opacity:1;" d="M 68.003906 17.785156 L 68.003906 36.03125 L 73.699219 38.542969 L 68.003906 51.46875 L 68.003906 72.402344 L 80 72.402344 L 80 17.785156 Z M 68.003906 17.785156 "/>
<path style=" stroke:none;fill-rule:nonzero;fill:rgb(0%,0%,0%);fill-opacity:1;" d="M 0 17.785156 L 11.996094 17.785156 L 11.996094 72.402344 L 0 72.402344 Z M 0 17.785156 "/>
</g>
</svg>
