<?xml version="1.0" encoding="UTF-8"?>
<svg xmlns="http://www.w3.org/2000/svg" xmlns:xlink="http://www.w3.org/1999/xlink" width="80px" height="80px" viewBox="0 0 80 80" version="1.1">
<g id="surface1">
<path style=" stroke:none;fill-rule:nonzero;fill:rgb(0%,0%,0%);fill-opacity:1;" d="M 79.738281 64.980469 L 73.613281 52.324219 L 77.96875 44.0625 C 78.863281 41.828125 77.964844 39.441406 76.15625 38.230469 C 73.847656 36.683594 70.363281 37.316406 68.988281 40.421875 L 68.980469 40.441406 L 60.695312 58.289062 L 37.445312 58.289062 L 37.445312 58.28125 L 32.070312 58.28125 L 32.074219 58.289062 L 10.253906 58.289062 C 7.875 58.289062 5.410156 60.046875 5.410156 63.5 C 5.410156 66.855469 7.765625 68.707031 10.253906 68.707031 L 14.34375 68.707031 L 10.863281 75.40625 C 10.195312 76.683594 10.691406 78.261719 11.96875 78.925781 C 13.246094 79.589844 14.820312 79.097656 15.488281 77.816406 L 20.222656 68.707031 L 34.636719 68.707031 L 36.730469 77.234375 C 37.074219 78.632812 38.480469 79.488281 39.886719 79.144531 C 41.285156 78.800781 42.140625 77.386719 41.796875 75.988281 L 40.011719 68.707031 L 60.121094 68.707031 L 64.859375 77.816406 C 65.519531 79.089844 67.09375 79.59375 68.375 78.925781 C 69.652344 78.261719 70.148438 76.683594 69.484375 75.40625 L 66.003906 68.707031 L 77.386719 68.707031 C 79.308594 68.707031 80.574219 66.710938 79.738281 64.980469 Z M 67.722656 63.507812 L 70.589844 58.0625 L 73.226562 63.507812 Z M 67.722656 63.507812 "/>
<path style=" stroke:none;fill-rule:nonzero;fill:rgb(0%,0%,0%);fill-opacity:1;" d="M 56.417969 26.199219 C 52.546875 11.765625 38.28125 2.859375 23.828125 5.359375 L 23.117188 2.710938 C 22.742188 1.320312 21.320312 0.496094 19.921875 0.867188 C 18.53125 1.242188 17.703125 2.671875 18.074219 4.0625 L 18.785156 6.710938 C 5.023438 11.769531 -2.886719 26.621094 0.980469 41.050781 C 1.351562 42.433594 2.777344 43.273438 4.175781 42.898438 L 26.800781 36.835938 L 30.789062 53.066406 L 36.164062 53.066406 L 31.839844 35.484375 L 54.574219 29.394531 C 55.96875 29.019531 56.785156 27.585938 56.417969 26.199219 Z M 56.417969 26.199219 "/>
</g>
</svg>
