<?xml version="1.0" encoding="UTF-8"?>
<svg xmlns="http://www.w3.org/2000/svg" xmlns:xlink="http://www.w3.org/1999/xlink" width="80px" height="80px" viewBox="0 0 80 80" version="1.1">
<g id="surface1">
<path style=" stroke:none;fill-rule:nonzero;fill:rgb(0%,0%,0%);fill-opacity:1;" d="M 61.042969 45.070312 L 52.996094 42.921875 C 52.554688 42.804688 52.214844 42.457031 52.105469 42.015625 L 51.019531 37.691406 C 52.875 35.507812 54.273438 32.835938 54.777344 29.859375 C 57.535156 29.144531 58.75 25.640625 58.75 23.75 C 58.75 22.125 58.113281 21.304688 57.5 20.886719 L 57.5 17.5 C 57.5 7.851562 49.648438 0 40 0 C 30.351562 0 22.5 7.851562 22.5 17.5 L 22.5 20.886719 C 21.886719 21.304688 21.25 22.125 21.25 23.75 C 21.25 25.640625 22.460938 29.136719 25.210938 29.859375 C 25.710938 32.914062 27.128906 35.554688 28.976562 37.691406 L 27.894531 42.015625 C 27.785156 42.460938 27.445312 42.804688 27.003906 42.921875 L 18.957031 45.070312 C 12.949219 46.671875 8.75 52.132812 8.75 58.355469 L 8.75 78.75 C 8.75 79.441406 9.308594 80 10 80 C 10.691406 80 11.25 79.441406 11.25 78.75 L 11.25 72.5 L 21.25 72.5 L 21.25 78.75 C 21.25 79.441406 21.808594 80 22.5 80 C 23.191406 80 23.75 79.441406 23.75 78.75 L 23.75 76.328125 C 24.070312 76.46875 24.402344 76.585938 24.761719 76.644531 L 29.796875 77.484375 C 29.863281 77.496094 29.933594 77.5 30 77.5 C 30.601562 77.5 31.132812 77.066406 31.234375 76.457031 C 31.347656 75.773438 30.886719 75.132812 30.203125 75.019531 L 25.171875 74.179688 C 24.347656 74.039062 23.75 73.335938 23.75 72.5 L 23.75 67.5 C 23.75 66.808594 23.191406 66.25 22.5 66.25 C 21.808594 66.25 21.25 66.808594 21.25 67.5 L 21.25 70 L 11.25 70 L 11.25 58.355469 C 11.25 53.265625 14.683594 48.796875 19.601562 47.484375 L 27.648438 45.335938 C 28.414062 45.132812 29.054688 44.679688 29.542969 44.09375 C 32.332031 46.074219 35.472656 47.210938 38.75 47.445312 L 38.75 78.75 C 38.75 79.441406 39.308594 80 40 80 C 40.691406 80 41.25 79.441406 41.25 78.75 L 41.25 47.445312 C 44.527344 47.210938 47.667969 46.074219 50.457031 44.09375 C 50.949219 44.679688 51.589844 45.132812 52.351562 45.335938 L 60.398438 47.484375 C 65.316406 48.792969 68.75 53.265625 68.75 58.355469 L 68.75 70 L 58.75 70 L 58.75 67.5 C 58.75 66.808594 58.191406 66.25 57.5 66.25 C 56.808594 66.25 56.25 66.808594 56.25 67.5 L 56.25 72.5 C 56.25 73.335938 55.652344 74.039062 54.828125 74.179688 L 49.796875 75.015625 C 49.113281 75.132812 48.652344 75.773438 48.765625 76.453125 C 48.867188 77.066406 49.398438 77.5 50 77.5 C 50.066406 77.5 50.136719 77.496094 50.203125 77.484375 L 55.238281 76.644531 C 55.597656 76.582031 55.929688 76.464844 56.25 76.324219 L 56.25 78.75 C 56.25 79.441406 56.808594 80 57.5 80 C 58.191406 80 58.75 79.441406 58.75 78.75 L 58.75 72.5 L 68.75 72.5 L 68.75 78.75 C 68.75 79.441406 69.308594 80 70 80 C 70.691406 80 71.25 79.441406 71.25 78.75 L 71.25 58.355469 C 71.25 52.132812 67.050781 46.671875 61.042969 45.070312 Z M 40 45 C 36.621094 45 33.371094 43.859375 30.546875 41.71875 L 31.039062 39.742188 C 34.046875 42.304688 37.550781 43.75 40 43.75 C 42.714844 43.75 46.097656 42.261719 48.964844 39.765625 L 49.453125 41.71875 C 46.628906 43.859375 43.378906 45 40 45 Z M 50.886719 22.5 C 49.894531 20.878906 47.074219 20 45 20 C 42.785156 20 40.972656 21.03125 40.296875 22.5 L 39.703125 22.5 C 39.027344 21.03125 37.214844 20 35 20 C 32.925781 20 30.105469 20.878906 29.113281 22.5 L 27.605469 22.5 C 28.28125 21.082031 31.222656 16.25 40 16.25 C 48.808594 16.25 51.722656 21.0625 52.394531 22.5 Z M 48.71875 23.75 C 48.378906 24.210938 46.65625 25 45 25 C 43.472656 25 42.5 24.261719 42.5 23.75 C 42.5 23.238281 43.472656 22.5 45 22.5 C 46.65625 22.5 48.378906 23.289062 48.71875 23.75 Z M 37.5 23.75 C 37.5 24.261719 36.527344 25 35 25 C 33.34375 25 31.621094 24.210938 31.28125 23.75 C 31.621094 23.289062 33.34375 22.5 35 22.5 C 36.527344 22.5 37.5 23.238281 37.5 23.75 Z M 55 26.871094 L 55 23.222656 C 55.609375 22.921875 56 22.90625 56.089844 22.949219 C 56.113281 22.960938 56.25 23.167969 56.25 23.75 C 56.25 24.636719 55.78125 26.058594 55 26.871094 Z M 40 2.5 C 48.269531 2.5 55 9.230469 55 17.5 L 55 20.5625 C 54.777344 20.617188 54.546875 20.691406 54.3125 20.785156 C 52.984375 18.425781 49.1875 13.75 40 13.75 C 30.8125 13.75 27.019531 18.425781 25.6875 20.785156 C 25.453125 20.6875 25.226562 20.617188 25 20.558594 L 25 17.5 C 25 9.230469 31.730469 2.5 40 2.5 Z M 23.910156 22.949219 C 23.996094 22.902344 24.390625 22.917969 25 23.222656 L 25 26.871094 C 24.21875 26.058594 23.75 24.632812 23.75 23.75 C 23.75 23.167969 23.886719 22.960938 23.910156 22.949219 Z M 27.5 25 L 29.113281 25 C 30.105469 26.621094 32.925781 27.5 35 27.5 C 37.214844 27.5 39.027344 26.46875 39.703125 25 L 40.296875 25 C 40.972656 26.46875 42.785156 27.5 45 27.5 C 47.074219 27.5 49.894531 26.621094 50.886719 25 L 52.5 25 L 52.5 27.5 C 52.5 34.671875 45.359375 41.25 40 41.25 C 35.722656 41.25 27.5 35.441406 27.5 27.5 Z M 27.5 25 "/>
<path style=" stroke:none;fill-rule:nonzero;fill:rgb(0%,0%,0%);fill-opacity:1;" d="M 27.566406 54.605469 C 27.554688 54.636719 26.484375 57.714844 22.199219 58.789062 C 21.527344 58.957031 21.121094 59.636719 21.289062 60.304688 C 21.429688 60.871094 21.9375 61.25 22.5 61.25 C 22.597656 61.25 22.703125 61.238281 22.800781 61.210938 C 28.402344 59.8125 29.875 55.574219 29.933594 55.394531 C 30.152344 54.742188 29.800781 54.03125 29.144531 53.816406 C 28.484375 53.59375 27.785156 53.949219 27.566406 54.605469 Z M 27.566406 54.605469 "/>
<path style=" stroke:none;fill-rule:nonzero;fill:rgb(0%,0%,0%);fill-opacity:1;" d="M 57.199219 61.210938 C 57.296875 61.238281 57.402344 61.25 57.5 61.25 C 58.0625 61.25 58.570312 60.871094 58.710938 60.300781 C 58.882812 59.632812 58.472656 58.953125 57.800781 58.789062 C 53.59375 57.734375 52.484375 54.738281 52.433594 54.59375 C 52.210938 53.945312 51.511719 53.597656 50.855469 53.8125 C 50.199219 54.03125 49.84375 54.738281 50.0625 55.394531 C 50.125 55.574219 51.59375 59.8125 57.199219 61.210938 Z M 57.199219 61.210938 "/>
</g>
</svg>
