<?xml version="1.0" encoding="UTF-8"?>
<svg xmlns="http://www.w3.org/2000/svg" xmlns:xlink="http://www.w3.org/1999/xlink" width="80px" height="80px" viewBox="0 0 80 80" version="1.1">
<g id="surface1">
<path style=" stroke:none;fill-rule:nonzero;fill:rgb(0%,0%,0%);fill-opacity:1;" d="M 17.632812 50.613281 C 17.632812 54.824219 17.632812 59.007812 17.632812 63.203125 C 18.917969 63.203125 20.175781 63.203125 21.460938 63.203125 C 21.460938 58.980469 21.460938 54.796875 21.460938 50.613281 C 20.160156 50.613281 18.890625 50.613281 17.632812 50.613281 Z M 17.632812 50.613281 "/>
<path style=" stroke:none;fill-rule:nonzero;fill:rgb(0%,0%,0%);fill-opacity:1;" d="M 14.957031 70.328125 C 13.90625 68.476562 12.152344 67.511719 10.1875 66.949219 C 8.851562 66.570312 7.457031 66.5 6.0625 66.507812 C 4.097656 66.511719 2.132812 66.507812 0.164062 66.507812 C 0.164062 70.75 0.164062 74.996094 0.164062 79.238281 C 2.699219 79.21875 5.238281 79.191406 7.777344 79.160156 C 9.046875 79.140625 10.269531 78.882812 11.4375 78.390625 C 13.148438 77.660156 14.597656 76.644531 15.273438 74.808594 C 15.847656 73.265625 15.75 71.730469 14.957031 70.328125 Z M 8.929688 76.546875 C 8.039062 76.898438 7.128906 77.050781 6.179688 77.046875 C 5.480469 77.039062 4.785156 77.046875 4.066406 77.046875 C 4.066406 74.210938 4.066406 71.3125 4.066406 68.335938 C 5.617188 68.636719 7.207031 68.300781 8.699219 68.871094 C 9.972656 69.359375 10.96875 70.160156 11.375 71.503906 C 12.015625 73.632812 11.148438 75.691406 8.929688 76.546875 Z M 8.929688 76.546875 "/>
<path style=" stroke:none;fill-rule:nonzero;fill:rgb(0%,0%,0%);fill-opacity:1;" d="M 25.605469 77.300781 C 24.613281 77.070312 23.550781 76.398438 23.59375 75.191406 C 26.695312 75.191406 29.796875 75.191406 32.9375 75.191406 C 33.035156 74.074219 32.847656 73.058594 32.367188 72.101562 C 31.671875 70.703125 30.445312 69.96875 29.007812 69.5625 C 27.949219 69.261719 26.878906 69.179688 25.765625 69.28125 C 23.9375 69.449219 22.277344 69.933594 20.949219 71.296875 C 19.84375 72.425781 19.449219 73.753906 19.773438 75.292969 C 20.035156 76.535156 20.800781 77.445312 21.828125 78.132812 C 23.078125 78.992188 24.5 79.347656 25.992188 79.398438 C 27.039062 79.4375 28.097656 79.417969 29.132812 79.308594 C 30.03125 79.21875 30.90625 78.96875 31.785156 78.761719 C 31.886719 78.742188 32.011719 78.554688 32.019531 78.4375 C 32.042969 77.78125 32.027344 77.128906 32.027344 76.484375 C 31.589844 76.679688 31.179688 76.917969 30.742188 77.042969 C 29.050781 77.503906 27.332031 77.679688 25.605469 77.300781 Z M 24.511719 71.667969 C 25.695312 71.042969 26.925781 70.941406 28.167969 71.492188 C 28.820312 71.785156 29.113281 72.261719 29.410156 73.324219 C 27.476562 73.324219 25.5625 73.324219 23.660156 73.324219 C 23.542969 72.757812 23.894531 71.988281 24.511719 71.667969 Z M 24.511719 71.667969 "/>
<path style=" stroke:none;fill-rule:nonzero;fill:rgb(0%,0%,0%);fill-opacity:1;" d="M 75.71875 77.433594 C 75.285156 77.214844 74.984375 76.882812 75.023438 76.308594 C 75.066406 75.664062 75.03125 75.019531 75.03125 74.371094 C 75.03125 73.589844 75.03125 72.808594 75.03125 71.980469 C 76.089844 71.980469 77.109375 71.980469 78.117188 71.980469 C 78.117188 71.285156 78.117188 70.632812 78.117188 69.953125 C 77.074219 69.953125 76.066406 69.953125 75.019531 69.953125 C 75.019531 69.128906 75.019531 68.332031 75.019531 67.554688 C 73.734375 67.554688 72.492188 67.554688 71.210938 67.554688 C 71.210938 68.367188 71.210938 69.15625 71.210938 69.980469 C 70.226562 69.980469 69.261719 69.980469 68.304688 69.980469 C 68.304688 70.667969 68.304688 71.3125 68.304688 71.992188 C 69.285156 71.992188 70.25 71.992188 71.234375 71.992188 C 71.234375 72.191406 71.234375 72.34375 71.234375 72.5 C 71.234375 74.058594 71.222656 75.613281 71.242188 77.171875 C 71.253906 77.765625 71.472656 78.316406 71.894531 78.742188 C 72.511719 79.382812 73.304688 79.675781 74.160156 79.828125 C 74.457031 79.882812 74.742188 79.941406 75.03125 80 C 75.507812 80 75.992188 80 76.464844 80 C 76.839844 79.941406 77.226562 79.917969 77.589844 79.820312 C 77.820312 79.757812 78.21875 79.898438 78.234375 79.476562 C 78.261719 78.851562 78.246094 78.226562 78.246094 77.601562 C 77.351562 77.785156 76.511719 77.835938 75.71875 77.433594 Z M 75.71875 77.433594 "/>
<path style=" stroke:none;fill-rule:nonzero;fill:rgb(0%,0%,0%);fill-opacity:1;" d="M 66.023438 50.664062 C 66.027344 51.394531 66.027344 52.0625 66.027344 52.769531 C 67.746094 52.769531 69.433594 52.769531 71.164062 52.769531 C 71.164062 56.335938 71.164062 59.847656 71.164062 63.367188 C 72.382812 63.367188 73.5625 63.367188 74.78125 63.367188 C 74.78125 59.832031 74.78125 56.3125 74.78125 52.765625 C 76.492188 52.765625 78.164062 52.765625 79.835938 52.765625 C 79.835938 52.070312 79.835938 51.367188 79.835938 50.664062 C 75.226562 50.664062 70.625 50.664062 66.023438 50.664062 Z M 66.023438 50.664062 "/>
<path style=" stroke:none;fill-rule:nonzero;fill:rgb(0%,0%,0%);fill-opacity:1;" d="M 15.308594 55.261719 C 14.78125 53.734375 13.644531 52.683594 12.234375 51.925781 C 10.574219 51.035156 8.773438 50.679688 6.902344 50.664062 C 4.660156 50.640625 2.40625 50.65625 0.164062 50.65625 C 0.164062 54.902344 0.164062 59.144531 0.164062 63.390625 C 2.464844 63.371094 4.757812 63.304688 7.054688 63.320312 C 8.574219 63.328125 10.027344 63.101562 11.429688 62.539062 C 12.695312 62.035156 13.808594 61.296875 14.617188 60.179688 C 15.714844 58.667969 15.898438 56.988281 15.308594 55.261719 Z M 10.203125 59.96875 C 9.398438 60.640625 8.449219 61.003906 7.421875 61.109375 C 6.632812 61.183594 5.832031 61.164062 5.039062 61.207031 C 4.726562 61.21875 4.410156 61.269531 4.0625 61.304688 C 4.0625 58.339844 4.0625 55.445312 4.0625 52.601562 C 4.671875 52.601562 5.261719 52.574219 5.855469 52.601562 C 6.464844 52.628906 7.070312 52.703125 7.675781 52.765625 C 8.765625 52.863281 9.671875 53.371094 10.4375 54.113281 C 12.011719 55.621094 11.992188 58.488281 10.203125 59.96875 Z M 10.203125 59.96875 "/>
<path style=" stroke:none;fill-rule:nonzero;fill:rgb(0%,0%,0%);fill-opacity:1;" d="M 71.878906 20.746094 C 71.578125 18.898438 70.964844 17.132812 70.105469 15.46875 C 69.234375 13.789062 68.175781 12.210938 66.898438 10.820312 C 65.441406 9.238281 63.859375 7.792969 62.082031 6.574219 C 59.9375 5.105469 57.683594 3.859375 55.253906 2.949219 C 53.921875 2.449219 52.578125 1.96875 51.203125 1.605469 C 49.546875 1.167969 47.859375 0.851562 46.175781 0.519531 C 45.40625 0.367188 44.628906 0.269531 43.839844 0.1875 C 43.175781 0.117188 42.515625 0.105469 41.753906 0.0664062 C 41.925781 0.402344 41.574219 0.796875 42.125 0.9375 C 43.363281 1.265625 44.640625 1.53125 45.828125 2 C 47.308594 2.578125 48.777344 3.230469 50.140625 4.042969 C 52.101562 5.203125 53.878906 6.648438 55.304688 8.464844 C 56.136719 9.53125 56.921875 10.632812 57.46875 11.871094 C 57.984375 13.042969 58.464844 14.238281 58.863281 15.460938 C 59.140625 16.300781 59.277344 17.195312 59.425781 18.074219 C 59.59375 19.152344 59.773438 20.234375 59.820312 21.320312 C 59.875 22.578125 59.839844 23.84375 59.746094 25.097656 C 59.65625 26.261719 59.480469 27.429688 59.238281 28.570312 C 58.714844 31.097656 57.695312 33.433594 56.257812 35.574219 C 55.210938 37.140625 53.949219 38.523438 52.515625 39.757812 C 51.140625 40.957031 49.613281 41.933594 47.984375 42.722656 C 45.738281 43.796875 43.363281 44.472656 40.886719 44.75 C 39.582031 44.898438 38.25 44.886719 36.933594 44.839844 C 35.550781 44.796875 34.164062 44.6875 32.789062 44.503906 C 31.359375 44.3125 29.925781 44.078125 28.53125 43.71875 C 26.167969 43.113281 23.84375 42.339844 21.675781 41.191406 C 20.332031 40.476562 18.992188 39.746094 17.722656 38.910156 C 16.21875 37.929688 14.855469 36.757812 13.664062 35.390625 C 12.375 33.914062 11.351562 32.308594 10.921875 30.371094 C 10.640625 29.058594 10.71875 27.78125 11.332031 26.570312 C 12.105469 25.035156 13.316406 23.902344 14.695312 22.921875 C 16.121094 21.914062 17.644531 21.113281 19.246094 20.429688 C 21.546875 19.449219 23.917969 18.679688 26.375 18.210938 C 28.007812 17.898438 29.648438 17.585938 31.300781 17.382812 C 32.867188 17.1875 34.453125 17.09375 36.035156 17.042969 C 37.335938 17 38.640625 17.085938 39.941406 17.113281 C 40.074219 17.113281 40.210938 17.101562 40.375 17.089844 C 40.375 11.371094 40.375 5.6875 40.375 0 C 39.53125 0 38.691406 0 37.847656 0 C 37.804688 0.0273438 37.765625 0.0742188 37.71875 0.078125 C 36.5625 0.140625 35.410156 0.1875 34.253906 0.257812 C 33.621094 0.292969 32.980469 0.34375 32.351562 0.4375 C 31.367188 0.582031 30.390625 0.742188 29.417969 0.929688 C 28.121094 1.183594 26.789062 1.398438 25.519531 1.761719 C 23.78125 2.261719 22.058594 2.8125 20.375 3.476562 C 18.964844 4.035156 17.589844 4.722656 16.265625 5.464844 C 14.683594 6.355469 13.207031 7.425781 11.847656 8.652344 C 10.664062 9.722656 9.597656 10.886719 8.667969 12.175781 C 7.585938 13.683594 6.714844 15.300781 6.101562 17.050781 C 5.863281 17.738281 5.621094 18.433594 5.492188 19.144531 C 5.292969 20.210938 5.210938 21.300781 5.050781 22.378906 C 4.832031 23.890625 5.003906 25.382812 5.265625 26.855469 C 5.503906 28.191406 5.917969 29.484375 6.464844 30.738281 C 7.25 32.550781 8.273438 34.203125 9.546875 35.699219 C 10.398438 36.703125 11.316406 37.679688 12.316406 38.542969 C 13.492188 39.566406 14.742188 40.53125 16.054688 41.378906 C 17.429688 42.25 18.890625 42.988281 20.347656 43.714844 C 21.339844 44.207031 22.367188 44.648438 23.425781 44.992188 C 24.957031 45.496094 26.519531 45.933594 28.085938 46.316406 C 29.449219 46.644531 30.832031 46.90625 32.214844 47.109375 C 33.453125 47.285156 34.695312 47.382812 35.941406 47.445312 C 37.125 47.503906 38.3125 47.503906 39.488281 47.445312 C 41.183594 47.375 42.882812 47.269531 44.566406 47.109375 C 45.769531 46.996094 46.984375 46.84375 48.160156 46.578125 C 49.773438 46.214844 51.359375 45.726562 52.964844 45.292969 C 54.730469 44.8125 56.417969 44.105469 58.050781 43.289062 C 59.324219 42.648438 60.539062 41.878906 61.761719 41.140625 C 63.167969 40.277344 64.457031 39.238281 65.632812 38.085938 C 66.191406 37.546875 66.726562 37 67.21875 36.410156 C 67.859375 35.648438 68.488281 34.875 69.027344 34.054688 C 69.929688 32.648438 70.65625 31.144531 71.191406 29.539062 C 71.761719 27.835938 72.066406 26.089844 72.132812 24.316406 C 72.179688 23.128906 72.066406 21.917969 71.878906 20.746094 Z M 71.878906 20.746094 "/>
<path style=" stroke:none;fill-rule:nonzero;fill:rgb(0%,0%,0%);fill-opacity:1;" d="M 58.859375 70.003906 C 58.859375 73.121094 58.859375 76.207031 58.859375 79.304688 C 60.085938 79.304688 61.285156 79.304688 62.527344 79.304688 C 62.527344 76.1875 62.527344 73.082031 62.527344 70.003906 C 61.28125 70.003906 60.066406 70.003906 58.859375 70.003906 Z M 58.859375 70.003906 "/>
<path style=" stroke:none;fill-rule:nonzero;fill:rgb(0%,0%,0%);fill-opacity:1;" d="M 58.859375 65.605469 C 58.859375 66.40625 58.859375 67.191406 58.859375 67.992188 C 60.113281 67.992188 61.320312 67.992188 62.519531 67.992188 C 62.519531 67.179688 62.519531 66.390625 62.519531 65.605469 C 61.28125 65.605469 60.078125 65.605469 58.859375 65.605469 Z M 58.859375 65.605469 "/>
<path style=" stroke:none;fill-rule:nonzero;fill:rgb(0%,0%,0%);fill-opacity:1;" d="M 39.746094 18.121094 C 38.839844 18.234375 37.902344 18.277344 37.003906 18.476562 C 35.542969 18.804688 34.128906 19.3125 32.8125 20.019531 C 31.039062 20.96875 29.460938 22.1875 28.199219 23.769531 C 27.429688 24.730469 26.789062 25.765625 26.367188 26.925781 C 26.035156 27.847656 25.703125 28.765625 25.703125 29.765625 C 25.699219 30.707031 25.628906 31.660156 25.757812 32.589844 C 25.890625 33.550781 26.234375 34.464844 26.703125 35.335938 C 27.328125 36.484375 28.117188 37.503906 29.070312 38.359375 C 29.832031 39.046875 30.699219 39.640625 31.5625 40.195312 C 32.9375 41.070312 34.410156 41.742188 35.992188 42.152344 C 36.882812 42.382812 37.769531 42.609375 38.671875 42.808594 C 39.183594 42.917969 39.707031 42.953125 40.265625 43.015625 C 40.265625 34.648438 40.265625 26.347656 40.265625 18.027344 C 40.074219 18.058594 39.910156 18.101562 39.746094 18.121094 Z M 39.746094 18.121094 "/>
<path style=" stroke:none;fill-rule:nonzero;fill:rgb(0%,0%,0%);fill-opacity:1;" d="M 50.558594 52.757812 C 50.558594 52.019531 50.558594 51.3125 50.558594 50.613281 C 47.148438 50.613281 43.773438 50.613281 40.402344 50.613281 C 40.402344 54.851562 40.402344 59.058594 40.402344 63.285156 C 43.753906 63.285156 47.097656 63.285156 50.464844 63.285156 C 50.464844 62.546875 50.464844 61.839844 50.464844 61.105469 C 48.242188 61.105469 46.054688 61.105469 43.863281 61.105469 C 43.863281 60.082031 43.863281 59.105469 43.863281 58.066406 C 45.976562 58.066406 48.058594 58.066406 50.144531 58.066406 C 50.144531 57.324219 50.144531 56.621094 50.144531 55.882812 C 48.035156 55.882812 45.949219 55.882812 43.871094 55.882812 C 43.871094 54.820312 43.871094 53.804688 43.871094 52.757812 C 46.117188 52.757812 48.328125 52.757812 50.558594 52.757812 Z M 50.558594 52.757812 "/>
<path style=" stroke:none;fill-rule:nonzero;fill:rgb(0%,0%,0%);fill-opacity:1;" d="M 34.304688 57.195312 C 35.199219 56.960938 36.046875 56.65625 36.609375 55.78125 C 37.027344 55.132812 37.121094 54.457031 37.101562 53.730469 C 37.074219 52.738281 36.554688 52.003906 35.761719 51.539062 C 34.539062 50.820312 33.171875 50.574219 31.75 50.582031 C 30.9375 50.585938 30.121094 50.582031 29.308594 50.582031 C 27.796875 50.582031 26.28125 50.582031 24.738281 50.582031 C 24.738281 54.855469 24.738281 59.070312 24.738281 63.28125 C 26.007812 63.28125 27.246094 63.28125 28.515625 63.28125 C 28.515625 61.589844 28.515625 59.945312 28.515625 58.257812 C 29.089844 58.257812 29.640625 58.21875 30.183594 58.261719 C 30.839844 58.308594 31.414062 58.589844 31.746094 59.1875 C 32.445312 60.460938 33.125 61.746094 33.796875 63.035156 C 33.898438 63.238281 33.996094 63.320312 34.222656 63.320312 C 35.375 63.308594 36.53125 63.316406 37.679688 63.3125 C 37.761719 63.3125 37.847656 63.28125 37.980469 63.257812 C 36.644531 61.246094 35.808594 59 34.304688 57.195312 Z M 32.675781 55.453125 C 32.082031 55.84375 31.441406 56.042969 30.738281 56.054688 C 30.011719 56.0625 29.285156 56.054688 28.507812 56.054688 C 28.507812 54.914062 28.507812 53.832031 28.507812 52.753906 C 29.507812 52.753906 30.507812 52.761719 31.503906 52.753906 C 32.054688 52.75 32.460938 53.035156 32.855469 53.371094 C 33.460938 53.890625 33.296875 55.046875 32.675781 55.453125 Z M 32.675781 55.453125 "/>
<path style=" stroke:none;fill-rule:nonzero;fill:rgb(0%,0%,0%);fill-opacity:1;" d="M 63.050781 61.199219 C 61.546875 61.242188 60.050781 61.257812 58.59375 60.789062 C 57.433594 60.417969 56.441406 59.84375 55.910156 58.691406 C 55.488281 57.769531 55.511719 56.808594 55.75 55.828125 C 55.9375 55.027344 56.3125 54.339844 56.921875 53.828125 C 57.976562 52.921875 59.277344 52.671875 60.609375 52.613281 C 61.222656 52.582031 61.839844 52.632812 62.453125 52.691406 C 63.25 52.769531 64.058594 52.917969 64.929688 53.042969 C 65.027344 52.503906 65.140625 51.898438 65.234375 51.296875 C 65.25 51.238281 65.152344 51.117188 65.074219 51.09375 C 64.097656 50.742188 63.105469 50.460938 62.070312 50.414062 C 61.292969 50.382812 60.519531 50.371094 59.746094 50.417969 C 58.984375 50.472656 58.230469 50.539062 57.492188 50.71875 C 55.980469 51.082031 54.53125 51.628906 53.34375 52.722656 C 52.726562 53.289062 52.21875 53.921875 51.925781 54.710938 C 51.574219 55.648438 51.433594 56.605469 51.582031 57.632812 C 51.753906 58.859375 52.21875 59.9375 53.050781 60.839844 C 54.078125 61.949219 55.386719 62.640625 56.824219 63.039062 C 58.320312 63.460938 59.832031 63.664062 61.398438 63.582031 C 62.617188 63.519531 63.804688 63.339844 65.023438 63.019531 C 64.960938 62.324219 64.894531 61.640625 64.835938 60.960938 C 64.191406 61.046875 63.628906 61.179688 63.050781 61.199219 Z M 63.050781 61.199219 "/>
<path style=" stroke:none;fill-rule:nonzero;fill:rgb(0%,0%,0%);fill-opacity:1;" d="M 52.265625 73.554688 C 52.105469 72.699219 51.769531 71.933594 51.191406 71.28125 C 50.265625 70.238281 49.039062 69.746094 47.71875 69.652344 C 45.816406 69.507812 43.917969 69.597656 42.292969 71.109375 C 42.292969 69.175781 42.292969 67.347656 42.292969 65.523438 C 40.992188 65.523438 39.78125 65.523438 38.574219 65.523438 C 38.574219 70.105469 38.574219 74.667969 38.574219 79.214844 C 39.839844 79.214844 41.066406 79.214844 42.335938 79.214844 C 42.335938 78.898438 42.335938 78.589844 42.335938 78.277344 C 42.414062 78.296875 42.480469 78.292969 42.515625 78.324219 C 43.390625 79.152344 44.492188 79.457031 45.625 79.558594 C 46.921875 79.679688 48.238281 79.644531 49.457031 79.054688 C 50.589844 78.503906 51.460938 77.707031 51.953125 76.515625 C 52.34375 75.550781 52.445312 74.574219 52.265625 73.554688 Z M 47.066406 77.078125 C 45.777344 77.773438 44.144531 77.570312 43.074219 76.570312 C 42.519531 76.078125 42.203125 75.433594 42.3125 74.6875 C 42.085938 73.113281 43.730469 71.914062 45.003906 71.8125 C 46.039062 71.726562 46.949219 71.933594 47.707031 72.632812 C 49.183594 73.988281 48.796875 76.152344 47.066406 77.078125 Z M 47.066406 77.078125 "/>
</g>
</svg>
