<?xml version="1.0" encoding="UTF-8"?>
<svg xmlns="http://www.w3.org/2000/svg" xmlns:xlink="http://www.w3.org/1999/xlink" width="80px" height="80px" viewBox="0 0 80 80" version="1.1">
<g id="surface1">
<path style=" stroke:none;fill-rule:nonzero;fill:rgb(0%,0%,0%);fill-opacity:1;" d="M 68.242188 48.21875 L 63.269531 43.246094 L 58.300781 48.21875 L 61.613281 51.53125 L 58.300781 54.847656 L 46.699219 43.246094 L 35.097656 54.847656 L 48.355469 68.105469 C 50.804688 70.550781 54.257812 71.324219 57.378906 70.5 L 66.742188 80 L 80 66.742188 L 70.636719 57.242188 C 71.464844 54.121094 70.691406 50.664062 68.242188 48.21875 Z M 68.242188 48.21875 "/>
<path style=" stroke:none;fill-rule:nonzero;fill:rgb(0%,0%,0%);fill-opacity:1;" d="M 57.378906 9.363281 C 54.257812 8.539062 50.804688 9.308594 48.355469 11.757812 L 43.382812 16.730469 L 48.355469 21.699219 L 51.667969 18.386719 L 54.984375 21.699219 L 43.382812 33.300781 L 54.984375 44.902344 L 68.242188 31.644531 C 70.691406 29.199219 71.464844 25.742188 70.636719 22.621094 L 80 13.257812 L 66.742188 0 Z M 57.378906 9.363281 "/>
<path style=" stroke:none;fill-rule:nonzero;fill:rgb(0%,0%,0%);fill-opacity:1;" d="M 11.894531 31.644531 L 16.867188 36.617188 L 21.839844 31.644531 L 18.523438 28.328125 L 21.839844 25.015625 L 33.441406 36.617188 L 45.039062 25.015625 L 31.78125 11.757812 C 29.335938 9.308594 25.878906 8.535156 22.757812 9.363281 L 13.257812 0 L 0 13.257812 L 9.5 22.621094 C 8.675781 25.742188 9.449219 29.195312 11.894531 31.644531 Z M 11.894531 31.644531 "/>
<path style=" stroke:none;fill-rule:nonzero;fill:rgb(0%,0%,0%);fill-opacity:1;" d="M 22.757812 70.5 C 25.878906 71.324219 29.335938 70.550781 31.78125 68.105469 L 36.753906 63.132812 L 31.78125 58.160156 L 28.46875 61.476562 L 25.152344 58.160156 L 36.753906 46.558594 L 25.152344 34.960938 L 11.894531 48.21875 C 9.449219 50.664062 8.675781 54.121094 9.5 57.242188 L 0 66.742188 L 13.257812 80 Z M 22.757812 70.5 "/>
</g>
</svg>
