<?xml version="1.0" encoding="UTF-8"?>
<svg xmlns="http://www.w3.org/2000/svg" xmlns:xlink="http://www.w3.org/1999/xlink" width="80px" height="80px" viewBox="0 0 80 80" version="1.1">
<g id="surface1">
<path style=" stroke:none;fill-rule:nonzero;fill:rgb(0%,0%,0%);fill-opacity:1;" d="M 45.160156 27.097656 L 41.289062 27.097656 L 41.289062 20.644531 L 38.710938 20.644531 L 38.710938 29.675781 L 45.160156 29.675781 Z M 45.160156 27.097656 "/>
<path style=" stroke:none;fill-rule:nonzero;fill:rgb(0%,0%,0%);fill-opacity:1;" d="M 80 51.613281 L 63.226562 51.613281 L 63.226562 43.871094 L 54.195312 43.871094 L 54.195312 18.066406 L 56.773438 18.066406 L 56.773438 10.324219 L 52.199219 10.324219 L 43.167969 0 L 36.835938 0 L 27.800781 10.324219 L 23.226562 10.324219 L 23.226562 18.066406 L 25.804688 18.066406 L 25.804688 43.871094 L 16.773438 43.871094 L 16.773438 51.613281 L 0 51.613281 L 0 59.355469 L 2.582031 59.355469 L 2.582031 80 L 77.417969 80 L 77.417969 59.355469 L 80 59.355469 Z M 60.644531 51.613281 L 54.75 51.613281 L 48.398438 46.453125 L 60.644531 46.453125 Z M 52.917969 56.773438 L 40 46.277344 L 27.082031 56.773438 L 22.988281 56.773438 L 40 42.953125 L 57.011719 56.773438 Z M 48.824219 56.773438 L 31.175781 56.773438 L 40 49.601562 Z M 40 18.066406 C 45.691406 18.066406 50.324219 22.695312 50.324219 28.386719 C 50.324219 34.078125 45.691406 38.710938 40 38.710938 C 34.308594 38.710938 29.675781 34.078125 29.675781 28.386719 C 29.675781 22.695312 34.308594 18.066406 40 18.066406 Z M 45.222656 43.871094 L 41.859375 41.140625 C 46.167969 40.511719 49.785156 37.761719 51.613281 33.972656 L 51.613281 43.871094 Z M 51.613281 22.800781 C 50.707031 20.921875 49.363281 19.304688 47.710938 18.066406 L 51.613281 18.066406 Z M 38.003906 2.582031 L 41.996094 2.582031 L 48.769531 10.324219 L 31.230469 10.324219 Z M 25.804688 12.902344 L 54.195312 12.902344 L 54.195312 15.484375 L 25.804688 15.484375 Z M 32.289062 18.066406 C 30.636719 19.300781 29.292969 20.921875 28.386719 22.800781 L 28.386719 18.066406 Z M 28.386719 33.972656 C 30.214844 37.757812 33.832031 40.511719 38.136719 41.140625 L 34.777344 43.871094 L 28.386719 43.871094 Z M 19.355469 46.453125 L 31.601562 46.453125 L 25.25 51.613281 L 19.355469 51.613281 Z M 68.386719 77.417969 L 63.226562 77.417969 L 63.226562 64.515625 L 68.386719 64.515625 Z M 60.644531 77.417969 L 58.066406 77.417969 L 58.066406 64.515625 L 60.644531 64.515625 Z M 55.484375 77.417969 L 50.324219 77.417969 L 50.324219 64.515625 L 55.484375 64.515625 Z M 47.742188 77.417969 L 45.160156 77.417969 L 45.160156 64.515625 L 47.742188 64.515625 Z M 42.582031 77.417969 L 37.417969 77.417969 L 37.417969 64.515625 L 42.582031 64.515625 Z M 34.839844 77.417969 L 32.257812 77.417969 L 32.257812 64.515625 L 34.839844 64.515625 Z M 29.675781 77.417969 L 24.515625 77.417969 L 24.515625 64.515625 L 29.675781 64.515625 Z M 21.933594 77.417969 L 19.355469 77.417969 L 19.355469 64.515625 L 21.933594 64.515625 Z M 16.773438 77.417969 L 11.613281 77.417969 L 11.613281 64.515625 L 16.773438 64.515625 Z M 77.417969 56.773438 L 65.804688 56.773438 L 65.804688 59.355469 L 74.839844 59.355469 L 74.839844 77.417969 L 70.96875 77.417969 L 70.96875 61.933594 L 9.03125 61.933594 L 9.03125 77.417969 L 5.160156 77.417969 L 5.160156 59.355469 L 14.195312 59.355469 L 14.195312 56.773438 L 2.582031 56.773438 L 2.582031 54.195312 L 22.070312 54.195312 L 18.898438 56.773438 L 16.773438 56.773438 L 16.773438 59.355469 L 63.226562 59.355469 L 63.226562 56.773438 L 61.101562 56.773438 L 57.929688 54.195312 L 77.417969 54.195312 Z M 77.417969 56.773438 "/>
</g>
</svg>
