<?xml version="1.0" encoding="iso-8859-1"?>
<!-- Generator: Adobe Illustrator 19.0.0, SVG Export Plug-In . SVG Version: 6.00 Build 0)  -->
<svg version="1.1" id="Layer_1" xmlns="http://www.w3.org/2000/svg" xmlns:xlink="http://www.w3.org/1999/xlink" x="0px" y="0px"
	 viewBox="0 0 426.667 426.667" style="enable-background:new 0 0 426.667 426.667;" xml:space="preserve">
<g>
	<g>
		<g>
			<path d="M213.333,0C95.701,0,0,95.701,0,213.333s95.701,213.333,213.333,213.333s213.333-95.701,213.333-213.333
				S330.965,0,213.333,0z M213.333,384c-94.101,0-170.667-76.565-170.667-170.667S119.232,42.667,213.333,42.667
				S384,119.232,384,213.333C384,307.456,307.435,384,213.333,384z"/>
			<path d="M213.333,149.333c11.755,0,21.333,9.579,21.333,21.333h42.667c0-35.285-28.715-64-64-64s-64,28.715-64,64V192H128v42.667
				h21.333v42.667H128V320h149.333v-42.667H192v-42.667h42.667V192H192v-21.333C192,158.912,201.579,149.333,213.333,149.333z"/>
		</g>
	</g>
</g>
<g>
</g>
<g>
</g>
<g>
</g>
<g>
</g>
<g>
</g>
<g>
</g>
<g>
</g>
<g>
</g>
<g>
</g>
<g>
</g>
<g>
</g>
<g>
</g>
<g>
</g>
<g>
</g>
<g>
</g>
</svg>
