<?xml version="1.0" encoding="UTF-8"?>
<svg xmlns="http://www.w3.org/2000/svg" id="Layer_1" data-name="Layer 1" viewBox="0 0 512 512" width="512" height="512"><path d="M460.8,68.27H51.2A51.2,51.2,0,0,0,0,119.47V392.53a51.2,51.2,0,0,0,51.2,51.2H460.8a51.2,51.2,0,0,0,51.2-51.2V119.47A51.2,51.2,0,0,0,460.8,68.27ZM299.25,269.18a11,11,0,0,1-2.58,3,12.77,12.77,0,0,1-3.64,2.13,12.24,12.24,0,0,1-4.44.8h-45.3L240.77,297a56.68,56.68,0,0,1-3.84,14.91,44.81,44.81,0,0,1-7.82,12.24c4.33-1,8.63-1.73,12.92-2.31a95.07,95.07,0,0,1,12.78-.87h68.62l-2.12,15.9a16.81,16.81,0,0,1-2,5.84,21.61,21.61,0,0,1-4,5.29,20.27,20.27,0,0,1-5.76,3.91,16.51,16.51,0,0,1-7,1.52H175.86L179,329.59q9-1.84,13.71-7t5.89-15l4-32.45H183.28l2-15.51a9.39,9.39,0,0,1,1.26-3.37,11.77,11.77,0,0,1,2.59-3,14,14,0,0,1,3.64-2.17,11.08,11.08,0,0,1,4.43-.87h8.49L209.25,221a74.13,74.13,0,0,1,7.21-23.91,67.39,67.39,0,0,1,15-19.87,70.58,70.58,0,0,1,22.19-13.58,78.29,78.29,0,0,1,28.74-5,70.58,70.58,0,0,1,20.41,2.65A51.85,51.85,0,0,1,318,168.51a43.1,43.1,0,0,1,10.86,11.19,70.45,70.45,0,0,1,7.28,14.24l-17.21,10.2a22,22,0,0,1-10.54,2.39q-5-.27-8.8-4.78-2.4-2.91-4.45-5a19.8,19.8,0,0,0-4.36-3.44,17.41,17.41,0,0,0-5.31-1.92,36.24,36.24,0,0,0-7.08-.6,26,26,0,0,0-19.15,7.75q-7.74,7.74-9.46,22.18l-3.58,29.55h56.17l-1.86,15.49A9.77,9.77,0,0,1,299.25,269.18Z"/></svg>
