<?xml version="1.0" encoding="iso-8859-1"?>
<!-- Generator: Adobe Illustrator 19.0.0, SVG Export Plug-In . SVG Version: 6.00 Build 0)  -->
<svg xmlns="http://www.w3.org/2000/svg" xmlns:xlink="http://www.w3.org/1999/xlink" version="1.1" id="Capa_1" x="0px" y="0px" viewBox="0 0 512 512" style="enable-background:new 0 0 512 512;" xml:space="preserve" width="512" height="512">
<g>
	<path d="M256,382c-38.326,0-74.232-10.532-105-28.837V512l105-94.5L361,512V353.163C330.232,371.468,294.326,382,256,382z"/>
	<path d="M256,90c-47.42,0-86,38.579-86,86s38.58,86,86,86s86-38.579,86-86S303.42,90,256,90z"/>
	<path d="M256,0C158.953,0,80,78.953,80,176s78.953,176,176,176s176-78.953,176-176S353.047,0,256,0z M256,292   c-63.962,0-116-52.037-116-116S192.038,60,256,60s116,52.037,116,116S319.962,292,256,292z"/>
</g>















</svg>
