<?xml version="1.0" encoding="UTF-8"?>
<svg xmlns="http://www.w3.org/2000/svg" id="Layer_1" data-name="Layer 1" viewBox="0 0 512 512" width="512" height="512"><path d="M375.47,0H136.53l74.76,96.11q-143,151.23-143,262.29C68.27,485.65,152.32,512,256,512s187.73-26.35,187.73-153.6q0-111.06-143-262.29ZM341.33,341.33A85.33,85.33,0,1,1,256,256,85.07,85.07,0,0,1,341.33,341.33Zm-62.3,7a5.75,5.75,0,0,1-1.38,1.62,6.77,6.77,0,0,1-1.94,1.13,6.51,6.51,0,0,1-2.36.43H249.23l-1.34,11.63a30.44,30.44,0,0,1-2,7.94,24.25,24.25,0,0,1-4.16,6.52q3.45-.78,6.87-1.24a52.17,52.17,0,0,1,6.81-.46H291.9l-1.13,8.47a9,9,0,0,1-1.06,3.11,11.61,11.61,0,0,1-2.15,2.81,10.84,10.84,0,0,1-3.06,2.09,8.91,8.91,0,0,1-3.75.81H213.33l1.7-12.7a13.22,13.22,0,0,0,7.3-3.7c1.66-1.81,2.71-4.48,3.13-8l2.12-17.27h-10.3l1.06-8.26a5,5,0,0,1,.67-1.79,6.27,6.27,0,0,1,1.38-1.59,7.35,7.35,0,0,1,1.94-1.16,6,6,0,0,1,2.36-.46h4.51l1.91-15.59A39.42,39.42,0,0,1,235,310a35.76,35.76,0,0,1,8-10.58,37.68,37.68,0,0,1,11.81-7.23,41.77,41.77,0,0,1,15.3-2.68,37.67,37.67,0,0,1,10.87,1.41,27.86,27.86,0,0,1,8.11,3.88,23.05,23.05,0,0,1,5.78,6,38.38,38.38,0,0,1,3.88,7.58l-9.17,5.43a11.65,11.65,0,0,1-5.61,1.28,6.56,6.56,0,0,1-4.69-2.55c-.85-1-1.63-1.93-2.36-2.68a10.61,10.61,0,0,0-2.32-1.83,9.4,9.4,0,0,0-2.83-1,19.49,19.49,0,0,0-3.77-.32,13.84,13.84,0,0,0-10.19,4.13c-2.75,2.74-4.43,6.69-5,11.81l-1.91,15.73h29.91l-1,8.25A5.43,5.43,0,0,1,279,348.35Z"/></svg>
