<?xml version="1.0" encoding="UTF-8"?>
<svg xmlns="http://www.w3.org/2000/svg" id="Layer_1" data-name="Layer 1" viewBox="0 0 512 512" width="512" height="512"><path d="M402,512H110a3,3,0,0,1-3-3V3a3,3,0,0,1,3-3H402a3,3,0,0,1,3,3V509A3,3,0,0,1,402,512ZM337.36,41.11h-20.7v9.35a30.51,30.51,0,0,1-30.42,30.42H225.75a30.51,30.51,0,0,1-30.41-30.42V41.11h-20.7a32.6,32.6,0,0,0-32.5,32.5V438.39a32.6,32.6,0,0,0,32.5,32.5H337.36a32.6,32.6,0,0,0,32.5-32.5V73.61A32.6,32.6,0,0,0,337.36,41.11Z"/><path d="M256,337.17A81.17,81.17,0,1,0,174.83,256,80.93,80.93,0,0,0,256,337.17Zm18.77-75.45a4.82,4.82,0,0,1-1.11,1.32,5.56,5.56,0,0,1-1.59.92,5.28,5.28,0,0,1-1.92.35H250.48l-1.09,9.49a24.41,24.41,0,0,1-1.67,6.47,19.27,19.27,0,0,1-3.39,5.31c1.88-.42,3.74-.75,5.61-1a41.41,41.41,0,0,1,5.55-.38h29.78l-.92,6.9a7.29,7.29,0,0,1-.86,2.54,9.46,9.46,0,0,1-1.76,2.29,8.63,8.63,0,0,1-2.5,1.7,7.21,7.21,0,0,1-3.05.66h-55l1.38-10.35a10.78,10.78,0,0,0,6-3,11.43,11.43,0,0,0,2.55-6.52l1.73-14.09h-8.4l.86-6.73a4.21,4.21,0,0,1,.55-1.46,4.93,4.93,0,0,1,1.12-1.3,6,6,0,0,1,1.59-.94,4.7,4.7,0,0,1,1.92-.38h3.68l1.56-12.71a32,32,0,0,1,3.13-10.38,29.16,29.16,0,0,1,6.5-8.62,30.56,30.56,0,0,1,9.63-5.9,34,34,0,0,1,12.47-2.18,30.52,30.52,0,0,1,8.86,1.15,22.64,22.64,0,0,1,6.61,3.16,18.64,18.64,0,0,1,4.72,4.86,31,31,0,0,1,3.16,6.18l-7.48,4.43a9.61,9.61,0,0,1-4.57,1,5.33,5.33,0,0,1-3.82-2.08c-.69-.84-1.33-1.57-1.93-2.18a8.48,8.48,0,0,0-1.89-1.5,7.71,7.71,0,0,0-2.31-.83,16,16,0,0,0-3.07-.26,11.29,11.29,0,0,0-8.31,3.36q-3.36,3.38-4.11,9.63l-1.55,12.83h24.38l-.81,6.73A4.3,4.3,0,0,1,274.77,261.72Z"/></svg>
