<?xml version="1.0" encoding="UTF-8"?>
<svg xmlns="http://www.w3.org/2000/svg" id="Layer_1" data-name="Layer 1" viewBox="0 0 512 512" width="512" height="512"><path d="M483.56,56.89H113.78A28.44,28.44,0,0,0,85.33,85.33v56.89H28.44A28.44,28.44,0,0,0,0,170.67v256a28.44,28.44,0,0,0,28.44,28.44H398.22a28.44,28.44,0,0,0,28.45-28.44V369.78h56.89A28.44,28.44,0,0,0,512,341.33v-256A28.44,28.44,0,0,0,483.56,56.89ZM384,412.44H42.67V184.89H85.33V341.33a28.45,28.45,0,0,0,28.45,28.45H384Zm-85.33-99.55a99.56,99.56,0,1,1,99.55-99.56A99.25,99.25,0,0,1,298.67,312.89Z"/><path d="M324.61,221.24a6.71,6.71,0,0,1-1.54,1.83,7.9,7.9,0,0,1-2.19,1.27,7.27,7.27,0,0,1-2.66.48H291l-1.51,13.11a34,34,0,0,1-2.3,8.94,27.32,27.32,0,0,1-4.69,7.35q3.88-.87,7.75-1.39a58.25,58.25,0,0,1,7.67-.52h41.16l-1.27,9.54a10.24,10.24,0,0,1-1.19,3.5,13.71,13.71,0,0,1-2.43,3.18,12.14,12.14,0,0,1-3.45,2.34,10,10,0,0,1-4.22.92h-76l1.91-14.31a14.9,14.9,0,0,0,8.22-4.17q2.82-3.06,3.53-9l2.39-19.47H255l1.19-9.3a5.65,5.65,0,0,1,.75-2,7.17,7.17,0,0,1,1.56-1.8,8.29,8.29,0,0,1,2.18-1.3,6.71,6.71,0,0,1,2.66-.52h5.09l2.15-17.57A44.42,44.42,0,0,1,274.94,178a40.51,40.51,0,0,1,9-11.92,42.4,42.4,0,0,1,13.31-8.15,46.93,46.93,0,0,1,17.24-3,42.36,42.36,0,0,1,12.24,1.59,31.24,31.24,0,0,1,9.14,4.37,26,26,0,0,1,6.52,6.72,42.11,42.11,0,0,1,4.36,8.54l-10.32,6.12a13,13,0,0,1-6.32,1.43,7.39,7.39,0,0,1-5.29-2.86c-.95-1.16-1.84-2.17-2.66-3a11.64,11.64,0,0,0-2.62-2.06,10.35,10.35,0,0,0-3.18-1.15,21.74,21.74,0,0,0-4.25-.37,15.65,15.65,0,0,0-11.49,4.65q-4.64,4.65-5.67,13.31l-2.15,17.73h33.69l-1.11,9.29A5.93,5.93,0,0,1,324.61,221.24Z"/></svg>
