<?xml version="1.0" encoding="UTF-8"?>
<svg xmlns="http://www.w3.org/2000/svg" id="Layer_1" data-name="Layer 1" viewBox="0 0 512 512" width="512" height="512"><path d="M120.58,224.44,59.65,163.88a9.7,9.7,0,0,1,0-13.13l13.5-13.14a8.15,8.15,0,0,1,6.38-2.92,9.31,9.31,0,0,1,6.75,2.92l40.86,40.86L214.7,90.91A9.31,9.31,0,0,1,221.45,88a8.15,8.15,0,0,1,6.39,2.92l13.5,13.14a9.73,9.73,0,0,1,0,13.13L133.71,224.44a8.84,8.84,0,0,1-13.13,0Z"/><path d="M176.24,298.12A82.12,82.12,0,0,1,203,281.28c2.24-.89,4.74-1.31,7.09-2H28.9V36.08H272.08v72.49a106.92,106.92,0,0,1,28.9-12V7.18H0v301H167.26A98.26,98.26,0,0,1,176.24,298.12Z"/><path d="M259.59,277q29.1,29.1,70.25,29.11T400.09,277q29.1-29.12,29.1-70.25t-29.1-70.25Q371,107.38,329.84,107.38t-70.25,29.11q-29.11,29.1-29.11,70.25T259.59,277Z"/><path d="M170.19,329.51a133.56,133.56,0,0,0-11.13,25.23,220.33,220.33,0,0,0-6.85,28.08,262.79,262.79,0,0,0-3.62,28.2q-.92,13.07-.91,26.78,0,31.05,18.89,49t50.19,18H442.91q31.3,0,50.2-18t18.89-49q0-13.71-.9-26.78a268,268,0,0,0-3.62-28.2,218.62,218.62,0,0,0-6.86-28.08,133.51,133.51,0,0,0-11.12-25.23,91.54,91.54,0,0,0-16.05-21,67.71,67.71,0,0,0-22.13-13.84,77.67,77.67,0,0,0-28.85-5.17q-2.58,0-11.12,5.56t-18.89,12.42q-10.35,6.84-27.69,12.42a112.5,112.5,0,0,1-69.86,0q-17.34-5.56-27.69-12.42T248.33,295.1q-8.54-5.57-11.12-5.56a77.7,77.7,0,0,0-28.85,5.17,67.71,67.71,0,0,0-22.13,13.84A91.3,91.3,0,0,0,170.19,329.51Z"/></svg>
