<?xml version="1.0" encoding="iso-8859-1"?>
<!-- Generator: Adobe Illustrator 19.0.0, SVG Export Plug-In . SVG Version: 6.00 Build 0)  -->
<svg version="1.1" id="Capa_1" xmlns="http://www.w3.org/2000/svg" xmlns:xlink="http://www.w3.org/1999/xlink" x="0px" y="0px"
	 viewBox="0 0 426.667 426.667" style="enable-background:new 0 0 426.667 426.667;" xml:space="preserve">
<g>
	<g>
		<g>
			<path d="M0,341.333c0,12.8,8.533,21.333,21.333,21.333h384c12.8,0,21.333-8.533,21.333-21.333V170.667H0V341.333z M234.667,256
				H384v64H234.667V256z M74.667,256c17.067,0,32,14.933,32,32s-14.933,32-32,32c-17.067,0-32-14.933-32-32S57.6,256,74.667,256z"/>
			<path d="M405.333,64h-384C8.533,64,0,72.533,0,85.333v21.333h426.667V85.333C426.667,72.533,418.133,64,405.333,64z"/>
		</g>
	</g>
</g>
<g>
</g>
<g>
</g>
<g>
</g>
<g>
</g>
<g>
</g>
<g>
</g>
<g>
</g>
<g>
</g>
<g>
</g>
<g>
</g>
<g>
</g>
<g>
</g>
<g>
</g>
<g>
</g>
<g>
</g>
</svg>
