<svg id="Layer_1" enable-background="new 0 0 64 64" height="512" viewBox="0 0 64 64" width="512" xmlns="http://www.w3.org/2000/svg"><g><path d="m48.834 36.055-6.438-1.717c-.352-.094-.624-.371-.713-.724l-.866-3.462c1.483-1.747 2.603-3.883 3.005-6.264 2.206-.572 3.178-3.376 3.178-4.888 0-1.299-.508-1.956-1-2.291v-2.709c0-7.72-6.28-14-14-14s-14 6.28-14 14v2.709c-.492.334-1 .992-1 2.291 0 1.511.97 4.31 3.17 4.888.399 2.444 1.534 4.556 3.011 6.265l-.865 3.461c-.089.354-.361.631-.713.725l-6.438 1.717c-4.807 1.28-8.165 5.65-8.165 10.627v16.317c0 .553.447 1 1 1s1-.447 1-1v-5h8v5c0 .553.447 1 1 1s1-.447 1-1v-1.939c.255.113.522.207.809.255l4.027.671c.056.01.11.014.165.014.48 0 .904-.347.985-.836.091-.545-.277-1.06-.822-1.15l-4.026-.671c-.659-.112-1.138-.676-1.138-1.344v-4c0-.553-.447-1-1-1s-1 .447-1 1v2h-8v-9.317c0-4.071 2.747-7.647 6.682-8.696l6.438-1.717c.61-.163 1.124-.525 1.515-.994 2.232 1.584 4.743 2.494 7.366 2.68v25.044c0 .553.447 1 1 1s1-.447 1-1v-25.044c2.622-.186 5.134-1.097 7.366-2.68.391.469.905.831 1.515.994l6.438 1.717c3.933 1.048 6.68 4.624 6.68 8.696v9.317h-8v-2c0-.553-.447-1-1-1s-1 .447-1 1v4c0 .668-.479 1.232-1.137 1.343l-4.027.671c-.545.091-.913.605-.822 1.15.081.489.505.836.985.836.055 0 .109-.004.165-.014l4.028-.671c.287-.048.553-.142.808-.255v1.94c0 .553.447 1 1 1s1-.447 1-1v-5h8v5c0 .553.447 1 1 1s1-.447 1-1v-16.317c0-4.977-3.358-9.347-8.166-10.628zm-16.834-.055c-2.703 0-5.302-.912-7.563-2.626l.395-1.581c2.407 2.052 5.21 3.207 7.168 3.207 2.171 0 4.877-1.19 7.173-3.186l.39 1.561c-2.261 1.713-4.86 2.625-7.563 2.625zm8.71-18c-.794-1.297-3.051-2-4.71-2-1.771 0-3.223.826-3.763 2h-.474c-.54-1.174-1.992-2-3.763-2-1.658 0-3.916.703-4.71 2h-1.205c.54-1.134 2.892-5 9.914-5 7.047 0 9.378 3.851 9.918 5zm-1.735 1c-.272.37-1.65 1-2.975 1-1.221 0-2-.592-2-1s.779-1 2-1c1.324 0 2.702.63 2.975 1zm-8.975 0c0 .408-.779 1-2 1-1.324 0-2.702-.63-2.975-1 .272-.37 1.65-1 2.975-1 1.221 0 2 .592 2 1zm14 2.498v-2.92c.486-.241.799-.254.872-.218.02.01.128.173.128.64 0 .708-.374 1.846-1 2.498zm-12-19.498c6.617 0 12 5.383 12 12v2.449c-.179.045-.362.103-.549.179-1.065-1.886-4.102-5.628-11.451-5.628s-10.385 3.742-11.451 5.628c-.187-.077-.369-.134-.549-.18v-2.448c0-6.617 5.383-12 12-12zm-12.872 16.359c.07-.036.383-.024.872.218v2.92c-.626-.651-1-1.79-1-2.498 0-.466.108-.629.128-.64zm2.872 1.641h1.29c.794 1.297 3.051 2 4.71 2 1.771 0 3.223-.826 3.763-2h.474c.54 1.174 1.992 2 3.763 2 1.658 0 3.916-.703 4.71-2h1.29v2c0 5.736-5.713 11-10 11-3.423 0-10-4.646-10-11z"/><path d="m22.052 43.684c-.009.025-.866 2.489-4.294 3.347-.536.134-.862.677-.728 1.212.114.454.521.757.969.757.08 0 .162-.01.243-.03 4.481-1.12 5.658-4.51 5.706-4.653.175-.524-.108-1.091-.632-1.265-.529-.176-1.089.108-1.264.632z"/><path d="m45.758 48.97c.081.02.163.03.243.03.448 0 .855-.303.969-.758.135-.535-.191-1.078-.728-1.212-3.366-.842-4.256-3.239-4.296-3.354-.178-.519-.738-.799-1.263-.625-.523.174-.807.74-.632 1.265.049.144 1.225 3.534 5.707 4.654z"/></g></svg>