<svg id="Layer_1" enable-background="new 0 0 512 512" height="512" viewBox="0 0 512 512" width="512" xmlns="http://www.w3.org/2000/svg"><g><path d="m387.897 56.237h-4.342v-28.815c0-8.396-3.766-16.211-10.334-21.442-6.569-5.231-15.029-7.154-23.21-5.276l-243.506 55.873c-.018.004-.035.01-.053.015-9.991 1.793-17.604 10.531-17.604 21.03v124.574c0 4.15 3.364 7.515 7.515 7.515s7.515-3.365 7.515-7.515v-124.574c0-3.504 2.851-6.356 6.356-6.356h182.452c4.151 0 7.515-3.365 7.515-7.515s-3.364-7.515-7.515-7.515h-117.495l178.182-40.884c3.698-.849 7.519.021 10.484 2.384 2.967 2.363 4.668 5.894 4.668 9.686v28.814h-45.782c-4.151 0-7.515 3.365-7.515 7.515s3.364 7.515 7.515 7.515h65.154c11.152 0 20.225 9.073 20.225 20.226v310.599c0 4.15 3.364 7.515 7.515 7.515s7.515-3.365 7.515-7.515v-310.599c0-19.44-15.815-35.255-35.255-35.255z"/><path d="m415.637 424.635c-4.151 0-7.515 3.365-7.515 7.515v44.595c0 11.153-9.073 20.226-20.225 20.226h-277.664c-3.504 0-6.356-2.851-6.356-6.356v-258.36c0-4.15-3.365-7.515-7.515-7.515s-7.515 3.365-7.515 7.515v258.36c0 11.792 9.593 21.385 21.385 21.385h277.664c19.439 0 35.254-15.815 35.254-35.255v-44.595c.002-4.151-3.362-7.515-7.513-7.515z"/><path d="m255.704 334.389c52.599 0 95.393-42.793 95.393-95.393s-42.794-95.394-95.393-95.394c-52.6 0-95.393 42.794-95.393 95.394s42.793 95.393 95.393 95.393zm0-15.029c-7.502 0-17.397-15.638-22.563-42.105h45.126c-5.167 26.467-15.061 42.105-22.563 42.105zm25.495-4.17c1.893-3.378 3.653-7.173 5.258-11.374 2.997-7.848 5.382-16.835 7.105-26.561h32.801c-9.64 17.73-25.768 31.428-45.164 37.935zm54.869-76.194c0 8.076-1.21 15.871-3.437 23.23h-37.001c.755-7.505 1.15-15.293 1.15-23.23 0-7.173-.326-14.222-.944-21.053h37.415c1.825 6.715 2.817 13.768 2.817 21.053zm-8.589-36.082h-33.547c-1.744-10.564-4.256-20.309-7.476-28.739-1.604-4.201-3.364-7.997-5.258-11.374 20.18 6.77 36.803 21.335 46.281 40.113zm-71.775-44.283c7.706 0 17.938 16.494 22.975 44.282h-45.951c5.038-27.787 15.27-44.282 22.976-44.282zm25.047 59.312c.64 6.58 1 13.608 1 21.053 0 8.275-.447 16.03-1.228 23.23h-49.637c-.781-7.2-1.228-14.955-1.228-23.23 0-7.445.36-14.473 1-21.053zm-50.541-55.142c-1.893 3.378-3.653 7.173-5.258 11.374-3.219 8.43-5.732 18.175-7.476 28.739h-33.547c9.479-18.778 26.101-33.343 46.281-40.113zm-54.87 76.195c0-7.285.992-14.338 2.817-21.053h37.415c-.618 6.831-.944 13.88-.944 21.053 0 7.937.396 15.725 1.15 23.23h-37.002c-2.226-7.359-3.436-15.155-3.436-23.23zm42.507 38.259c1.723 9.726 4.108 18.713 7.105 26.561 1.605 4.201 3.364 7.997 5.258 11.374-19.397-6.508-35.525-20.206-45.164-37.935z"/><path d="m167.826 381.01h176.35c4.151 0 7.515-3.365 7.515-7.515s-3.364-7.515-7.515-7.515h-176.35c-4.15 0-7.515 3.365-7.515 7.515s3.364 7.515 7.515 7.515z"/><path d="m201.114 409.605c-4.15 0-7.515 3.364-7.515 7.515s3.365 7.515 7.515 7.515h109.773c4.151 0 7.515-3.364 7.515-7.515s-3.364-7.515-7.515-7.515z"/></g></svg>