<?xml version="1.0" encoding="UTF-8"?>
<svg xmlns="http://www.w3.org/2000/svg" viewBox="0 0 48 48" width="512" height="512"><g id="Inovation"><path d="M43,15.9C42.93,4.31,30.33-3.83,19.56,1.84A2,2,0,0,0,17,1.77,1.93,1.93,0,0,0,15.07,0H12.93A1.93,1.93,0,0,0,11,1.77a2,2,0,0,0-2.62.11L6.88,3.39A1.93,1.93,0,0,0,6.77,6,1.93,1.93,0,0,0,5,7.93v2.14A1.93,1.93,0,0,0,6.77,12a2,2,0,0,0-.46,1.25c0,1,.51,1.31,2.08,2.88a2,2,0,0,0,2.62.11,16.09,16.09,0,0,0,1.11,5.64c2.17,5.52,5.79,5.88,6.84,12.94A3,3,0,0,0,18.78,39,3,3,0,0,0,21,44h1.1a5,5,0,0,0,9.8,0H33a3,3,0,0,0,2.22-5A3,3,0,0,0,35,34.81C36.33,26.23,43.05,25.91,43,15.9ZM9.76,14.66,8.34,13.24A1.93,1.93,0,0,0,7,10V8A1.93,1.93,0,0,0,8.34,4.76L9.76,3.34A1.93,1.93,0,0,0,13,2h2a1.93,1.93,0,0,0,3.24,1.34l1.42,1.42A1.93,1.93,0,0,0,21,8v2a1.93,1.93,0,0,0-1.34,3.24l-1.42,1.42A1.93,1.93,0,0,0,15,16H13A1.93,1.93,0,0,0,9.76,14.66ZM24.17,44h5.66A3,3,0,0,1,24.17,44ZM33,42H21a1,1,0,0,1,0-2H33A1,1,0,0,1,33,42Zm0-4H21a1,1,0,0,1,0-2H33A1,1,0,0,1,33,38ZM21,34V21.88l6-.75V34Zm7.66-14.75c-.37-.34-.64-.26-1.66-.13V15h6V34H29C29,18.9,29.15,19.67,28.66,19.25ZM35,28.85V14a1,1,0,0,0-1-1H26a1,1,0,0,0-1,1v5.37L19.88,20A1,1,0,0,0,19,21v7.74c-2.06-3.77-5-5-5.84-10.74h1.91A1.93,1.93,0,0,0,17,16.23a2,2,0,0,0,2.62-.11l1.51-1.51A1.93,1.93,0,0,0,21.23,12,1.93,1.93,0,0,0,23,10.07V7.93A1.93,1.93,0,0,0,21.23,6a1.92,1.92,0,0,0-.18-2.68A14.07,14.07,0,0,1,41,15.92a13.92,13.92,0,0,1-3.47,9.3A19.92,19.92,0,0,0,35,28.85Z"/><path d="M18,9a4,4,0,1,0-4,4A4,4,0,0,0,18,9Zm-4,2a2,2,0,1,1,2-2A2,2,0,0,1,14,11Z"/></g></svg>
