<svg id="User_Interface" height="512" viewBox="0 0 48 48" width="512" xmlns="http://www.w3.org/2000/svg" data-name="User Interface"><path d="m43 0h-38a5 5 0 0 0 -5 5v38a5 5 0 0 0 5 5h38a5 5 0 0 0 5-5v-38a5 5 0 0 0 -5-5zm-38 2h38a3 3 0 0 1 3 3v3h-44v-3a3 3 0 0 1 3-3zm38 44h-38a3 3 0 0 1 -3-3v-33h44v33a3 3 0 0 1 -3 3z"/><path d="m42.44 5.83a1 1 0 1 0 .94-1.75 1 1 0 0 0 -.94 1.75z"/><path d="m40 5a1 1 0 0 0 -2 0 1 1 0 0 0 2 0z"/><path d="m34.62 5.92a1 1 0 0 0 1.09-1.63c-1.33-1.07-2.47 1.1-1.09 1.63z"/><path d="m5 6h18a1 1 0 0 0 0-2h-18a1 1 0 0 0 0 2z"/><path d="m13 31a9 9 0 1 0 -9-9 9 9 0 0 0 9 9zm-3.9-3.19c2.56-3.72 5.24-3.72 7.8 0a7 7 0 0 1 -7.8 0zm1.9-6.81a2 2 0 1 1 2 2 2 2 0 0 1 -2-2zm2-6a7 7 0 0 1 5.39 11.46 9.93 9.93 0 0 0 -2.62-2.59 4 4 0 1 0 -5.54 0 9.93 9.93 0 0 0 -2.62 2.59 7 7 0 0 1 5.39-11.46z"/><path d="m22 38h-8a1 1 0 0 0 0 2h8a1 1 0 0 0 0-2z"/><path d="m22 34h-17a1 1 0 0 0 0 2h17a1 1 0 0 0 0-2z"/><path d="m22 42h-17a1 1 0 0 0 0 2h17a1 1 0 0 0 0-2z"/><path d="m43 38h-17a1 1 0 0 0 -1 1v4a1 1 0 0 0 1 1h17a1 1 0 0 0 1-1v-4a1 1 0 0 0 -1-1zm-1 4h-15v-2h15z"/><path d="m43 26h-6a1 1 0 0 0 -1 1v8a1 1 0 0 0 1 1h6a1 1 0 0 0 1-1v-8a1 1 0 0 0 -1-1zm-1 8h-4v-6h4z"/><path d="m26 36h7a1 1 0 0 0 0-2h-7a1 1 0 0 0 0 2z"/><path d="m26 32h7a1 1 0 0 0 0-2h-7a1 1 0 0 0 0 2z"/><path d="m26 28h7a1 1 0 0 0 0-2h-7a1 1 0 0 0 0 2z"/><path d="m43 22h-17a1 1 0 0 0 0 2h17a1 1 0 0 0 0-2z"/><path d="m43 12h-17a1 1 0 0 0 -1 1v6a1 1 0 0 0 1 1h17a1 1 0 0 0 1-1v-6a1 1 0 0 0 -1-1zm-1 6h-15v-4h15z"/><path d="m5 40h5a1 1 0 0 0 0-2h-5a1 1 0 0 0 0 2z"/></svg>