<?xml version="1.0" encoding="UTF-8"?>
<!-- Generator: Adobe Illustrator 24.1.3, SVG Export Plug-In . SVG Version: 6.00 Build 0)  -->
<svg xmlns="http://www.w3.org/2000/svg" xmlns:xlink="http://www.w3.org/1999/xlink" version="1.1" id="Capa_1" x="0px" y="0px" viewBox="0 0 512 512" style="enable-background:new 0 0 512 512;" xml:space="preserve" width="512" height="512">
<path d="M196,128c-5.5,0-10,4.5-10,10s4.5,10,10,10s10-4.5,10-10c0-2.7-1.1-5.2-2.9-7.1C201.2,129.1,198.7,128,196,128z"/>
<path d="M177.1,232.6c0.1-23.2-18.6-42.1-41.8-42.2c-20.2-0.1-37.7,14.2-41.5,34.1c-1.2,5.4,2.2,10.7,7.6,11.9s10.7-2.2,11.9-7.6  c0-0.2,0.1-0.3,0.1-0.5c2.4-11.9,14-19.7,25.9-17.3s19.7,14,17.3,25.9c-2,10.3-11.1,17.7-21.5,17.7c-5.5,0-10,4.5-10,10  s4.5,10,10,10c12.2,0,22,9.9,22,22c0,12.2-9.9,22-22,22c-10.9,0-20.2-8.1-21.7-18.9c-0.1-1-0.2-2.1-0.2-3.1c0-5.5-4.5-10-10-10  s-10,4.5-10,10c0,2,0.1,3.9,0.4,5.9c3.2,23,24.5,39,47.5,35.7c23-3.2,39-24.5,35.7-47.5c-1.4-10.2-6.6-19.5-14.4-26.1  C171.7,256.6,177.1,244.9,177.1,232.6L177.1,232.6z"/>
<path d="M392,252.4V90c0-27.6-22.4-50-50-50h-26v-8c0-17.7-14.3-32-32-32s-32,14.3-32,32v8H140v-8c0-17.7-14.3-32-32-32  S76,14.3,76,32v8H50C22.4,40,0,62.4,0,90v280.9c0,27.6,22.4,50,50,50h208c17.1,54.2,67.2,91,124,91.1c71.7,0,130-58.3,130-130  C512,313.7,459,257.5,392,252.4z M272,32c0-6.6,5.4-12,12-12s12,5.4,12,12v36c0,6.6-5.4,12-12,12s-12-5.4-12-12V32z M108,20  c6.6,0,12,5.4,12,12v36c0,6.6-5.4,12-12,12s-12-5.4-12-12V32C96,25.4,101.4,20,108,20z M50,400.9c-16.6,0-30-13.4-30-30l0,0V148h131  c5.5,0,10-4.5,10-10s-4.5-10-10-10H20V90c0-16.6,13.4-30,30-30h26v8c0,17.7,14.3,32,32,32s32-14.3,32-32v-8h112v8  c0,17.7,14.3,32,32,32s32-14.3,32-32v-8h26c16.6,0,30,13.4,30,30v38H241c-5.5,0-10,4.5-10,10s4.5,10,10,10h131v104.4  c-26.9,2.1-52.4,12.5-73.1,29.7v-46c0.4-25.2-19.7-45.9-44.9-46.3c-25.2-0.4-45.9,19.7-46.3,44.9c0,0.5,0,0.9,0,1.4V293  c0,25.2,20.4,45.6,45.6,45.6c2.1,0,4.2-0.2,6.3-0.5c-5.1,14.1-7.6,28.9-7.6,43.9c0,6.3,0.5,12.6,1.4,18.9H50z M253.3,318.6  c-14.1,0-25.6-11.5-25.6-25.6v-56.9c-0.3-14.1,10.9-25.8,25.1-26.1c14.1-0.3,25.8,10.9,26.1,25.1c0,0.3,0,0.7,0,1V293  C278.9,307.1,267.4,318.6,253.3,318.6L253.3,318.6z M382,492c-60.8,0-110-49.2-110-110s49.2-110,110-110s110,49.2,110,110  C491.9,442.7,442.7,491.9,382,492z"/>
<path d="M349.7,394.4h12.5c1,9,0.4,12.2-6.9,22l-7.6,9.6c-2.1,2.6-2.5,6.1-1,9.1c1.4,3,4.4,4.9,7.7,4.9l59.9,0.5h0.1  c4.8,0,8.6-3.8,8.7-8.6c0-4.8-3.8-8.7-8.6-8.7l-42.4-0.4c6.8-10,8.6-17.1,7.6-28.5h12.2c4.8,0,8.7-3.9,8.7-8.7s-3.9-8.7-8.7-8.7  h-16.5c-2.8-4.3-7.4-12.8-7.3-19.7c0,0,0,0,0,0c0,0,0,0,0,0c0-4.4,1.9-7.6,5.8-9.8c6.2-3.5,16.1-3.6,21.7-0.2  c4.5,2.7,7.8,6.5,8.8,9.8c1.3,4.6,6.1,7.3,10.7,6c4.6-1.3,7.3-6.1,6-10.7c-2.2-7.6-8.1-14.8-16.4-19.9c-11-6.7-27.5-6.8-39.3-0.1  c-9.5,5.3-14.7,14.2-14.6,24.9v0v0v0v0c0,7.1,2.3,14.1,4.9,19.7h-5.8c-4.8,0-8.7,3.9-8.7,8.7C341,390.5,344.9,394.4,349.7,394.4  L349.7,394.4z"/>
</svg>
