<svg id="Layer_1" data-name="Layer 1" xmlns="http://www.w3.org/2000/svg" viewBox="0 0 512 512"><defs><style>.cls-1{fill:#fff;}</style></defs><path d="M401.29,178.86a114.05,114.05,0,0,0-12.19.66A202.12,202.12,0,0,0,202,54C90.45,54,0,144.42,0,256S90.45,458,202,458a201,201,0,0,0,104.34-29,61.2,61.2,0,0,0,37,21.25,61.44,61.44,0,0,0,71-50.41l.06-.37a110.71,110.71,0,0,0-13.09-220.65Z"/><path class="cls-1" d="M50.88,229.18h8.76l13.43-57.93H63.14l2.1-9.46h30.6l-2.22,9.46H83.7l-13.55,58H94.09L96.78,218h10.16l-4.79,20.67H48.66Z"/><path class="cls-1" d="M110.68,229.29a23.88,23.88,0,0,1,.82-5.48l7-26.86H109l2.22-8.65H131l-9.34,35.62a19.73,19.73,0,0,0-.82,5.14c0,2.22,1.17,3.51,3,3.51,2.34,0,4.45-1.76,6.9-8.18l4.55,1.64c-3,10-7.94,13.43-14.13,13.43C114.41,239.46,110.68,235.37,110.68,229.29ZM120.49,173a6.78,6.78,0,0,1,6.77-6.77,6.78,6.78,0,1,1,0,13.55A6.78,6.78,0,0,1,120.49,173Z"/><path class="cls-1" d="M143.26,197H134.5l2.22-8.65h15.42L158,228.36c9-9.69,15.53-19.62,17.52-27.33a7,7,0,0,1,2.1-13.66c4.44,0,7.7,3.39,7.7,9,0,10.63-11,27.45-27.32,43.68h-6.66Z"/><path class="cls-1" d="M191.27,229.29a23.84,23.84,0,0,1,.81-5.48l7-26.86h-9.46l2.21-8.65h19.74l-9.34,35.62a20.17,20.17,0,0,0-.82,5.14c0,2.22,1.17,3.51,3,3.51,2.34,0,4.44-1.76,6.89-8.18l4.56,1.64c-3,10-7.94,13.43-14.14,13.43C195,239.46,191.27,235.37,191.27,229.29Zm9.8-56.29a6.78,6.78,0,0,1,6.78-6.77,6.78,6.78,0,1,1-6.78,6.77Z"/><path class="cls-1" d="M250.59,229.41a26.46,26.46,0,0,1,.82-5.72l4.32-15.18a17.2,17.2,0,0,0,.82-5.14c0-4.44-3-7.36-7.59-7.36-6.19,0-12,5.26-14.6,15.3l-6.77,27.33H217.31L227.82,197h-9.34l2.21-8.65h18L236,200.1c4-7,10.52-12.62,17.41-12.62,7.7,0,13.66,5.26,13.66,14.26a31.38,31.38,0,0,1-1.28,8.17l-4.32,14.83a22.38,22.38,0,0,0-.71,4.09c0,2.34,1.17,3.74,3.16,3.74s4.2-1.76,6.54-8.18L275,226c-2.68,9.11-7.47,13.43-13.66,13.43C254.45,239.46,250.59,235.25,250.59,229.41Z"/><path class="cls-1" d="M274.42,256.16a8.42,8.42,0,0,1-2.92-6.54c0-4.09,2.8-6.89,6.43-6.89a6.18,6.18,0,0,1,6.19,6.31,6.45,6.45,0,0,1-.71,3,17.22,17.22,0,0,0,8.41,1.87c4.79,0,8.18-1.28,11.1-4.21,2.68-2.56,4.32-6.65,5.6-12.14l2.22-9.46c-4.32,6.07-10.39,9.93-17.28,9.93-11.33,0-18.34-8.07-18.34-20.21,0-16.35,11.33-30.48,26.63-30.48a15.94,15.94,0,0,1,15.53,11.44l3.16-10.74h9.45l-12,51.85c-1.52,6.78-3.62,11.8-7.36,15.65-4.44,4.33-10.28,6.43-18.46,6.43C285.05,262,277.46,259.2,274.42,256.16Zm40.76-47.77c0-7.47-4.9-12-12.15-12-9.81,0-17.28,9.35-17.28,20.79,0,7.47,4.91,12.14,11.91,12.14C307.71,229.29,315.18,219.25,315.18,208.39Z"/><path class="cls-1" d="M115.35,259.05h-8.29l2.21-9.46h28.27l-2.1,9.46h-9.7l2.34,48.35L156.57,258h5l8.52,49.63,23.6-48.58h-9.35l2.1-9.46h28.38l-2.22,9.46h-7.35l-34.92,68.2h-5.73l-9.22-48.93-29.55,48.93-5.61.12Z"/><path class="cls-1" d="M194.07,307.29c0-17.17,11.91-32.12,26.51-32.12,7.59,0,13.31,5.49,15.07,11.91l3.27-11.22h9.57l-8.87,35.86a21.73,21.73,0,0,0-.94,5.14c0,2.22,1.06,3.5,3,3.5s4.2-1.75,6.54-8.17l4.56,1.64c-3,10-8.3,13.42-13.9,13.42-6,0-9.7-4.08-9.7-10.15v-.59c-4.32,6-10.39,10.86-18,10.86C201.19,327.37,194.07,319.55,194.07,307.29Zm39.24-10.75c0-7.48-3.74-12.38-11.44-12.38-9.82,0-17.17,10.63-17.17,21.95,0,7.36,3.62,12.5,10.63,12.5C225.6,318.61,233.31,307.52,233.31,296.54Z"/><path class="cls-1" d="M254,344a8.45,8.45,0,0,1-2.92-6.54c0-4.09,2.81-6.9,6.43-6.9a6.19,6.19,0,0,1,6.19,6.31,6.34,6.34,0,0,1-.71,3,17.25,17.25,0,0,0,8.41,1.87c4.79,0,8.18-1.29,11.1-4.21,2.69-2.57,4.32-6.65,5.61-12.14l2.22-9.47c-4.33,6.08-10.4,9.93-17.29,9.93-11.33,0-18.34-8.06-18.34-20.2,0-16.35,11.33-30.48,26.63-30.48a15.92,15.92,0,0,1,15.53,11.45L300,275.86h9.46l-12,51.86c-1.52,6.78-3.62,11.8-7.36,15.65-4.44,4.32-10.28,6.42-18.45,6.42C264.61,349.79,257,347,254,344Zm40.77-47.77c0-7.48-4.91-12-12.15-12-9.81,0-17.29,9.34-17.29,20.79,0,7.47,4.91,12.15,11.91,12.15C287.27,317.1,294.75,307.05,294.75,296.19Z"/><path class="cls-1" d="M319.39,304.48v1.75c0,7.6,6.07,12.62,15.18,12.62,5.37,0,10.28-1.17,16.59-4.56l-2,9.58c-5.25,2.57-9.58,3.5-16.7,3.5-12,0-23.13-7.59-23.13-21.37,0-17.05,12.61-30.83,27.56-30.83,12.27,0,20.33,7,20.33,18.8a33.47,33.47,0,0,1-1.87,10.51Zm1.4-7.36H347a13.85,13.85,0,0,0,.7-4.32c0-5.25-3.51-9.11-10.75-9.11S323.47,289.18,320.79,297.12Z"/><path class="cls-1" d="M174.21,394.5h4.73l7.35-31.82H181l.68-2.85h26.92l-2,8.5h-3.14l1.32-5.65H189.54l-3.25,14.09h12.43l-.62,2.85H185.67l-3.48,14.88h15.22l1.31-5.65h3.14l-1.94,8.5h-26.4Z"/><path class="cls-1" d="M211.55,376H207l.68-2.62H215l-1.54,5.76c2.33-3.76,5.3-6.21,8.55-6.21,3.71,0,6.1,2.22,6.21,6,2.34-3.65,5.48-6,8.61-6a6,6,0,0,1,6.33,6.21,15,15,0,0,1-.68,3.76l-2.45,8.39a10.89,10.89,0,0,0-.4,2.33,1.74,1.74,0,0,0,1.76,1.89c1.26,0,2.23-1.14,3.31-3.77l1.77.57c-1.14,3.37-2.85,5.36-5.48,5.36a4,4,0,0,1-4.33-4.05,12.06,12.06,0,0,1,.46-2.62l2.45-8.49a12.37,12.37,0,0,0,.57-3.26,3.56,3.56,0,0,0-3.76-3.76c-3.42,0-7.7,3.71-9.47,10.49l-3,11.35h-3l3.82-14.82a12.37,12.37,0,0,0,.57-3.26,3.61,3.61,0,0,0-3.82-3.76c-3.36,0-7.92,3.76-9.58,10.44l-2.85,11.4h-3Z"/><path class="cls-1" d="M242.9,405.9h3.71L253.79,376h-4.56l.63-2.62h7.35L256.13,378c1.94-2.74,4.79-5.07,8.55-5.07,5.19,0,9.24,3.93,9.24,10.09,0,8.38-6.22,14.76-12.77,14.76-4,0-7.25-2.22-8.27-5.75l-3.25,13.85h5.24l-.62,2.62h-12Zm27.82-22.52c0-4.73-2.45-7.76-6.55-7.76-5.7,0-10.21,6.73-10.21,12.32,0,4.16,2.68,7.19,7.13,7.19C266.73,395.13,270.72,389.31,270.72,383.38Z"/><path class="cls-1" d="M277.45,393.64a15,15,0,0,1,.4-2.39l7.69-33H281l.63-2.62h7.47l-8.33,35.64a19,19,0,0,0-.4,2.39,1.75,1.75,0,0,0,1.77,1.89c1.25,0,2.22-1.14,3.31-3.77l1.77.57c-1.14,3.37-2.86,5.36-5.48,5.36A4,4,0,0,1,277.45,393.64Z"/><path class="cls-1" d="M289.7,387.54c0-7.58,5.88-14.59,13.58-14.59,6.32,0,10,4.67,10,10.26,0,7.58-5.87,14.59-13.57,14.59C293.41,397.8,289.7,393.13,289.7,387.54Zm20.59-4.39c0-4.56-3.08-7.53-7.19-7.53-5.81,0-10.37,5.59-10.37,12,0,4.56,3.08,7.53,7.18,7.53C305.73,395.13,310.29,389.54,310.29,383.15Z"/><path class="cls-1" d="M308.57,405.9a2.48,2.48,0,0,1,2.4-2.56c1.42,0,2.28,1,2.39,2.62h.29c1.37,0,4.45-2.17,9.75-8.67L319.12,376h-4.45l.63-2.62h6.5l3.82,21c4.56-5.93,9.13-12.37,9.92-16.19a3.05,3.05,0,0,1-2.33-2.85,2.52,2.52,0,0,1,2.56-2.45c1.54,0,2.8,1.14,2.8,3.36,0,4.16-3.48,9.75-12.26,20.92-7.19,9.19-10.95,11.52-14.31,11.52C310.28,408.75,308.57,407.56,308.57,405.9Z"/><path class="cls-1" d="M342.72,386.17c-.05.52-.05,1-.05,1.54,0,5,4,7.47,8.09,7.47a15,15,0,0,0,7.87-2.22L358,396a15.54,15.54,0,0,1-7.7,1.76c-5.53,0-10.55-3.59-10.55-10,0-8.1,6.33-14.82,13.4-14.82,5.42,0,8.72,3.42,8.72,8.49a13.89,13.89,0,0,1-1,4.73Zm.57-2.5h15.28a8.8,8.8,0,0,0,.46-2.74c0-2.68-1.82-5.31-6.16-5.31S344.78,379.05,343.29,383.67Z"/><path class="cls-1" d="M369.86,376H365.3l.68-2.62h7.36l-1.6,6.5c3.2-4.39,5.88-6.95,8.1-6.95,1.88,0,2.91,1.08,2.91,2.5a2.78,2.78,0,0,1-2.68,2.8,2.48,2.48,0,0,1-2.51-1.94,18.07,18.07,0,0,0-7.47,10.55l-2.62,10.49h-3Z"/><path class="cls-1" d="M108.19,116.1h-4l.69-2.85H116.4l-.68,2.85H111l.8,29.42,15.57-27.43h1.37l3.13,27.49,15.51-29.48h-4.56l.68-2.85H155l-.68,2.85h-3.76L131.8,151.39H130l-3.3-26.63-15.4,26.63h-1.82Z"/><path class="cls-1" d="M150,139.59a13.22,13.22,0,0,0-.06,1.54c0,5,4.05,7.47,8.1,7.47a14.91,14.91,0,0,0,7.87-2.23l-.69,3.08a15.44,15.44,0,0,1-7.7,1.77c-5.53,0-10.54-3.59-10.54-10,0-8.1,6.32-14.83,13.39-14.83,5.42,0,8.73,3.42,8.73,8.5a13.68,13.68,0,0,1-1,4.73Zm.57-2.51h15.28a9,9,0,0,0,.45-2.74c0-2.68-1.82-5.3-6.15-5.3S152.09,132.46,150.61,137.08Z"/><path class="cls-1" d="M181.45,141.3c0-8.15,5.93-14.94,12.83-14.94,4.33,0,7.18,2.4,7.86,6.22l1.43-6.05h3l-4.45,18.25a11.74,11.74,0,0,0-.4,2.28,1.74,1.74,0,0,0,1.77,1.88c1.25,0,2.22-1.14,3.3-3.76l1.77.57c-1.14,3.36-2.85,5.36-5.47,5.36s-4.22-1.6-4.22-3.82v-1c-2.11,2.79-5.08,4.9-8.55,4.9C185.1,151.22,181.45,147.46,181.45,141.3ZM201,136.23c0-4.28-2.28-7.19-6.61-7.19-5.76,0-9.75,6-9.75,12.2,0,4.45,2.17,7.3,6.27,7.3C197.13,148.54,201,141.58,201,136.23Z"/><path class="cls-1" d="M216.17,129.44h-4.56l.68-2.62h7.35l-1.59,6.5c3.19-4.39,5.87-7,8.1-7,1.88,0,2.9,1.08,2.9,2.51a2.77,2.77,0,0,1-2.68,2.79,2.48,2.48,0,0,1-2.51-1.93,18.12,18.12,0,0,0-7.47,10.54l-2.62,10.49h-3Z"/><path class="cls-1" d="M230.93,139.59c-.05.51-.05,1-.05,1.54,0,5,4,7.47,8.09,7.47a14.89,14.89,0,0,0,7.87-2.23l-.69,3.08a15.4,15.4,0,0,1-7.69,1.77c-5.53,0-10.55-3.59-10.55-10,0-8.1,6.33-14.83,13.4-14.83,5.41,0,8.72,3.42,8.72,8.5a13.68,13.68,0,0,1-1,4.73Zm.57-2.51h15.28a8.7,8.7,0,0,0,.46-2.74c0-2.68-1.83-5.3-6.16-5.3S233,132.46,231.5,137.08Z"/><path class="cls-1" d="M262.34,141.3c0-8.15,5.93-14.94,12.83-14.94,4.34,0,7.19,2.4,7.87,6.22l1.43-6.05h3L283,144.78a11.74,11.74,0,0,0-.4,2.28,1.74,1.74,0,0,0,1.77,1.88c1.26,0,2.23-1.14,3.31-3.76l1.77.57c-1.14,3.36-2.85,5.36-5.48,5.36s-4.22-1.6-4.22-3.82v-1c-2.11,2.79-5.07,4.9-8.55,4.9C266,151.22,262.34,147.46,262.34,141.3Zm19.56-5.07c0-4.28-2.28-7.19-6.61-7.19-5.76,0-9.76,6-9.76,12.2,0,4.45,2.17,7.3,6.28,7.3C278,148.54,281.9,141.58,281.9,136.23Z"/></svg>