<?xml version="1.0" encoding="UTF-8"?> <!-- Generator: Adobe Illustrator 19.0.0, SVG Export Plug-In . SVG Version: 6.00 Build 0) --> <svg xmlns="http://www.w3.org/2000/svg" xmlns:xlink="http://www.w3.org/1999/xlink" version="1.1" id="Capa_1" x="0px" y="0px" viewBox="0 0 512 512" style="enable-background:new 0 0 512 512;" xml:space="preserve"> <g> <g> <path d="M467,61H165c-24.813,0-45,20.187-45,45c0,10.923,0,38.261,0,47.444c-18.789,4.914-35.159,17-45.341,33.969L10.688,294.031 C3.696,305.684,0,319.028,0,332.619V436c0,8.284,6.716,15,15,15h119.971c14.019,0,27.407-6.646,35.868-17.791l11.158-13.947 C187.67,437.622,204.801,451,225,451c20.718,0,38.211-14.075,43.421-33.164C273.554,419.877,279.148,421,285,421 c20.723,0,38.209-14.085,43.414-33.181C333.551,389.864,339.144,391,345,391c24.813,0,45-20.187,45-45v-15h77 c24.813,0,45-20.187,45-45c0-5.413,0-175.276,0-180C512,81.187,491.813,61,467,61z M240,406c0,8.271-6.729,15-15,15 s-15-6.729-15-15v-21.743l30-37.5V406z M267.111,264.845l-119.83,149.787c-0.098,0.122-0.193,0.245-0.287,0.37 c-2.858,3.811-7.241,5.997-12.023,5.997H30v-88.381c0-8.155,2.218-16.161,6.413-23.153l63.971-106.619 c4.69-7.817,11.574-13.895,19.616-17.638c0,8.284,0,66.62,0,75.941c0,18.547,10.645,34.477,27.779,41.575 c17.136,7.096,35.926,3.36,49.04-9.755l47.576-47.576c5.547-5.544,14.513-5.869,20.448-0.711 C270.712,249.756,271.69,258.575,267.111,264.845z M300,376c0,8.271-6.729,15-15,15s-15-6.729-15-15v-45h30 C300,345.061,300,336.523,300,376z M360,346c0,8.271-6.729,15-15,15s-15-6.729-15-15v-15h30V346z M467,301 c-6.826,0-181.891,0-190.394,0l14.101-17.627c0.097-0.121,0.192-0.244,0.285-0.368c14.134-18.837,11.264-45.64-6.502-60.993 c-17.742-15.417-44.672-14.466-61.308,2.17l-47.576,47.576c-6.574,6.576-14.174,4.151-16.347,3.251 c-2.172-0.9-9.26-4.558-9.26-13.858V210.9h332V286H482C482,294.271,475.271,301,467,301z M482,181H150v-30h332V181z M482,121H150 v-15c0-8.271,6.729-15,15-15h302c8.271,0,15,6.729,15,15V121z"></path> </g> </g> <g> <g> <path d="M437,241h-62c-8.284,0-15,6.716-15,15s6.716,15,15,15h62c8.284,0,15-6.716,15-15S445.284,241,437,241z"></path> </g> </g> <g> </g> <g> </g> <g> </g> <g> </g> <g> </g> <g> </g> <g> </g> <g> </g> <g> </g> <g> </g> <g> </g> <g> </g> <g> </g> <g> </g> <g> </g> </svg> 