<?xml version="1.0" encoding="UTF-8"?>
<svg xmlns="http://www.w3.org/2000/svg" xmlns:xlink="http://www.w3.org/1999/xlink" width="80px" height="80px" viewBox="0 0 80 80" version="1.1">
<g id="surface1">
<path style=" stroke:none;fill-rule:nonzero;fill:rgb(0%,0%,0%);fill-opacity:1;" d="M 71.667969 0 L 8.332031 0 C 3.730469 0 0 3.730469 0 8.332031 L 0 71.667969 C 0 76.269531 3.730469 80 8.332031 80 L 71.667969 80 C 76.269531 80 80 76.269531 80 71.667969 L 80 8.332031 C 80 3.730469 76.269531 0 71.667969 0 Z M 8.332031 3.332031 L 71.667969 3.332031 C 74.429688 3.332031 76.667969 5.570312 76.667969 8.332031 L 76.667969 13.332031 L 3.332031 13.332031 L 3.332031 8.332031 C 3.332031 5.570312 5.570312 3.332031 8.332031 3.332031 Z M 71.667969 76.667969 L 8.332031 76.667969 C 5.570312 76.667969 3.332031 74.429688 3.332031 71.667969 L 3.332031 16.667969 L 76.667969 16.667969 L 76.667969 71.667969 C 76.667969 74.429688 74.429688 76.667969 71.667969 76.667969 Z M 71.667969 76.667969 "/>
<path style=" stroke:none;fill-rule:nonzero;fill:rgb(0%,0%,0%);fill-opacity:1;" d="M 70.734375 9.714844 C 71.257812 10.085938 71.949219 10.117188 72.507812 9.800781 C 73.066406 9.484375 73.394531 8.875 73.351562 8.234375 C 73.304688 7.59375 72.898438 7.035156 72.300781 6.800781 C 71.511719 6.488281 70.617188 6.816406 70.21875 7.5625 C 69.820312 8.304688 70.039062 9.234375 70.734375 9.714844 Z M 70.734375 9.714844 "/>
<path style=" stroke:none;fill-rule:nonzero;fill:rgb(0%,0%,0%);fill-opacity:1;" d="M 66.667969 8.332031 C 66.667969 7.414062 65.921875 6.667969 65 6.667969 C 64.078125 6.667969 63.332031 7.414062 63.332031 8.332031 C 63.332031 9.253906 64.078125 10 65 10 C 65.921875 10 66.667969 9.253906 66.667969 8.332031 Z M 66.667969 8.332031 "/>
<path style=" stroke:none;fill-rule:nonzero;fill:rgb(0%,0%,0%);fill-opacity:1;" d="M 57.699219 9.867188 C 58.433594 10.167969 59.28125 9.914062 59.722656 9.253906 C 60.164062 8.59375 60.078125 7.710938 59.515625 7.148438 C 57.300781 5.367188 55.398438 8.984375 57.699219 9.867188 Z M 57.699219 9.867188 "/>
<path style=" stroke:none;fill-rule:nonzero;fill:rgb(0%,0%,0%);fill-opacity:1;" d="M 8.332031 10 L 38.332031 10 C 39.253906 10 40 9.253906 40 8.332031 C 40 7.414062 39.253906 6.667969 38.332031 6.667969 L 8.332031 6.667969 C 7.414062 6.667969 6.667969 7.414062 6.667969 8.332031 C 6.667969 9.253906 7.414062 10 8.332031 10 Z M 8.332031 10 "/>
<path style=" stroke:none;fill-rule:nonzero;fill:rgb(0%,0%,0%);fill-opacity:1;" d="M 21.667969 51.667969 C 29.949219 51.667969 36.667969 44.949219 36.667969 36.667969 C 36.667969 28.382812 29.949219 21.667969 21.667969 21.667969 C 13.382812 21.667969 6.667969 28.382812 6.667969 36.667969 C 6.667969 44.949219 13.382812 51.667969 21.667969 51.667969 Z M 15.167969 46.351562 C 19.433594 40.148438 23.898438 40.148438 28.167969 46.351562 C 24.234375 48.988281 19.097656 48.988281 15.167969 46.351562 Z M 18.332031 35 C 18.332031 33.160156 19.824219 31.667969 21.667969 31.667969 C 23.507812 31.667969 25 33.160156 25 35 C 25 36.839844 23.507812 38.332031 21.667969 38.332031 C 19.824219 38.332031 18.332031 36.839844 18.332031 35 Z M 21.667969 25 C 26.183594 25.003906 30.292969 27.613281 32.214844 31.703125 C 34.136719 35.789062 33.527344 40.617188 30.648438 44.101562 C 29.476562 42.402344 27.996094 40.9375 26.285156 39.785156 C 28.246094 37.898438 28.867188 35.011719 27.851562 32.484375 C 26.835938 29.960938 24.386719 28.308594 21.667969 28.308594 C 18.945312 28.308594 16.496094 29.960938 15.480469 32.484375 C 14.464844 35.011719 15.085938 37.898438 17.050781 39.785156 C 15.339844 40.9375 13.855469 42.402344 12.683594 44.101562 C 9.804688 40.617188 9.195312 35.789062 11.117188 31.703125 C 13.039062 27.613281 17.148438 25.003906 21.667969 25 Z M 21.667969 25 "/>
<path style=" stroke:none;fill-rule:nonzero;fill:rgb(0%,0%,0%);fill-opacity:1;" d="M 36.667969 63.332031 L 23.332031 63.332031 C 22.414062 63.332031 21.667969 64.078125 21.667969 65 C 21.667969 65.921875 22.414062 66.667969 23.332031 66.667969 L 36.667969 66.667969 C 37.585938 66.667969 38.332031 65.921875 38.332031 65 C 38.332031 64.078125 37.585938 63.332031 36.667969 63.332031 Z M 36.667969 63.332031 "/>
<path style=" stroke:none;fill-rule:nonzero;fill:rgb(0%,0%,0%);fill-opacity:1;" d="M 36.667969 56.667969 L 8.332031 56.667969 C 7.414062 56.667969 6.667969 57.414062 6.667969 58.332031 C 6.667969 59.253906 7.414062 60 8.332031 60 L 36.667969 60 C 37.585938 60 38.332031 59.253906 38.332031 58.332031 C 38.332031 57.414062 37.585938 56.667969 36.667969 56.667969 Z M 36.667969 56.667969 "/>
<path style=" stroke:none;fill-rule:nonzero;fill:rgb(0%,0%,0%);fill-opacity:1;" d="M 36.667969 70 L 8.332031 70 C 7.414062 70 6.667969 70.746094 6.667969 71.667969 C 6.667969 72.585938 7.414062 73.332031 8.332031 73.332031 L 36.667969 73.332031 C 37.585938 73.332031 38.332031 72.585938 38.332031 71.667969 C 38.332031 70.746094 37.585938 70 36.667969 70 Z M 36.667969 70 "/>
<path style=" stroke:none;fill-rule:nonzero;fill:rgb(0%,0%,0%);fill-opacity:1;" d="M 71.667969 63.332031 L 43.332031 63.332031 C 42.414062 63.332031 41.667969 64.078125 41.667969 65 L 41.667969 71.667969 C 41.667969 72.585938 42.414062 73.332031 43.332031 73.332031 L 71.667969 73.332031 C 72.585938 73.332031 73.332031 72.585938 73.332031 71.667969 L 73.332031 65 C 73.332031 64.078125 72.585938 63.332031 71.667969 63.332031 Z M 70 70 L 45 70 L 45 66.667969 L 70 66.667969 Z M 70 70 "/>
<path style=" stroke:none;fill-rule:nonzero;fill:rgb(0%,0%,0%);fill-opacity:1;" d="M 71.667969 43.332031 L 61.667969 43.332031 C 60.746094 43.332031 60 44.078125 60 45 L 60 58.332031 C 60 59.253906 60.746094 60 61.667969 60 L 71.667969 60 C 72.585938 60 73.332031 59.253906 73.332031 58.332031 L 73.332031 45 C 73.332031 44.078125 72.585938 43.332031 71.667969 43.332031 Z M 70 56.667969 L 63.332031 56.667969 L 63.332031 46.667969 L 70 46.667969 Z M 70 56.667969 "/>
<path style=" stroke:none;fill-rule:nonzero;fill:rgb(0%,0%,0%);fill-opacity:1;" d="M 43.332031 60 L 55 60 C 55.921875 60 56.667969 59.253906 56.667969 58.332031 C 56.667969 57.414062 55.921875 56.667969 55 56.667969 L 43.332031 56.667969 C 42.414062 56.667969 41.667969 57.414062 41.667969 58.332031 C 41.667969 59.253906 42.414062 60 43.332031 60 Z M 43.332031 60 "/>
<path style=" stroke:none;fill-rule:nonzero;fill:rgb(0%,0%,0%);fill-opacity:1;" d="M 43.332031 53.332031 L 55 53.332031 C 55.921875 53.332031 56.667969 52.585938 56.667969 51.667969 C 56.667969 50.746094 55.921875 50 55 50 L 43.332031 50 C 42.414062 50 41.667969 50.746094 41.667969 51.667969 C 41.667969 52.585938 42.414062 53.332031 43.332031 53.332031 Z M 43.332031 53.332031 "/>
<path style=" stroke:none;fill-rule:nonzero;fill:rgb(0%,0%,0%);fill-opacity:1;" d="M 43.332031 46.667969 L 55 46.667969 C 55.921875 46.667969 56.667969 45.921875 56.667969 45 C 56.667969 44.078125 55.921875 43.332031 55 43.332031 L 43.332031 43.332031 C 42.414062 43.332031 41.667969 44.078125 41.667969 45 C 41.667969 45.921875 42.414062 46.667969 43.332031 46.667969 Z M 43.332031 46.667969 "/>
<path style=" stroke:none;fill-rule:nonzero;fill:rgb(0%,0%,0%);fill-opacity:1;" d="M 71.667969 36.667969 L 43.332031 36.667969 C 42.414062 36.667969 41.667969 37.414062 41.667969 38.332031 C 41.667969 39.253906 42.414062 40 43.332031 40 L 71.667969 40 C 72.585938 40 73.332031 39.253906 73.332031 38.332031 C 73.332031 37.414062 72.585938 36.667969 71.667969 36.667969 Z M 71.667969 36.667969 "/>
<path style=" stroke:none;fill-rule:nonzero;fill:rgb(0%,0%,0%);fill-opacity:1;" d="M 71.667969 20 L 43.332031 20 C 42.414062 20 41.667969 20.746094 41.667969 21.667969 L 41.667969 31.667969 C 41.667969 32.585938 42.414062 33.332031 43.332031 33.332031 L 71.667969 33.332031 C 72.585938 33.332031 73.332031 32.585938 73.332031 31.667969 L 73.332031 21.667969 C 73.332031 20.746094 72.585938 20 71.667969 20 Z M 70 30 L 45 30 L 45 23.332031 L 70 23.332031 Z M 70 30 "/>
<path style=" stroke:none;fill-rule:nonzero;fill:rgb(0%,0%,0%);fill-opacity:1;" d="M 8.332031 66.667969 L 16.667969 66.667969 C 17.585938 66.667969 18.332031 65.921875 18.332031 65 C 18.332031 64.078125 17.585938 63.332031 16.667969 63.332031 L 8.332031 63.332031 C 7.414062 63.332031 6.667969 64.078125 6.667969 65 C 6.667969 65.921875 7.414062 66.667969 8.332031 66.667969 Z M 8.332031 66.667969 "/>
</g>
</svg>
