<?xml version="1.0" encoding="UTF-8"?>
<svg xmlns="http://www.w3.org/2000/svg" xmlns:xlink="http://www.w3.org/1999/xlink" width="80px" height="80px" viewBox="0 0 80 80" version="1.1">
<g id="surface1">
<path style=" stroke:none;fill-rule:nonzero;fill:rgb(0%,0%,0%);fill-opacity:1;" d="M 72.96875 9.53125 L 25.78125 9.53125 C 21.902344 9.53125 18.75 12.683594 18.75 16.5625 C 18.75 18.269531 18.75 22.539062 18.75 23.976562 C 15.8125 24.742188 13.257812 26.632812 11.664062 29.285156 L 1.671875 45.941406 C 0.578125 47.761719 0 49.847656 0 51.972656 L 0 68.125 C 0 69.417969 1.050781 70.46875 2.34375 70.46875 L 21.089844 70.46875 C 23.28125 70.46875 25.371094 69.429688 26.695312 67.6875 L 28.4375 65.507812 C 29.324219 68.378906 32 70.46875 35.15625 70.46875 C 38.394531 70.46875 41.125 68.269531 41.941406 65.285156 C 42.742188 65.605469 43.617188 65.78125 44.53125 65.78125 C 47.769531 65.78125 50.5 63.582031 51.316406 60.597656 C 52.117188 60.917969 52.992188 61.09375 53.90625 61.09375 C 57.785156 61.09375 60.9375 57.941406 60.9375 54.0625 L 60.9375 51.71875 L 72.96875 51.71875 C 76.847656 51.71875 80 48.566406 80 44.6875 C 80 43.839844 80 17.300781 80 16.5625 C 80 12.683594 76.847656 9.53125 72.96875 9.53125 Z M 37.5 63.4375 C 37.5 64.730469 36.449219 65.78125 35.15625 65.78125 C 33.863281 65.78125 32.8125 64.730469 32.8125 63.4375 L 32.8125 60.039062 L 37.5 54.179688 Z M 41.734375 41.382812 L 23.011719 64.785156 C 22.996094 64.804688 22.984375 64.824219 22.96875 64.84375 C 22.519531 65.441406 21.835938 65.78125 21.089844 65.78125 L 4.6875 65.78125 L 4.6875 51.972656 C 4.6875 50.699219 5.035156 49.445312 5.691406 48.355469 L 15.683594 31.695312 C 16.417969 30.472656 17.492188 29.523438 18.75 28.9375 C 18.75 30.234375 18.75 39.347656 18.75 40.804688 C 18.75 43.703125 20.414062 46.191406 23.089844 47.300781 C 25.769531 48.410156 28.703125 47.824219 30.753906 45.777344 L 38.1875 38.34375 C 39.054688 37.476562 40.453125 37.425781 41.382812 38.230469 C 42.296875 39.023438 42.453125 40.402344 41.734375 41.382812 Z M 46.875 58.75 C 46.875 60.042969 45.824219 61.09375 44.53125 61.09375 C 43.238281 61.09375 42.1875 60.042969 42.1875 58.75 L 42.1875 51.71875 L 46.875 51.71875 C 46.875 53.914062 46.875 52.582031 46.875 58.75 Z M 56.25 54.0625 C 56.25 55.355469 55.199219 56.40625 53.90625 56.40625 C 52.613281 56.40625 51.5625 55.355469 51.5625 54.0625 L 51.5625 51.71875 L 56.25 51.71875 Z M 72.96875 47.03125 C 71.902344 47.03125 44.546875 47.03125 43.21875 47.03125 L 45.421875 44.277344 C 45.4375 44.257812 45.453125 44.238281 45.46875 44.21875 C 47.675781 41.277344 47.226562 37.089844 44.453125 34.6875 C 41.679688 32.28125 37.472656 32.429688 34.871094 35.027344 L 27.4375 42.460938 C 26.410156 43.488281 25.222656 43.109375 24.882812 42.96875 C 24.542969 42.828125 23.4375 42.257812 23.4375 40.804688 L 23.4375 32.953125 L 75.3125 32.953125 L 75.3125 44.6875 C 75.3125 45.980469 74.261719 47.03125 72.96875 47.03125 Z M 75.3125 28.28125 L 23.4375 28.28125 L 23.4375 23.59375 L 75.3125 23.59375 Z M 75.3125 18.90625 L 23.4375 18.90625 L 23.4375 16.5625 C 23.4375 15.269531 24.488281 14.21875 25.78125 14.21875 L 72.96875 14.21875 C 74.261719 14.21875 75.3125 15.269531 75.3125 16.5625 Z M 75.3125 18.90625 "/>
<path style=" stroke:none;fill-rule:nonzero;fill:rgb(0%,0%,0%);fill-opacity:1;" d="M 68.28125 37.65625 L 58.59375 37.65625 C 57.300781 37.65625 56.25 38.707031 56.25 40 C 56.25 41.292969 57.300781 42.34375 58.59375 42.34375 L 68.28125 42.34375 C 69.574219 42.34375 70.625 41.292969 70.625 40 C 70.625 38.707031 69.574219 37.65625 68.28125 37.65625 Z M 68.28125 37.65625 "/>
</g>
</svg>
