<?xml version="1.0" encoding="UTF-8"?>
<svg xmlns="http://www.w3.org/2000/svg" xmlns:xlink="http://www.w3.org/1999/xlink" width="80px" height="80px" viewBox="0 0 80 80" version="1.1">
<g id="surface1">
<path style=" stroke:none;fill-rule:nonzero;fill:rgb(0%,0%,0%);fill-opacity:1;" d="M 40 0 C 17.945312 0 0 17.945312 0 40 C 0 62.058594 17.945312 80 40 80 C 62.054688 80 80 62.058594 80 40 C 80 17.945312 62.054688 0 40 0 Z M 36 16 L 44 16 L 44 44 L 36 44 Z M 40 61 C 37.238281 61 35 58.765625 35 56 C 35 53.238281 37.238281 51 40 51 C 42.761719 51 45 53.238281 45 56 C 45 58.765625 42.761719 61 40 61 Z M 40 61 "/>
</g>
</svg>
