<?xml version="1.0" encoding="UTF-8"?>
<svg xmlns="http://www.w3.org/2000/svg" xmlns:xlink="http://www.w3.org/1999/xlink" width="80px" height="80px" viewBox="0 0 80 80" version="1.1">
<g id="surface1">
<path style=" stroke:none;fill-rule:nonzero;fill:rgb(0%,0%,0%);fill-opacity:1;" d="M 26.730469 68.476562 C 15.976562 67.867188 7.410156 58.925781 7.410156 48.019531 C 7.410156 36.71875 16.601562 27.523438 27.902344 27.523438 C 32.953125 27.523438 37.808594 29.378906 41.5625 32.746094 C 45.902344 36.628906 48.394531 42.195312 48.394531 48.015625 C 48.394531 52.902344 46.640625 57.605469 43.515625 61.285156 C 45.734375 62.722656 48.277344 63.578125 50.929688 63.773438 C 54.121094 59.128906 55.804688 53.707031 55.804688 48.015625 C 55.804688 41.921875 53.875 36.132812 50.226562 31.277344 C 47.324219 27.417969 43.464844 24.359375 39.0625 22.4375 C 36.621094 21.371094 34.070312 20.667969 31.441406 20.339844 C 36.753906 16.425781 38.785156 13.148438 38.785156 10.292969 C 38.785156 6.863281 36.003906 4.082031 32.574219 4.082031 C 30.710938 4.082031 29.039062 4.902344 27.902344 6.203125 C 26.761719 4.902344 25.09375 4.082031 23.230469 4.082031 C 19.796875 4.082031 17.019531 6.863281 17.019531 10.292969 C 17.019531 13.152344 19.050781 16.429688 24.363281 20.339844 C 10.644531 22.082031 0 33.832031 0 48.019531 C 0 63.402344 12.515625 75.917969 27.902344 75.917969 C 30.027344 75.917969 32.117188 75.683594 34.148438 75.21875 C 31.355469 73.371094 28.847656 71.097656 26.730469 68.476562 Z M 26.730469 68.476562 "/>
<path style=" stroke:none;fill-rule:nonzero;fill:rgb(0%,0%,0%);fill-opacity:1;" d="M 52.097656 20.117188 C 49.972656 20.117188 47.882812 20.351562 45.851562 20.816406 C 48.644531 22.664062 51.152344 24.9375 53.269531 27.558594 C 64.023438 28.167969 72.589844 37.109375 72.589844 48.019531 C 72.589844 59.316406 63.398438 68.511719 52.097656 68.511719 C 47.046875 68.511719 42.195312 66.65625 38.4375 63.289062 C 34.097656 59.40625 31.605469 53.839844 31.605469 48.019531 C 31.605469 43.132812 33.359375 38.429688 36.484375 34.75 C 34.265625 33.3125 31.722656 32.457031 29.070312 32.261719 C 25.878906 36.90625 24.195312 42.328125 24.195312 48.015625 C 24.195312 54.113281 26.125 59.902344 29.777344 64.757812 C 32.675781 68.617188 36.535156 71.675781 40.9375 73.597656 C 44.460938 75.136719 48.214844 75.917969 52.097656 75.917969 C 67.484375 75.917969 80 63.402344 80 48.015625 C 80 32.632812 67.484375 20.117188 52.097656 20.117188 Z M 52.097656 20.117188 "/>
</g>
</svg>
