<?xml version="1.0" encoding="iso-8859-1"?>
<!-- Generator: Adobe Illustrator 19.0.0, SVG Export Plug-In . SVG Version: 6.00 Build 0)  -->
<svg version="1.1" id="Layer_1" xmlns="http://www.w3.org/2000/svg" xmlns:xlink="http://www.w3.org/1999/xlink" x="0px" y="0px"
	 viewBox="0 0 512 512" style="enable-background:new 0 0 512 512;" xml:space="preserve">
<g>
	<g>
		<path d="M510.32,415.877l-39.19-80.99l27.858-52.875c5.731-14.309-0.011-29.577-11.592-37.338
			c-14.782-9.904-37.077-5.851-45.864,14.028l-0.055,0.125L388.439,373.06H239.66l-0.013-0.053h-34.393l0.013,0.053H65.621
			c-15.21,0-31,11.246-31,33.352c0,21.473,15.071,33.319,31,33.319h26.174l-22.272,42.872c-4.261,8.18-1.087,18.261,7.087,22.521
			c8.175,4.25,18.245,1.105,22.521-7.098l30.305-58.296h92.246l13.384,54.568c2.209,8.947,11.221,14.438,20.206,12.229
			c8.953-2.203,14.428-11.247,12.227-20.203l-11.425-46.594h128.712l30.305,58.296c4.242,8.144,14.307,11.369,22.521,7.098
			c8.174-4.261,11.347-14.343,7.087-22.521l-22.272-42.872h72.859C507.574,439.732,515.674,426.957,510.32,415.877z
			 M433.421,406.452l18.366-34.859l16.869,34.859H433.421z"/>
	</g>
</g>
<g>
	<g>
		<path d="M361.066,167.67C336.309,75.304,244.988,18.311,152.488,34.303l-4.541-16.943c-2.391-8.919-11.5-14.19-20.457-11.804
			c-8.902,2.386-14.185,11.538-11.804,20.445l4.539,16.942C32.143,75.32-18.474,170.368,6.274,262.735
			c2.372,8.848,11.5,14.21,20.457,11.804l144.787-38.796l25.53,103.874h34.393l-27.656-112.52l145.478-38.981
			C358.2,185.716,363.434,176.539,361.066,167.67z"/>
	</g>
</g>
<g>
</g>
<g>
</g>
<g>
</g>
<g>
</g>
<g>
</g>
<g>
</g>
<g>
</g>
<g>
</g>
<g>
</g>
<g>
</g>
<g>
</g>
<g>
</g>
<g>
</g>
<g>
</g>
<g>
</g>
</svg>
