<svg viewBox="0 0 512 512.001" xmlns="http://www.w3.org/2000/svg"><path d="m436.753906 308.59375-31.820312-31.820312-31.820313 31.820312 21.214844 21.210938-21.214844 21.214843-74.246093-74.246093-74.246094 74.246093 84.851562 84.851563c15.667969 15.664062 37.78125 20.605468 57.757813 15.328125l59.917969 60.800781 84.851562-84.851562-59.917969-60.800782c5.28125-19.976562.335938-42.09375-15.328125-57.753906zm0 0"/><path d="m367.230469 59.917969c-19.976563-5.277344-42.089844-.335938-57.757813 15.328125l-31.816406 31.820312 31.816406 31.820313 21.214844-21.214844 21.214844 21.214844-74.246094 74.246093 74.246094 74.246094 84.851562-84.851562c15.664063-15.664063 20.609375-37.777344 15.328125-57.753906l59.917969-59.921876-84.851562-84.851562zm0 0"/><path d="m76.128906 202.527344 31.820313 31.816406 31.820312-31.816406-21.214843-21.214844 21.214843-21.214844 74.246094 74.246094 74.246094-74.246094-84.851563-84.851562c-15.667968-15.664063-37.78125-20.609375-57.757812-15.328125l-60.800782-59.917969-84.851562 84.851562 60.800781 59.917969c-5.277343 19.976563-.335937 42.089844 15.328125 57.757813zm0 0"/><path d="m145.652344 451.199219c19.976562 5.277343 42.089844.335937 57.757812-15.328125l31.816406-31.820313-31.816406-31.820312-21.214844 21.214843-21.210937-21.214843 74.242187-74.246094-74.242187-74.246094-84.855469 84.855469c-15.664062 15.660156-20.605468 37.777344-15.328125 57.753906l-60.800781 60.800782 84.851562 84.851562zm0 0"/></svg>