<svg height="408pt" viewBox="0 -45 408.00007 408" width="408pt" xmlns="http://www.w3.org/2000/svg"><path d="m401.617188 27.316406-20.039063-10.367187c-44.351563-22.605469-96.851563-22.597657-141.199219.023437l-26.378906 13.644532v288.261718l17.230469-8.914062c50.09375-25.558594 109.398437-25.566406 159.5-.019532 3.660156 1.910157 8.050781 1.769532 11.582031-.371093s5.6875-5.96875 5.6875-10.097657v-261.675781c.011719-4.414062-2.453125-8.464843-6.382812-10.484375zm0 0"/><path d="m26.378906 16.972656-20 10.34375c-3.925781 2.019532-6.3906248 6.070313-6.378906 10.484375v261.675781c0 4.121094 2.148438 7.945313 5.667969 10.085938 3.519531 2.144531 7.902343 2.296875 11.5625.402344 50.09375-25.558594 109.402343-25.566406 159.5-.019532l17.269531 8.933594v-288.261718l-26.421875-13.667969c-44.351563-22.605469-96.851563-22.597657-141.199219.023437zm0 0"/></svg>