<svg id="Capa_1" enable-background="new 0 0 512 512" height="512" viewBox="0 0 512 512" width="512" xmlns="http://www.w3.org/2000/svg"><g><path d="m437 241c-36.216 0-66.513 25.809-73.482 60h-18.518c-41.353 0-75 33.647-75 75v61c0 24.814-20.186 45-45 45s-45-20.186-45-45v-48.763c17.422-6.213 30-22.707 30-42.237v-26.501c71.418-35.907 120-150.245 120-214.499 0-35.803-3.267-53.485-31.018-69.388-4.334-20.317-22.39-35.612-43.982-35.612-24.814 0-45 20.186-45 45s20.186 45 45 45c16.401 0 30.634-8.912 38.5-22.057 5.599 6.03 6.5 14.973 6.5 37.057 0 73.345-65.391 196-135 196s-135-122.655-135-196c0-22.084.901-31.027 6.5-37.057 7.866 13.145 22.099 22.057 38.5 22.057 24.814 0 45-20.186 45-45s-20.186-45-45-45c-21.592 0-39.648 15.295-43.982 35.612-27.751 15.903-31.018 33.585-31.018 69.388 0 64.254 48.582 178.592 120 214.499v26.501c0 19.53 12.578 36.024 30 42.237v48.763c0 41.353 33.647 75 75 75s75-33.647 75-75v-61c0-24.814 20.186-45 45-45h18.518c6.969 34.191 37.266 60 73.482 60 41.353 0 75-33.647 75-75s-33.647-75-75-75zm15 90h-30v-30h30z"/></g></svg>