<svg id="Capa_1" enable-background="new 0 0 512 512" height="512" viewBox="0 0 512 512" width="512" xmlns="http://www.w3.org/2000/svg"><g><path d="m71.685 304.151h-71.685v-148.426h71.685zm30-23.79v-100.846h37.427l58.182-58.181h85.253l59.988 59.988-13.69 13.69c-15.232 15.23-40.156 15.374-55.561.323l-26.078-25.026-110.052 110.052zm271.204 0-98.731 98.731c-7.464 7.464-17.388 11.574-27.943 11.574s-20.479-4.11-27.943-11.574l-68.711-68.711 98.079-98.078 4.73 4.54c27.105 26.43 70.911 26.159 97.688-.618l36.388-36.71h23.871v100.847h-37.428zm139.111 23.79h-71.685v-148.426h71.685z"/></g></svg>