<svg id="Capa_1" enable-background="new 0 0 508 508" height="512" viewBox="0 0 508 508" width="512" xmlns="http://www.w3.org/2000/svg"><g><path d="m364.08 268c-2.604 20.679-10.902 39.583-23.27 55.1l103.377 99.248c38.167-43.003 60.323-96.892 63.423-154.348z"/><path d="m225.475 146.752c9.103-2.415 18.662-3.708 28.525-3.708 9.403 0 18.53 1.174 27.249 3.376l47.367-135.333c-23.868-7.299-48.95-11.087-74.616-11.087-30.369 0-59.918 5.309-87.606 15.46z"/><path d="m309.096 157.67c28.976 16.608 49.736 45.915 54.708 80.33h143.685c-3.818-61.825-29.7-119.422-73.883-163.605-22.539-22.54-48.569-40.319-76.87-52.838z"/><path d="m319.105 343.848c-18.287 13.274-40.779 21.108-65.105 21.108-26.488 0-50.803-9.287-69.88-24.775l-101.386 101.386c46.906 42.922 107.277 66.433 171.266 66.433 62.968 0 122.43-22.772 169.008-64.398z"/><path d="m144.197 238c4.907-33.97 25.2-62.957 53.589-79.673l-58.894-130.877c-23.53 11.986-45.284 27.732-64.497 46.945-44.183 44.183-70.065 101.78-73.883 163.605z"/><path d="m143.92 268h-143.53c3.046 56.444 24.471 109.453 61.411 152.074l101.768-101.768c-10.366-14.552-17.308-31.713-19.649-50.306z"/></g></svg>