<svg id="Capa_1" enable-background="new 0 0 448 448" height="512" viewBox="0 0 448 448" width="512" xmlns="http://www.w3.org/2000/svg"><g><path d="m316.237 235.651c-21.592-22.423-51.934-41.882-95.486-61.238-73.774-32.79-98.874-81.668-99.906-83.733-.556-1.111-.845-2.336-.845-3.578 0-26.075-11.034-40.474-16.888-46.276-22.831 14.981-23.112 45.945-23.112 46.276 0 3.444-2.203 6.501-5.47 7.59-20.572 6.857-39.826 20.822-54.215 39.321-12.721 16.355-20.315 34.706-20.315 49.089 0 1.743 0 5.37 8.875 9.136 7.431 3.152 18.17 5.1 28.556 6.993 23.703 4.309 50.569 9.193 50.569 31.871 0 27.354-27.707 48.4-44.222 58.512-2.349 1.459-3.778 4.029-3.778 6.794v46.694c0 4.418 3.582 8 8 8s8-3.582 8-8v-8c.015-13.249 10.751-23.985 24-24h41.933c3.517-10.715 13.034-32.231 35.386-45.2s51.03-13.78 85.211-2.387c4.192 1.397 6.457 5.928 5.06 10.12s-5.928 6.457-10.12 5.06c-29.551-9.852-53.762-9.528-71.964.955-23.768 13.69-29.61 40.777-29.667 41.049-.007.039-.021.1-.029.141-6.07 27.312-1.917 51.572 12.343 72.1 6.335 9.24 14.436 17.134 23.838 23.226 3.831 2.202 5.151 7.092 2.95 10.922-1.428 2.484-4.075 4.015-6.941 4.014h-40c-4.418 0-8 3.582-8 8s3.582 8 8 8h165.675c3.964-2.662 14.531-10.47 25.551-24.6 12.8-16.418 28.89-45.033 32.807-88.124 3.441-37.848-8.268-70.141-35.796-98.727zm-260.237-84.549c-4.418 0-8-3.582-8-8s3.582-8 8-8 8 3.582 8 8-3.582 8-8 8z"/><path d="m308.169 102.124c-34.675-18.914-55.932-41.472-63.18-67.047-3.199-11.131-3.517-22.892-.924-34.179-16.672 3.3-46.393 12.31-65.326 36.208-15.908 20.08-21.357 47.033-16.219 80.141 14.529 13.819 35.546 29.573 64.729 42.543 64.666 28.741 149.607 78.257 140.718 176.036-5.194 57.136-29.66 91.7-47.783 109.879 23.257-2.961 59.081-11.845 86.633-38.116 27.327-26.054 41.183-63.901 41.183-112.487 0-43.957-12.2-80.944-37.3-113.075-22.275-28.507-54.854-53.896-102.531-79.903z"/></g></svg>