<?xml version="1.0" encoding="UTF-8"?>
<svg xmlns="http://www.w3.org/2000/svg" id="Layer_1" data-name="Layer 1" viewBox="0 0 512 512" width="512" height="512"><rect x="442.18" width="69.82" height="512"/><rect x="302.55" y="162.91" width="69.82" height="349.09"/><rect x="162.91" y="325.82" width="69.82" height="186.18"/><rect x="23.27" y="418.91" width="69.82" height="93.09"/><path d="M116.36,0A116.37,116.37,0,1,0,232.73,116.36,116,116,0,0,0,116.36,0Zm29.78,125.44a7.7,7.7,0,0,1-1.78,2.09,8.66,8.66,0,0,1-2.51,1.46,8.26,8.26,0,0,1-3,.55H107.61l-1.73,15.05a39.2,39.2,0,0,1-2.64,10.26,31.36,31.36,0,0,1-5.38,8.43q4.45-1,8.89-1.6a66.82,66.82,0,0,1,8.8-.59h47.23L161.32,172a11.66,11.66,0,0,1-1.37,4,14.73,14.73,0,0,1-2.78,3.64,14.16,14.16,0,0,1-4,2.7,11.57,11.57,0,0,1-4.84,1H61.2L63.39,167q6.19-1.28,9.44-4.79c2.15-2.34,3.51-5.79,4-10.35l2.74-22.34H66.3l1.37-10.67a6.34,6.34,0,0,1,.87-2.32,7.86,7.86,0,0,1,1.78-2.06,9.89,9.89,0,0,1,2.51-1.5,7.68,7.68,0,0,1,3-.59h5.84l2.46-20.15a51.1,51.1,0,0,1,5-16.46A46.36,46.36,0,0,1,99.45,62.11a48.37,48.37,0,0,1,15.27-9.35,53.86,53.86,0,0,1,19.79-3.47,48.51,48.51,0,0,1,14.05,1.83,35.76,35.76,0,0,1,10.48,5,29.59,29.59,0,0,1,7.48,7.7,48.88,48.88,0,0,1,5,9.8l-11.85,7a15,15,0,0,1-7.25,1.65A8.46,8.46,0,0,1,146.37,79c-1.1-1.33-2.12-2.49-3.06-3.46a13.47,13.47,0,0,0-3-2.37,11.88,11.88,0,0,0-3.65-1.32,24.53,24.53,0,0,0-4.87-.42,17.89,17.89,0,0,0-13.18,5.34q-5.34,5.33-6.52,15.27l-2.46,20.34h38.66L147,123.06A6.66,6.66,0,0,1,146.14,125.44Z"/></svg>
